/* XPM */
static char *blue_ball_destroy3[] = {
"42 42 110 2",
"   c #000000",
".  c #0c1449",
"X  c #131b4e",
"o  c #1f2657",
"O  c #2f3663",
"+  c #3e446e",
"@  c #7a2d76",
"#  c #7c337a",
"$  c #4e537a",
"%  c #100f9e",
"&  c #11119f",
"*  c #1717a3",
"=  c #1f20a7",
"-  c #271593",
";  c #39289e",
":  c #2729ae",
">  c #2e30ae",
",  c #2e30b1",
"<  c #322ba9",
"1  c #3435ae",
"2  c #383ab3",
"3  c #3f40b2",
"4  c #421b88",
"5  c #422b9d",
"6  c #4236a6",
"7  c #513fa6",
"8  c #632d87",
"9  c #673289",
"0  c #783682",
"q  c #5a5f84",
"w  c #4243ad",
"e  c #4647b4",
"r  c #4e50af",
"t  c #4f50b9",
"y  c #5f4aa1",
"u  c #5152af",
"i  c #5758b8",
"p  c #5f60bb",
"a  c #7a5b99",
"s  c #6f7393",
"d  c #757998",
"f  c #6667b7",
"g  c #797da4",
"h  c #7778b4",
"j  c #575cc5",
"k  c #6769c3",
"l  c #6e70c5",
"z  c #787ac8",
"x  c #7478d0",
"c  c #7f80bb",
"v  c #7f81cb",
"b  c #7c80d1",
"n  c #992c5f",
"m  c #8a316e",
"M  c #883472",
"N  c #922c63",
"B  c #983063",
"V  c #ad3459",
"C  c #bd334d",
"Z  c #a03462",
"A  c #ac4669",
"S  c #bd536e",
"D  c #dc383c",
"F  c #e1393a",
"G  c #c93849",
"H  c #d83b43",
"J  c #cf4756",
"K  c #d74149",
"L  c #d24552",
"P  c #c54f64",
"I  c #85488a",
"U  c #83589d",
"Y  c #904681",
"T  c #9c6093",
"R  c #946fa9",
"E  c #9471ac",
"W  c #9174b1",
"Q  c #a9648b",
"!  c #a06798",
"~  c #8387a3",
"^  c #8889b7",
"/  c #999ab7",
"(  c #a9aaba",
")  c #b3b3bb",
"_  c #8486cb",
"`  c #888ad2",
"'  c #8e90c4",
"]  c #8d90d1",
"[  c #9697c4",
"{  c #9697d6",
"}  c #9fa0c2",
"|  c #9ea1d8",
" . c #a4a5c1",
".. c #a8a9dd",
"X. c #afb1c4",
"o. c #aeb0de",
"O. c #babbcc",
"+. c #aaace0",
"@. c #b7b8e3",
"#. c #bfc0d0",
"$. c #c4c5d3",
"%. c #d1d2de",
"&. c #c5c6ea",
"*. c #d6d6ed",
"=. c #dcdcf1",
"-. c #e6e6ed",
";. c #e9e9f6",
":. c #f0eff4",
">. c #f9f8fc",
",. c None",
",.,.,.,.,.,.,.,.,.,.,.,.,.,.,.,.,.,.,.,.,.,.,.,.,.,.,.,.,.,.,.,.,.,.,.,.,.,.,.,.,.,.",
",.,.,.,.,.,.,.,.,.,.,.,.,.,.,.,.,.,.,.' v v v ' ) ,.,.,.,.,.,.,.,.,.,.,.,.,.,.,.,.,.",
",.,.,.,.,.,.,.,.,.,.,.,.,.,.,.,.,.,.' v v v v v  .,.,.,.,.,.,.,.,.,.,.,.,.,.,.,.,.,.",
",.,.,.,.,.,.,.,.,.,.,.,.,.,.,.,.,.[ _ v v v v v ' ,.,.,.,.,.,.,.,.,.,.,.,.,.,.,.,.,.",
",.,.,.,.,.,.,.,.,.,.,.,.,.) ( ( ( ' v v v v v v [ ,.,.,.,.,.,.,.,.,.,.,.,.,.,.,.,.,.",
",.,.,.,.,.,.,.,.,.,.( ^ h h r u f t p z z v v v [ ,.,.,.,.,.,.,.,.,.,.,.,.,.,.,.,.,.",
",.,.,.,.,.,.,.,./ h f i z { { ` e 1 > 2 e k v _  .,.,.,.,.,.,.,.,.,.,.,.,.,.,.,.,.,.",
",.,.,.,.,.,.,./ p f p l =.:.>.>.@.] 2 = : 2 k v _ ) ,.,.,.,.,.,.,.,.,.,.,.,.,.,.,.,.",
",.,.,.,.,.,.( z l l k z =.>.>.>.>.;.*.e * : 2 k _ _ ( ,.,.,.,.,.,.,.,.,.,.,.,.,.,.,.",
",.,.,.,.,.( ' z z z z ` =.>.>.>.>.>.>.=.w * * 2 k v _ ( ,.,.,.,.,.,.,.,.,.,.,.,.,.,.",
",.,.,.,.( ^ _ _ _ _ z z @.>.>.>.>.>.>.:.@.> * * 2 l v _ ) ,.,.,.,.,.,.,.,.,.,.,.,.,.",
",.,.,.,.( _ _ { { | ] z { =.>.>.O.O.>.>.*.i * % : l _ [ ,.,.,.,.,.,.,.,.,.,.,.,.,.,.",
",.,.,.,.' _ ..;.;.;.&.+.b &.>.=.o . $ >.>...* & * i [ ,.,.,.,.,.,.,.,.,.,.,.,.,.,.,.",
",.,.,.) ' ] =.>.>.>.>.;.&.x *.%.. . . s >.*.e & % w ( ,.,.,.,.,.,.,.,.,.,.,.,.,.,.,.",
",.,.,.( _ ] *.>.>.>.>.>.>.&.k &.g . X ~ >.*.2 % % : / ) ( ( ( ,.,.,.,.,.,.,.,.,.,.,.",
",.,.,.( _ ] *.>.>.>.>.>.:.=.&.j ] u $.( ;.=.1 & - ; y u w e u f ,.,.,.,.,.,.,.,.,.,.",
",.,.,.( ' ] o.:.>.>.>.X.O . / ..e e z _ z k 9 4 C C m : : : : : r ,.,.,.,.,.( ,.,.,.",
",.,.,.( _ _ | =.>.>.>.#.. . . h k 2 , : : Y H D D G 5 : : : : : : r ,.,.,._ v [ ,.,.",
",.,.,.( z _ ` ..:.>.>.-.+ . X $.` 2 , < @ H L A G D 5 w 1 w e : : : e ( z _ _ _ [ ,.",
",.,.,.( v z _ _ ..>.>.>.-.q d ( ..2 > 8 H J R U D M f / ( ( / h : : : > f _ _ _ _  .",
",.( ' ' z z z z z { ;.:.>.>.>.:.o.2 9 V G Q R H H Q ,.,.,.,.,.^ 2 : : e _ _ v v _ ,.",
"( _ v v z l l l l l _ @.*.;.:.:.z 0 D H Q W L D A ( ,.,.,.,.,.^ > : : i v z z z ,.,.",
"_ v v v z l l k k k j k k ` z z I F S Q E P H N 2 ( ,.,.,.,.,.^ > : 2 z z z z ,.,.,.",
"_ v v v v z l k i i i t e e 2 7 K H ! E K H n : / ,.,.,.,.,.,.f : , k _ z z ,.,.,.,.",
"v v v v v v z l i t t e w 2 1 6 G G T H D B : / ,.,.,.,.,.,.,.h > , l v z ,.,.,.,.,.",
"_ v v v v v v z l i t w 2 1 < Z D D D C A r / ,.,.,.,.,.,.,.,.( 3 e v z ,.,.,.,.,.,.",
"[ _ v v v v v v z z p t w 2 < m G V # a / ( ,.,.,.,.,.,.,.,.,.,./ w i ,.,.,.,.,.,.,.",
",. .} ' _ _ ' _ v v v c ^ h 2 8 ; < i ,.,.,.,.,.,.,.,.,.,.,.,.,.,.( ,.,.,.,.,.,.,.,.",
",.,.,.,.,.) ,.,._ _ ' ,.,.^ : : : u ,.,.,.,.,.,.,.,.,.,.,.,.,.,.,.,.,.,.,.,.,.,.,.,.",
",.,.,.,.,.,.,.,.,.[ ,.,.,.h > : > h ,.,.,.,.,.,.,.,.,.,.,.,.,.,.,.,.,.,.,.,.,.,.,.,.",
",.,.,.,.,.,.,.,.,.,.,.,.,.h > : : h ,.,.,.,.) ,.,.,.,.,.,.,.,.,.,.,.,.,.,.,.,.,.,.,.",
",.,.,.,.,.,.,.,.,.,.,.,.,.^ > : : > / ,.) / f f ( ,.,.,.,.,.,.,.,.,.,.,.,.,.,.,.,.,.",
",.,.,.,.,.,.,.,.,.,.,.,.,./ e : : : : p i > > > e ^ ( ,.,.,.,.,.,.,.,.,.,.,.,.,.,.,.",
",.,.,.,.,.,.,.,.,.,.,.,.,.,.^ 1 : : : : : : : , t f h ( ,.,.,.,.,.,.,.,.,.,.,.,.,.,.",
",.,.,.,.,.,.,.,.,.,.,.,.,.,.,.h 1 : : : : 1 1 l z z i ,.,.,.,.,.,.,.,.,.,.,.,.,.,.,.",
",.,.,.,.,.,.,.,.,.,.,.,.,.,.,.,.^ u 1 2 i z z _ _ _ ,.,.,.,.,.,.,.,.,.,.,.,.,.,.,.,.",
",.,.,.,.,.,.,.,.,.,.,.,.,.,.,.,.,.( h t z l _ _ _ ,.,.,.,.,.,.,.,.,.,.,.,.,.,.,.,.,.",
",.,.,.,.,.,.,.,.,.,.,.,.,.,.,.,.,.,./ z z z _ _ ,.,.,.,.,.,.,.,.,.,.,.,.,.,.,.,.,.,.",
",.,.,.,.,.,.,.,.,.,.,.,.,.,.,.,.,.) _ _ _ _ _ ,.,.,.,.,.,.,.,.,.,.,.,.,.,.,.,.,.,.,.",
",.,.,.,.,.,.,.,.,.,.,.,.,.,.,.,.,.) f l z _ ,.,.,.,.,.,.,.,.,.,.,.,.,.,.,.,.,.,.,.,.",
",.,.,.,.,.,.,.,.,.,.,.,.,.,.,.,.,.,./ r z ,.,.,.,.,.,.,.,.,.,.,.,.,.,.,.,.,.,.,.,.,.",
",.,.,.,.,.,.,.,.,.,.,.,.,.,.,.,.,.,.,.,.,.,.,.,.,.,.,.,.,.,.,.,.,.,.,.,.,.,.,.,.,.,."
};
