/* XPM */
static char *blue_ball_destroy4[] = {
"42 42 100 2",
"   c #000000",
".  c #0c1449",
"X  c #151d50",
"o  c #1b2354",
"O  c #202759",
"+  c #2b3260",
"@  c #363d6b",
"#  c #7b2f78",
"$  c #76307c",
"%  c #4b5179",
"&  c #51567d",
"*  c #11109f",
"=  c #1617a2",
"-  c #292aad",
";  c #2e30af",
":  c #2e31b2",
">  c #352ca7",
",  c #3637ae",
"<  c #3638b2",
"1  c #3e41b4",
"2  c #4e2187",
"3  c #5d2e8c",
"4  c #4438a5",
"5  c #6d3a8c",
"6  c #6a3d92",
"7  c #4c46a8",
"8  c #4647b5",
"9  c #4e50b1",
"0  c #5254af",
"q  c #5557b7",
"w  c #5f60ba",
"e  c #6f438f",
"r  c #67499a",
"t  c #6552a2",
"y  c #676b8d",
"u  c #6e7293",
"i  c #6667b9",
"p  c #6f70b7",
"a  c #7879b5",
"s  c #5355c0",
"d  c #5e61c3",
"f  c #6769c2",
"g  c #6e70c4",
"h  c #787ac8",
"j  c #7f81cb",
"k  c #822768",
"l  c #823276",
"z  c #973268",
"x  c #a6335d",
"c  c #be354e",
"v  c #b73b57",
"b  c #a73d68",
"n  c #964877",
"m  c #aa446c",
"M  c #a04a7a",
"N  c #ab547b",
"B  c #b04564",
"V  c #d6373e",
"C  c #c8384a",
"Z  c #d43b44",
"A  c #ce4554",
"S  c #d5414a",
"D  c #c64e63",
"F  c #924b84",
"G  c #8c71b2",
"H  c #9372ae",
"J  c #9074b2",
"K  c #8c88aa",
"L  c #8687b7",
"P  c #8f91b2",
"I  c #9696ba",
"U  c #9fa0be",
"Y  c #a9aabb",
"T  c #b0adb6",
"R  c #b4b4ba",
"E  c #8587ca",
"W  c #8a8cd2",
"Q  c #8f91c6",
"!  c #8e91d1",
"~  c #948ccc",
"^  c #9798c4",
"/  c #9597d5",
"(  c #9fa0c3",
")  c #a5a6c1",
"_  c #a3a5dc",
"`  c #afb1c6",
"'  c #b6b8c9",
"]  c #b7b9dd",
"[  c #adaee0",
"{  c #b4b4e2",
"}  c #bfc0e4",
"|  c #c8c9e9",
" . c #cfd0ee",
".. c #d4d4ee",
"X. c #ddddf1",
"o. c #e6e6ed",
"O. c #eae9f5",
"+. c #f0eff8",
"@. c #f9f8fc",
"#. c None",
"#.#.#.#.#.#.#.#.#.#.#.#.#.#.#.#.#.#.#.#.#.#.#.#.#.#.#.#.#.#.#.#.#.#.#.#.#.#.#.#.#.#.",
"#.#.#.#.#.#.#.#.#.#.#.#.#.#.#.#.#.#.#.#.#.#.#.#.#.#.#.#.#.#.#.#.#.#.#.#.#.#.#.#.#.#.",
"#.#.#.#.#.#.#.#.#.#.#.#.#.#.#.#.#.#.#.#.#.#.#.#.#.#.#.#.#.#.#.#.#.#.#.#.#.#.#.#.#.#.",
"#.#.#.#.#.#.#.#.#.#.#.#.#.#.#.#.#.#.#.#.#.#.#.#.#.#.#.#.#.#.#.#.#.#.#.#.#.#.#.#.#.#.",
"#.#.#.#.#.#.#.#.#.#.#.#.#.#.#.#.#.#.#.#.#.#.#.#.#.#.#.#.#.#.#.#.#.#.#.#.#.#.#.#.#.#.",
"#.#.#.#.#.#.#.#.#.#.#.#.#.#.#.#.#.#.#.#.#.#.#.#.#.#.#.#.#.#.#.#.#.#.#.#.#.#.#.#.#.#.",
"#.#.#.#.#.#.#.#.#.#.#.#.#.#.#.#.#.#.#.#.#.#.#.#.#.#.#.#.#.#.#.#.#.#.#.#.#.#.#.#.#.#.",
"#.#.#.#.#.#.#.#.#.#.#.T ) T #.#.#.#.#.#.#.#.#.#.#.#.#.#.#.#.#.#.#.#.#.#.#.#.#.#.#.#.",
"#.#.#.#.#.#.#.#.#.#.^ Q E Q ^ T #.#.#.#.#.#.#.#.#.#.#.#.#.#.#.#.T Y T T #.#.#.#.#.#.",
"#.#.#.#.#.#.#.#.#.#.Q j j j E ^ R #.#.#.#.#.#.#.#.#.#.#.#.#.#.T Q E Q Q #.#.#.#.#.#.",
"#.#.#.#.#.#.#.#.#.#.Q j j j j E ) #.#.#.#.#.#.#.#.#.#.#.#.#.#.) E E E E #.#.#.#.#.#.",
"#.#.#.#.#.#.#.#.#.#.Q j j j j j E E Q E E ^ #.#.#.#.#.#.#.#.#.I h E j h #.#.#.#.#.#.",
"#.#.#.#.#.#.#.#.#.#.Q j h h g g g g h h h ^ R #.#.Y i 9 9 0 q 8 q j h h #.#.#.#.#.#.",
"#.#.#.#.#.#.#.#.#.#.^ h f 8 < , , , < 8 f I R #.I q ; - - - - - 8 h h h #.#.#.#.#.#.",
"#.#.#.#.#.#.#.#.#.T L q < ; - - = = = = - 0 P I 0 ; - ; < < ; - : f j h #.#.#.#.#.#.",
"#.#.#.#.#.#.#.#.R L i q g E W E g 8 - = * = 4 r > - ; 0 L L 0 ; - d h h #.#.#.#.#.#.",
"#.#.#.#.#.#.#.#.P p ! { ..O.@.@.o.{ W 8 = * 2 x 3 ; 0 P R R L 8 - 8 h h #.#.#.#.#.#.",
"#.#.#.#.#.#.#.Y p _ X.@.@.@.@.O.O.+.+.[ 8 = k V x 4 P #.#.#.T p < : q f #.#.#.#.#.#.",
"#.#.#.#.#.#.#.L i  .@.@.@.@.o.u % y o.+./ 5 c C Z e T #.#.#.#.Y a w i i #.#.#.#.#.#.",
"#.#.#.#.#.#.Y i f _ O.@.@.@.K O . X u | E M Z F C B R #.#.#.#.#.#.T Y Y #.#.#.#.#.#.",
"#.#.#.#.#.#.a i f h [ X.O.@.+.& O @ ] h : z D G A C K #.#.#.#.#.#.#.#.#.#.#.#.#.#.#.",
"#.#.#.#.#.#.a g h h h W _ | .. .[ h 1 : - z Z H A C 7 #.#.#.#.#.#.#.#.#.#.#.#.#.#.#.",
"#.#.#.#.#.#.L h j E ! / _ _ / W h d 8 < ; # C H D C , #.#.#.#.#.#.#.#.#.#.#.#.#.#.#.",
"#.#.#.#.#.#.^ j W / | X.O.@.+.Y P L W s : l C J A C , #.#.#.#.#.#.#.#.#.#.#.#.#.#.#.",
"#.#.#.#.#.#.I E /  .+.@.@.@.Y o . + ` [ q z A J S c 0 #.#.#.#.#.#.#.#.#.#.#.#.#.#.#.",
"#.#.#.#.#.#.I E _ +.@.@.@.@.Y + o @ ` O.~ b A J Z v a #.#.#.#.#.#.#.#.#.#.#.#.#.#.#.",
"#.#.#.#.#.#.Y E / X.@.@.@.@.@.` Y ' @.O.~ m S N Z n Y #.#.#.#.#.R R T R #.#.#.#.#.#.",
"#.#.#.#.#.#.#.^ W ] X.+.@.@.@.@.@.@.o./ q 6 C Z C t #.#.#.#.Y L a a L a #.#.#.#.#.#.",
"#.#.#.#.#.#.#.Y Q ! _ } ..o.O.O...[ h q < 4 v Z $ q #.#.#.#.a 8 < i h f #.#.#.#.#.#.",
"#.#.#.#.#.#.#.#.) Q W ! ! ! W E h f q 8 < > 3 z > 0 #.#.#.Y 0 - < h E h #.#.#.#.#.#.",
"#.#.#.#.#.#.#.#.#.Y E j j h h g f q 9 8 < , , > - , a R Y p , - 1 j E E #.#.#.#.#.#.",
"#.#.#.#.#.#.#.#.#.#.U E h h g f i q 9 8 8 i a 1 - - , 8 8 , - < f j E E #.#.#.#.#.#.",
"#.#.#.#.#.#.#.#.#.#.T Q h h g f i q q q p I Y p , - - - - - ; 8 h h E E #.#.#.#.#.#.",
"#.#.#.#.#.#.#.#.#.#.) E h h h h h h h h E Y #.Y p 1 ; - ; , 8 q g h E #.#.#.#.#.#.#.",
"#.#.#.#.#.#.#.#.#.#.^ j j j j j j j j E Q ) #.#.T L p i i p L L h E E #.#.#.#.#.#.#.",
"#.#.#.#.#.#.#.#.#.#.^ j j j j j E Q ( ) T #.#.#.#.#.#.R R R #.Y E g g #.#.#.#.#.#.#.",
"#.#.#.#.#.#.#.#.#.#.^ E j j j E E ) #.#.#.#.#.#.#.#.#.#.#.#.#.#.I L L #.#.#.#.#.#.#.",
"#.#.#.#.#.#.#.#.#.#.) Q E E E Q ) #.#.#.#.#.#.#.#.#.#.#.#.#.#.#.#.#.#.#.#.#.#.#.#.#.",
"#.#.#.#.#.#.#.#.#.#.#.) ^ ^ ) R #.#.#.#.#.#.#.#.#.#.#.#.#.#.#.#.#.#.#.#.#.#.#.#.#.#.",
"#.#.#.#.#.#.#.#.#.#.#.#.#.#.#.#.#.#.#.#.#.#.#.#.#.#.#.#.#.#.#.#.#.#.#.#.#.#.#.#.#.#.",
"#.#.#.#.#.#.#.#.#.#.#.#.#.#.#.#.#.#.#.#.#.#.#.#.#.#.#.#.#.#.#.#.#.#.#.#.#.#.#.#.#.#.",
"#.#.#.#.#.#.#.#.#.#.#.#.#.#.#.#.#.#.#.#.#.#.#.#.#.#.#.#.#.#.#.#.#.#.#.#.#.#.#.#.#.#."
};
