/* XPM */
static char *blue_ball_jump15[] = {
"42 42 61 1",
"  c #000000",
". c #0c1449",
"X c #0f0f9e",
"o c #100f9e",
"O c #12119e",
"+ c #1617a4",
"@ c #3a269c",
"# c #2729ae",
"$ c #2a2cb0",
"% c #2f30ad",
"& c #2e30b2",
"* c #3728a1",
"= c #3536ae",
"- c #383ab3",
"; c #3e41b7",
": c #4d2c95",
"> c #582a89",
", c #6d3b88",
"< c #4041af",
"1 c #4648b6",
"2 c #4f51af",
"3 c #4e50b8",
"4 c #5353ad",
"5 c #5658b9",
"6 c #5f60bd",
"7 c #6465b8",
"8 c #7a7bb5",
"9 c #555ac5",
"0 c #6769c3",
"q c #6e70c6",
"w c #787ac9",
"e c #7a7ed0",
"r c #7f81cb",
"t c #aa2f55",
"y c #a9325a",
"u c #b73856",
"i c #db383c",
"p c #e43837",
"a c #cb3544",
"s c #d93d44",
"d c #c94b5e",
"f c #d7424a",
"g c #ae5f86",
"h c #8687b7",
"j c #9798b7",
"k c #a5a5b9",
"l c #8385cb",
"z c #8a8cd1",
"x c #8e91d1",
"c c #9798c3",
"v c #9798d6",
"b c #a3a4c2",
"n c #a5a7dd",
"m c #babae4",
"M c #c7c7e9",
"N c #d2d3ed",
"B c #dedef1",
"V c #eae9f6",
"C c #f0eff8",
"Z c #faf9fc",
"A c None",
"AAAAAAAAAAAAAAAAAAAAAAAAAAAAAAAAAAAAAAAAAA",
"AAAAAAAAAAAAAAAAAAAAAAAAAAAAAAAAAAAAAAAAAA",
"AAAAAAAAAAAAAAAAAAAAAAAAAAAAAAAAAAAAAAAAAA",
"AAAAAAAAAAAAAAAAAAAAAAAAAAAAAAAAAAAAAAAAAA",
"AAAAAAAAAAAAAAAAAAAAAAAAAAAAAAAAAAAAAAAAAA",
"AAAAAAAAAAAAAAAAAAAAAAAAAAAAAAAAAAAAAAAAAA",
"AAAAAAAAAAAAAAAAAAAAAAAAAAAAAAAAAAAAAAAAAA",
"AAAAAAAAAAAAAAAAAAAAAAAAAAAAAAAAAAAAAAAAAA",
"AAAAAAAAAAAAAAAAAAAAAAAAAAAAAAAAAAAAAAAAAA",
"AAAAAAAAAAAAAAAAhhjl057AAAAAAAAAAAAAAAAAAA",
"AAAAAAAAAAAAAAjrrlrww0658AAAAAAAAAAAAAAAAA",
"AAAAAAAAAAAAkrzzzzzlwq0531jAAAAAAAAAAAAAAA",
"AAAAAAAAAAAAlzxBZBxzeq0nZv<4AAAAAAAAAAAAAA",
"AAAAAAAAAAAlzxBZZZBzeqmZZZn-jAlrrrrrAAAAAA",
"AAAclrrrAAwlznZZZZZnewZZZZZ-=qrrrrrrAAAAAA",
"AAbrrrrrrwwlxNZZZZZNenZZZZZw#3errrrrxAAAAA",
"AAzrrrrrrqwlxVZZZZZVwNZZZZZM##wrrrrrbAAAAA",
"AAlrrrrrqqwrzZZZZZZZqCZZZZZV#+1errrrAAAAAA",
"AAcrrrrrq0qwlZZZZ.ZZ0ZZ.ZZZZ++<errrcAAAAAA",
"AAArrrrrq7qqwZZZ...Z9C...ZZV++<errbAAAAAAA",
"AAAcrrrrq670qVZZ...V9M...ZZm++-elAAAAAAAAA",
"AAAAzrrrq5560mZZ...m1z...ZZq++-elAAAAAAAAA",
"AAAAAcrrq3355eZZZ.Zq;1Z.ZZZ#++;elAAAAAAAAA",
"AAAAAArrw31133MZZZM--&vZZZx+O+;elAAAAAAAAA",
"AAAAAArre3-;<<<MZM-&&$#zZz+OO+wrrAAAAAAAAA",
"AAAAAAzrr6-=---33=&$*@#5-++o+5lrzAAAAAAAAA",
"AAAAAAAAAk3%%%=fpppyypppsOXX+jAAAAAAAAAAAA",
"AAAAAAAAAAj=@appfgisssgfppa@8AAAAAAAAAAAAA",
"AAAAAAAAA7##uppuwrrrrrr5tppu=kAAAAAAAAAAAA",
"AAAAAAAA7####:ipiisddsiipi:##=jAAAAAAAAAAA",
"AAAAAAAh######%>aiippiia,$####=jAAAAAAAAAA",
"AAAAAAA2###1AAAAh2++++5AAAh####<AAAAAAAAAA",
"AAAAAAA=###AAAAAAAAAAAAAAAAh$###AAAAAAAAAA",
"AAAAAAA=###AAAAAAAAAAAAAAAAAh###AAAAAAAAAA",
"AAAAAAA=###AAAAAAAAAAAAAAAAAA###AAAAAAAAAA",
"AAAAAAA2###<jAAAAAAAAAAAAAAA5###AAAAAAAAAA",
"AAAAAAAj#####<hAAAAAAAAAAAj1####AAAAAAAAAA",
"AAAAAAAh-1####=AAAAAAAAAAj%#####;lejAAAAAA",
"AAAAAjww0lw&##$kAAAAAAAAA=####3rlllqAAAAAA",
"AAAAA5llr0lllw-jAAAAAAAAA##3elllllllAAAAAA",
"AAAAA<wllllllll8AAAAAAAAk#lllrwwwlllAAAAAA",
"AAAAA8rllllllr3hAAAAAAAAA=wwwwwwwwlzAAAAAA"
};
