/* XPM */
static char *blue_ball_destroy10[] = {
"42 42 34 1",
"  c #000000",
". c #2c29a7",
"X c #5f328e",
"o c #433cab",
"O c #64368e",
"+ c #703486",
"@ c #4647b3",
"# c #5758b9",
"$ c #696ab3",
"% c #6769c1",
"& c #6e70c3",
"* c #7a7cc9",
"= c #7f80be",
"- c #7f81cb",
"; c #b44565",
": c #bb506d",
"> c #8f5795",
", c #a26b9d",
"< c #8a8bb5",
"1 c #9899ba",
"2 c #a8a8bb",
"3 c #afb0be",
"4 c #bbbbbb",
"5 c #8889c5",
"6 c #9495c7",
"7 c #9ea0d1",
"8 c #aaabc0",
"9 c #a9aadc",
"0 c #bbbdcd",
"q c #bbbddf",
"w c #c1c1ba",
"e c #eeeef8",
"r c #f8f7fb",
"t c None",
"tttttttttttttttttttttttttttttttttttttttttt",
"tttttttttttttttttttttttttttttttttttttttttt",
"tttttttttttttttttttttttttttttttttttttttttt",
"tttttttttttttttttttttttttttttttttttttttttt",
"tttttttttttttttttttttttttttttttttttttttttt",
"tttttttttttttttttttttttttttttttttttttttttt",
"tttttttttttttttttttttttttttttttttttttttttt",
"tttttttttttttttttttttttttttttttttttttttttt",
"tttttttttttttttttttttttttttttttttttttttttt",
"tttttttttttttttttttttttttttttttttttttttttt",
"tttttttttttttttttttttttttttttttttttttttttt",
"tttttttttttttttttttttttttttttttttttttttttt",
"tttttttttttttttttttttttttttttttttttttttttt",
"tttttttttttttttttttttttttttttttttttttttttt",
"tttttttttttttttttttttttttttttttttttttttttt",
"tttttttttttttttttttttttttttttttttttttttttt",
"ttttttttttttttttttw444ttwttttttttttttttttt",
"ttttttttttttttttww27*52wwttttttttttttttttt",
"ttttttttttttttt4669r9e6*54tttttttttttttttt",
"ttttttttttttttt8-&90q29#6ttttttttttttttttt",
"tttttttttttttttt6%*2&$*#4ttttttttttttttttt",
"tttttttttttttttt3=o,+>.<tttttttttttttttttt",
"ttttttttttttttttt$X;:;O1tttttttttttttttttt",
"tttttttttttttttt4.23<4<#wttttttttttttttttt",
"tttttttttttttttt4@#2t4$@3wtttttttttttttttt",
"tttttttttttttttt1*&2w2#*5wtttttttttttttttt",
"tttttttttttttttttttttttttttttttttttttttttt",
"tttttttttttttttttttttttttttttttttttttttttt",
"tttttttttttttttttttttttttttttttttttttttttt",
"tttttttttttttttttttttttttttttttttttttttttt",
"tttttttttttttttttttttttttttttttttttttttttt",
"tttttttttttttttttttttttttttttttttttttttttt",
"tttttttttttttttttttttttttttttttttttttttttt",
"tttttttttttttttttttttttttttttttttttttttttt",
"tttttttttttttttttttttttttttttttttttttttttt",
"tttttttttttttttttttttttttttttttttttttttttt",
"tttttttttttttttttttttttttttttttttttttttttt",
"tttttttttttttttttttttttttttttttttttttttttt",
"tttttttttttttttttttttttttttttttttttttttttt",
"tttttttttttttttttttttttttttttttttttttttttt",
"tttttttttttttttttttttttttttttttttttttttttt",
"tttttttttttttttttttttttttttttttttttttttttt"
};
