/* XPM */
static char *blue_ball_destroy5[] = {
"42 42 94 2",
"   c #000000",
".  c #0e164a",
"X  c #131b4f",
"o  c #161e51",
"O  c #242b5c",
"+  c #3e4470",
"@  c #622078",
"#  c #782d75",
"$  c #7c3379",
"%  c #16119c",
"&  c #1819a3",
"*  c #3f2293",
"=  c #292aad",
"-  c #2e30af",
";  c #322da8",
":  c #3535ae",
">  c #3839b2",
",  c #3f41b3",
"<  c #4a2c97",
"1  c #5d2f8d",
"2  c #5f308b",
"3  c #5a3393",
"4  c #4235a5",
"5  c #632c86",
"6  c #6a378e",
"7  c #545989",
"8  c #4344ac",
"9  c #4749b8",
"0  c #4f51b8",
"q  c #5758b8",
"w  c #5f60b9",
"e  c #6a6e8f",
"r  c #6a6e90",
"t  c #777b9a",
"y  c #6663ac",
"u  c #6566b8",
"i  c #6f70b3",
"p  c #7966a4",
"a  c #7879b6",
"s  c #5458c2",
"d  c #696bc3",
"f  c #6e70c4",
"g  c #797bc9",
"h  c #7d819e",
"j  c #7f81ca",
"k  c #812b6f",
"l  c #843c7a",
"z  c #ae365a",
"x  c #bb3954",
"c  c #a23964",
"v  c #9b4471",
"b  c #bf445d",
"n  c #bb4863",
"m  c #be536e",
"M  c #b95675",
"N  c #a9607e",
"B  c #c9384a",
"V  c #d53841",
"C  c #c84458",
"Z  c #c24e66",
"A  c #8c4987",
"S  c #845aa0",
"D  c #9c689b",
"F  c #a26798",
"G  c #ae798e",
"H  c #8787b6",
"J  c #8f90bf",
"K  c #9797b7",
"L  c #9fa1b8",
"P  c #aaaabb",
"I  c #b2b3ba",
"U  c #8586ca",
"Y  c #8a8cd3",
"T  c #908dd1",
"R  c #9799c4",
"E  c #9698d6",
"W  c #9ea1da",
"Q  c #a5a6c3",
"!  c #a8a8dd",
"~  c #aeb0df",
"^  c #b3b5c7",
"/  c #b3b4df",
"(  c #b8b8e3",
")  c #bfc1e8",
"_  c #c4c5d4",
"`  c #d4d4df",
"'  c #c6c6e8",
"]  c #d9d9eb",
"[  c #dbdcf1",
"{  c #e6e6ee",
"}  c #ebeaf5",
"|  c #f0eff8",
" . c #f8f7fb",
".. c None",
"....................................................................................",
"....................................................................................",
"....................................................................................",
"....................................................................................",
"....................................................................................",
"......................................P U U ........................................",
"....................................I U U j g ......................................",
"....................................P U U U g g ....................................",
"......................................Q d g g g g ..................................",
"........................................w > 0 d g g d ..............................",
"......................................a - = = > 9 q q H ............................",
"....................................a > = - - - - > a I ............................",
"..................................K > = > a a a a J ................................",
"..................................H - = q ..........................................",
"..................................a = = q ..........................................",
"..........................P Q ....H - = 0 ......................J ..................",
"........................I U U Q I H 3 < : K ..................L j f ................",
"........................R g d u 8 ; k B B v G K I ..........P u q U U ..............",
"..............P R R R R j q = & % % @ B x C B $ y I ........H > 9 g U U ............",
"............R U U U U g q - & & = = * x b D Z B # y I ......H > = q g g U ..........",
"............U U j j g d > & = q E ! U A C m F M B l H ......I q = 8 f g U j ........",
"..........P U j j j f > & 9 ~ { } { / 9 5 x n D M B N P ......u - : 0 f g i H ......",
"............Q U j j d = 9 ' | ] t t Q 0 ; 1 z Z D n c p P ..P q = - w K U J I ......",
"..............Q U g 0 8 !  .} h o O a 9 > > 6 x C C B 3 q a q - = > H ..............",
"................P K 0 d [  .} r . 7 g s f E T S b x V $ ; - = = - u I ..............",
"..................P u !  . . .] _ ( Y H K L  .~ 0 4 2 3 ; - - > y I ................",
"..................P u (  . . .| ] E Q + . e  .( 0 > : 0 i u i H P ..................",
"....................a (  .| [ ( W [ ^ O X L | ! 0 , > u P I ........................",
"....................H g ! ! E Y )  .` P P | { E q 9 9 u K ..........................",
"....................K u d f g E [  . . . . .' g q 0 q g U Q ........................",
"....................I a d g U ~ |  . . . .] T f u q d g U Q ........................",
"......................K a g U / |  . .| [ E g f u d g j R ..........................",
"........................P U U E ' } [ ' E U g f f g j U Q ..........................",
"..........................I J U Y E E Y U g g f g j j U R ..........................",
"............................I K R R R R R R U g j j j U Q ..........................",
"....................................I ......R j j j j U P ..........................",
"............................................P U j j U T ............................",
"....................................................................................",
"....................................................................................",
"....................................................................................",
"....................................................................................",
"...................................................................................."
};
