/* XPM */
static char *blue_ball_jump4[] = {
"42 42 68 1",
"  c #000000",
". c #0c1449",
"X c #10184c",
"o c #1e2557",
"O c #242b5c",
"+ c #282f60",
"@ c #2b3263",
"# c #333869",
"$ c #434875",
"% c #4a507b",
"& c #0f0f9e",
"* c #100f9e",
"= c #12119e",
"- c #1617a4",
"; c #3a269c",
": c #2729ae",
"> c #2a2cb0",
", c #2f30ad",
"< c #2e30b2",
"1 c #3728a1",
"2 c #3536ae",
"3 c #383ab3",
"4 c #3e41b7",
"5 c #4d2c95",
"6 c #582a89",
"7 c #6d3b88",
"8 c #525882",
"9 c #4041af",
"0 c #4748b6",
"q c #4f51af",
"w c #4e50b8",
"e c #5353ad",
"r c #5658b9",
"t c #5f60bd",
"y c #6566b8",
"u c #7378ad",
"i c #797bb6",
"p c #575bc4",
"a c #6769c3",
"s c #6e70c6",
"d c #787ac8",
"f c #7a7ed0",
"g c #7f81cb",
"h c #aa2f55",
"j c #a9325a",
"k c #b73856",
"l c #db383c",
"z c #e43837",
"x c #cb3544",
"c c #d93d44",
"v c #c94b5e",
"b c #d7424a",
"n c #ae5f86",
"m c #8687b7",
"M c #9798b7",
"N c #8385cb",
"B c #8a8dd1",
"V c #8e91c1",
"C c #8e91d1",
"Z c #9798c3",
"A c #9194d3",
"S c #a1a2c2",
"D c #b8b9e4",
"F c #c6c5e8",
"G c #d6d7e2",
"H c #e3e2f3",
"J c #faf9fc",
"K c None",
"KKKKKKKKKKKKKKKKKKKKKKKKKKKKKKKKKKKKKKKKKK",
"KKKKKKKKKKKKKKKKKKKKKKKKKKKKKKKKKKKKKKKKKK",
"KKKKKKKKKKKKKKKKKKKKKKKKKKKKKKKKKKKKKKKKKK",
"KKKKKKKKKKKKKKKKKKKKKKKKKKKKKKKKKKKKKKKKKK",
"KKKKKKKKKKKKKKKKKKKKKKKKKKKKKKKKKKKKKKKKKK",
"KKKKKKKKKKKKKKKKKKKKKKKKKKKKKKKKKKKKKKKKKK",
"KKKKKKKKKKKKKKKKKKKKKKKKKKKKKKKKKKKKKKKKKK",
"KKKKKKKKKKKKKKKKKKKKKKKKKKKKKKKKKKKKKKKKKK",
"KKKKKKKKKKKKKKKKKKKKKKKKKKKKKKKKKKKKKKKKKK",
"KKKKKKKKKKKKKKKKmmMNaryKKKKKKKKKKKKKKKKKKK",
"KKKKKKKKKKKKKKMdgNgddatriKKKKKKKKKKKKKKKKK",
"KKKKKKKKKKKKKdBBBBBNdsarw0MKKKKKKKKKKKKKKK",
"KKKKKKKKKKKKNBC8.%ABfsa%.89eKKKKKKKKKKKKKK",
"KKKKKKKKKKKNBC$..XOBfs+X..$3MKNgggggKKKKKK",
"KKKZNgggKKdNBV.....ufi.....y2sggggggKKKKKK",
"KKKggggggddNC@.....@f#.....#:wfgggggVKKKKK",
"KKBggggggsdNCo.....XfX.....o::dgggggKKKKKK",
"KKNgggggssdgBX.....XsX.....X:-0fggggKKKKKK",
"KKZgggggsasdN......XaX......--9fgggZKKKKKK",
"KKKgggggsyssdGOo...GpG...oOG--9fggSKKKKKKK",
"KKKZggggstyasHJJ...HpH...JJH--3fNKKKKKKKKK",
"KKKKBgggsrrtaDJJ...D0D...JJD--3fNKKKKKKKKK",
"KKKKKZggswwrrfJJJ.Js4pJ.JJJr--4fNKKKKKKKKK",
"KKKKKKggdw00wwFJJJF33<FJJJF-=-4fNKKKKKKKKK",
"KKKKKKggfw34999FJF3<<>:FJF-==-dggKKKKKKKKK",
"KKKKKKBggt32333ww2<>1;:r3--*-rNgBKKKKKKKKK",
"KKKKKKKKKKw,,,2bzzzjjzzzc=&&-MKKKKKKKKKKKK",
"KKKKKKKKKKM2;xzzbnlcccnbzzx;iKKKKKKKKKKKKK",
"KKKKKKKKKy::kzzkdggggggrhzzk2KKKKKKKKKKKKK",
"KKKKKKKKy::::5lzllcvvcllzl5::2MKKKKKKKKKKK",
"KKKKKKKm::::::,6xllzzllx7>::::2MKKKKKKKKKK",
"KKKKKKKq:::0KKKKmq----rKKKm::::9KKKKKKKKKK",
"KKKKKKK2:::KKKKKKKKKKKKKKKKm>:::KKKKKKKKKK",
"KKKKKKK2:::KKKKKKKKKKKKKKKKKm:::KKKKKKKKKK",
"KKKKKKK2:::KKKKKKKKKKKKKKKKKK:::KKKKKKKKKK",
"KKKKKKKq:::9MKKKKKKKKKKKKKKKr:::KKKKKKKKKK",
"KKKKKKKM:::::9mKKKKKKKKKKKM0::::KKKKKKKKKK",
"KKKKKKKm30::::2KKKKKKKKKKM,:::::4NfMKKKKKK",
"KKKKKMddaNd<::>KKKKKKKKKK2::::wgNNNsKKKKKK",
"KKKKKrNNgaNNNd3MKKKKKKKKK::wfNNNNNNNKKKKKK",
"KKKKK9dNNNNNNNNiKKKKKKKKK:NNNgdddNNgKKKKKK",
"KKKKKigNNNNNNgwmKKKKKKKKK2ddddddddddKKKKKK"
};
