/* XPM */
static char *blue_ball_jump9[] = {
"42 42 72 1",
"  c #000000",
". c #0c1449",
"X c #121a4d",
"o c #161d50",
"O c #192053",
"+ c #232a5a",
"@ c #293061",
"# c #323868",
"$ c #3a4173",
"% c #444a77",
"& c #4e537a",
"* c #0f0f9e",
"= c #100f9e",
"- c #12119e",
"; c #1617a4",
": c #3a269c",
"> c #2729ae",
", c #2a2cb0",
"< c #2f30ad",
"1 c #2e30b2",
"2 c #3728a1",
"3 c #3536ae",
"4 c #383ab3",
"5 c #3e41b7",
"6 c #4d2c95",
"7 c #582a89",
"8 c #6d3b88",
"9 c #535983",
"0 c #4041af",
"q c #4748b6",
"w c #4f51af",
"e c #4e50b8",
"r c #5353ad",
"t c #5758b9",
"y c #5f60bd",
"u c #656a8c",
"i c #6465b8",
"p c #7378ad",
"a c #797bb7",
"s c #5559c4",
"d c #6769c3",
"f c #6e70c6",
"g c #787ac8",
"h c #7a7ed0",
"j c #7f81cb",
"k c #aa2f55",
"l c #a9325a",
"z c #b73856",
"x c #db383c",
"c c #e43837",
"v c #cb3544",
"b c #d93d44",
"n c #c94b5e",
"m c #d7424a",
"M c #ae5f86",
"N c #8687b7",
"B c #9798b7",
"V c #a5a5b9",
"C c #8385cb",
"Z c #8a8dd1",
"A c #8e91c1",
"S c #8e91d1",
"D c #9798c3",
"F c #9194d3",
"G c #a3a4c2",
"H c #b1b2df",
"J c #afb0e2",
"K c #bcbde5",
"L c #c6c6e9",
"P c #e3e2f3",
"I c #faf9fc",
"U c None",
"UUUUUUUUUUUUUUUUUUUUUUUUUUUUUUUUUUUUUUUUUU",
"UUUUUUUUUUUUUUUUUUUUUUUUUUUUUUUUUUUUUUUUUU",
"UUUUUUUUUUUUUUUUUUUUUUUUUUUUUUUUUUUUUUUUUU",
"UUUUUUUUUUUUUUUUUUUUUUUUUUUUUUUUUUUUUUUUUU",
"UUUUUUUUUUUUUUUUUUUUUUUUUUUUUUUUUUUUUUUUUU",
"UUUUUUUUUUUUUUUUUUUUUUUUUUUUUUUUUUUUUUUUUU",
"UUUUUUUUUUUUUUUUUUUUUUUUUUUUUUUUUUUUUUUUUU",
"UUUUUUUUUUUUUUUUUUUUUUUUUUUUUUUUUUUUUUUUUU",
"UUUUUUUUUUUUUUUUUUUUUUUUUUUUUUUUUUUUUUUUUU",
"UUUUUUUUUUUUUUUUNNBCdtiUUUUUUUUUUUUUUUUUUU",
"UUUUUUUUUUUUUUBgjCjggdytaUUUUUUUUUUUUUUUUU",
"UUUUUUUUUUUUVgZZZZZCgfdteqBUUUUUUUUUUUUUUU",
"UUUUUUUUUUUUCZS9.%FZjfd9.90rUUUUUUUUUUUUUU",
"UUUUUUUUUUUCZS%.oX+Zjf#Xo.%4BUCjjjjjUUUUUU",
"UUUDCjjjUUgCZA..+o.pja.o+..t3fjjjjjjUUUUUU",
"UUGjjjjjjggCS#+X.+.@h$.+.X+%>ehjjjjjAUUUUU",
"UUZjjjjjjfgCS+O..X.Xho.X..O#>>gjjjjjGUUUUU",
"UUCjjjjjffgjZXo&IIu%f%uII&oo>;qhjjjjUUUUUU",
"UUDjjjjjfdfgCXIII.IIdII.IIIX;;0hjjjDUUUUUU",
"UUUjjjjjfiffgIII...IsI...III;;0hjjGUUUUUUU",
"UUUDjjjjfyidfPII...PsP...IIP;;4hCUUUUUUUUU",
"UUUUZjjjfttydKII...KqJ...IIH;;4hCUUUUUUUUU",
"UUUUUDjjfeetthIII.If5sI.IIIq;;5hCUUUUUUUUU",
"UUUUUUjjgeqqeeLIIIL441LIIIL;-;5hCUUUUUUUUU",
"UUUUUUjjhe45000LIL411,>KIK;--;gjjUUUUUUUUU",
"UUUUUUZjjy43444ee31,2:>t4;;=;tCjZUUUUUUUUU",
"UUUUUUUUUVe<<<3mcccllcccb-**;BUUUUUUUUUUUU",
"UUUUUUUUUUB3:vccmMxbbbMmccv:aUUUUUUUUUUUUU",
"UUUUUUUUUi>>zcczgjjjjjjtkccz3VUUUUUUUUUUUU",
"UUUUUUUUi>>>>6xcxxbnnbxxcx6>>3BUUUUUUUUUUU",
"UUUUUUUN>>>>>><7vxxccxxv8,>>>>3BUUUUUUUUUU",
"UUUUUUUw>>>qUUUUNw;;;;tUUUN>>>>0UUUUUUUUUU",
"UUUUUUU3>>>UUUUUUUUUUUUUUUUN,>>>UUUUUUUUUU",
"UUUUUUU3>>>UUUUUUUUUUUUUUUUUN>>>UUUUUUUUUU",
"UUUUUUU3>>>UUUUUUUUUUUUUUUUUU>>>UUUUUUUUUU",
"UUUUUUUw>>>0BUUUUUUUUUUUUUUUt>>>UUUUUUUUUU",
"UUUUUUUB>>>>>0NUUUUUUUUUUUBq>>>>UUUUUUUUUU",
"UUUUUUUN4q>>>>3UUUUUUUUUUB<>>>>>5ChBUUUUUU",
"UUUUUBggdCg1>>,VUUUUUUUUU3>>>>ejCCCfUUUUUU",
"UUUUUtCCjdCCCg4BUUUUUUUUU>>ehCCCCCCCUUUUUU",
"UUUUU0gCCCCCCCCaUUUUUUUUV>CCCjgggCCjUUUUUU",
"UUUUUajCCCCCCjeNUUUUUUUUU3ggggggggggUUUUUU"
};
