/* XPM */
static char *blue_ball_destroy6[] = {
"42 42 86 1",
"  c #000000",
". c #0c1449",
"X c #131a4e",
"o c #151d50",
"O c #202758",
"+ c #2c3361",
"@ c #393f75",
"# c #444a75",
"$ c #11119f",
"% c #1818a3",
"& c #2829ad",
"* c #2f31af",
"= c #2e30b1",
"- c #322ca8",
"; c #3536ae",
": c #3738b2",
"> c #3c40b9",
", c #4c2086",
"< c #462d9b",
"1 c #592f91",
"2 c #533292",
"3 c #4238a8",
"4 c #642d86",
"5 c #67328b",
"6 c #643e94",
"7 c #4749b3",
"8 c #4e50b6",
"9 c #5c48a1",
"0 c #5a5cb9",
"q c #614497",
"w c #704495",
"e c #78509c",
"r c #797d9b",
"t c #6768ba",
"y c #7778b7",
"u c #5e60c0",
"i c #686ac3",
"p c #6f71c2",
"a c #787ac8",
"s c #7f81cb",
"d c #8f2a63",
"f c #8a3371",
"g c #9b3e6c",
"h c #b73855",
"j c #a43560",
"k c #a7426b",
"l c #c9394b",
"z c #c83e50",
"x c #d53b44",
"c c #cd4656",
"v c #d4414b",
"b c #814388",
"n c #8e6997",
"m c #9e669a",
"M c #8c72a0",
"N c #976ca3",
"B c #8687ba",
"V c #908ab1",
"C c #9797b7",
"Z c #9da0b6",
"A c #b49aa4",
"S c #a7a7bb",
"D c #afb0b8",
"F c #b3b4bd",
"G c #8587ca",
"H c #898ad2",
"J c #8f91c7",
"K c #9698c6",
"L c #989ad7",
"P c #9fa0c3",
"I c #a6a7c3",
"U c #a6a7d9",
"Y c #b4b6ca",
"T c #acaee2",
"R c #b9bae4",
"E c #c4c5d6",
"W c #c6c6e8",
"Q c #d0cfeb",
"! c #d6d6ec",
"~ c #dddef2",
"^ c #dfe0f3",
"/ c #e6e6ed",
"( c #ebeaf6",
") c #f0eff8",
"_ c #f8f7fb",
"` c None",
"``````````````````````````````````````````",
"``````````````````````````````````````````",
"``````````````````````````````````````````",
"``````````````````````````````````````````",
"``````````````````````````````````````````",
"``````````````````````````````````````````",
"``````````````````````````````````````````",
"``````````````````````````````````````````",
"``````````````````````````````````````````",
"``````````IGaaaaa0C`````CiGGGGsB``````````",
"``````````IGGaap07C`````CpGGasay``````````",
"``````````SGai7;=8S`````C770aasB``````````",
"```````````DC7&*8C``````S8&=70C```````````",
"`````````````8&0C````````Ct;&7S```````````",
"`````````````7&B```````````y&*C```````````",
"`````````````7&8C``````````y&=C```````````",
"`````````````t*&7VAn22qMSSC8&:C```````````",
"`````````````S0=<fhxxvxxg6;&&0D```````````",
"``````````````S9gxkNNNmmzl4*0C````````````",
"`````````````FS3,dxcxlcclj<8S`````````````",
"````````````KJt%$-e5415bw3;7BPI```````````",
"````````````Jp=$:RQ0=:H~U8>70aJ```````````",
"````````````Ji&%L)ZU>iY!(H870aG```````````",
"````````````Ji%>QYo@pJO#_Wu00aGKF`````````",
"``````````FKGu&i)YX#LI.+_/piiasGK`````````",
"``````````KGsu&a_/rETQrS_(appassGF````````",
"`````````DGssp:p)__)T^)__(GaaassGI````````",
"`````````IGssa80!__~L!___!HaasssGD````````",
"`````````FJGGGB0U_)RsR__)RHGSKJJP`````````",
"``````````FFFF`BpWWGaL!)WLJS``FF``````````",
"````````````````CttiaGLLJJD```````````````",
"`````````````````SBtpGGGSF````````````````",
"```````````````````DDFDF``````````````````",
"``````````````````````````````````````````",
"``````````````````````````````````````````",
"``````````````````````````````````````````",
"``````````````````````````````````````````",
"``````````````````````````````````````````",
"``````````````````````````````````````````",
"``````````````````````````````````````````",
"``````````````````````````````````````````",
"``````````````````````````````````````````"
};
