/* XPM */
static char *blue_ball_jump16[] = {
"42 42 62 1",
"  c #000000",
". c #0c1449",
"X c #0f0f9e",
"o c #100f9e",
"O c #12119e",
"+ c #1617a4",
"@ c #3a269c",
"# c #2729ae",
"$ c #2a2cb0",
"% c #2f30ad",
"& c #2e30b2",
"* c #3728a1",
"= c #3536ae",
"- c #383ab3",
"; c #3e41b7",
": c #4d2c95",
"> c #582a89",
", c #6d3b88",
"< c #4041af",
"1 c #4748b6",
"2 c #4f51af",
"3 c #4e50b8",
"4 c #5353ad",
"5 c #5658b9",
"6 c #5f60bd",
"7 c #6465b8",
"8 c #7a7bb5",
"9 c #555ac5",
"0 c #6769c3",
"q c #6e70c6",
"w c #787ac9",
"e c #7a7ed0",
"r c #7f81cb",
"t c #aa2f55",
"y c #a9325a",
"u c #b73856",
"i c #db383c",
"p c #e43837",
"a c #cb3544",
"s c #d93d44",
"d c #c94b5e",
"f c #d7424a",
"g c #ae5f86",
"h c #8687b7",
"j c #9798b7",
"k c #a5a5b9",
"l c #8385cb",
"z c #8a8cd1",
"x c #8f91c6",
"c c #8e91d1",
"v c #9798c3",
"b c #9798d6",
"n c #a3a4c2",
"m c #a5a7dd",
"M c #babae4",
"N c #c7c7e9",
"B c #d2d3ed",
"V c #dedef1",
"C c #eae9f6",
"Z c #f0eff8",
"A c #faf9fc",
"S c None",
"SSSSSSSSSSSSSSSSSSSSSSSSSSSSSSSSSSSSSSSSSS",
"SSSSSSSSSSSSSSSSSSSSSSSSSSSSSSSSSSSSSSSSSS",
"SSSSSSSSSSSSSSSSSSSSSSSSSSSSSSSSSSSSSSSSSS",
"SSSSSSSSSSSSSSSSSSSSSSSSSSSSSSSSSSSSSSSSSS",
"SSSSSSSSSSSSSSSSSSSSSSSSSSSSSSSSSSSSSSSSSS",
"SSSSSSSSSSSSSSSSSSSSSSSSSSSSSSSSSSSSSSSSSS",
"SSSSSSSSSSSSSSSSSSSSSSSSSSSSSSSSSSSSSSSSSS",
"SSSSSSSSSSSSSSSSSSSSSSSSSSSSSSSSSSSSSSSSSS",
"SSSSSSSSSSSSSSSSSSSSSSSSSSSSSSSSSSSSSSSSSS",
"SSSSSSSSSSSSSSSShhjl057SSSSSSSSSSSSSSSSSSS",
"SSSSSSSSSSSSSSjrrlrww0658SSSSSSSSSSSSSSSSS",
"SSSSSSSSSSSSkrzzzzzlwq0531jSSSSSSSSSSSSSSS",
"SSSSSSSSSSSSlzcVAVczeq0mAb<4SSSSSSSSSSSSSS",
"SSSSSSSSSSSlzcVAAAVzeqMAAAm-jSlrrrrrSSSSSS",
"SSSvlrrrSSwlzmAAAAAmewAAAAA-=qrrrrrrSSSSSS",
"SSnrrrrrrwwlcBAAAAABemAAAAAw#3errrrrxSSSSS",
"SSxrrrrrrqwlcCAAAAACwBAAAAAN##wrrrrrnSSSSS",
"SSlrrrrrqqwrzAAAAAAAqZAAAAAC#+1errrrSSSSSS",
"SSvrrrrrq0qwlAAAA.AA0AA.AAAA++<errrvSSSSSS",
"SSSrrrrrq7qqwAAA...A9Z...AAC++<errnSSSSSSS",
"SSSvrrrrq670qCAA...C9N...AAM++-elSSSSSSSSS",
"SSSSxrrrq5560MAA...M1z...AAq++-elSSSSSSSSS",
"SSSSSvrrq3355eAAA.Aq;1A.AAA#++;elSSSSSSSSS",
"SSSSSSrrw31133NAAAN--&bAAAc+O+;elSSSSSSSSS",
"SSSSSSrre3-;<<<NAN-&&$#zAz+OO+wrrSSSSSSSSS",
"SSSSSSxrr6-=---33=&$*@#5-++o+5lrxSSSSSSSSS",
"SSSSSSSSSk3%%%=fpppyypppsOXX+jSSSSSSSSSSSS",
"SSSSSSSSSSj=@appfgisssgfppa@8SSSSSSSSSSSSS",
"SSSSSSSSS7##uppuwrrrrrr5tppu=kSSSSSSSSSSSS",
"SSSSSSSS7####:ipiisddsiipi:##=jSSSSSSSSSSS",
"SSSSSSSh######%>aiippiia,$####=jSSSSSSSSSS",
"SSSSSSS2###1SSSSh2++++5SSSh####<SSSSSSSSSS",
"SSSSSSS=###SSSSSSSSSSSSSSSSh$###SSSSSSSSSS",
"SSSSSSS=###SSSSSSSSSSSSSSSSSh###SSSSSSSSSS",
"SSSSSSS=###SSSSSSSSSSSSSSSSSS###SSSSSSSSSS",
"SSSSSSS2###<jSSSSSSSSSSSSSSS5###SSSSSSSSSS",
"SSSSSSSj#####<hSSSSSSSSSSSj1###wllvSSSSSSS",
"SSSSSSSh-1####=SSSSSSSSSSj%##5llqlelSSSSSS",
"SSSSSjww0lw&##$kSSSSSSSSS=##wlrrllllvSSSSS",
"SSSSS5llr0lllw-jSSSSSSSSS##wlllllllvSSSSSS",
"SSSSS<wllllllll8SSSSSSSSk#lllrllxlxSSSSSSS",
"SSSSS8rllllllr3hSSSSSSSSS=wwwwxxSSSSSSSSSS"
};
