/* XPM */
static char *blue_ball_jump5[] = {
"42 42 69 1",
"  c #000000",
". c #0c1449",
"X c #11194d",
"o c #181f51",
"O c #1b2254",
"+ c #262d5e",
"@ c #2b3162",
"# c #353b69",
"$ c #444a76",
"% c #4e537b",
"& c #0f0f9e",
"* c #100f9e",
"= c #12119e",
"- c #1617a4",
"; c #3a269c",
": c #2729ae",
"> c #2a2cb0",
", c #2f30ad",
"< c #2e30b2",
"1 c #3728a1",
"2 c #3536ae",
"3 c #383ab3",
"4 c #3e41b7",
"5 c #4d2c95",
"6 c #582a89",
"7 c #6d3b88",
"8 c #525881",
"9 c #4041af",
"0 c #4748b6",
"q c #4f51af",
"w c #4e50b8",
"e c #5353ad",
"r c #5758ba",
"t c #5f60bd",
"y c #6465b8",
"u c #7378ad",
"i c #7779b6",
"p c #555ac5",
"a c #5e61c4",
"s c #6769c3",
"d c #6e70c6",
"f c #787ac8",
"g c #7a7ed0",
"h c #7f81cb",
"j c #aa2f55",
"k c #a9325a",
"l c #b73856",
"z c #db383c",
"x c #e43837",
"c c #cb3544",
"v c #d93d44",
"b c #c94b5e",
"n c #d7424a",
"m c #ae5f86",
"M c #8687b7",
"N c #9798b7",
"B c #a5a5b9",
"V c #8385cb",
"C c #8a8dd1",
"Z c #8e91c1",
"A c #8e91d1",
"S c #9798c3",
"D c #9194d3",
"F c #a3a4c2",
"G c #acaedb",
"H c #babbe2",
"J c #c6c6e8",
"K c #faf9fc",
"L c None",
"LLLLLLLLLLLLLLLLLLLLLLLLLLLLLLLLLLLLLLLLLL",
"LLLLLLLLLLLLLLLLLLLLLLLLLLLLLLLLLLLLLLLLLL",
"LLLLLLLLLLLLLLLLLLLLLLLLLLLLLLLLLLLLLLLLLL",
"LLLLLLLLLLLLLLLLLLLLLLLLLLLLLLLLLLLLLLLLLL",
"LLLLLLLLLLLLLLLLLLLLLLLLLLLLLLLLLLLLLLLLLL",
"LLLLLLLLLLLLLLLLLLLLLLLLLLLLLLLLLLLLLLLLLL",
"LLLLLLLLLLLLLLLLLLLLLLLLLLLLLLLLLLLLLLLLLL",
"LLLLLLLLLLLLLLLLLLLLLLLLLLLLLLLLLLLLLLLLLL",
"LLLLLLLLLLLLLLLLLLLLLLLLLLLLLLLLLLLLLLLLLL",
"LLLLLLLLLLLLLLLLMMNVsryLLLLLLLLLLLLLLLLLLL",
"LLLLLLLLLLLLLLNfhVhffstriLLLLLLLLLLLLLLLLL",
"LLLLLLLLLLLLBfCCCCCVfdsrw0NLLLLLLLLLLLLLLL",
"LLLLLLLLLLLLVCA8.$DChds$.89eLLLLLLLLLLLLLL",
"LLLLLLLLLLLVCA$..X+Chd+X..$3NLVhhhhhLLLLLL",
"LLLSVhhhLLfVCZ.....uhi.....i2dhhhhhhLLLLLL",
"LLFhhhhhhffVA@.....@g@.....@:wghhhhhZLLLLL",
"LLChhhhhhdfVAO.....XgX.....O::fhhhhhFLLLLL",
"LLVhhhhhddfhCX.....XdX.....X:-0ghhhhLLLLLL",
"LLShhhhhdsdfV.......s.......--9ghhhSLLLLLL",
"LLLhhhhhdyddfXOO...XpO...OOo--9ghhFLLLLLLL",
"LLLShhhhdtysd#.O...@p$...O.%--3gVLLLLLLLLL",
"LLLLChhhdrrtsH%O...G0G...O%H--3gVLLLLLLLLL",
"LLLLLShhdwwrrgKKK.Kd4aK.KKKr--4gVLLLLLLLLL",
"LLLLLLhhfw00wwJKKKJ33<JKKKJ-=-4gVLLLLLLLLL",
"LLLLLLhhgw34999JKJ3<<>:JKJ-==-fhhLLLLLLLLL",
"LLLLLLChht32333ww2<>1;:r3--*-rVhCLLLLLLLLL",
"LLLLLLLLLBw,,,2nxxxkkxxxv=&&-NLLLLLLLLLLLL",
"LLLLLLLLLLN2;cxxnmzvvvmnxxc;iLLLLLLLLLLLLL",
"LLLLLLLLLy::lxxlfhhhhhhrjxxl2BLLLLLLLLLLLL",
"LLLLLLLLy::::5zxzzvbbvzzxz5::2NLLLLLLLLLLL",
"LLLLLLLM::::::,6czzxxzzc7>::::2NLLLLLLLLLL",
"LLLLLLLq:::0LLLLMq----rLLLM::::9LLLLLLLLLL",
"LLLLLLL2:::LLLLLLLLLLLLLLLLM>:::LLLLLLLLLL",
"LLLLLLL2:::LLLLLLLLLLLLLLLLLM:::LLLLLLLLLL",
"LLLLLLL2:::LLLLLLLLLLLLLLLLLL:::LLLLLLLLLL",
"LLLLLLLq:::9NLLLLLLLLLLLLLLLr:::LLLLLLLLLL",
"LLLLLLLN:::::9MLLLLLLLLLLLN0::::LLLLLLLLLL",
"LLLLLLLM30::::2LLLLLLLLLLN,:::::4VgNLLLLLL",
"LLLLLNffsVf<::>BLLLLLLLLL2::::whVVVdLLLLLL",
"LLLLLrVVhsVVVf3NLLLLLLLLL::wgVVVVVVVLLLLLL",
"LLLLL9fVVVVVVVViLLLLLLLLB:VVVhfffVVhLLLLLL",
"LLLLLihVVVVVVhwMLLLLLLLLL2ffffffffffLLLLLL"
};
