/* XPM */
static char *blue_ball_jump3[] = {
"42 42 70 1",
"  c #000000",
". c #0c1449",
"X c #121a4d",
"o c #161d50",
"O c #192053",
"+ c #232a5a",
"@ c #293061",
"# c #323868",
"$ c #3a4173",
"% c #444a77",
"& c #4e537a",
"* c #0f0f9e",
"= c #100f9e",
"- c #12119e",
"; c #1617a4",
": c #3a269c",
"> c #2729ae",
", c #2a2cb0",
"< c #2f30ad",
"1 c #2e30b2",
"2 c #3728a1",
"3 c #3536ae",
"4 c #383ab3",
"5 c #3e41b7",
"6 c #4d2c95",
"7 c #582a89",
"8 c #6d3b88",
"9 c #535983",
"0 c #4041af",
"q c #4748b6",
"w c #4f51af",
"e c #4e50b8",
"r c #5353ad",
"t c #5758b9",
"y c #5f60bd",
"u c #656a8c",
"i c #6667b8",
"p c #7378ad",
"a c #797bb7",
"s c #5559c4",
"d c #6769c3",
"f c #6e70c6",
"g c #787ac9",
"h c #7a7ed0",
"j c #7f81cb",
"k c #aa2f55",
"l c #a9325a",
"z c #b73856",
"x c #db383c",
"c c #e43837",
"v c #cb3544",
"b c #d93d44",
"n c #c94b5e",
"m c #d7424a",
"M c #ae5f86",
"N c #8687b7",
"B c #9191b6",
"V c #8385cb",
"C c #8a8dd1",
"Z c #8e91c1",
"A c #8e91d1",
"S c #9798c3",
"D c #9194d3",
"F c #b1b2df",
"G c #afb0e2",
"H c #bcbde5",
"J c #c6c6e9",
"K c #e3e2f3",
"L c #faf9fc",
"P c None",
"PPPPPPPPPPPPPPPPPPPPPPPPPPPPPPPPPPPPPPPPPP",
"PPPPPPPPPPPPPPPPPPPPPPPPPPPPPPPPPPPPPPPPPP",
"PPPPPPPPPPPPPPPPPPPPPPPPPPPPPPPPPPPPPPPPPP",
"PPPPPPPPPPPPPPPPPPPPPPPPPPPPPPPPPPPPPPPPPP",
"PPPPPPPPPPPPPPPPPPPPPPPPPPPPPPPPPPPPPPPPPP",
"PPPPPPPPPPPPPPPPPPPPPPPPPPPPPPPPPPPPPPPPPP",
"PPPPPPPPPPPPPPPPPPPPPPPPPPPPPPPPPPPPPPPPPP",
"PPPPPPPPPPPPPPPPPPPPPPPPPPPPPPPPPPPPPPPPPP",
"PPPPPPPPPPPPPPPPPPPPPPPPPPPPPPPPPPPPPPPPPP",
"PPPPPPPPPPPPPPPPNBBVdtiPPPPPPPPPPPPPPPPPPP",
"PPPPPPPPPPPPPPBgjVjggdytaPPPPPPPPPPPPPPPPP",
"PPPPPPPPPPPPPgCCCCCVgfdteqBPPPPPPPPPPPPPPP",
"PPPPPPPPPPPPVCA9.%DCjfd9.90rPPPPPPPPPPPPPP",
"PPPPPPPPPPPVCA%.oX+Cjf#Xo.%4PPVjjjjjPPPPPP",
"PPPSVjjjPPgVCZ..+o.pja.o+..t3fjjjjjjPPPPPP",
"PPPjjjjjjggVA#+X.+.@h$.+.X+%>ehjjjjjZPPPPP",
"PPCjjjjjjfgVA+O..X.Xho.X..O#>>gjjjjjPPPPPP",
"PPVjjjjjffgjCXo&LLu%f%uLL&oo>;qhjjjjPPPPPP",
"PPSjjjjjfdfgVPLLL.LLdLL.LLLP;;0hjjjSPPPPPP",
"PPPjjjjjfiffgLLL...LsL...LLL;;0hjjPPPPPPPP",
"PPPSjjjjfyidfKLL...KsK...LLK;;4hVPPPPPPPPP",
"PPPPCjjjfttydHLL...HqG...LLF;;4hVPPPPPPPPP",
"PPPPPSjjfeetthLLL.Lf5sL.LLLq;;5hVPPPPPPPPP",
"PPPPPPjjgeqqeeJLLLJ441JLLLJ;-;5hVPPPPPPPPP",
"PPPPPPjjhe45000JLJ411,>HLH;--;gjjPPPPPPPPP",
"PPPPPPCjjy43444ee31,2:>t4;;=;tVjCPPPPPPPPP",
"PPPPPPPPPPe<<<3mcccllcccb-**;PPPPPPPPPPPPP",
"PPPPPPPPPPP3:vccmMxbbbMmccv:aPPPPPPPPPPPPP",
"PPPPPPPPPi>>zcczgjjjjjjtkccz3PPPPPPPPPPPPP",
"PPPPPPPPi>>>>6xcxxbnnbxxcx6>>3PPPPPPPPPPPP",
"PPPPPPPN>>>>>><7vxxccxxv8,>>>>3PPPPPPPPPPP",
"PPPPPPPw>>>qPPPPNw;;;;tPPPN>>>>0PPPPPPPPPP",
"PPPPPPP3>>>PPPPPPPPPPPPPPPPN,>>>PPPPPPPPPP",
"PPPPPPP3>>>PPPPPPPPPPPPPPPPPN>>>PPPPPPPPPP",
"PPPPPPP3>>>PPPPPPPPPPPPPPPPPP>>>PPPPPPPPPP",
"PPPPPPPw>>>0PPPPPPPPPPPPPPPPt>>>PPPPPPPPPP",
"PPPPPPPP>>>>>0NPPPPPPPPPPPPq>>>>PPPPPPPPPP",
"PPPPPPPN4q>>>>3PPPPPPPPPPP<>>>>>5VhBPPPPPP",
"PPPPPPggdVg1>>,PPPPPPPPPP3>>>>ejVVVfPPPPPP",
"PPPPPtVVjdVVVg4BPPPPPPPPP>>ehVVVVVVVPPPPPP",
"PPPPP0gVVVVVVVVaPPPPPPPPP>VVVjgggVVjPPPPPP",
"PPPPPajVVVVVVjeNPPPPPPPPP3gggggggggiPPPPPP"
};
