/* XPM */
static char *blue_ball_jump6[] = {
"42 42 65 1",
"  c #000000",
". c #0c1449",
"X c #11194c",
"o c #181f52",
"O c #1c2355",
"+ c #242b5d",
"@ c #2a3061",
"# c #444977",
"$ c #4b517e",
"% c #0f0f9e",
"& c #100f9e",
"* c #12119e",
"= c #1617a4",
"- c #3a269c",
"; c #2729ae",
": c #2a2cb0",
"> c #2f30ad",
", c #2e30b2",
"< c #3728a1",
"1 c #3536ae",
"2 c #383ab3",
"3 c #3e41b7",
"4 c #4d2c95",
"5 c #582a89",
"6 c #6d3b88",
"7 c #515782",
"8 c #4041af",
"9 c #4748b6",
"0 c #4f51af",
"q c #4e50b8",
"w c #5353ad",
"e c #5658b9",
"r c #5e60be",
"t c #666996",
"y c #6c719a",
"u c #6465b8",
"i c #6f74a3",
"p c #787cab",
"a c #797bb6",
"s c #555ac5",
"d c #6769c3",
"f c #6e70c5",
"g c #787ac8",
"h c #7a7ed0",
"j c #7f81cb",
"k c #aa2f55",
"l c #a9325a",
"z c #b73856",
"x c #db383c",
"c c #e43837",
"v c #cb3544",
"b c #d93d44",
"n c #c94b5e",
"m c #d7424a",
"M c #ae5f86",
"N c #8687b7",
"B c #9798b7",
"V c #8385cb",
"C c #8a8dd1",
"Z c #8e91c1",
"A c #8e91d1",
"S c #9798c3",
"D c #9194d3",
"F c #a1a2c2",
"G c None",
"GGGGGGGGGGGGGGGGGGGGGGGGGGGGGGGGGGGGGGGGGG",
"GGGGGGGGGGGGGGGGGGGGGGGGGGGGGGGGGGGGGGGGGG",
"GGGGGGGGGGGGGGGGGGGGGGGGGGGGGGGGGGGGGGGGGG",
"GGGGGGGGGGGGGGGGGGGGGGGGGGGGGGGGGGGGGGGGGG",
"GGGGGGGGGGGGGGGGGGGGGGGGGGGGGGGGGGGGGGGGGG",
"GGGGGGGGGGGGGGGGGGGGGGGGGGGGGGGGGGGGGGGGGG",
"GGGGGGGGGGGGGGGGGGGGGGGGGGGGGGGGGGGGGGGGGG",
"GGGGGGGGGGGGGGGGGGGGGGGGGGGGGGGGGGGGGGGGGG",
"GGGGGGGGGGGGGGGGGGGGGGGGGGGGGGGGGGGGGGGGGG",
"GGGGGGGGGGGGGGGGNNBVdeuGGGGGGGGGGGGGGGGGGG",
"GGGGGGGGGGGGGGBjjVjggdreaGGGGGGGGGGGGGGGGG",
"GGGGGGGGGGGGGjCCCCCVgfdeq9BGGGGGGGGGGGGGGG",
"GGGGGGGGGGGGVCA7.#DCjfd#.78wGGGGGGGGGGGGGG",
"GGGGGGGGGGGVCA#..X+Cjf+X..#2BGVjjjjjGGGGGG",
"GGGSVjjjGGgVCZ.....pja.....a1fjjjjjjGGGGGG",
"GGGjjjjjjggVA@.....@h@.....@;qhjjjjjZGGGGG",
"GGCjjjjjjfgVAO.....XhX.....O;;gjjjjjGGGGGG",
"GGVjjjjjffgjCX.....XfX.....X;=9hjjjjGGGGGG",
"GGSjjjjjfdfgV.......d.......==8hjjjSGGGGGG",
"GGGjjjjjfuffgX......s......X==8hjjFGGGGGGG",
"GGGSjjjjfrudfO.....Xso.....+==2hVGGGGGGGGG",
"GGGGCjjjfeerd7.....$9i.....p==2hVGGGGGGGGG",
"GGGGGSjjfqqeeg.....e3r.....d==3hVGGGGGGGGG",
"GGGGGGjjgq99qq$...#22,t...y=*=3hVGGGGGGGGG",
"GGGGGGjjhq23888tX#2,,:;yXp=**=gjjGGGGGGGGG",
"GGGGGGCjjr21222qq1,:<-;e2==&=eVjCGGGGGGGGG",
"GGGGGGGGGGq>>>1mcccllcccb*%%=BGGGGGGGGGGGG",
"GGGGGGGGGGB1-vccmMxbbbMmccv-aGGGGGGGGGGGGG",
"GGGGGGGGGu;;zcczgjjjjjjekccz1GGGGGGGGGGGGG",
"GGGGGGGGu;;;;4xcxxbnnbxxcx4;;1BGGGGGGGGGGG",
"GGGGGGGN;;;;;;>5vxxccxxv6:;;;;1BGGGGGGGGGG",
"GGGGGGG0;;;9GGGGN0====eGGGN;;;;8GGGGGGGGGG",
"GGGGGGG1;;;GGGGGGGGGGGGGGGGN:;;;GGGGGGGGGG",
"GGGGGGG1;;;GGGGGGGGGGGGGGGGGN;;;GGGGGGGGGG",
"GGGGGGG1;;;GGGGGGGGGGGGGGGGGG;;;GGGGGGGGGG",
"GGGGGGG0;;;8BGGGGGGGGGGGGGGGe;;;GGGGGGGGGG",
"GGGGGGGB;;;;;8NGGGGGGGGGGGB9;;;;GGGGGGGGGG",
"GGGGGGGN29;;;;1GGGGGGGGGGB>;;;;;3VhBGGGGGG",
"GGGGGBggdVg,;;:GGGGGGGGGG1;;;;qjVVVfGGGGGG",
"GGGGGeVVjdVVVg2BGGGGGGGGG;;qhVVVVVVVGGGGGG",
"GGGGG8gVVVVVVVVaGGGGGGGGG;VVVjgggVVjGGGGGG",
"GGGGGajVVVVVVjqNGGGGGGGGG1ggggggggggGGGGGG"
};
