/* XPM */
static char *brown_ball_destroy8[] = {
"42 42 93 2",
"   c #000000",
".  c #12194d",
"X  c #1d2556",
"o  c #49070c",
"O  c #611e12",
"+  c #662211",
"@  c #772c13",
"#  c #7e4027",
"$  c #774343",
"%  c #676c8e",
"&  c #7e7382",
"*  c #787c9a",
"=  c #873b17",
"-  c #953617",
";  c #87312a",
":  c #9a3b35",
">  c #ba2d2a",
",  c #8f451a",
"<  c #964512",
"1  c #9f521d",
"2  c #944f28",
"3  c #9a413d",
"4  c #9d523b",
"5  c #a35319",
"6  c #a45a27",
"7  c #b44822",
"8  c #bc671a",
"9  c #a6673a",
"0  c #b06429",
"q  c #b36232",
"w  c #b6733a",
"e  c #8c4f46",
"r  c #a76c41",
"t  c #aa7957",
"y  c #a77b66",
"u  c #b56c64",
"i  c #c53c2a",
"p  c #cd3b30",
"a  c #d33a31",
"s  c #d84533",
"d  c #dc5934",
"f  c #c7711d",
"g  c #cb7925",
"h  c #e14a35",
"j  c #e26435",
"k  c #b9814e",
"l  c #bf8258",
"z  c #ae8161",
"x  c #ac8776",
"c  c #b39175",
"v  c #cf8432",
"b  c #d4852f",
"n  c #d78932",
"m  c #df9238",
"M  c #e19335",
"N  c #ca8d4c",
"B  c #cf914b",
"V  c #c99257",
"C  c #d48658",
"Z  c #dd9745",
"A  c #d79a56",
"S  c #c49775",
"D  c #d19661",
"F  c #d6a364",
"G  c #d1aa78",
"H  c #e3ae74",
"J  c #af8f8c",
"K  c #b79985",
"L  c #bba48e",
"P  c #bbab9a",
"I  c #ada6b3",
"U  c #b3a8a0",
"Y  c #afb1c3",
"T  c #b3b5c7",
"R  c #c28a85",
"E  c #cdaf89",
"W  c #c4a995",
"Q  c #cdb08a",
"!  c #c9b69b",
"~  c #dfb48e",
"^  c #d2b096",
"/  c #e8bf97",
"(  c #c1c1ba",
")  c #ecc8a2",
"_  c #cac4ca",
"`  c #dadae4",
"'  c #ede0d9",
"]  c #f2e3d8",
"[  c #ebe5e8",
"{  c #f6ede4",
"}  c #f3eff1",
"|  c #f9f7fa",
" . c None",
" . . . . . . . . . . . . . . . . . . . . . . . . . . . . . . . . . . . . . . . . . .",
" . . . . . . . . . . . . . . . . . . . . . . . . . . . . . . . . . . . . . . . . . .",
" . . . . . . . . . . . . . . . . . . . . . . . . . . . . . . . . . . . . . . . . . .",
" . . . . . . . . . . . . . . . . . . . . . . . . . . . . . . . . . . . . . . . . . .",
" . . . . . . . . . . . . . . . . . . . . . . . . . . . . . . . . . . . . . . . . . .",
" . . . . . . . . . . . . . . . . . . . . . . . . . . . . . . . . . . . . . . . . . .",
" . . . . . . . . . . . . . . . . . . . . . . . . . . . . . . . . . . . . . . . . . .",
" . . . . . . . . . . . . . . . . . . . . . . . . . . . . . . . . . . . . . . . . . .",
" . . . . . . . . . . . . . . . . . . . . . . . . . . . . . . . . . . . . . . . . . .",
" . . . . . . . . . . . . . . . . . . . . . . . . . . . . . . . . . . . . . . . . . .",
" . . . . . . . . . . . . . . . . . . . . . . . . . . . . . . . . . . . . . . . . . .",
" . . . . . . . . . . . . . . . . . . . . . . .( (  . . . . . . . . . . . . . . . . .",
" . . . . . . . . . . . .( (  . . . . . . . . .G G  . . . . . . . . . . . . . . . . .",
" . . . . . . . . . . . . . .( ( ( (  . .( ! Z M M F (  . . . . . . . . . . . . . . .",
" . . . . . . . . . . . .F A  . .P  .(  .F Z M M M F (  . . . . . . . . . . . . . . .",
" . . . . . . . . . . . .M m l 6 6 9 c  .b g g g b E (  . . . . . . . . . . . . . . .",
" . . . . . . . . . . . .M n 6 6 9 1 6 t < 5 8 f g N  . . . . . . . . . . . . . . . .",
" . . . . . . . . . . . .M g 5 K  .z 7 - < 0 D H H Z B  . . . . . . . . . . . . . . .",
" . . . . . . . . . . . .A k z  .( x a i 6 ' } | | { H V  . . . . . . . . . . . . . .",
" . . . . . . . . . . . .( I  . . .u d h S T X * | | ) g W  . . . . . . . . . . . . .",
" . . . . . . . . . . . .(  . . .( : j s = K & _ ] / n g W  . . . . . . . . . . . . .",
" . . . . . . . . . . . .(  . . .( 3 j s @ 2 t ^ ~ B g 8 L  . . . . . . . . . . . . .",
" . . . . . . . . . . . .( (  . . .R s h 4 I . % | | G w  . . . . . . . . . . . . . .",
" . . . . . . . . . . . .G S P ( ( K p > e [ Y ` | } W K  . . . . . . . . . . . . . .",
" . . . . . . . . . . . .M g 6 L  .t 7 ; o $ J  .W y y I  . . . . . . . . . . . . . .",
" . . . . . . . . . . . .M b 5 6 9 1 t U # O + @ , w  .(  . . . . . . . . . . . . . .",
" . . . . . . . . . . . .M m q r r t  .( Z b v b n M Q (  . . . . . . . . . . . . . .",
" . . . . . . . . . . . .M M C  . . . . . . . .A M M E (  . . . . . . . . . . . . . .",
" . . . . . . . . . . . .E F E (  . . . . .( ( ! G G  . . . . . . . . . . . . . . . .",
" . . . . . . . . . . . . .( (  . . . . . . . .( ( (  . . . . . . . . . . . . . . . .",
" . . . . . . . . . . . . . . . . . . . . . . . . . . . . . . . . . . . . . . . . . .",
" . . . . . . . . . . . . . . . . . . . . . . . . . . . . . . . . . . . . . . . . . .",
" . . . . . . . . . . . . . . . . . . . . . . . . . . . . . . . . . . . . . . . . . .",
" . . . . . . . . . . . . . . . . . . . . . . . . . . . . . . . . . . . . . . . . . .",
" . . . . . . . . . . . . . . . . . . . . . . . . . . . . . . . . . . . . . . . . . .",
" . . . . . . . . . . . . . . . . . . . . . . . . . . . . . . . . . . . . . . . . . .",
" . . . . . . . . . . . . . . . . . . . . . . . . . . . . . . . . . . . . . . . . . .",
" . . . . . . . . . . . . . . . . . . . . . . . . . . . . . . . . . . . . . . . . . .",
" . . . . . . . . . . . . . . . . . . . . . . . . . . . . . . . . . . . . . . . . . .",
" . . . . . . . . . . . . . . . . . . . . . . . . . . . . . . . . . . . . . . . . . .",
" . . . . . . . . . . . . . . . . . . . . . . . . . . . . . . . . . . . . . . . . . .",
" . . . . . . . . . . . . . . . . . . . . . . . . . . . . . . . . . . . . . . . . . ."
};
