/* XPM */
static char *brown_ball_destroy10[] = {
"42 42 54 1",
"  c #000000",
". c #722928",
"X c #7a6874",
"o c #833d1a",
"O c #93481c",
"+ c #a1531d",
"@ c #ac452e",
"# c #a55627",
"$ c #bb442a",
"% c #b34936",
"& c #bd5e3e",
"* c #a66434",
"= c #b36424",
"- c #bb7436",
"; c #896b68",
": c #a76c41",
"> c #a27455",
", c #cb4431",
"< c #d54d35",
"1 c #dd5634",
"2 c #d17f2a",
"3 c #b6825c",
"4 c #b39278",
"5 c #cc873f",
"6 c #d3822a",
"7 c #d58937",
"8 c #df953c",
"9 c #e19338",
"0 c #c18041",
"q c #dc9a4a",
"w c #d29757",
"e c #cd9c63",
"r c #c3a17d",
"t c #d3a56a",
"y c #d0ac7c",
"u c #a08b83",
"i c #b69b85",
"p c #b5a39f",
"a c #afabb8",
"s c #b8aba9",
"d c #bfb8ac",
"f c #c6a492",
"g c #c8b69a",
"h c #c5bbab",
"j c #c0beb7",
"k c #d5bdb4",
"l c #c1c1ba",
"z c #e9c4a0",
"x c #ead0bb",
"c c #cac3c7",
"v c #dfdee6",
"b c #e4dde0",
"n c #f6ebe2",
"m c None",
"mmmmmmmmmmmmmmmmmmmmmmmmmmmmmmmmmmmmmmmmmm",
"mmmmmmmmmmmmmmmmmmmmmmmmmmmmmmmmmmmmmmmmmm",
"mmmmmmmmmmmmmmmmmmmmmmmmmmmmmmmmmmmmmmmmmm",
"mmmmmmmmmmmmmmmmmmmmmmmmmmmmmmmmmmmmmmmmmm",
"mmmmmmmmmmmmmmmmmmmmmmmmmmmmmmmmmmmmmmmmmm",
"mmmmmmmmmmmmmmmmmmmmmmmmmmmmmmmmmmmmmmmmmm",
"mmmmmmmmmmmmmmmmmmmmmmmmmmmmmmmmmmmmmmmmmm",
"mmmmmmmmmmmmmmmmmmmmmmmmmmmmmmmmmmmmmmmmmm",
"mmmmmmmmmmmmmmmmmmmmmmmmmmmmmmmmmmmmmmmmmm",
"mmmmmmmmmmmmmmmmmmmmmmmmmmmmmmmmmmmmmmmmmm",
"mmmmmmmmmmmmmmmmmmmmmmmmmmmmmmmmmmmmmmmmmm",
"mmmmmmmmmmmmmmmmmmmmmmmmmmmmmmmmmmmmmmmmmm",
"mmmmmmmmmmmmmmmmmmmmmmmmmmmmmmmmmmmmmmmmmm",
"mmmmmmmmmmmmmmmmmmmmmmmmmmmmmmmmmmmmmmmmmm",
"mmmmmmmmmmmmmmmmmmmmmmmmmmmmmmmmmmmmmmmmmm",
"mmmmmmmmmmmmmmmmmmmmmmmmmmmmmmmmmmmmmmmmmm",
"mmmmmmmmmmmmmmmmmmmmhdmmmmmmmmmmmmmmmmmmmm",
"mmmmmmmmmmmmmmmmmmgw2-illmmmmmmmmmmmmmmmmm",
"mmmmmmmmmmmmmmmmtt5nzxk09hmmmmmmmmmmmmmmmm",
"mmmmmmmmmmmmmmmh867vpabOqhmmmmmmmmmmmmmmmm",
"mmmmmmmmmmmmmmmmy6=c;Xsogmmmmmmmmmmmmmmmmm",
"mmmmmmmmmmmmmmmmmeO&@%.>gmmmmmmmmmmmmmmmmm",
"mmmmmmmmmmmmmmmmmi#,1<$4mmmmmmmmmmmmmmmmmm",
"mmmmmmmmmmmmmmmml:4jusd#jmmmmmmmmmmmmmmmmm",
"mmmmmmmmmmmmmmmml3*immi+flmmmmmmmmmmmmmmmm",
"mmmmmmmmmmmmmmmmh97rll579hmmmmmmmmmmmmmmmm",
"mmmmmmmmmmmmmmmmmmmmmmmmmmmmmmmmmmmmmmmmmm",
"mmmmmmmmmmmmmmmmmmmmmmmmmmmmmmmmmmmmmmmmmm",
"mmmmmmmmmmmmmmmmmmmmmmmmmmmmmmmmmmmmmmmmmm",
"mmmmmmmmmmmmmmmmmmmmmmmmmmmmmmmmmmmmmmmmmm",
"mmmmmmmmmmmmmmmmmmmmmmmmmmmmmmmmmmmmmmmmmm",
"mmmmmmmmmmmmmmmmmmmmmmmmmmmmmmmmmmmmmmmmmm",
"mmmmmmmmmmmmmmmmmmmmmmmmmmmmmmmmmmmmmmmmmm",
"mmmmmmmmmmmmmmmmmmmmmmmmmmmmmmmmmmmmmmmmmm",
"mmmmmmmmmmmmmmmmmmmmmmmmmmmmmmmmmmmmmmmmmm",
"mmmmmmmmmmmmmmmmmmmmmmmmmmmmmmmmmmmmmmmmmm",
"mmmmmmmmmmmmmmmmmmmmmmmmmmmmmmmmmmmmmmmmmm",
"mmmmmmmmmmmmmmmmmmmmmmmmmmmmmmmmmmmmmmmmmm",
"mmmmmmmmmmmmmmmmmmmmmmmmmmmmmmmmmmmmmmmmmm",
"mmmmmmmmmmmmmmmmmmmmmmmmmmmmmmmmmmmmmmmmmm",
"mmmmmmmmmmmmmmmmmmmmmmmmmmmmmmmmmmmmmmmmmm",
"mmmmmmmmmmmmmmmmmmmmmmmmmmmmmmmmmmmmmmmmmm"
};
