/* XPM */
static char *brown_ball_destroy2[] = {
"42 42 128 2",
"   c #000000",
".  c #0c1449",
"X  c #151c4f",
"o  c #1d2456",
"O  c #242b5b",
"+  c #353c68",
"@  c #3f456f",
"#  c #4a070b",
"$  c #510b0c",
"%  c #58150c",
"&  c #541413",
"*  c #621c0d",
"=  c #6b220d",
"-  c #742a0f",
";  c #782a13",
":  c #7f3817",
">  c #6f3629",
",  c #77403b",
"<  c #4b445f",
"1  c #4b4f76",
"2  c #686c8e",
"3  c #8b241b",
"4  c #873913",
"5  c #8c3017",
"6  c #853c24",
"7  c #a33321",
"8  c #b42f27",
"9  c #9c364d",
"0  c #8d431a",
"q  c #9b4b17",
"w  c #9f5019",
"e  c #9a4823",
"r  c #995329",
"t  c #995838",
"y  c #a54d1b",
"u  c #a75518",
"i  c #b25d17",
"p  c #a55927",
"a  c #b64423",
"s  c #b04728",
"d  c #bb661a",
"f  c #a76536",
"g  c #b96a27",
"h  c #b26933",
"j  c #bc773c",
"k  c #835150",
"l  c #99614b",
"z  c #8b6b63",
"x  c #ac744a",
"c  c #ad7c5a",
"v  c #a57d69",
"b  c #b96b66",
"n  c #c4382b",
"m  c #db3933",
"M  c #e33a36",
"N  c #dd4a34",
"B  c #d65433",
"V  c #c36d1b",
"C  c #ca741e",
"Z  c #ca7926",
"A  c #c77c39",
"S  c #ce7632",
"D  c #d27c22",
"F  c #e44336",
"G  c #e35736",
"H  c #e26035",
"J  c #c24d65",
"K  c #c56048",
"L  c #e27f50",
"P  c #8f7d84",
"I  c #ad805d",
"U  c #ae8363",
"Y  c #aa8778",
"T  c #b48576",
"R  c #b4957c",
"E  c #cf812e",
"W  c #cb853b",
"Q  c #d58227",
"!  c #da8a33",
"~  c #df9236",
"^  c #e28935",
"/  c #e19335",
"(  c #c88441",
")  c #c68a52",
"_  c #dd9647",
"`  c #d99e57",
"'  c #ce956c",
"]  c #c29374",
"[  c #d7a15d",
"{  c #d6a466",
"}  c #d1ab7d",
"|  c #e09d51",
" . c #e5ae71",
".. c #80829e",
"X. c #8d8ea7",
"o. c #b59783",
"O. c #aea49e",
"+. c #b8a28e",
"@. c #baa998",
"#. c #b9afa3",
"$. c #bcb4a8",
"%. c #abadc1",
"&. c #b5b7c8",
"*. c #c59182",
"=. c #caab86",
"-. c #caa893",
";. c #cdb089",
":. c #cab495",
">. c #d8ae8b",
",. c #c7b7a6",
"<. c #ceb3aa",
"1. c #e5bb92",
"2. c #dbc5b7",
"3. c #ebc397",
"4. c #eccbaa",
"5. c #e6cfbe",
"6. c #ebd1ba",
"7. c #cfcfdb",
"8. c #d9d9e3",
"9. c #e8dbd8",
"0. c #f0dccc",
"q. c #f1e1d4",
"w. c #f3e5dd",
"e. c #ece3e2",
"r. c #f4edea",
"t. c #f4efef",
"y. c #faf9fb",
"u. c None",
"u.u.u.u.u.u.u.u.u.u.u.u.u.u.u.u.u.u.u.u.u.u.u.u.u.u.u.u.u.u.u.u.u.u.u.u.u.u.u.u.u.u.",
"u.u.u.u.u.u.u.u.u.u.u.u.u.u.u.u.u.u.u.u.u.u.u.u.u.u.u.u.u.u.u.u.u.u.u.u.u.u.u.u.u.u.",
"u.u.u.u.u.u.u.u.u.u.u.u.u.u.u.u.u.u.u.u.u.u.u.u.u.u.u.u.u.u.u.u.u.u.u.u.u.u.u.u.u.u.",
"u.u.u.u.u.u.u.u.u.u.u.u.u.u.u.u.u.u.u.u.u.u.u.u.u.u.u.u.u.u.u.u.u.u.u.u.u.u.u.u.u.u.",
"u.u.u.u.u.u.u.u.u.u.u.u.u.u.u.u.u.u.u.u.u.u.u.u.u.u.u.u.u.u.u.u.u.u.u.u.u.u.u.u.u.u.",
"u.u.u.u.u.u.u.u.u.u.u.u.u.u.u.u.u.u.u.u.u.u.u.u.u.u.u.u.u.u.u.u.u.u.u.u.u.u.u.u.u.u.",
"u.u.u.u.u.u.u.u.u.u.u.u.u.u.u.u.+.j W ( ( A j f o.u.u.u.u.u.u.u.u.u.u.u.u.u.u.u.u.u.",
"u.u.u.u.u.u.u.u.u.u.u.u.u.u.=.) W C Z C C C d i h x R u.u.u.u.u.u.u.u.u.u.u.u.u.u.u.",
"u.u.u.u.u.u.u.u.u.u.u.u.u.=.W D D D Q D D C V d i u p Y u.u.u.u.u.u.u.u.u.u.u.u.u.u.",
"u.u.u.u.u.u.u.u.u.u.u.u.=.W D _  .1. .Q Q D C d j ' ] x v v u.u.u.u.u.u.u.u.u.u.u.u.",
"u.u.u.u.u.u.u.u.u.u.u.=.W Q _ 3.r.y.0. .Q D C A >.q.e.-.t 6 u.u.:.;.;.;.;.;.:.u.u.u.",
"u.u.:.:.:.:.:.:.u.u.-.W D ! 1.r.y.y.y.q._ D Z >.w.y.y.r.-.0 o.-._ / / / / / ` u.u.u.",
"u.u.{ / / / / _ :.:.Z D Q | 6.y.y.y.y.y. .S A 5.y.y.y.y.9.e ; g ! / / / / / ` u.u.u.",
"u.,.[ / / / / / ! Z C D Q  .w.y.y.y.y.y.6.W { 0.y.y.y.y.e.v - w E / / / / / ` u.u.u.",
"u.` / / / / / / ! C C D Q 3.t.y.y.y.y.y.w.W 1.r.y.y.y.y.t.<.= ; Z ~ / / / / ` u.u.u.",
"u.` / / / / / ! Z V C D Q 4.y.y.y.y.y.y.y.( 5.y.y.y.y.y.y.9.= * 0 S / / / / ` u.u.u.",
"u.` / / / / / ! D V C C D 4.y.y.y.7.1 y.y.A 0.y...X.y.y.y.e.* * 0 Z / / / / ` u.u.u.",
"u.,.` / / / / ! Z d V C Z 4.y.y.&.+ X 1 t.j 5.2 O O X.y.y.9.* % 4 Z / / { :.,.u.u.u.",
"u.u.{ / / / / ! Z d d V V 1.t.y.%.. . X 9.h <.1 . . 2 y.t.<.% % 4 Z / { ,.u.u.u.u.u.",
"u.u.:.` / / / ! Z i i d d } w.y.%.. . X 2.f ] < . . 2 y.e.Y % $ 4 Z / } u.u.u.u.u.u.",
"u.u.u.:.` / / ! Z i i i i ) 5.y.7.2 o ..] r f P @ 1 &.y.9., $ $ : Z / } u.u.u.u.u.u.",
"u.u.u.u.:.` / ! Z u u u u h >.t.y.8...9.f 0 0 -.O.&.y.t.,.& # # : Z / } u.u.u.u.u.u.",
"u.u.u.u.u.;./ ~ ! u q q q y x <.q.y.9.*.0 4 4 l <.9.w.<.k # # $ e E / } u.u.u.u.u.u.",
"u.u.u.u.u.;./ / ! u q 0 0 q 0 p ' 2.o.4 4 : ; - t ] *.k # # # % Z ~ / } u.u.u.u.u.u.",
"u.u.u.u.u.:._ _ _ h q 4 4 4 4 q p y 5 5 5 5 5 ; e s ; # # # # > ( _ _ ;.u.u.u.u.u.u.",
"u.u.u.u.u.u.u.u.u.u.p 4 : 4 4 8 F M M M n n m M M M 8 $ # # & $.u.u.u.u.u.u.u.u.u.u.",
"u.u.u.u.u.u.u.u.u.u.u.t 4 8 m M M F H M m m M G G M M m n 6 u.u.u.u.u.u.u.u.u.u.u.u.",
"u.u.u.u.u.u.u.u.$.f p w a m M m B ! ^ ^ ^ ^ ^ ^ S a m M m n f $.u.u.u.u.u.u.u.u.u.u.",
"u.u.u.u.u.u.u.#.f w w w y a n M m N N G G G G G N m m m a y w f #.u.u.u.u.u.u.u.u.u.",
"u.u.u.u.u.u.u.@.w w w w w w q 7 8 m m m F M M m m 8 7 y y w w w x @.u.u.u.u.u.u.u.u.",
"u.u.u.u.u.u.#.x w w w w c R Y Y T b 3 3 3 3 3 b *.T Y R U w w w w x @.u.u.u.u.u.u.u.",
"u.u.u.u.u.u.+.w w w w c #.u.u.u.u.#.z z z z z O.u.u.u.u.$.U w w w w R u.u.u.u.u.u.u.",
"u.u.u.u.u.u.+.w w w w @.u.u.u.u.u.u.u.u.u.u.u.u.u.u.u.u.u.u.c w w w R u.u.u.u.u.u.u.",
"u.u.u.u.u.u.+.w w w w @.u.u.u.u.u.u.u.u.u.u.u.u.u.u.u.u.u.u.u.p w w R u.u.u.u.u.u.u.",
"u.u.u.u.u.u.+.w w w w R u.u.u.u.u.u.u.u.u.u.u.u.u.u.u.u.u.u.@.p w w R u.u.u.u.u.u.u.",
"u.u.u.u.u.u.@.p w w w w R #.u.u.u.u.u.u.u.u.u.u.u.u.u.u.u.@.w w w w R u.u.u.u.u.u.u.",
"u.u.u.u.u.u.u.@.y w w w w w U u.u.u.u.u.u.u.u.u.u.u.u.u.@.w w w w w R u.u.u.u.u.u.u.",
"u.u.u.u.u.u.u.,.K w w w w w w U u.u.u.u.u.u.u.u.u.u.u.+.y w w w w w 9 J L { u.u.u.u.",
"u.u.u.u.u.:._ _ ~ ! ! u w w w c u.u.u.u.u.u.u.u.u.u.o.p w w w w p S ! ! / ~ { u.u.u.",
"u.u.u.u.;._ ^ / / / / ! S g u I u.u.u.u.u.u.u.u.u.u.R g g g S S E ~ / / / / ` u.u.u.",
"u.u.u.u.} / / / / / / / / ! E ' u.u.u.u.u.u.u.u.u.u.=.! ! ! / / / / / / / / ` u.u.u.",
"u.u.u.u.,.{ / / / / / / / / / { u.u.u.u.u.u.u.u.u.u.;./ / / / / / / / / / ` :.u.u.u."
};
