/* XPM */
static char *brown_ball_destroy3[] = {
"42 42 127 2",
"   c #000000",
".  c #0c1449",
"X  c #141b4f",
"o  c #1b2355",
"O  c #2b305d",
"+  c #2f3663",
"@  c #4a070b",
"#  c #4f0f11",
"$  c #510c0d",
"%  c #56130d",
"&  c #5d1f20",
"*  c #6a1b12",
"=  c #682210",
"-  c #742b12",
";  c #7d3112",
":  c #6a3531",
">  c #7b463e",
",  c #494e76",
"<  c #902c19",
"1  c #82340f",
"2  c #883b14",
"3  c #a63b1e",
"4  c #a62a23",
"5  c #b13425",
"6  c #bf3429",
"7  c #8f4519",
"8  c #9b4b17",
"9  c #9f5019",
"0  c #8d492e",
"q  c #934c20",
"w  c #a44d19",
"e  c #a65518",
"r  c #b15d1a",
"t  c #a45925",
"y  c #b94e26",
"u  c #b9651a",
"i  c #a46438",
"p  c #b36423",
"a  c #bc7435",
"s  c #915848",
"d  c #90655c",
"f  c #907571",
"g  c #a74f7d",
"h  c #a76944",
"j  c #ab734b",
"k  c #ac7954",
"l  c #b3764c",
"z  c #b07666",
"x  c #c8362d",
"c  c #d13b2f",
"v  c #db3833",
"b  c #e23a35",
"n  c #c24631",
"m  c #d54b30",
"M  c #c36d1b",
"N  c #c9731d",
"B  c #c76f36",
"V  c #ca7726",
"C  c #d27c22",
"Z  c #e44336",
"A  c #e25835",
"S  c #e26735",
"D  c #e17135",
"F  c #c3605a",
"G  c #df7151",
"H  c #c6726f",
"J  c #b0815b",
"K  c #af8565",
"L  c #a78374",
"P  c #b78a67",
"I  c #b48b71",
"U  c #b49377",
"Y  c #ce812e",
"T  c #cd8339",
"R  c #d58227",
"E  c #db8c33",
"W  c #df9237",
"Q  c #e28b37",
"!  c #e19335",
"~  c #c68546",
"^  c #c78750",
"/  c #dd9644",
"(  c #d99c58",
")  c #c58869",
"_  c #c99c69",
"`  c #cf9d6e",
"'  c #d8a05a",
"]  c #d6a365",
"[  c #d4a875",
"{  c #e1a058",
"}  c #e5ae71",
"|  c #9d8a87",
" . c #8f92ac",
".. c #9fa2b8",
"X. c #ad928c",
"o. c #b69c88",
"O. c #b8a28d",
"+. c #baa999",
"@. c #a3a5bb",
"#. c #bdb2a5",
"$. c #b5b7c7",
"%. c #c79e82",
"&. c #cbab85",
"*. c #caae97",
"=. c #cdb18c",
"-. c #c8b69b",
";. c #d7a784",
":. c #d8b69f",
">. c #cdb6a4",
",. c #e8b291",
"<. c #dbc1b2",
"1. c #e9c096",
"2. c #e7c5a5",
"3. c #e5cbb9",
"4. c #f0d1b0",
"5. c #ccccd8",
"6. c #ddcdc9",
"7. c #ded4d5",
"8. c #dcdce6",
"9. c #eddacb",
"0. c #eaddd9",
"q. c #f3dac5",
"w. c #e5e5ec",
"e. c #f6ece5",
"r. c #f8f1ed",
"t. c #faf9fb",
"y. c None",
"y.y.y.y.y.y.y.y.y.y.y.y.y.y.y.y.y.y.y.y.y.y.y.y.y.y.y.y.y.y.y.y.y.y.y.y.y.y.y.y.y.y.",
"y.y.y.y.y.y.y.y.y.y.y.y.y.y.y.y.y.y.y.y.y.y.y.y.] ! >.y.y.y.y.y.y.y.y.y.y.y.y.y.y.y.",
"y.y.y.y.y.y.y.y.y.y.y.y.y.y.y.y.y.y.y.y.y.y.=./ ! ! ( y.y.y.y.y.y.y.y.y.y.y.y.y.y.y.",
"y.y.y.y.y.y.y.y.y.y.y.y.y.y.y.y.y.y.y.y.y.[ ! ! ! ! ! [ y.y.y.y.y.y.y.y.y.y.y.y.y.y.",
"y.y.y.y.y.y.y.y.y.y.y.y.y.y.o.y.y.y.X.y.>.Q ! ! ! ! ! ! -.y.y.y.y.y.y.y.y.y.y.y.y.y.",
"y.y.y.y.y.y.y.y.y.y.y.P 9 l w t k 7 ; o.J Y W ! ! ! ! ! ] y.y.y.y.y.y.y.y.y.y.y.y.y.",
"y.y.y.y.y.y.y.y.y.-.~ u u r r :.<.*.I 2 ; 9 V E ! ! ! ] y.y.y.y.y.y.y.y.y.y.y.y.y.y.",
"y.y.y.y.y.y.y.y.` N N N M u ^ 0.t.t.t.o.s - ; 7 Y ! ! [ y.y.y.y.y.y.y.y.y.y.y.y.y.y.",
"y.y.y.y.y.y.y.l N N C C V V ` r.t.t.t.r.6.s = - t W ! =.y.y.y.y.y.y.y.y.y.y.y.y.y.y.",
"y.y.y.y.y.y.y.B C R R R C V ] t.t.t.t.t.t.6.= % ; p W / y.y.y.y.y.y.y.y.y.y.y.y.y.y.",
"y.y.y.y.y.y.~ C R } } { R C T 9.t.t.t.t.t.t.X.% % 2 V ! ] y.y.y.y.y.y.y.y.y.y.y.y.y.",
"y.y.y.y.y.y.T E 2.t.t.e.1.( T 3.t.t.5.t.t.t.7.> % = q E ! &.y.y.y.y.y.y.y.y.y.y.y.y.",
"y.y.y.y.y.*.C R q.t.t.t.t.q.( ;.t.8.. + @.t.0.d $ @ - a ! ! y.y.y.y.y.y.y.y.y.y.y.y.",
"y.y.y.y.y.` C { e.t.t.t.t.t.0.V 9.$.. . o 8.t.X.# @ % V W ] y.y.y.y.y.y.y.y.y.y.y.y.",
"y.y.y.y.y._ R / q.t.t.t.t.t.t.2.G 0.O . X $.t.>.& @ $ 7 &.y.y.y.y.y.y.y.y.y.y.y.y.y.",
"y.y.y.y.y.^ C W 4.t.t.t.w.,  .5.) P f , o 8.t.X.$ @ @ f y.y.y.y.y.y.y.y.y.y.y.y.y.y.",
"y.y.y.y.y.N C R } r.t.t.w.O . , 3.t i &.y.0.q.d $ @ # | y.y.y.y.y.y.y.y.y.y.y.y.y.y.",
"y.y.-.y.&.V C C R q.t.t.5.. . . f j 7 2 s s j < @ * < h j K +.#.#.y.y.y.y.y.y.y.y.y.",
"y.[ ! / E C N C C / t.t.t. .. o w.k 2 ; - = n b x b v n w 9 9 t t y.y.y.y.y.y.y.y.y.",
"( ! ! ! ! C M N N V [ e.t.t.5...7.z 2 ; < x Z Z c v c w 9 9 9 9 9 j y.y.y.y.y.y.y.y.",
"! ! ! ! ! R N M M M u [ 3.t.t.t.0.h ; < 6 b S B n v x 9 i t 9 9 9 9 U y.y.y.y.y.y.y.",
"! ! ! ! ! E C u u u r p a :.:.,.%.2 6 c v A Q S v 5 0 +.y.y.U K 9 9 9 +.y.;.( [ y.y.",
"! ! ! ! ! ! R V r r e e w t 7 t y v Z Z D Q A b v H y.y.y.y.y.y.t 9 9 i g G ! ! ] y.",
"W ! ! ! ! ! ! R u e w 8 8 7 2 8 Z Z D Q D A Z x z y.y.y.y.y.y.O.9 9 9 9 B ! ! ! ! -.",
"=.] ! ! ! ! ! E R u 8 8 2 2 1 3 b m E A b b 4 % f y.y.y.y.y.y.U 9 9 9 t E ! ! ! / y.",
"y.y.&.' ! W ! ! E Y e 8 2 1 < v b v v v c < : X.y.y.y.y.y.y.y.K 9 9 w V ! ! ! ! ! y.",
"y.y.y.y.y.-.-.! ! ! ~ I h q 3 v c c 4 F s d y.y.y.y.y.y.y.y.y.h 9 t E ! ! ! ! y.y.y.",
"y.y.y.y.y.y.y.&.! [ y.y.#.i w w w 2 L y.y.y.y.y.y.y.y.y.y.y.#.9 p V E ! ! ! y.y.y.y.",
"y.y.y.y.y.y.y.y.-.y.y.y.t 9 9 9 h +.y.y.y.y.y.y.y.y.y.y.y.y.y.P V W ! ! y.y.y.y.y.y.",
"y.y.y.y.y.y.y.y.y.y.y.#.t 9 9 9 o.y.y.y.y.y.y.y.y.y.y.y.y.y.y.y.( ! ! y.y.y.y.y.y.y.",
"y.y.y.y.y.y.y.y.y.y.y.y.i 9 9 t y.y.y.y.y.y.y.y.y.y.y.y.y.y.y.y.-.y.y.y.y.y.y.y.y.y.",
"y.y.y.y.y.y.y.y.y.y.y.y.J 9 9 9 I y.y.y.y.y.y.y.y.y.y.y.y.y.y.y.y.y.y.y.y.y.y.y.y.y.",
"y.y.y.y.y.y.y.y.y.y.y.y.k 9 9 9 9 o.O.O.k o.y.y.y.y.y.y.y.y.y.y.y.y.y.y.y.y.y.y.y.y.",
"y.y.y.y.y.y.y.y.y.y.y.y.y.t 9 9 9 9 9 9 9 9 j y.y.y.y.y.y.y.y.y.y.y.y.y.y.y.y.y.y.y.",
"y.y.y.y.y.y.y.y.y.y.y.y.y.o.9 9 9 9 9 9 9 w e U y.y.y.y.y.y.y.y.y.y.y.y.y.y.y.y.y.y.",
"y.y.y.y.y.y.y.y.y.y.y.y.y.y.k h 9 9 e r p V V ! -.y.y.y.y.y.y.y.y.y.y.y.y.y.y.y.y.y.",
"y.y.y.y.y.y.y.y.y.y.y.y.y.y.y.y.H B E E ! ! ! ! ( y.y.y.y.y.y.y.y.y.y.y.y.y.y.y.y.y.",
"y.y.y.y.y.y.y.y.y.y.y.y.y.y.y.y.] ! ! ! ! ! ! y.y.y.y.y.y.y.y.y.y.y.y.y.y.y.y.y.y.y.",
"y.y.y.y.y.y.y.y.y.y.y.y.y.y.y.] ! ! ! ! ! ! y.y.y.y.y.y.y.y.y.y.y.y.y.y.y.y.y.y.y.y.",
"y.y.y.y.y.y.y.y.y.y.y.y.y.y.y.( Q ! ! ! y.y.y.y.y.y.y.y.y.y.y.y.y.y.y.y.y.y.y.y.y.y.",
"y.y.y.y.y.y.y.y.y.y.y.y.y.y.y.[ W ! ! y.y.y.y.y.y.y.y.y.y.y.y.y.y.y.y.y.y.y.y.y.y.y.",
"y.y.y.y.y.y.y.y.y.y.y.y.y.y.y.y.y.y.y.y.y.y.y.y.y.y.y.y.y.y.y.y.y.y.y.y.y.y.y.y.y.y."
};
