/* XPM */
static char *brown_ball_destroy4[] = {
"42 42 127 2",
"   c #000000",
".  c #0d1549",
"X  c #141b4e",
"o  c #192053",
"O  c #2a305f",
"+  c #383e6a",
"@  c #4a080c",
"#  c #520f0d",
"$  c #57150f",
"%  c #581712",
"&  c #672314",
"*  c #752c15",
"=  c #7e3615",
"-  c #6e3432",
";  c #4d5278",
":  c #7b514a",
">  c #5d6185",
",  c #6a6e8f",
"<  c #863a14",
"1  c #983319",
"2  c #8e2820",
"3  c #9f3225",
"4  c #ac3023",
"5  c #b52b29",
"6  c #bc3229",
"7  c #8e4215",
"8  c #9a4b18",
"9  c #9f5019",
"0  c #985328",
"q  c #965338",
"w  c #a44a1c",
"e  c #a5541a",
"r  c #b05d18",
"t  c #a45926",
"y  c #b14f2e",
"u  c #bd4f31",
"i  c #ba651b",
"p  c #a56437",
"a  c #b96d2c",
"s  c #bc712d",
"d  c #885e57",
"f  c #975b46",
"g  c #966655",
"h  c #b6514a",
"j  c #a76d47",
"k  c #a46e5b",
"l  c #ab734d",
"z  c #ac7b57",
"x  c #b57249",
"c  c #a77c6f",
"v  c #a17b76",
"b  c #c12f2c",
"n  c #cb3b2d",
"m  c #c83730",
"M  c #d93833",
"N  c #e23c35",
"B  c #ca4339",
"V  c #d04b2e",
"C  c #c36e1c",
"Z  c #c9731e",
"A  c #c87625",
"S  c #cd7d33",
"D  c #d17c23",
"F  c #e34636",
"G  c #e35635",
"H  c #d45451",
"J  c #cb7a44",
"K  c #9f867c",
"L  c #ae815e",
"P  c #be8154",
"I  c #ad8366",
"U  c #a98279",
"Y  c #b68969",
"T  c #b58d74",
"R  c #b49277",
"E  c #cd8233",
"W  c #d6852b",
"Q  c #d68732",
"!  c #df9338",
"~  c #e18b37",
"^  c #e19335",
"/  c #d08a47",
"(  c #c28258",
")  c #cd955c",
"_  c #dd9946",
"`  c #d99b59",
"'  c #c49672",
"]  c #d5956b",
"[  c #d7a15e",
"{  c #caa77e",
"}  c #d5a467",
"|  c #d1aa77",
" . c #e1a159",
".. c #e6b37b",
"X. c #9292a7",
"o. c #b0968e",
"O. c #baa087",
"+. c #baa896",
"@. c #a3a5ba",
"#. c #b4ada7",
"$. c #bcb3a6",
"%. c #babbcc",
"&. c #c9aa86",
"*. c #ccb18d",
"=. c #c9b598",
"-. c #d0a980",
";. c #d5af93",
":. c #c7b8a7",
">. c #dfbfa6",
",. c #d8bfbb",
"<. c #e6b684",
"1. c #ebc194",
"2. c #e9c7a6",
"3. c #eecebc",
"4. c #ecd1ba",
"5. c #cfc2c3",
"6. c #e8d6cc",
"7. c #ebdcd6",
"8. c #f2dbc4",
"9. c #f5e7da",
"0. c #ede7e7",
"q. c #eeedf3",
"w. c #f5ece8",
"e. c #f0eff4",
"r. c #f8f1ed",
"t. c #f9f7fa",
"y. c None",
"y.y.y.y.y.y.y.y.y.y.y.y.y.y.y.y.y.y.y.y.y.y.y.y.y.y.y.y.y.y.y.y.y.y.y.y.y.y.y.y.y.y.",
"y.y.y.y.y.y.y.y.y.y.y.y.y.y.y.y.y.y.y.y.y.y.y.y.y.y.y.y.y.y.y.y.y.y.y.y.y.y.y.y.y.y.",
"y.y.y.y.y.y.y.y.y.y.y.y.y.y.y.y.y.y.y.y.y.y.y.y.y.y.y.y.y.y.y.y.y.y.y.y.y.y.y.y.y.y.",
"y.y.y.y.y.y.y.y.y.y.y.y.y.y.y.y.y.y.y.y.y.y.y.y.y.y.y.y.y.y.y.y.y.y.y.y.y.y.y.y.y.y.",
"y.y.y.y.y.y.y.y.y.y.y.y.y.y.y.y.y.y.y.y.y.y.y.y.y.y.y.y.y.y.y.y.y.y.y.y.y.y.y.y.y.y.",
"y.y.y.y.y.y.y.y.y.y.y.y.y.y.y.y.y.y.y.y.y.y.y.y.y.y.y.y.y.y.y.y.y.y.y.y.y.y.y.y.y.y.",
"y.y.y.y.y.y.y.y.y.y.y.y.y.y.y.y.y.y.y.y.y.y.y.y.y.y.y.y.y.y.y.y.y.y.y.y.y.y.y.y.y.y.",
"y.y.y.y.y.y.y.y.y.y.y.y.y.y.y.y.y.y.y.y.y.y.y.y.y.y.y.y.y.y.y.y.y.y.y.y.y.y.y.y.y.y.",
"y.y.y.y.y.y.y.y.y.y.:.} } } } } :.y.y.y.y.y.y.y.y.y.y.y.y.y.y.y.y.*.{ *.y.y.y.y.y.y.",
"y.y.y.y.y.y.y.y.y.y.=._ ^ ^ ^ ^ =.y.y.y.y.y.y.y.y.y.y.y.y.y.y.y.*._ ! _ } y.y.y.y.y.",
"y.y.y.y.y.y.y.y.y.y.=._ ^ ^ ^ ^ _ :.y.y.y.y.y.y.y.y.y.y.y.y.y.y.] ~ ^ ^ ^ y.y.y.y.y.",
"y.y.y.y.y.y.y.y.y.y.=._ ^ ^ ^ ^ ^ ! _ _ _ _ &.y.y.y.y.y.y.y.y.y.v J ^ ^ ^ y.y.y.y.y.",
"y.y.y.y.y.y.y.y.y.y.=._ ^ ! Q E E E E E Q ! -.y.y.y.+.p t p p p t S ^ ^ ^ y.y.y.y.y.",
"y.y.y.y.y.y.y.y.y.y.:.` E A 9 < < = = = 0 s { y.y.+.p 9 9 9 9 9 9 t Q ^ ^ y.y.y.y.y.",
"y.y.y.y.y.y.y.y.y.y.y.R t < * & % $ # @ @ $ d #.+.p 9 9 t p t 9 9 e Q ^ ^ y.y.y.y.y.",
"y.y.y.y.y.y.y.y.y.$.I g q g c U v d - % @ @ @ d y e 9 t T $.R t 9 e E ^ ^ y.y.y.y.y.",
"y.y.y.y.y.y.y.y.y.o.q T :.6.w.t.e.7.:.v - @ @ 2 n w t T y.y.y.R t e A ! ^ y.y.y.y.y.",
"y.y.y.y.y.y.y.y.+.z &.0.t.t.t.t.e.e.t.0.+.- @ 5 N V p $.y.y.y.y.R t A ! ^ y.y.y.y.y.",
"y.y.y.y.y.y.y.y.p x 7.t.t.t.t.q.> ; , q.7.k 3 M m M q y.y.y.y.y.y.R R | | y.y.y.y.y.",
"y.y.y.y.y.y.y.+.r a >.r.t.t.t., X . o X.,.x B F u M h y.y.y.y.y.y.y.y.y.y.y.y.y.y.y.",
"y.y.y.y.y.y.y.p i i / 2.w.r.t.q.O X ; 5.k * 6 G Q M H y.y.y.y.y.y.y.y.y.y.y.y.y.y.y.",
"y.y.y.y.y.y.y.a C C Z A / ;.4.7.6.;.l 7 = * 6 N ~ F b : y.y.y.y.y.y.y.y.y.y.y.y.y.y.",
"y.y.y.y.y.y.y.A Z D D Q / ` ) ) ( x p 8 < = 4 M ~ F 6 : y.y.y.y.y.y.y.y.y.y.y.y.y.y.",
"y.y.y.y.y.y.y.A D W _ <.4.9.t.e.@.X.o.Y 0 < 6 M ~ F 6 : y.y.y.y.y.y.y.y.y.y.y.y.y.y.",
"y.y.y.y.y.y.y.A D ! 2.r.t.t.t.@.. . + y.*.0 m F ~ N 6 : y.y.y.y.y.y.y.y.y.y.y.y.y.y.",
"y.y.y.y.y.y.y.s D  .r.t.t.t.t.X.o X + %.0.I n G Q M B K y.y.y.y.y.y.y.y.y.y.y.y.y.y.",
"y.y.y.y.y.y.y.O.D ` 9.t.t.t.t.t.@.@.%.t.3.J V F G M h y.y.y.y.y.y.y.y.y.y.y.y.y.y.y.",
"y.y.y.y.y.y.y.:.E Q ..9.r.t.t.t.t.t.t.0.' 9 w M M n f y.y.y.y.y.I z Y | | y.y.y.y.y.",
"y.y.y.y.y.y.y.y.&.E Q  .1.8.9.r.w.6.;.P t 7 < n M y j y.y.y.y.I t t s ! ! y.y.y.y.y.",
"y.y.y.y.y.y.y.y.y.&.E W Q Q Q Q S A i e 8 7 < 1 n 9 l y.y.y.y.p 9 e Q ^ ^ y.y.y.y.y.",
"y.y.y.y.y.y.y.y.y.y.&.E D D D Z C i r e 8 < < 7 w 9 t z y.$.z e e r ^ ^ ^ y.y.y.y.y.",
"y.y.y.y.y.y.y.y.y.y.y.{ S Z Z C i i r e 8 8 p O.t 9 9 0 t t 0 9 e E ^ ^ ^ y.y.y.y.y.",
"y.y.y.y.y.y.y.y.y.y.y.y.) D Z C C i i i i s +.$.j 9 9 9 9 9 9 e t ! ^ ^ ^ y.y.y.y.y.",
"y.y.y.y.y.y.y.y.y.y.y.*._ ! W W W W W Q ! _ =.y.$.z p 9 9 9 0 j ( ^ ^ ^ ^ y.y.y.y.y.",
"y.y.y.y.y.y.y.y.y.y.y.} ^ ^ ^ ^ ^ ^ ^ ^ ^ _ =.y.y.y.+.z L z I +.=.^ ^ ^ ^ y.y.y.y.y.",
"y.y.y.y.y.y.y.y.y.y.y.} ^ ^ ^ ^ ^ ^ ^ } &.*.:.y.y.y.y.y.y.y.y.y.y.} ~ _ y.y.y.y.y.y.",
"y.y.y.y.y.y.y.y.y.y.y.} ^ ^ ^ ^ ^ ! } :.y.y.y.y.y.y.y.y.y.y.y.y.y.:.-.*.y.y.y.y.y.y.",
"y.y.y.y.y.y.y.y.y.y.y.| _ ^ ^ ^ _ } y.y.y.y.y.y.y.y.y.y.y.y.y.y.y.y.y.y.y.y.y.y.y.y.",
"y.y.y.y.y.y.y.y.y.y.y.y.=.[ _ ` y.y.y.y.y.y.y.y.y.y.y.y.y.y.y.y.y.y.y.y.y.y.y.y.y.y.",
"y.y.y.y.y.y.y.y.y.y.y.y.y.y.y.y.y.y.y.y.y.y.y.y.y.y.y.y.y.y.y.y.y.y.y.y.y.y.y.y.y.y.",
"y.y.y.y.y.y.y.y.y.y.y.y.y.y.y.y.y.y.y.y.y.y.y.y.y.y.y.y.y.y.y.y.y.y.y.y.y.y.y.y.y.y.",
"y.y.y.y.y.y.y.y.y.y.y.y.y.y.y.y.y.y.y.y.y.y.y.y.y.y.y.y.y.y.y.y.y.y.y.y.y.y.y.y.y.y."
};
