/* XPM */
static char *cyan_ball_jump8[] = {
"42 42 69 1",
"  c #000000",
". c #0c1449",
"X c #1a3cb7",
"o c #3d37a4",
"O c #002ac5",
"+ c #0035c9",
"@ c #0255aa",
"# c #164fbf",
"$ c #1a52bb",
"% c #0f79b2",
"& c #2e49af",
"* c #3d49a5",
"= c #004cce",
"- c #0056ce",
"; c #005cd1",
": c #1655c0",
"> c #0268cd",
", c #0169d3",
"< c #0077d4",
"1 c #0088d6",
"2 c #069bcb",
"3 c #0097d8",
"4 c #00a8db",
"5 c #03b9c6",
"6 c #00b8de",
"7 c #00aee0",
"8 c #03bae1",
"9 c #3aa3e1",
"0 c #3ab1e1",
"q c #02ccdc",
"w c #00cbe3",
"e c #01d1e5",
"r c #3ad9eb",
"t c #6b878d",
"y c #698792",
"u c #5d86dd",
"i c #5d9adf",
"p c #5daee5",
"a c #7d9be3",
"s c #7da3e5",
"d c #7dbee8",
"f c #5ecae9",
"g c #7dcbea",
"h c #9e3f64",
"j c #ac3d5b",
"k c #9e4165",
"l c #a64a5d",
"z c #a75f64",
"x c #a76064",
"c c #db393d",
"v c #e43937",
"b c #c73949",
"n c #d53940",
"m c #c8484c",
"M c #d44343",
"N c #86a2e4",
"B c #86b7e8",
"V c #86d5ed",
"C c #98d6ef",
"Z c #99e9f3",
"A c #b5cbef",
"S c #b5d9f2",
"D c #b5edf6",
"F c #d4edf7",
"G c #d7f3f9",
"H c #eaeef9",
"J c #eaf3fa",
"K c #faf9fc",
"L c None",
"LLLLLLLLLLLLLLLLLLLLLLLLLLLLLLLLLLLLLLLLLL",
"LLLLLLLLLLLLLLLLLLLLLLLLLLLLLLLLLLLLLLLLLL",
"LLLLLLLLLLLLLLLLLLLLLLLLLLLLLLLLLLLLLLLLLL",
"LLLLLLLLLLLLLLLLLLLLLLLLLLLLLLLLLLLLLLLLLL",
"LLLLLLLLLLLLLLLLLLLLLLLLLLLLLLLLLLLLLLLLLL",
"LLLLLLLLLLLLLLLLLLLLLLLLLLLLLLLLLLLLLLLLLL",
"LLLLLLLLLLLLLLLLLLLLLLLLLLLLLLLLLLLLLLLLLL",
"LLLLLLLLLLLLLLLLLLLLLLLLLLLLLLLLLLLLLLLLLL",
"LLLLLLLLLLLLLLLLLLLLLLLLLLLLLLLLLLLLLLLLLL",
"LLLLLLLLLLLLLLLL3666641LLLLLLLLLLLLLLLLLLL",
"LLLLLLLLLLLLLL66wwq666431LLLLLLLLLLLLLLLLL",
"LLLLLLLLLLLLL6wwwwww66433<LLLLLLLLLLLLLLLL",
"LLLLLLLLLLLLwweDKDewq64gKd<-LLLLLLLLLLLLLL",
"LLLLLLLLLLLqweDKKKDew6VKKKB,LLwwwwwwLLLLLL",
"LLLqwwwwLL6wwrKKKKKrq8KKKKK,;4wwwwwwLLLLLL",
"LLLwwwwww66wwZKKKKKZqfKKKKKi-1wwwwwwLLLLLL",
"LLwwwwwww66wwGKKKKKG8DKKKKKA=-wwwwwwLLLLLL",
"LLwwwwww666wwKKKKKKK8JKKKKKH==<wwwwwLLLLLL",
"LLwwwwww6666wKKKK.KK7KK.KKKK==<wwwwwLLLLLL",
"LLLwwwww64668KKK...K4J...KKH=+<wwwLLLLLLLL",
"LLLwwwww64466FKK...F3S...KKA++<wwLLLLLLLLL",
"LLLLwwww63344CKK...C1p...KKu++<wwLLLLLLLLL",
"LLLLLwww633330KKK.K91<K.KKK=++<wwLLLLLLLLL",
"LLLLLLwww31113SKKKS<<,BKKKN+O+<wwLLLLLLLLL",
"LLLLLLwww3<<<11fGS<,,;-sKa+OO+wwwLLLLLLLLL",
"LLLLLLwww3<,,<<11,,,:#=2>+OOO=wwwLLLLLLLLL",
"LLLLLLLLLL1,>>>mvvckhcvvmOOO+LLLLLLLLLLLLL",
"LLLLLLLLLLL,$bvvmtMmmMymvvbXLLLLLLLLLLLLLL",
"LLLLLLLLL===jvvlwwwwwww3lvvj=LLLLLLLLLLLLL",
"LLLLLLLL=====&cvccMxzMccvc&===LLLLLLLLLLLL",
"LLLLLLLL======-*bcnvvncbo======LLLLLLLLLLL",
"LLLLLLL=====LLLLL=++++LLLLL=====LLLLLLLLLL",
"LLLLLLL====LLLLLLLLLLLLLLLLL====LLLLLLLLLL",
"LLLLLLL====LLLLLLLLLLLLLLLLLL==@LLLLLLLLLL",
"LLLwwww====LLLLLLLLLLLLLLLLLL===LLLLLLLLLL",
"LLL5555w==LLLLLLLLLLLLLLLLLL====LLLLLLLLLL",
"LLL55555w=LLLLLLLLLLLLLLLLL=====LLLLLLLLLL",
"LLL55555w=LLLLLLLLLLLLLLLL========wLLLLLLL",
"LLL555555wLLLLLLLLLLLLLLL=======>qwwLLLLLL",
"LLLL555555LLLLLLLLLLLLLLL====>5qwwwwLLLLLL",
"LLLL555555LLLLLLLLLLLLLLL==%qwwwwwwwLLLLLL",
"LLLLLL5555LLLLLLLLLLLLLLLwwwwwwwwwwLLLLLLL"
};
