/* XPM */
static char *cyan_ball_destroy6[] = {
"42 42 129 2",
"   c #000000",
".  c #1c2456",
"X  c #2c3766",
"o  c #48507a",
"O  c #0029c5",
"+  c #0433c8",
"@  c #3f59b3",
"#  c #2665b7",
"$  c #004dcd",
"%  c #0554cd",
"&  c #005cd0",
"*  c #194ccb",
"=  c #1358cc",
"-  c #0566cc",
";  c #006bd2",
":  c #0872cf",
">  c #0578d4",
",  c #1875d6",
"<  c #235ed2",
"1  c #2265ca",
"2  c #257dcf",
"3  c #306ac8",
"4  c #3472cf",
"5  c #583e94",
"6  c #544697",
"7  c #575c82",
"8  c #5476bb",
"9  c #724883",
"0  c #7b5689",
"q  c #666b8d",
"w  c #7e6d81",
"e  c #797b87",
"r  c #6e7fa2",
"t  c #4778c6",
"y  c #4a72d1",
"u  c #617cc2",
"i  c #0586cb",
"p  c #008ad6",
"a  c #0299d8",
"s  c #1190d3",
"d  c #03a9da",
"f  c #00b9de",
"g  c #1aabdb",
"h  c #02bde1",
"j  c #299dd0",
"k  c #3799da",
"l  c #37bed4",
"z  c #32bde2",
"x  c #02c2df",
"c  c #1ac8dd",
"v  c #01cbe3",
"b  c #16cde3",
"n  c #23c8da",
"m  c #36c9d8",
"M  c #29d3e8",
"N  c #37cce7",
"B  c #5783be",
"V  c #658b95",
"C  c #718bbd",
"Z  c #4f90cf",
"A  c #45abd5",
"S  c #4cbacf",
"D  c #51accd",
"F  c #57a7d8",
"G  c #59b8cd",
"H  c #50b4e3",
"J  c #6b8dc3",
"K  c #6594c5",
"L  c #7896c2",
"P  c #6caac7",
"I  c #6ab4dc",
"U  c #72b0e0",
"Y  c #48c8d3",
"T  c #5cc2cd",
"R  c #54c7d2",
"E  c #50daec",
"W  c #68c6cd",
"Q  c #77c4c9",
"!  c #6cd2ec",
"~  c #77e2ef",
"^  c #ac3c5c",
"/  c #b43a55",
"(  c #894974",
")  c #92456e",
"_  c #95596f",
"`  c #8c6d78",
"'  c #8b717a",
"]  c #ae505d",
"[  c #b74957",
"{  c #a74763",
"}  c #da3a3e",
"|  c #c3444d",
" . c #c25160",
".. c #90658d",
"X. c #8e9ebe",
"o. c #8da2be",
"O. c #95a7bd",
"+. c #a0adbe",
"@. c #aab7bd",
"#. c #b3b8bb",
"$. c #8299c0",
"%. c #83a9c2",
"&. c #99b2d8",
"*. c #8fa9e6",
"=. c #94bde8",
"-. c #aac1be",
";. c #b4c2bd",
":. c #8ec4c5",
">. c #99c3c3",
",. c #88dff0",
"<. c #94d0ea",
"1. c #99eaf3",
"2. c #a2c3c1",
"3. c #aeddf1",
"4. c #bddaf1",
"5. c #a9e6f4",
"6. c #c8c9d6",
"7. c #d2d2de",
"8. c #c2d7f2",
"9. c #dbdde7",
"0. c #d5def4",
"q. c #cdf0f8",
"w. c #d5edf7",
"e. c #e4e4ec",
"r. c #ececf2",
"t. c #e7f4fa",
"y. c #f0eff5",
"u. c #f8f9fc",
"i. c None",
"i.i.i.i.i.i.i.i.i.i.i.i.i.i.i.i.i.i.i.i.i.i.i.i.i.i.i.i.i.i.i.i.i.i.i.i.i.i.i.i.i.i.",
"i.i.i.i.i.i.i.i.i.i.i.i.i.i.i.i.i.i.i.i.i.i.i.i.i.i.i.i.i.i.i.i.i.i.i.i.i.i.i.i.i.i.",
"i.i.i.i.i.i.i.i.i.i.i.i.i.i.i.i.i.i.i.i.i.i.i.i.i.i.i.i.i.i.i.i.i.i.i.i.i.i.i.i.i.i.",
"i.i.i.i.i.i.i.i.i.i.i.i.i.i.i.i.i.i.i.i.i.i.i.i.i.i.i.i.i.i.i.i.i.i.i.i.i.i.i.i.i.i.",
"i.i.i.i.i.i.i.i.i.i.i.i.i.i.i.i.i.i.i.i.i.i.i.i.i.i.i.i.i.i.i.i.i.i.i.i.i.i.i.i.i.i.",
"i.i.i.i.i.i.i.i.i.i.i.i.i.i.i.i.i.i.i.i.i.i.i.i.i.i.i.i.i.i.i.i.i.i.i.i.i.i.i.i.i.i.",
"i.i.i.i.i.i.i.i.i.i.i.i.i.i.i.i.i.i.i.i.i.i.i.i.i.i.i.i.i.i.i.i.i.i.i.i.i.i.i.i.i.i.",
"i.i.i.i.i.i.i.i.i.i.i.i.i.i.i.i.i.i.i.i.i.i.i.i.i.i.i.i.i.i.i.i.i.i.i.i.i.i.i.i.i.i.",
"i.i.i.i.i.i.i.i.i.i.i.i.i.i.i.i.i.i.i.i.i.i.i.i.i.i.i.i.i.i.i.i.i.i.i.i.i.i.i.i.i.i.",
"i.i.i.i.i.i.i.i.i.i.i.i.i.i.i.i.i.i.i.i.i.i.i.i.i.i.i.i.i.i.i.i.i.i.i.i.i.i.i.i.i.i.",
"i.i.i.i.i.i.i.i.i.;.R v v v v f f G i.i.i.i.i.i.i.i.i.i.i.i.i.i.i.i.i.i.i.i.i.i.i.i.",
"i.i.i.i.i.i.i.i.i.>.c v v f d i - K i.i.i.i.i.i.Y v v v v v m 2.i.i.i.i.i.i.i.i.i.i.",
"i.i.i.i.i.i.i.i.i.2.n d p : & $ % L i.i.i.i.i.i.A d f v v x n :.i.i.i.i.i.i.i.i.i.i.",
"i.i.i.i.i.i.i.i.i.i.Q Z 1 $ $ % t @.i.i.i.i.i.i.4 & ; p a l T -.i.i.i.i.i.i.i.i.i.i.",
"i.i.i.i.i.i.i.i.i.i.i.i.J $ % J @.i.i.i.i.i.i.i.O.3 $ $ = o.@.-.i.i.i.i.i.i.i.i.i.i.",
"i.i.i.i.i.i.i.i.i.i.i.i.B $ 4 #.i.i.i.i.i.i.i.i.i.@.1 $ % B i.i.i.i.i.i.i.i.i.i.i.i.",
"i.i.i.i.i.i.i.i.i.i.i.i.B $ 3 @.i.i.i.i.i.i.i.i.i.i.o.= $ t i.i.i.i.i.i.i.i.i.i.i.i.",
"i.i.i.i.i.i.i.i.i.i.i.i.J % $ t +.#.i.C u u $.i.i.i.J = $ t i.i.i.i.i.i.i.i.i.i.i.i.",
"i.i.i.i.i.i.i.i.i.i.i.i.@.t % = @ 0  .[ ^ ^ { ..8 t = $ = L i.i.i.i.i.i.i.i.i.i.i.i.",
"i.i.i.i.i.i.i.i.i.i.i.i.i.@.t 6 / [ w e V e ' ] { 6 $ $ t #.i.i.i.i.i.i.i.i.i.i.i.i.",
"i.i.i.i.i.i.i.i.i.i.i.i.i.i.X.5 / | e ' ` ' V ] } ( 1 t +.i.i.i.i.i.i.i.i.i.i.i.i.i.",
"i.i.i.i.i.i.i.i.i.i.i.:.Y D * O + 0 ( ) 9 ) { _ # - : P >.2.i.i.i.i.i.i.i.i.i.i.i.i.",
"i.i.i.i.i.i.i.i.i.i.i.W v p + + y =.2 % - : U A > > > s n n -.i.i.i.i.i.i.i.i.i.i.i.",
"i.i.i.i.i.i.i.i.i.i.i.W v & + y 0.9.&., > <.9.w.H p p p v v >.i.i.i.i.i.i.i.i.i.i.i.",
"i.i.i.i.i.i.i.i.i.i.i.W h & + *.y.7 o k k r o e.3.g a a f v Y -.i.i.i.i.i.i.i.i.i.i.",
"i.i.i.i.i.i.i.i.i.i.2.m f & * 0.e.. . I I X . 6.w.z d d f v v R ;.i.i.i.i.i.i.i.i.i.",
"i.i.i.i.i.i.i.i.i.W n v f & < u.r.q q <.<.q o 9.t.N f d f v v b :.i.i.i.i.i.i.i.i.i.",
"i.i.i.i.i.i.i.i.i.Y v v h ; < y.u.e.e.3.1.e.7.u.t.N f f f v v v Y i.i.i.i.i.i.i.i.i.",
"i.i.i.i.i.i.i.i.;.Y v v v a , 8.u.u.t.! ,.u.u.u.q.M f f v v v v Y i.i.i.i.i.i.i.i.i.",
"i.i.i.i.i.i.i.i.;.m v v v g 2 =.u.u.q.N E t.u.u.1.b x l n v v c :.i.i.i.i.i.i.i.i.i.",
"i.i.i.i.i.i.i.i.i.:.Q W W >.o.Z 4.w.! h M 5.u.q.E b T -.>.W W Q ;.i.i.i.i.i.i.i.i.i.",
"i.i.i.i.i.i.i.i.i.i.i.i.i.i.@.P F H d f v M ~ E b T i.i.i.i.i.i.i.i.i.i.i.i.i.i.i.i.",
"i.i.i.i.i.i.i.i.i.i.i.i.i.i.i.i.%.j d f f v x c G ;.i.i.i.i.i.i.i.i.i.i.i.i.i.i.i.i.",
"i.i.i.i.i.i.i.i.i.i.i.i.i.i.i.i.i.#.P G S S G @.i.i.i.i.i.i.i.i.i.i.i.i.i.i.i.i.i.i.",
"i.i.i.i.i.i.i.i.i.i.i.i.i.i.i.i.i.i.i.i.i.i.i.i.i.i.i.i.i.i.i.i.i.i.i.i.i.i.i.i.i.i.",
"i.i.i.i.i.i.i.i.i.i.i.i.i.i.i.i.i.i.i.i.i.i.i.i.i.i.i.i.i.i.i.i.i.i.i.i.i.i.i.i.i.i.",
"i.i.i.i.i.i.i.i.i.i.i.i.i.i.i.i.i.i.i.i.i.i.i.i.i.i.i.i.i.i.i.i.i.i.i.i.i.i.i.i.i.i.",
"i.i.i.i.i.i.i.i.i.i.i.i.i.i.i.i.i.i.i.i.i.i.i.i.i.i.i.i.i.i.i.i.i.i.i.i.i.i.i.i.i.i.",
"i.i.i.i.i.i.i.i.i.i.i.i.i.i.i.i.i.i.i.i.i.i.i.i.i.i.i.i.i.i.i.i.i.i.i.i.i.i.i.i.i.i.",
"i.i.i.i.i.i.i.i.i.i.i.i.i.i.i.i.i.i.i.i.i.i.i.i.i.i.i.i.i.i.i.i.i.i.i.i.i.i.i.i.i.i.",
"i.i.i.i.i.i.i.i.i.i.i.i.i.i.i.i.i.i.i.i.i.i.i.i.i.i.i.i.i.i.i.i.i.i.i.i.i.i.i.i.i.i.",
"i.i.i.i.i.i.i.i.i.i.i.i.i.i.i.i.i.i.i.i.i.i.i.i.i.i.i.i.i.i.i.i.i.i.i.i.i.i.i.i.i.i."
};
