/* XPM */
static char *cyan_ball_destroy4[] = {
"42 42 127 2",
"   c #000000",
".  c #0d1449",
"X  c #1a2153",
"o  c #212859",
"O  c #2c3361",
"+  c #313866",
"@  c #7a427d",
"#  c #7f617f",
"$  c #022bc4",
"%  c #0134c8",
"&  c #1c4dbc",
"*  c #3455b4",
"=  c #2f68b5",
"-  c #014cce",
";  c #0654cd",
":  c #1845cd",
">  c #155acb",
",  c #026bce",
"<  c #046ad2",
"1  c #0e74cc",
"2  c #017bd5",
"3  c #166ad4",
"4  c #2a5bc8",
"5  c #2156d0",
"6  c #2464c9",
"7  c #2c67d4",
"8  c #366ec8",
"9  c #41369d",
"0  c #46439c",
"q  c #5e6f94",
"w  c #4779bf",
"e  c #684a8a",
"r  c #696d8f",
"t  c #6c7fbd",
"y  c #476cce",
"u  c #4577c7",
"i  c #0186d6",
"p  c #019ad9",
"a  c #1697d9",
"s  c #01aada",
"d  c #01b9dd",
"f  c #14b5d0",
"g  c #18b7e2",
"h  c #2b90cf",
"j  c #2b9bdb",
"k  c #388ddb",
"l  c #21a2d7",
"z  c #26b3c5",
"x  c #21b5d6",
"c  c #26b7e2",
"v  c #3ca0e1",
"b  c #03c7de",
"n  c #15c9dc",
"m  c #01cbe3",
"M  c #13c7e2",
"N  c #1ad1e6",
"B  c #39c9d7",
"V  c #23d3e7",
"C  c #33c3e5",
"Z  c #648394",
"A  c #7393bf",
"S  c #5489cd",
"D  c #5ba8c8",
"F  c #5ba4d8",
"G  c #55ade3",
"H  c #6a8cc3",
"J  c #6a94c4",
"K  c #7493c2",
"L  c #7c9ae3",
"P  c #6ea5c6",
"I  c #6bbaca",
"U  c #66a7e3",
"Y  c #77afe2",
"T  c #46c9d4",
"R  c #59c7cd",
"E  c #53c6d1",
"W  c #4dcbe7",
"Q  c #49d8ea",
"!  c #68c4cc",
"~  c #78c5ca",
"^  c #69d8ed",
"/  c #78c7e9",
"(  c #72e3ef",
")  c #9c3563",
"_  c #bc3b52",
"`  c #a33d61",
"'  c #8f426f",
"]  c #8b4a73",
"[  c #924f74",
"{  c #9e656b",
"}  c #bd4252",
"|  c #a26468",
" . c #dd3a3b",
".. c #c53a4b",
"X. c #d43a41",
"o. c #c9454a",
"O. c #c44b52",
"+. c #d14445",
"@. c #8c8fa9",
"#. c #8ea4b9",
"$. c #89bfbe",
"%. c #9ca8bc",
"&. c #9db0be",
"*. c #a1adbd",
"=. c #abb4bd",
"-. c #b3b9bc",
";. c #8aadcc",
":. c #86bcea",
">. c #b5bcd0",
",. c #abc2be",
"<. c #b4c2bd",
"1. c #84c5c7",
"2. c #93c4c4",
"3. c #99d0ed",
"4. c #bfc7d6",
"5. c #b1cee9",
"6. c #becef0",
"7. c #afe8f4",
"8. c #c7d0df",
"9. c #c5def3",
"0. c #d7d8e2",
"q. c #d1e8f5",
"w. c #dcf3f9",
"e. c #e3ebf8",
"r. c #e8f5fa",
"t. c #f8f8fc",
"y. c None",
"y.y.y.y.y.y.y.y.y.y.y.y.y.y.y.y.y.y.y.y.y.y.y.y.y.y.y.y.y.y.y.y.y.y.y.y.y.y.y.y.y.y.",
"y.y.y.y.y.y.y.y.y.y.y.y.y.y.y.y.y.y.y.y.y.y.y.y.y.y.y.y.y.y.y.y.y.y.y.y.y.y.y.y.y.y.",
"y.y.y.y.y.y.y.y.y.y.y.y.y.y.y.y.y.y.y.y.y.y.y.y.y.y.y.y.y.y.y.y.y.y.y.y.y.y.y.y.y.y.",
"y.y.y.y.y.y.y.y.y.y.y.y.y.y.y.y.y.y.y.y.y.y.y.y.y.y.y.y.y.y.y.y.y.y.y.y.y.y.y.y.y.y.",
"y.y.y.y.y.y.y.y.y.y.y.y.y.y.y.y.y.y.y.y.y.y.y.y.y.y.y.y.y.y.y.y.y.y.y.y.y.y.y.y.y.y.",
"y.y.y.y.y.y.y.y.y.y.y.y.y.y.y.y.y.y.y.y.y.y.y.y.y.y.y.y.y.y.y.y.y.y.y.y.y.y.y.y.y.y.",
"y.y.y.y.y.y.y.y.y.,.~ ~ ~ ~ ~ y.y.y.y.y.y.y.y.y.y.y.y.y.y.y.y.<.~ ! ~ y.y.y.y.y.y.y.",
"y.y.y.y.y.y.y.y.y.~ m m m m n ,.y.y.y.y.y.y.y.y.y.y.y.y.y.y.y.! m m n E y.y.y.y.y.y.",
"y.y.y.y.y.y.y.y.y.~ m m m m m E y.y.y.y.y.y.y.y.y.y.y.y.y.y.-.h d m m m y.y.y.y.y.y.",
"y.y.y.y.y.y.y.y.y.1.m m m m m m B B B B T 2.y.y.y.y.y.y.y.-.=.6 i m m m y.y.y.y.y.y.",
"y.y.y.y.y.y.y.y.y.1.m m m m m m m m m m m ~ y.y.y.%.6 6 = 6 6 ; ; b m m y.y.y.y.y.y.",
"y.y.y.y.y.y.y.y.y.1.m m m p i i 2 2 2 p b ~ y.y.=.; - - - - - - ; f m m y.y.y.y.y.y.",
"y.y.y.y.y.y.y.y.y.y.I p , - - % % % % % - H y.*.; - - ; 6 > - - - , b m y.y.y.y.y.y.",
"y.y.y.y.y.y.y.y.y.&.J < 3 7 7 7 5 : % $ $ % t * - - > H y.H > - - ; d m y.y.y.y.y.y.",
"y.y.y.y.y.y.y.y.&.3 k U 5.e.r.e.6.L y : $ $ 9 ` & ; H y.y.y.H > - - 1 m y.y.y.y.y.y.",
"y.y.y.y.y.y.y.y.P F 9.t.t.t.t.t.t.t.e.L : $ )  .@ 4 y.y.y.y.y.K > ; < m y.y.y.y.y.y.",
"y.y.y.y.y.y.y.P j 9.t.t.t.t.t.@.@.%.t.e.S 0 ..o.X.* y.y.y.y.y.y.K H J ! y.y.y.y.y.y.",
"y.y.y.y.y.y.y.a l 9.t.t.t.t.@.X . o #.q.F [ +.q ..[ y.y.y.y.y.y.y.y.y.y.y.y.y.y.y.y.",
"y.y.y.y.y.y.D p s W q.t.t.t.>.o . O >.U 3 ] { z o.O.y.y.y.y.y.y.y.y.y.y.y.y.y.y.y.y.",
"y.y.y.y.y.y.l s d d C ^ 7.r.t.4.;.S k 3 ; ' o.z O._ y y.y.y.y.y.y.y.y.y.y.y.y.y.y.y.",
"y.y.y.y.y.y.x d d m m M M g c g a i 2 < > e } z { ..4 y.y.y.y.y.y.y.y.y.y.y.y.y.y.y.",
"y.y.y.y.y.y.x d m m V ^ 7.w.r.0.5.Y v 2 < e O.z { ..4 y.y.y.y.y.y.y.y.y.y.y.y.y.y.y.",
"y.y.y.y.y.y.x m m Q q.t.t.t.0.O . + 8.:.1 ] o.z O._ 4 y.y.y.y.y.y.y.y.y.y.y.y.y.y.y.",
"y.y.y.y.y.y.x m N q.t.t.t.t.r X . X @.e.U ] | f O.} H y.y.y.y.y.y.y.y.y.y.y.y.y.y.y.",
"y.y.y.y.y.y.D b V w.t.t.t.t.t.r r @.t.w.G # +.Z o.[ y.y.y.y.y.y.y.y.y.y.y.y.y.y.y.y.",
"y.y.y.y.y.y.y.g M ( r.t.t.t.t.t.t.t.t.3.a = } o.X.* y.y.y.y.y.K S I E R y.y.y.y.y.y.",
"y.y.y.y.y.y.y.I b N ^ 7.w.r.t.t.r.7./ j 2 , ]  .@ > y.y.y.y.A > - m m b y.y.y.y.y.y.",
"y.y.y.y.y.y.y.y.! b m V B Q Q W W x a i 2 , * ' & > -.y.y.y.> - - m m m y.y.y.y.y.y.",
"y.y.y.y.y.y.y.y.y.! b m m m m d s s p i 2 , , & - ; u -.-.6 - - 1 m m m y.y.y.y.y.y.",
"y.y.y.y.y.y.y.y.y.y.I d d d d d s p p i 2 2 P 6 - - - > ; - - - s m m m y.y.y.y.y.y.",
"y.y.y.y.y.y.y.y.y.y.y.I d d s s s p p p p I y.u ; - - - - - - - d m m m y.y.y.y.y.y.",
"y.y.y.y.y.y.y.y.y.y.y.R m b d d d d d m m ! y.y.u 6 ; - - ; 6 8 d m m m y.y.y.y.y.y.",
"y.y.y.y.y.y.y.y.y.y.1.M m m m m m m m m m ! y.y.y.-.u u u w #.y.B b m m y.y.y.y.y.y.",
"y.y.y.y.y.y.y.y.y.y.1.m m m m m m m n T E 2.y.y.y.y.y.y.y.y.y.$.! n n E y.y.y.y.y.y.",
"y.y.y.y.y.y.y.y.y.y.1.M m m m m m M ~ y.y.y.y.y.y.y.y.y.y.y.y.$.,.~ ~ y.y.y.y.y.y.y.",
"y.y.y.y.y.y.y.y.y.y.1.n m m m m m ~ y.y.y.y.y.y.y.y.y.y.y.y.y.y.y.y.y.y.y.y.y.y.y.y.",
"y.y.y.y.y.y.y.y.y.y.,.1.T m m ! 1.y.y.y.y.y.y.y.y.y.y.y.y.y.y.y.y.y.y.y.y.y.y.y.y.y.",
"y.y.y.y.y.y.y.y.y.y.y.y.,.2.2.<.y.y.y.y.y.y.y.y.y.y.y.y.y.y.y.y.y.y.y.y.y.y.y.y.y.y.",
"y.y.y.y.y.y.y.y.y.y.y.y.y.y.y.y.y.y.y.y.y.y.y.y.y.y.y.y.y.y.y.y.y.y.y.y.y.y.y.y.y.y.",
"y.y.y.y.y.y.y.y.y.y.y.y.y.y.y.y.y.y.y.y.y.y.y.y.y.y.y.y.y.y.y.y.y.y.y.y.y.y.y.y.y.y.",
"y.y.y.y.y.y.y.y.y.y.y.y.y.y.y.y.y.y.y.y.y.y.y.y.y.y.y.y.y.y.y.y.y.y.y.y.y.y.y.y.y.y.",
"y.y.y.y.y.y.y.y.y.y.y.y.y.y.y.y.y.y.y.y.y.y.y.y.y.y.y.y.y.y.y.y.y.y.y.y.y.y.y.y.y.y."
};
