/* XPM */
static char *cyan_ball_jump6[] = {
"42 42 71 1",
"  c #000000",
". c #0c1449",
"X c #1a3cb7",
"o c #3d37a4",
"O c #002ac5",
"+ c #0035c9",
"@ c #0255aa",
"# c #164fbf",
"$ c #1a52bb",
"% c #0a6abb",
"& c #2e49af",
"* c #3d49a5",
"= c #004cce",
"- c #0056ce",
"; c #005cd1",
": c #1655c0",
"> c #0268cd",
", c #0169d3",
"< c #0077d4",
"1 c #4073c7",
"2 c #0088d6",
"3 c #069bcb",
"4 c #0097d8",
"5 c #00a8db",
"6 c #0ab9c8",
"7 c #00b8de",
"8 c #00aee0",
"9 c #03bae1",
"0 c #3aa3e1",
"q c #3ab1e1",
"w c #02cbdc",
"e c #00cbe3",
"r c #01d1e5",
"t c #3ad9eb",
"y c #6b878d",
"u c #698792",
"i c #5d86dd",
"p c #5d9adf",
"a c #5daee5",
"s c #7d9be3",
"d c #7da3e5",
"f c #7dbee8",
"g c #41c7d3",
"h c #5ecae9",
"j c #7dcbea",
"k c #9e3f64",
"l c #ac3d5b",
"z c #9e4165",
"x c #a64a5d",
"c c #a75f64",
"v c #a76064",
"b c #db393d",
"n c #e43937",
"m c #c73949",
"M c #d53940",
"N c #c8484c",
"B c #d44343",
"V c #86a2e4",
"C c #86b7e8",
"Z c #86d5ed",
"A c #98d6ef",
"S c #99e9f3",
"D c #b5cbef",
"F c #b5d9f2",
"G c #b5edf6",
"H c #d4edf7",
"J c #d7f3f9",
"K c #eaeef9",
"L c #eaf3fa",
"P c #faf9fc",
"I c None",
"IIIIIIIIIIIIIIIIIIIIIIIIIIIIIIIIIIIIIIIIII",
"IIIIIIIIIIIIIIIIIIIIIIIIIIIIIIIIIIIIIIIIII",
"IIIIIIIIIIIIIIIIIIIIIIIIIIIIIIIIIIIIIIIIII",
"IIIIIIIIIIIIIIIIIIIIIIIIIIIIIIIIIIIIIIIIII",
"IIIIIIIIIIIIIIIIIIIIIIIIIIIIIIIIIIIIIIIIII",
"IIIIIIIIIIIIIIIIIIIIIIIIIIIIIIIIIIIIIIIIII",
"IIIIIIIIIIIIIIIIIIIIIIIIIIIIIIIIIIIIIIIIII",
"IIIIIIIIIIIIIIIIIIIIIIIIIIIIIIIIIIIIIIIIII",
"IIIIIIIIIIIIIIIIIIIIIIIIIIIIIIIIIIIIIIIIII",
"IIIIIIIIIIIIIIIIIIIIIIIIIIIIIIIIIIIIIIIIII",
"IIIIIIIIIIIIIIIIIIIIIIIIIIIIIIIIIIIIIIIIII",
"IIIIIIIIIIIIIIII4777752IIIIIIIIIIIIIIIIIII",
"IIIIIIIIIIIIII77eee777542IIIIIIIIIIIIIIIII",
"IIIIIIIIIIIII7eeeeee77544<IIIIIIIIIIIIIIII",
"IIIIIIIIIIIIeerGPGree75jPf<-IIIIIIIIIIIIII",
"IIIIIIIIIIIeerGPPPGre7ZPPPC,IIeeeeeeIIIIII",
"IIIweeeeII7eetPPPPPte9PPPPP,;5eeeeeeIIIIII",
"IIIeeeeee77eeSPPPPPSehPPPPPp-2eeeeeeIIIIII",
"IIeeeeeee77eeJPPPPPJ9GPPPPPD=-eeeeeeIIIIII",
"IIeeeeee777eePPPPPPP9LPPPPPK==<eeeeeIIIIII",
"IIeeeeee7777ePPPP.PP8PP.PPPP=+<eeeeeIIIIII",
"IIIeeeee75779PPP...P5L...PPK=+<eeeIIIIIIII",
"IIIeeeee75577HPP...H4F...PPD++<eeIIIIIIIII",
"IIIIeeee74455APP...A2a...PPi++<eeIIIIIIIII",
"IIIIIeee74444qPPP.P02<P.PPP=++<eeIIIIIIIII",
"IIIIIIeee42224FPPPF<<,CPPPV+O+<eeIIIIIIIII",
"IIIIIIeee4<<<22hJF<,,;-dPs+OO+eeeIIIIIIIII",
"IIIIIIeee4<,,<<22,,,:#=3>+OOO=eeeIIIIIIIII",
"IIIIIIIIII2,>>>NnnbzkbnnNOOO+IIIIIIIIIIIII",
"IIIIIIIIIII,$mnnNyBNNBuNnnmXIIIIIIIIIIIIII",
"IIIIIIIII===lnnxeeeeeee4xnnl=IIIIIIIIIIIII",
"IIIIIIII=====&bnbbBvcBbbnb&===IIIIIIIIIIII",
"IIIIIIII======-*mbMnnMbmo======IIIIIIIIIII",
"IIIIIII=====IIIII=++++IIIII=====IIIIIIIIII",
"IIIIIII====IIIIIIIIIIIIIIIII====IIIIIIIIII",
"IIIIIII=====IIIIIIIIIIIIIIII===@IIIIIIIIII",
"IIIIIIII=====IIIIIIIIIIIIII====IIIIIIIIIII",
"IIIIIIIII=====IIIIIIIIIIII====1=gIIIIIIIII",
"IIIIIIIeeee====IIIIIIIIII====1>weeIIIIIIII",
"IIIIIIeeeeee===IIIIIIIII===>6weeeeIIIIIIII",
"IIIIIeeeeeweee=IIIIIIII11%weeeeeeIIIIIIIII",
"IIIIIeeeeeeeeeeIIIIIIIIeeeeeeeeeIIIIIIIIII"
};
