/* XPM */
static char *cyan_ball_destroy5[] = {
"42 42 129 2",
"   c #000000",
".  c #10184c",
"X  c #1b2457",
"o  c #242b5b",
"O  c #313e6b",
"+  c #4a4f77",
"@  c #7b437c",
"#  c #3235a8",
"$  c #022ac5",
"%  c #0638c9",
"&  c #1e59bc",
"*  c #334fad",
"=  c #356cb0",
"-  c #004ccd",
";  c #0854cd",
":  c #005fd0",
">  c #1a44cc",
",  c #165ac9",
"<  c #0065ce",
"1  c #026bd1",
"2  c #0a72cf",
"3  c #0378d4",
"4  c #1861c7",
"5  c #1373ce",
"6  c #2e5cca",
"7  c #2464cb",
"8  c #6d3884",
"9  c #4553a5",
"0  c #4e6791",
"q  c #4b67b9",
"w  c #5d78b9",
"e  c #635597",
"r  c #71718f",
"t  c #6372af",
"y  c #4d7acc",
"u  c #537cc4",
"i  c #0287d6",
"p  c #0398d9",
"a  c #1293d2",
"s  c #01aadb",
"d  c #01b9de",
"f  c #17b4d9",
"g  c #06bde1",
"h  c #13b8e0",
"j  c #308ed4",
"k  c #37b1d7",
"l  c #2ea6e1",
"z  c #03c7dc",
"x  c #18c8dd",
"c  c #01cae3",
"v  c #18cee5",
"b  c #28c9da",
"n  c #34c7d8",
"m  c #37d6e9",
"M  c #5e8f9b",
"N  c #5093a5",
"B  c #43a0b0",
"V  c #76808a",
"C  c #6d90ba",
"Z  c #468bd9",
"A  c #508dd2",
"S  c #5d85c4",
"D  c #5090dd",
"F  c #47bbd1",
"G  c #54a9de",
"H  c #4ba8e0",
"J  c #678bc3",
"K  c #6f90c2",
"L  c #7996c1",
"P  c #7594e0",
"I  c #6eafce",
"U  c #74afe2",
"Y  c #49c8d3",
"T  c #57c7d1",
"R  c #4bcde9",
"E  c #67c6cd",
"W  c #75c5ca",
"Q  c #69c6e8",
"!  c #71d8ed",
"~  c #7be4f0",
"^  c #ad3d5b",
"/  c #b83e54",
"(  c #924a6f",
")  c #836f7d",
"_  c #8c7078",
"`  c #ad4c5d",
"'  c #b94554",
"]  c #b3535b",
"[  c #a65267",
"{  c #c43b4b",
"}  c #d53941",
"|  c #ca4a4d",
" . c #805e92",
".. c #8771a0",
"X. c #8386a2",
"o. c #969eb9",
"O. c #8da2be",
"+. c #8fbfbd",
"@. c #97a7be",
"#. c #9db6bf",
"$. c #ae8799",
"%. c #a5a9b8",
"&. c #aab4bc",
"*. c #b2b8bc",
"=. c #879ec0",
"-. c #8da8c4",
";. c #83bfc6",
":. c #95bac1",
">. c #98ade8",
",. c #abc2be",
"<. c #b3c2bd",
"1. c #86c4c7",
"2. c #99c3c3",
"3. c #8ccbed",
"4. c #8bd9ef",
"5. c #91e8f2",
"6. c #a3c3c1",
"7. c #acd3f0",
"8. c #b2eaf5",
"9. c #c7cad8",
"0. c #d2dbef",
"q. c #ceebf6",
"w. c #c6f0f8",
"e. c #d6e7f7",
"r. c #e3e3eb",
"t. c #eaeaf0",
"y. c #ebf5fa",
"u. c #f7f7fb",
"i. c None",
"i.i.i.i.i.i.i.i.i.i.i.i.i.i.i.i.i.i.i.i.i.i.i.i.i.i.i.i.i.i.i.i.i.i.i.i.i.i.i.i.i.i.",
"i.i.i.i.i.i.i.i.i.i.i.i.i.i.i.i.i.i.i.i.i.i.i.i.i.i.i.i.i.i.i.i.i.i.i.i.i.i.i.i.i.i.",
"i.i.i.i.i.i.i.i.i.i.i.i.i.i.i.i.i.i.i.i.i.i.i.i.i.i.i.i.i.i.i.i.i.i.i.i.i.i.i.i.i.i.",
"i.i.i.i.i.i.i.i.i.i.i.i.i.i.i.i.i.i.i.i.i.i.i.i.i.i.i.i.i.i.i.i.i.i.i.i.i.i.i.i.i.i.",
"i.i.i.i.i.i.i.i.i.i.i.i.i.i.i.i.i.i.i.i.i.i.i.i.i.i.i.i.i.i.i.i.i.i.i.i.i.i.i.i.i.i.",
"i.i.i.i.i.i.i.i.i.i.i.i.i.i.i.i.i.i.i.i.i.i.2.n n i.i.i.i.i.i.i.i.i.i.i.i.i.i.i.i.i.",
"i.i.i.i.i.i.i.i.i.i.i.i.i.i.i.i.i.i.i.i.i.<.Y c c c i.i.i.i.i.i.i.i.i.i.i.i.i.i.i.i.",
"i.i.i.i.i.i.i.i.i.i.i.i.i.i.i.i.i.i.i.i.i.<.F d c c c i.i.i.i.i.i.i.i.i.i.i.i.i.i.i.",
"i.i.i.i.i.i.i.i.i.i.i.i.i.i.i.i.i.i.i.i.i.i.L 5 i z c c i.i.i.i.i.i.i.i.i.i.i.i.i.i.",
"i.i.i.i.i.i.i.i.i.i.i.i.i.i.i.i.i.i.i.i.i.i.O.7 - 3 s z i.i.i.i.i.i.i.i.i.i.i.i.i.i.",
"i.i.i.i.i.i.i.i.i.i.i.i.i.i.i.i.i.i.i.i.i.C 7 - - - < i s i.i.i.i.i.i.i.i.i.i.i.i.i.",
"i.i.i.i.i.i.i.i.i.i.i.i.i.i.i.i.i.i.i.&.S , - - - - - - 1 F i.i.i.i.i.i.i.i.i.i.i.i.",
"i.i.i.i.i.i.i.i.i.i.i.i.i.i.i.i.i.i.i.=., - 7 u y 4 ; ; J *.i.i.i.i.i.i.i.i.i.i.i.i.",
"i.i.i.i.i.i.i.i.i.i.i.i.i.i.i.<.i.i.i.S ; ; K i.i.i.*.*.i.i.i.i.i.i.i.i.i.i.i.i.i.i.",
"i.i.i.i.i.i.i.i.i.i.i.i.i.i.1.Y 1.i.i.S ; , L i.i.i.i.i.i.i.i.i.i.i.i.i.i.i.i.i.i.i.",
"i.i.i.i.i.i.i.i.i.1.2.i.i.W x c x #.*.w ; , =.i.i.i.i.i.i.i.i.i.i.i.i.i.i.i.i.i.i.i.",
"i.i.i.i.i.i.i.,.T x b T Y x g p 3 7 6 e @ 9 u *.i.i.i.i.i.i.i.i.i.i.i.i.i.i.i.i.i.i.",
"i.i.i.i.i.i.2.b c c c c c s 1 - $ $ $ 8 } { ( $.i.i.i.i.i.i.i.i.i.i.i.i.i.i.i.i.i.i.",
"i.i.i.i.i.i.E c c c c c p : % % % > % # { [ [ | ..@.i.i.i.i.i.i.i.W b i.i.i.i.i.i.i.",
"i.i.i.i.i.i.6.n c c c p : - 6 y >.>.P q ' ) N ] ^ q @.i.i.i.i.&.A x c c i.i.i.i.i.i.",
"i.i.i.i.i.i.i.1.x c d 3 - D 0.e.u.u.e.U e | r M ] 8 u *.i.i.i.K ; p c c i.i.i.i.i.i.",
"i.i.i.i.i.i.i.i.W n a 5 U y.u.r.r r o.D ; @ ` N V {  .%.i.i.i.u - 1 d c c i.i.i.i.i.",
"i.i.i.i.i.i.i.i.i.i.j D 0.u.u.X.. X C j 1 & ( [ B ] [ %.i.i.i.J - < s c c c i.i.i.i.",
"i.i.i.i.i.i.i.i.i.O.j 7.u.u.t.X.o 0 j i 3 2 9 ` _ ) [ t *.i.i.u - - i c c c b i.i.i.",
"i.i.i.i.i.i.i.i.i.@.Z e.u.u.u.r.9.U l G 3.3.U r | | / * J &.@.7 - - 7 k z z E i.i.i.",
"i.i.i.i.i.i.i.i.i.#.G q.y.u.e.8.! Q -.O + 9.w.l = ( ^ * - ; ; - - , O.,.E E ,.i.i.i.",
"i.i.i.i.i.i.i.i.i.:.a Q 4.4.R R 4.r.+ . o u.q.H 3 4 * & - - - - ; u &.,.+.i.i.i.i.i.",
"i.i.i.i.i.i.i.i.i.#.a s h g v ~ y.r.r + o.y.7.l 3 1 5 A ; ; , 7 L *.i.i.i.i.i.i.i.i.",
"i.i.i.i.i.i.i.i.i.&.a s d c m w.u.u.r.r.u.e.Q p i 3 j #.O.=.%.&.i.i.i.i.i.i.i.i.i.i.",
"i.i.i.i.i.i.i.i.i.i.I d d c ~ y.u.u.u.u.y.! f p i i f ;.i.i.i.i.i.i.i.i.i.i.i.i.i.i.",
"i.i.i.i.i.i.i.i.i.i.,.F d c 5.u.u.u.y.w.! d s p p s c b 6.i.i.i.i.i.i.i.i.i.i.i.i.i.",
"i.i.i.i.i.i.i.i.i.i.i.:.f c m 5.8.8.~ m c d s s s c c x 2.i.i.i.i.i.i.i.i.i.i.i.i.i.",
"i.i.i.i.i.i.i.i.i.i.i.i.I k c v v v v c d d d d c c b 1.i.i.i.i.i.i.i.i.i.i.i.i.i.i.",
"i.i.i.i.i.i.i.i.i.i.i.i.i.i.I F n n x h d d d c c c n ,.i.i.i.i.i.i.i.i.i.i.i.i.i.i.",
"i.i.i.i.i.i.i.i.i.i.i.i.i.i.i.i.<.i.2.;.b c c c c c T i.i.i.i.i.i.i.i.i.i.i.i.i.i.i.",
"i.i.i.i.i.i.i.i.i.i.i.i.i.i.i.i.i.i.i.i.n c c c c c E i.i.i.i.i.i.i.i.i.i.i.i.i.i.i.",
"i.i.i.i.i.i.i.i.i.i.i.i.i.i.i.i.i.i.i.i.E c c c c n ,.i.i.i.i.i.i.i.i.i.i.i.i.i.i.i.",
"i.i.i.i.i.i.i.i.i.i.i.i.i.i.i.i.i.i.i.i.i.i.i.i.i.i.i.i.i.i.i.i.i.i.i.i.i.i.i.i.i.i.",
"i.i.i.i.i.i.i.i.i.i.i.i.i.i.i.i.i.i.i.i.i.i.i.i.i.i.i.i.i.i.i.i.i.i.i.i.i.i.i.i.i.i.",
"i.i.i.i.i.i.i.i.i.i.i.i.i.i.i.i.i.i.i.i.i.i.i.i.i.i.i.i.i.i.i.i.i.i.i.i.i.i.i.i.i.i.",
"i.i.i.i.i.i.i.i.i.i.i.i.i.i.i.i.i.i.i.i.i.i.i.i.i.i.i.i.i.i.i.i.i.i.i.i.i.i.i.i.i.i.",
"i.i.i.i.i.i.i.i.i.i.i.i.i.i.i.i.i.i.i.i.i.i.i.i.i.i.i.i.i.i.i.i.i.i.i.i.i.i.i.i.i.i."
};
