/* XPM */
static char *cyan_ball_destroy8[] = {
"42 42 104 2",
"   c #000000",
".  c #1e2557",
"X  c #444a73",
"o  c #485078",
"O  c #0c2ec0",
"+  c #0031c7",
"@  c #3554b2",
"#  c #014ece",
"$  c #0753cc",
"%  c #1a48c9",
"&  c #1157cc",
"*  c #046bce",
"=  c #017ad4",
"-  c #1968c0",
";  c #2a66c9",
":  c #297ed6",
">  c #3f6ed6",
",  c #5163ae",
"<  c #517bac",
"1  c #604c8e",
"2  c #625c92",
"3  c #764b81",
"4  c #775382",
"5  c #63688a",
"6  c #6c7c9e",
"7  c #736386",
"8  c #457cd9",
"9  c #517ec5",
"0  c #0088d5",
"q  c #0298d9",
"w  c #1783d2",
"e  c #01aada",
"r  c #00b5de",
"t  c #15bedb",
"y  c #2395db",
"u  c #3b83da",
"i  c #35a4dd",
"p  c #3cbbd2",
"a  c #01c2de",
"s  c #14c9dd",
"d  c #00cae2",
"f  c #15cbe5",
"g  c #34c7d7",
"h  c #20d0e6",
"j  c #33d2e7",
"k  c #5e8b9a",
"l  c #5c909c",
"z  c #678794",
"x  c #7181b6",
"c  c #5d85c3",
"v  c #49aacc",
"b  c #59a7c9",
"n  c #54b8cf",
"m  c #698dc4",
"M  c #6282dc",
"N  c #6994c4",
"B  c #738bc1",
"V  c #7795c2",
"C  c #7caac6",
"Z  c #75bbc7",
"A  c #48c8d4",
"S  c #58c4cc",
"D  c #57c6d1",
"F  c #4dcae7",
"G  c #43d9ea",
"H  c #5ed6ec",
"J  c #6fc6cb",
"K  c #7dc5c8",
"L  c #79c7e8",
"P  c #a83b5e",
"I  c #b43e57",
"U  c #9a4d76",
"Y  c #99636e",
"T  c #ae495c",
"R  c #aa546f",
"E  c #c13d4e",
"W  c #c34a57",
"Q  c #8da2bf",
"!  c #98a8be",
"~  c #a3a7b9",
"^  c #a6b7bc",
"/  c #babdbb",
"(  c #85a5c2",
")  c #96b5c0",
"_  c #8ebde8",
"`  c #abc2be",
"'  c #b9c1bc",
"]  c #82c5c8",
"[  c #96c4c3",
"{  c #8fc0ea",
"}  c #89daf0",
"|  c #91d3ee",
" . c #a7e8f3",
".. c #b8e1f3",
"X. c #c1c1ba",
"o. c #c9cad7",
"O. c #dcdce6",
"+. c #d3dcf3",
"@. c #c7ebf6",
"#. c #cbf1f8",
"$. c #ddebf6",
"%. c #e9f3f9",
"&. c #f8f8fc",
"*. c None",
"*.*.*.*.*.*.*.*.*.*.*.*.*.*.*.*.*.*.*.*.*.*.*.*.*.*.*.*.*.*.*.*.*.*.*.*.*.*.*.*.*.*.",
"*.*.*.*.*.*.*.*.*.*.*.*.*.*.*.*.*.*.*.*.*.*.*.*.*.*.*.*.*.*.*.*.*.*.*.*.*.*.*.*.*.*.",
"*.*.*.*.*.*.*.*.*.*.*.*.*.*.*.*.*.*.*.*.*.*.*.*.*.*.*.*.*.*.*.*.*.*.*.*.*.*.*.*.*.*.",
"*.*.*.*.*.*.*.*.*.*.*.*.*.*.*.*.*.*.*.*.*.*.*.*.*.*.*.*.*.*.*.*.*.*.*.*.*.*.*.*.*.*.",
"*.*.*.*.*.*.*.*.*.*.*.*.*.*.*.*.*.*.*.*.*.*.*.*.*.*.*.*.*.*.*.*.*.*.*.*.*.*.*.*.*.*.",
"*.*.*.*.*.*.*.*.*.*.*.*.*.*.*.*.*.*.*.*.*.*.*.*.*.*.*.*.*.*.*.*.*.*.*.*.*.*.*.*.*.*.",
"*.*.*.*.*.*.*.*.*.*.*.*.*.*.*.*.*.*.*.*.*.*.*.*.*.*.*.*.*.*.*.*.*.*.*.*.*.*.*.*.*.*.",
"*.*.*.*.*.*.*.*.*.*.*.*.*.*.*.*.*.*.*.*.*.*.*.*.*.*.*.*.*.*.*.*.*.*.*.*.*.*.*.*.*.*.",
"*.*.*.*.*.*.*.*.*.*.*.*.*.*.*.*.*.*.*.*.*.*.*.*.*.*.*.*.*.*.*.*.*.*.*.*.*.*.*.*.*.*.",
"*.*.*.*.*.*.*.*.*.*.*.*.*.*.*.*.*.*.*.*.*.*.*.*.*.*.*.*.*.*.*.*.*.*.*.*.*.*.*.*.*.*.",
"*.*.*.*.*.*.*.*.*.*.*.*.*.*.*.*.*.*.*.*.*.*.*.*.*.*.*.*.*.*.*.*.*.*.*.*.*.*.*.*.*.*.",
"*.*.*.*.*.*.*.*.*.*.*.*.*.*.*.*.*.*.*.*.*.*.*.*.*.*.*.*.*.*.*.*.*.*.*.*.*.*.*.*.*.*.",
"*.*.*.*.*.*.*.*.*.*.*.*.*.*.*.*.*.*.*.*.*.*.' ` ' *.*.*.*.*.*.*.*.*.*.*.*.*.*.*.*.*.",
"*.*.*.*.*.*.*.*.*.*.*.*.' *.*.*.*.*.*.*.*.` D s g [ *.*.*.*.*.*.*.*.*.*.*.*.*.*.*.*.",
"*.*.*.*.*.*.*.*.*.*.*.*.A S ^ / / ' X.` [ g d d d J *.*.*.*.*.*.*.*.*.*.*.*.*.*.*.*.",
"*.*.*.*.*.*.*.*.*.*.*.*.d s N ; ; m / K d d d d d K X.*.*.*.*.*.*.*.*.*.*.*.*.*.*.*.",
"*.*.*.*.*.*.*.*.*.*.*.*.d r # # $ # 9 b q e e r t ^ X.X.*.*.*.*.*.*.*.*.*.*.*.*.*.*.",
"*.*.*.*.*.*.*.*.*.*.*.*.d 0 $ V Q & @ * 0 q r d d g ` X.X.*.*.*.*.*.*.*.*.*.*.*.*.*.",
"*.*.*.*.*.*.*.*.*.*.*.*.s w c / X., E - y | @.#. .G g ` X.*.*.*.*.*.*.*.*.*.*.*.*.*.",
"*.*.*.*.*.*.*.*.*.*.*.*.' / / *./ R Y 7 ..o.~ &.&.%.j Z X.*.*.*.*.*.*.*.*.*.*.*.*.*.",
"*.*.*.*.*.*.*.*.*.*.*.*.X.*.*.*.B I l 4 { o . o.&.#.h p X.*.*.*.*.*.*.*.*.*.*.*.*.*.",
"*.*.*.*.*.*.*.*.*.*.*.*.X.*.*.*.B T z 1 * i L } H f d p X.*.*.*.*.*.*.*.*.*.*.*.*.*.",
"*.*.*.*.*.*.*.*.*.*.*.*.X.X.*.*.~ W k 3 u < 6 $. .F e v X.*.*.*.*.*.*.*.*.*.*.*.*.*.",
"*.*.*.*.*.*.*.*.*.*.*.*.( Q / *./ U T 2 +.5 X O.&.$.i ) *.*.*.*.*.*.*.*.*.*.*.*.*.*.",
"*.*.*.*.*.*.*.*.*.*.*.*.= & V / ! @ P O M +.%.&.$._ C ' *.*.*.*.*.*.*.*.*.*.*.*.*.*.",
"*.*.*.*.*.*.*.*.*.*.*.*.e # & m ; $ x % + % > 8 : N / *.*.*.*.*.*.*.*.*.*.*.*.*.*.*.",
"*.*.*.*.*.*.*.*.*.*.*.*.a * $ $ & m / n q = 0 0 r D X.*.*.*.*.*.*.*.*.*.*.*.*.*.*.*.",
"*.*.*.*.*.*.*.*.*.*.*.*.d q Q ^ ^ / X.K A A s d d A X.*.*.*.*.*.*.*.*.*.*.*.*.*.*.*.",
"*.*.*.*.*.*.*.*.*.*.*.*.g g ` *.*.*.*.*.X.X.] d d A X.*.*.*.*.*.*.*.*.*.*.*.*.*.*.*.",
"*.*.*.*.*.*.*.*.*.*.*.*.' ' X.*.*.*.*.*.*.X.' ` ` ` X.*.*.*.*.*.*.*.*.*.*.*.*.*.*.*.",
"*.*.*.*.*.*.*.*.*.*.*.*.*.*.*.*.*.*.*.*.*.*.*.*.*.*.*.*.*.*.*.*.*.*.*.*.*.*.*.*.*.*.",
"*.*.*.*.*.*.*.*.*.*.*.*.*.*.*.*.*.*.*.*.*.*.*.*.*.*.*.*.*.*.*.*.*.*.*.*.*.*.*.*.*.*.",
"*.*.*.*.*.*.*.*.*.*.*.*.*.*.*.*.*.*.*.*.*.*.*.*.*.*.*.*.*.*.*.*.*.*.*.*.*.*.*.*.*.*.",
"*.*.*.*.*.*.*.*.*.*.*.*.*.*.*.*.*.*.*.*.*.*.*.*.*.*.*.*.*.*.*.*.*.*.*.*.*.*.*.*.*.*.",
"*.*.*.*.*.*.*.*.*.*.*.*.*.*.*.*.*.*.*.*.*.*.*.*.*.*.*.*.*.*.*.*.*.*.*.*.*.*.*.*.*.*.",
"*.*.*.*.*.*.*.*.*.*.*.*.*.*.*.*.*.*.*.*.*.*.*.*.*.*.*.*.*.*.*.*.*.*.*.*.*.*.*.*.*.*.",
"*.*.*.*.*.*.*.*.*.*.*.*.*.*.*.*.*.*.*.*.*.*.*.*.*.*.*.*.*.*.*.*.*.*.*.*.*.*.*.*.*.*.",
"*.*.*.*.*.*.*.*.*.*.*.*.*.*.*.*.*.*.*.*.*.*.*.*.*.*.*.*.*.*.*.*.*.*.*.*.*.*.*.*.*.*.",
"*.*.*.*.*.*.*.*.*.*.*.*.*.*.*.*.*.*.*.*.*.*.*.*.*.*.*.*.*.*.*.*.*.*.*.*.*.*.*.*.*.*.",
"*.*.*.*.*.*.*.*.*.*.*.*.*.*.*.*.*.*.*.*.*.*.*.*.*.*.*.*.*.*.*.*.*.*.*.*.*.*.*.*.*.*.",
"*.*.*.*.*.*.*.*.*.*.*.*.*.*.*.*.*.*.*.*.*.*.*.*.*.*.*.*.*.*.*.*.*.*.*.*.*.*.*.*.*.*.",
"*.*.*.*.*.*.*.*.*.*.*.*.*.*.*.*.*.*.*.*.*.*.*.*.*.*.*.*.*.*.*.*.*.*.*.*.*.*.*.*.*.*."
};
