/* XPM */
static char *empty_cell[] = {
"50 50 27 1",
"  c #0c0b0c",
". c #100f10",
"X c #151414",
"o c #282728",
"O c #31302f",
"+ c #3d3c3b",
"@ c #40403f",
"# c #464644",
"$ c #535253",
"% c #5f5e60",
"& c #706f6c",
"* c #777676",
"= c #8e8e89",
"- c #92928d",
"; c #999896",
": c #a6a6a5",
"> c #b3b3ac",
", c #babab3",
"< c #bfbec1",
"1 c #c1c1ba",
"2 c #cbcbc5",
"3 c #d0cfcb",
"4 c #d0d0cc",
"5 c #dedddb",
"6 c #e9e8e9",
"7 c #f0eff1",
"8 c #f7f6f8",
"8888888888888888888888888888888888888888888887<%oo",
"8887777777777777777777777777777777777777777776,$XX",
"8876555555555555555555555555555555555555555554:#X.",
"8864222222222222222222222222222222222222222221-@X ",
"886311111111111111111111111111111111111111111,=+X ",
"886311111111111111111111111111111111111111111,=+X ",
"886311111111111111111111111111111111111111111,=+X ",
"886311111111111111111111111111111111111111111,=+X ",
"886311111111111111111111111111111111111111111,=+X ",
"886311111111111111111111111111111111111111111,=+X ",
"886311111111111111111111111111111111111111111,=+X ",
"886311111111111111111111111111111111111111111,=+X ",
"886311111111111111111111111111111111111111111,=+X ",
"886311111111111111111111111111111111111111111,=+X ",
"886311111111111111111111111111111111111111111,=+X ",
"886311111111111111111111111111111111111111111,=+X ",
"886411111111111111111111111111111111111111111,=+X ",
"886411111111111111111111111111111111111111111,=+X ",
"886411111111111111111111111111111111111111111,=+X ",
"886411111111111111111111111111111111111111111,=+X ",
"886411111111111111111111111111111111111111111,=+X ",
"886411111111111111111111111111111111111111111,=+X ",
"886411111111111111111111111111111111111111111,=+X ",
"886411111111111111111111111111111111111111111,=+X ",
"886411111111111111111111111111111111111111111,=+X ",
"886411111111111111111111111111111111111111111,=+X ",
"886411111111111111111111111111111111111111111,=+X ",
"886411111111111111111111111111111111111111111,=+X ",
"886411111111111111111111111111111111111111111,=+X ",
"886411111111111111111111111111111111111111111,=+X ",
"886411111111111111111111111111111111111111111,=+X ",
"886411111111111111111111111111111111111111111,=+X ",
"886411111111111111111111111111111111111111111,=+X ",
"886411111111111111111111111111111111111111111,=+X ",
"886411111111111111111111111111111111111111111,=+X ",
"886411111111111111111111111111111111111111111,=+X ",
"886411111111111111111111111111111111111111111,=+X ",
"886411111111111111111111111111111111111111111,=+X ",
"886411111111111111111111111111111111111111111,=+X ",
"886521111111111111111111111111111111111111111,=+X ",
"887521111111111111111111111111111111111111111,=+X ",
"887521111111111111111111111111111111111111111,=+X ",
"887521111111111111111111111111111111111111111,=+X ",
"88752111111111111111111111111111111111111111,,=+X ",
"87641,,,,,,,,,,,,,,,,,,,,,,,,,,,,,,,,,,,,,,,,>=+X ",
"53,:;----------------------------------------=&O. ",
";*%$##########################################OX. ",
"%+oXXXXXXXXXXXXXXXXXXXXXXXXXXXXXXXXXXXXXXXXXXXXXXX",
"$OXXXXXXXXXXXXXXXXXXXXXXXXXXXXXXXXXXXXXXXXXXXXXXo+",
"*#oXXXXXXXXXXXXXXXXXXXXXXXXXXXXXXXXXXXXXXXXXXXXo#&"
};
