/* XPM */
static char *green_ball_destroy3[] = {
"42 42 129 2",
"   c #000000",
".  c #0c1449",
"X  c #1c2455",
"o  c #252d5c",
"O  c #313765",
"+  c #024711",
"@  c #075815",
"#  c #115316",
"$  c #175b25",
"%  c #0a6915",
"&  c #0d7918",
"*  c #147a1b",
"=  c #146a24",
"-  c #1a7c26",
";  c #3e441b",
":  c #32671d",
">  c #28732f",
",  c #357741",
"<  c #535b24",
"1  c #45651f",
"2  c #446920",
"3  c #635f24",
"4  c #6c6526",
"5  c #4f6565",
"6  c #5b6f7f",
"7  c #62734e",
"8  c #555c80",
"9  c #6d7292",
"0  c #16861b",
"q  c #18971b",
"w  c #1d9623",
"e  c #1da21c",
"r  c #238328",
"t  c #2a8532",
"y  c #269725",
"u  c #309136",
"i  c #21ab1d",
"p  c #26b51e",
"a  c #27a922",
"s  c #29b721",
"d  c #34b12e",
"f  c #368c41",
"g  c #2ec123",
"h  c #34c726",
"j  c #3dc730",
"k  c #3cd628",
"l  c #43b83e",
"z  c #7ab533",
"x  c #4b9650",
"c  c #539659",
"v  c #4fae4f",
"b  c #55b554",
"n  c #669d69",
"m  c #6a9374",
"M  c #67b369",
"N  c #78a57a",
"B  c #46ca2d",
"V  c #43dc2c",
"C  c #4fd531",
"Z  c #48d934",
"A  c #48e22e",
"S  c #4ce731",
"D  c #51e934",
"F  c #6dc833",
"G  c #55d64a",
"H  c #5ce542",
"J  c #65de4b",
"K  c #6ade57",
"L  c #74dd5e",
"P  c #76d665",
"I  c #7ad678",
"U  c #63e44a",
"Y  c #6ae752",
"T  c #74ed5f",
"R  c #79ec68",
"E  c #b53f2f",
"W  c #8d4c29",
"Q  c #8d6a2c",
"!  c #a7482d",
"~  c #b54531",
"^  c #b25731",
"/  c #ab7334",
"(  c #a26f58",
")  c #d63b34",
"_  c #e43936",
"`  c #c34532",
"'  c #ca5535",
"]  c #d94336",
"[  c #949434",
"{  c #8ea034",
"}  c #a58334",
"|  c #8e9a7d",
" . c #88d377",
".. c #87e87c",
"X. c #8a8ea8",
"o. c #87a887",
"O. c #8ab788",
"+. c #8cb391",
"@. c #95ae93",
"#. c #9ab497",
"$. c #a2b49e",
"%. c #a7b9a4",
"&. c #b3bbad",
"*. c #b7b8c9",
"=. c #96cd88",
"-. c #9cc897",
";. c #90d18b",
":. c #95e88b",
">. c #a5cb9a",
",. c #abc5a4",
"<. c #aec9a8",
"1. c #a6f19e",
"2. c #b0ecab",
"3. c #bed2c3",
"4. c #bfe0c1",
"5. c #c39b94",
"6. c #c1f5b8",
"7. c #c5dac9",
"8. c #ccd8d4",
"9. c #d4d8de",
"0. c #dbdbe5",
"q. c #ceeccf",
"w. c #d9f6d5",
"e. c #dbe1e2",
"r. c #e2f7df",
"t. c #e6ede8",
"y. c #e9f6e9",
"u. c #f9f9fb",
"i. c None",
"i.i.i.i.i.i.i.i.i.i.i.i.i.i.i.i.i.i.i.i.i.i.i.i.i.i.i.i.i.i.i.i.i.i.i.i.i.i.i.i.i.i.",
"i.i.i.i.i.i.i.i.i.i.i.i.i.i.i.i.i.i.i.i.>.D S S D >.i.i.i.i.i.i.i.i.i.i.i.i.i.i.i.i.",
"i.i.i.i.i.i.i.i.i.i.i.i.i.i.i.i.i.i.i.=.S S S S S H <.i.i.i.i.i.i.i.i.i.i.i.i.i.i.i.",
"i.i.i.i.i.i.i.i.i.i.i.i.i.i.i.i.&.i.i.D S S S S S S K i.i.i.i.i.i.i.i.i.i.i.i.i.i.i.",
"i.i.i.i.i.i.i.i.i.i.i.i.O.O.O.O.* @.#.Z S S S S S S  .i.i.i.i.i.i.i.i.i.i.i.i.i.i.i.",
"i.i.i.i.i.i.i.i.i.,.d b p i b v v y 0 a s A A S S D i.i.i.i.i.i.i.i.i.i.i.i.i.i.i.i.",
"i.i.i.i.i.i.i.i.-.j h h g I y.y.q.-.x * & q a S S U i.i.i.i.i.i.i.i.i.i.i.i.i.i.i.i.",
"i.i.i.i.i.i.i.=.k k k k h :.u.u.u.u.4.O.% % 0 d S S =.i.i.i.i.i.i.i.i.i.i.i.i.i.i.i.",
"i.i.i.i.i.i.I k V V V k Z 2.u.u.u.u.u.y.+.% @ 0 d S S >.i.i.i.i.i.i.i.i.i.i.i.i.i.i.",
"i.i.i.i.i.-.h V A S S A k :.u.u.u.u.u.u.u.N @ @ 0 h S D <.i.i.i.i.i.i.i.i.i.i.i.i.i.",
"i.i.i.i.i.=.V S T Y T D A J q.u.u.u.u.u.u.8., @ @ q j S J i.i.i.i.i.i.i.i.i.i.i.i.i.",
"i.i.i.i.,.k S ..y.y.r.1.R G 2.u.0.5 9 *.u.t.c @ + % B S D ,.i.i.i.i.i.i.i.i.i.i.i.i.",
"i.i.i.i.,.Z D q.u.u.u.u.w.:.K u.u.O . X 9.u.<.@ + @ y J ,.i.i.i.i.i.i.i.i.i.i.i.i.i.",
"i.i.i.i.i.D U w.u.u.u.u.u.u.I I 9.o . . X.u.7., + + > i.i.i.i.i.i.i.i.i.i.i.i.i.i.i.",
"i.i.i.i.-.A D 6.u.u.u.u.u.u.u.K I +.. o X.u.3.$ + + $ i.i.i.i.i.i.i.i.i.i.i.i.i.i.i.",
"i.i.i.i.=.A D :.y.u.u.u.9 8 8 w.l b M 8.e.t.,.$ + + 7 N %.#.#.i.i.i.i.i.i.i.i.i.i.i.",
"i.i.i.i.=.V S R w.u.u.u.9 . . 6 ;.a w v c M y < ; E W 1 * * & r x i.i.i.i.i.i.i.i.i.",
"i.i.i.i. .V A S :.u.u.u.X.. . O -.d q 0 & - ^ ] _ _ ! * & & & & & n i.i.i.i.i.i.i.i.",
"i.i.=.<.G k V A S 1.u.u.u.9 O o q.v 0 * 1 ` ' ' ~ ) W * & & & & & & N i.i.,.-.%.i.i.",
"i.P S D S k k k V V 2.y.u.u.u.0.q.q 0 2 ! ] { B ^ ) : n o.o.n x & & & o.o.f G G  .i.",
"K S S S S k k k k k k :.q.u.u.u.4.u 4 ! ` } D / ) W | i.i.i.i.i.r & & * 0 B D D D >.",
"S S S S S V k h h h g j G ;.;.>.l Q ] ] [ C / ] ] 5.i.i.i.i.i.#.& & & 0 Z D D D D i.",
"S S S S S S V k g s s s i i q a Q ] } z F / ' E 7 i.i.i.i.i.i.@.& & & w Z D D D D i.",
"S S S S S S S V g p i i e q q q ^ ] z z ] ] ! # m i.i.i.i.i.i.$.* & * j D D D D i.i.",
"U S S S D S S S k g i q q q 0 4 _ ` / ) ) W @ o.i.i.i.i.i.i.i.o.& & a Z D D D i.i.i.",
",.J K S S S S S S A g i q 0 * W _ _ ` ! ( > #.i.i.i.i.i.i.i.i.n & 0 j D D i.i.i.i.i.",
"i.i.i.P P P H H S S A M b n 0 ! 3 3 = | i.i.i.i.i.i.i.i.i.i.i.&.t s S D i.i.i.i.i.i.",
"i.i.i.i.i.i.i.>.D S  .i.i.n & * & - @.i.i.i.i.i.i.i.i.i.i.i.i.i.#.d S i.i.i.i.i.i.i.",
"i.i.i.i.i.i.i.i.-.=.i.i.#.& & & - %.i.i.i.i.i.i.i.i.i.i.i.i.i.i.i.-.i.i.i.i.i.i.i.i.",
"i.i.i.i.i.i.i.i.i.i.i.i.@.& & & & #.i.i.i.i.i.i.i.i.i.i.i.i.i.i.i.i.i.i.i.i.i.i.i.i.",
"i.i.i.i.i.i.i.i.i.i.i.i.i.t & & - %.i.i.i.i.i.i.i.i.i.i.i.i.i.i.i.i.i.i.i.i.i.i.i.i.",
"i.i.i.i.i.i.i.i.i.i.i.i.i.c & & & u i.%.&.m N @.i.i.i.i.i.i.i.i.i.i.i.i.i.i.i.i.i.i.",
"i.i.i.i.i.i.i.i.i.i.i.i.i.n & & & & t - t & & r %.i.i.i.i.i.i.i.i.i.i.i.i.i.i.i.i.i.",
"i.i.i.i.i.i.i.i.i.i.i.i.i.i.c & & & & & & & & y b i.i.i.i.i.i.i.i.i.i.i.i.i.i.i.i.i.",
"i.i.i.i.i.i.i.i.i.i.i.i.i.i.i.f & & & & 0 0 h V S L i.i.i.i.i.i.i.i.i.i.i.i.i.i.i.i.",
"i.i.i.i.i.i.i.i.i.i.i.i.i.i.i.&.N c a a B V D D D S i.i.i.i.i.i.i.i.i.i.i.i.i.i.i.i.",
"i.i.i.i.i.i.i.i.i.i.i.i.i.i.i.i.i.i.H D S D D D D i.i.i.i.i.i.i.i.i.i.i.i.i.i.i.i.i.",
"i.i.i.i.i.i.i.i.i.i.i.i.i.i.i.i.i.L D G D D D i.i.i.i.i.i.i.i.i.i.i.i.i.i.i.i.i.i.i.",
"i.i.i.i.i.i.i.i.i.i.i.i.i.i.i.i.i.U D D D D i.i.i.i.i.i.i.i.i.i.i.i.i.i.i.i.i.i.i.i.",
"i.i.i.i.i.i.i.i.i.i.i.i.i.i.i.i.<.D D D D i.i.i.i.i.i.i.i.i.i.i.i.i.i.i.i.i.i.i.i.i.",
"i.i.i.i.i.i.i.i.i.i.i.i.i.i.i.i.i.=. .H i.i.i.i.i.i.i.i.i.i.i.i.i.i.i.i.i.i.i.i.i.i.",
"i.i.i.i.i.i.i.i.i.i.i.i.i.i.i.i.i.i.i.i.i.i.i.i.i.i.i.i.i.i.i.i.i.i.i.i.i.i.i.i.i.i."
};
