/* XPM */
static char *green_ball_jump12[] = {
"42 42 126 2",
"   c #000000",
".  c #0c1449",
"X  c #1e2557",
"o  c #272e5d",
"O  c #273c58",
"+  c #2f3c61",
"@  c #014911",
"#  c #065913",
"$  c #135622",
"%  c #0f6617",
"&  c #0d7918",
"*  c #137a1a",
"=  c #126a24",
"-  c #1a7e25",
";  c #304f1b",
":  c #30501c",
">  c #2f711c",
",  c #2b7632",
"<  c #466a20",
"1  c #5a6325",
"2  c #775827",
"3  c #6e6134",
"4  c #487c47",
"5  c #575d82",
"6  c #656f8a",
"7  c #15871b",
"8  c #18971b",
"9  c #1e8e26",
"0  c #1da31c",
"q  c #2e8c2d",
"w  c #249527",
"e  c #21ab1d",
"r  c #26b51e",
"t  c #2aa923",
"y  c #2bbe22",
"u  c #33b728",
"i  c #33b134",
"p  c #3c9043",
"a  c #37ca27",
"s  c #32c929",
"d  c #3cd728",
"f  c #748d2f",
"g  c #448f4a",
"h  c #4c974f",
"j  c #5a8a59",
"k  c #599a60",
"l  c #4eaf4f",
"z  c #55a761",
"x  c #669b6a",
"c  c #6d9271",
"v  c #64b45e",
"b  c #69b365",
"n  c #74a275",
"m  c #73b477",
"M  c #42dc2b",
"N  c #48dd33",
"B  c #55dd3d",
"V  c #47e22e",
"C  c #4de831",
"Z  c #51ea33",
"A  c #66cf33",
"S  c #54d349",
"D  c #5de548",
"F  c #6adc59",
"G  c #6cc769",
"H  c #6ed568",
"J  c #7ac673",
"K  c #77d764",
"L  c #62e24a",
"P  c #6cea57",
"I  c #74e966",
"U  c #7ce173",
"Y  c #7d819e",
"T  c #7aa981",
"R  c #b73f2f",
"E  c #884b28",
"W  c #96452a",
"Q  c #93572b",
"!  c #906a2f",
"~  c #a8492d",
"^  c #be4531",
"/  c #b35331",
"(  c #b46b34",
")  c #b3776a",
"_  c #c43f32",
"`  c #d73c35",
"'  c #e33a36",
"]  c #cc4634",
"[  c #c85735",
"{  c #d84536",
"}  c #9e8c34",
"|  c #959733",
" . c #84a732",
".. c #a78334",
"X. c #82af7e",
"o. c #85cc77",
"O. c #87d473",
"+. c #8bef7a",
"@. c #8b8ea9",
"#. c #8faa8f",
"$. c #89b989",
"%. c #99b295",
"&. c #9ea4b5",
"*. c #abb19e",
"=. c #b1b3c5",
"-. c #90d68e",
";. c #98ce8a",
":. c #95d185",
">. c #94f183",
",. c #a7c99c",
"<. c #aacda7",
"1. c #add6b0",
"2. c #a3ef99",
"3. c #a5e2a4",
"4. c #b5ecb0",
"5. c #cbd7d3",
"6. c #dbdbe4",
"7. c #caebcb",
"8. c #d4edd2",
"9. c #d6f1d5",
"0. c #e0f5df",
"q. c #e7e6ed",
"w. c #e9f5e9",
"e. c #eff3f1",
"r. c #f9f9fb",
"t. c None",
"t.t.t.t.t.t.t.t.t.t.t.t.t.t.t.t.t.t.t.t.t.t.t.t.t.t.t.t.t.t.t.t.t.t.t.t.t.t.t.t.t.t.",
"t.t.t.t.t.t.t.t.t.t.t.t.t.t.t.t.t.t.t.t.t.t.t.t.t.t.t.t.t.t.t.t.t.t.t.t.t.t.t.t.t.t.",
"t.t.t.t.t.t.t.t.t.t.t.t.t.t.t.t.:.Z C C C L t.t.t.t.t.t.t.t.t.t.t.t.t.t.t.t.t.t.t.t.",
"t.t.t.t.t.t.t.t.t.t.t.t.t.t.t.t.K C C C C C K t.t.t.t.t.t.t.t.t.t.t.t.t.t.t.t.t.t.t.",
"t.t.t.t.t.t.t.t.t.t.t.t.t.t.t.:.Z C C C C C C ;.t.t.t.t.t.t.t.t.t.t.t.t.t.t.t.t.t.t.",
"t.t.t.t.t.t.t.t.t.t.t.t.t.t.t.K C C C C C C Z t.t.t.t.t.t.t.t.t.t.t.t.t.t.t.t.t.t.t.",
"t.t.t.t.t.t.t.t.t.t.t.t.t.t.t.Z C C C C C C V H ;.t.t.t.t.t.t.t.t.t.t.t.t.t.t.t.t.t.",
"t.t.t.t.t.t.t.t.t.t.t.t.t.t.t.D C C C C M d d d d B B N F J o.t.t.t.t.t.t.t.t.t.t.t.",
"t.t.t.t.t.t.t.t.t.t.t.t.t.t.t.Z C C V d d d d M V C Z C C V M J J t.t.t.t.t.t.t.t.t.",
"t.t.t.t.t.t.t.t.t.t.t.t.t.,.L C C M d a a d M V C P I 2.>.+.C V a o.t.t.t.t.t.t.t.t.",
"t.t.t.t.t.t.t.t.t.t.t.t.t.Z C C M a r s a d V C 2.9.w.r.r.w.+.C M d ,.t.t.t.t.t.t.t.",
"t.t.t.t.t.t.t.t.t.t.t.t.t.;.C C s r r s a d P 9.r.r.r.r.r.r.7.Z V d S t.t.t.t.t.t.t.",
"t.t.t.t.t.t.t.t.t.t.t.t.t.t.K y e e r y s U e.r.r.r.r.r.r.r.2.Z V d d G t.t.t.t.t.t.",
"t.t.t.t.t.t.t.t.t.t.t.t.t.t.t.t 8 0 e y H 8.r.r.r.r.r.r.r.r.+.C V d a r $.t.t.t.t.t.",
"t.t.t.t.t.t.t.t.%.x n & g n $.8 8 8 e u 3.r.r.5.@.=.r.r.e.4.D V d d s u t.t.t.t.t.t.",
"t.t.t.t.t.t.t.n & & & & & & h 7 7 8 0 G w.r.&.. . o 6.r.0.I N M S a a r v t.t.t.t.t.",
"t.t.t.t.t.t.h & & & & & & & < > > 8 8 J r.r.5 . . . q.9.F F U 4.7.4.-.r b t.t.t.t.t.",
"t.:.t.<.t.#.& & & & & & & & 2 ] / 8 q :.e.q.. o + t.3.a 3.9.w.r.r.r.e.G b t.t.t.t.t.",
"O.Z Z L t.z & & & * n n x * > ` ' ] / t 1.7.5.<.3.G S 7.r.r.r.r.r.r.r.b X.t.t.t.t.t.",
"O.Z Z Z Z t & & q *.t.t.t.k 1 ` / [ { Q w 8 l i i l 4.6 @.@.r.r.r.r.9.l * t.t.t.t.t.",
"Z Z Z S Z t & & * t.t.t.t.t.4 ~ ( A | { 1 7 7 8 0 z O . . Y r.r.r.r.$.q %.t.t.t.t.t.",
"t.Z Z Z C a 7 & g t.t.t.t.t.*._ `  . .{ ~ > * 7 l r.X . . @.r.r.e.1.p 7 t.t.t.t.t.t.",
"t.t.Z Z Z a * & = #.t.t.t.t.t.3 ` { A } ^ W > & m &.5 . &.r.r.r.w.k * t S Z <.t.t.t.",
"t.t.t.Z Z C t & - t.t.t.t.t.t., E { ..Z ( { E 9 $.e.r.q.r.r.e.5.p % * a C C F t.t.t.",
"t.t.t.Z Z C a 7 q t.t.t.t.t.t.%.# R [ } A | { f m 5.r.e.5.*.T % % & t C C C C O.t.t.",
"t.t.t.t.Z Z M b t.t.t.t.t.t.t.t.c : ` {  .f { ] $ 4 j x = , # # & w a C C C C C ;.t.",
"t.t.t.t.t.Z ;.t.t.t.t.t.t.t.t.t.t.c ) ` ` ! ` W @ @ @ @ @ @ @ * t M C C C C C C Z t.",
"t.t.t.t.t.t.t.t.t.t.t.t.t.t.t.t.t.t.t.) W ` ' ` ; @ @ @ @ # 7 u C C C C C C C L ,.t.",
"t.t.t.t.t.t.t.t.t.t.t.t.t.t.t.t.t.t.t.t., 2 Q ^ $ $ $ # 7 w a C C F C Z C C K t.t.t.",
"t.t.t.t.t.t.t.t.t.t.t.t.t.t.t.t.t.t.t.t.%.& * 1 j t.t.l V N C C :.t.t.,.C :.t.t.t.t.",
"t.t.t.t.t.t.t.t.t.t.t.t.t.t.t.t.t.t.t.t.t.- & & x t.t.,.C C L ,.t.t.t.t.t.t.t.t.t.t.",
"t.t.t.t.t.t.t.t.t.t.t.t.t.t.t.t.t.t.t.t.& - & & n t.t.t.o.O.t.t.t.t.t.t.t.t.t.t.t.t.",
"t.t.t.t.t.t.t.t.t.t.t.t.t.t.t.t.t.t.t.t.& & & & #.t.t.t.t.t.t.t.t.t.t.t.t.t.t.t.t.t.",
"t.t.t.t.t.t.t.t.t.t.t.t.t.t.t.t.t.t.t.t.& & & 9 t.t.t.t.t.t.t.t.t.t.t.t.t.t.t.t.t.t.",
"t.t.t.t.t.t.t.t.t.t.t.t.t.t.t.t.t.t.t.- & & & & t.t.t.t.t.t.t.t.t.t.t.t.t.t.t.t.t.t.",
"t.t.t.t.t.t.t.t.t.t.t.t.t.t.t.t.t.t.& & & & & & t.t.t.t.t.t.t.t.t.t.t.t.t.t.t.t.t.t.",
"t.t.t.t.t.t.t.t.t.t.t.t.t.t.t.t.t.& & & & & & t.t.t.t.t.t.t.t.t.t.t.t.t.t.t.t.t.t.t.",
"t.t.t.t.t.t.t.t.t.t.t.t.t.t.t.Z Z Z & & & & t.t.t.t.t.t.t.t.t.t.t.t.t.t.t.t.t.t.t.t.",
"t.t.t.t.t.t.t.t.t.t.t.t.t.t.Z Z Z Z Z Z & t.t.t.t.t.t.t.t.t.t.t.t.t.t.t.t.t.t.t.t.t.",
"t.t.t.t.t.t.t.t.t.t.t.t.t.t.t.Z Z Z Z Z Z Z Z t.t.t.t.t.t.t.t.t.t.t.t.t.t.t.t.t.t.t.",
"t.t.t.t.t.t.t.t.t.t.t.t.t.t.t.Z Z Z Z Z Z Z Z Z t.t.t.t.t.t.t.t.t.t.t.t.t.t.t.t.t.t.",
"t.t.t.t.t.t.t.t.t.t.t.t.t.t.t.t.Z Z Z Z Z Z Z Z t.t.t.t.t.t.t.t.t.t.t.t.t.t.t.t.t.t."
};
