/* XPM */
static char *green_ball_jump10[] = {
"42 42 128 2",
"   c #000000",
".  c #0c1449",
"X  c #11194d",
"o  c #192352",
"O  c #323866",
"+  c #014911",
"@  c #075a14",
"#  c #185d25",
"$  c #096514",
"%  c #0d7918",
"&  c #116f19",
"*  c #147a1a",
"=  c #176722",
"-  c #187d23",
";  c #2f5e1c",
":  c #28731a",
">  c #2e6b32",
",  c #2d4a58",
"<  c #317e45",
"1  c #554b20",
"2  c #536722",
"3  c #577026",
"4  c #6d5a26",
"5  c #6f7928",
"6  c #4b5378",
"7  c #5c7a4a",
"8  c #555a80",
"9  c #6d7192",
"0  c #148919",
"q  c #19961b",
"w  c #1b8324",
"e  c #1fa71d",
"r  c #1ba020",
"t  c #228529",
"y  c #2b8533",
"u  c #229920",
"i  c #35893b",
"p  c #20a81d",
"a  c #26b51e",
"s  c #29a825",
"d  c #28b720",
"f  c #33b827",
"g  c #38b334",
"h  c #3b8a45",
"j  c #35c52c",
"k  c #34ca25",
"l  c #3bd628",
"z  c #43b339",
"x  c #7c9830",
"c  c #7eb433",
"v  c #449c47",
"b  c #4f9254",
"n  c #598660",
"m  c #4ab449",
"M  c #58ac54",
"N  c #5fa267",
"B  c #6a9a6c",
"V  c #709a72",
"C  c #73a977",
"Z  c #77be77",
"A  c #42c236",
"S  c #43dd2c",
"D  c #47da34",
"F  c #55d939",
"G  c #48e32e",
"H  c #4ce831",
"J  c #51e933",
"K  c #65d133",
"L  c #5ac958",
"P  c #52d447",
"I  c #57e342",
"U  c #68d954",
"Y  c #73db5e",
"T  c #71c66d",
"R  c #7ad967",
"E  c #63e24b",
"W  c #6ae954",
"Q  c #76ea65",
"!  c #79e372",
"~  c #7f839f",
"^  c #894e28",
"/  c #84712e",
"(  c #ab482d",
")  c #b04c2f",
"_  c #b84331",
"`  c #b37235",
"'  c #cb3c32",
"]  c #d83c35",
"[  c #e23a36",
"{  c #cb4534",
"}  c #ca5735",
"|  c #d84235",
" . c #c16335",
".. c #ce625c",
"X. c #998a34",
"o. c #83aa33",
"O. c #a68334",
"+. c #8f8a6c",
"@. c #80af7d",
"#. c #89cb7b",
"$. c #81d76f",
"%. c #86d475",
"&. c #89ef76",
"*. c #9094ac",
"=. c #87ba89",
"-. c #96ae94",
";. c #93b191",
":. c #a0b49d",
">. c #a1a3b9",
",. c #acaec1",
"<. c #b8bbcb",
"1. c #91cf8a",
"2. c #9dcb93",
"3. c #92e987",
"4. c #a5c999",
"5. c #acc8a8",
"6. c #b3cab0",
"7. c #b3eead",
"8. c #c7f6bf",
"9. c #c8dacd",
"0. c #cdded1",
"q. c #c9ebc9",
"w. c #d6ebd8",
"e. c #d1f4cd",
"r. c #e2f7df",
"t. c #e8efec",
"y. c #f9f9fb",
"u. c None",
"u.u.u.u.u.u.u.u.u.u.u.u.u.u.u.u.J J W u.u.u.u.u.u.u.u.u.u.u.u.u.u.u.u.u.u.u.u.u.u.u.",
"u.u.u.u.u.u.u.u.u.u.u.u.u.u.u.J J J E u.u.u.u.u.u.u.u.u.u.u.u.u.u.u.u.u.u.u.u.u.u.u.",
"u.u.u.u.u.u.u.u.u.u.u.u.u.u.J J I J R u.u.u.u.u.u.u.u.u.u.u.u.u.u.u.u.u.u.u.u.u.u.u.",
"u.u.u.u.u.u.u.u.u.u.u.u.u.J J J J J #.u.u.u.u.u.u.u.u.u.u.u.u.u.u.u.u.u.u.u.u.u.u.u.",
"u.u.u.u.u.u.u.u.u.u.u.u.J J J H D s s i % B u.u.u.u.u.u.u.u.u.u.u.u.u.u.u.u.u.u.u.u.",
"u.u.u.u.u.u.u.u.u.u.u.u.J J J f u % % % % % h u.u.u.u.u.u.u.u.u.u.u.u.u.u.u.u.u.u.u.",
"u.u.u.u.u.u.u.u.u.u.u.H J D f % % % % % % % % * u.u.u.u.u.u.u.u.u.u.u.u.u.u.u.u.u.u.",
"u.u.u.u.u.u.u.u.u.u.u.2.F s % % % t y w % % % - -.u.u.u.u.u.u.u.u.u.u.u.u.u.u.u.u.u.",
"u.u.u.u.u.u.u.u.u.u.u.u.u.b % - < u.u.u.b % % % % :.u.u.u.5.u.u.u.u.u.u.u.u.u.u.u.u.",
"u.u.u.u.u.u.u.u.u.u.u.u.u.u.=.u.u.u.u.u.u.- % % * -.u.u.R J 1.u.4.#.$.%.5.u.u.u.u.u.",
"u.u.u.u.u.u.u.u.u.u.u.u.u.u.u.u.u.u.u.u.u.i % % % ;.u.2.H H H I H H J H J H J u.u.u.",
"u.u.u.u.u.u.u.u.u.u.u.u.u.u.u.u.u.u.u.u.:.% % * i ;.Z j S H H H H H J H H H J 4.u.u.",
"u.u.u.u.u.u.u.u.u.u.u.u.u.u.u.u.u.u.u.u.h : 4 ^ 0 q q p d k S G H H J H H H H Y u.u.",
"u.u.u.u.u.u.u.u.u.u.u.u.u.u.u.u.u.u.u.+.4 { [ ( : 0 q q p a k l S H H H H H H H 4.u.",
"u.u.u.u.u.u.u.u.u.u.u.u.u.u.u.u.u.V +._ ] { [ ^ 0 q q e a a d k l S H H H H H $.u.u.",
"u.u.u.u.u.u.u.u.u.u.u.u.u.u.u.u.-.@ _ ] X.X.[ 3 q q p d d k k k k l l H H H E u.u.u.",
"u.u.u.u.u.u.u.u.u.u.u.u.u.u.u.u.> ^ ] ` J ` | 5 g g L P P k l l l l l G J J 4.u.u.u.",
"u.u.u.u.u.u.u.u.u.u.u.u.u.u.u.n 1 |  .K X.` ) g q.w.t.e.7.3.l S S S l l 2.u.u.u.u.u.",
"u.u.u.u.u.u.u.u.u.u.u.u.u.u.u.7 ' } c o.{ ] : 1.y.y.y.y.y.t.q.W H G S D 4.u.u.u.u.u.",
"u.u.u.u.u.u.u.u.u.u.u.u.u.u.u...] ` K { ( 2 0 Z t.>.9 ,.y.y.y.y.&.H G S 4.u.u.u.u.u.",
"J J % % u.u.u.u.u.u.u.u.u.u.+.' { F O.| 4 * 0 Z 0.O . . 9 y.y.y.r.3.J G $.u.u.u.u.u.",
"J J % % % % u.u.u.u.u.u.u.-.; ' / x ` { : * q s 1.o . . 8 y.y.y.y.8.W H U u.u.u.u.u.",
"J J % % % % % % i u.:.u.C i 4 ] _ | [ 3 & w q r L 6.6 O 6 t.y.y.y.y.7.J U u.u.u.u.u.",
"J J J % % i % % % - * * % * 2 [ [ ( / m N =.Z m m L w.t.y.y.y.y.y.y.7.H F u.u.u.u.u.",
"J J J J % % % % % % % % % % ^ _ ^ + = w.t.*.*., 5.1.j 7.y.y.y.y.y.y.e.J S 2.u.u.u.u.",
"J J J J J u.u.% % % % % % t 7 > + + > 9.y.>.. . o <.e.U ! 7.e.y.r.r.&.G U u.u.u.u.u.",
"J J J J J u.u.u.u.b B C -.u.u.> + + # 6.y.,.. . X <.y.w.Q J W Q Q W H S A u.u.u.u.u.",
"J J J J J u.u.u.u.u.u.u.u.u.u.B + + + C y.y.<.O 9 ~ y.t.7.P S H H H G l T u.u.u.u.u.",
"u.J J u.u.u.u.u.u.u.u.u.u.u.u.z @ + + = ;.t.y.y.y.y.y.y.y.3.l S S S S P u.u.u.u.u.u.",
"u.u.u.u.u.u.u.u.u.u.u.u.u.u.R H f $ + @ b 0.y.y.y.y.y.y.y.q.F l l l l 4.u.u.u.u.u.u.",
"u.u.u.u.u.u.u.u.u.u.u.u.u.4.J H j u & @ @ h 0.y.y.y.y.y.y.e.L k k k #.u.u.u.u.u.u.u.",
"u.u.u.u.u.u.u.u.u.u.u.u.u.u.1.J H S s * $ $ $ =.9.w.y.y.t.t.g a g M u.u.u.u.u.u.u.u.",
"u.u.u.u.u.u.u.u.u.u.u.u.u.u.u.5.U H H f u * $ % i v =.2.T m f m u.u.u.u.u.u.u.u.u.u.",
"u.u.u.u.u.u.u.u.u.u.u.u.u.u.u.u.u.%.H H S s s q q 0 h t M =.u.u.u.u.u.u.u.u.u.u.u.u.",
"u.u.u.u.u.u.u.u.u.u.u.u.u.u.u.u.u.u.E H H H H S l Z u.@.u.u.u.u.u.u.u.u.u.u.u.u.u.u.",
"u.u.u.u.u.u.u.u.u.u.u.u.u.u.u.u.u.u.R H H H H H H %.u.u.u.u.u.u.u.u.u.u.u.u.u.u.u.u.",
"u.u.u.u.u.u.u.u.u.u.u.u.u.u.u.u.u.5.J H H H H H H 2.u.u.u.u.u.u.u.u.u.u.u.u.u.u.u.u.",
"u.u.u.u.u.u.u.u.u.u.u.u.u.u.u.u.u.5.E H H H H H R u.u.u.u.u.u.u.u.u.u.u.u.u.u.u.u.u.",
"u.u.u.u.u.u.u.u.u.u.u.u.u.u.u.u.u.u.u.$.H H H E u.u.u.u.u.u.u.u.u.u.u.u.u.u.u.u.u.u.",
"u.u.u.u.u.u.u.u.u.u.u.u.u.u.u.u.u.u.u.u.2.I H 4.u.u.u.u.u.u.u.u.u.u.u.u.u.u.u.u.u.u.",
"u.u.u.u.u.u.u.u.u.u.u.u.u.u.u.u.u.u.u.u.u.u.u.u.u.u.u.u.u.u.u.u.u.u.u.u.u.u.u.u.u.u.",
"u.u.u.u.u.u.u.u.u.u.u.u.u.u.u.u.u.u.u.u.u.u.u.u.u.u.u.u.u.u.u.u.u.u.u.u.u.u.u.u.u.u."
};
