/* XPM */
static char *green_ball_jump6[] = {
"42 42 126 2",
"   c #000000",
".  c #0c1449",
"X  c #252d5c",
"o  c #014811",
"O  c #055713",
"+  c #105e16",
"@  c #155c23",
"#  c #0b6815",
"$  c #0d7918",
"%  c #126c1d",
"&  c #147a1b",
"*  c #186225",
"=  c #187c23",
"-  c #374c1b",
";  c #2e721c",
":  c #29723b",
">  c #387244",
",  c #504c1f",
"<  c #5e5d2a",
"1  c #4a6c2b",
"2  c #566322",
"3  c #6e5325",
"4  c #68722a",
"5  c #747031",
"6  c #50577c",
"7  c #637c52",
"8  c #575c82",
"9  c #6d7192",
"0  c #168a1a",
"q  c #1a981b",
"w  c #1da21c",
"e  c #208e1f",
"r  c #21822a",
"t  c #269624",
"y  c #308937",
"u  c #21ab1c",
"i  c #27b61e",
"p  c #29a824",
"a  c #2fa036",
"s  c #2aba23",
"d  c #32b927",
"f  c #3d8b45",
"g  c #2dc121",
"h  c #35c926",
"j  c #3cd528",
"k  c #43b53d",
"l  c #73bc33",
"z  c #418c4a",
"x  c #47924b",
"c  c #549658",
"v  c #5d9665",
"b  c #4aab4a",
"n  c #55ba55",
"m  c #63815c",
"M  c #679669",
"N  c #708f71",
"B  c #6fb06f",
"V  c #43c93b",
"C  c #42db2b",
"Z  c #47db37",
"A  c #5ad631",
"S  c #48e22e",
"D  c #4ce831",
"F  c #51ea33",
"G  c #66cf33",
"H  c #58d34b",
"J  c #5de643",
"K  c #6adf53",
"L  c #6bde56",
"P  c #64c266",
"I  c #72cd6d",
"U  c #79d568",
"Y  c #62e14b",
"T  c #6bea58",
"R  c #77e86a",
"E  c #758f8f",
"W  c #8a4f2a",
"Q  c #a6452d",
"!  c #ac5a32",
"~  c #bb4530",
"^  c #b26d34",
"/  c #c63d31",
"(  c #d83c34",
")  c #e23a36",
"_  c #ca4333",
"`  c #c95635",
"'  c #d84236",
"]  c #998d34",
"[  c #82ae33",
"{  c #a48634",
"}  c #88cb77",
"|  c #81d66f",
" . c #87d577",
".. c #86f072",
"X. c #898ea6",
"o. c #86aa86",
"O. c #8bb287",
"+. c #95ac93",
"@. c #95b496",
"#. c #b39d8e",
"$. c #a3a9ba",
"%. c #b5b6c8",
"&. c #87d586",
"*. c #90ca8d",
"=. c #97cd8a",
"-. c #94ea8b",
";. c #a6c99b",
":. c #abc7a5",
">. c #aecfb3",
",. c #b2c6a8",
"<. c #a4ef98",
"1. c #b4eeaf",
"2. c #bfd8c2",
"3. c #c38f88",
"4. c #c4f4bd",
"5. c #c8d4d0",
"6. c #dedee7",
"7. c #caebca",
"8. c #d3efd2",
"9. c #d8f4d6",
"0. c #e1f7de",
"q. c #e7eceb",
"w. c #eaf4eb",
"e. c #f0f4f1",
"r. c #f9f9fb",
"t. c None",
"t.t.t.t.t.t.t.t.t.t.t.t.t.t.t.t.t.t.t.t.t.F F F F F F F F t.t.t.t.t.t.t.t.t.t.t.t.t.",
"t.t.t.t.t.t.t.t.t.t.t.t.t.t.t.t.t.t.t.t.F F F F F F F F F F t.t.t.t.t.t.t.t.t.t.t.t.",
"t.t.t.t.t.t.t.t.t.t.t.t.t.t.t.t.t.t.t.t.t.F F F F F F F F F F t.t.t.t.t.t.t.t.t.t.t.",
"t.t.t.t.t.t.t.t.t.t.t.t.t.t.t.t.t.t.t.t.t.t.t.F F F F F F F F t.t.t.t.t.t.t.t.t.t.t.",
"t.t.t.t.t.t.t.t.t.t.t.t.t.t.t.t.t.t.t.t.t.t.t.$ $ y $ t h t.t.t.t.t.t.t.t.t.t.t.t.t.",
"t.t.t.t.t.t.t.t.t.t.t.t.t.t.t.t.t.t.t.t.t.t.t.$ $ $ $ $ t.t.t.t.t.t.t.t.t.t.t.t.t.t.",
"t.t.t.t.t.t.t.t.t.t.t.t.t.t.t.t.t.t.t.t.t.O.y $ $ $ $ t.t.t.t.t.t.t.t.t.t.t.t.t.t.t.",
"t.t.t.t.t.t.t.t.t.t.t.t.t.t.t.t.t.t.t.t.t.$ $ $ $ $ t.t.t.t.t.t.t.t.t.t.t.t.t.t.t.t.",
"t.t.t.t.t.t.t.t.t.t.t.t.t.t.t.t.t.t.t.t.o.& $ $ $ t.t.t.t.t.t.t.t.t.t.t.t.t.t.t.t.t.",
"t.t.t.t.t.t.t.t.t.t.t.t.t.t.t.} ,.t.t.t.B $ $ $ $ t.t.t.t.t.t.t.t.t.t.t.t.t.t.t.t.t.",
"t.t.t.t.t.t.t.t.;.t.t.t.t.;.Y F L t.t.t.x $ $ r t.t.t.t.t.t.t.t.t.t.t.t.t.t.t.t.t.t.",
"t.t.t.t.t.t.;.Y F ,.,.t.| D D D D } t.t.= & $ x t.t.t.t.t.t.t.t.t.t.t.t.t.t.t.t.t.t.",
"t.t.t.t.t.| D D D F J Y D D d p t % > N 5 W ; = t.t.t.t.t.t.t.t.t.t.t.t.t.t.t.t.t.t.",
"t.t.t.;.Y D D D D D D D C p & O O o o o W ) ~ 3 7 t.t.t.t.t.t.t.t.t.t.t.t.t.t.t.t.t.",
"t.t.t.;.D D D D D D D d e # O o o o o o , ) _ ) Q 3.t.t.t.t.t.t.t.t.t.t.t.t.t.t.t.t.",
"t.t.t.t. .D D D D C p 0 + O O * * > @ o - ( ! 5 ( ' m +.t.t.t.t.t.t.t.t.t.t.t.t.t.t.",
"t.t.t.t.t.Y D D D j & # # f o.@.q.5.:.M 4 ' ^ A ^ ' W : t.t.t.t.t.t.t.t.t.*.F D t.t.",
"t.t.t.t.t.;.D D C q $ % @.w.q.r.r.r.r.5.k ! ^ ] G ` ' , M t.t.t.t.t.t.t.x d D F t.t.",
"t.t.t.t.t.t. .U d 0 f 2.r.r.r.e.9 $.%.>.r ; ( ' [ [ ` / + +.t.t.t.t.t.y $ p S F F t.",
"t.t.t.t.t.t.t.t.x y *.w.r.r.5.X . . X.*.r & 2 Q ` A ^ ( W o.t.t.t.t.t.: $ $ C F F F ",
"t.t.t.t.t.t.t.o.t B r.r.r.r.%.. . . E a 0 0 & 3 _ { G ( / #.t.t.t.t.t.z $ $ p F F F ",
"t.t.t.t.t.t.t.z b 7.r.r.r.r.9 8 X E P p w q 0 ; ( { l ] ~ 1 t.t.t.t.t.c $ $ d D F F ",
"t.t.t.t.t.t.t.@.n w.r.r.r.r.r.r.q.&.s P P *.P b 4 ' ` ! ( < v t.t.t.t.f $ $ 0 D H F ",
"t.t.t.t.t.t.t.B P r.r.r.r.e.w.7.H I 7.E X.$.e.9.k ! _ ) ( 1 & +.@.t.c $ $ $ p Y F F ",
"t.t.t.t.t.t.t.b i &.1.7.1.-.R Z 1.q.6 . . 6 e.w.&.t 0 ~ _ 3 $ & $ = $ $ $ & o.t.L J ",
"t.t.t.t.t.t.t.B i h j H Z Z R 8.r.r.X . . 9 r.w.n q 0 ; ; 2 $ $ $ $ $ $ $ $ +.t.t.t.",
"t.t.t.t.t.t.t.O.s h j C S T 1.e.r.%.6 . E r.r.8.n w q 0 0 y $ $ $ $ $ $ y @.t.t.t.t.",
"t.t.t.t.t.t.t.B s j j S D <.r.r.r.r.r.6.r.r.9.I d w q q q t.z r $ x $ M t.t.t.t.t.t.",
"t.t.t.t.t.t.t.t.H j C D F 9.r.r.r.r.r.r.r.w.<.V s u w q b t.t.t.@.t.t.t.t.t.t.t.t.t.",
"t.t.t.t.t.t.t.t.;.j C D R 0.r.r.r.r.r.r.r.-.j h s u u s h ;.t.t.t.t.t.t.t.t.t.t.t.t.",
"t.t.t.t.t.t.t.t.t.} j S D 9.e.r.r.e.w.4.T C j h s i i j D K t.t.t.t.t.t.t.t.t.t.t.t.",
"t.t.t.t.t.t.t.t.t.t.H j S T <.7.1.<...D S C j h g g j D D D &.t.t.t.t.t.t.t.t.t.t.t.",
"t.t.t.t.t.t.t.t.t.t.;.I Z S D J F F D S C j j h j j S D D U t.t.t.t.t.t.t.t.t.t.t.t.",
"t.t.t.t.t.t.t.t.t.t.t.t.=.U Z F D S C C j j j j S D D D  .t.t.t.t.t.t.t.t.t.t.t.t.t.",
"t.t.t.t.t.t.t.t.t.t.t.t.t.t.t.:.:.} H H j C C D D D D D =.t.t.t.t.t.t.t.t.t.t.t.t.t.",
"t.t.t.t.t.t.t.t.t.t.t.t.t.t.t.t.t.t.t.,.F D D D D F D F ;.t.t.t.t.t.t.t.t.t.t.t.t.t.",
"t.t.t.t.t.t.t.t.t.t.t.t.t.t.t.t.t.t.t.:.F D D D D F D Y t.t.t.t.t.t.t.t.t.t.t.t.t.t.",
"t.t.t.t.t.t.t.t.t.t.t.t.t.t.t.t.t.t.t.t.J D D D D D D  .t.t.t.t.t.t.t.t.t.t.t.t.t.t.",
"t.t.t.t.t.t.t.t.t.t.t.t.t.t.t.t.t.t.t.t.=.D D D D D L t.t.t.t.t.t.t.t.t.t.t.t.t.t.t.",
"t.t.t.t.t.t.t.t.t.t.t.t.t.t.t.t.t.t.t.t.t.U D D F D t.t.t.t.t.t.t.t.t.t.t.t.t.t.t.t.",
"t.t.t.t.t.t.t.t.t.t.t.t.t.t.t.t.t.t.t.t.t.t.t.t.t.t.t.t.t.t.t.t.t.t.t.t.t.t.t.t.t.t.",
"t.t.t.t.t.t.t.t.t.t.t.t.t.t.t.t.t.t.t.t.t.t.t.t.t.t.t.t.t.t.t.t.t.t.t.t.t.t.t.t.t.t."
};
