/* XPM */
static char *green_ball_jump9[] = {
"42 42 128 2",
"   c #000000",
".  c #0c1449",
"X  c #141b4f",
"o  c #161d50",
"O  c #1e2657",
"+  c #2c3660",
"@  c #343b67",
"#  c #014911",
"$  c #075414",
"%  c #086314",
"&  c #0d7818",
"*  c #13791a",
"=  c #196028",
"-  c #187a23",
";  c #3c411a",
":  c #22721c",
">  c #386a1d",
",  c #336f2f",
"<  c #394369",
"1  c #48511f",
"2  c #466c1f",
"3  c #526821",
"4  c #6c5824",
"5  c #706926",
"6  c #7d7b2e",
"7  c #434973",
"8  c #4c7d45",
"9  c #15891b",
"0  c #19971b",
"q  c #1e8623",
"w  c #1a9c20",
"e  c #1da41b",
"r  c #27871d",
"t  c #23852b",
"y  c #298432",
"u  c #269b26",
"i  c #328d2b",
"p  c #22ac1d",
"a  c #27b81e",
"s  c #28a723",
"d  c #29b921",
"f  c #34b829",
"g  c #37b037",
"h  c #3d8d43",
"j  c #2ec423",
"k  c #36c926",
"l  c #3cd628",
"z  c #688829",
"x  c #6bac2f",
"c  c #47924d",
"v  c #549659",
"b  c #5a9167",
"n  c #52b352",
"m  c #6b8052",
"M  c #659969",
"N  c #6f9676",
"B  c #6cb86c",
"V  c #77a478",
"C  c #42da2c",
"Z  c #49df31",
"A  c #5fce32",
"S  c #59dd35",
"D  c #47e22d",
"F  c #4ce831",
"G  c #51e934",
"H  c #62d533",
"J  c #4cda42",
"K  c #52ca4b",
"L  c #56d546",
"P  c #5be643",
"I  c #61d04f",
"U  c #6bdc53",
"Y  c #73dc5e",
"T  c #74d369",
"R  c #65e34c",
"E  c #70ed59",
"W  c #7be670",
"Q  c #688b82",
"!  c #be3f31",
"~  c #924c2a",
"^  c #a6482d",
"/  c #ba4531",
"(  c #ac7934",
")  c #b66934",
"_  c #b96e5f",
"`  c #bb756a",
"'  c #ca3e32",
"]  c #d83c35",
"[  c #e53936",
"{  c #ca4a34",
"}  c #d64735",
"|  c #989234",
" . c #86a833",
".. c #869f7e",
"X. c #82b87d",
"o. c #a2816f",
"O. c #85d076",
"+. c #88d578",
"@. c #88ec7a",
"#. c #9295af",
"$. c #89aa88",
"%. c #8cb193",
"&. c #93b48e",
"*. c #98b597",
"=. c #9cbca1",
"-. c #a5afaf",
";. c #b4b7c7",
":. c #92cc8e",
">. c #93d184",
",. c #96f186",
"<. c #a5ca9a",
"1. c #acc8a2",
"2. c #a2d8a3",
"3. c #b2cbb0",
"4. c #bae6ba",
"5. c #b5f1ad",
"6. c #bfc4ce",
"7. c #c1f3ba",
"8. c #c8d6d1",
"9. c #d3d6de",
"0. c #d8d9e3",
"q. c #c6ecc5",
"w. c #cdf6c8",
"e. c #d7e9d9",
"r. c #e4e7ea",
"t. c #e7f7e7",
"y. c #faf9fb",
"u. c None",
"u.u.u.u.u.u.u.u.u.u.u.u.u.u.u.u.u.u.u.u.u.u.u.G P Y u.u.u.u.u.u.u.u.u.u.u.u.u.u.u.u.",
"u.u.u.u.u.u.u.u.u.u.u.u.u.u.u.u.u.u.u.u.u.G G G G P 3.u.u.u.u.u.u.u.u.u.u.u.u.u.u.u.",
"u.u.u.u.u.u.u.u.u.u.u.u.u.u.u.u.u.u.u.u.G G G P G R u.u.u.u.u.u.u.u.u.u.u.u.u.u.u.u.",
"u.u.u.u.u.u.u.u.u.u.u.u.u.u.u.u.u.u.u.G G G G G R 1.u.u.u.u.u.u.u.u.u.u.u.u.u.u.u.u.",
"u.u.u.u.u.u.u.u.u.u.u.u.u.u.u.u.u.G G G G C Z k I u.u.u.u.u.u.u.u.u.u.u.u.u.u.u.u.u.",
"u.u.u.u.u.u.u.u.u.u.u.u.u.u.u.u.u.P C C s 9 9 & 9 h c u.u.u.u.u.u.u.u.u.u.u.u.u.u.u.",
"u.u.u.u.u.u.u.u.u.u.u.u.u.u.u.u.u.&.u * & & & & & & & V u.u.u.u.u.u.u.u.u.u.u.u.u.u.",
"u.u.u.u.u.u.u.u.u.u.u.u.u.u.u.u.u.u.v & & & - & & & & * =.u.u.u.u.u.u.u.u.u.u.u.u.u.",
"u.u.u.u.u.u.u.u.u.u.u.u.u.u.u.u.u.u.u.V b $.&.$.* & & & h u.u.u.u.u.u.u.u.u.u.u.u.u.",
"u.u.u.u.u.u.u.u.u.u.u.u.u.u.u.u.u.u.u.u.u.u.u.u.V & & & c u.u.u.u.u.u.u.u.u.u.u.u.u.",
"u.u.u.u.u.u.u.u.:.u.u.u.u.u.u.u.u.u.u.u.u.u.u.u.u.t & & y u.u.u.u.u.u.u.u.u.u.u.u.u.",
"u.u.u.u.u.u.u.Z u u.u.u.u.u.u.u.u.u.u.u.u.u.u.u.&.& & & - *.u.u.u.u.u.u.u.u.u.u.u.u.",
"u.u.u.u.u.u.G Z 9 c u.u.u.u.u.u.u.u.u.u.u.u.u.u.c & & & * u.u.u.1.u.u.u.u.u.u.u.u.u.",
"u.u.u.G G G C 0 & - u.u.u.u.u.u.u.u.u.u.u.u...- : * : t *.u.u.+.G >.u.u.u.u.u.u.u.u.",
"u.u.G G G F f 9 & y u.u.u.u.u.u.u.u.u.M 8 _ 4 / ^ / 3 u n X.I F G G 1.1.u.u.u.u.u.u.",
"G G G G G f & & & M u.u.u.u.u.u.u.&., 1 ' ] ] { [ ] 2 9 0 e d Z F F G G G T >.u.u.u.",
"R G G G G u & & & V u.u.u.u.u.u.N $ ~ ] ] ( A ) [ 5 9 9 0 0 p d C F G G F F G +.u.u.",
"G G G G s & & & & $.u.u.u.u.u.u.o.! } )  .S  .} } i 0 0 e e p a k C F G G G G G G u.",
"+.K S i v c & & - u.u.u.u.u.u.` ] ] ( H  .} { } z g 0 s p d d d d l D F F G G G G U ",
"u.=.:.*.u.u.q & & v N u.u.$., ^ ] | S ( { / ~ r >.e.4.2.K j j j j k l F F G G G F 1.",
"u.u.u.u.u.u.$.& & & & & y * ~ ] 6 x | ] ^ 3 9 n e.y.y.y.4.+.k l l k l C F G G G G U ",
"u.u.u.u.u.u.u.v & & & & & : ^ ] { } } ^ > * 9 B 9.-.9.y.y.t.W l l l l l F G G G P <.",
"u.u.u.u.u.u.u.u.t y * & * ~ ' ] ^ } 6 & * 9 0 n r.o . #.y.y.t.P D C l l F G G T u.u.",
"u.u.u.u.u.u.u.u.u.u.u.V v m 1 ; # , B v c 9 w n Q . . . 9.y.y.7.G D C l O.<.:.u.u.u.",
"u.u.u.u.u.u.u.u.u.u.u.u.u.V # # $ M y.r.3.:.g g q.< . + r.y.y.t.@.G D C u.u.u.u.u.u.",
"u.u.u.u.u.u.u.u.u.u.u.u.u.M # # $ %.y.9.O 7 N T T 6.#.7 r.y.y.y.5.P D U u.u.u.u.u.u.",
"u.u.u.u.u.u.u.u.u.u.u.u.O.q $ # = 3.y.;.. . + e.K 4.y.y.y.y.y.y.w.R F T u.u.u.u.u.u.",
"u.u.u.u.u.u.u.u.u.u.u.U F k $ # $ %.y.0.X . . ;.q.J t.y.y.y.y.y.t.E F O.u.u.u.u.u.u.",
"u.u.u.u.u.u.u.u.u.u.u.G G k * # $ b r.y.#.@ o r.y.@.W w.y.y.y.y.w.G D <.u.u.u.u.u.u.",
"u.u.u.u.u.u.u.u.u.u.u.>.F Z u % $ h e.y.y.y.9.y.y.5.J W 5.t.y.y.5.G L u.u.u.u.u.u.u.",
"u.u.u.u.u.u.u.u.u.u.u.u.Y F k 9 $ % *.y.y.y.y.y.y.q.J D G @.,.,.G D L u.u.u.u.u.u.u.",
"u.u.u.u.u.u.u.u.u.u.u.u.u.G F f * $ - e.y.y.y.y.y.y.Y C D F G F D L u.u.u.u.u.u.u.u.",
"u.u.u.u.u.u.u.u.u.u.u.u.u.>.F F s * % v 8.y.y.y.y.t.T l C D D C l K u.u.u.u.u.u.u.u.",
"u.u.u.u.u.u.u.u.u.u.u.u.u.Y G F l u * & v :.y.y.y.w.K k l l l l O.u.u.u.u.u.u.u.u.u.",
"u.u.u.u.u.u.u.u.u.u.u.u.u.U G G F Z k s * q B 2.4.:.d j k k I <.u.u.u.u.u.u.u.u.u.u.",
"u.u.u.u.u.u.u.u.u.u.u.u.R G G G G G F C B &.9 u n f p n e B u.u.u.u.u.u.u.u.u.u.u.u.",
"u.u.u.u.u.u.u.u.u.u.u.u.<.G G G G G G G u.u.$.u.u.u.&.u.u.u.u.u.u.u.u.u.u.u.u.u.u.u.",
"u.u.u.u.u.u.u.u.u.u.u.u.u.O.G G G G G +.u.u.u.u.u.u.u.u.u.u.u.u.u.u.u.u.u.u.u.u.u.u.",
"u.u.u.u.u.u.u.u.u.u.u.u.u.u.R G G U <.u.u.u.u.u.u.u.u.u.u.u.u.u.u.u.u.u.u.u.u.u.u.u.",
"u.u.u.u.u.u.u.u.u.u.u.u.u.u.<.G +.u.u.u.u.u.u.u.u.u.u.u.u.u.u.u.u.u.u.u.u.u.u.u.u.u.",
"u.u.u.u.u.u.u.u.u.u.u.u.u.u.u.u.u.u.u.u.u.u.u.u.u.u.u.u.u.u.u.u.u.u.u.u.u.u.u.u.u.u.",
"u.u.u.u.u.u.u.u.u.u.u.u.u.u.u.u.u.u.u.u.u.u.u.u.u.u.u.u.u.u.u.u.u.u.u.u.u.u.u.u.u.u."
};
