/* XPM */
static char *green_ball_jump13[] = {
"42 42 128 2",
"   c #000000",
".  c #0c1449",
"X  c #11194d",
"o  c #171e51",
"O  c #192053",
"+  c #034912",
"@  c #075614",
"#  c #165a25",
"$  c #086413",
"%  c #0d7818",
"&  c #136c18",
"*  c #137a1a",
"=  c #146e24",
"-  c #177b23",
";  c #2d721c",
":  c #356f32",
">  c #364267",
",  c #397741",
"<  c #54431f",
"1  c #535221",
"2  c #4b6d21",
"3  c #735b26",
"4  c #454b74",
"5  c #5b7c4d",
"6  c #585d82",
"7  c #6d7292",
"8  c #14871a",
"9  c #1a961c",
"0  c #1d9822",
"q  c #1da31c",
"w  c #22991e",
"e  c #25882b",
"r  c #2a8634",
"t  c #239822",
"y  c #35893c",
"u  c #22ad1d",
"i  c #27b61e",
"p  c #2fae2e",
"a  c #2ab922",
"s  c #32b528",
"d  c #3b8543",
"f  c #2dc221",
"g  c #36c927",
"h  c #3bd527",
"j  c #54812b",
"k  c #42ba39",
"l  c #75bd33",
"z  c #418d47",
"x  c #488f50",
"c  c #569859",
"v  c #4ba949",
"b  c #59bf59",
"n  c #6a8558",
"m  c #709973",
"M  c #6ca674",
"N  c #6bb86b",
"B  c #7ba47b",
"V  c #7cb978",
"C  c #42db2b",
"Z  c #49db35",
"A  c #50c135",
"S  c #5ada36",
"D  c #48e32e",
"F  c #4ce732",
"G  c #51ea33",
"H  c #68c933",
"J  c #55d847",
"K  c #58d74f",
"L  c #5de344",
"P  c #60c25e",
"I  c #6add54",
"U  c #72db5e",
"Y  c #71d06c",
"T  c #78ca6d",
"R  c #7ad668",
"E  c #63e14c",
"W  c #6be753",
"Q  c #71ed5b",
"!  c #7ae66e",
"~  c #789d82",
"^  c #79b683",
"/  c #7ec283",
"(  c #b83d2f",
")  c #984a2c",
"_  c #816128",
"`  c #93642d",
"'  c #a8462e",
"]  c #b35431",
"[  c #af6733",
"{  c #c83d32",
"}  c #d93c35",
"|  c #e23936",
" . c #d14c35",
".. c #c26235",
"X. c #959434",
"o. c #88a733",
"O. c #a48634",
"+. c #88d377",
"@. c #91d27e",
"#. c #88ec7d",
"$. c #8e95a9",
"%. c #85aa86",
"&. c #8ab68c",
"*. c #93af91",
"=. c #9bb597",
"-. c #af9285",
";. c #a1b49d",
":. c #a1a3b9",
">. c #b4b7c7",
",. c #8bcf8c",
"<. c #9ace8a",
"1. c #9ccb92",
"2. c #93d184",
"3. c #9fd5a1",
"4. c #98e990",
"5. c #a5c999",
"6. c #a6c7a7",
"7. c #b3d6b4",
"8. c #b6f4aa",
"9. c #c6d1d0",
"0. c #c8ebc8",
"q. c #d5e5d7",
"w. c #d7f5d4",
"e. c #e9eaee",
"r. c #ebf6ec",
"t. c #eff4f1",
"y. c #f9f9fb",
"u. c None",
"u.u.u.u.u.u.u.u.u.u.u.u.u.u.u.u.u.u.u.u.u.u.u.u.u.u.u.u.u.u.u.u.u.u.u.u.u.u.u.u.u.u.",
"u.u.u.u.u.u.u.u.u.u.u.u.u.u.u.u.u.u.u.u.u.u.u.u.u.u.u.u.u.u.u.u.u.u.u.u.u.u.u.u.u.u.",
"u.u.u.u.u.u.u.u.u.u.u.u.u.u.u.u.u.u.u.u.u.u.u.u.u.u.u.u.u.u.u.u.u.u.u.u.u.u.u.u.u.u.",
"u.u.u.u.u.u.u.u.u.u.u.u.u.u.u.u.u.u.u.u.u.u.u.u.u.u.u.u.u.u.u.u.u.u.u.u.u.u.u.u.u.u.",
"u.u.u.u.u.u.u.u.u.u.u.u.u.u.u.u.u.u.u.u.u.u.u.u.u.u.u.u.u.u.u.u.u.u.u.u.u.u.u.u.u.u.",
"u.u.u.u.u.u.u.u.5.u.u.u.u.u.u.u.u.u.u.u.+.1.A T 5.u.u.u.u.u.u.u.u.u.u.u.u.u.u.u.u.u.",
"u.u.u.u.u.u.u.6.F G R 5.u.u.u.u.u.5.R S C C C C h J T 5.u.u.u.u.u.u.u.u.u.u.u.u.u.u.",
"u.u.u.u.u.u.@.I F F F F U u.u.u.R D D F Q G F D C h g i N u.u.u.u.u.u.u.u.u.u.u.u.u.",
"u.u.u.u.u.u.L F F F F F G R T Z D G W 8.w.y.4.G D C h g k V u.u.u.u.u.u.u.u.u.u.u.u.",
"u.u.u.u.u.5.F F F F F F F h C D F Q 8.t.y.y.0.W F C h g i u u.u.u.u.u.u.u.u.u.u.u.u.",
"u.u.u.u.u.u.U F F F F D C h C D G 8.t.y.y.y.r.#.F h Z K ,.P v u.u.u.u.u.u.u.u.u.u.u.",
"u.u.u.u.u.u.E F G F F D h h C D ! r.y.y.y.y.y.#.F C 4.w.r.0.v c ;.u.u.u.u.u.u.u.u.u.",
"u.u.u.u.u.u.+.F F F F C g h C D 8.y.y.y.y.y.r.4.Z ! y.y.y.y.1.e =.u.u.u.u.u.u.u.u.u.",
"u.u.u.u.u.u.5.L F F D h g h h C r.y.y.y.t.y.r.#.! 0.y.y.y.y.0.e =.u.R 5.u.u.u.u.u.u.",
"u.u.u.u.u.u.u.R F F C g f g h U t.y.e.:.o y.y.J 0.t.y.y.y.y.6.r w Z F F G R 5.u.u.u.",
"u.u.u.u.u.u.u.u.G F C a i f g 2.r.y.$.. X $.0.K y.t.t.y.y.y.7.r w C F F F F F R u.u.",
"u.u.u.u.u.u.u.<.F F h i u a a ! t.y.4 . . $.! 4.>.7 7 y.y.y.7.% 8 D F F F F F 1.u.u.",
"u.u.u.u.u.u.u.U F F g u q u a Y y.t.7 . . 7.s 7.> . o 9.y.y.&.$ * g F F F F G u.u.u.",
"u.u.u.u.u.u.u.u.2.I a q 9 9 q b q.y.9.7 u.P p M . . . t.y.t.d $ 8 g F F F F R u.u.u.",
"u.u.u.u.u.u.u.u.u.u.=.9 9 9 9 9 3.t.r.0.N p 0 ^ 4 O 6 y.e.6.$ @ t D F F F F 1.u.u.u.",
"u.u.u.u.u.u.u.u.u.u.u.v 8 8 8 w s T / 9 9 9 8 ,.$.>.e.y.6.d @ & p F G L 2.U u.u.u.u.",
"u.u.u.u.u.u.u.u.B r r e ; 3 _ `  .` 2 8 8 * * x q.y.y.q.: @ + * g F +.u.u.u.u.u.u.u.",
"u.u.u.u.u.u.u.*.% % % * ) } | }  ... .' 3 2 & e ,.q.&.x + + @ w D F 6.u.u.u.u.u.u.u.",
"u.u.u.u.u.u.c e % % % % * _ } [ H l .. .] } { ` j = # + + + * s F I u.u.u.u.u.u.u.u.",
"u.u.u.u.u.u.- % % % % y - : ) } [ o.S H X.[ O. . .+ + + + @ s F F @.u.u.u.u.u.u.u.u.",
"u.u.u.u.u.%.% % % - B u.u.%.n ' } } ..O.o.S A [ } ( < + # m I F G u.u.u.u.u.u.u.u.u.",
"u.u.u.u.u.x % % % c u.u.u.u.u.u.1 ) |  . .} [ ] } | ) n u.u.u.u.<.u.u.u.u.u.u.u.u.u.",
"u.u.u.u.u.e % % % *.u.u.u.u.u.u.m , @ 1 ) } { ' } 3 3 ; =.u.u.u.u.u.u.u.u.u.u.u.u.u.",
"u.u.u.u.u.*.% % % z u.u.u.u.u.u.u.u.u.m B u.-.5 % * % % x u.u.u.u.u.u.u.u.u.u.u.u.u.",
"u.u.u.@.1.R w % % e B u.u.u.u.u.u.u.u.u.u.u.u.u.u.z % % e *.u.u.u.u.u.u.u.u.u.u.u.u.",
"u.u.L G G G g 9 % % = ~ u.u.u.u.u.u.u.u.u.u.u.u.u.B - % % c u.u.u.u.u.u.u.u.u.u.u.u.",
"u.<.F G G J F h 8 % % * u.u.u.u.u.u.u.u.u.u.u.u.u.u.r % % % u.u.u.u.u.u.u.u.u.u.u.u.",
"u.u.W G G G G G Z s 8 y u.u.u.u.u.u.u.u.u.u.u.u.u.u.M % % z u.u.u.u.u.u.u.u.u.u.u.u.",
"u.u.u.G G G G G G Z g V u.u.u.u.u.u.u.u.u.u.u.u.u.%.y % % B u.u.u.u.u.u.u.u.u.u.u.u.",
"u.u.u.u.u.u.G G G G G u.u.u.u.u.u.u.u.u.u.u.u.*.d % % % % u.u.u.u.u.u.u.u.u.u.u.u.u.",
"u.u.u.u.u.u.u.u.u.G W u.u.u.u.u.u.u.u.u.u.B z * % % % % z u.u.u.u.u.u.u.u.u.u.u.u.u.",
"u.u.u.u.u.u.u.u.u.u.u.u.u.u.u.u.u.u.u.u.u.* % % % % % % c u.u.u.u.u.u.u.u.u.u.u.u.u.",
"u.u.u.u.u.u.u.u.u.u.u.u.u.u.u.u.u.u.u.u.%.9 9 9 t 0 t s 9 r V u.u.u.u.u.u.u.u.u.u.u.",
"u.u.u.u.u.u.u.u.u.u.u.u.u.u.u.u.u.u.u.u.P C F Z Z G F G G Z K u.u.u.u.u.u.u.u.u.u.u.",
"u.u.u.u.u.u.u.u.u.u.u.u.u.u.u.u.u.u.u.u.u.G G G G G G G G G J &.u.u.u.u.u.u.u.u.u.u.",
"u.u.u.u.u.u.u.u.u.u.u.u.u.u.u.u.u.u.u.u.u.u.u.u.G G G G G G G 5.u.u.u.u.u.u.u.u.u.u.",
"u.u.u.u.u.u.u.u.u.u.u.u.u.u.u.u.u.u.u.u.u.u.u.u.u.u.u.G G L +.u.u.u.u.u.u.u.u.u.u.u."
};
