/* XPM */
static char *green_ball_jump11[] = {
"42 42 81 1",
"  c #000000",
". c #0c1449",
"X c #004811",
"o c #045613",
"O c #0a6915",
"+ c #0d7818",
"@ c #13621f",
"# c #107d17",
"$ c #0f7323",
"% c #126935",
"& c #215b1b",
"* c #3e501e",
"= c #226e1a",
"- c #25731a",
"; c #396b1e",
": c #227c37",
"> c #44621e",
", c #138a19",
"< c #19981b",
"1 c #1f8d23",
"2 c #1da31c",
"3 c #1ba120",
"4 c #21901f",
"5 c #218726",
"6 c #229722",
"7 c #21ab1c",
"8 c #26b41d",
"9 c #28ae22",
"0 c #28b921",
"q c #35b728",
"w c #2dc322",
"e c #36cb27",
"r c #3bd628",
"t c #3eda32",
"y c #52bb55",
"u c #5eb376",
"i c #629a6a",
"p c #67af6c",
"a c #48cf3e",
"s c #41dd2b",
"d c #46dc35",
"f c #5fdd32",
"g c #47e22e",
"h c #4de832",
"j c #50ea32",
"k c #5acb55",
"l c #5ad453",
"z c #5dc961",
"x c #6ec372",
"c c #75ec66",
"v c #7cf166",
"b c #a9492d",
"n c #ab4b31",
"m c #b05434",
"M c #bd6835",
"N c #c63d31",
"B c #db3a35",
"V c #e43936",
"C c #cf5136",
"Z c #d54735",
"A c #949833",
"S c #80aa88",
"D c #82b389",
"F c #89b190",
"G c #8bce8c",
"H c #8dc393",
"J c #90ca93",
"K c #92dc8f",
"L c #9ee499",
"P c #a7dea8",
"I c #b9dabc",
"U c #ace6a8",
"Y c #b9f4af",
"T c #bee3c1",
"R c #c2eac2",
"E c #cdf6c6",
"W c #ddf3dd",
"Q c #e1f7de",
"! c #ecf3ee",
"~ c #faf9fc",
"^ c None",
"^^^^^^^^^^^^^^^^^^^^^^^^^^^^^^^^^^^^^^^^^^",
"^^^^^^^^^^^^^^^^^^^^^^^^^^^^^^^^^^^^^^^^^^",
"^^^^^^^^^^^^^^^^^^^^^^^jjj^^^^^^^^^^^^^^^^",
"^^^^^^^^^^^^^^^^^^^^^jjjjhjj^^^^^^^^^^^^^^",
"^^^^^^^^^^^^^^^^^^^^hhjjjjjj^^^^^^^^^^^^^^",
"^hj^^^^^^^^^^^^^^^^jhjjjjjjj^^^^^^^^^^^^^^",
"jjjj^^^^^^^^^^^^jjjjjjjhjjjj^^^^^^^^^^^^^^",
"jjjj^^+++++^^^^^jjhhhhhhhjjh^^^^^^^^^^^^^^",
"jjljg++++++++^^^hhgrrrrsrhh^^^^^^^^^^^^^^^",
"jjjj++++++++++^^00880weerrr^^^^^^^^^^^^^^^",
"jjje++++++++++^2<<78werrrrsr^^^^^^^^^^^^^^",
"jjj,+++^^^++++,,<<70wersggggs^^^^^^^^^^^^^",
"jjj+++^^^^^++n-,<<70wrtgjjjjhg^^^^^^^^^^^^",
"jje++%^^^^^$;VN,<29kUW~~~QYvjhs^^^^^^^^^^^",
"jj9++^^^^^^$BVV<<2T~~~~~~~~~Ejhr^^^^^^^^^^",
"^^^^^^^^^^^>VmVC9I~~~~~~~~~~~Ejs^^^^^^^^^^",
"^^^^^^^^^^^NBhCV9~~~...~~~~~~~jg0^^^^^^^^^",
"^^^^^^^^^^OBBjAV,I~.....~~~~~Ejgr^^^^^^^^^",
"^^^^^^^^^^oBZjZB,<T~...~~~~~Ejhgr^^^^^^^^^",
"^^^^^^^^^^oVMjZb,,<yPW~~~WYchhgsr^^^^^^^^^",
"^^^^^^^^^^oVMjZb-,<390wertsdggsre^^^^^^^^^",
"^^^^^^^^^^oBZjZB=#,6xT!~!Rcdrrrew^^^^^^^^^",
"^^^^^^^^^^^BBjAVO+H~...~~~~~Leew2^^^^^^^^^",
"^^^^^^^^^^^NBqCVqD~.....~~~~~K08^^^^^^^^^^",
"^^^^^^^^^^^*VnVZ5~~~...~~~~~~~87^^^^^^^^^^",
"a<++^^^^^^^+BVVXoS~~~~~~~~~~~G<^^^^^^^^^^^",
"jh+++^^^^^^+;VNXXoF~~~~~~~~~J<^^^^^^^^^^^^",
"jj<+++^^^^+++n&XXXo@iI!~!Ip1,#^^^^^^^^^^^^",
"jjq++++^^+++++^XXXXXooOOO++#^^^^^^^^^^^^^^",
"jjd++++++++++^^^OooXoooOO#9e^^^^^^^^^^^^^^",
"jjj6++++++++^^^^hg6<<4644ghjj^^^^^^^^^^^^^",
"jjjj+++++++^^^^^jjhhhhhhhjjjj^^^^^^^^^^^^^",
"jjjj+^^^^^^^^^^^fjjjjjjjjjjjj^^^^^^^^^^^^^",
"jjjj:^^^^^^^^^^^^^^^^^jjjjjjj^^^^^^^^^^^^^",
"hjjjz^^^^^^^^^^^^^^^^^^jjjjjj^^^^^^^^^^^^^",
"^jju^^^^^^^^^^^^^^^^^^^jjjjjj^^^^^^^^^^^^^",
"^^^^^^^^^^^^^^^^^^^^^^^^^^^^^^^^^^^^^^^^^^",
"^^^^^^^^^^^^^^^^^^^^^^^^^^^^^^^^^^^^^^^^^^",
"^^^^^^^^^^^^^^^^^^^^^^^^^^^^^^^^^^^^^^^^^^",
"^^^^^^^^^^^^^^^^^^^^^^^^^^^^^^^^^^^^^^^^^^",
"^^^^^^^^^^^^^^^^^^^^^^^^^^^^^^^^^^^^^^^^^^",
"^^^^^^^^^^^^^^^^^^^^^^^^^^^^^^^^^^^^^^^^^^"
};
