/* XPM */
static char *green_ball_jump8[] = {
"42 42 78 1",
"  c #000000",
". c #0c1449",
"X c #004811",
"o c #045613",
"O c #0a6915",
"+ c #0d7918",
"@ c #13621f",
"# c #107d17",
"$ c #0f7323",
"% c #126935",
"& c #215b1b",
"* c #3e501e",
"= c #226e1a",
"- c #25731a",
"; c #396b1e",
": c #44621e",
"> c #138a19",
", c #19991b",
"< c #1f8d23",
"1 c #1da31c",
"2 c #1ba120",
"3 c #21901f",
"4 c #218726",
"5 c #219721",
"6 c #21ab1c",
"7 c #26b41d",
"8 c #28ae22",
"9 c #28b921",
"0 c #36b629",
"q c #2dc322",
"w c #36cb27",
"e c #3bd628",
"r c #3eda32",
"t c #52bb55",
"y c #629a6a",
"u c #67af6c",
"i c #41dd2b",
"p c #42db34",
"a c #5fdd32",
"s c #47e22e",
"d c #4ce832",
"f c #50ea32",
"g c #5acb55",
"h c #5ad453",
"j c #6ec372",
"k c #75ec66",
"l c #7cf166",
"z c #a9492d",
"x c #ab4b31",
"c c #b05434",
"v c #bd6835",
"b c #c63d31",
"n c #db3a35",
"m c #e43936",
"M c #cf5136",
"N c #d54735",
"B c #949833",
"V c #80e179",
"C c #80aa88",
"Z c #82b389",
"A c #89b190",
"S c #8bce8c",
"D c #8dc393",
"F c #90ca93",
"G c #92dc8f",
"H c #9ee499",
"J c #a7dea8",
"K c #b9dabc",
"L c #ace6a8",
"P c #b9f4af",
"I c #bee3c1",
"U c #c2eac2",
"Y c #cdf6c6",
"T c #ddf3dd",
"R c #e1f7de",
"E c #ecf3ee",
"W c #faf9fc",
"Q c None",
"QQQQQQQQQQQQQQQQQQQQQQQQQQQfffffffffQQQQQQ",
"QQQQQQQQQQQQQQQQQQQQQQQQQQQfffffffffdQQQQQ",
"QQQQQffffffQQQQQQQQQQQQQQQQ8wffffhfffQQQQQ",
"QQQQfffffffQQQQQQQQQQQQQQQQ+++>wffffQQQQQQ",
"QQQffffff++QQQQQQQQQQQQQQQQ++++++sQQQQQQQQ",
"QQQffffff+++QQQQQQQQQQQQQQQQ%+++++QQQQQQQQ",
"QQfffffff++++QQQQQQQQQQQQQQQQQ+++++QQQQQQQ",
"QQffffff+++++QQQQQQQQQQQQQQQQQQ++++QQQQQQQ",
"QQQQfffQQ++++QQQQQQQQQQQQQQQQQQ++++QQQQQQQ",
"QQQQQQQQQQ++++QQQQQQQQQQQQQQQQQ++++QQQQQQQ",
"QQQQQQQQQQ+++++QQQQQooooOQQQQQ+++++QQQQQQQ",
"QQQQQQQQQQQ++++++*bnnmmnnb:$$+++++QQQQQQQQ",
"QQQQQQQQQQQQ+++;nmnnNvvNnnmn;+++++QQQQQQQQ",
"QQQQQQQQQQQQQ+xmmx0ffffffdcmmx+++QQQQQQQQQ",
"QQQQQQQQQQQQQQ&bmmMBNNNNBMmmb->QQQQQQQQQQQ",
"QQQQQQQQQQQQQXXXXNmmnzznmmM>>>>1QQQQQQQQQQ",
"QQQQQQQQQafdOXXXo40O=->>>88,,,,,9dffQQQQQQ",
"QQQQQQQQQffsoXXoCWZ+#>>,KWK11,,,9dffQQQQQQ",
"QQQQQQQQQfd5oXoAWWWD>,,IWWWU86667idfQQQQQQ",
"QQQQQQQQQfd5XX@WWW.W52tW.WWWg9977edffQQQQQ",
"QQQQQQQQQfd5ooyWW...j8J...WWLqqq9edfddQQQQ",
"QQQQQQQQQfd3ooKWW...I9T...WWTewwqedffdfQQQ",
"QQQQQQQQffd5oOEWW...EqW...WWWieewedffffQQQ",
"QQQQQQffffd3OOWWWW.WWwWW.WWWWsieweddffffQQ",
"QQQQQQffffd5OOEWWWWWEeWWWWWWWfieeedfffffQQ",
"QQQQQQfffffs#+KWWWWWUrTWWWWWRfseedffffdfQQ",
"QQQQQQfffffd8+uWWWWWVpPWWWWWPfsiedfffffQQQ",
"QQQQQQffffffw#<WWWWWpskWWWWWlfieQQdffffQQQ",
"QQQQQQffffffQQ>FWWWHeidYWWWYfdiQQQQQQQQQQQ",
"QQQQQQQQQQQQQQ#,SWGweidfYWYfdiQQQQQQQQQQQQ",
"QQQQQQQQQQQQQQQQ,79weisdfffdiQQQQQQQQQQQQQ",
"QQQQQQQQQQQQQQQQQ67qweiiiiieQQQQQQQQQQQQQQ",
"QQQQQQQQQQQQQQQQQQQ1qweee9QQQQQQQQQQQQQQQQ",
"QQQQQQQQQQQQQQQQQQQQQQQQQQQQQQQQQQQQQQQQQQ",
"QQQQQQQQQQQQQQQQQQQQQQQQQQQQQQQQQQQQQQQQQQ",
"QQQQQQQQQQQQQQQQQQQQQQQQQQQQQQQQQQQQQQQQQQ",
"QQQQQQQQQQQQQQQQQQQQQQQQQQQQQQQQQQQQQQQQQQ",
"QQQQQQQQQQQQQQQQQQQQQQQQQQQQQQQQQQQQQQQQQQ",
"QQQQQQQQQQQQQQQQQQQQQQQQQQQQQQQQQQQQQQQQQQ",
"QQQQQQQQQQQQQQQQQQQQQQQQQQQQQQQQQQQQQQQQQQ",
"QQQQQQQQQQQQQQQQQQQQQQQQQQQQQQQQQQQQQQQQQQ",
"QQQQQQQQQQQQQQQQQQQQQQQQQQQQQQQQQQQQQQQQQQ"
};
