/* XPM */
static char *green_ball_destroy6[] = {
"42 42 126 2",
"   c #000000",
".  c #0c1449",
"X  c #343a67",
"o  c #014611",
"O  c #0a5219",
"+  c #0c6516",
"@  c #0d7918",
"#  c #137b1b",
"$  c #1a7e24",
"%  c #345721",
"&  c #356d1e",
"*  c #2b752c",
"=  c #3a416c",
"-  c #3f5469",
";  c #446e1f",
":  c #5c7039",
">  c #7a5927",
",  c #707728",
"<  c #454a74",
"1  c #6c794a",
"2  c #767a99",
"3  c #15891b",
"4  c #19991c",
"5  c #1d8824",
"6  c #1f9521",
"7  c #25861b",
"8  c #23822c",
"9  c #2b8534",
"0  c #21ab1d",
"q  c #28b91f",
"w  c #26a022",
"e  c #35ab34",
"r  c #33b828",
"t  c #34bb2c",
"y  c #3c8b42",
"u  c #3d9642",
"i  c #34c526",
"p  c #3ec432",
"a  c #3bd427",
"s  c #44bc38",
"d  c #49864c",
"f  c #4a914f",
"g  c #539657",
"h  c #5d9960",
"j  c #45a947",
"k  c #53b450",
"l  c #68855d",
"z  c #69916c",
"x  c #6dac69",
"c  c #74a878",
"v  c #70b96c",
"b  c #74b87a",
"n  c #42da2c",
"m  c #49de31",
"M  c #53de3e",
"N  c #47e22e",
"B  c #4de732",
"V  c #52e836",
"C  c #5dce53",
"Z  c #59dc43",
"A  c #58e342",
"S  c #66de4c",
"D  c #66db51",
"F  c #71dc5c",
"G  c #6ac865",
"H  c #6edd63",
"J  c #72cb64",
"K  c #7dd76b",
"L  c #61e14a",
"P  c #6aeb53",
"I  c #78ea68",
"U  c #668681",
"Y  c #7aa781",
"T  c #8f4c2a",
"R  c #90512b",
"E  c #9b6836",
"W  c #ac5b30",
"Q  c #b1442f",
"!  c #ab7634",
"~  c #9e5a44",
"^  c #b45846",
"/  c #d13d33",
"(  c #cd4234",
")  c #d84136",
"_  c #c95146",
"`  c #9e8633",
"'  c #979533",
"]  c #a28434",
"[  c #84c67c",
"{  c #80d76e",
"}  c #88d476",
"|  c #8689a5",
" . c #959eae",
".. c #86a984",
"X. c #8eb19e",
"o. c #94af91",
"O. c #92b68d",
"+. c #98b195",
"@. c #a1b49e",
"#. c #a2a4ba",
"$. c #aab8a5",
"%. c #b2bbad",
"&. c #8cd08b",
"*. c #98cd89",
"=. c #9dc892",
"-. c #91d685",
";. c #8be387",
":. c #9df18d",
">. c #a5ca9a",
",. c #aec4a6",
"<. c #b3c6aa",
"1. c #b1efab",
"2. c #bfd4c7",
"3. c #c5f5bd",
"4. c #c6d1d1",
"5. c #d5d5e0",
"6. c #c8f2c3",
"7. c #d3edd4",
"8. c #d0f3cd",
"9. c #dbf5d9",
"0. c #dfece2",
"q. c #eaeced",
"w. c #e5f2e7",
"e. c #eef0f2",
"r. c #f8f9fa",
"t. c None",
"t.t.t.t.t.t.t.t.t.t.t.t.t.t.t.t.t.t.t.t.t.t.t.t.t.t.t.t.t.t.t.t.t.t.t.t.t.t.t.t.t.t.",
"t.t.t.t.t.t.t.t.t.t.t.t.t.t.t.t.t.t.t.t.t.t.t.t.t.t.t.t.t.t.t.t.t.t.t.t.t.t.t.t.t.t.",
"t.t.t.t.t.t.t.t.t.t.t.t.t.t.t.t.t.t.t.t.t.t.t.t.t.t.t.t.t.t.t.t.t.t.t.t.t.t.t.t.t.t.",
"t.t.t.t.t.t.t.t.t.t.t.t.t.t.t.t.t.t.t.t.t.t.t.t.t.t.t.t.t.t.t.t.t.t.t.t.t.t.t.t.t.t.",
"t.t.t.t.t.t.t.t.t.t.t.t.t.t.t.t.t.t.t.t.t.t.t.t.t.t.t.t.t.t.t.t.t.t.t.t.t.t.t.t.t.t.",
"t.t.t.t.t.t.t.t.t.t.t.t.t.t.t.t.t.t.t.t.t.t.t.t.t.t.t.t.t.t.t.t.t.t.t.t.t.t.t.t.t.t.",
"t.t.t.t.t.t.t.t.t.t.t.t.t.t.t.t.t.t.t.t.t.t.t.t.t.t.t.t.t.t.t.t.t.t.t.t.t.t.t.t.t.t.",
"t.t.t.t.t.t.t.t.t.t.t.t.t.t.t.t.t.t.t.t.t.t.t.t.t.t.t.t.t.t.t.t.t.t.t.t.t.t.t.t.t.t.",
"t.t.t.t.t.t.t.t.t.t.t.t.t.t.t.t.t.t.t.t.t.t.t.t.t.t.t.t.t.t.t.t.t.t.t.t.t.t.t.t.t.t.",
"t.t.t.t.t.t.t.t.t.t.t.t.t.t.t.t.t.t.t.t.t.t.t.t.t.t.t.t.t.t.t.t.t.t.t.t.t.t.t.t.t.t.",
"t.t.t.t.t.t.t.t.>.L B B B B B C ,.t.t.t.t.t.t.t.t.t.t.t.t.t.t.t.t.t.t.t.t.t.t.t.t.t.",
"t.t.t.t.t.t.t.t.K V B B B m n j $.t.t.t.t.t.>.V B B B B V } t.t.t.t.t.t.t.t.t.t.t.t.",
"t.t.t.t.t.t.t.t.[ M m n r 6 3 9 $.t.t.t.t.t.O.e t n V V V } t.t.t.t.t.t.t.t.t.t.t.t.",
"t.t.t.t.t.t.t.t.,.v j 5 # @ $ ..t.t.t.t.t.t...5 # 3 r D -.<.t.t.t.t.t.t.t.t.t.t.t.t.",
"t.t.t.t.t.t.t.t.t.t.%.8 @ 9 ..t.t.t.t.t.t.t.t.c 9 # @ g t.t.t.t.t.t.t.t.t.t.t.t.t.t.",
"t.t.t.t.t.t.t.t.t.t.%.8 # ..t.t.t.t.t.t.t.t.t.t.@.y @ # o.t.t.t.t.t.t.t.t.t.t.t.t.t.",
"t.t.t.t.t.t.t.t.t.t.$.8 # ..t.t.t.t.t.t.t.t.t.t.t.h @ @ o.t.t.t.t.t.t.t.t.t.t.t.t.t.",
"t.t.t.t.t.t.t.t.t.t.$.9 @ 8 ..%.t.$.z l z $.t.t.$.y @ @ +.t.t.t.t.t.t.t.t.t.t.t.t.t.",
"t.t.t.t.t.t.t.t.t.t.t...8 @ * : ~ _ Q Q Q ^ 1 d 9 # @ f %.t.t.t.t.t.t.t.t.t.t.t.t.t.",
"t.t.t.t.t.t.t.t.t.t.t.t...* > / W ` ' ' ] ! ( R & @ $ ..t.t.t.t.t.t.t.t.t.t.t.t.t.t.",
"t.t.t.t.t.t.t.t.t.t.t.t.t.l T / W ' ! ! ' ] ) ( ; g ..t.t.t.t.t.t.t.t.t.t.t.t.t.t.t.",
"t.t.t.t.t.t.t.t.t.t.*.} x o o % E R R > W W , 7 3 w =.>.,.t.t.t.t.t.t.t.t.t.t.t.t.t.",
"t.t.t.t.t.t.t.t.t.t.S m # o O Y &.$ # 3 j *.k 4 4 4 p V F t.t.t.t.t.t.t.t.t.t.t.t.t.",
"t.t.t.t.t.t.t.t.t.t.L i + O c e.4.b 4 j 2.e.7.k 0 0 i B D t.t.t.t.t.t.t.t.t.t.t.t.t.",
"t.t.t.t.t.t.t.t.t.t.L t + * 4.4.X U e b < | r.-.q q i N V { t.t.t.t.t.t.t.t.t.t.t.t.",
"t.t.t.t.t.t.t.t.t.>.A r + g q.#.. - G X.. = r.6.a i i N B V } t.t.t.t.t.t.t.t.t.t.t.",
"t.t.t.t.t.t.t.t.K L B r + c r.4.<  .;.t.= 2 r.9.a a a N B B S <.t.t.t.t.t.t.t.t.t.t.",
"t.t.t.t.t.t.t.t.A B B t # c r.r.5.e.;.w.5.q.r.9.N a a N B B V -.t.t.t.t.t.t.t.t.t.t.",
"t.t.t.t.t.t.t.<.A B B m w g 0.r.r.9.I 8.r.r.r.3.B n n B B B V *.t.t.t.t.t.t.t.t.t.t.",
"t.t.t.t.t.t.t.<.V B B B s u 4.r.r.1.A 1.r.r.e.:.N m K A B B F t.t.t.t.t.t.t.t.t.t.t.",
"t.t.t.t.t.t.t.t.} { K { >.x b w.7.H n I 9.r.6.P Z *.t.>.=.*.>.t.t.t.t.t.t.t.t.t.t.t.",
"t.t.t.t.t.t.t.t.t.t.t.t.t.+.c G C a n B I :.P Z =.t.t.t.t.t.t.t.t.t.t.t.t.t.t.t.t.t.",
"t.t.t.t.t.t.t.t.t.t.t.t.t.t.t.v t i a n N m Z *.t.t.t.t.t.t.t.t.t.t.t.t.t.t.t.t.t.t.",
"t.t.t.t.t.t.t.t.t.t.t.t.t.t.t.t.%.v J J J [ t.t.t.t.t.t.t.t.t.t.t.t.t.t.t.t.t.t.t.t.",
"t.t.t.t.t.t.t.t.t.t.t.t.t.t.t.t.t.t.t.t.t.t.t.t.t.t.t.t.t.t.t.t.t.t.t.t.t.t.t.t.t.t.",
"t.t.t.t.t.t.t.t.t.t.t.t.t.t.t.t.t.t.t.t.t.t.t.t.t.t.t.t.t.t.t.t.t.t.t.t.t.t.t.t.t.t.",
"t.t.t.t.t.t.t.t.t.t.t.t.t.t.t.t.t.t.t.t.t.t.t.t.t.t.t.t.t.t.t.t.t.t.t.t.t.t.t.t.t.t.",
"t.t.t.t.t.t.t.t.t.t.t.t.t.t.t.t.t.t.t.t.t.t.t.t.t.t.t.t.t.t.t.t.t.t.t.t.t.t.t.t.t.t.",
"t.t.t.t.t.t.t.t.t.t.t.t.t.t.t.t.t.t.t.t.t.t.t.t.t.t.t.t.t.t.t.t.t.t.t.t.t.t.t.t.t.t.",
"t.t.t.t.t.t.t.t.t.t.t.t.t.t.t.t.t.t.t.t.t.t.t.t.t.t.t.t.t.t.t.t.t.t.t.t.t.t.t.t.t.t.",
"t.t.t.t.t.t.t.t.t.t.t.t.t.t.t.t.t.t.t.t.t.t.t.t.t.t.t.t.t.t.t.t.t.t.t.t.t.t.t.t.t.t.",
"t.t.t.t.t.t.t.t.t.t.t.t.t.t.t.t.t.t.t.t.t.t.t.t.t.t.t.t.t.t.t.t.t.t.t.t.t.t.t.t.t.t."
};
