/* XPM */
static char *green_ball_jump3[] = {
"42 42 128 2",
"   c #000000",
".  c #0c1449",
"X  c #1b2254",
"o  c #242b5b",
"O  c #27335b",
"+  c #014811",
"@  c #055614",
"#  c #145c1b",
"$  c #0c6917",
"%  c #0d7918",
"&  c #14771a",
"*  c #1e6d26",
"=  c #1a7d24",
"-  c #26701c",
";  c #286d37",
":  c #31505b",
">  c #3d436d",
",  c #3d6e43",
"<  c #545421",
"1  c #446d1e",
"2  c #4a6a23",
"3  c #496835",
"4  c #5c6023",
"5  c #7b4f27",
"6  c #746f28",
"7  c #4f5979",
"8  c #6d7192",
"9  c #15891a",
"0  c #19971b",
"q  c #1b8623",
"w  c #199920",
"e  c #1ea41c",
"r  c #21812a",
"t  c #269f21",
"y  c #318938",
"u  c #21aa1d",
"i  c #26b41d",
"p  c #27a322",
"a  c #28b622",
"s  c #37a93c",
"d  c #34b828",
"f  c #35b137",
"g  c #3a8944",
"h  c #2dc222",
"j  c #36c927",
"k  c #3fc13a",
"l  c #3cd628",
"z  c #44b93d",
"x  c #638a2c",
"c  c #7cb133",
"v  c #458d4c",
"b  c #48944d",
"n  c #4b9251",
"m  c #56965a",
"M  c #5a9660",
"N  c #52a74f",
"B  c #58ab59",
"V  c #6b9c6c",
"C  c #61b25b",
"Z  c #71ad75",
"A  c #77b472",
"S  c #43ce34",
"D  c #43dc2c",
"F  c #48de34",
"G  c #50cf3f",
"H  c #51de3a",
"J  c #46e22d",
"K  c #4ce731",
"L  c #51ea33",
"P  c #67d032",
"I  c #4ed642",
"U  c #55cd50",
"Y  c #59e542",
"T  c #68df54",
"R  c #73db5c",
"E  c #75cf6c",
"W  c #7ccd6e",
"Q  c #62e24a",
"!  c #6bea52",
"~  c #77ed63",
"^  c #7d819e",
"/  c #7ea480",
"(  c #b33f2f",
")  c #924629",
"_  c #896d2c",
"`  c #b24d32",
"'  c #b17635",
"]  c #cf3c33",
"[  c #d83c35",
"{  c #e23a36",
"}  c #c74533",
"|  c #d14d35",
" . c #c06435",
".. c #c6574e",
"X. c #919333",
"o. c #8ba234",
"O. c #b28574",
"+. c #88ca7b",
"@. c #85d673",
"#. c #8aeb7c",
"$. c #8f91ab",
"%. c #8eb38a",
"&. c #9ead9b",
"*. c #97b89b",
"=. c #a2b49e",
"-. c #a7b4a3",
";. c #b5b7c8",
":. c #8acb8d",
">. c #96c88c",
",. c #92d084",
"<. c #9eda9e",
"1. c #9fcfa4",
"2. c #8fe588",
"3. c #a5ca98",
"4. c #b1d2b5",
"5. c #a3e99f",
"6. c #b1ecac",
"7. c #bdcec7",
"8. c #c2bab3",
"9. c #c6dacb",
"0. c #d1dfd5",
"q. c #dadae3",
"w. c #d2eed1",
"e. c #daf4d9",
"r. c #eaedef",
"t. c #e8f6e8",
"y. c #f9f9fb",
"u. c None",
"u.u.u.u.u.u.u.u.u.u.u.u.u.u.u.u.u.u.u.u.u.u.u.u.u.u.u.u.u.u.u.u.u.u.u.u.u.u.u.u.u.u.",
"u.u.u.u.u.u.u.u.u.u.u.u.u.u.u.u.u.u.u.u.u.u.u.u.u.u.u.u.u.u.u.u.u.u.u.u.u.u.u.u.u.u.",
"u.u.u.u.u.u.u.u.u.u.u.u.u.u.u.u.u.u.u.u.u.Q K K ,.u.u.u.u.u.u.u.u.u.u.u.u.u.u.u.u.u.",
"u.u.u.u.u.u.u.u.u.u.u.u.u.u.u.u.u.u.u.u.Y K K K K >.u.u.u.u.u.u.u.u.u.u.u.u.u.u.u.u.",
"u.u.u.u.u.u.u.u.u.u.u.u.u.u.u.u.u.u.u.L K K K K K K 3.u.u.u.u.u.u.u.u.u.u.u.u.u.u.u.",
"u.u.u.u.u.u.u.u.u.u.u.u.u.u.u.u.u.u.u.L K K K K K K E u.u.u.u.u.u.u.u.u.u.u.u.u.u.u.",
"u.u.u.u.u.u.u.u.u.u.u.u.C A A b 9 %.N j J K K K K T u.u.u.u.u.u.u.u.u.u.u.u.u.u.u.u.",
"u.u.u.u.u.u.u.u.u.%.e z i a W W A q q 0 p j D K K Q u.u.u.u.u.u.u.u.u.u.u.u.u.u.u.u.",
"u.u.u.u.u.u.u.u.+.j j h j <.r.y.r.4.Z r % & t D K T u.u.u.u.u.u.u.u.u.u.u.u.u.u.u.u.",
"u.u.u.u.u.u.u.+.l l l l j 6.y.y.y.y.e.4.= $ & t D K R u.u.u.u.u.u.u.u.u.u.u.u.u.u.u.",
"u.u.u.u.u.u.W l D D D l I 6.y.y.y.y.y.y.9.$ @ & t F K E u.u.u.u.u.u.u.u.u.u.u.u.u.u.",
"u.u.u.u.u.>.j D K K K J D 2.y.y.y.y.y.y.y.*.@ @ & p J K @.u.u.u.u.u.u.u.u.u.u.u.u.u.",
"u.u.u.u.u.>.D K ~ ! ~ Y J T w.y.y.q.r.y.y.9.n @ + & j K L 3.u.u.u.u.u.u.u.u.u.u.u.u.",
"u.u.u.u.u.l K #.t.t.t.6.#.F 6.r.q.. o ^ y.y.Z @ + @ d K ,.u.u.u.u.u.u.u.u.u.u.u.u.u.",
"u.u.u.u.u.H Y w.y.y.y.y.e.5.I e.q.X . . $.y.0.; + + $ >.u.u.u.u.u.u.u.u.u.u.u.u.u.u.",
"u.u.u.u.u.H Y w.y.y.y.y.y.y.5.U e.7 . . $.y.0.; + + ; u.u.u.u.u.u.u.u.u.u.u.u.u.u.u.",
"u.u.u.u.3.J L 6.y.y.y.y.y.y.r.2.U <.: 8 $.y.7.; + + , u.u.u.u.u.u.u.u.u.u.u.u.u.u.u.",
"u.u.u.u.3.J L #.t.y.y.y.$.> o 7.E f s 1.4.4.:.# + < < 2 y = = g n u.u.u.u.u.u.u.u.u.",
"u.u.u.u.u.F K ! e.y.y.y.$.. . O :.f w q q y x ` ) [ [ 2 % % % % % m u.u.u.u.u.u.u.u.",
"u.u.u.u.>.D J K ~ y.y.y.;.. . o 9.s 0 9 & < [ | ] [ ) - % % % % % % M u.u.u.>.*.u.u.",
"u.u.u.u.W l D J K #.y.y.y.;.7 > 7.A 9 & 4 { ' X.x [ ) = V m g n % % % V u.g I I T u.",
"u.3.L Y K D l l D D #.t.y.y.y.y.t.B 9 2 ` | X.P ` ( 3 =.u.u.u.u.v % % % & d L L L @.",
"3.L K K K D l l l l l E 5.r.t.t.e.s 6 } } X.P  .[ ..u.u.u.u.u.u.q % % % d L L L L ,.",
"K K K K K J l j j j h h k U E :.z _ | | o.P ' | ` 8.u.u.u.u.u.u.y % % 9 j L L L L u.",
"K K K K K K J l h h i a u u 0 0 6 |  .P c | | ) @ &.u.u.u.u.u.u.y % % p K L L L u.u.",
"R K K K K K K D j i i u e 0 0 9 6 { X.c [ [ ) # %.u.u.u.u.u.u.u.= % 9 j K L L u.u.u.",
"R K K K L K K K D j i e 0 0 9 1 [ [ } [ ] 5 * &.u.u.u.u.u.u.u.u.= % p K L L u.u.u.u.",
"u.T Q K K K K K K J l a e 0 9 1 ] ` } 4 O.Z -.u.u.u.u.u.u.u.u.u.m 9 K L L u.u.u.u.u.",
"u.u.u.@.R L Q T K K K G %.A b 2 4 - * Z u.u.u.u.u.u.u.u.u.u.u.u.u.B S L u.u.u.u.u.u.",
"u.u.u.u.u.u.u.u.@.K Q u.u.*.= % % % / u.u.u.u.u.u.u.u.u.u.u.u.u.u.u.E u.u.u.u.u.u.u.",
"u.u.u.u.u.u.u.u.u.+.u.u.u.M % % % n u.u.u.u.u.u.u.u.u.u.u.u.u.u.u.u.u.u.u.u.u.u.u.u.",
"u.u.u.u.u.u.u.u.u.u.u.u.u.m % % % n u.u.u.u.u.u.u.u.u.u.u.u.u.u.u.u.u.u.u.u.u.u.u.u.",
"u.u.u.u.u.u.u.u.u.u.u.u.u.u.= % % r u.u.u.u.u.u.u.u.u.u.u.u.u.u.u.u.u.u.u.u.u.u.u.u.",
"u.u.u.u.u.u.u.u.u.u.u.u.u.u.r % % % y %.%.M ; & Z u.u.u.u.u.u.u.u.u.u.u.u.u.u.u.u.u.",
"u.u.u.u.u.u.u.u.u.u.u.u.u.u.m % % % % % % % % % 9 %.u.u.u.u.u.u.u.u.u.u.u.u.u.u.u.u.",
"u.u.u.u.u.u.u.u.u.u.u.u.u.u.u.n % % % % % % % p j F 3.u.u.u.u.u.u.u.u.u.u.u.u.u.u.u.",
"u.u.u.u.u.u.u.u.u.u.u.u.u.u.u.u.v = % % 9 p d K K L L u.u.u.u.u.u.u.u.u.u.u.u.u.u.u.",
"u.u.u.u.u.u.u.u.u.u.u.u.u.u.u.u.u.u.A S D J L L L L u.u.u.u.u.u.u.u.u.u.u.u.u.u.u.u.",
"u.u.u.u.u.u.u.u.u.u.u.u.u.u.u.u.u.u.3.L Y L L L L u.u.u.u.u.u.u.u.u.u.u.u.u.u.u.u.u.",
"u.u.u.u.u.u.u.u.u.u.u.u.u.u.u.u.u.u.L L Y L L L u.u.u.u.u.u.u.u.u.u.u.u.u.u.u.u.u.u.",
"u.u.u.u.u.u.u.u.u.u.u.u.u.u.u.u.u.u.Q L L L L u.u.u.u.u.u.u.u.u.u.u.u.u.u.u.u.u.u.u.",
"u.u.u.u.u.u.u.u.u.u.u.u.u.u.u.u.u.u.Q L L L u.u.u.u.u.u.u.u.u.u.u.u.u.u.u.u.u.u.u.u."
};
