/* XPM */
static char *green_ball_destroy4[] = {
"42 42 127 2",
"   c #000000",
".  c #10184c",
"X  c #1a2253",
"o  c #2c3361",
"O  c #014911",
"+  c #085213",
"@  c #1b5b28",
"#  c #0b6515",
"$  c #0d7918",
"%  c #117b1a",
"&  c #1a6027",
"*  c #187d23",
"=  c #2a4718",
"-  c #26741c",
";  c #266d26",
":  c #3b456b",
">  c #367b41",
",  c #4b6925",
"<  c #785627",
"1  c #535a7e",
"2  c #497b4a",
"3  c #6b7c54",
"4  c #6d7192",
"5  c #168a1b",
"6  c #1a9a1b",
"7  c #1b8423",
"8  c #1d9120",
"9  c #1fa31c",
"0  c #21911f",
"q  c #24822d",
"w  c #249926",
"e  c #34873b",
"r  c #308e31",
"t  c #21a91d",
"y  c #25b41d",
"u  c #29a823",
"i  c #2bbd21",
"p  c #35ab35",
"a  c #31b728",
"s  c #3e8f45",
"d  c #2fc322",
"f  c #35c826",
"g  c #3bd527",
"h  c #43b43c",
"j  c #6b932d",
"k  c #458f4b",
"l  c #4a984c",
"z  c #4d9353",
"x  c #518956",
"c  c #56955a",
"v  c #5b9462",
"b  c #50a758",
"n  c #63965e",
"m  c #6a996f",
"M  c #63b257",
"N  c #6fb66d",
"B  c #69ba69",
"V  c #7aa47b",
"C  c #45cd37",
"Z  c #43db2c",
"A  c #49da34",
"S  c #5cda36",
"D  c #47e22e",
"F  c #4de732",
"G  c #52e836",
"H  c #64d032",
"J  c #5ac453",
"K  c #59d349",
"L  c #5ce344",
"P  c #6acd5e",
"I  c #6bdc56",
"U  c #73ce6d",
"Y  c #7ad967",
"T  c #63e14c",
"R  c #6aea52",
"E  c #6ee361",
"W  c #79ec66",
"Q  c #76e070",
"!  c #76af83",
"~  c #be3c30",
"^  c #855729",
"/  c #977134",
"(  c #a7472e",
")  c #b24c31",
"_  c #ac6934",
"`  c #856a44",
"'  c #b76a5e",
"]  c #d43e35",
"[  c #c84f34",
"{  c #d24735",
"}  c #c26135",
"|  c #c55d54",
" . c #a58435",
".. c #88ce79",
"X. c #81d66f",
"o. c #87d476",
"O. c #84ef71",
"+. c #9296ae",
"@. c #89ac88",
"#. c #8db48d",
"$. c #94af92",
"%. c #9db59a",
"&. c #a2b59f",
"*. c #a9b8a4",
"=. c #acb4b6",
"-. c #b7b9ca",
";. c #9ace8c",
":. c #92cf93",
">. c #9ccc95",
",. c #93d184",
"<. c #97ed8d",
"1. c #a6c99a",
"2. c #b4c5ab",
"3. c #b6cfbd",
"4. c #b7eeb2",
"5. c #b6cdc0",
"6. c #c2f6b9",
"7. c #d2dfd6",
"8. c #caedc8",
"9. c #d6e6d8",
"0. c #dcf5da",
"q. c #dfe9e2",
"w. c #e8ebed",
"e. c #e7f5e8",
"r. c #f0eff4",
"t. c #f8f8fa",
"y. c None",
"y.y.y.y.y.y.y.y.y.y.y.y.y.y.y.y.y.y.y.y.y.y.y.y.y.y.y.y.y.y.y.y.y.y.y.y.y.y.y.y.y.y.",
"y.y.y.y.y.y.y.y.y.y.y.y.y.y.y.y.y.y.y.y.y.y.y.y.y.y.y.y.y.y.y.y.y.y.y.y.y.y.y.y.y.y.",
"y.y.y.y.y.y.y.y.y.y.y.y.y.y.y.y.y.y.y.y.y.y.y.y.y.y.y.y.y.y.y.y.y.y.y.y.y.y.y.y.y.y.",
"y.y.y.y.y.y.y.y.y.y.y.y.y.y.y.y.y.y.y.y.y.y.y.y.y.y.y.y.y.y.y.y.y.y.y.y.y.y.y.y.y.y.",
"y.y.y.y.y.y.y.y.y.y.y.y.y.y.y.y.y.y.y.y.y.y.y.y.y.y.y.y.y.y.y.y.y.y.y.y.y.y.y.y.y.y.",
"y.y.y.y.y.y.y.y.y.y.y.y.y.y.y.y.y.y.y.y.y.y.y.y.y.y.y.y.y.y.y.y.y.y.y.y.y.y.y.y.y.y.",
"y.y.y.y.y.y.y.y.y.y.y.y.y.y.y.y.y.y.y.y.y.y.y.y.y.y.y.y.y.y.y.y.y.y.y.y.y.y.y.y.y.y.",
"y.y.y.y.y.y.y.y.y.y.y.y.y.y.y.y.y.y.y.y.y.y.y.y.y.y.y.y.y.y.y.y.=.>.>.2.y.y.y.y.y.y.",
"y.y.y.y.y.y.y.y.y.y.1.,.,.....1.y.y.y.y.y.y.y.y.y.y.y.y.y.y.y.y.:.P R o.y.y.y.y.y.y.",
"y.y.y.y.y.y.y.y.y.2.Y G G G G o.y.y.y.y.y.y.y.y.y.y.y.y.y.y.y.%.J G G G y.y.y.y.y.y.",
"y.y.y.y.y.y.y.y.y.2.E F F F F L ;.y.y.y.y.y.y.y.y.y.y.y.y.y.y.@.h F F F y.y.y.y.y.y.",
"y.y.y.y.y.y.y.y.y.2.Y F F F F F L T T L L Y 1.y.y.y.*.$.$.@.@.c u F F F y.y.y.y.y.y.",
"y.y.y.y.y.y.y.y.y.2.Y F F F D D Z Z Z A F I 1.y.y.&.k $ $ $ $ $ 8 C F F y.y.y.y.y.y.",
"y.y.y.y.y.y.y.y.y.y.X.G Z f u w 0 0 5 0 a J 1.y.*.z $ $ % * % $ % u F F y.y.y.y.y.y.",
"y.y.y.y.y.y.y.y.y.y.1.J u 5 $ # # + + + + ; V &.c $ $ * z n e % $ 8 Z F y.y.y.y.y.y.",
"y.y.y.y.y.y.y.y.y.*.@.l r s z c x > & + O O @ 3 , % * z &.y.V e % 5 a F y.y.y.y.y.y.",
"y.y.y.y.y.y.y.y.y.@.l B #.3.9.q.9.3.#.v & O + < ( - s %.y.y.y.@.e % w Z y.y.y.y.y.y.",
"y.y.y.y.y.y.y.y.*.N N 8.w.r.t.t.t.t.r.7.V & = ~ ] < c y.y.y.y.y.@.k l M y.y.y.y.y.y.",
"y.y.y.y.y.y.y.=.N B 8.t.t.t.t.w.4 4 =.t.9.n ^ ] ) ) 3 y.y.y.y.y.y.%.*.*.2.y.y.y.y.y.",
"y.y.y.y.y.y.y.*.a P 0.t.t.t.w.4 . . o +.3.M ) } j ] ' y.y.y.y.y.y.y.y.y.y.y.y.y.y.y.",
"y.y.y.y.y.y.y.N i C ,.e.t.t.t.-.. . 1 3.b - (  .H ] | *.y.y.y.y.y.y.y.y.y.y.y.y.y.y.",
"y.y.y.y.y.y.y.a f g A E <.4.0.e.5.:.b w 5 - ( { H { ( 2 y.y.y.y.y.y.y.y.y.y.y.y.y.y.",
"y.y.y.y.y.y.y.f g Z Z A L E Q Y P J p 8 5 % < [ S } ( 2 y.y.y.y.y.y.y.y.y.y.y.y.y.y.",
"y.y.y.y.y.y.y.A Z D G E <.4.0.0.=.$.! B p 5 ^ { S [ ( 2 y.y.y.y.y.y.y.y.y.y.y.y.y.y.",
"y.y.y.y.y.y.y.A D G O.8.e.t.t.-.o X : =.:.p ( } S { ( x y.y.y.y.y.y.y.y.y.y.y.y.y.y.",
"y.y.y.y.y.y.y.C D R 8.t.t.t.t.+.X . o =.w.U _ _ H { ) @.y.y.y.y.y.y.y.y.y.y.y.y.y.y.",
"y.y.y.y.y.y.y.P A R 0.t.t.t.t.w.+.+.=.r.e.U / { / { ` =.y.y.y.y.$.@.#.;.;.y.y.y.y.y.",
"y.y.y.y.y.y.y.1.A L 4.e.t.t.t.t.r.r.t.r.>.p r ) ] ) 2 *.y.y.y.*.k r h L L y.y.y.y.y.",
"y.y.y.y.y.y.y.y.U A R <.6.0.r.t.t.e.4.U p 6 5 ^ ] < e *.y.y.y.m * % f F F y.y.y.y.y.",
"y.y.y.y.y.y.y.y.2.X.G G R W O.W R K C a t 6 5 - < - q $.y.y.&.k % 5 Z F F y.y.y.y.y.",
"y.y.y.y.y.y.y.y.y.y...S D D D D g f d i t 6 5 w 7 $ $ q m V k % $ u Z F F y.y.y.y.y.",
"y.y.y.y.y.y.y.y.y.y.y...K Z Z g g f i y t 9 p #.z $ $ $ $ $ $ $ % f F F F y.y.y.y.y.",
"y.y.y.y.y.y.y.y.y.y.y.y...A g g g f d i d d U y.V q * % $ $ $ * p A G G F y.y.y.y.y.",
"y.y.y.y.y.y.y.y.y.y.y.y.o.G D Z Z Z Z Z D F Y y.y.@.n e q q q z #.I G G F y.y.y.y.y.",
"y.y.y.y.y.y.y.y.y.y.y.1.I F F F F F F F F F Y y.y.y.y.@.V V V %.y...G G T y.y.y.y.y.",
"y.y.y.y.y.y.y.y.y.y.y.1.T F F F F F F L X.,.1.y.y.y.y.y.y.y.y.y.y.2.o.Y ,.y.y.y.y.y.",
"y.y.y.y.y.y.y.y.y.y.y.1.T F F F F F G o.y.y.y.y.y.y.y.y.y.y.y.y.y.y.2.2.y.y.y.y.y.y.",
"y.y.y.y.y.y.y.y.y.y.y.1.I F F F F G o.2.y.y.y.y.y.y.y.y.y.y.y.y.y.y.y.y.y.y.y.y.y.y.",
"y.y.y.y.y.y.y.y.y.y.y.2.>.X.G F Y 1.2.y.y.y.y.y.y.y.y.y.y.y.y.y.y.y.y.y.y.y.y.y.y.y.",
"y.y.y.y.y.y.y.y.y.y.y.y.y.y.y.y.y.y.y.y.y.y.y.y.y.y.y.y.y.y.y.y.y.y.y.y.y.y.y.y.y.y.",
"y.y.y.y.y.y.y.y.y.y.y.y.y.y.y.y.y.y.y.y.y.y.y.y.y.y.y.y.y.y.y.y.y.y.y.y.y.y.y.y.y.y.",
"y.y.y.y.y.y.y.y.y.y.y.y.y.y.y.y.y.y.y.y.y.y.y.y.y.y.y.y.y.y.y.y.y.y.y.y.y.y.y.y.y.y."
};
