/* XPM */
static char *green_ball_destroy2[] = {
"42 42 127 2",
"   c #000000",
".  c #0c1449",
"X  c #141d4f",
"o  c #1d2456",
"O  c #242b5b",
"+  c #353c68",
"@  c #024911",
"#  c #065614",
"$  c #096713",
"%  c #0d7918",
"&  c #127a1b",
"*  c #177926",
"=  c #26791c",
"-  c #346b1d",
";  c #22792e",
":  c #306d2b",
">  c #3b4b68",
",  c #5c4c21",
"<  c #5e5523",
"1  c #526321",
"2  c #665524",
"3  c #76752a",
"4  c #495176",
"5  c #686c8e",
"6  c #18871b",
"7  c #19951b",
"8  c #1d9923",
"9  c #1ea31c",
"0  c #26901d",
"q  c #24862a",
"w  c #318f2f",
"e  c #20a91d",
"r  c #26b41e",
"t  c #29a926",
"y  c #29ba20",
"u  c #38b732",
"i  c #3c8b43",
"p  c #3ea942",
"a  c #2dc121",
"s  c #38cb27",
"d  c #3dc530",
"f  c #3cd628",
"g  c #44922a",
"h  c #42ae30",
"j  c #4e9154",
"k  c #5e9961",
"l  c #4eb04f",
"z  c #628c67",
"x  c #65976c",
"c  c #69ad68",
"v  c #7ba57c",
"b  c #7db578",
"n  c #48c72c",
"m  c #42d92c",
"M  c #47d931",
"N  c #5ada35",
"B  c #47e32e",
"V  c #4ce731",
"C  c #50ea33",
"Z  c #62d532",
"A  c #4dd046",
"S  c #53ca45",
"D  c #58d948",
"F  c #5be344",
"G  c #6ad954",
"H  c #6bdd55",
"J  c #75cf6f",
"K  c #77db62",
"L  c #60e747",
"P  c #6be852",
"I  c #73ee5c",
"U  c #78e270",
"Y  c #788895",
"T  c #8c4f29",
"R  c #9a7a34",
"E  c #a3472d",
"W  c #b95031",
"Q  c #b76c35",
"!  c #a87a67",
"~  c #ce3c33",
"^  c #d73c34",
"/  c #e23b36",
"(  c #ca4634",
")  c #d74435",
"_  c #c36135",
"`  c #a38634",
"'  c #8c997b",
"]  c #a88e7e",
"[  c #80d96c",
"{  c #8cd37b",
"}  c #87ef76",
"|  c #83f06e",
" . c #888ca6",
".. c #89b388",
"X. c #90ad8e",
"o. c #9ab197",
"O. c #96a2ad",
"+. c #a1b39e",
"@. c #a9b7a5",
"#. c #b4bbae",
"$. c #abadc1",
"%. c #b5b7c8",
"&. c #8bcf8b",
"*. c #99cc8b",
"=. c #9ac995",
"-. c #93d183",
";. c #96eb8a",
":. c #a4ca98",
">. c #a9c8a6",
",. c #b0d4b1",
"<. c #a3e89c",
"1. c #a7f399",
"2. c #b4edaf",
"3. c #c58a82",
"4. c #c3f2be",
"5. c #cfcfdb",
"6. c #d9d9e3",
"7. c #c4ecc3",
"8. c #d6e7d9",
"9. c #d1f6cb",
"0. c #dbf4da",
"q. c #dfeae2",
"w. c #e6eee8",
"e. c #e9f5ea",
"r. c #edf1f0",
"t. c #f9f9fb",
"y. c None",
"y.y.y.y.y.y.y.y.y.y.y.y.y.y.y.y.y.y.y.y.y.y.y.y.y.y.y.y.y.y.y.y.y.y.y.y.y.y.y.y.y.y.",
"y.y.y.y.y.y.y.y.y.y.y.y.y.y.y.y.y.y.y.y.y.y.y.y.y.y.y.y.y.y.y.y.y.y.y.y.y.y.y.y.y.y.",
"y.y.y.y.y.y.y.y.y.y.y.y.y.y.y.y.y.y.y.y.y.y.y.y.y.y.y.y.y.y.y.y.y.y.y.y.y.y.y.y.y.y.",
"y.y.y.y.y.y.y.y.y.y.y.y.y.y.y.y.y.y.y.y.y.y.y.y.y.y.y.y.y.y.y.y.y.y.y.y.y.y.y.y.y.y.",
"y.y.y.y.y.y.y.y.y.y.y.y.y.y.y.y.y.y.y.y.y.y.y.y.y.y.y.y.y.y.y.y.y.y.y.y.y.y.y.y.y.y.",
"y.y.y.y.y.y.y.y.y.y.y.y.y.y.y.y.y.y.y.y.y.y.y.y.y.y.y.y.y.y.y.y.y.y.y.y.y.y.y.y.y.y.",
"y.y.y.y.y.y.y.y.y.y.y.y.y.y.y.o.S S D D S S h ..y.y.y.y.y.y.y.y.y.y.y.y.y.y.y.y.y.y.",
"y.y.y.y.y.y.y.y.y.y.y.y.y.-.G D f m m m f s y h l b y.y.y.y.y.y.y.y.y.y.y.y.y.y.y.y.",
"y.y.y.y.y.y.y.y.y.y.y.y.-.D B B B B B B m f s y r u b y.y.y.y.y.y.y.y.y.y.y.y.y.y.y.",
"y.y.y.y.y.y.y.y.y.y.y.*.D B P ;.1.| C B m f s A J J l c v y.y.y.y.y.y.y.y.y.y.y.y.y.",
"y.y.y.y.y.y.y.y.y.y.*.D V P 1.e.t.9.| C B f D ;.0.w.=.p q y.y.*.-.-.-.-.-.=.y.y.y.y.",
"y.:.*.*.*.*.:.y.y.=.N B C 1.e.t.t.t.9.L B f ;.0.t.t.w.=.q ..*.F V V V V V H y.y.y.y.",
"y.K V V V V F :.:.M m V I 4.t.t.t.t.t.} V D 4.t.t.t.t.8.w & u B V V V V V H y.y.y.y.",
">.H V V V V V B f m B V ;.0.t.t.t.t.t.2.F U 0.t.t.t.t.q.c % t m V V V V V H y.y.y.y.",
"H C V V V V V B f f B V 1.r.t.t.t.t.t.w.D <.e.t.t.t.t.r.,.% % s B V V V V H y.y.y.y.",
"H V V V V V B f f f m B 2.t.t.t.t.t.t.t.D 4.t.t.t.t.t.t.8.$ $ 7 m V V V V H y.y.y.y.",
"H V V V V V B f s f m B 2.t.t.t.5.4 t.t.A 7.t. . .t.t.t.q.$ $ 7 m V V V V H y.y.y.y.",
">.H V C C V B f s f f m 2.t.t.%.+ X 4 r.A 7.Y O O  .t.t.8.$ # 6 m V V K :.>.y.y.y.y.",
"y.K V C V V B f a s s f <.r.t.$.. . X 8.A <.4 . . 5 t.r.,.$ # 6 n V K >.y.y.y.y.y.y.",
"y.:.H V V V B f y y a s -.0.t.$.. . X ,.u J > . . 5 t.w.v # # 6 s V { y.y.y.y.y.y.y.",
"y.y.:.H V V B f y r y y G 7.t.5.5 o  .J t p Y > 4 %.t.8.: # @ 6 s V { y.y.y.y.y.y.y.",
"y.y.y.:.H V B f r r r y u *.r.t.6.Y 0.l 8 8 =.O.%.t.r.>.# @ @ 6 s V { y.y.y.y.y.y.y.",
"y.y.y.y.*.V V m r e 9 e e l ,.r.t.8.&.8 7 6 j >.w.r.,.j @ @ # 8 m V { y.y.y.y.y.y.y.",
"y.y.y.y.*.V V B y 9 7 7 7 7 l ,.2.&.7 6 6 & % j =.>.j @ @ @ # d V C { y.y.y.y.y.y.y.",
"y.y.y.y.*.F F D u 9 7 7 7 7 0 g w 0 = = - - - w g = @ @ @ @ ; S F L *.y.y.y.y.y.y.y.",
"y.y.y.y.y.y.y.y.y.u 7 6 6 6 3 ) / / ^ E E ~ / / ) T @ @ @ # #.y.y.y.y.y.y.y.y.y.y.y.",
"y.y.y.y.y.y.y.y.y.y.w = T ~ ^ ) _ ` ) ( ( ) Q Q ) / ^ E : y.y.y.y.y.y.y.y.y.y.y.y.y.",
"y.y.y.y.y.y.y.#.q q & 2 ( / ) R N N Z Z Z Z N n 3 ( / ^ T q #.y.y.y.y.y.y.y.y.y.y.y.",
"y.y.y.y.y.y.@.w % % % = 1 E ^ ( Q Q Q ` ` Q Q W ( ^ W 1 - % w @.y.y.y.y.y.y.y.y.y.y.",
"y.y.y.y.y.y.+.% % % % % & - < T ~ ^ ^ ) ) ) ^ ^ E 2 - & % % % i o.y.y.y.y.y.y.y.y.y.",
"y.y.y.y.y.@.j % % % % k v v ' ] ! < , , , , ! 3.] ' v k % % % % j o.y.y.y.y.y.y.y.y.",
"y.y.y.y.y.X.% % % % j @.y.y.y.y.@.x z z z z +.y.y.y.y.#.k % % % % v y.y.y.y.y.y.y.y.",
"y.y.y.y.y.X.% % % % o.y.y.y.y.y.y.y.y.y.y.y.y.y.y.y.y.y.y.j & % % v y.y.y.y.y.y.y.y.",
"y.y.y.y.y.X.% % % % o.y.y.y.y.y.y.y.y.y.y.y.y.y.y.y.y.y.y.y.* % % v y.y.y.y.y.y.y.y.",
"y.y.y.y.y.X.% % % % v #.y.y.y.y.y.y.y.y.y.y.y.y.y.y.y.y.y.o.* % % v y.y.y.y.y.y.y.y.",
"y.y.y.y.y.o.q % % % % v @.y.y.y.y.y.y.y.y.y.y.y.y.y.y.y.o.% % % % v y.y.y.y.y.y.y.y.",
"y.y.y.y.y.y.+.& % % % % * x y.y.y.y.y.y.y.y.y.y.y.y.y.o.% % % % % v y.y.y.y.y.y.y.y.",
"y.y.y.y.y.y.>.m % % % % % & k y.y.y.y.y.y.y.y.y.y.y.X.& % % % % % & ; l &.y.y.y.y.y.",
"y.y.y.y.*.L F V m s 7 % % % k y.y.y.y.y.y.y.y.y.y...* % % % % 8 d M M V D ..y.y.y.y.",
"y.y.y.*.L C C D C V m m u t c y.y.y.y.y.y.y.y.y.y.v % & 7 t d M V C C C C K y.y.y.y.",
"y.y.y.{ C C C C C C C C V m J y.y.y.y.y.y.y.y.y.y.v 8 s m m V C C C C C C P y.y.y.y.",
"y.y.y.>.K C C C C C C C C C [ y.y.y.y.y.y.y.y.y.y...d V C C C C C C C C H =.y.y.y.y."
};
