/* XPM */
static char *pink_ball_destroy7[] = {
"42 42 129 2",
"   c #000000",
".  c #0c1449",
"X  c #3d0570",
"o  c #272d5d",
"O  c #410571",
"+  c #5f0d61",
"@  c #5b017e",
"#  c #5a187f",
"$  c #790b74",
"%  c #484d76",
"&  c #5d0680",
"*  c #561e80",
"=  c #630982",
"-  c #681485",
";  c #7b0186",
":  c #6c258a",
">  c #712a8a",
",  c #75328d",
"<  c #773791",
"1  c #5c5683",
"2  c #6c4b8b",
"3  c #606588",
"4  c #87116a",
"5  c #9d0e7a",
"6  c #8c2a6c",
"7  c #933d76",
"8  c #a41b5b",
"9  c #b72355",
"0  c #b0607c",
"q  c #cf313e",
"w  c #dc343e",
"e  c #cd2c4e",
"r  c #c72756",
"t  c #c33151",
"y  c #d82e4d",
"u  c #eb1f7f",
"i  c #e5314c",
"p  c #e62668",
"a  c #e42276",
"s  c #d1404e",
"d  c #89068b",
"f  c #890793",
"g  c #891188",
"h  c #8f189a",
"j  c #9e0594",
"k  c #88329b",
"l  c #933e9d",
"z  c #a80093",
"x  c #b90098",
"c  c #b105a6",
"v  c #a72793",
"b  c #ad3aa0",
"n  c #8b4d96",
"m  c #9c5880",
"M  c #8e629c",
"N  c #99699a",
"B  c #936ba0",
"V  c #9773a2",
"C  c #a25fa4",
"Z  c #af58b5",
"A  c #b55ab0",
"S  c #a86fa6",
"D  c #b36ea6",
"F  c #b773af",
"G  c #b570b9",
"H  c #c3019d",
"J  c #ca05a8",
"K  c #c115a9",
"L  c #d603a9",
"P  c #de09b7",
"I  c #d112ad",
"U  c #df16b7",
"Y  c #c62fa9",
"T  c #f11e86",
"R  c #e004ad",
"E  c #eb06bc",
"W  c #e81bb9",
"Q  c #f006be",
"!  c #f411bd",
"~  c #ef2081",
"^  c #e82bbd",
"/  c #fb0ac7",
"(  c #f614c5",
")  c #ed37c3",
"_  c #f326c5",
"`  c #cd53ab",
"'  c #cd58b0",
"]  c #d141b8",
"[  c #cc6cb2",
"{  c #cc71b6",
"}  c #d975bf",
"|  c #c86ac3",
" . c #de68c0",
".. c #e848c4",
"X. c #e455c2",
"o. c #e16ace",
"O. c #e26bd0",
"+. c #8988a6",
"@. c #9e8ba6",
"#. c #979ab2",
"$. c #b6969f",
"%. c #a489a9",
"&. c #a385b5",
"*. c #a995ac",
"=. c #b390ae",
"-. c #bf9eb4",
";. c #afa0b0",
":. c #bba9b4",
">. c #ad8ec1",
",. c #cf97bd",
"<. c #d487be",
"1. c #caa6bc",
"2. c #d088c3",
"3. c #d891d5",
"4. c #d5b0ca",
"5. c #d0b4d9",
"6. c #e59fde",
"7. c #f5b7e9",
"8. c #dbcbe2",
"9. c #dadae4",
"0. c #efc1e9",
"q. c #e9daec",
"w. c #f2d1ee",
"e. c #f8d2f0",
"r. c #e3e1eb",
"t. c #ede9f1",
"y. c #f5e8f5",
"u. c #faf8fc",
"i. c None",
"i.i.i.i.i.i.i.i.i.i.i.i.i.i.i.i.i.i.i.i.i.i.i.i.i.i.i.i.i.i.i.i.i.i.i.i.i.i.i.i.i.i.",
"i.i.i.i.i.i.i.i.i.i.i.i.i.i.i.i.i.i.i.i.i.i.i.i.i.i.i.i.i.i.i.i.i.i.i.i.i.i.i.i.i.i.",
"i.i.i.i.i.i.i.i.i.i.i.i.i.i.i.i.i.i.i.i.i.i.i.i.i.i.i.i.i.i.i.i.i.i.i.i.i.i.i.i.i.i.",
"i.i.i.i.i.i.i.i.i.i.i.i.i.i.i.i.i.i.i.i.i.i.i.i.i.i.i.i.i.i.i.i.i.i.i.i.i.i.i.i.i.i.",
"i.i.i.i.i.i.i.i.i.i.i.i.i.i.i.i.i.i.i.i.i.i.i.i.i.i.i.i.i.i.i.i.i.i.i.i.i.i.i.i.i.i.",
"i.i.i.i.i.i.i.i.i.i.i.i.i.i.i.i.i.i.i.i.i.i.i.i.i.i.i.i.i.i.i.i.i.i.i.i.i.i.i.i.i.i.",
"i.i.i.i.i.i.i.i.i.i.i.i.i.i.i.i.i.i.i.i.i.i.i.i.i.i.i.i.i.i.i.i.i.i.i.i.i.i.i.i.i.i.",
"i.i.i.i.i.i.i.i.i.i.i.i.i.i.i.i.i.i.i.i.i.i.i.i.i.i.i.i.i.i.i.i.i.i.i.i.i.i.i.i.i.i.",
"i.i.i.i.i.i.i.i.i.i.i.i.i.i.i.i.i.i.i.i.i.i.i.i.i.i.i.i.i.i.i.i.i.i.i.i.i.i.i.i.i.i.",
"i.i.i.i.i.i.i.i.i.i.i.i.i.i.i.i.i./ /  .i.i.i.i.i.i.i.i.i.i.i.i.i.i.i.i.i.i.i.i.i.i.",
"i.i.i.i.i.i.i.i.i.i.i.i.i.i.i.i./ / / } i.i.i.i.i.i.i.i.i.i.i.i.i.i.i.i.i.i.i.i.i.i.",
"i.i.i.i.i.i.i.i.i.i.i.i.i.i.i./ / E J C %.i.i.i.i.i.i.i.i.i.i.i.i.i.i.i.i.i.i.i.i.i.",
"i.i.i.i.i.i.i.i.i.i.i.i.i.i.i.! J ; @ @ & B i.i.i.i.i.i.i.i.i.i.i.i.i.i.i.i.i.i.i.i.",
"i.i.i.i.i.i.i.i.i.i.i.i.i.i.i.S = = < : @ & *.i.i.i.i.i.i.i.i.i.i.i.i.i.i.i.i.i.i.i.",
"i.i.i.i.i.i.i.i.i.i.i.i.i.i.i.i.%.%.i.;.: @ n i.i.i.i.i.i.i.i.i.i.i.i.i.i.i.i.i.i.i.",
"i.i.i.i.i.i.i.i.i.i.i.i.i.i.i.i.i.i.i.i., @ n i.X.X.,.,.,.i.i.i.i.i.i.i.i.i.i.i.i.i.",
"i.i.i.i.i.i.i.i.i.i.i.i.i.i.i.i.i.i.i.N $ 4 n b E / / / ( _ } i.i.i.i.i.i.i.i.i.i.i.",
"i.i.i.i.i.i.i.i.i.i.( F i.i.i.i.i.%.0 t w 8 ; d z J Q / / / ) i.i.i.i.i.i.i.i.i.i.i.",
"i.i.i.i.i.i.i.i.i./ I - *.i.i.i.@.6 y u i 5 d j z x L Q / / _ 1.i.i.i.i.i.i.i.i.i.i.",
"i.i.i.i.i.i.i.i./ / j = *.i.i.i.m y T p r ` 2.| Y J J L / _ <.i.i.i.i.i.i.i.i.i.i.i.",
"i.i.i.i.i.i.i./ / P = @ %.i.i.$.s ~ p 9 g 8.9.t.w...L L ' 1.i.i.i.i.i.i.i.i.i.i.i.i.",
"i.i.i.i.i.i.i./ / K - @ M %.V 6 e a r $ f &.o 3 u.e...R [ i.i.i.i.i.i.i.i.i.i.i.i.i.",
"i.i.i.i.i.i.i...) { %.- & = @ 8 q 9 v k h Z 1 % t.u.7.W [ i.i.i.i.i.i.i.i.i.i.i.i.i.",
"i.i.i.i.i.i.i.i.i.i.i.*.: > > 7 + # 4.+.2 | 3.q.u.u.y.) ' i.i.i.i.i.i.i.i.i.i.i.i.i.",
"i.i.i.i.i.i.i.i.i.i.i.i.i.i.i.@.X * q.+.. +.6.O.7.y.0.^ [ i.i.i.i.i.i.i.i.i.i.i.i.i.",
"i.i.i.i.i.i.i.i.i.i.i.i.i.i.i.] = O >.r.#.i.y.o.U ^ W L -.i.i.i.i.i.i.i.i.i.i.i.i.i.",
"i.i.i.i.i.i.i.i.i.i.i.i.i.i.<.( c @ > 8.u.u.u.0.I L L ] i.i.i.i.i.i.i.i.i.i.i.i.i.i.",
"i.i.i.i.i.i.i.i.i.i.i.i.i.i.i.} ( c @ < 5.y.u.w.K H Y i.i.i.i.i.i.i.i.i.i.i.i.i.i.i.",
"i.i.i.i.i.i.i.i.i.i.i.i.i.i.i.i.<./ J f g l G A v D i.i.i.i.i.i.i.i.i.i.i.i.i.i.i.i.",
"i.i.i.i.i.i.i.i.i.i.i.i.i.i.i.i.,./ / / P =.%.:.i.i.i.i.i.i.i.i.i.i.i.i.i.i.i.i.i.i.",
"i.i.i.i.i.i.i.i.i.i.i.i.i.i.i.i. ./ / / ) i.i.i.i.i.i.i.i.i.i.i.i.i.i.i.i.i.i.i.i.i.",
"i.i.i.i.i.i.i.i.i.i.i.i.i.i.i.i.i. ./ _ 1.i.i.i.i.i.i.i.i.i.i.i.i.i.i.i.i.i.i.i.i.i.",
"i.i.i.i.i.i.i.i.i.i.i.i.i.i.i.i.i.i.i.i.i.i.i.i.i.i.i.i.i.i.i.i.i.i.i.i.i.i.i.i.i.i.",
"i.i.i.i.i.i.i.i.i.i.i.i.i.i.i.i.i.i.i.i.i.i.i.i.i.i.i.i.i.i.i.i.i.i.i.i.i.i.i.i.i.i.",
"i.i.i.i.i.i.i.i.i.i.i.i.i.i.i.i.i.i.i.i.i.i.i.i.i.i.i.i.i.i.i.i.i.i.i.i.i.i.i.i.i.i.",
"i.i.i.i.i.i.i.i.i.i.i.i.i.i.i.i.i.i.i.i.i.i.i.i.i.i.i.i.i.i.i.i.i.i.i.i.i.i.i.i.i.i.",
"i.i.i.i.i.i.i.i.i.i.i.i.i.i.i.i.i.i.i.i.i.i.i.i.i.i.i.i.i.i.i.i.i.i.i.i.i.i.i.i.i.i.",
"i.i.i.i.i.i.i.i.i.i.i.i.i.i.i.i.i.i.i.i.i.i.i.i.i.i.i.i.i.i.i.i.i.i.i.i.i.i.i.i.i.i.",
"i.i.i.i.i.i.i.i.i.i.i.i.i.i.i.i.i.i.i.i.i.i.i.i.i.i.i.i.i.i.i.i.i.i.i.i.i.i.i.i.i.i.",
"i.i.i.i.i.i.i.i.i.i.i.i.i.i.i.i.i.i.i.i.i.i.i.i.i.i.i.i.i.i.i.i.i.i.i.i.i.i.i.i.i.i.",
"i.i.i.i.i.i.i.i.i.i.i.i.i.i.i.i.i.i.i.i.i.i.i.i.i.i.i.i.i.i.i.i.i.i.i.i.i.i.i.i.i.i.",
"i.i.i.i.i.i.i.i.i.i.i.i.i.i.i.i.i.i.i.i.i.i.i.i.i.i.i.i.i.i.i.i.i.i.i.i.i.i.i.i.i.i."
};
