/* XPM */
static char *pink_ball_destroy3[] = {
"42 42 128 2",
"   c #000000",
".  c #0c1449",
"X  c #12194d",
"o  c #1a2153",
"O  c #3a006c",
"+  c #3b0071",
"@  c #373d69",
"#  c #3d416e",
"$  c #43056d",
"%  c #470274",
"&  c #4d137a",
"*  c #5a007d",
"=  c #630e5c",
"-  c #62027a",
";  c #730c6f",
":  c #74017d",
">  c #544b7d",
",  c #5e0681",
"<  c #640882",
"1  c #681786",
"2  c #780187",
"3  c #71178a",
"4  c #6e2589",
"5  c #70298b",
"6  c #76338e",
"7  c #585d82",
"8  c #7e519e",
"9  c #6d7092",
"0  c #9f1b5c",
"q  c #8b116a",
"w  c #a51e58",
"e  c #b0166f",
"r  c #a62253",
"t  c #b5264c",
"y  c #b64d67",
"u  c #db343b",
"i  c #e4363c",
"p  c #c11e69",
"a  c #cd2a4d",
"s  c #eb2c5c",
"d  c #e33342",
"f  c #ec2377",
"g  c #c87377",
"h  c #860089",
"j  c #8b0595",
"k  c #88118a",
"l  c #97008c",
"z  c #970498",
"x  c #9f148f",
"c  c #852e8e",
"v  c #8a2798",
"b  c #972399",
"n  c #a2008e",
"m  c #a80596",
"M  c #b70099",
"N  c #b510a4",
"B  c #8e5799",
"V  c #8c5ba6",
"C  c #8e639b",
"Z  c #96689e",
"A  c #8e63aa",
"S  c #946fa1",
"D  c #9c7ba4",
"F  c #ac45ad",
"G  c #b16cad",
"H  c #bd6bc1",
"J  c #c5019d",
"K  c #d3178a",
"L  c #c901a3",
"P  c #d011b1",
"I  c #d701a8",
"U  c #d805b4",
"Y  c #c936b6",
"T  c #d430b2",
"R  c #f01b8d",
"E  c #f2169c",
"W  c #e202ae",
"Q  c #e805b8",
"!  c #e914bc",
"~  c #f613a6",
"^  c #f028bc",
"/  c #ef08c1",
"(  c #fc09c7",
")  c #f71ac6",
"_  c #e92ac2",
"`  c #ed33c3",
"'  c #f327c5",
"]  c #ce45ad",
"[  c #c24eb1",
"{  c #cd4fb2",
"}  c #ca6fb2",
"|  c #e061be",
" . c #d65ec3",
".. c #de6ac5",
"X. c #d371cc",
"o. c #e749c4",
"O. c #e94ec5",
"+. c #f157ce",
"@. c #ed73d2",
"#. c #f26cd4",
"$. c #9988a6",
"%. c #a58baa",
"&. c #aa98ad",
"*. c #b891b4",
"=. c #aaa3b4",
"-. c #baa9b4",
";. c #b797c6",
":. c #bdbece",
">. c #ce8cb5",
",. c #ce99bd",
"<. c #d389be",
"1. c #d094bd",
"2. c #caa6bc",
"3. c #e08686",
"4. c #d196d1",
"5. c #d4b3d9",
"6. c #e493d8",
"7. c #f499e1",
"8. c #e1b0d9",
"9. c #cac8d7",
"0. c #d6d7e1",
"q. c #ecd9df",
"w. c #e6c8e7",
"e. c #f2d7f0",
"r. c #e5e5ec",
"t. c #f8e7f6",
"y. c #faf8fc",
"u. c None",
"u.u.u.u.u.u.u.u.u.u.u.u.u.u.u.u.u.u.u.u.u.u.u.u.u.u.u.u.u.u.u.u.u.u.u.u.u.u.u.u.u.u.",
"u.u.u.u.u.u.u.u.u.u.u.u.u.u.u.u.u.u.u.1.( ( ' 2.u.u.u.u.u.u.u.u.u.u.u.u.u.u.u.u.u.u.",
"u.u.u.u.u.u.u.u.u.u.u.u.u.u.u.u.u.u.1.( ( ( ( ' 2.u.u.u.u.u.u.u.u.u.u.u.u.u.u.u.u.u.",
"u.u.u.u.u.u.u.u.u.u.u.u.u.u.u.u.u.,.) ( ( ( ( ( ) ,.u.u.u.u.u.u.u.u.u.u.u.u.u.u.u.u.",
"u.u.u.u.u.u.u.u.u.u.u.u.u.u.u.u.u...( ( ( ( ( ( ( <.u.u.u.u.u.u.u.u.u.u.u.u.u.u.u.u.",
"u.u.u.u.u.u.u.u.u.u.u.-.u.u.Z B u.[ Q ( ( ( ( ( O.u.u.u.u.u.u.u.u.u.u.u.u.u.u.u.u.u.",
"u.u.u.u.u.u.u.u.u.*.*.l b F k v c 2 z N U Q ( ( o.u.u.u.u.u.u.u.u.u.u.u.u.u.u.u.u.u.",
"u.u.u.u.u.u.u.u.G n m m [ 8.w.w.G c - - 2 m Q ( ` u.u.u.u.u.u.u.u.u.u.u.u.u.u.u.u.u.",
"u.u.u.u.u.u.u.} J J M N 6.y.y.y.y.5.*.* % < z Q ( ' 2.u.u.u.u.u.u.u.u.u.u.u.u.u.u.u.",
"u.u.u.u.u.u.} I I I L L 6.y.y.y.y.y.y.5.% % * z Q ( ' 2.u.u.u.u.u.u.u.u.u.u.u.u.u.u.",
"u.u.u.u.u.} L I I I I I 6.y.y.y.y.y.y.y.;.% $ * z U ( ' 2.u.u.u.u.u.u.u.u.u.u.u.u.u.",
"u.u.u.u.-.M I W W W U I P w.y.y.y.y.y.y.w.V % O * L ( ( 1.u.u.u.u.u.u.u.u.u.u.u.u.u.",
"u.u.u.u.u.P W ` +.#._ ! P 6.t.y.7 9 9 y.y.;.% O + j ( <.u.u.u.u.u.u.u.u.u.u.u.u.u.u.",
"u.u.u.u.T I ^ t.t.t.e.7.o.T t.y.9 . . 9 y.y.8 O O % G u.u.u.u.u.u.u.u.u.u.u.u.u.u.u.",
"u.u.u.u.] W @.t.y.y.y.t.t...Y t.7 . . # y.y.A O O + $.u.u.u.u.u.u.u.u.u.u.u.u.u.u.u.",
"u.u.u.u.] W #.t.y.y.y.y.y.y.X.Y 8.> @ . r.q.A + O $ =.D D %.D C u.u.u.u.u.u.u.u.u.u.",
"u.u.u.u.T W o.y.y.y.y.y.=.u.9.X.N F 4.5.5.>.c $ = w r - * * * * 6 u.u.u.u.u.u.u.u.u.",
"u.u.u.u.{ W ^ 7.y.y.y.y.# . o ;.F j 2 v 3 N p t u i r * * * * * * 6 u.u.u.<.<...u.u.",
"u.u.u.u.{ U W +.t.y.y.r.X . . # H j 2 < - w i i u i q * * < * * * * 5 u.>.( ( ( O.u.",
"u.u.u.u.] I W W @.y.y.y.:.o o > w.b 2 : 0 i f K a u ; C %.u.&.S * * * 1 j / ( ( ( 1.",
"u.u.u.u.] I I U W @.y.y.y.9.0.u.w.h 2 q a i E E u r C u.u.u.u.u.1 * * * N ( ( ( ( } ",
"u.2.) ` Q I L I I I  .w.t.y.y.y.w.v 0 a d R ~ i u g u.u.u.u.u.u.1 * * 2 I ( ( ( ( u.",
"2.' ( ( ( U J J L L L Y  .8.8.3.[ e i d R ~ s i y u.u.u.u.u.u.-., * * z ( ( ( ( u.u.",
"' ( ( ( ( Q I J J M M M m m z x e i s E ~ s d r & u.u.u.u.u.u.u.< * h ( ( ( ( u.u.u.",
"( ( ( ( ( ( Q I M M m n l l h h e i f ~ d u r & &.u.u.u.u.u.u.u.4 * q ! ( ( u.u.u.u.",
"o.( ( ( ( ( ( Q I M n l l h 2 : a i a d u r & &.u.u.u.u.u.u.u.u.5 * U ( ( u.u.u.u.u.",
"' ( ( ( ( ( ( ( Q U M l h 2 : q u u i r y S %.u.u.u.u.u.u.u.u.u.u.Y ( ( u.u.u.u.u.u.",
"2.' ( ( ( ( ( ( ( ( Q M x h k q t q q c u.u.u.u.u.u.u.u.u.u.u.u.u.u.` u.u.u.u.u.u.u.",
"u.2.,.| ^ ) ` ` ( ( ( ` u.-.Z * - * 6 u.u.u.u.u.u.u.u.u.u.u.u.u.u.u.u.u.u.u.u.u.u.u.",
"u.u.u.u.u.u.u.u.1.( ' u.u.%.* * * 1 u.u.u.u.u.u.u.u.u.u.u.u.u.u.u.u.u.u.u.u.u.u.u.u.",
"u.u.u.u.u.u.u.u.u.1.2.u.u.u.< * * * &.u.u.u.u.u.u.u.u.u.u.u.u.u.u.u.u.u.u.u.u.u.u.u.",
"u.u.u.u.u.u.u.u.u.u.u.u.u.&.* * * , &.u.u.u.&.u.u.u.u.u.u.u.u.u.u.u.u.u.u.u.u.u.u.u.",
"u.u.u.u.u.u.u.u.u.u.u.u.u.u.D * * * , %.%.&.< 4 4 -.u.u.u.u.u.u.u.u.u.u.u.u.u.u.u.u.",
"u.u.u.u.u.u.u.u.u.u.u.u.u.u.Z * * * * * * , * * * 4 -.u.u.u.u.u.u.u.u.u.u.u.u.u.u.u.",
"u.u.u.u.u.u.u.u.u.u.u.u.u.u.u.B * * * * * * * , m J ^ 2.u.u.u.u.u.u.u.u.u.u.u.u.u.u.",
"u.u.u.u.u.u.u.u.u.u.u.u.u.u.u.u.C * * * * 2 2 U ( ( ( u.u.u.u.u.u.u.u.u.u.u.u.u.u.u.",
"u.u.u.u.u.u.u.u.u.u.u.u.u.u.u.u.u.S %.b m Q Q ( ( ( u.u.u.u.u.u.u.u.u.u.u.u.u.u.u.u.",
"u.u.u.u.u.u.u.u.u.u.u.u.u.u.u.u.u.u.u.<.( ( ( ( ( u.u.u.u.u.u.u.u.u.u.u.u.u.u.u.u.u.",
"u.u.u.u.u.u.u.u.u.u.u.u.u.u.u.u.u.u.2.) ( ( ( ( u.u.u.u.u.u.u.u.u.u.u.u.u.u.u.u.u.u.",
"u.u.u.u.u.u.u.u.u.u.u.u.u.u.u.u.u.u.u.) ( ( ( ( u.u.u.u.u.u.u.u.u.u.u.u.u.u.u.u.u.u.",
"u.u.u.u.u.u.u.u.u.u.u.u.u.u.u.u.u.u.2.( ( ( ( u.u.u.u.u.u.u.u.u.u.u.u.u.u.u.u.u.u.u.",
"u.u.u.u.u.u.u.u.u.u.u.u.u.u.u.u.u.u.u.u.u.u.u.u.u.u.u.u.u.u.u.u.u.u.u.u.u.u.u.u.u.u."
};
