/* XPM */
static char *pink_ball_destroy10[] = {
"42 42 57 1",
"  c #000000",
". c #661f74",
"X c #731279",
"o c #610380",
"O c #681886",
"+ c #74308d",
"@ c #775794",
"# c #9b1f5e",
"$ c #aa2874",
"% c #c52959",
"& c #d92a63",
"* c #e6266b",
"= c #88078c",
"- c #910394",
"; c #b40d9c",
": c #bc1ea8",
"> c #ba3582",
", c #bd22a3",
"< c #864d9b",
"1 c #984a9e",
"2 c #936b9f",
"3 c #997aa3",
"4 c #a545a6",
"5 c #b17fac",
"6 c #bf74b1",
"7 c #dc0bad",
"8 c #da1fb1",
"9 c #ce23b2",
"0 c #dd25b2",
"q c #e606b9",
"w c #fc0bc7",
"e c #f912c6",
"r c #f326c5",
"t c #db42b7",
"y c #dc54bd",
"u c #cc72b9",
"i c #db70bf",
"p c #e551c2",
"a c #a389a9",
"s c #aea4b0",
"d c #b1a4b1",
"f c #bfb8b8",
"g c #b689c0",
"h c #afa5c1",
"j c #b8a3c9",
"k c #d585be",
"l c #c7a7ba",
"z c #c2bbba",
"x c #cabad4",
"c c #d1aed6",
"v c #ee8edd",
"b c #ecafe3",
"n c #c1c1ba",
"m c #dfdee7",
"M c #e2dae9",
"N c #f9dbf3",
"B c None",
"BBBBBBBBBBBBBBBBBBBBBBBBBBBBBBBBBBBBBBBBBB",
"BBBBBBBBBBBBBBBBBBBBBBBBBBBBBBBBBBBBBBBBBB",
"BBBBBBBBBBBBBBBBBBBBBBBBBBBBBBBBBBBBBBBBBB",
"BBBBBBBBBBBBBBBBBBBBBBBBBBBBBBBBBBBBBBBBBB",
"BBBBBBBBBBBBBBBBBBBBBBBBBBBBBBBBBBBBBBBBBB",
"BBBBBBBBBBBBBBBBBBBBBBBBBBBBBBBBBBBBBBBBBB",
"BBBBBBBBBBBBBBBBBBBBBBBBBBBBBBBBBBBBBBBBBB",
"BBBBBBBBBBBBBBBBBBBBBBBBBBBBBBBBBBBBBBBBBB",
"BBBBBBBBBBBBBBBBBBBBBBBBBBBBBBBBBBBBBBBBBB",
"BBBBBBBBBBBBBBBBBBBBBBBBBBBBBBBBBBBBBBBBBB",
"BBBBBBBBBBBBBBBBBBBBBBBBBBBBBBBBBBBBBBBBBB",
"BBBBBBBBBBBBBBBBBBBBBBBBBBBBBBBBBBBBBBBBBB",
"BBBBBBBBBBBBBBBBBBBBBBBBBBBBBBBBBBBBBBBBBB",
"BBBBBBBBBBBBBBBBBBBBBBBBBBBBBBBBBBBBBBBBBB",
"BBBBBBBBBBBBBBBBBBBBBBBBBBBBBBBBBBBBBBBBBB",
"BBBBBBBBBBBBBBBBBBBBBBBBBBBBBBBBBBBBBBBBBB",
"BBBBBBBBBBBBBBBBBBBzlfBBBBBBBBBBBBBBBBBBBB",
"BBBBBBBBBBBBBBBBBBlt7,5BBBBBBBBBBBBBBBBBBB",
"BBBBBBBBBBBBBBBzpy0Nvbc9wlBBBBBBBBBBBBBBBB",
"BBBBBBBBBBBBBBBleq8mghM-rBBBBBBBBBBBBBBBBB",
"BBBBBBBBBBBBBBBBiq;x<@j=kBBBBBBBBBBBBBBBBB",
"BBBBBBBBBBBBBBBBBy=>$$.4kBBBBBBBBBBBBBBBBB",
"BBBBBBBBBBBBBBBBB3X%*&#2BBBBBBBBBBBBBBBBBB",
"BBBBBBBBBBBBBBBBB+2f3sdOBBBBBBBBBBBBBBBBBB",
"BBBBBBBBBBBBBBBBB1OaBB3ouBBBBBBBBBBBBBBBBB",
"BBBBBBBBBBBBBBBBkwq6nn:qeBBBBBBBBBBBBBBBBB",
"BBBBBBBBBBBBBBBBBBBBBBBBBBBBBBBBBBBBBBBBBB",
"BBBBBBBBBBBBBBBBBBBBBBBBBBBBBBBBBBBBBBBBBB",
"BBBBBBBBBBBBBBBBBBBBBBBBBBBBBBBBBBBBBBBBBB",
"BBBBBBBBBBBBBBBBBBBBBBBBBBBBBBBBBBBBBBBBBB",
"BBBBBBBBBBBBBBBBBBBBBBBBBBBBBBBBBBBBBBBBBB",
"BBBBBBBBBBBBBBBBBBBBBBBBBBBBBBBBBBBBBBBBBB",
"BBBBBBBBBBBBBBBBBBBBBBBBBBBBBBBBBBBBBBBBBB",
"BBBBBBBBBBBBBBBBBBBBBBBBBBBBBBBBBBBBBBBBBB",
"BBBBBBBBBBBBBBBBBBBBBBBBBBBBBBBBBBBBBBBBBB",
"BBBBBBBBBBBBBBBBBBBBBBBBBBBBBBBBBBBBBBBBBB",
"BBBBBBBBBBBBBBBBBBBBBBBBBBBBBBBBBBBBBBBBBB",
"BBBBBBBBBBBBBBBBBBBBBBBBBBBBBBBBBBBBBBBBBB",
"BBBBBBBBBBBBBBBBBBBBBBBBBBBBBBBBBBBBBBBBBB",
"BBBBBBBBBBBBBBBBBBBBBBBBBBBBBBBBBBBBBBBBBB",
"BBBBBBBBBBBBBBBBBBBBBBBBBBBBBBBBBBBBBBBBBB",
"BBBBBBBBBBBBBBBBBBBBBBBBBBBBBBBBBBBBBBBBBB"
};
