/* XPM */
static char *pink_ball_jump14[] = {
"42 42 81 1",
"  c #000000",
". c #0c1449",
"X c #11184c",
"o c #39006b",
"O c #3e0173",
"+ c #41006f",
"@ c #470175",
"# c #5a007e",
"$ c #62076a",
"% c #68027c",
"& c #66186f",
"* c #7a0c6d",
"= c #74027b",
"- c #5e0680",
"; c #660383",
": c #780287",
"> c #951772",
", c #bc284a",
"< c #db353a",
"1 c #e43838",
"2 c #d12952",
"3 c #d93141",
"4 c #eb2b5d",
"5 c #e53345",
"6 c #d96868",
"7 c #860088",
"8 c #8c0396",
"9 c #95038c",
"0 c #970297",
"q c #a5008f",
"w c #a80196",
"e c #b70098",
"r c #b8168a",
"t c #ab03a0",
"y c #b806a4",
"u c #b210a3",
"i c #ac3aaf",
"p c #8c59a5",
"a c #a25cad",
"s c #b45bb9",
"d c #a968a6",
"f c #c6009d",
"g c #ca02a6",
"h c #ce14af",
"j c #d802a9",
"k c #d703b2",
"l c #c23db2",
"z c #f11e83",
"x c #e202af",
"c c #e905b4",
"v c #f80ebb",
"b c #fb10b8",
"n c #fc09c7",
"m c #f912c6",
"M c #ea3ac7",
"N c #c57ac3",
"B c #db61c9",
"V c #f243c8",
"C c #a682bb",
"Z c #b784c5",
"A c #c183c4",
"S c #d782cc",
"D c #d897d6",
"F c #c9b0d6",
"G c #d7b1dc",
"H c #ddb6e0",
"J c #e08ad3",
"K c #e29ad8",
"L c #f398e1",
"P c #e6b7e3",
"I c #f7abe6",
"U c #f7b4e9",
"Y c #f7c8b3",
"T c #eed0ed",
"R c #f4cfef",
"E c #f2d4ef",
"W c #f8d4f2",
"Q c #ede5f1",
"! c #f5eaf6",
"~ c #faf8fc",
"^ c None",
"^^^^^^^^^^^^^^^^^^^^^^^^^^^^^^^^^^^^^^^^^^",
"^^^^^^^^^^^^^^^^^^^^^^^^^^^^^^^^^^^^^^^^^^",
"^^^^^^^^^^^^^^^^^^^^^^^^^^^^^^^^^^^^^^^^^^",
"^^^^^nnnnnnnnn^^^^^^^^^^nnnnnnnnm^^^^^^^^^",
"^^^^mnnnnnnnnn^^^^^^^^^^bnnnnnnnnm^^^^^^^^",
"^^^^nnnnnnnv>#^^^^^^^^^^%rnnnnnnnm^^^^^^^^",
"^^^^nnnnj9;###^^^^^^^^^^####ynnmm^^^^^^^^^",
"^^^^^nn0#####-^^^^^^^^^^#####%u^^^^^^^^^^^",
"^^^^^^^^####-^^^^^^^^^^^^#####-^^^^^^^^^^^",
"^^^^^^^^###-^^^^^^^^^^^^^^^####-^^^^^^^^^^",
"^^^^^^^^##-^^^^^^^^^^^^^^^^^###-^^^^^^^^^^",
"^^^^^^^^##-^^^^^^^^^^^^^^^^^###-^^^^^^^^^^",
"^^^^^^^^###-^^^^^^^^^^^^^^^^####^^^^^^^^^^",
"^^^^^^^^####-^^^^@O+@#^^^^^####;^^^^^^^^^^",
"^^^^^^^^^#####&<<<11<<<*%######^^^^^^^^^^^",
"^^^^^^^^^^###*1<15445<<1<*####-^^^^^^^^^^^",
"^^^^^^^^^^^#,1,ynnnnnnn211,#--^^^^^^^^^^^^",
"^^^^^^^^^^^^$<15z5355z511<=:^^^^^^^^^^^^^^",
"^^^^^^^^^^^Ooo5111,,11157===9^^^^^^^^^^^^^",
"^^^^^^^mmm;ooo7y#%=;::ww777:7wnnn^^^^^^^^^",
"^^^^^^^nnn@oo+Yd-;:::G~699977wnnn^^^^^^^^^",
"^^^^^^^nn8OoOC~~Z::8H~~~Pw099qcnn^^^^^^^^^",
"^^^^^^^nn8OO@~~X~88i~.~~~lwwqqjnnn^^^^^^^^",
"^^^^^^^nn8+@p~X..s0D...~~Keeeejnnnn^^^^^^^",
"^^^^^^nn8+@F~....GtT....~Egfeejnnnnb^^^^^^",
"^^^^^^nn8@@Q~....Qy!....~~jgffjnnnnn^^^^^^",
"^^^^mmnn0@#~~....~g~....~~xjgfjnnnnnn^^^^^",
"^^^^nnnn0##Q~....!g!....~~cjjfjnnnnnn^^^^^",
"^^^^nnnnn;#F~....PkR....~Wcjggnnnnnnm^^^^^",
"^^^^nnnnnt%a~~...BkL...~~Lcjjjmnnnnn^^^^^^",
"^^^^nnnnnk=:~~~.~hkM~.~~~Vcjg^^mmmmm^^^^^^",
"^^^nnnnnn^^:A~~~JgjcU~~~Ucxj^^^^^^^^^^^^^^",
"^^^^^^^^^^^%7N~SggjxcI~Ucxj^^^^^^^^^^^^^^^",
"^^^^^^^^^^^^^9qeegjxxccxxj^^^^^^^^^^^^^^^^",
"^^^^^^^^^^^^^^9qefjjjjjjg^^^^^^^^^^^^^^^^^",
"^^^^^^^^^^^^^^^^9efgjfe^^^^^^^^^^^^^^^^^^^",
"^^^^^^^^^^^^^^^^^^^^^^^^^^^^^^^^^^^^^^^^^^",
"^^^^^^^^^^^^^^^^^^^^^^^^^^^^^^^^^^^^^^^^^^",
"^^^^^^^^^^^^^^^^^^^^^^^^^^^^^^^^^^^^^^^^^^",
"^^^^^^^^^^^^^^^^^^^^^^^^^^^^^^^^^^^^^^^^^^",
"^^^^^^^^^^^^^^^^^^^^^^^^^^^^^^^^^^^^^^^^^^",
"^^^^^^^^^^^^^^^^^^^^^^^^^^^^^^^^^^^^^^^^^^"
};
