/* XPM */
static char *pink_ball_jump10[] = {
"42 42 80 1",
"  c #000000",
". c #0c1449",
"X c #39006c",
"o c #3d0074",
"O c #41006f",
"+ c #470174",
"@ c #5f066b",
"# c #5a007d",
"$ c #68017a",
"% c #7a0d6c",
"& c #74027b",
"* c #5e0084",
"= c #6a0083",
"- c #691c86",
"; c #780186",
": c #7c4092",
"> c #95186f",
", c #bb2849",
"< c #cd303f",
"1 c #db353a",
"2 c #e43738",
"3 c #c22a48",
"4 c #d12953",
"5 c #df3243",
"6 c #eb2b5d",
"7 c #e63346",
"8 c #d96666",
"9 c #870088",
"0 c #8a0395",
"q c #95008c",
"w c #950296",
"e c #a5008f",
"r c #a80097",
"t c #b70098",
"y c #b71787",
"u c #ad04a0",
"i c #b805a5",
"p c #ac3aaf",
"a c #8e5ca7",
"s c #a25cad",
"d c #b65cba",
"f c #a969a6",
"g c #a17cb8",
"h c #c6009e",
"j c #cc01a6",
"k c #d901a9",
"l c #d702b2",
"z c #c13ab1",
"x c #f11e84",
"c c #e202af",
"v c #e903b4",
"b c #fc0ebe",
"n c #fc11b8",
"m c #fc08c7",
"M c #ea3cc8",
"N c #f23ec7",
"B c #da5cc7",
"V c #c67cc4",
"C c #d57cca",
"Z c #9f80a6",
"A c #a885bd",
"S c #b885c5",
"D c #c285c5",
"F c #df85d1",
"G c #d998d7",
"H c #ccb4d8",
"J c #d5b2db",
"K c #deb5e1",
"L c #e298d7",
"P c #f49ae1",
"I c #e6b5e3",
"U c #f8b5e9",
"Y c #f9cbb4",
"T c #efd3ee",
"R c #f2d3ef",
"E c #f7d4f2",
"W c #efe9f3",
"Q c #f4e9f6",
"! c #faf9fc",
"~ c None",
"~~~~~~~~~~~~~~~~~~~~~~~~~~~~~~~~~~~~~~~~~~",
"~~~~~~~~~~~~~~~~~~~~~~~~~~~~~~~~~~~~~~~~~~",
"~~~~~~~~~~~~~~~~~~~~~~~~~~~~~~~~~~~~~~~~~~",
"~~~~~~~~~~~~~~~~~~~~~~~~~~~~~~~~~~~~~~~~~~",
"~~~~~~~~~~~~~~~~~~~~~~~~~~~~~~~~~~~~~~~~~~",
"~~~~~~~~~~~~~~~~~~~~~~~~~~~~~~~~~~~~~~~~~~",
"~~~~~~~~~~~~~~~~~~~~~~~~~~~~~~~~~~~~~~~~~~",
"~~~~~~~~~~~~~~~~~~~~~~~~~~~~~~~~~~~~~~~~~~",
"~~~~~~~~~~~~~~~~~~~~~~~~~~~~~~~~~~~~~~~~~~",
"~~~~~~~~~~~~~~~~~~~~~~~~~~~~~~~~~~~~~~~~~~",
"~~~~~~~~~~~~~~~~~~~~~~~~~~~~~~~~~~~~~~~~~~",
"~~~~~~~~~~~~~~~~~~~~~~~~~~~~~~~~~~~~~~~~~~",
"~~~~~~~~~~~~~~~~~~~~~~~~~~~~~~~~~~~~~~~~~~",
"~~~~~~~~~~~~~~~~~~~~~~~~~~~~~~~~~~~~~~~~~~",
"~~~~~~~~~~~~~~~~thjjhtq~~~~~~~~~~~~~~~~~~~",
"~~~~~~~~~~~~~~jkkkkkjhteq~~~~~~~~~~~~~~~~~",
"~~~~~~~~~~~~~kccvvcckjtte9~~~~~~~~~~~~~~~~",
"~~~~~~~~~~~~kcvU!UvckjhC!V9$~~~~~~~~~~~~~~",
"~~~~~~~~~~~kcvU!!!UvljF!!!D;~~mmmmmm~~~~~~",
"~~~mmmmm~~jkcN!!!!!Mlj!!!!!;$lmmmmmm~~~~~~",
"~~~mmmmmmkklvP!!!!!PlB!!!!!s$rmmmmmm~~~~~~",
"~~mmmmmmmjjlvE!!!!!ElI!!!!!J#=mmmmmm~~~~~~",
"~~mmmmmmkhjkc!!!!!!!jQ!!!!!W##wmmmmm~~~~~~",
"~~mmmmmmkhjkl!!!!.!!i!!.!!!!#+wmmmmm~~~~~~",
"~~~mmmmmkhhjk!!!...!iQ...!!W++wmmm~~~~~~~~",
"~~~nmmmmktthjR!!...TrK...!!H+O0mm~~~~~~~~~",
"~~~~mmmmkttttL!!...Gwd...!!a+o0mm~~~~~~~~~",
"~~~~~mmmkeerrz!!!.!p00!.!!!+oo0mm~~~~~~~~~",
"~~~~~~mmveqqweI!!!K0;;S!!!AoXo0mm~~~~~~~~~",
"~~~~~~mmmr99qqq8!J;;;=*fYgOXX+mmm~~~~~~~~~",
"~~~~~~mmmr99999rr;;=&$#i9OXXX*mmm~~~~~~~~~",
"~~~~~~~~~~q&&&97222,,2227XXXo~~~~~~~~~~~~~",
"~~~~~~~~~~~;&1227x2752x722<@~~~~~~~~~~~~~~",
"~~~~~~~~~###3224mmmmmmmi,223###~~~~~~~~~~~",
"~~~~~~~:#####%121176672122####:#~~~~~~~~~~",
"~~~~~~~####-ZZ$%<112211<##~#####~~~~~~~~~~",
"~~~~~~~~####:#~~~#+Ooo##~~~~####~~~~~~~~~~",
"~~~~~~~~i######~~~~~~~~~~~~#####wmm~~~~~~~",
"~~~~~~mmmmu####~~~~~~~~~~~####qkmmmm~~~~~~",
"~~~~~mmmmmmmmy#~~~~~~~~~~##>bmmmmmmm~~~~~~",
"~~~~~mmmmmmmmmn~~~~~~~~~~mmmmmmmmmmm~~~~~~",
"~~~~~~mmmmmmmmm~~~~~~~~~~mmmmmmmmm~~~~~~~~"
};
