/* XPM */
static char *pink_ball_destroy2[] = {
"42 42 129 2",
"   c #000000",
".  c #0c1449",
"X  c #151b50",
"o  c #1d2456",
"O  c #3b006c",
"+  c #370070",
"@  c #242b5b",
"#  c #353c68",
"$  c #3f456f",
"%  c #41016c",
"&  c #460274",
"*  c #5a007d",
"=  c #4a3874",
"-  c #65037b",
";  c #750e6f",
":  c #750579",
">  c #4b4e78",
",  c #5e0480",
"<  c #660381",
"1  c #661786",
"2  c #7b0188",
"3  c #7c0d89",
"4  c #6d2a8b",
"5  c #77358f",
"6  c #794496",
"7  c #6d7192",
"8  c #83165c",
"9  c #9d1a5c",
"0  c #89116c",
"q  c #ad1f55",
"w  c #b0186a",
"e  c #ac2252",
"r  c #b8274b",
"t  c #b5667c",
"y  c #cf313e",
"u  c #db343b",
"i  c #e4373a",
"p  c #c31d70",
"a  c #d32c4d",
"s  c #db3143",
"d  c #de2170",
"f  c #e72c5a",
"g  c #e53442",
"h  c #ec2964",
"j  c #ef2375",
"k  c #850189",
"l  c #870492",
"z  c #8e1c90",
"x  c #96028b",
"c  c #9b0599",
"v  c #8e2a94",
"b  c #9532a3",
"n  c #a6078c",
"m  c #a80195",
"M  c #aa1a9a",
"N  c #b0098f",
"B  c #b70298",
"V  c #af1ca9",
"C  c #b02b97",
"Z  c #b026ac",
"A  c #875398",
"S  c #856099",
"D  c #9b729d",
"F  c #956fac",
"G  c #9a77a3",
"H  c #aa4caa",
"J  c #a86f99",
"K  c #ae70a6",
"L  c #bd62bf",
"P  c #bb75c2",
"I  c #c5009d",
"U  c #ca03a7",
"Y  c #d802a9",
"T  c #db06b6",
"R  c #d618b1",
"E  c #c929a8",
"W  c #cf28b4",
"Q  c #d526ac",
"!  c #e202ae",
"~  c #e706b7",
"^  c #e81ebe",
"/  c #f80db8",
"(  c #eb28be",
")  c #fc08c6",
"_  c #f618c5",
"`  c #ee28c2",
"'  c #ed38c4",
"]  c #f422c5",
"[  c #c751b5",
"{  c #d67597",
"}  c #c677b3",
"|  c #d979bf",
" . c #e552bd",
".. c #db50c5",
"X. c #dc6cc1",
"o. c #d373c9",
"O. c #e94ac3",
"+. c #ef51cd",
"@. c #f26dd3",
"#. c #8586a4",
"$. c #998eae",
"%. c #b18091",
"&. c #ac8bab",
"*. c #ac98ad",
"=. c #aca1af",
"-. c #b5a7b3",
";. c #b4afc8",
":. c #c88787",
">. c #c786b5",
",. c #cc99bc",
"<. c #d487be",
"1. c #d192bc",
"2. c #caa5bc",
"3. c #cc90cc",
"4. c #cfadd6",
"5. c #ee8dda",
"6. c #eab5e5",
"7. c #f6afe7",
"8. c #cfcfdb",
"9. c #ddd4e6",
"0. c #f3dadb",
"q. c #ead8ec",
"w. c #f1cded",
"e. c #f7dbf3",
"r. c #ede1eb",
"t. c #efe2f1",
"y. c #f5ebf6",
"u. c #faf9fc",
"i. c None",
"i.i.i.i.i.i.i.i.i.i.i.i.i.i.i.i.i.i.i.i.i.i.i.i.i.i.i.i.i.i.i.i.i.i.i.i.i.i.i.i.i.i.",
"i.i.i.i.i.i.i.i.i.i.i.i.i.i.i.i.i.i.i.i.i.i.i.i.i.i.i.i.i.i.i.i.i.i.i.i.i.i.i.i.i.i.",
"i.i.i.i.i.i.i.i.i.i.i.i.i.i.i.i.i.i.i.i.i.i.i.i.i.i.i.i.i.i.i.i.i.i.i.i.i.i.i.i.i.i.",
"i.i.i.i.i.i.i.i.i.i.i.i.i.i.i.i.i.i.i.i.i.i.i.i.i.i.i.i.i.i.i.i.i.i.i.i.i.i.i.i.i.i.",
"i.i.i.i.i.i.i.i.i.i.i.i.i.i.i.i.i.i.i.i.i.i.i.i.i.i.i.i.i.i.i.i.i.i.i.i.i.i.i.i.i.i.",
"i.i.i.i.i.i.i.i.i.i.i.i.i.i.i.i.i.i.i.i.i.i.i.i.i.i.i.i.i.i.i.i.i.i.i.i.i.i.i.i.i.i.",
"i.i.i.i.i.i.i.i.i.i.i.i.i.i.i.&.C E E E E C C &.i.i.i.i.i.i.i.i.i.i.i.i.i.i.i.i.i.i.",
"i.i.i.i.i.i.i.i.i.i.i.i.i.} E Q U Y Y Y U I B C C K i.i.i.i.i.i.i.i.i.i.i.i.i.i.i.i.",
"i.i.i.i.i.i.i.i.i.i.i.i.} Q Y ! ! ! ! Y Y U B B m M K i.i.i.i.i.i.i.i.i.i.i.i.i.i.i.",
"i.i.i.i.i.i.i.i.i.i.i.} Q ! ( @.@.+.~ ! Y U U E [ L H J D i.i.i.i.i.i.i.i.i.i.i.i.i.",
"i.i.i.i.i.i.i.i.i.i.>.Q ! ( 5.e.y.7.+.~ Y U W o.w.q.3.v 3 i.i.<.| | | | | <.i.i.i.i.",
"i.,.<.<.<.<.1.i.i.>.R ! ~ @.e.u.u.u.w.^ T U o.e.u.u.t.3.3 &.>._ ) ) ) ) ) ' i.i.i.i.",
"i.O.) ) ) ) ] ,.,.U Y ! ' 7.u.u.u.u.u.+.T R 6.u.u.u.u.9.z - U ) ) ) ) ) ) ' i.i.i.i.",
"2.' ) ) ) ) ) ) Y Y Y ! @.w.u.u.u.u.u.7.R ..w.u.u.u.u.q.H - c ~ ) ) ) ) ) ' i.i.i.i.",
"' ) ) ) ) ) ) ) U U Y ! 5.y.u.u.u.u.u.e.R 5.t.u.u.u.u.y.4.* < T ) ) ) ) ) ' i.i.i.i.",
"' ) ) ) ) ) ) Y I U Y ! 5.u.u.u.u.u.u.u.W 6.u.u.u.u.u.u.9.* * l T ) ) ) ) ' i.i.i.i.",
"' ) ) ) ) ) ) Y I U Y Y 5.u.u.u.8.> u.u.W 6.u.#.$.u.u.u.q.* & l T ) ) ) ) ' i.i.i.i.",
"2.' ) ) ) ) ) Y I I U Y 5.u.u.;.# X > y.Z 6.7 @ @ #.u.u.q.& & l T ) ) O.,.,.i.i.i.i.",
"i. .) ) ) ) ) Y B I I U 5.y.u.;.. . X q.V 3.> . . 7 u.y.4.& % l T ) O.2.i.i.i.i.i.i.",
"i.1.' ) ) ) ) Y B B B B X.e.u.;.. . X 4.V L = . . 7 u.r.F & % 2 T ) X.i.i.i.i.i.i.i.",
"i.i.1.' ) ) ) U m m B B W 6.u.8.7 o #.o.c b F $ > i.u.9.4 % O 2 T ) X.i.i.i.i.i.i.i.",
"i.i.i.1.' ) ) T m n m m M 3.y.u.9.#.q.b l l 3.$.i.u.y.;.& O O 2 T ) X.i.i.i.i.i.i.i.",
"i.i.i.i.| ) ) ~ m x x x x Z 3.0.u.q.P l 2 2 b 3.q.r.4.6 O O % c ~ ) X.i.i.i.i.i.i.i.",
"i.i.i.i.| ) ) / m x k k k k C { 6.L 2 2 2 < < v } &.6 O O O & T ) ) X.i.i.i.i.i.i.i.",
"i.i.i.i.<.] ] ` M x k 2 k k x N n 0 0 : : ; ; x N : O O O + 1 R ] ] | i.i.i.i.i.i.i.",
"i.i.i.i.i.i.i.i.i.z 2 : : 0 w g i i u r r u i i i e % O O + i.i.i.i.i.i.i.i.i.i.i.i.",
"i.i.i.i.i.i.i.i.i.i.z : q u i i f j i s s g h h g i u r ; i.i.i.i.i.i.i.i.i.i.i.i.i.",
"i.i.i.i.i.i.i.i.1 1 - 9 s i s d / / / / / / / Y p y i u e 1 i.i.i.i.i.i.i.i.i.i.i.i.",
"i.i.i.i.i.i.-.4 * * * - 0 r i g f f h j j h f f s u a 0 ; * 4 -.i.i.i.i.i.i.i.i.i.i.",
"i.i.i.i.i.i.*.* * * * * - ; 9 e u u u g g i u u r 8 ; - * * * 5 *.i.i.i.i.i.i.i.i.i.",
"i.i.i.i.i.=.6 * * * * A G G D J t 8 8 8 8 8 t :.%.G G S * * * * 5 &.i.i.i.i.i.i.i.i.",
"i.i.i.i.i.&.* * * * A -.i.i.i.i.-.S S S S 7 =.i.i.i.i.-.A * * * * G i.i.i.i.i.i.i.i.",
"i.i.i.i.i.&.* * * * *.i.i.i.i.i.i.i.i.i.i.i.i.i.i.i.i.i.i.A , * * G i.i.i.i.i.i.i.i.",
"i.i.i.i.i.&.* * * * *.i.i.i.i.i.i.i.i.i.i.i.i.i.i.i.i.i.i.i.1 * * G i.i.i.i.i.i.i.i.",
"i.i.i.i.i.&.* * * * G i.i.i.i.i.i.i.i.i.i.i.i.i.i.i.i.i.i.*.< * * G i.i.i.i.i.i.i.i.",
"i.i.i.i.i.*.1 * * * * G -.-.i.i.i.i.i.i.i.i.i.i.i.i.i.i.*.* * * * G i.i.i.i.i.i.i.i.",
"i.i.i.i.i.i.=., * * * * * S i.i.i.i.i.i.i.i.i.i.i.i.i.*.* * * * * G i.i.i.i.i.i.i.i.",
"i.i.i.i.i.i.-.m - * * * * * A i.i.i.i.i.i.i.i.i.i.i.&., * * * * * l U _ O.i.i.i.i.i.",
"i.i.i.i.<.] _ ) ~ m < * * * A i.i.i.i.i.i.i.i.i.i.$.1 * * * * k B ~ ) ) _ O.i.i.i.i.",
"i.i.i.| ] ) ) ) ) ~ T T N 3 A i.i.i.i.i.i.i.i.i.i.G * - 0 T T ~ / ) ) ) ) ' i.i.i.i.",
"i.i.i.X.) ) ) ) ) ) ) ) / Y [ i.i.i.i.i.i.i.i.i.i.} U U T ) ) ) ) ) ) ) ) ' i.i.i.i.",
"i.i.i.,.O.) ) ) ) ) ) ) ) )  .i.i.i.i.i.i.i.i.i.i.| ) ) ) ) ) ) ) ) ) ) ` <.i.i.i.i."
};
