/* XPM */
static char *pink_ball_destroy9[] = {
"42 42 85 1",
"  c #000000",
". c #313464",
"X c #490d70",
"o c #5a017e",
"O c #780678",
"+ c #751e7f",
"@ c #620982",
"# c #661584",
"$ c #712c8c",
"% c #7f328c",
"& c #7b3e91",
"* c #7e7a9d",
"= c #a81b60",
"- c #b92946",
"; c #bb2f69",
": c #c5385b",
"> c #d42f47",
", c #d6275f",
"< c #cb2f6e",
"1 c #eb2278",
"2 c #8b1793",
"3 c #99008d",
"4 c #872896",
"5 c #bd009a",
"6 c #b2189f",
"7 c #ab15a2",
"8 c #ba06a6",
"9 c #ad3d9f",
"0 c #b62aa1",
"q c #8b5fa0",
"w c #9a618b",
"e c #91669e",
"r c #8c63a9",
"t c #9872a2",
"y c #aa519f",
"u c #a740ad",
"i c #bc56a7",
"p c #a97a92",
"a c #b26bb7",
"s c #b174b8",
"d c #c706ae",
"f c #cb0bb2",
"g c #d602a9",
"h c #de04b0",
"j c #d320b1",
"k c #de34ba",
"l c #e208bb",
"z c #e516b4",
"x c #e030b8",
"c c #fa09c6",
"v c #f618c6",
"b c #ee37c4",
"n c #f030c4",
"m c #c853ac",
"M c #d857bd",
"N c #c878b6",
"B c #d978bf",
"V c #e144bd",
"C c #dd6cc0",
"Z c #e94ac4",
"A c #e860cf",
"S c #9093ad",
"D c #a589a7",
"F c #a983b7",
"G c #ab97ac",
"H c #b19fae",
"J c #b999b2",
"K c #b6adb4",
"L c #beb8b8",
"P c #b8b9ca",
"I c #cb99ba",
"U c #d388bc",
"Y c #c8a5ba",
"T c #c2bcba",
"R c #cf99ce",
"E c #d495d3",
"W c #cab0d5",
"Q c #f495df",
"! c #eaa5e1",
"~ c #c1c1ba",
"^ c #ecccea",
"/ c #f8daf3",
"( c #f4e9f5",
") c #faf8fc",
"_ c None",
"__________________________________________",
"__________________________________________",
"__________________________________________",
"__________________________________________",
"__________________________________________",
"__________________________________________",
"__________________________________________",
"__________________________________________",
"__________________________________________",
"__________________________________________",
"__________________________________________",
"__________________________________________",
"__________________________________________",
"_________________TnvI_____________________",
"_________________UccVIIYT_________________",
"_________________BchgzZxmT________________",
"_________________bg5k/)Qgi~_______________",
"________________LN36^P(Aj0L_______________",
"_______________e$%O9P.E!(RH_______________",
"_____________Yto$+><auqS)sJ_______________",
"____________Cv7#KH:1=4*PW2vC______________",
"_____________cl@__w,1;Fr@dcv______________",
"______________cyL__p:-X@fZbI______________",
"_______________T~___DOGMCT________________",
"________________~~LTHoD___________________",
"_________________I2#@&____________________",
"__________________c82L____________________",
"___________________ccB____________________",
"__________________________________________",
"__________________________________________",
"__________________________________________",
"__________________________________________",
"__________________________________________",
"__________________________________________",
"__________________________________________",
"__________________________________________",
"__________________________________________",
"__________________________________________",
"__________________________________________",
"__________________________________________",
"__________________________________________",
"__________________________________________"
};
