/* XPM */
static char *pink_ball_destroy1[] = {
"42 42 78 1",
"  c #000000",
". c #0c1449",
"X c #39006c",
"o c #3d0074",
"O c #41006f",
"+ c #470174",
"@ c #5f066b",
"# c #5a007e",
"$ c #68017a",
"% c #63156f",
"& c #790c6d",
"* c #74027b",
"= c #5e0084",
"- c #6a0083",
"; c #780186",
": c #95186f",
"> c #bb2849",
", c #cd303f",
"< c #db353a",
"1 c #e43738",
"2 c #c22a48",
"3 c #d12953",
"4 c #df3243",
"5 c #eb2b5d",
"6 c #e63346",
"7 c #d96666",
"8 c #870088",
"9 c #8a0395",
"0 c #95008c",
"q c #950296",
"w c #a5008f",
"e c #a80097",
"r c #b70098",
"t c #b71787",
"y c #ad04a0",
"u c #b805a5",
"i c #ac3aaf",
"p c #8e5ca7",
"a c #a25cad",
"s c #b65cba",
"d c #a969a6",
"f c #a17cb8",
"g c #c6009e",
"h c #cc01a6",
"j c #d901a9",
"k c #d702b2",
"l c #c13ab1",
"z c #f11e84",
"x c #e202af",
"c c #e903b4",
"v c #fc0ebe",
"b c #fc11b8",
"n c #fc08c7",
"m c #ea3cc8",
"M c #f23ec7",
"N c #da5cc7",
"B c #c67cc4",
"V c #d57cca",
"C c #a885bd",
"Z c #b885c5",
"A c #c285c5",
"S c #df85d1",
"D c #d998d7",
"F c #ccb4d8",
"G c #d5b2db",
"H c #deb5e1",
"J c #e298d7",
"K c #f49ae1",
"L c #e6b5e3",
"P c #f8b5e9",
"I c #f9cbb4",
"U c #efd3ee",
"Y c #f2d3ef",
"T c #f7d4f2",
"R c #efe9f3",
"E c #f4e9f6",
"W c #faf9fc",
"Q c None",
"QQQQQQQQQQQQQQQQQQQQQQQQQQQQQQQQQQQQQQQQQQ",
"QQQQQQQQQQQQQQQQQQQQQQQQQQQQQQQQQQQQQQQQQQ",
"QQQQQQQQQQQQQQQQQQQQQQQQQQQQQQQQQQQQQQQQQQ",
"QQQQQQQQQQQQQQQQQQQQQQQQQQQQQQQQQQQQQQQQQQ",
"QQQQQQQQQQQQQQQQQQQQQQQQQQQQQQQQQQQQQQQQQQ",
"QQQQQQQQQQQQQQQQQQQQQQQQQQQQQQQQQQQQQQQQQQ",
"QQQQQQQQQQQQQQQQQQQQQQQQQQQQQQQQQQQQQQQQQQ",
"QQQQQQQQQQQQQQQQQQQQQQQQQQQQQQQQQQQQQQQQQQ",
"QQQQQQQQQQQQQQQQQQQQQQQQQQQQQQQQQQQQQQQQQQ",
"QQQQQQQQQQQQQQQQrghhgr0QQQQQQQQQQQQQQQQQQQ",
"QQQQQQQQQQQQQQhjjjjjhgrw0QQQQQQQQQQQQQQQQQ",
"QQQQQQQQQQQQQjxccccxjhrrw8QQQQQQQQQQQQQQQQ",
"QQQQQQQQQQQQjxcPWPccjhgVWB8$QQQQQQQQQQQQQQ",
"QQQQQQQQQQQjxcPWWWPcjhSWWWA;QQnnnnnnQQQQQQ",
"QQQnnnnnQQhjcMWWWWWmkhWWWWW;$knnnnnnQQQQQQ",
"QQQnnnnnnjjjcKWWWWWKkNWWWWWa$ennnnnnQQQQQQ",
"QQnnnnnnnhhjcTWWWWWTkLWWWWWG#-nnnnnnQQQQQQ",
"QQnnnnnnjghjcWWWWWWWhEWWWWWR##qnnnnnQQQQQQ",
"QQnnnnnnjghjjWWWW.WWuWW.WWWW#+qnnnnnQQQQQQ",
"QQQnnnnnjgghjWWW...WuE...WWR++qnnnQQQQQQQQ",
"QQQbnnnnjrrghYWW...UeH...WWF+O9nnQQQQQQQQQ",
"QQQQnnnnjrrrrJWW...Dqs...WWp+o9nnQQQQQQQQQ",
"QQQQQnnnjwweelWWW.Wi99W.WWW+oo9nnQQQQQQQQQ",
"QQQQQQnncw00qwLWWWH98;ZWWWCoXo9nnQQQQQQQQQ",
"QQQQQQnnne880007WG8;;-=dIfOXX+nnnQQQQQQQQQ",
"QQQQQQnnne88888ee;;-*$#u8OXXX=nnnQQQQQQQQQ",
"QQQQQQQQQQ0***8611<>><116XXXoQQQQQQQQQQQQQ",
"QQQQQQQQQQQ;*<116z1641z611,@QQQQQQQQQQQQQQ",
"QQQQQQQQQ###2113nnnnnnnu>112#QQQQQQQQQQQQQ",
"QQQQQQQQ#####&<1<<65561<1<&###QQQQQQQQQQQQ",
"QQQQQQQQ######$&,<<11<<,%######QQQQQQQQQQQ",
"QQQQQQQ#####QQQQQ#+OooQQQQQ#####QQQQQQQQQQ",
"QQQQQQQ####QQQQQQQQQQQQQQQQQ####QQQQQQQQQQ",
"QQQQQQQ####QQQQQQQQQQQQQQQQQQ###QQQQQQQQQQ",
"QQQQQQQ####QQQQQQQQQQQQQQQQQQ###QQQQQQQQQQ",
"QQQQQQQ#####QQQQQQQQQQQQQQQQ####QQQQQQQQQQ",
"QQQQQQQQ######QQQQQQQQQQQQQ#####QQQQQQQQQQ",
"QQQQQQQQu######QQQQQQQQQQQ######qnnQQQQQQQ",
"QQQQQQnnnny####QQQQQQQQQQ#####0jnnnnQQQQQQ",
"QQQQQnnnnnnnnt#QQQQQQQQQQ##:vnnnnnnnQQQQQQ",
"QQQQQnnnnnnnnnbQQQQQQQQQQnnnnnnnnnnnQQQQQQ",
"QQQQQQnnnnnnnnnQQQQQQQQQQnnnnnnnnnnQQQQQQQ"
};
