/* XPM */
static char *pink_ball_jump11[] = {
"42 42 128 2",
"   c #000000",
".  c #0c1449",
"X  c #1c2355",
"o  c #39006c",
"O  c #23245a",
"+  c #440172",
"@  c #4f167b",
"#  c #5a007d",
"$  c #7a135c",
"%  c #68047a",
"&  c #681168",
"*  c #760579",
"=  c #52587e",
"-  c #5e0680",
";  c #521a80",
":  c #680182",
">  c #661785",
",  c #770287",
"<  c #6b2789",
"1  c #67338a",
"2  c #732f8d",
"3  c #7a3c91",
"4  c #7a4394",
"5  c #765295",
"6  c #63688a",
"7  c #8e0f70",
"8  c #881168",
"9  c #a81e57",
"0  c #a51766",
"q  c #bb1b6a",
"w  c #ad2153",
"e  c #b4254e",
"r  c #db343c",
"t  c #e3363b",
"y  c #c72d45",
"u  c #d42f47",
"i  c #d32c4c",
"p  c #d8236b",
"a  c #e82e54",
"s  c #e43245",
"d  c #ec2867",
"f  c #ed2179",
"g  c #d54147",
"h  c #c87d7f",
"j  c #860188",
"k  c #890393",
"l  c #99008d",
"z  c #970c95",
"x  c #872595",
"c  c #933998",
"v  c #a90396",
"b  c #ba0299",
"n  c #b51b99",
"m  c #ae04a0",
"M  c #b706a5",
"N  c #a72d99",
"B  c #aa3daa",
"V  c #b837a6",
"C  c #834d96",
"Z  c #875498",
"A  c #965090",
"S  c #8c50a2",
"D  c #846699",
"F  c #93699e",
"G  c #9568ad",
"H  c #9a79a4",
"J  c #b74ab7",
"K  c #b562ba",
"L  c #c6039d",
"P  c #d7168e",
"I  c #ca01a4",
"U  c #d00cb4",
"Y  c #d801a9",
"T  c #db06b4",
"R  c #d814a9",
"E  c #ce2eae",
"W  c #f31b90",
"Q  c #e201ae",
"!  c #e907b8",
"~  c #f013b7",
"^  c #ee28bf",
"/  c #fc09c7",
"(  c #f516c5",
")  c #ed39c3",
"_  c #f327c4",
"`  c #cc54af",
"'  c #cb6bb5",
"]  c #c87ab2",
"[  c #d879bf",
"{  c #d956c5",
"}  c #c061c0",
"|  c #dd68c5",
" . c #d078ca",
".. c #e945c3",
"X. c #e856c5",
"o. c #e164c5",
"O. c #ea6ed4",
"+. c #e879d5",
"@. c #998baa",
"#. c #a48ba9",
"$. c #ac99ae",
"%. c #b097b2",
"&. c #b6a4b2",
"*. c #b9afb4",
"=. c #b4a2c3",
"-. c #c19f9f",
";. c #db8999",
":. c #c98bb7",
">. c #cc9bbc",
",. c #d38abe",
"<. c #c9a8bc",
"1. c #c5b3ba",
"2. c #ce91ce",
"3. c #ceb0d4",
"4. c #f490de",
"5. c #e6a5dd",
"6. c #f0b6e7",
"7. c #cfd0dc",
"8. c #dacae2",
"9. c #ebc3cf",
"0. c #e7c7e8",
"q. c #e5ddec",
"w. c #f6d7f2",
"e. c #eae4e9",
"r. c #eee4f1",
"t. c #f5e9f6",
"y. c #faf8fc",
"u. c None",
"u.u.u.u.u.u.u.u.u.u.u.u.u.u.u.u.u.u.u.u.u.u.u.u.u.u.u.u.u.u.u.u.u.u.u.u.u.u.u.u.u.u.",
"u.u.u.u.u.u.u.u.u.u.u.u.u.u.u.u.u.u.u.u.u.u.u.u.u.u.u.u.u.u.u.u.u.u.u.u.u.u.u.u.u.u.",
"u.u.u.u.u.u.u.u.u.u.u.u.u.u.u.u.u.u.u.u.u.u.u.u.u.u.u.u.u.u.u.u.u.u.u.u.u.u.u.u.u.u.",
"u.u.u.u.u.u.u.u.u.u.u.u.u.u.u.u.u.u.u.u.u.u.u.u.u.u.u.u.u.1.u.u.u.u.u.u.u.u.u.u.u.u.",
"u.u.u.u.u.u.u.u.u.u.u.u.u.u.u.u.u.u.u.u.u.u.u.u.u.u.u.>.../ 1.u.u.u.u.u.u.u.u.u.u.u.",
"u.u.u.u.u.u.u.u.u.u.u.u.u.u.u.&.&.u.&.u.u.u.u.u.u.,.) / / / | u.u.u.u.u.u.u.u.u.u.u.",
"u.u.u.u.u.u.u.u.u.u.u.u.u.:.V v N v z c &.A &.u.o./ / / / / ( u.u.u.u.u.u.u.u.u.u.u.",
"u.u.u.u.u.u.u.u.u.u.u.] E I I L b v V ' B x A #.E / / / / / / [ u.u.u.u.u.u.u.u.u.u.",
"u.u.u.u.u.u.u.u.u.1.n I Y Y Y I I E 6.t.r.3., % m ! / / / / / _ u.u.u.u.u.u.u.u.u.u.",
"u.u.u.u.u.u.u.u.u.] R Q Q Q Y Y I { y.y.y.y.2.c , z T / / / / X.u.u.u.u.u.u.u.u.u.u.",
"u.u.u.u.u.u.u.u.] Y Q ~ X.! ! T Y +.y.y.y.y.r.3.# # k T / / X.u.u.u.u.u.u.u.u.u.u.u.",
"u.u.u.u.u.u.u.u.E Q X.t.w.6.O.~ T { y.y.y.y.y.t.G # : M / ( <.u.u.u.u.u.u.u.u.u.u.u.",
"u.u.u.u.u.u.u.>.R ! 4.y.y.y.t.O.T | w.. . . y.y.8.# + k ! / [ u.u.u.u.u.u.u.u.u.u.u.",
"u.u.u.u.u.u.u.] Q ~ w.y.y.y.y.w.O.{ w.. . . y.y.r.4 + : M / ) u.u.u.u.u.u.u.u.u.u.u.",
"u.u.u.u.u.u.u.R Q ^ 6.y.y.y.y.y.w.I w.y.. . . y.q.G + + k / / ,.u.u.u.u.u.u.u.u.u.u.",
"u.u.u.u.u.u.:.Y Q ^ 6.y.y.. . e.y.|  .$.. . . . y.S + o : U / ..u.u.u.u.u.u.u.u.u.u.",
"u.u.u.,.| 1.` Y Y Q 6.y.y.. . . . 0.M 6.O . X . y.H + o - / / / <.u.u.u.u.u.u.u.u.u.",
"u.,.) / / / Y Y Y Q X.y.y.. . . . =.J B 4 6 = y.t.G o o + I ..,.u.u.u.u.u.u.u.u.u.u.",
") / / / / / ! I Y Y Y w.y.y.. . . . } z x 3.q.e.3.< o o ; %.u.u.u.u.u.u.u.u.u.u.u.u.",
"[ / / / / / T I I Y Y o.t.y.7.. . . J k , x S ' A + o o 1 u.u.u.u.u.u.u.u.u.u.u.u.u.",
"../ / / / / ! Y L L I I 5.t.y.q.@.3.K , , : - b q & $ $ A H u.u.u.u.u.u.u.u.u.u.u.u.",
"X./ / / / / / Y b b b b E 2.t.y.y.0.j , * 8 e t t r r r w # - F $.u.u.u.u.u.u.u.u.u.",
">./ / / / / / ! I v v v v v  .;.9.K , 7 9 y s f p y r w % # # # > 2 u.u.u.u.u.u.u.u.",
"u.<.X./ / / / / Y v l l l l j z v q u r u s f ~ P u r 8 # # # # # # $.u.u.u.u.u.u.u.",
"u.u.<.[ / / / / ! I l l j j j j i t d d W / W a r y & Z &.Z < - # # 4 u.u.u.u.u.u.u.",
"u.u.u.u.1.[ X./ / ! v j j , * 0 r a W ~ W d a t g h u.u.u.u.u.$.# # # &.u.u.u.u.u.u.",
"u.u.u.u.u.u.1.( / / E N j * 8 r r i f r t t y $ 5 u.u.u.u.u.u.u.< # # Z u.[ ..>.u.u.",
"u.u.u.u.u.u.u.| ..>.u.*.*., 9 y y r y r e $ @ D u.u.u.u.u.u.u.#.# # # # z ! / / [ u.",
"u.u.u.u.u.u.u.u.u.u.u.H > # % % * % A -.2 H u.u.u.u.u.u.u.u.u.3 # # # j T / / / _ u.",
"u.u.u.u.u.u.u.u.u.u.u.C # # # - Z u.u.u.u.u.u.u.u.u.u.u.u.u.&.> # # : M ~ / / / ) 1.",
"u.u.u.u.u.u.u.u.u.u.u.> # # # F u.u.u.u.u.u.u.u.u.u.u.u.u.u.@.# # z T / / / / / ..u.",
"u.u.u.u.u.u.u.u.u.u.u.C # # > u.u.u.u.u.u.u.u.u.u.u.u.u.u.u.< # * R / / / / / u.u.u.",
"u.u.u.u.u.u.u.u.u.u.&.# # # # #.u.u.u.u.u.u.u.u.u.u.u.u.u.u.H z T / / / / u.u.u.u.u.",
"u.u.u.u.u.u.u.u.u.u.u.3 # # # 3 *.u.u.u.u.u.u.u.u.u.u.u.u.u.u.( / / u.u.u.u.u.u.u.u.",
"u.u.u.u.u.u.u.u.u.u.u.#.# # # # # Z > C H u.u.u.u.u.u.u.u.u.u.| u.u.u.u.u.u.u.u.u.u.",
"u.u.u.u.u.u.u.u.u.u.u.u.2 # # # # # # # - u.u.u.u.u.u.u.u.u.u.u.u.u.u.u.u.u.u.u.u.u.",
"u.u.u.u.u.u.u.u.u.u.u.u.#.Z # # # # # % % F u.u.u.u.u.u.u.u.u.u.u.u.u.u.u.u.u.u.u.u.",
"u.u.u.u.u.u.u.u.u.u.u.u.u.u.V v M z M ! L E u.u.u.u.u.u.u.u.u.u.u.u.u.u.u.u.u.u.u.u.",
"u.u.u.u.u.u.u.u.u.u.u.u.u.[ ( / / / / / / / [ u.u.u.u.u.u.u.u.u.u.u.u.u.u.u.u.u.u.u.",
"u.u.u.u.u.u.u.u.u.u.u.u.<./ / / / / / / / u.u.u.u.u.u.u.u.u.u.u.u.u.u.u.u.u.u.u.u.u.",
"u.u.u.u.u.u.u.u.u.u.u.u.X./ / / / / / u.u.u.u.u.u.u.u.u.u.u.u.u.u.u.u.u.u.u.u.u.u.u.",
"u.u.u.u.u.u.u.u.u.u.u.u.,._ / / / u.u.u.u.u.u.u.u.u.u.u.u.u.u.u.u.u.u.u.u.u.u.u.u.u."
};
