/* XPM */
static char *pink_ball_jump17[] = {
"42 42 127 2",
"   c #000000",
".  c #0c1449",
"X  c #131a4e",
"o  c #3a006c",
"O  c #24255a",
"+  c #41006f",
"@  c #470475",
"#  c #4d1273",
"$  c #5a007e",
"%  c #620d5d",
"&  c #66057a",
"*  c #76037c",
"=  c #701265",
"-  c #5e0881",
";  c #5b2281",
":  c #640782",
">  c #6e1788",
",  c #760287",
"<  c #6e2589",
"1  c #762e8d",
"2  c #75318d",
"3  c #773c92",
"4  c #754393",
"5  c #941959",
"6  c #94116d",
"7  c #9c225c",
"8  c #962969",
"9  c #a41e57",
"0  c #a51471",
"q  c #a52354",
"w  c #b52350",
"e  c #be304f",
"r  c #db343c",
"t  c #e2363b",
"y  c #c52b48",
"u  c #da2e4a",
"i  c #d83343",
"p  c #d62760",
"a  c #e62d53",
"s  c #e53246",
"d  c #e83050",
"f  c #eb276b",
"g  c #c6515d",
"h  c #860288",
"j  c #860392",
"k  c #8f1a9b",
"l  c #9b038d",
"z  c #980293",
"x  c #8e2f97",
"c  c #9839a4",
"v  c #a1008f",
"b  c #a90395",
"n  c #b60298",
"m  c #ba1592",
"M  c #b607a7",
"N  c #b713a6",
"B  c #a82492",
"V  c #b22da8",
"C  c #824694",
"Z  c #895898",
"A  c #9845a2",
"S  c #8e629d",
"D  c #92679e",
"F  c #976fa1",
"G  c #9a77a3",
"H  c #b6489e",
"J  c #b148ac",
"K  c #af799b",
"L  c #a96ba5",
"P  c #ac79a6",
"I  c #c5009e",
"U  c #cd03a5",
"Y  c #cb10ae",
"T  c #d702a9",
"R  c #d907b4",
"E  c #d911ad",
"W  c #d231b4",
"Q  c #f21c8b",
"!  c #f41994",
"~  c #e202ad",
"^  c #e707b7",
"/  c #f40cb8",
"(  c #f114ad",
")  c #ea2dbb",
"_  c #df34c2",
"`  c #fb09c7",
"'  c #f914c6",
"]  c #eb24c1",
"[  c #ee33c4",
"{  c #f328c4",
"}  c #c952ad",
"|  c #cb77b7",
" . c #da74bf",
".. c #d571c6",
"X. c #db75c4",
"o. c #e849c4",
"O. c #e459c2",
"+. c #ea6ed0",
"@. c #f060cf",
"#. c #8386a2",
"$. c #9f83a7",
"%. c #a387a7",
"&. c #ac9aad",
"*. c #b58eb4",
"=. c #b2a5b2",
"-. c #b8b8cb",
";. c #c29ab5",
":. c #d584bf",
">. c #c6a4b3",
",. c #e7a6a7",
"<. c #ce8ece",
"1. c #c8a6d4",
"2. c #dca2db",
"3. c #d6b3db",
"4. c #e39ad9",
"5. c #f497df",
"6. c #f1b8e8",
"7. c #d6cadf",
"8. c #dccce4",
"9. c #dcd3e4",
"0. c #e7c9e8",
"q. c #f4c0ea",
"w. c #f4daf2",
"e. c #ede6ee",
"r. c #f6e7f6",
"t. c #faf8fc",
"y. c None",
"y.y.y.y.y.y.y.y.y.y.y.y.y.y.y.y.y.y.y.y.y.y.y.y.y.y.y.y.y.y.y.y.y.y.y.y.y.y.y.y.y.y.",
"y.y.y.y.y.y.y.y.y.y.y.y.y.y.y.y.y.y.y.y.y.y.y.y.y.y.y.y.y.y.y.y.y.y.y.y.y.y.y.y.y.y.",
"y.y.y.y.y.y.y.y.y.y.y.y.y.y.y.y.o.{ y.y.y.y.y.y.y.y.y.y.y.y.y.y.y.y.y.y.y.y.y.y.y.y.",
"y.y.y.y.y.y.y.y.y.y.y.y.y.y.' ' ` ` '  .y.y.y.y.y.y.y.y.y.y.y.y.y.y.y.y.y.y.y.y.y.y.",
"y.y.y.y.y.y.y.y.y.y.y.y.y.` ` ` ` ` ` ' O.y.y.y.y.y.y.y.y.y.y.y.y.y.y.y.y.y.y.y.y.y.",
"y.y.y.y.y.y.y.y.y.y.y.y.y.X.` ` ` ` ` ` O.y.y.y.y.>.y.y.y.y.y.y.y.y.y.y.y.y.y.y.y.y.",
"y.y.y.y.y.y.y.y.y.y.y.y.y.) ` ` ` ` ` ` / } W W W R E E T } m ;.y.y.y.y.y.y.y.y.y.y.",
"y.y.y.y.y.y.y.y.y.y.y.y.y.{ ` ` ` ` / ^ T T T ~ ~ ^ ( ) ~ T T U | y.y.y.y.y.y.y.y.y.",
"y.y.y.y.y.y.y.y.y.y.y.y.y.' ` ` ` ` T U U T ~ ^ [ +.6.q.5.^ ~ T T } y.y.y.y.y.y.y.y.",
"y.y.y.y.y.y.y.y.y.y.y.y.y.[ ` ` ` R U I U T ^ @.6.t.t.t.r.+.~ T T I V y.y.y.y.y.y.y.",
"y.y.y.y.y.y.y.y.y.y.y.y.y.O.` ` ^ U n I T R O.r.t.t.t.t.t.+.^ T T I b L y.y.y.y.y.y.",
"y.y.y.y.y.y.y.y.y.y.y.y.y.` ` ^ U n n I T ) r.t.t.t.t.t.t.+.^ T U n n H y.y.y.y.y.y.",
"y.y.y.y.y.y.y.y.y.y.y.y.{ ` ` ^ b b n n Y 6.t.t.t.t.t.t.w.o.R T Y Y n b P y.y.y.y.y.",
"y.y.y.y.y.y.y.y.y.y.y.y.X.` ` n l v b n X.r.t.t.e.. . t.6._ E W 4.4.4.B L y.y.y.y.y.",
"y.y.y.y.y.y.y.y.y.y.y.y.y.y.Y l h l v V 4.t.t.. . . . r.+.W X.w.t.t.r...L y.y.y.y.y.",
"y.y.y.y.y.y.y.y.y.y.y.y.y.y.P h h h z V r.t.. . . . 7.4.W 6.r.t.t.t.t.<.h G y.y.y.y.",
"y.y.y.y.y.y.y.y.y.y.y.%.%.%.*.h , h h J w.t.. . . . 6.M q.t.t.t.t.t.t.<.> &.y.y.y.y.",
"y.y.y.y.y.y.y.y.y.G F : - : 1 * * , h B ,.t.. . . 2.V <.-.. . t.t.t.r.A x y.y.y.y.y.",
"y.y.y.y.y.y.y.y.S : $ $ $ $ & 7 w 0 6 b | 0.0.3.J V V %.. X . t.t.t.3.x h W { O.y.y.",
"y.y.y.y.y.y.y.G - $ $ $ $ $ $ q t t i u 0 c h k j j c O . . . t.t.r.*.& z ^ ` ` o.y.",
"y.y.y.y.y.y.&.: $ $ $ : : 2 $ 6 r u a d t 0 , , , , 1.. X O 9.t.t.7.& & M ` ` ` ` { ",
"y.y.y.y.y.y.$.- $ $ $ $.=.y.F & e s / ! d i 6 * : > 1.#.-.-.9.e.8.1 $ : M ` ` ` ` ' ",
"y.y.:.:.O.y.L - $ $ D y.y.y.y.%.8 r a ( ! i y w & > *.r.9.1.3 4 3 @ $ z ^ ` ` ` ' :.",
"y.>.{ ' ' ] N : $ $ Z y.y.y.y.y.y.e r s ! ( d s i m H K 4 @ + + $ $ j R ` ` ` ' ..y.",
"y.y.[ ` ` ` ` j $ $ Z y.y.y.y.y.=.$ q t a Q / ! d t 6 o o o o @ j R R ` ' o.' o.y.y.",
"y.y.' ` ` ` ` M : $ - S y.y.y.y.y.&.; 5 t t f R p r % o o o @ j Y ` ' O.:.y.:.y.y.y.",
"y.y.y.` ` ` ` ^ j $ $ S y.y.y.y.y.y.y.4 = i r u y r 5 # @ - M ^ ` ` y.y.y.y.y.y.y.y.",
"y.y.y.y.y.` ` ` ^ h $ Z y.y.y.y.y.y.y.y.$.>.g q 9 w 7 &.&.=.[ ' `  .y.y.y.y.y.y.y.y.",
"y.y.y.y.y.y.` ` / l C y.y.y.y.y.y.y.y.y.y.y.y.Z & $ & F y.y.y.o.O.y.y.y.y.y.y.y.y.y.",
"y.y.y.y.y.y.y.` ` ) y.y.y.y.y.y.y.y.y.y.y.y.y.y.> $ $ Z y.y.y.y.y.y.y.y.y.y.y.y.y.y.",
"y.y.y.y.y.y.y.y.' y.y.y.y.y.y.y.y.y.y.y.y.y.y.y.< $ $ Z y.y.y.y.y.y.y.y.y.y.y.y.y.y.",
"y.y.y.y.y.y.y.y.y.y.y.y.y.y.y.y.y.y.y.y.y.y.y.y.> $ $ 4 y.y.y.y.y.y.y.y.y.y.y.y.y.y.",
"y.y.y.y.y.y.y.y.y.y.y.y.y.y.y.y.y.y.y.y.y.y.y.y.2 $ $ > y.y.y.y.y.y.y.y.y.y.y.y.y.y.",
"y.y.y.y.y.y.y.y.y.y.y.y.y.y.y.y.y.y.y.G G S 3 3 - $ $ $.y.y.y.y.y.y.y.y.y.y.y.y.y.y.",
"y.y.y.y.y.y.y.y.y.y.y.y.y.y.y.y.y.y.$.: $ $ $ $ $ $ D y.y.y.y.y.y.y.y.y.y.y.y.y.y.y.",
"y.y.y.y.y.y.y.y.y.y.y.y.y.y.y.y.y.=.: & $ $ $ $ $ C y.y.y.y.y.y.y.y.y.y.y.y.y.y.y.y.",
"y.y.y.y.y.y.y.y.y.y.y.y.y.y.y.y.y.[ E m b : : $ 1 y.y.y.y.y.y.y.y.y.y.y.y.y.y.y.y.y.",
"y.y.y.y.y.y.y.y.y.y.y.y.y.y.y.y.y.` ` ` ` U b z c ;.y.y.y.y.y.y.y.y.y.y.y.y.y.y.y.y.",
"y.y.y.y.y.y.y.y.y.y.y.y.y.y.y.y.y.y.` ` ` ` ` ` R ] y.y.y.y.y.y.y.y.y.y.y.y.y.y.y.y.",
"y.y.y.y.y.y.y.y.y.y.y.y.y.y.y.y.y.y.y.` ` ` ` ` ` `  .y.y.y.y.y.y.y.y.y.y.y.y.y.y.y.",
"y.y.y.y.y.y.y.y.y.y.y.y.y.y.y.y.y.y.y.y.y.` ` ` ` ` O.y.y.y.y.y.y.y.y.y.y.y.y.y.y.y.",
"y.y.y.y.y.y.y.y.y.y.y.y.y.y.y.y.y.y.y.y.y.y.` ` ' { y.y.y.y.y.y.y.y.y.y.y.y.y.y.y.y."
};
