/* XPM */
static char *pink_ball_destroy4[] = {
"42 42 127 2",
"   c #000000",
".  c #0c1449",
"X  c #1a2053",
"o  c #3b016c",
"O  c #3e0873",
"+  c #242b5b",
"@  c #363b69",
"#  c #460473",
"$  c #5a007e",
"%  c #68077b",
"&  c #78037c",
"*  c #741269",
"=  c #4e517a",
"-  c #5e0881",
";  c #5c2384",
":  c #630982",
">  c #641284",
",  c #7a028b",
"<  c #76168c",
"1  c #6d2389",
"2  c #772a89",
"3  c #76338e",
"4  c #7e4494",
"5  c #795392",
"6  c #707494",
"7  c #9e1c5a",
"8  c #8e156c",
"9  c #a01a5c",
"0  c #b51a68",
"q  c #aa244c",
"w  c #ab2353",
"e  c #b73155",
"r  c #b05673",
"t  c #d8333d",
"y  c #e0343f",
"u  c #c81f6c",
"i  c #c92c47",
"p  c #d52c51",
"a  c #db3146",
"s  c #e82e53",
"d  c #e43247",
"f  c #e73050",
"g  c #ec266b",
"h  c #cd5c62",
"j  c #840489",
"k  c #850793",
"l  c #97038b",
"z  c #960998",
"x  c #9c129a",
"c  c #8f3693",
"v  c #aa0596",
"b  c #a01b9b",
"n  c #ba029a",
"m  c #b309a5",
"M  c #b12d9a",
"N  c #b52fa8",
"B  c #894d91",
"V  c #885999",
"C  c #98499c",
"Z  c #9456a7",
"A  c #94689f",
"S  c #95779d",
"D  c #9b69a7",
"F  c #9573a5",
"G  c #af47ab",
"H  c #b271b3",
"J  c #c6009e",
"K  c #cb02a4",
"L  c #c31aa6",
"P  c #d802a9",
"I  c #d609b4",
"U  c #d815ac",
"Y  c #d32ab2",
"T  c #dc29b7",
"R  c #e41d81",
"E  c #e005ae",
"W  c #e807b9",
"Q  c #e617b8",
"!  c #f50fb1",
"~  c #f611ac",
"^  c #e824ba",
"/  c #f031bf",
"(  c #ef07c1",
")  c #fc09c7",
"_  c #f719c5",
"`  c #ed34c4",
"'  c #f22ac4",
"]  c #f030c4",
"[  c #ce4eb5",
"{  c #da57bd",
"}  c #c766af",
"|  c #cc67b4",
" . c #d977bf",
".. c #db48c5",
"X. c #de68c1",
"o. c #db72c0",
"O. c #e948c4",
"+. c #e658c4",
"@. c #e062c1",
"#. c #ea75d4",
"$. c #9295ae",
"%. c #9598b0",
"&. c #a687a9",
"*. c #ab96ad",
"=. c #b191b5",
"-. c #b4a5b2",
";. c #bc90c8",
":. c #b4a8c6",
">. c #cd99bc",
",. c #d389be",
"<. c #d092bd",
"1. c #c9a9bb",
"2. c #d58bcf",
"3. c #d1b2d4",
"4. c #ee86d9",
"5. c #eabcc9",
"6. c #f0b4e6",
"7. c #cdcdda",
"8. c #ddd1e5",
"9. c #e8d3da",
"0. c #efd4ee",
"q. c #f6c8ee",
"w. c #e7e7ee",
"e. c #ece9f2",
"r. c #f7e8f7",
"t. c #f9f7fb",
"y. c None",
"y.y.y.y.y.y.y.y.y.y.y.y.y.y.y.y.y.y.y.y.y.y.y.y.y.y.y.y.y.y.y.y.y.y.y.y.y.y.y.y.y.y.",
"y.y.y.y.y.y.y.y.y.y.y.y.y.y.y.y.y.y.y.y.y.y.y.y.y.y.y.y.y.y.y.y.y.y.y.y.y.y.y.y.y.y.",
"y.y.y.y.y.y.y.y.y.y.y.y.y.y.y.y.y.y.y.y.y.y.y.y.y.y.y.y.y.y.y.y.y.y.y.y.y.y.y.y.y.y.",
"y.y.y.y.y.y.y.y.y.y.y.y.y.y.y.y.y.y.y.y.y.y.y.y.y.y.y.y.y.y.y.y.y.y.y.y.y.y.y.y.y.y.",
"y.y.y.y.y.y.y.y.y.y.y.y.y.y.y.y.y.y.y.y.y.y.y.y.y.y.y.y.y.y.y.y.y.y.y.y.y.y.y.y.y.y.",
"y.y.y.y.y.y.y.y.y.y.y.y.y.y.y.y.y.y.y.y.y.y.y.y.y.y.y.y.y.y.y.y.y.y.y.y.y.y.y.y.y.y.",
"y.y.y.y.y.y.y.y.y.y.y.y.1.1.1.1.1.y.y.y.y.y.y.y.y.y.y.y.y.y.y.y.y.y.y.y.y.y.y.y.y.y.",
"y.y.y.y.y.y.y.y.y.y.y.>.X.O.O.O.+. .y.y.y.y.y.y.y.y.y.y.y.y.y.y.y.y.1.,.>.y.y.y.y.y.",
"y.y.y.y.y.y.y.y.y.y.y.,.` ) ) ) ) @.y.y.y.y.y.y.y.y.y.y.y.y.y.y.y.<.@.` O.{ y.y.y.y.",
"y.y.y.y.y.y.y.y.y.y.y.,.` ) ) ) ) ] ,.y.y.y.y.y.y.y.y.y.y.y.y.y.y. ._ ) ) _ y.y.y.y.",
"y.y.y.y.y.y.y.y.y.y.y.,.] ) ) ) ) ) _ ' ] ] ` o.y.y.y.y.y.y.y.y.y.| W ) ) ) y.y.y.y.",
"y.y.y.y.y.y.y.y.y.y.y.,.] ) ) ( W W ( ( ) ) ) +.y.y.y.-.V B V V A c K ) ) ) y.y.y.y.",
"y.y.y.y.y.y.y.y.y.y.y.1.{ Q I v j , , , k m I { y.y.-.B : $ $ $ $ $ z W ) ) y.y.y.y.",
"y.y.y.y.y.y.y.y.y.y.y.y.H b j : $ # # # o # $ V y.-.4 - $ - > : $ $ , I ) ) y.y.y.y.",
"y.y.y.y.y.y.y.y.y.y.-.D C c C D D Z 4 ; # o o O V B % $ : 4 S V > $ : K ) ) y.y.y.y.",
"y.y.y.y.y.y.y.y.y.y.&.C H 3.8.e.t.r.8.:.Z ; o o * w * : B *.y.-.V : % v W ) y.y.y.y.",
"y.y.y.y.y.y.y.y.y.&.G 2.0.t.t.t.t.e.e.t.w.=.; o q t 7 2 *.y.y.y.-.4 : j W ) y.y.y.y.",
"y.y.y.y.y.y.y.y.y.M N 6.t.t.t.t.8.6 6 $.e.9.C 8 i t i 8 -.y.y.y.y.*.4 c T ] y.y.y.y.",
"y.y.y.y.y.y.y.y.H v N 2.r.t.t.t.6 X . + %.3.G p d u i r y.y.y.y.y.y.-.-.>.>.y.y.y.y.",
"y.y.y.y.y.y.y.y.b n K Y 4.q.r.t.7.@ X = :.Z < i g U a h y.y.y.y.y.y.y.y.y.y.y.y.y.y.",
"y.y.y.y.y.y.y.y.n K P P U T #.6.q.3.;.G x , % i f ~ d e S y.y.y.y.y.y.y.y.y.y.y.y.y.",
"y.y.y.y.y.y.y.y.K P P E Q ` ....[ N N x k , & w a ! s q 5 y.y.y.y.y.y.y.y.y.y.y.y.y.",
"y.y.y.y.y.y.y.y.K P E ` 4.6.r.t.e.:.=.H G k , w a ! f q 5 y.y.y.y.y.y.y.y.y.y.y.y.y.",
"y.y.y.y.y.y.y.y.K E ` 6.r.t.t.t.$.. . = 3.H k i s ! d w V y.y.y.y.y.y.y.y.y.y.y.y.y.",
"y.y.y.y.y.y.y.1.L E +.r.t.t.t.t.6 X X = y.8.M a g ~ t e S y.y.y.y.y.y.y.y.y.y.y.y.y.",
"y.y.y.y.y.y.y.y.} P O.q.t.t.t.t.w.%.$.:.t.5.M p f R i r y.y.y.y.y.y.y.y.y.y.y.y.y.y.",
"y.y.y.y.y.y.y.y.>.Y Q #.q.r.t.t.t.t.t.t.0.H l 0 y a e A y.y.y.y.y.&.*.=.>.y.y.y.y.y.",
"y.y.y.y.y.y.y.y.y.| Y Q O.4.6.q.0.0.6.2.G x j 8 t i 8 V y.y.y.y.F 1 2 M / y.y.y.y.y.",
"y.y.y.y.y.y.y.y.y.y.| U E Q ^ ^ T Y L m v l j & 9 w % V y.y.y.*.1 $ j U ) y.y.y.y.y.",
"y.y.y.y.y.y.y.y.y.y.y.| U P P P P K n v l l j & & % $ 3 *.y.-.V : $ z ) ) y.y.y.y.y.",
"y.y.y.y.y.y.y.y.y.y.y.y.} U P K J J n v l l l c A $ $ - 1 4 3 : $ , m ) ) y.y.y.y.y.",
"y.y.y.y.y.y.y.y.y.y.y.y.<.T P P K J n n n n N -.&.> $ $ $ $ $ $ $ z W ) ) y.y.y.y.y.",
"y.y.y.y.y.y.y.y.y.y.y.1.X._ ( W W W W W W ( ` 1.y.A 1 : $ $ $ : < L ) ) ) y.y.y.y.y.",
"y.y.y.y.y.y.y.y.y.y.y.>.] ) ) ) ) ) ) ) ) ) O.y.y.y.*.V 3 3 2 B &.{ ) ) ) y.y.y.y.y.",
"y.y.y.y.y.y.y.y.y.y.y.<.] ) ) ) ) ) ) _ +.@.o.y.y.y.y.-.*.&.&.*.y. ._ ) _ y.y.y.y.y.",
"y.y.y.y.y.y.y.y.y.y.y.<.] ) ) ) ) ) ' o.y.y.y.y.y.y.y.y.y.y.y.y.y.1.+.O.o.y.y.y.y.y.",
"y.y.y.y.y.y.y.y.y.y.y.>.O.' ) ) _ '  .y.y.y.y.y.y.y.y.y.y.y.y.y.y.y.1.>.y.y.y.y.y.y.",
"y.y.y.y.y.y.y.y.y.y.y.y.1. .` '  .1.y.y.y.y.y.y.y.y.y.y.y.y.y.y.y.y.y.y.y.y.y.y.y.y.",
"y.y.y.y.y.y.y.y.y.y.y.y.y.y.y.y.y.y.y.y.y.y.y.y.y.y.y.y.y.y.y.y.y.y.y.y.y.y.y.y.y.y.",
"y.y.y.y.y.y.y.y.y.y.y.y.y.y.y.y.y.y.y.y.y.y.y.y.y.y.y.y.y.y.y.y.y.y.y.y.y.y.y.y.y.y.",
"y.y.y.y.y.y.y.y.y.y.y.y.y.y.y.y.y.y.y.y.y.y.y.y.y.y.y.y.y.y.y.y.y.y.y.y.y.y.y.y.y.y.",
"y.y.y.y.y.y.y.y.y.y.y.y.y.y.y.y.y.y.y.y.y.y.y.y.y.y.y.y.y.y.y.y.y.y.y.y.y.y.y.y.y.y."
};
