/* XPM */
static char *red_ball_destroy5[] = {
"42 42 122 2",
"   c #000000",
".  c #0c1449",
"X  c #181d50",
"o  c #1f2657",
"O  c #303664",
"+  c #3a406b",
"@  c #6a3d64",
"#  c #454b74",
"$  c #52577e",
"%  c #5e6387",
"&  c #7f83a0",
"*  c #980117",
"=  c #9b162a",
"-  c #a7071e",
";  c #b2071f",
":  c #b41329",
">  c #b7293c",
",  c #bc383b",
"<  c #bc3749",
"1  c #bb5653",
"2  c #be5e6e",
"3  c #b2666f",
"4  c #b76f76",
"5  c #c5021c",
"6  c #c60b24",
"7  c #c91529",
"8  c #c51b31",
"9  c #d40e26",
"0  c #d81129",
"q  c #d31b31",
"w  c #c42539",
"e  c #d72438",
"r  c #e3062b",
"t  c #ea1532",
"y  c #fd0926",
"u  c #fd122c",
"i  c #ff1b34",
"p  c #e6263a",
"a  c #fd233a",
"s  c #c42c40",
"d  c #c53747",
"f  c #da3649",
"g  c #e52644",
"h  c #e93648",
"j  c #fe2a42",
"k  c #fc374a",
"l  c #fc3c52",
"z  c #c44554",
"x  c #c3515c",
"c  c #d8424f",
"v  c #d24251",
"b  c #c45966",
"n  c #d05365",
"m  c #c3646e",
"M  c #c36a72",
"N  c #c2757b",
"B  c #df6c75",
"V  c #db726e",
"C  c #db767c",
"Z  c #eb4549",
"A  c #e84b5a",
"S  c #f6424f",
"D  c #fd4957",
"F  c #fa515d",
"G  c #ea5766",
"H  c #fd4661",
"J  c #f85967",
"K  c #fd5c73",
"L  c #ef676f",
"P  c #e96a75",
"I  c #e8757b",
"U  c #f36069",
"Y  c #fd6778",
"T  c #8c7795",
"R  c #c27f84",
"E  c #d87b80",
"W  c #e27484",
"Q  c #fd7486",
"!  c #8585a1",
"~  c #9ea0b6",
"^  c #b98085",
"/  c #be938d",
"(  c #be9896",
")  c #a3a5bb",
"_  c #bca4a2",
"`  c #adafc2",
"'  c #c48786",
"]  c #c59898",
"[  c #d9898c",
"{  c #d78f91",
"}  c #d59a99",
"|  c #d894a6",
" . c #c7a09f",
".. c #c9a9a6",
"X. c #d1a3a1",
"o. c #e08486",
"O. c #fb8a8f",
"+. c #fc8897",
"@. c #e29aa5",
"#. c #fc95a6",
"$. c #f8a49e",
"%. c #eaa2a2",
"&. c #e1b0b9",
"*. c #fca0ae",
"=. c #fcabb6",
"-. c #fbb0bc",
";. c #e4bfcb",
":. c #fabcc5",
">. c #d6d3de",
",. c #dbdce5",
"<. c #ecc4cc",
"1. c #ebd1db",
"2. c #fbc6cd",
"3. c #f8c8d2",
"4. c #f7d7dd",
"5. c #f8dee4",
"6. c #e7e7ee",
"7. c #edecf2",
"8. c #fae7eb",
"9. c #faeef3",
"0. c #faf8fb",
"q. c None",
"q.q.q.q.q.q.q.q.q.q.q.q.q.q.q.q.q.q.q.q.q.q.q.q.q.q.q.q.q.q.q.q.q.q.q.q.q.q.q.q.q.q.",
"q.q.q.q.q.q.q.q.q.q.q.q.q.q.q.q.q.q.q.q.q.q.q.q.q.q.q.q.q.q.q.q.q.q.q.q.q.q.q.q.q.q.",
"q.q.q.q.q.q.q.q.q.q.q.q.q.q.q.q.q.q.q.q.q.q.q.q.q.q.q.q.q.q.q.q.q.q.q.q.q.q.q.q.q.q.",
"q.q.q.q.q.q.q.q.q.q.q.q.q.q.q.q.q.q.q.q.q.q.q.q.q.q.q.q.q.q.q.q.q.q.q.q.q.q.q.q.q.q.",
"q.q.q.q.q.q.q.q.q.q.q.q.q.q.q.q.q.q.q.q.q.q.q.q.q.q.q.q.q.q.q.q.q.q.q.q.q.q.q.q.q.q.",
"q.q.q.q.q.q.q.q.q.q.q.q.q.q.q.q.q.q.q.X.J D D D q.q.q.q.q.q.q.q.q.q.q.q.q.q.q.q.q.q.",
"q.q.q.q.q.q.q.q.q.q.q.q.q.q.q.q.q.q.q...V Z S D D q.q.q.q.q.q.q.q.q.q.q.q.q.q.q.q.q.",
"q.q.q.q.q.q.q.q.q.q.q.q.q.q.q.q.q.q.q.q.' 7 e S D D q.q.q.q.q.q.q.q.q.q.q.q.q.q.q.q.",
"q.q.q.q.q.q.q.q.q.q.q.q.q.q.q.q.q.q.q.( , 5 5 p D D q.q.q.q.q.q.q.q.q.q.q.q.q.q.q.q.",
"q.q.q.q.q.q.q.q.q.q.q.q.q.q.q.q.q.q.m 7 5 5 5 5 h D F q.q.q.q.q.q.q.q.q.q.q.q.q.q.q.",
"q.q.q.q.q.q.q.q.q.q.q.q.q.q.q.q.q.b 5 5 8 w 8 6 q A o.q.q.q.q.q.q.q.q.q.q.q.q.q.q.q.",
"q.q.q.q.q.q.q.q.q.q.q.q.q.q.q.q.q.s 5 7 ' ] ] N N ' q.q.q.q.q.q.q.q.q.q.q.q.q.q.q.q.",
"q.q.q.q.q.q.q.q.q.q.q.q.q.} q.q.q.8 5 w ..q.q.q.q.q.q.q.q.q.q.q.q.q.q.q.q.q.q.q.q.q.",
"q.q.q.q.q.q.q.q.q.q.q.} J F { q.q.8 5 d ..q.q.q.q.q.q.q.q.q.q.q.q.q.q.q.q.q.q.q.q.q.",
"q.q.q.q.q.q.[ L { X.[ J S h v 3 4 e q s ( q.q.q.q.q.q.q.q.q.q.q.q.q.q.q.q.q.q.q.q.q.",
"q.q.q.q.X.I F D F J F h e : - * = A G c 2 q.q.q.q.q.q.q.q.q.q.q.q.q.q.q.q.q.q.q.q.q.",
"q.q.q.q.P F D D D D h 7 - * * * * d J G G { _ q.q.q.q.q.q.q.q.} q.q.q.q.q.q.q.q.q.q.",
"q.q.q.q.o.F D D D p 6 ; : < b b > f J A J G d ^ q.q.q.q.q...C F D q.q.q.q.q.q.q.q.q.",
"q.q.q.q.q.P D D k 9 6 n @.<.9.5.%.h J J J J A < ( q.q.q.q.x q S D D q.q.q.q.q.q.q.q.",
"q.q.q.q.q...J D p 0 W 4.9.7.) ` &.q g J J J J f M q.q.q...8 5 p D D q.q.q.q.q.q.q.q.",
"q.q.q.q.q.q...C p G 4.0.6.% o $ | t r g J J J G [ q.q.q.q.z 5 e D D D q.q.q.q.q.q.q.",
"q.q.q.q.q.q.q.[ l :.0.0.7.+ X @ g y y u D J J J f ] q.q.q.x 5 9 S D D D q.q.q.q.q.q.",
"q.q.q.q.q.q.q.A Q 9.0.0.,.~ T P l H J J k J J J A d  .q.] w 5 5 c F D F X.q.q.q.q.q.",
"q.q.q.q.q.q.q.B +.9.0.0.9.5.+.Q *.3.1.4.O.k D J A 6 s x w 5 5 8 ] { P I q.q.q.q.q.q.",
"q.q.q.q.q.q.q.B Y :.5.3.#.K #.8.>.% # ) $.u u p h 6 5 5 5 5 5 z q.q.q.q.q.q.q.q.q.q.",
"q.q.q.q.q.q.q.G u j l j k *.9.7.# . O q.-.u y y t 8 5 5 6 8 M q.q.q.q.q.q.q.q.q.q.q.",
"q.q.q.q.q.q.q.E i i i j Q 5.0.7.& # ! ;.K y y y A / 1 b M R q.q.q.q.q.q.q.q.q.q.q.q.",
"q.q.q.q.q.q.q.{ a i a l =.0.0.0.6.>.5.+.j y y y A q.q.q.q.q.q.q.q.q.q.q.q.q.q.q.q.q.",
"q.q.q.q.q.q.q.q.B a a J 2.0.0.0.0.8.O.j u y y i D } q.q.q.q.q.q.q.q.q.q.q.q.q.q.q.q.",
"q.q.q.q.q.q.q.q.q.G i k =.5.8.4.:.J a i u u a k D L q.q.q.q.q.q.q.q.q.q.q.q.q.q.q.q.",
"q.q.q.q.q.q.q.q.q...k j D Y Q K l a i i i a k D U } q.q.q.q.q.q.q.q.q.q.q.q.q.q.q.q.",
"q.q.q.q.q.q.q.q.q.q. .C A j k j a i i i j S D D [ q.q.q.q.q.q.q.q.q.q.q.q.q.q.q.q.q.",
"q.q.q.q.q.q.q.q.q.q.q.q.q.} } { P G k k S D D D { q.q.q.q.q.q.q.q.q.q.q.q.q.q.q.q.q.",
"q.q.q.q.q.q.q.q.q.q.q.q.q.q.q.q.q.q.J D D D D F q.q.q.q.q.q.q.q.q.q.q.q.q.q.q.q.q.q.",
"q.q.q.q.q.q.q.q.q.q.q.q.q.q.q.q.q...J D D D F I q.q.q.q.q.q.q.q.q.q.q.q.q.q.q.q.q.q.",
"q.q.q.q.q.q.q.q.q.q.q.q.q.q.q.q.q.q.{ F D D F } q.q.q.q.q.q.q.q.q.q.q.q.q.q.q.q.q.q.",
"q.q.q.q.q.q.q.q.q.q.q.q.q.q.q.q.q.q.q.I U I { q.q.q.q.q.q.q.q.q.q.q.q.q.q.q.q.q.q.q.",
"q.q.q.q.q.q.q.q.q.q.q.q.q.q.q.q.q.q.q.q.q.q.q.q.q.q.q.q.q.q.q.q.q.q.q.q.q.q.q.q.q.q.",
"q.q.q.q.q.q.q.q.q.q.q.q.q.q.q.q.q.q.q.q.q.q.q.q.q.q.q.q.q.q.q.q.q.q.q.q.q.q.q.q.q.q.",
"q.q.q.q.q.q.q.q.q.q.q.q.q.q.q.q.q.q.q.q.q.q.q.q.q.q.q.q.q.q.q.q.q.q.q.q.q.q.q.q.q.q.",
"q.q.q.q.q.q.q.q.q.q.q.q.q.q.q.q.q.q.q.q.q.q.q.q.q.q.q.q.q.q.q.q.q.q.q.q.q.q.q.q.q.q.",
"q.q.q.q.q.q.q.q.q.q.q.q.q.q.q.q.q.q.q.q.q.q.q.q.q.q.q.q.q.q.q.q.q.q.q.q.q.q.q.q.q.q."
};
