/* XPM */
static char *red_ball_destroy1[] = {
"42 42 65 1",
"  c #000000",
". c #0c1449",
"X c #8b0015",
"o c #980017",
"O c #a60019",
"+ c #b90419",
"@ c #b6161a",
"# c #ae0c26",
"$ c #b30c24",
"% c #af2513",
"& c #b42517",
"* c #9e214a",
"= c #c5011b",
"- c #c7111e",
"; c #db021c",
": c #ca1528",
"> c #cc1b33",
", c #d80325",
"< c #d3152e",
"1 c #d71b31",
"2 c #db2437",
"3 c #e6021c",
"4 c #f5031e",
"5 c #e60622",
"6 c #e10230",
"7 c #fe0825",
"8 c #ff0d31",
"9 c #fe122c",
"0 c #ff1a34",
"q c #ed2438",
"w c #ff263b",
"e c #dd3242",
"r c #e52f41",
"t c #ff2b42",
"y c #fa3b4a",
"u c #e04e3f",
"i c #d35c6e",
"p c #dc7667",
"a c #ec464d",
"s c #ec4a5c",
"d c #ff4957",
"f c #f95553",
"g c #ea5465",
"h c #f75b6a",
"j c #f75c70",
"k c #fa6848",
"l c #e26a76",
"z c #f6606f",
"x c #f96473",
"c c #d57c8b",
"v c #fd6b80",
"b c #d78593",
"n c #fa8796",
"m c #fb9ead",
"M c #ebb4be",
"N c #fbaab4",
"B c #f8b4be",
"V c #fbbbc5",
"C c #f9cbb4",
"Z c #fbc5cc",
"A c #fad7de",
"S c #fadae0",
"D c #f9eaef",
"F c #faf9fc",
"G c None",
"GGGGGGGGGGGGGGGGGGGGGGGGGGGGGGGGGGGGGGGGGG",
"GGGGGGGGGGGGGGGGGGGGGGGGGGGGGGGGGGGGGGGGGG",
"GGGGGGGGGGGGGGGGGGGGGGGGGGGGGGGGGGGGGGGGGG",
"GGGGGGGGGGGGGGGGGGGGGGGGGGGGGGGGGGGGGGGGGG",
"GGGGGGGGGGGGGGGGGGGGGGGGGGGGGGGGGGGGGGGGGG",
"GGGGGGGGGGGGGGGGGGGGGGGGGGGGGGGGGGGGGGGGGG",
"GGGGGGGGGGGGGGGGGGGGGGGGGGGGGGGGGGGGGGGGGG",
"GGGGGGGGGGGGGGGGGGGGGGGGGGGGGGGGGGGGGGGGGG",
"GGGGGGGGGGGGGGGGGGGGGGGGGGGGGGGGGGGGGGGGGG",
"GGGGGGGGGGGGGGGG9900997GGGGGGGGGGGGGGGGGGG",
"GGGGGGGGGGGGGG000w0009977GGGGGGGGGGGGGGGGG",
"GGGGGGGGGGGGG0wwwwww009977GGGGGGGGGGGGGGGG",
"GGGGGGGGGGGG0wtVFVtww09nFn73GGGGGGGGGGGGGG",
"GGGGGGGGGGG0wtZFFFZtw0nFFFn4GGddddddGGGGGG",
"GGGddddfGG0wwzFFFFFjwtFFFFF93yddddddGGGGGG",
"GGGddddfd00wwNFFFFFN0vFFFFFj;qddddddGGGGGG",
"GGddddddd00wwSFFFFFS0VFFFFFB;,ddddddGGGGGG",
"GGddddddw00wwFFFFFFF0DFFFFFD==1dddddGGGGGG",
"GGddddddw900wFFF.FFF0FF.FFFF=+1dddddGGGGGG",
"GGGdddddw9900FF...FF9D...FFD+O1dddGGGGGGGG",
"GGGdddddw9999AF...FA8V...FFM+O>ddGGGGGGGGG",
"GGGGddddw9999mF...Fm8x...FFiOO>ddGGGGGGGGG",
"GGGGGdddw9799dFF.FFd79F.FFF$oo>ddGGGGGGGGG",
"GGGGGGddy77777VFFFV777nFFFbOoo>ddGGGGGGGGG",
"GGGGGGddd977777kFB7755,lCcOoXOdddGGGGGGGGG",
"GGGGGGddd977777004756,=r>OoXX#dddGGGGGGGGG",
"GGGGGGGGGG74447xxxxssxxxjoXXoGGGGGGGGGGGGG",
"GGGGGGGGGGG75hxxxhxjjxhxxxh$GGGGGGGGGGGGGG",
"GGGGGGGGG%==sxxgdddddddegxxs=GGGGGGGGGGGGG",
"GGGGGGGG@====<xxxxxjjxxzxx<===GGGGGGGGGGGG",
"GGGGGGGG======-1gjjxxzzg*@=====GGGGGGGGGGG",
"GGGGGGG=====GGGGG=+OOOGGGGG=====GGGGGGGGGG",
"GGGGGGG====GGGGGGGGGGGGGGGGG====GGGGGGGGGG",
"GGGGGGG====GGGGGGGGGGGGGGGGGG===GGGGGGGGGG",
"GGGGGGG====GGGGGGGGGGGGGGGGGG===GGGGGGGGGG",
"GGGGGGG=====GGGGGGGGGGGGGGGG===%GGGGGGGGGG",
"GGGGGGGG======GGGGGGGGGGGGG=====GGGGGGGGGG",
"GGGGGGGG::====@GGGGGGGGGGG======&pdGGGGGGG",
"GGGGGGddddf2===GGGGGGGGGG=====@@fdddGGGGGG",
"GGGGGdddddddddaGGGGGGGGGGuddddddddddGGGGGG",
"GGGGGddddddddddGGGGGGGGGGdddddddddddGGGGGG",
"GGGGGGdddddddddGGGGGGGGGGddddddddddGGGGGGG"
};
