/* XPM */
static char *red_ball_destroy4[] = {
"42 42 121 2",
"   c #000000",
".  c #0c1449",
"X  c #121a4d",
"o  c #171e51",
"O  c #1c2355",
"+  c #22295a",
"@  c #2d3462",
"#  c #777b99",
"$  c #7e819f",
"%  c #990118",
"&  c #970f25",
"*  c #a70119",
"=  c #b3021b",
"-  c #a10a20",
";  c #ab142b",
":  c #ab1b30",
">  c #be1a25",
",  c #ac3748",
"<  c #b82d40",
"1  c #bb3644",
"2  c #b04557",
"3  c #b65762",
"4  c #bf6669",
"5  c #b36e76",
"6  c #b87367",
"7  c #c5021c",
"8  c #c80a23",
"9  c #c71329",
"0  c #c91c31",
"q  c #d90726",
"w  c #d6132d",
"e  c #da1c32",
"r  c #ca252c",
"t  c #c7273a",
"y  c #d92134",
"u  c #fa041f",
"i  c #ed082a",
"p  c #e6142c",
"a  c #fd0825",
"s  c #ff132e",
"d  c #ff1b35",
"f  c #eb273b",
"g  c #fe233a",
"h  c #c42e41",
"j  c #c63949",
"k  c #ca3e52",
"l  c #de2e41",
"z  c #d93a4f",
"x  c #e72c44",
"c  c #e93749",
"v  c #eb3e55",
"b  c #fd2c43",
"n  c #fc3347",
"m  c #fb3c54",
"M  c #c64641",
"N  c #c44452",
"B  c #da4658",
"V  c #c35a66",
"C  c #d85660",
"Z  c #c3636c",
"A  c #c36871",
"S  c #c2767c",
"D  c #df6869",
"F  c #db6874",
"G  c #de767c",
"H  c #e74648",
"J  c #eb4959",
"K  c #ea565c",
"L  c #f5404e",
"P  c #fe4957",
"I  c #fa525e",
"U  c #e14d68",
"Y  c #eb5767",
"T  c #fe4761",
"R  c #f85968",
"E  c #e1626c",
"W  c #eb6973",
"Q  c #e7787d",
"!  c #f5636d",
"~  c #fc6474",
"^  c #c27c82",
"/  c #d97c84",
"(  c #e47d82",
")  c #fb7787",
"_  c #878aa6",
"`  c #9193ac",
"'  c #999bb3",
"]  c #9fa1b7",
"[  c #a2a4ba",
"{  c #bcbece",
"}  c #c28687",
"|  c #cd8e90",
" . c #c79897",
".. c #dc898c",
"X. c #db8b91",
"o. c #d49a9a",
"O. c #d393a7",
"+. c #d2a19f",
"@. c #c6a8a5",
"#. c #d1a3a1",
"$. c #e18387",
"%. c #fc8697",
"&. c #fc969f",
"*. c #fc95a5",
"=. c #f3acb7",
"-. c #fab2bd",
";. c #d5b6c5",
":. c #ebbac3",
">. c #fbb8c3",
",. c #c3c0cf",
"<. c #c2c3d2",
"1. c #d3c6d3",
"2. c #f7c6cb",
"3. c #fbcad3",
"4. c #f8d7dc",
"5. c #f7dee3",
"6. c #efeef4",
"7. c #f9e6eb",
"8. c #faeef2",
"9. c #f9f7fb",
"0. c None",
"0.0.0.0.0.0.0.0.0.0.0.0.0.0.0.0.0.0.0.0.0.0.0.0.0.0.0.0.0.0.0.0.0.0.0.0.0.0.0.0.0.0.",
"0.0.0.0.0.0.0.0.0.0.0.0.0.0.0.0.0.0.0.0.0.0.0.0.0.0.0.0.0.0.0.0.0.0.0.0.0.0.0.0.0.0.",
"0.0.0.0.0.0.0.0.0.0.0.0.0.0.0.0.0.0.0.0.0.0.0.0.0.0.0.0.0.0.0.0.0.0.0.0.0.0.0.0.0.0.",
"0.0.0.0.0.0.0.0.0.0.0.0.0.0.0.0.0.0.0.0.0.0.0.0.0.0.0.0.0.0.0.0.0.0.0.0.0.0.0.0.0.0.",
"0.0.0.0.0.0.0.0.0.0.0.0.0.0.0.0.0.0.0.0.0.0.0.0.0.0.0.0.0.0.0.0.0.0.0.0.0.0.0.0.0.0.",
"0.0.0.0.0.0.0.0.0.0.0.0.0.0.0.0.0.0.0.0.0.0.0.0.0.0.0.0.0.0.0.0.0.0.0.0.0.0.0.0.0.0.",
"0.0.0.0.0.0.0.0.0.0.0.0.0.0.0.0.0.0.0.0.0.0.0.0.0.0.0.0.0.0.0.0.0.#.0.0.0.0.0.0.0.0.",
"0.0.0.0.0.0.0.0.0.#.X.X.X.X.o.0.0.0.0.0.0.0.0.0.0.0.0.0.0.0.0.#.( Q ..0.0.0.0.0.0.0.",
"0.0.0.0.0.0.0.0.0.X.I I I I W 0.0.0.0.0.0.0.0.0.0.0.0.0.0.0.0.Q P P I W 0.0.0.0.0.0.",
"0.0.0.0.0.0.0.0.0...P P P P I $.0.0.0.0.0.0.0.0.0.0.0.0.0.0.@.D P P P P 0.0.0.0.0.0.",
"0.0.0.0.0.0.0.0.0...P P P P P I W ! ! ! W #.0.0.0.0.@.@.[ [ } M H P P P 0.0.0.0.0.0.",
"0.0.0.0.0.0.0.0.0.X.P P P P P P P P P P R o.0.0.0.S 9 9 9 > > 7 r P P P 0.0.0.0.0.0.",
"0.0.0.0.0.0.0.0.0.X.P P m f e e 0 0 0 l J o.0.0.^ 7 7 7 7 7 7 7 9 P P P 0.0.0.0.0.0.",
"0.0.0.0.0.0.0.0.0.0.G f p 7 = = * * % % ; 5 0.} 8 7 7 t j 0 7 7 8 P P P 0.0.0.0.0.0.",
"0.0.0.0.0.0.0.0.0.| C p l z B k < ; % % % & 3 t 7 7 t } 0.S t 7 8 P P P 0.0.0.0.0.0.",
"0.0.0.0.0.0.0.0.| x R ) =.4.7.5.:.X.V : % % t J 9 0 } 0.0.0.S t 8 P P P 0.0.0.0.0.0.",
"0.0.0.0.0.0.0.0.W ! 2.7.9.9.9.9.9.9.4./ : - B R c 1 0.0.0.0.0.^ t K R R 0.0.0.0.0.0.",
"0.0.0.0.0.0.0.F m 2.9.9.9.9.6._ # ' 9.2.C h Y Y Y 2 0.0.0.0.0.0.}  .+.#.0.0.0.0.0.0.",
"0.0.0.0.0.0.0.g n 3.9.9.9.6.$ O X + ` 2.Y J R J R F 0.0.0.0.0.0.0.0.0.0.0.0.0.0.0.0.",
"0.0.0.0.0.0.E s d ~ 4.9.9.9.{ + . @ ;.W w J R P R W 0.0.0.0.0.0.0.0.0.0.0.0.0.0.0.0.",
"0.0.0.0.0.0.b s d b T ) -.7.6.1.O.U b i q v ! I ! Y , 0.0.0.0.0.0.0.0.0.0.0.0.0.0.0.",
"0.0.0.0.0.0.n d d g g n m T P m b d a a i x R I R Y , 0.0.0.0.0.0.0.0.0.0.0.0.0.0.0.",
"0.0.0.0.0.0.n d g b T %.>.4.7.7.3.*.R d a x R I R Y < 0.0.0.0.0.0.0.0.0.0.0.0.0.0.0.",
"0.0.0.0.0.0.n g b ~ 3.7.9.9.9.<.0.,.7.&.d m ! I ! Y 1 0.0.0.0.0.0.0.0.0.0.0.0.0.0.0.",
"0.0.0.0.0.0.n g m 3.9.9.9.9.{ @ o @ 0.7.) P R P R Y S 0.0.0.0.0.0.0.0.0.0.0.0.0.0.0.",
"0.0.0.0.0.0.E g P 5.9.9.9.9.[ + . + [ 4.~ P ! R R B 0.0.0.0.0.@.@.0.0.0.0.0.0.0.0.0.",
"0.0.0.0.0.0.0.b n &.7.9.9.9.6.] ` [ 7.&.g g R R R t 0.0.0.0.0.4 j D W W 0.0.0.0.0.0.",
"0.0.0.0.0.0.0.G g P ) -.4.8.9.6.5.-.) n a a m ! l 0 0.0.0.0.A 9 7 L P P 0.0.0.0.0.0.",
"0.0.0.0.0.0.0.0.G b n P R ~ ~ R P n d a a u p v 9 9 @.0.0.0.N 7 7 L P P 0.0.0.0.0.0.",
"0.0.0.0.0.0.0.0.0./ b g g g g d d s a a a u a q 7 7 h  .@.V 9 7 y P P P 0.0.0.0.0.0.",
"0.0.0.0.0.0.0.0.0.0...b d d d d s a a a a s ..j 7 7 7 7 7 7 7 7 c P P P 0.0.0.0.0.0.",
"0.0.0.0.0.0.0.0.0.0.0.G b d d d s s s s d F 0.6 > 7 7 7 7 7 7 9 c P P P 0.0.0.0.0.0.",
"0.0.0.0.0.0.0.0.0.0.0...P n b b b b n L P $.0.0.4 N 9 8 8 9 j V K P P P 0.0.0.0.0.0.",
"0.0.0.0.0.0.0.0.0.0.#.! P P P P P P P P P $.0.0.0.0.Z V Z Z  .0.Q P P I 0.0.0.0.0.0.",
"0.0.0.0.0.0.0.0.0.0.+.R P P P P P P R ( ..#.0.0.0.0.0.0.0.0.0.0.#.W ! ..0.0.0.0.0.0.",
"0.0.0.0.0.0.0.0.0.0.#.R P P P P P I X.0.0.0.0.0.0.0.0.0.0.0.0.0.0.#.o.0.0.0.0.0.0.0.",
"0.0.0.0.0.0.0.0.0.0.o.R P P P P P X.0.0.0.0.0.0.0.0.0.0.0.0.0.0.0.0.0.0.0.0.0.0.0.0.",
"0.0.0.0.0.0.0.0.0.0.0.o.Q I P ( #.0.0.0.0.0.0.0.0.0.0.0.0.0.0.0.0.0.0.0.0.0.0.0.0.0.",
"0.0.0.0.0.0.0.0.0.0.0.0.0.#.#.0.0.0.0.0.0.0.0.0.0.0.0.0.0.0.0.0.0.0.0.0.0.0.0.0.0.0.",
"0.0.0.0.0.0.0.0.0.0.0.0.0.0.0.0.0.0.0.0.0.0.0.0.0.0.0.0.0.0.0.0.0.0.0.0.0.0.0.0.0.0.",
"0.0.0.0.0.0.0.0.0.0.0.0.0.0.0.0.0.0.0.0.0.0.0.0.0.0.0.0.0.0.0.0.0.0.0.0.0.0.0.0.0.0.",
"0.0.0.0.0.0.0.0.0.0.0.0.0.0.0.0.0.0.0.0.0.0.0.0.0.0.0.0.0.0.0.0.0.0.0.0.0.0.0.0.0.0."
};
