/* XPM */
static char *red_ball_destroy9[] = {
"42 42 62 1",
"  c #000000",
". c #302d5c",
"X c #5f6387",
"o c #a80d24",
"O c #a83d4b",
"+ c #b4384a",
"@ c #c5031d",
"# c #c70821",
"$ c #c91d31",
"% c #c82839",
"& c #d72639",
"* c #fd0a26",
"= c #ff122c",
"- c #ff1932",
"; c #e2253b",
": c #c03843",
"> c #da3346",
", c #d83f51",
"< c #eb2f4a",
"1 c #eb3345",
"2 c #e83a56",
"3 c #ff2e43",
"4 c #fa384a",
"5 c #f93d57",
"6 c #c34352",
"7 c #c45560",
"8 c #d85c6a",
"9 c #de737a",
"0 c #e24751",
"q c #fd4b59",
"w c #f9515c",
"e c #f65565",
"r c #e76a73",
"t c #e67279",
"y c #e37981",
"u c #fd7487",
"i c #8889a4",
"p c #bfbccb",
"a c #c6888b",
"s c #c58d90",
"d c #c29293",
"f c #da8a8c",
"g c #da8f90",
"h c #d29395",
"j c #d1a19f",
"k c #c4aba6",
"l c #c9b2ad",
"z c #c3bcb6",
"x c #e28084",
"c c #f38293",
"v c #ed9ca3",
"b c #fc9ba7",
"n c #f4abb9",
"m c #f2b5bf",
"M c #e7bcc5",
"N c #c1c1ba",
"B c #c3c5d3",
"V c #fbcfd6",
"C c #fae1e6",
"Z c #f7eff3",
"A c #f8f7fa",
"S c None",
"SSSSSSSSSSSSSSSSSSSSSSSSSSSSSSSSSSSSSSSSSS",
"SSSSSSSSSSSSSSSSSSSSSSSSSSSSSSSSSSSSSSSSSS",
"SSSSSSSSSSSSSSSSSSSSSSSSSSSSSSSSSSSSSSSSSS",
"SSSSSSSSSSSSSSSSSSSSSSSSSSSSSSSSSSSSSSSSSS",
"SSSSSSSSSSSSSSSSSSSSSSSSSSSSSSSSSSSSSSSSSS",
"SSSSSSSSSSSSSSSSSSSSSSSSSSSSSSSSSSSSSSSSSS",
"SSSSSSSSSSSSSSSSSSSSSSSSSSSSSSSSSSSSSSSSSS",
"SSSSSSSSSSSSSSSSSSSSSSSSSSSSSSSSSSSSSSSSSS",
"SSSSSSSSSSSSSSSSSSSSSSSSSSSSSSSSSSSSSSSSSS",
"SSSSSSSSSSSSSSSSSSSSSSSSSSSSSSSSSSSSSSSSSS",
"SSSSSSSSSSSSSSSSSSSSSSSSSSSSSSSSSSSSSSSSSS",
"SSSSSSSSSSSSSSSSSSSSSSSSSSSSSSSSSSSSSSSSSS",
"SSSSSSSSSSSSSSSSSSSSSSSSSSSSSSSSSSSSSSSSSS",
"SSSSSSSSSSSSSSSSztwfNSSSSSSSSSSSSSSSSSSSSS",
"SSSSSSSSSSSSSSSSlwqw9tthNSSSSSSSSSSSSSSSSS",
"SSSSSSSSSSSSSSSSlw4-4bb39zSSSSSSSSSSSSSSSS",
"SSSSSSSSSSSSSSSSg4=3VAC4-fSSSSSSSSSSSSSSSS",
"SSSSSSSSSSSSSSSSl4*cXpnubyNSSSSSSSSSSSSSSS",
"SSSSSSSSSSSSSSz7:;*vinnZZrzSSSSSSSSSSSSSSS",
"SSSSSSSSSSSSSN7#%>eq52.Bm1yzSSSSSSSSSSSSSS",
"SSSSSSSSSSSSfr$6zaee<8pM%1qtSSSSSSSSSSSSSS",
"SSSSSSSSSSSSSq1%SS7ee,+o&wwjSSSSSSSSSSSSSS",
"SSSSSSSSSSSSSSq8SSSs8,O>rzlSSSSSSSSSSSSSSS",
"SSSSSSSSSSSSSSSzSSSSd#kjlSSSSSSSSSSSSSSSSS",
"SSSSSSSSSSSSSSSSSSSkd@aSSSSSSSSSSSSSSSSSSS",
"SSSSSSSSSSSSSSSSSl0#@7zSSSSSSSSSSSSSSSSSSS",
"SSSSSSSSSSSSSSSSSSq4%kSSSSSSSSSSSSSSSSSSSS",
"SSSSSSSSSSSSSSSSSSSqqxSSSSSSSSSSSSSSSSSSSS",
"SSSSSSSSSSSSSSSSSSSSSSSSSSSSSSSSSSSSSSSSSS",
"SSSSSSSSSSSSSSSSSSSSSSSSSSSSSSSSSSSSSSSSSS",
"SSSSSSSSSSSSSSSSSSSSSSSSSSSSSSSSSSSSSSSSSS",
"SSSSSSSSSSSSSSSSSSSSSSSSSSSSSSSSSSSSSSSSSS",
"SSSSSSSSSSSSSSSSSSSSSSSSSSSSSSSSSSSSSSSSSS",
"SSSSSSSSSSSSSSSSSSSSSSSSSSSSSSSSSSSSSSSSSS",
"SSSSSSSSSSSSSSSSSSSSSSSSSSSSSSSSSSSSSSSSSS",
"SSSSSSSSSSSSSSSSSSSSSSSSSSSSSSSSSSSSSSSSSS",
"SSSSSSSSSSSSSSSSSSSSSSSSSSSSSSSSSSSSSSSSSS",
"SSSSSSSSSSSSSSSSSSSSSSSSSSSSSSSSSSSSSSSSSS",
"SSSSSSSSSSSSSSSSSSSSSSSSSSSSSSSSSSSSSSSSSS",
"SSSSSSSSSSSSSSSSSSSSSSSSSSSSSSSSSSSSSSSSSS",
"SSSSSSSSSSSSSSSSSSSSSSSSSSSSSSSSSSSSSSSSSS",
"SSSSSSSSSSSSSSSSSSSSSSSSSSSSSSSSSSSSSSSSSS"
};
