/* XPM */
static char *red_ball_destroy2[] = {
"42 42 128 2",
"   c #000000",
".  c #0c1449",
"X  c #192053",
"o  c #252c5c",
"O  c #2e3462",
"+  c #303764",
"@  c #3f456f",
"#  c #5b3963",
"$  c #454b74",
"%  c #5b4f76",
"&  c #5c6185",
"*  c #686d8e",
"=  c #7f7f9c",
"-  c #8f0217",
";  c #980017",
":  c #980b23",
">  c #a50119",
",  c #ba0219",
"<  c #b9191a",
"1  c #b41d32",
"2  c #ae2237",
"3  c #b23c2c",
"4  c #bd343a",
"5  c #bf2f44",
"6  c #bf4457",
"7  c #be5f62",
"8  c #b4606a",
"9  c #bd7878",
"0  c #c5011b",
"q  c #db021c",
"w  c #c80922",
"e  c #c6142a",
"r  c #c31d31",
"t  c #d80725",
"y  c #dd0e37",
"u  c #d6172d",
"i  c #d61f37",
"p  c #c9222e",
"a  c #c7283e",
"s  c #d9263b",
"d  c #d63d3a",
"f  c #e5031d",
"g  c #f3041f",
"h  c #ea0725",
"j  c #e30c34",
"k  c #e9172e",
"l  c #e91d33",
"z  c #fe0926",
"x  c #fd122d",
"c  c #ff1b34",
"v  c #ec293d",
"b  c #fe253b",
"n  c #c33548",
"m  c #de2c40",
"M  c #d93a4c",
"N  c #ec3a4a",
"B  c #ec3f57",
"V  c #fc2b44",
"C  c #f6374b",
"Z  c #fc3852",
"A  c #c34a59",
"S  c #c95647",
"D  c #c3525e",
"F  c #c35964",
"G  c #d54961",
"H  c #c2606a",
"J  c #c5777c",
"K  c #dd636d",
"L  c #d16b73",
"P  c #d97379",
"I  c #e84557",
"U  c #eb515e",
"Y  c #f8434e",
"T  c #fe4957",
"R  c #f95056",
"E  c #ee5666",
"W  c #ef5f72",
"Q  c #fd4c63",
"!  c #f75b69",
"~  c #ea6764",
"^  c #ee6971",
"/  c #e9767b",
"(  c #f4626a",
")  c #f96474",
"_  c #fb7c70",
"`  c #ab6d89",
"'  c #b67e84",
"]  c #c27a80",
"[  c #d67783",
"{  c #e37c81",
"}  c #fc788a",
"|  c #bb867d",
" . c #878aa5",
".. c #8f92ac",
"X. c #9497af",
"o. c #9598b0",
"O. c #a897ae",
"+. c #bca1a0",
"@. c #acaec1",
"#. c #c58a8c",
"$. c #c38b92",
"%. c #c39999",
"&. c #da898c",
"*. c #d69697",
"=. c #c2a29f",
"-. c #d2a29f",
";. c #c7a9a6",
":. c #d8a2a7",
">. c #e18987",
",. c #fc8998",
"<. c #ef9ca9",
"1. c #fc98a5",
"2. c #e3afb8",
"3. c #e9b0bb",
"4. c #fca2ac",
"5. c #f7a6b1",
"6. c #fbb6be",
"7. c #fbb8c4",
"8. c #cacad8",
"9. c #efd2d9",
"0. c #fbc5cd",
"q. c #f9cfd6",
"w. c #f9d7db",
"e. c #f9dce2",
"r. c #f9e5ea",
"t. c #f9eef2",
"y. c #faf8fb",
"u. c None",
"u.u.u.u.u.u.u.u.u.u.u.u.u.u.u.u.u.u.u.u.u.u.u.u.u.u.u.u.u.u.u.u.u.u.u.u.u.u.u.u.u.u.",
"u.u.u.u.u.u.u.u.u.u.u.u.u.u.u.u.u.u.u.u.u.u.u.u.u.u.u.u.u.u.u.u.u.u.u.u.u.u.u.u.u.u.",
"u.u.u.u.u.u.u.u.u.u.u.u.u.u.u.u.u.u.u.u.u.u.u.u.u.u.u.u.u.u.u.u.u.u.u.u.u.u.u.u.u.u.",
"u.u.u.u.u.u.u.u.u.u.u.u.u.u.u.u.u.u.u.u.u.u.u.u.u.u.u.u.u.u.u.u.u.u.u.u.u.u.u.u.u.u.",
"u.u.u.u.u.u.u.u.u.u.u.u.u.u.u.u.u.u.u.u.u.u.u.u.u.u.u.u.u.u.u.u.u.u.u.u.u.u.u.u.u.u.",
"u.u.u.u.u.u.u.u.u.u.u.u.u.u.u.u.u.u.u.u.u.u.u.u.u.u.u.u.u.u.u.u.u.u.u.u.u.u.u.u.u.u.",
"u.u.u.u.u.u.u.u.u.u.u.u.u.u.u.*.C B Y Y N C C &.u.u.u.u.u.u.u.u.u.u.u.u.u.u.u.u.u.u.",
"u.u.u.u.u.u.u.u.u.u.u.u.u.&.U Y c c c c c x x V I P u.u.u.u.u.u.u.u.u.u.u.u.u.u.u.u.",
"u.u.u.u.u.u.u.u.u.u.u.u.&.Y b b b b b b c c x z z b P u.u.u.u.u.u.u.u.u.u.u.u.u.u.u.",
"u.u.u.u.u.u.u.u.u.u.u.&.Y b T } ,.) V b b c x V ) ) R K L u.u.u.u.u.u.u.u.u.u.u.u.u.",
"u.u.u.u.u.u.u.u.u.u.&.C b T 1.r.y.0.) V b c Z ,.w.e.,.V k u.u.*.*.*.*.*.*.*.u.u.u.u.",
"u.-.*.*.*.*.-.u.u.*.C b C ,.r.y.y.y.q.T b c ,.e.y.y.r.,.x #.*.! T T T T T ^ u.u.u.u.",
"u./ T T T T ( ;.*.b b b ! 6.y.y.y.y.y.} V V 7.y.y.y.y.q.l f V T T T T T T ^ u.u.u.u.",
"u.^ T T T T R T c c b b } w.y.y.y.y.y.6.Z ) q.y.y.y.y.e.W q l Y T T T T T ^ u.u.u.u.",
"^ T T T T T T Y c c b b 1.t.y.y.y.y.y.e.Z 1.r.y.y.y.y.t.5.q q C T T T T T ^ u.u.u.u.",
"^ T T T T T T b c c b b 4.y.y.y.y.y.y.y.Z 7.y.y.y.y.y.y.q.0 0 u C T T T T ^ u.u.u.u.",
"^ T T T T T Y b x c c b 5.y.y.u.& y.y.y.Z 0.y. ...y.y.y.e.0 , u C T T T T ^ u.u.u.u.",
";.^ T T T T Y b x x c c 4.y.@.+ X & y.y.Z 7.= o o  .y.y.9., , u N T T / ;.;.u.u.u.u.",
"u./ T T T T Y b x x x c 1.t.o.. . O y.r.V 1.% . . * y.t.3., > e N T / ;.u.u.u.u.u.u.",
"u.:.^ T T T Y b z x x x } e.o.. . O y.7.V ) # . . * y.r.[ > > e N T &.u.u.u.u.u.u.u.",
"u.u.-.^ T T Y b z z z x Q 7.8.& o X.y.} c V ` @ $ u.y.9.5 > > e N T &.u.u.u.u.u.u.u.",
"u.u.u.-.^ T T V z z z z b ,.t.8...y.w.Z z z ,.O.u.y.t.:.> ; ; e N T &.u.u.u.u.u.u.u.",
"u.u.u.u.*.T T Z z z z z z T 4.w.y.w.} z z z B <.w.r.2.A ; ; ; s Y T &.u.u.u.u.u.u.u.",
"u.u.u.u.*.T T Y z z z z z z b _ 6.} z z h h t M / >.6 > ; - > N T T &.u.u.u.u.u.u.u.",
"u.u.u.u.*.! ! E V z z z z z x b b x x h j y u s m e > ; - - 2 U ! ! *.u.u.u.u.u.u.u.",
"u.u.u.u.u.u.u.u.u.b z g h z C ) ) ) ) U I W ) ) ) M ; - - : u.u.u.u.u.u.u.u.u.u.u.u.",
"u.u.u.u.u.u.u.u.u.u.v h N W ) ) ! ! ) W W ) ! ! ) ) W I 1 u.u.u.u.u.u.u.u.u.u.u.u.u.",
"u.u.u.u.u.u.u.u.3 r w N ! ) W Q T T T T T T T I I E ) W I r u.u.u.u.u.u.u.u.u.u.u.u.",
"u.u.u.u.u.u.;.4 0 0 0 w i I ) W ! ! ! ! ! ! ! ! ! ) E s e 0 a ;.u.u.u.u.u.u.u.u.u.u.",
"u.u.u.u.u.u.%.0 0 0 0 0 0 u s B ! ( ( ) ) ) ) W G n p w 0 0 0 n %.u.u.u.u.u.u.u.u.u.",
"u.u.u.u.u.%.A 0 0 0 0 D J J J #.[ s a a a a P *.$.' 9 F 0 0 0 0 n #.u.u.u.u.u.u.u.u.",
"u.u.u.u.u.$.0 0 0 0 A ;.u.u.u.u.;.H 8 8 8 8 +.u.u.u.u.;.F 0 0 0 0 ] u.u.u.u.u.u.u.u.",
"u.u.u.u.u.$.0 0 0 0 %.u.u.u.u.u.u.u.u.u.u.u.u.u.u.u.u.u.u.D w 0 0 ] u.u.u.u.u.u.u.u.",
"u.u.u.u.u.$.0 0 0 0 %.u.u.u.u.u.u.u.u.u.u.u.u.u.u.u.u.u.u.u.e 0 0 ] u.u.u.u.u.u.u.u.",
"u.u.u.u.u.$.0 0 0 0 J u.u.u.u.u.u.u.u.u.u.u.u.u.u.u.u.u.u.%.w 0 0 J u.u.u.u.u.u.u.u.",
"u.u.u.u.u.%.e 0 0 0 0 J ;.u.u.u.u.u.u.u.u.u.u.u.u.u.u.u.%.0 0 0 < | u.u.u.u.u.u.u.u.",
"u.u.u.u.u.u.%.0 0 0 0 0 0 H u.u.u.u.u.u.u.u.u.u.u.u.u.%.0 0 0 0 0 J u.u.u.u.u.u.u.u.",
"u.u.u.u.u.u.=.e e 0 0 0 0 , 7 u.u.u.u.u.u.u.u.u.u.u.#.w 0 0 0 0 0 < S ~ / u.u.u.u.u.",
"u.u.u.u.*.! E Y Y Y s w 0 0 D u.u.u.u.u.u.u.u.u.u.#.e 0 0 0 0 , < d R T R / u.u.u.u.",
"u.u.u.*.! T T T T T Y C C N P u.u.u.u.u.u.u.u.u.u.#.d C N C C C N Y T T T ^ u.u.u.u.",
"u.u.u.&.T T T T T T T T T T { u.u.u.u.u.u.u.u.u.u.*.R T T T T T T T T T T ^ u.u.u.u.",
"u.u.u.;./ T T T T T T T T T { u.u.u.u.u.u.u.u.u.u.*.T T T T T T T T T T ( *.u.u.u.u."
};
