/* XPM */
static char *red_ball_destroy8[] = {
"42 42 75 1",
"  c #000000",
". c #192153",
"X c #242b5b",
"o c #666a8c",
"O c #960117",
"+ c #b50d24",
"@ c #b02a3e",
"# c #bd3445",
"$ c #c70a22",
"% c #c7152a",
"& c #c41c32",
"* c #d81c32",
"= c #c42839",
"- c #da253c",
"; c #e2072b",
": c #fd0926",
"> c #f8142e",
", c #ff1b33",
"< c #fe253b",
"1 c #c33949",
"2 c #df3c4e",
"3 c #ee3647",
"4 c #fd2842",
"5 c #fa3849",
"6 c #c64a58",
"7 c #c8535e",
"8 c #d04e6b",
"9 c #c97479",
"0 c #d16c7c",
"q c #d6737b",
"w c #e84959",
"e c #e6595b",
"r c #fc4856",
"t c #fb505c",
"y c #ed5362",
"u c #f85968",
"i c #ee6a72",
"p c #e8767c",
"a c #fd6a7e",
"s c #c27c81",
"d c #e57e85",
"f c #fd6f81",
"g c #fc7889",
"h c #bf807e",
"j c #80819d",
"k c #8a8da8",
"l c #bd9192",
"z c #bea4a2",
"x c #bda5b7",
"c c #b0b0c3",
"v c #c38a8c",
"b c #ca9c9d",
"n c #d98a89",
"m c #d59898",
"M c #c8a8a5",
"N c #c6b3af",
"B c #c3bbb5",
"V c #d0a4a2",
"C c #e18386",
"Z c #f9818f",
"A c #fd8c98",
"S c #fc909e",
"D c #e295a4",
"F c #fca1b0",
"G c #fbbdc8",
"H c #c1c1ba",
"J c #c1c0cf",
"K c #c5c6d4",
"L c #dfdee7",
"P c #e6ced8",
"I c #eed7dd",
"U c #fbd1d9",
"Y c #fae6eb",
"T c #faf6f9",
"R c None",
"RRRRRRRRRRRRRRRRRRRRRRRRRRRRRRRRRRRRRRRRRR",
"RRRRRRRRRRRRRRRRRRRRRRRRRRRRRRRRRRRRRRRRRR",
"RRRRRRRRRRRRRRRRRRRRRRRRRRRRRRRRRRRRRRRRRR",
"RRRRRRRRRRRRRRRRRRRRRRRRRRRRRRRRRRRRRRRRRR",
"RRRRRRRRRRRRRRRRRRRRRRRRRRRRRRRRRRRRRRRRRR",
"RRRRRRRRRRRRRRRRRRRRRRRRRRRRRRRRRRRRRRRRRR",
"RRRRRRRRRRRRRRRRRRRRRRRRRRRRRRRRRRRRRRRRRR",
"RRRRRRRRRRRRRRRRRRRRRRRRRRRRRRRRRRRRRRRRRR",
"RRRRRRRRRRRRRRRRRRRRRRRRRRRRRRRRRRRRRRRRRR",
"RRRRRRRRRRRRRRRRRRRRRRRRRRRRRRRRRRRRRRRRRR",
"RRRRRRRRRRRRRRRRRRRRRRRRRRRRRRRRRRRRRRRRRR",
"RRRRRRRRRRRRRRRRRRRRRRRRRRRRRRRRRRRRRRRRRR",
"RRRRRRRRRRRRRRRRRRRRRRRBRRRRRRRRRRRRRRRRRR",
"RRRRRRRRRRRRRRRRRRRRRBVpCmRRRRRRRRRRRRRRRR",
"RRRRRRRRRRRRRRRRRRRRHmtrrCRRRRRRRRRRRRRRRR",
"RRRRRRRRRRRRppNMbRHMitrrrnHRRRRRRRRRRRRRRR",
"RRRRRRRRRRRRrt7&%=hV5<<<5mHRRRRRRRRRRRRRRR",
"RRRRRRRRRRRRrr$%=$&w::>,<wMHRRRRRRRRRRRRRR",
"RRRRRRRRRRRRr3$sN6->:4fSAurbRRRRRRRRRRRRRR",
"RRRRRRRRRRRRuw6NR9yr5PjKTYZyBRRRRRRRRRRRRR",
"RRRRRRRRRRRRBBRRRquugcXkTTS<MRRRRRRRRRRRRR",
"RRRRRRRRRRRRRRRRR6uu:fGUGg4,VRRRRRRRRRRRRR",
"RRRRRRRRRRRRRRRRR6uu;48DFa4,bRRRRRRRRRRRRR",
"RRRRRRRRRRRRRRRRRbyu2x.oTTSwNRRRRRRRRRRRRR",
"RRRRRRRRRRRRmnvRHlww1IJLTYZmHRRRRRRRRRRRRR",
"RRRRRRRRRRRRr5=vB7*#O@0DdwqBHRRRRRRRRRRRRR",
"RRRRRRRRRRRRRr$%1$1z#++$*5mHRRRRRRRRRRRRRR",
"RRRRRRRRRRRRRr%=11zHirrrrrnHRRRRRRRRRRRRRR",
"RRRRRRRRRRRRRreMBBRRNNNdrrCRRRRRRRRRRRRRRR",
"RRRRRRRRRRRRRidRRRRRRRRMmmVRRRRRRRRRRRRRRR",
"RRRRRRRRRRRRRRRRRRRRRRRRRRRRRRRRRRRRRRRRRR",
"RRRRRRRRRRRRRRRRRRRRRRRRRRRRRRRRRRRRRRRRRR",
"RRRRRRRRRRRRRRRRRRRRRRRRRRRRRRRRRRRRRRRRRR",
"RRRRRRRRRRRRRRRRRRRRRRRRRRRRRRRRRRRRRRRRRR",
"RRRRRRRRRRRRRRRRRRRRRRRRRRRRRRRRRRRRRRRRRR",
"RRRRRRRRRRRRRRRRRRRRRRRRRRRRRRRRRRRRRRRRRR",
"RRRRRRRRRRRRRRRRRRRRRRRRRRRRRRRRRRRRRRRRRR",
"RRRRRRRRRRRRRRRRRRRRRRRRRRRRRRRRRRRRRRRRRR",
"RRRRRRRRRRRRRRRRRRRRRRRRRRRRRRRRRRRRRRRRRR",
"RRRRRRRRRRRRRRRRRRRRRRRRRRRRRRRRRRRRRRRRRR",
"RRRRRRRRRRRRRRRRRRRRRRRRRRRRRRRRRRRRRRRRRR",
"RRRRRRRRRRRRRRRRRRRRRRRRRRRRRRRRRRRRRRRRRR"
};
