/* XPM */
static char *red_ball_jump19[] = {
"42 42 64 1",
"  c #000000",
". c #0c1449",
"X c #8b0015",
"o c #980017",
"O c #a60019",
"+ c #b7001a",
"@ c #b6161a",
"# c #ae0c26",
"$ c #b30c24",
"% c #af2613",
"& c #b42517",
"* c #9e214a",
"= c #c5011b",
"- c #c7111e",
"; c #db021c",
": c #ca1528",
"> c #cc1b33",
", c #d80325",
"< c #d3152e",
"1 c #d71b31",
"2 c #e6021c",
"3 c #f5031e",
"4 c #e60622",
"5 c #e10230",
"6 c #e01b31",
"7 c #fe0825",
"8 c #ff0d31",
"9 c #fe122c",
"0 c #ff1a34",
"q c #ed2438",
"w c #ff263b",
"e c #dd3242",
"r c #e52f41",
"t c #ff2b42",
"y c #fa3b4a",
"u c #e04e3f",
"i c #d35c6e",
"p c #dc7667",
"a c #ec4a5c",
"s c #ff4957",
"d c #f85652",
"f c #ea5465",
"g c #f75b6a",
"h c #f75c70",
"j c #fa6848",
"k c #e26a76",
"l c #f6606f",
"z c #f96473",
"x c #d57c8b",
"c c #fd6b80",
"v c #d78593",
"b c #fa8796",
"n c #fb9ead",
"m c #ebb4be",
"M c #fbaab4",
"N c #f8b4be",
"B c #fbbbc5",
"V c #f9cbb4",
"C c #fbc5cc",
"Z c #fad7de",
"A c #fadae0",
"S c #f9eaef",
"D c #faf9fc",
"F c None",
"FFFFFFFFFFFFFFFFFFFFFFFFFFFFFFFFFFFFFFFFFF",
"FFFFFFFFFFFFFFFFFFFFFFFFFFFFFFFFFFFFFFFFFF",
"FFFFFFFFFFFFFFFFFFFFFFFFFFFFFFFFFFFFFFFFFF",
"FFFFFFFFFFFFFFFFFFFFFFFFFFFFFFFFFFFFFFFFFF",
"FFFFFFFFFFFFFFFFFFFFFFFFFFFFFFFFFFFFFFFFFF",
"FFFFFFFFFFFFFFFFFFFFFFFFFFFFFFFFFFFFFFFFFF",
"FFFFFFFFFFFFFFFFFFFFFFFFFFFFFFFFFFFFFFFFFF",
"FFFFFFFFFFFFFFFFFFFFFFFFFFFFFFFFFFFFFFFFFF",
"FFFFFFFFFFFFFFFFFFFFFFFFFFFFFFFFFFFFFFFFFF",
"FFFFFFFFFFFFFFFFFFFFF9900997FFFFFFFFFFFFFF",
"FFFFFFFFFFFFFFFFFFF00www009977FFFFFFFFFFFF",
"FFFFFFFFFFFFFFFFFF0wwwwww009977FFFFFFFFFFF",
"FFFFFFFFFFFFFFFFFwwtBDBtww09bDb72FFFFFFFFF",
"FFFFFFFFFFFFFFFFwwtCDDDCtw0bDDDb7FFssssssF",
"FFFFFFFFssssdFF0wwlDDDDDhwtDDDDD92yssssssF",
"FFFFFFFFssssds00wwMDDDDDM0cDDDDDh;qssssssF",
"FFFFFFFsssssss00wwADDDDDA0BDDDDDN;,ssssssF",
"FFFFFFFssssssw00wwDDDDDDD0SDDDDDS==6sssssF",
"FFFFFFFssssssw900wDDDD.DD0DDD.DDD=+1sssssF",
"FFFFFFFFsssssw9900DDD...D9SD...DS+O1sssFFF",
"FFFFFFFFsssssw9999ZDD...Z8BD...Dm+O>ssFFFF",
"FFFFFFFFFssssw9999nDD...n8zD...DiOO>ssFFFF",
"FFFFFFFFFFsssw9799sDDD.Ds79DD.DD$oo>ssFFFF",
"FFFFFFFFFFFssy77777BDDDB777bDDDvOoo>ssFFFF",
"FFFFFFFFFFFsss977777jDN7744,kVxOoXOsssFFFF",
"FFFFFFFFFFFsss977777007745,=r>OoXX#sssFFFF",
"FFFFFFFFFFFFFFF73337zzzzaazzzloXXoFFFFFFFF",
"FFFFFFFFFFFFFFFF74gzzzgzhhzgzzzg$FFFFFFFFF",
"FFFFFFFFFFFFFFF==azzfsssssssefzza=FFFFFFFF",
"FFFFFFFFFFFFFF====<zzzzzhhzzlzz<===FFFFFFF",
"FFFFFFFFFFFFFF=====-1flhzzllf*@=====FFFFFF",
"FFFFFFFFFFFFF=====FFFF=+OOOFFFFF=====FFFFF",
"FFFFFFFFFFFFF====FFFFFFFFFFFFFFFF====FFFFF",
"FFFFFFFFFFFF=====FFFFFFFFFFFFFFFFF===FFFFF",
"FFFFFFFFFFFF====FFFFFFFFFFFFFFFFFF===FFFFF",
"FFFFFFFFFFFF====FFFFFFFFFFFFFFFFF===%FFFFF",
"FFFFFFFFFFFF====FFFFFFFFFFFFFFFF=====FFFFF",
"FFFFFFFFssss=::=FFFFFFFFFFFFFFF======&psFF",
"FFFFFFssssss====FFFFFFFFFFFFFF=====@@dsssF",
"FFFFFFssssssss==FFFFFFFFFFFFFFussssssssssF",
"FFFFFFFsssssssssFFFFFFFFFFFFFFsssssssssssF",
"FFFFFFFsssssssssFFFFFFFFFFFFFFssssssssssFF"
};
