/* XPM */
static char *red_ball_jump9[] = {
"42 42 62 1",
"  c #000000",
". c #0c1449",
"X c #8b0015",
"o c #980017",
"O c #a60019",
"+ c #b90419",
"@ c #b31517",
"# c #ae0c26",
"$ c #b30c24",
"% c #af2514",
"& c #9e214a",
"* c #c5011b",
"= c #c7111e",
"- c #db021c",
"; c #ca1528",
": c #cc1b33",
"> c #d80325",
", c #d3152e",
"< c #d71b31",
"1 c #db2437",
"2 c #e6021c",
"3 c #f5031e",
"4 c #e60622",
"5 c #e10230",
"6 c #fe0825",
"7 c #ff0d31",
"8 c #fe122c",
"9 c #ff1a34",
"0 c #ed2438",
"q c #ff263b",
"w c #dd3242",
"e c #e52f41",
"r c #ff2b42",
"t c #fa3b4a",
"y c #d35c6e",
"u c #ec464d",
"i c #ec4a5c",
"p c #ff4957",
"a c #fc5353",
"s c #ea5465",
"d c #f75b6a",
"f c #f75c70",
"g c #fa6848",
"h c #e26a76",
"j c #f6606f",
"k c #f96473",
"l c #d57c8b",
"z c #fd6b80",
"x c #d78593",
"c c #fa8796",
"v c #fb9ead",
"b c #ebb4be",
"n c #fbaab4",
"m c #f8b4be",
"M c #fbbbc5",
"N c #f9cbb4",
"B c #fbc5cc",
"V c #fad7de",
"C c #fadae0",
"Z c #f9eaef",
"A c #faf9fc",
"S c None",
"SSSSSSSSSSSSSSSSSSSSSSSSSSSSSSSSSSSSSSSSSS",
"SSSSSSSSSSSSSSSSSSSSSSSSSSSSSSSSSSSSSSSSSS",
"SSSSSSSSSSSSSSSSSSSSSSSSSSSSSSSSSSSSSSSSSS",
"SSSSSSSSSSSSSSSSSSSSSSSSSSSSSSSSSSSSSSSSSS",
"SSSSSSSSSSSSSSSSSSSSSSSSSSSSSSSSSSSSSSSSSS",
"SSSSSSSSSSSSSSSSSSSSSSSSSSSSSSSSSSSSSSSSSS",
"SSSSSSSSSSSSSSSSSSSSSSSSSSSSSSSSSSSSSSSSSS",
"SSSSSSSSSSSSSSSSSSSSSSSSSSSSSSSSSSSSSSSSSS",
"SSSSSSSSSSSSSSSSSSSSSSSSSSSSSSSSSSSSSSSSSS",
"SSSSSSSSSSSSSSSS8899886SSSSSSSSSSSSSSSSSSS",
"SSSSSSSSSSSSSS999q9998866SSSSSSSSSSSSSSSSS",
"SSSSSSSSSSSSS9qqqqqq998866SSSSSSSSSSSSSSSS",
"SSSSSSSSSSSS9qrMAMrqq98cAc62SSSSSSSSSSSSSS",
"SSSSSSSSSSS9qrBAAABrq9cAAAc3SSppppppSSSSSS",
"SSSppppaSS9qqjAAAAAfqrAAAAA82tppppppSSSSSS",
"SSSppppap99qqnAAAAAn9zAAAAAf-0ppppppSSSSSS",
"SSppppppp99qqCAAAAAC9MAAAAAm->ppppppSSSSSS",
"SSppppppq99qqAAAAAAA9ZAAAAAZ**<pppppSSSSSS",
"SSppppppq899qAAAA.AA9AAA.AAA*+<pppppSSSSSS",
"SSSpppppq8899AAA...A8ZA...AZ+O<pppSSSSSSSS",
"SSSpppppq8888VAA...V7MA...Ab+O:ppSSSSSSSSS",
"SSSSppppq8888vAA...v7kA...AyOO:ppSSSSSSSSS",
"SSSSSpppq8688pAAA.Ap68AA.AA$oo:ppSSSSSSSSS",
"SSSSSSppt66666MAAAM666cAAAxOoo:ppSSSSSSSSS",
"SSSSSSppp866666gAm6644>hNlOoXOpppSSSSSSSSS",
"SSSSSSppp866666993645>*e:OoXX#pppSSSSSSSSS",
"SSSSSSSSSS63336kkkkiikkkfoXXoSSSSSSSSSSSSS",
"SSSSSSSSSSS64dkkkdkffkdkkkd$SSSSSSSSSSSSSS",
"SSSSSSSSS%**ikkspppppppwskki*SSSSSSSSSSSSS",
"SSSSSSSS+****,kkkkkffkkjkk,***SSSSSSSSSSSS",
"SSSSSSSS******=<sffkkjjs&@*****SSSSSSSSSSS",
"SSSSSSS*****SSSSS*+OOOSSSSS*****SSSSSSSSSS",
"SSSSSSS****SSSSSSSSSSSSSSSSS*****SSSSSSSSS",
"SSSSSSS****SSSSSSSSSSSSSSSSSS****SSSSSSSSS",
"SSSSSSS****SSSSSSSSSSSSSSSSSS****SSSSSSSSS",
"SSSSSSS*****SSSSSSSSSSSSSSSSS****SSSSSSSSS",
"SSSSSSSS******SSSSSSSSSSSSSSS****SSpppSSSS",
"SSSSSSSS;;****+SSSSSSSSSSSSSS*****pppppSSS",
"SSSSSSppppa1***SSSSSSSSSSSSSSS***pppppppSS",
"SSSSSpppppppppuSSSSSSSSSSSSSSSppppppppppSS",
"SSSSSppppppppppSSSSSSSSSSSSSSSppppppppppSS",
"SSSSSSpppppppppSSSSSSSSSSSSSSSpppppppppSSS"
};
