/* XPM */
static char *red_ball_destroy3[] = {
"42 42 125 2",
"   c #000000",
".  c #0c1449",
"X  c #11194d",
"o  c #192153",
"O  c #252c5c",
"+  c #3f3461",
"@  c #4f547b",
"#  c #747797",
"$  c #8f0015",
"%  c #980017",
"&  c #a50019",
"*  c #b9031a",
"=  c #a20b21",
"-  c #ae1924",
";  c #b9142b",
":  c #b51d34",
">  c #b6271d",
",  c #b53e33",
"<  c #bc394c",
"1  c #be3d51",
"2  c #be5255",
"3  c #b25c66",
"4  c #ae6a72",
"5  c #bc676a",
"6  c #bf7c7c",
"7  c #c5011b",
"8  c #d9031d",
"9  c #c80b24",
"0  c #c9132c",
"q  c #c41c32",
"w  c #d90622",
"e  c #d80b32",
"r  c #d2182d",
"t  c #d81b31",
"y  c #c12025",
"u  c #c52236",
"i  c #cf3a3e",
"p  c #db2538",
"a  c #d5333f",
"s  c #f2031e",
"d  c #e80627",
"f  c #e40a31",
"g  c #ed1f37",
"h  c #fd0926",
"j  c #fe122d",
"k  c #ff1a34",
"l  c #e6263a",
"z  c #ff253b",
"x  c #fd3639",
"c  c #c43647",
"v  c #d83244",
"b  c #e9384a",
"n  c #ec3b50",
"m  c #fa2b42",
"M  c #fc3448",
"N  c #fe3c58",
"B  c #c34957",
"V  c #d64457",
"C  c #c35964",
"Z  c #de5167",
"A  c #c36c74",
"S  c #c6767c",
"D  c #d26371",
"F  c #de767d",
"G  c #e3404f",
"H  c #ea4658",
"J  c #e95158",
"K  c #f5464f",
"L  c #fe4957",
"P  c #fa525a",
"I  c #ec5564",
"U  c #fe4a64",
"Y  c #f75967",
"T  c #fd5c73",
"R  c #e6666c",
"E  c #e76b76",
"W  c #e57a7f",
"Q  c #f3636c",
"!  c #fa6474",
"~  c #c27e83",
"^  c #d47f8d",
"/  c #e47d82",
"(  c #fd6980",
")  c #fb7687",
"_  c #bb847b",
"`  c #8b8ea8",
"'  c #8e91ab",
"]  c #9b91a9",
"[  c #9fa1b7",
"{  c #a3809a",
"}  c #bc8587",
"|  c #b79299",
" . c #a5a7bc",
".. c #bdbece",
"X. c #c29d9c",
"o. c #d88b8e",
"O. c #d78694",
"+. c #d69898",
"@. c #c3a49e",
"#. c #d2a19f",
"$. c #c8a8a5",
"%. c #e28387",
"&. c #e38b99",
"*. c #e1939f",
"=. c #fc8c98",
"-. c #fc909e",
";. c #fa97a4",
":. c #fba6ae",
">. c #fbb9b8",
",. c #c1c2d1",
"<. c #cfd0dc",
"1. c #d1d2dd",
"2. c #dedee7",
"3. c #e9c6d1",
"4. c #fbc3cb",
"5. c #fbccd5",
"6. c #f9d9cc",
"7. c #fbd6dd",
"8. c #f9dbe2",
"9. c #e5e5ec",
"0. c #efeff4",
"q. c #fae5e9",
"w. c #f9eef2",
"e. c #faf8fc",
"r. c None",
"r.r.r.r.r.r.r.r.r.r.r.r.r.r.r.r.r.r.r.r.r.r.r.r.r.r.r.r.r.r.r.r.r.r.r.r.r.r.r.r.r.r.",
"r.r.r.r.r.r.r.r.r.r.r.r.r.r.r.r.r.r.r.$.Y L L Y r.r.r.r.r.r.r.r.r.r.r.r.r.r.r.r.r.r.",
"r.r.r.r.r.r.r.r.r.r.r.r.r.r.r.r.r.r.$.P L L L L Y r.r.r.r.r.r.r.r.r.r.r.r.r.r.r.r.r.",
"r.r.r.r.r.r.r.r.r.r.r.r.r.r.r.r.r.r.P L L L L L L Q r.r.r.r.r.r.r.r.r.r.r.r.r.r.r.r.",
"r.r.r.r.r.r.r.r.r.r.r.r.r.r.r.S r.r.I L L L L L L o.r.r.r.r.r.r.r.r.r.r.r.r.r.r.r.r.",
"r.r.r.r.r.r.r.r.r.r.r.R J n I j H V l M L L L L P r.r.r.r.r.r.r.r.r.r.r.r.r.r.r.r.r.",
"r.r.r.r.r.r.r.r.$.m m h h ) =.-.Y g 8 w t l L L Y r.r.r.r.r.r.r.r.r.r.r.r.r.r.r.r.r.",
"r.r.r.r.r.r.r.$.M j j j T q.e.e.e.;.E 8 7 9 l L L W r.r.r.r.r.r.r.r.r.r.r.r.r.r.r.r.",
"r.r.r.r.r.r.$.M k k k k ! e.e.e.e.e.8.&.7 * 9 p L L / r.r.r.r.r.r.r.r.r.r.r.r.r.r.r.",
"r.r.r.r.r.$.m k z z k k ( q.e.e.e.e.e.e.O.* & ; p L L / r.r.r.r.r.r.r.r.r.r.r.r.r.r.",
"r.r.r.r.r.z k z z z z z z 4.e.e.e.e.e.e.q.D & & ; p L L %.r.r.r.r.r.r.r.r.r.r.r.r.r.",
"r.r.r.r.r.H z z ! ! L M m ) q.e.,.2.r.e.e.*.: % % q L L +.r.r.r.r.r.r.r.r.r.r.r.r.r.",
"r.r.r.r.R z m 4.q.q.7.-.T U 7.e.` o . [ e.w.1 % % & v +.r.r.r.r.r.r.r.r.r.r.r.r.r.r.",
"r.r.r.r.F z ! q.e.e.e.w.8.( T e.# . . . <.w.O.= % % } r.r.r.r.r.r.r.r.r.r.r.r.r.r.r.",
"r.r.r.r.E z ! q.e.e.e.e.e.e.! T 3.+ . O 0.e.^ & $ $ 4 r.r.r.r.r.r.r.r.r.r.r.r.r.r.r.",
"r.r.r.r.R z Y q.e.e.e.e.e.e.e.T U E { ] 0.6.D & $ = 5 B C A C C $.r.r.r.r.r.r.r.r.r.",
"r.r.r.r.E z L :.e.e.e. ... .e.5.N k m ) E R r ; : I H 0 7 7 7 7 q $.r.r.r.r.r.r.r.r.",
"r.r.r.r.E z z ) q.e.e.' X . ' q.( j h d w t I ! ! ! b 7 7 7 7 7 7 u $.r.r.$.$.+.r.r.",
"r.r.r.r.I k z z ;.e.e.# . . . 1.>.h h d e I ! Y I ! v 7 9 q 9 7 7 7 , r.@.R L L %.r.",
"r.r.r.r.I k z z z ;.e.e.@ . O 9.5.m h f H ! Y n I Z - } $.r.$.~ 7 7 7 u > J L L L #.",
"r.#.P Q M k k k k k -.7.e...r.e.5.m j n I Y L Y Y V | r.r.r.r.$.9 7 7 7 y P L L P $.",
"+.L L P L z k k k k k ! ;.q.q.>.=.j Y Y Y L Y ! Q $.r.r.r.r.r.r.q 7 7 * p L L L L r.",
"L L L L L M z j j j j j z L M x z Y Y Y L Y T Y < r.r.r.r.r.r.$.9 7 7 t L L L L r.r.",
"L L L L L L M z j h h h h h h h L ! Y L Y ! Y ; 3 r.r.r.r.r.r.X.7 7 t L L L L r.r.r.",
"Q L L L L L L M k h h h h h h h K ! P Y ! I ; 3 r.r.r.r.r.r.r.r.0 t L L L L r.r.r.r.",
"P L L L L L L L M z h h h h s l ! ! T I I 0 5 r.r.r.r.r.r.r.r.$.i K L L L r.r.r.r.r.",
"$.P Y L L L L L L L m h h h d l Y H G v $.$.r.r.r.r.r.r.r.r.r.r.$.Y L L r.r.r.r.r.r.",
"r.$.r.E Q P Y Q L L L I $.o.v r r 9 u $.r.r.r.r.r.r.r.r.r.r.r.r.r.$.Y r.r.r.r.r.r.r.",
"r.r.r.r.r.r.r.r./ L E r.r._ 7 7 7 u $.r.r.r.r.r.r.r.r.r.r.r.r.r.r.r.r.r.r.r.r.r.r.r.",
"r.r.r.r.r.r.r.r.r.o.r.r.r.5 7 7 7 c r.r.r.r.r.r.r.r.r.r.r.r.r.r.r.r.r.r.r.r.r.r.r.r.",
"r.r.r.r.r.r.r.r.r.r.r.r.r.2 7 7 7 B r.r.r.r.r.r.r.r.r.r.r.r.r.r.r.r.r.r.r.r.r.r.r.r.",
"r.r.r.r.r.r.r.r.r.r.r.r.r.r.u 7 7 7 ~ r.r.$.S 6 r.r.r.r.r.r.r.r.r.r.r.r.r.r.r.r.r.r.",
"r.r.r.r.r.r.r.r.r.r.r.r.r.@.9 7 7 7 7 B B u 7 7 c r.r.r.r.r.r.r.r.r.r.r.r.r.r.r.r.r.",
"r.r.r.r.r.r.r.r.r.r.r.r.r.r.S 7 7 7 7 7 7 7 7 7 l R r.r.r.r.r.r.r.r.r.r.r.r.r.r.r.r.",
"r.r.r.r.r.r.r.r.r.r.r.r.r.r.r.S 7 7 7 7 7 9 r b L L E r.r.r.r.r.r.r.r.r.r.r.r.r.r.r.",
"r.r.r.r.r.r.r.r.r.r.r.r.r.r.r.r.A u q 7 t L K L L L L r.r.r.r.r.r.r.r.r.r.r.r.r.r.r.",
"r.r.r.r.r.r.r.r.r.r.r.r.r.r.r.r.r.r.$.a L L L L L L r.r.r.r.r.r.r.r.r.r.r.r.r.r.r.r.",
"r.r.r.r.r.r.r.r.r.r.r.r.r.r.r.r.r.r.+.L L L L L L r.r.r.r.r.r.r.r.r.r.r.r.r.r.r.r.r.",
"r.r.r.r.r.r.r.r.r.r.r.r.r.r.r.r.r.r.Q L L L L r.r.r.r.r.r.r.r.r.r.r.r.r.r.r.r.r.r.r.",
"r.r.r.r.r.r.r.r.r.r.r.r.r.r.r.r.r.r.Q L L L r.r.r.r.r.r.r.r.r.r.r.r.r.r.r.r.r.r.r.r.",
"r.r.r.r.r.r.r.r.r.r.r.r.r.r.r.r.r.r.+.Y Y r.r.r.r.r.r.r.r.r.r.r.r.r.r.r.r.r.r.r.r.r.",
"r.r.r.r.r.r.r.r.r.r.r.r.r.r.r.r.r.r.r.r.r.r.r.r.r.r.r.r.r.r.r.r.r.r.r.r.r.r.r.r.r.r."
};
