/* XPM */
static char *small_green_ball[] = {
"34 33 85 1",
"  c black",
". c #0c1449",
"X c #1d2556",
"o c #212859",
"O c #29305f",
"+ c #2e3563",
"@ c #014911",
"# c #055616",
"$ c #0a6617",
"% c #0d7818",
"& c #116e18",
"* c #117819",
"= c #0e7420",
"- c #166824",
"; c #167720",
": c #237a2a",
"> c #397745",
", c #454b74",
"< c #51567d",
"1 c #13871a",
"2 c #1a981b",
"3 c #1c8920",
"4 c #1a9820",
"5 c #228626",
"6 c #239722",
"7 c #22ae1d",
"8 c #2aa823",
"9 c #2bbc21",
"0 c #34af37",
"q c #34b727",
"w c #3c9c43",
"e c #3ea04b",
"r c #2dc021",
"t c #39cb28",
"y c #3cd628",
"u c #48b846",
"i c #55aa58",
"p c #5aa667",
"a c #65b968",
"s c #40cd2e",
"d c #43ce34",
"f c #42db2c",
"g c #49de30",
"h c #47e32e",
"j c #4de732",
"k c #50ea33",
"l c #54c655",
"z c #59e34b",
"x c #64dd59",
"c c #6fc073",
"v c #66d661",
"b c #67e15e",
"n c #75ee5f",
"m c #6c808b",
"M c #7aa08e",
"N c #84ef71",
"B c #8084a1",
"V c #82ab89",
"C c #83ae93",
"Z c #a1a5b8",
"A c #aaacc0",
"S c #aeb0c3",
"D c #bebfcf",
"F c #8fc493",
"G c #8edb8a",
"H c #97c49a",
"J c #94e58f",
"K c #9df191",
"L c #afc8b9",
"P c #a2d9a1",
"I c #a8f39a",
"U c #bfe6bf",
"Y c #c0c5cf",
"T c #c3d7c7",
"R c #cbd7d2",
"E c #caeec7",
"W c #ccf4c8",
"Q c #d4e9d6",
"! c #d1f5cb",
"~ c #d7f4d4",
"^ c #e5ebe9",
"/ c #e8f7e8",
"( c #eff0f3",
") c #faf9fb",
"_ c None",
"__________________________________",
"__________________________________",
"__________________________________",
"__________________________________",
"_______________tyyy97_____________",
"_____________fhhjhftr7____________",
"____________hjN!IkhyvUa1__________",
"___________fhn/))Kjx/)^i_gjjjj____",
"______jjjjffjI)))WzJ)))F3tjjjj____",
"_____kjjjjyfj~)))/b~)))Q:8hjjj____",
"_____jjjjfyfh/))A)v)D^)):*tjjj____",
"______jkjftyf/)BXZvYO<)(:*tjj_____",
"______jjjfrttE)<.mlM.o)T-&tj______",
"_______jjf999G)S+C0p,B)V#&tj______",
"________jh977uQ)Rc4wL(R>@&tj______",
"________jj9222uPa11%wH>@@6jk______",
"___________2118s1%%*qq@@@_________",
"___________11*8jgtqght;$__________",
"__________%%%%*6qkkh8-%%%_________",
"_________%%%%*&$$5q:##%%%%________",
"_________%%%____$###____%%%_______",
"_________%%%_____________%%_______",
"_________%%%_____________%%_______",
"_________%%%%___________%%%_______",
"_________q1%%=_________%%%%*e_____",
"________kkgq211_______%%16shjl____",
"_______kkkkkkft_______2qsjkkkk____",
"________kkkkkkj_______dkkkkkk_____",
"__________________________________",
"__________________________________",
"__________________________________",
"__________________________________",
"__________________________________"
};
