/* XPM */
static char *small_yellow_ball[] = {
"34 33 95 2",
"   c black",
".  c #322d00",
"X  c #393700",
"o  c #3c3c19",
"O  c #0c1449",
"+  c #1d2556",
"@  c #212859",
"#  c #29305f",
"$  c #2e3563",
"%  c #423e03",
"&  c #484700",
"*  c #524e01",
"=  c #524f13",
"-  c #5b5a03",
";  c #615e02",
":  c #605e1c",
">  c #686701",
",  c #696519",
"<  c #6e7001",
"1  c #7c7b01",
"2  c #676436",
"3  c #454b74",
"4  c #51567d",
"5  c #7a7e88",
"6  c #807f0f",
"7  c #878607",
"8  c #898817",
"9  c #938f06",
"0  c #918f1a",
"q  c #9a9903",
"w  c #9b9d1c",
"e  c #88892d",
"r  c #979533",
"t  c #a19d08",
"y  c #acaa05",
"u  c #a1a013",
"i  c #b1ad0b",
"p  c #b8b505",
"a  c #b6b319",
"s  c #adad2a",
"d  c #b3b02f",
"f  c #b3b537",
"g  c #9a9947",
"h  c #969956",
"j  c #a19f7f",
"k  c #abaa57",
"l  c #b2b261",
"z  c #bfbd79",
"x  c #c0bb0a",
"c  c #c9c606",
"v  c #cbc810",
"b  c #d3cf06",
"n  c #dad709",
"m  c #deda16",
"M  c #c3c02e",
"N  c #c6c333",
"B  c #dedc27",
"V  c #d8d73e",
"C  c #e3de0a",
"Z  c #e1dd22",
"A  c #e7e30b",
"S  c #ede816",
"D  c #f4ef0e",
"F  c #f1ec11",
"G  c #f0ec3e",
"H  c #c9c947",
"J  c #d0cd48",
"K  c #d2d247",
"L  c #d3d27b",
"P  c #e0df7b",
"I  c #f0ed55",
"U  c #f2ef7b",
"Y  c #989b86",
"T  c #8084a1",
"R  c #a6a889",
"E  c #b9b888",
"W  c #a3a5b8",
"Q  c #aaacc0",
"!  c #aeb0c3",
"~  c #bebfcf",
"^  c #c1c2b4",
"/  c #f4f285",
"(  c #e7e6bb",
")  c #f5f3bd",
"_  c #c4c5cd",
"`  c #d4d3ca",
"'  c #ececcd",
"]  c #e1e1d2",
"[  c #f8f5c7",
"{  c #f2f1dc",
"}  c #eaeae8",
"|  c #f0eff0",
" . c #f8f7e5",
".. c #faf9fb",
"X. c None",
"X.X.X.X.X.X.X.X.X.X.X.X.X.X.X.X.X.X.X.X.X.X.X.X.X.X.X.X.X.X.X.X.X.X.",
"X.X.X.X.X.X.X.X.X.X.X.X.X.X.X.X.X.X.X.X.X.X.X.X.X.X.X.X.X.X.X.X.X.X.",
"X.X.X.X.X.X.X.X.X.X.X.X.X.X.X.X.X.X.X.X.X.X.X.X.X.X.X.X.X.X.X.X.X.X.",
"X.X.X.X.X.X.X.X.X.X.X.X.X.X.X.X.X.X.X.X.X.X.X.X.X.X.X.X.X.X.X.X.X.X.",
"X.X.X.X.X.X.X.X.X.X.X.X.X.X.X.p b b c y q X.X.X.X.X.X.X.X.X.X.X.X.X.",
"X.X.X.X.X.X.X.X.X.X.X.X.X.n n C A n b c y q X.X.X.X.X.X.X.X.X.X.X.X.",
"X.X.X.X.X.X.X.X.X.X.X.X.n A I [ U S n c H ( k < X.X.X.X.X.X.X.X.X.X.",
"X.X.X.X.X.X.X.X.X.X.X.n C G  .....U m V { ..} g X.m S S S S X.X.X.X.",
"X.X.X.X.X.X.S S S S n n A / ......) B P ......E < v S S S S X.X.X.X.",
"X.X.X.X.X.S S S S S b n A [ ...... .V ' ......] , 9 A S S S X.X.X.X.",
"X.X.X.X.X.S S S S m c b C  .....Q ..K ..~ } ..| , > v S S S X.X.X.X.",
"X.X.X.X.X.X.S S S m c c b  ...T + W H _ # 4 ..| : ; v S S X.X.X.X.X.",
"X.X.X.X.X.X.S S S m p p c ( ..4 O 5 f Y O @ ..` = - v S X.X.X.X.X.X.",
"X.X.X.X.X.X.X.S S m y y y L ..! $ R w h 3 T ..j % - v S X.X.X.X.X.X.",
"X.X.X.X.X.X.X.X.S A y q q s ' ..` l 7 e ^ | ` 2 X - v S X.X.X.X.X.X.",
"X.X.X.X.X.X.X.X.S S y 7 7 7 u L k < > - e z 2 X X 7 S S X.X.X.X.X.X.",
"X.X.X.X.X.X.X.X.X.X.X.7 < < t v < > - - i i X . X X.X.X.X.X.X.X.X.X.",
"X.X.X.X.X.X.X.X.X.X.X.1 < > y S C v i C A x ; ; X.X.X.X.X.X.X.X.X.X.",
"X.X.X.X.X.X.X.X.X.X.1 1 1 < > 9 x D D A t = 1 1 1 X.X.X.X.X.X.X.X.X.",
"X.X.X.X.X.X.X.X.X.1 1 1 1 < - & * 7 i 1 % o 1 1 1 1 X.X.X.X.X.X.X.X.",
"X.X.X.X.X.X.X.X.X.1 1 1 X.X.X.X.* & X X X.X.X.X.1 1 1 X.X.X.X.X.X.X.",
"X.X.X.X.X.X.X.X.X.1 1 1 X.X.X.X.X.X.X.X.X.X.X.X.X.1 1 X.X.X.X.X.X.X.",
"X.X.X.X.X.X.X.X.X.1 1 1 X.X.X.X.X.X.X.X.X.X.X.X.X.1 1 X.X.X.X.X.X.X.",
"X.X.X.X.X.X.X.X.X.1 1 1 1 X.X.X.X.X.X.X.X.X.X.X.1 1 1 X.X.X.X.X.X.X.",
"X.X.X.X.X.X.X.X.X.r 6 1 1 1 X.X.X.X.X.X.X.X.X.1 1 1 1 8 J X.X.X.X.X.",
"X.X.X.X.X.X.X.X.F S A d 8 7 7 X.X.X.X.X.X.X.1 1 7 9 0 N F D X.X.X.X.",
"X.X.X.X.X.X.X.F F F F S S N M X.X.X.X.X.X.X.p a Z S S F D D X.X.X.X.",
"X.X.X.X.X.X.X.X.F D D D F F D X.X.X.X.X.X.X.S F D D F D D X.X.X.X.X.",
"X.X.X.X.X.X.X.X.X.X.X.X.X.X.X.X.X.X.X.X.X.X.X.X.X.X.X.X.X.X.X.X.X.X.",
"X.X.X.X.X.X.X.X.X.X.X.X.X.X.X.X.X.X.X.X.X.X.X.X.X.X.X.X.X.X.X.X.X.X.",
"X.X.X.X.X.X.X.X.X.X.X.X.X.X.X.X.X.X.X.X.X.X.X.X.X.X.X.X.X.X.X.X.X.X.",
"X.X.X.X.X.X.X.X.X.X.X.X.X.X.X.X.X.X.X.X.X.X.X.X.X.X.X.X.X.X.X.X.X.X.",
"X.X.X.X.X.X.X.X.X.X.X.X.X.X.X.X.X.X.X.X.X.X.X.X.X.X.X.X.X.X.X.X.X.X."
};
