/* XPM */
static char *yellow_ball_destroy1[] = {
"42 42 88 1",
"  c #000000",
". c #322c00",
"X c #3b3800",
"o c #0c1449",
"O c #413e00",
"+ c #61352a",
"@ c #484502",
"# c #4f5100",
"$ c #514f00",
"% c #595700",
"& c #6a5806",
"* c #7b4e0e",
"= c #676701",
"- c #736703",
"; c #7c7c01",
": c #767511",
"> c #67673a",
", c #7e7d23",
"< c #ba3e29",
"1 c #8f6b0c",
"2 c #817d04",
"3 c #926e0c",
"4 c #b94226",
"5 c #cc392f",
"6 c #da3a32",
"7 c #e43936",
"8 c #cb4929",
"9 c #cf5328",
"0 c #df4631",
"q c #e54733",
"w c #e75131",
"e c #e9692b",
"r c #888704",
"t c #908d01",
"y c #999902",
"u c #858435",
"i c #a09e02",
"p c #a7a603",
"a c #afac11",
"s c #b1af03",
"d c #bab804",
"f c #aaac3d",
"g c #bfbe3e",
"h c #8c8b5d",
"j c #9b9948",
"k c #9f9d7e",
"l c #a09f5e",
"z c #a7a54d",
"x c #a3a252",
"c c #b5b559",
"v c #a7a678",
"b c #b1b07b",
"n c #bec007",
"m c #ed9a20",
"M c #cac805",
"N c #ccca12",
"B c #d2ce07",
"V c #d9d607",
"C c #d5d23a",
"Z c #e3de12",
"A c #e1dc2b",
"S c #eae50a",
"D c #eee916",
"F c #f4ef0e",
"G c #f1ec11",
"H c #e5e024",
"J c #c5c47f",
"K c #dad962",
"L c #d4d37f",
"P c #ede946",
"I c #f3ef45",
"U c #a6a587",
"Y c #b6b887",
"T c #c1c087",
"R c #dede89",
"E c #d8d89b",
"W c #dcdbb7",
"Q c #e1e19c",
"! c #f5f39f",
"~ c #e6e6b9",
"^ c #f8f6b9",
"/ c #eeeed7",
"( c #f7f5d7",
") c #efeeec",
"_ c #f0efec",
"` c #f5f4ec",
"' c #faf9fc",
"] c None",
"]]]]]]]]]]]]]]]]]]]]]]]]]]]]]]]]]]]]]]]]]]",
"]]]]]]]]]]]]]]]]]]]]]]]]]]]]]]]]]]]]]]]]]]",
"]]]]]]]]]]]]]]]]]]]]]]]]]]]]]]]]]]]]]]]]]]",
"]]]]]]]]]]]]]]]]]]]]]]]]]]]]]]]]]]]]]]]]]]",
"]]]]]]]]]]]]]]]]]]]]]]]]]]]]]]]]]]]]]]]]]]",
"]]]]]]]]]]]]]]]]]]]]]]]]]]]]]]]]]]]]]]]]]]",
"]]]]]]]]]]]]]]]]]]]]]]]]]]]]]]]]]]]]]]]]]]",
"]]]]]]]]]]]]]]]]]]]]]]]]]]]]]]]]]]]]]]]]]]",
"]]]]]]]]]]]]]]]]]]]]]]]]]]]]]]]]]]]]]]]]]]",
"]]]]]]]]]]]]]]]]sMBBMst]]]]]]]]]]]]]]]]]]]",
"]]]]]]]]]]]]]]BVVVVVBMdpy]]]]]]]]]]]]]]]]]",
"]]]]]]]]]]]]]VSSSSSVVMdsyr]]]]]]]]]]]]]]]]",
"]]]]]]]]]]]]VSS^'^SSVMdL'J2=]]]]]]]]]]]]]]",
"]]]]]]]]]]]VSS^'''^SVBR'''T;]]ADDDDD]]]]]]",
"]]]DDDDD]]BVSI'''''PVN''''':=NDDDDDD]]]]]]",
"]]]DDDDDDBVVS!'''''!VK'''''l&pDDDDDD]]]]]]",
"]]DDDDDDDBBVS('''''(B~'''''l%=DDDDDD]]]]]]",
"]]DDDDDDBMBVS'''''''M`'''''_%$rDDDDD]]]]]]",
"]]DDDDDDVMMVV''''o''n''o''''$@rDDDDH]]]]]]",
"]]]DDDDDVdMBV'''ooo's`ooo'')$OrDDD]]]]]]]]",
"]]]DDDDDBddMM/''ooo/pWooo''T@XrDD]]]]]]]]]",
"]]]]DDDDBssddQ''oooEycooo''hOX2DD]]]]]]]]]",
"]]]]]DDDBppppg'''o'frr'o'''@XX2DD]]]]]]]]]",
"]]]]]]DDZyyyyy~'''Wr;;Y'''UX.XrDD]]]]]]]]]",
"]]]]]]DDDprrtttC'W;;-=%v(kXX.@DDD]]]]]]]]]",
"]]]]]]DDDpr;;;;iy;-=&&$a2XX..%DDD]]]]]]]]]",
"]]]]]]]]]]t---;w77744777qX..X]]]]]]]]]]]]]",
"]]]]]]]]]]];-677wmq00qmw776&]]]]]]]]]]]]]]",
"]]]]]]]]];;;8779SFFFFFFd<778;]]]]]]]]]]]]]",
"]]]]]]]];;;;;17766qeeq76773;;;]]]]]]]]]]]]",
"]]]]]]]];;;;;;=*56677665+;;;;;;]]]]]]]]]]]",
"]]]]]]];;;;;]]]]]#@XXX]]]]];;;;;]]]]]]]]]]",
"]]]]]]];;;;]]]]]]]]]]]]]]]]];;;;]]]]]]]]]]",
"]]]]]]];;;;]]]]]]]]]]]]]]]]]];;;]]]]]]]]]]",
"]]]]]]];;;;]]]]]]]]]]]]]]]]]];;;]]]]]]]]]]",
"]]]]]]];;;;;]]]]]]]]]]]]]]]];;;;]]]]]]]]]]",
"]]]]]]]];;:;;;]]]]]]]]]]]]];;;;;]]]]]]]]]]",
"]]]]]]]]z:;;;;;]]]]]]]]]]];;;;;;;bF]]]]]]]",
"]]]]]]GFFGC>;;;]]]]]]]]]]:;;;;:,cFFF]]]]]]",
"]]]]]DDDGDDDDxj]]]]]]]]]]r;uCDDDGFFF]]]]]]",
"]]]]]FFFFFGDDDF]]]]]]]]]]DFFFFDDGGFF]]]]]]",
"]]]]]]GFFFFFGFF]]]]]]]]]]DFGFFFFFFF]]]]]]]"
};
