/* XPM */
static char *yellow_ball_jump20[] = {
"42 42 125 2",
"   c #000000",
".  c #322d00",
"X  c #3a3701",
"o  c #0c1449",
"O  c #161d50",
"+  c #192153",
"@  c #333957",
"#  c #5d3c0a",
"$  c #68330f",
"%  c #4b4908",
"&  c #534f00",
"*  c #504b1a",
"=  c #585601",
"-  c #695a07",
";  c #754210",
":  c #615d2c",
">  c #696704",
",  c #726d01",
"<  c #7c7c01",
"1  c #787715",
"2  c #66642e",
"3  c #716f31",
"4  c #7e7c53",
"5  c #565b80",
"6  c #6c7091",
"7  c #7e8107",
"8  c #953c1d",
"9  c #935317",
"0  c #8f720a",
"q  c #a75918",
"w  c #b34224",
"e  c #a57613",
"r  c #db3b32",
"t  c #e23b35",
"y  c #c9442b",
"u  c #d4472d",
"i  c #df4232",
"p  c #d35430",
"a  c #c67e1b",
"s  c #e64b31",
"d  c #e65430",
"f  c #e66a2a",
"g  c #898805",
"h  c #999804",
"j  c #919015",
"k  c #898820",
"l  c #8d8c2a",
"z  c #ad8c10",
"x  c #a9a704",
"c  c #adab18",
"v  c #b9b606",
"b  c #b2b218",
"n  c #a3a327",
"m  c #b0ae2b",
"M  c #918f53",
"N  c #9b9c57",
"B  c #a09f4d",
"V  c #a4a357",
"C  c #b5b453",
"Z  c #a5a763",
"A  c #b2af6f",
"S  c #b6b576",
"D  c #c1bf04",
"F  c #ec9821",
"G  c #eda61d",
"H  c #edbf18",
"J  c #c9c706",
"K  c #c9c71f",
"L  c #d1ce06",
"P  c #d1cd11",
"I  c #d9d608",
"U  c #dad613",
"Y  c #ccca2c",
"T  c #d7d538",
"R  c #e3dc11",
"E  c #f1ca16",
"W  c #e8e40a",
"Q  c #eee816",
"!  c #f4ef0e",
"~  c #f1ec11",
"^  c #e9e428",
"/  c #e8e436",
"(  c #cbcb44",
")  c #c6c556",
"_  c #d8d746",
"`  c #d9d755",
"'  c #c7c66e",
"]  c #c8c87a",
"[  c #d0ce7e",
"{  c #d8d565",
"}  c #d3d17a",
"|  c #e1dd46",
" . c #eae647",
".. c #f2ef4d",
"X. c #f2ef5b",
"o. c #f2ef6f",
"O. c #858998",
"+. c #8a8da8",
"@. c #9194ad",
"#. c #989ab2",
"$. c #b5b491",
"%. c #abadbb",
"&. c #b6b7a8",
"*. c #b5b6c8",
"=. c #cdcc8c",
"-. c #cac998",
";. c #d1cf82",
":. c #d0cf99",
">. c #dbdb97",
",. c #c7c6a4",
"<. c #d0cfbd",
"1. c #d5d5a1",
"2. c #ebe990",
"3. c #f2ef8d",
"4. c #f0efaa",
"5. c #eae9ba",
"6. c #cfcfcd",
"7. c #d6d6d5",
"8. c #dcdce6",
"9. c #f0efd4",
"0. c #ecece5",
"q. c #ecebf1",
"w. c #f8f7ed",
"e. c #faf9fc",
"r. c None",
"r.r.r.r.r.r.r.r.r.r.r.r.r.r.r.r.r.r.r.r.r.r.r.r.r.r.r.r.r.r.r.r.r.r.r.r.r.r.r.r.r.r.",
"r.r.r.r.r.r.r.r.r.r.r.r.r.r.r.r.r.r.r.r.r.r.r.r.r.r.r.r.r.r.r.r.r.r.r.r.r.r.r.r.r.r.",
"r.r.r.r.r.r.r.r.r.r.r.r.r.r.r.r.r.r.r.r.r.r.r.r.r.r.r.r.r.r.r.r.r.r.r.r.r.r.r.r.r.r.",
"r.r.r.r.r.r.r.r.r.r.r.r.r.r.r.r.r.r.r.r.r.r.r.r.r.r.r.r.r.r.r.r.r.r.r.r.r.r.r.r.r.r.",
"r.r.r.r.r.r.r.r.r.r.r.r.r.r.r.r.r.r.r.r.r.r.r.r.r.r.,.,.r.r.r.r.r.r.r.r.r.r.r.r.r.r.",
"r.r.r.r.r.r.r.r.r.r.r.r.r.r.r.r.r.r.r.r.r.r.r.r.r.{ Q | r.r.r.r.r.r.r.r.r.r.r.r.r.r.",
"r.r.r.r.r.r.r.r.r.r.r.r.r.r.r.r.r.r.r.r.r.r.r.;.^ Q Q Q ;.r.r.r.r.r.r.r.r.r.r.r.r.r.",
"r.r.r.r.r.r.r.r.r.r.r.r.r.&.r.&.$.r.r.&.r.r.` Q Q Q Q Q ^ r.r.r.r.r.r.r.r.r.r.r.r.r.",
"r.r.r.r.r.r.r.r.r.r.r.r.C h m h n j N > $.r.T Q Q Q Q Q Q { r.r.r.r.r.r.r.r.r.r.r.r.",
"r.r.r.r.r.r.r.r.r.r.] K J v v x ) :.S B 1 1 v U Q Q Q Q Q ^ r.r.r.r.r.r.r.r.r.r.r.r.",
"r.r.r.r.r.r.r.r.$.Y L I I L J Y X X X X V 1 , h P Q Q Q / ,.r.r.r.r.r.r.r.r.r.r.r.r.",
"r.r.r.r.r.r.r.r.b L I I I I J X X X X X 0.$.- = < v Q Q | r.r.r.r.r.r.r.r.r.r.r.r.r.",
"r.r.r.r.r.r.r.' U I W W W I L X X X e.e.e.0.$.& = g U Q } r.r.r.r.r.r.r.r.r.r.r.r.r.",
"r.r.r.r.r.r.,.I W ..I 3.o.Q I X X e.e.e.e.e.e.3 % > x Q ^ r.r.r.r.r.r.r.r.r.r.r.r.r.",
"r.r.r.r.r.r.' I / X.X X X 3. .T 5.e.e.q.e.e.e.&.% X < P Q { r.r.r.r.r.r.r.r.r.r.r.r.",
"r.r.r.r.r.r.` W X.X X X X w.5.U 4.e.*.5 +.e.e.<.2 X = h Q Q -.r.r.r.r.r.r.r.r.r.r.r.",
"r.r.r.r.r.r.T W X.X X e.e.e.w.2.( e.#.o o @.e.7.2 X X , U Q / r.r.r.r.r.r.r.r.r.r.r.",
"r.r.r.r.r.-.I W ..X X e.e.e.e.e.( >.O.o o + q.e.4 X X > Q Q / r.r.r.r.r.r.r.r.r.r.r.",
"r.r.r.r.r.' I W / 9.e.e.e.#.6 #.5.b 1.@ + 6 e.0.M X . % c { r.r.r.r.r.r.r.r.r.r.r.r.",
"r.r.r.-.r.) I I W 4.e.e.e.6 o o &.C n N 7.@.e.6.: X . X r.r.r.r.r.r.r.r.r.r.r.r.r.r.",
"r.=./ Q / I L I I / e.e.e.6 o o @ ' g 7 Z $.,.A % . . * r.r.r.r.r.r.r.r.r.r.r.r.r.r.",
"` Q Q Q Q R L L I I 2.w.e.8.o O +.] g < > = n e ; $ 9 9 r.r.r.r.r.r.r.r.r.r.r.r.r.r.",
"Q Q Q Q Q I L J L L P 5.w.e.6.*.%.:.7 , - - t t t t t u r.r.r.r.r.r.r.r.r.r.r.r.r.r.",
"^ Q Q Q Q Q L D J J D ( >.e.e.e.0.V , > t t f f p t r % r.r.r.r.r.r.r.r.r.r.r.r.r.r.",
"Q Q Q Q Q Q U J v v v x b [ >.2.1.k 9 t y i F R a t y r.r.r.r.r.r.r.r.r.r.r.r.r.r.r.",
"^ Q Q Q Q Q Q L v x x h h h g c z t t i f H E f r t % r.r.r.r.r.r.r.r.r.r.r.r.r.r.r.",
"[ ` Q Q Q Q Q R J x h h g g < 0 t s F G ~ G d t t # < r.r.r.r.r.r.r.r.r.r.r.r.r.r.r.",
"r.r.` / Q Q Q Q R v h g < < , q t f Q G d d t 8 # # < < r.r.r.r.r.r.r.r.r.r.r.r.r.r.",
"r.r.r.r.=.{ _ Q Q R x g < , 9 r t u d t r t # # # < < < < r.r.r.r.r.r.r.r.r.r.r.r.r.",
"r.r.r.r.r.r.r.^ Q Q Q , , < q u u r w p % % # # < < < < < < r.r.r.r.r.r.r.r.r.r.r.r.",
"r.r.r.r.r.r.r.} Q Q k , , < 0 0 0 > % % % r.r.r.r., < < < < < r.r.r.r.r.r.r.r.r.r.r.",
"r.r.r.r.r.r.r.k k g < < r.r.r.r.r.r.r.r.r.r.r.r.r.r.r.< < < < < r.r.r.r.r.r.r.r.r.r.",
"r.r.r.r.r.r.r.< < < < r.r.r.r.r.r.r.r.r.r.r.r.r.r.r.r.r.< < < < r.r.r.r.r.r.r.r.r.r.",
"r.r.r.r.r.r.r.< < < < r.r.r.r.r.r.r.r.r.r.r.r.r.r.r.r.r.r.< < < r.r.r.r.r.r.r.r.r.r.",
"r.r.r.r.r.r.r.< < < < r.r.r.r.r.r.r.r.r.r.r.r.r.r.r.r.r.r.< < < r.r.r.r.r.r.r.r.r.r.",
"r.r.r.r.r.r.r.< < < < < r.r.r.r.r.r.r.r.r.r.r.r.r.r.r.r.< < < < r.r.r.r.r.r.r.r.r.r.",
"r.r.r.r.r.r.r.r.< < 1 < < < r.r.r.r.r.r.r.r.r.r.r.r.r.< < < < < r.r.r.r.r.r.r.r.r.r.",
"r.r.r.r.r.r.r.r.B 1 < < < < < r.r.r.r.r.r.r.r.r.r.r.< < < < < < < S ! r.r.r.r.r.r.r.",
"r.r.r.r.r.r.~ ! ! ~ T 2 < < < r.r.r.r.r.r.r.r.r.r.1 < < < < 1 1 C ! ! ! r.r.r.r.r.r.",
"r.r.r.r.r.Q Q Q ~ Q Q Q Q V B r.r.r.r.r.r.r.r.r.r.g < l T Q Q Q ~ ! ! ! r.r.r.r.r.r.",
"r.r.r.r.r.! ! ! ! ! ~ Q Q Q ! r.r.r.r.r.r.r.r.r.r.Q ! ! ! ! Q Q ~ ~ ! ! r.r.r.r.r.r.",
"r.r.r.r.r.r.~ ! ! ! ! ! ~ ! ! r.r.r.r.r.r.r.r.r.r.Q ! ~ ! ! ! ! ! ! ! r.r.r.r.r.r.r."
};
