/* XPM */
static char *yellow_ball_destroy3[] = {
"42 42 128 2",
"   c #000000",
".  c #332d00",
"X  c #3a3600",
"o  c #0c1449",
"O  c #161e51",
"+  c #2a315d",
"@  c #343a67",
"#  c #3d436e",
"$  c #703312",
"%  c #4a4704",
"&  c #4f4f19",
"*  c #595502",
"=  c #6b6703",
"-  c #706f00",
";  c #7d7c02",
":  c #767419",
">  c #7e7c23",
",  c #4e545e",
"<  c #4a5074",
"1  c #76754a",
"2  c #565b81",
"3  c #6b6f90",
"4  c #7c809d",
"5  c #9d3b1f",
"6  c #a33927",
"7  c #925b12",
"8  c #88720c",
"9  c #817937",
"0  c #a7491e",
"q  c #b3591d",
"w  c #ad4322",
"e  c #ae502e",
"r  c #a86617",
"t  c #817f58",
"y  c #b76651",
"u  c #cd3c2f",
"i  c #d93b32",
"p  c #e33b35",
"a  c #c54528",
"s  c #ce5827",
"d  c #dd4730",
"f  c #c26322",
"g  c #e44433",
"h  c #e85e2e",
"j  c #e8682b",
"k  c #c87e77",
"l  c #888807",
"z  c #868518",
"x  c #999706",
"c  c #979613",
"v  c #888829",
"b  c #919036",
"n  c #939323",
"m  c #ad920b",
"M  c #a9a804",
"N  c #b3af07",
"B  c #b2b017",
"V  c #bbb904",
"C  c #a7a728",
"Z  c #bebc24",
"A  c #838156",
"S  c #99984d",
"D  c #989757",
"F  c #999372",
"G  c #b0af4d",
"H  c #a3a267",
"J  c #a9a879",
"K  c #babc6c",
"L  c #ce9e15",
"P  c #c1be06",
"I  c #c2bf36",
"U  c #e98823",
"Y  c #ecae1b",
"T  c #efbd19",
"R  c #cbc906",
"E  c #c8c713",
"W  c #d1ce06",
"Q  c #d3cf12",
"!  c #dad708",
"~  c #d8d413",
"^  c #c9c739",
"/  c #d1cf38",
"(  c #d8d52b",
")  c #efc816",
"_  c #e1de09",
"`  c #e1dd14",
"'  c #e4df26",
"]  c #e1dd3d",
"[  c #e7e30a",
"{  c #eee916",
"}  c #f4ef0e",
"|  c #f2ed11",
" . c #eae526",
".. c #e7e336",
"X. c #cac94e",
"o. c #dbd949",
"O. c #dad859",
"+. c #c9c867",
"@. c #d2d16c",
"#. c #d4d277",
"$. c #e2de44",
"%. c #e0de70",
"&. c #f1ed43",
"*. c #f2ee5d",
"=. c #f4f176",
"-. c #9d9d8a",
";. c #868aa5",
":. c #acaa89",
">. c #acab95",
",. c #b7b689",
"<. c #b5b597",
"1. c #babaa4",
"2. c #c0bf9d",
"3. c #cac98a",
"4. c #cbca98",
"5. c #d0cfae",
"6. c #e0dfb7",
"7. c #efed8f",
"8. c #f0eeaa",
"9. c #e4e4b6",
"0. c #cfcfc9",
"q. c #d6d7d8",
"w. c #e8e7cd",
"e. c #f0efd5",
"r. c #eae9f0",
"t. c #f8f7e9",
"y. c #faf9fb",
"u. c None",
"u.u.u.u.u.u.u.u.u.u.u.u.u.u.u.u.u.u.u.u.u.u.u.u.u.u.u.u.u.u.u.u.u.u.u.u.u.u.u.u.u.u.",
"u.u.u.u.u.u.u.u.u.u.u.u.u.u.u.u.u.u.u.@.{ { $.u.u.u.u.u.u.u.u.u.u.u.u.u.u.u.u.u.u.u.",
"u.u.u.u.u.u.u.u.u.u.u.u.u.u.u.u.u.u.#.{ { { { ..u.u.u.u.u.u.u.u.u.u.u.u.u.u.u.u.u.u.",
"u.u.u.u.u.u.u.u.u.u.u.u.u.u.u.u.u.3.{ { { { { { ] u.u.u.u.u.u.u.u.u.u.u.u.u.u.u.u.u.",
"u.u.u.u.u.u.u.u.u.u.u.u.u.u.u.u.u.O.{ { { { { { ..u.u.u.u.u.u.u.u.u.u.u.u.u.u.u.u.u.",
"u.u.u.u.u.u.u.u.u.u.u.u.u.u.D F u.I ~ { { { { { #.u.u.u.u.u.u.u.u.u.u.u.u.u.u.u.u.u.",
"u.u.u.u.u.u.u.u.u.<.,.c n G z 8 > - x N P [ { { @.u.u.u.u.u.u.u.u.u.u.u.u.u.u.u.u.u.",
"u.u.u.u.u.u.u.u.G x M M +.6.w.6.D v * * - x ` { $.u.u.u.u.u.u.u.u.u.u.u.u.u.u.u.u.u.",
"u.u.u.u.u.u.u.+.V V V Z 9.y.y.y.t.5.J * % = x ~ { ..u.u.u.u.u.u.u.u.u.u.u.u.u.u.u.u.",
"u.u.u.u.u.u.+.W W W R E 9.y.y.y.y.y.y.<.% % * l ~ { ..4.u.u.u.u.u.u.u.u.u.u.u.u.u.u.",
"u.u.u.u.u.+.W ! ! ! W Q 8.y.y.y.y.y.y.y.>.% X * l Q {  .4.u.u.u.u.u.u.u.u.u.u.u.u.u.",
"u.u.u.u.,.V ! _ [ [ ! W / t.y.y.y.y.y.y.q.t X X * E {  .4.u.u.u.u.u.u.u.u.u.u.u.u.u.",
"u.u.u.u.u.Q [ ..&.*. .` ( 8.t.y.2 3 ;.y.y.:.% X X ;  .4.u.u.u.u.u.u.u.u.u.u.u.u.u.u.",
"u.u.u.u./ ! ..e.t.t.e.7.o.o.t.y.2 o o 4 y.r.1 X . % <.u.u.u.u.u.u.u.u.u.u.u.u.u.u.u.",
"u.u.u.u./ [ 7.t.y.y.y.t.t.O.O.y.< o o < y.r.t X . X -.u.u.u.u.u.u.u.u.u.u.u.u.u.u.u.",
"u.u.u.u./ [ =.y.y.y.y.y.y.y.@.X.6., # O r.e.A X . % :.H H H H S u.u.u.u.u.u.u.u.u.u.",
"u.u.u.u.( [ *.y.y.y.y.y.u.u.q.+.C G 4.u.u.4.: X $ w q 8 ; ; ; ; v 1.u.u.u.u.u.u.u.u.",
"u.u.u.u.o.[  .8.y.y.y.r.@ o + 1.G l ; v : C f a p p q ; ; ; ; ; ; z <.u.u.@.O...u.u.",
"u.u.u.u.X._ [ =.t.y.y.r.o o o < K l ; = * 0 g g u p r ; ; z l ; ; ; z <.J X.} } ..u.",
"u.u.u.u.^ ! _ [ 7.y.y.y.u.o O 2 w.n - = 0 g U L s u 8 H <.u.1.J ; ; ; ; l ^ } } | 4.",
"u.u.u.u.X.! ! _ [ 7.y.y.y.0.q.u.w.; - 7 a g T Y i 6 F u.u.u.u.1.l ; ; ; > ( | | } O.",
"u.u.] o.` W W ! ! ! %.e.t.y.y.y.w.v 7 a d Y T g i k u.u.u.u.u.u.v ; ; ; B { { } } u.",
"u.$.{ { { W R R W R R X.@.9.9.%.G r g g Y ) j g e u.u.u.u.u.u.u.z ; ; B { { | } u.u.",
"o.{ { { { ! W V V V V M M M c x m p j T ) h g 5 & u.u.u.u.u.u.1.; ; c ' } | } u.u.u.",
"{ { { { { { ` W V N M M x l l ; r g U ) g i 5 & >.u.u.u.u.u.u.u.v ; n { } } u.u.u.u.",
"$.{ { { { { { ! R M M x l l ; - a p s d i w & >.u.u.u.u.u.u.u.u.S l ! | | u.u.u.u.u.",
"$.{ { { { { { { ! W M x l ; - 7 i p p 0 y F :.u.u.u.u.u.u.u.u.u.u.X.{ } u.u.u.u.u.u.",
"4. .{ { { { { { { { ` N c l z 8 a r 7 9 u.u.u.u.u.u.u.u.u.u.u.u.u.u.O.u.u.u.u.u.u.u.",
"u.4.#.O.{ { .. .{ { { ' 2.<.J ; 8 ; v u.u.u.u.u.u.u.u.u.u.u.u.u.u.u.u.u.u.u.u.u.u.u.",
"u.u.u.u.4.4.u.u.3.{  .4.u.<.; ; ; l 1.u.u.u.u.u.u.u.u.u.u.u.u.u.u.u.u.u.u.u.u.u.u.u.",
"u.u.u.u.u.u.u.u.u.4.4.u.u.u.z ; ; ; :.u.u.u.u.u.u.u.u.u.u.u.u.u.u.u.u.u.u.u.u.u.u.u.",
"u.u.u.u.u.u.u.u.u.u.u.u.u.<.l ; ; ; J u.u.u.1.u.<.u.u.u.u.u.u.u.u.u.u.u.u.u.u.u.u.u.",
"u.u.u.u.u.u.u.u.u.u.u.u.u.u.<.; ; ; ; J :.1.z z 8 :.u.u.u.u.u.u.u.u.u.u.u.u.u.u.u.u.",
"u.u.u.u.u.u.u.u.u.u.u.u.u.u.J ; ; ; ; ; ; ; ; ; ; b 3.u.u.u.u.u.u.u.u.u.u.u.u.u.u.u.",
"u.u.u.u.u.u.u.u.u.u.u.u.u.u.u.H ; ; ; ; : ; ; ; C I } #.u.u.u.u.u.u.u.u.u.u.u.u.u.u.",
"u.u.u.u.u.u.u.u.u.u.u.u.u.u.u.u.H ; ; ; ; l b Z { { } u.u.u.u.u.u.u.u.u.u.u.u.u.u.u.",
"u.u.u.u.u.u.u.u.u.u.u.u.u.u.u.u.u.J J S C `  .{ { | u.u.u.u.u.u.u.u.u.u.u.u.u.u.u.u.",
"u.u.u.u.u.u.u.u.u.u.u.u.u.u.u.u.u.u.u.u.{ | | } } } u.u.u.u.u.u.u.u.u.u.u.u.u.u.u.u.",
"u.u.u.u.u.u.u.u.u.u.u.u.u.u.u.u.u.u.u...{ | } } } u.u.u.u.u.u.u.u.u.u.u.u.u.u.u.u.u.",
"u.u.u.u.u.u.u.u.u.u.u.u.u.u.u.u.u.u.u...{ } } } u.u.u.u.u.u.u.u.u.u.u.u.u.u.u.u.u.u.",
"u.u.u.u.u.u.u.u.u.u.u.u.u.u.u.u.u.u.u...} | } u.u.u.u.u.u.u.u.u.u.u.u.u.u.u.u.u.u.u.",
"u.u.u.u.u.u.u.u.u.u.u.u.u.u.u.u.u.u.u.u.u.u.u.u.u.u.u.u.u.u.u.u.u.u.u.u.u.u.u.u.u.u."
};
