/* XPM */
static char *yellow_ball_destroy2[] = {
"42 42 127 2",
"   c #000000",
".  c #352d01",
"X  c #393600",
"o  c #0e164a",
"O  c #1d2456",
"+  c #242b5b",
"@  c #353c68",
"#  c #3f456f",
"$  c #403801",
"%  c #7f3d15",
"&  c #484501",
"*  c #524f00",
"=  c #595600",
"-  c #6a5a05",
";  c #75590f",
":  c #686601",
">  c #63641a",
",  c #766904",
"<  c #7d7c02",
"1  c #7a7816",
"2  c #727031",
"3  c #494f5c",
"4  c #4b5175",
"5  c #757247",
"6  c #7f7f5d",
"7  c #686c8e",
"8  c #7f8208",
"9  c #7d819b",
"0  c #823d15",
"q  c #af372f",
"w  c #8d4b17",
"e  c #904723",
"r  c #8f6c0e",
"t  c #857906",
"y  c #ad531c",
"u  c #b54424",
"i  c #af6a18",
"p  c #807f5d",
"a  c #b57563",
"s  c #ce3c2f",
"d  c #db3b32",
"f  c #e43b35",
"g  c #d24b2b",
"h  c #de4630",
"j  c #da7b22",
"k  c #e54433",
"l  c #e6672b",
"z  c #ea7628",
"x  c #878704",
"c  c #8d8c16",
"v  c #969504",
"b  c #909031",
"n  c #9fa12e",
"m  c #a48c0e",
"M  c #a6a502",
"N  c #a9a919",
"B  c #b7b504",
"V  c #b0af2c",
"C  c #939251",
"Z  c #9d9c58",
"A  c #929373",
"S  c #9e9974",
"D  c #af8f78",
"F  c #a8a745",
"G  c #aaaa74",
"H  c #bdbe69",
"J  c #bec028",
"K  c #c1bf04",
"L  c #d5bf0f",
"P  c #c0bf27",
"I  c #eb8824",
"U  c #cbc806",
"Y  c #cdc911",
"T  c #d1cf07",
"R  c #d2ce14",
"E  c #d9d608",
"W  c #d8d51a",
"Q  c #cac92c",
"!  c #d2cf30",
"~  c #d9d726",
"^  c #e3df09",
"/  c #e5db11",
"(  c #f2d912",
")  c #e1dd2a",
"_  c #e7e30a",
"`  c #ede816",
"'  c #f4ef0e",
"]  c #f2ec11",
"[  c #e9e52a",
"{  c #ebe736",
"}  c #d2d052",
"|  c #dedb4b",
" . c #cbca78",
".. c #d7d46e",
"X. c #d5d378",
"o. c #e2df43",
"O. c #e0dd50",
"+. c #f1ed53",
"@. c #f2ef70",
"#. c #898ca6",
"$. c #9da0ab",
"%. c #b08880",
"&. c #adad86",
"*. c #abab9b",
"=. c #b7b78d",
"-. c #b5b497",
";. c #b9b8a3",
":. c #b1b3c6",
">. c #c88982",
",. c #c1bf8b",
"<. c #cbca89",
"1. c #cfce91",
"2. c #cdcca7",
"3. c #eeec92",
"4. c #edecb3",
"5. c #cacad8",
"6. c #dbdad7",
"7. c #d9d9e3",
"8. c #e9e9d9",
"9. c #f3f2c6",
"0. c #f4f3d8",
"q. c #ecebe3",
"w. c #f0efee",
"e. c #f0eff0",
"r. c #f7f6e9",
"t. c #faf9fb",
"y. c None",
"y.y.y.y.y.y.y.y.y.y.y.y.y.y.y.y.y.y.y.y.y.y.y.y.y.y.y.y.y.y.y.y.y.y.y.y.y.y.y.y.y.y.",
"y.y.y.y.y.y.y.y.y.y.y.y.y.y.y.y.y.y.y.y.y.y.y.y.y.y.y.y.y.y.y.y.y.y.y.y.y.y.y.y.y.y.",
"y.y.y.y.y.y.y.y.y.y.y.y.y.y.y.y.y.y.y.y.y.y.y.y.y.y.y.y.y.y.y.y.y.y.y.y.y.y.y.y.y.y.",
"y.y.y.y.y.y.y.y.y.y.y.y.y.y.y.y.y.y.y.y.y.y.y.y.y.y.y.y.y.y.y.y.y.y.y.y.y.y.y.y.y.y.",
"y.y.y.y.y.y.y.y.y.y.y.y.y.y.y.y.y.y.y.y.y.y.y.y.y.y.y.y.y.y.y.y.y.y.y.y.y.y.y.y.y.y.",
"y.y.y.y.y.y.y.y.y.y.y.y.y.y.y.y.y.y.y.y.y.y.y.y.y.y.y.y.y.y.y.y.y.y.y.y.y.y.y.y.y.y.",
"y.y.y.y.y.y.y.y.y.y.y.y.y.y.y.=.V Q Q Q Q V n G y.y.y.y.y.y.y.y.y.y.y.y.y.y.y.y.y.y.",
"y.y.y.y.y.y.y.y.y.y.y.y.y. .! ! T E E E T K B V V G y.y.y.y.y.y.y.y.y.y.y.y.y.y.y.y.",
"y.y.y.y.y.y.y.y.y.y.y.y. .! E ^ _ _ ^ E E U K B M n G y.y.y.y.y.y.y.y.y.y.y.y.y.y.y.",
"y.y.y.y.y.y.y.y.y.y.y. .~ _ [ @.@.+._ _ E T K P } H F Z A y.y.y.y.y.y.y.y.y.y.y.y.y.",
"y.y.y.y.y.y.y.y.y.y. .~ _ { 3.r.t.9.+._ E T Q <.8.8.<.b 1 y.y.<.X.X.X.X.X.<.y.y.y.y.",
"y.1.<.<.<.<.1.y.y.<.W ^ ` @.r.t.t.t.9.[ E T X.0.t.t.q.,.1 G ,.) ` ` ` ` ` o.y.y.y.y.",
"y.| ` ` ` ` [ 1.<.R E _ { 4.t.t.t.t.t.@.W W 4.t.t.t.t.8.1 : B _ ` ` ` ` ` o.y.y.y.y.",
"y.o.` ` ` ` ` ` T E E _ @.0.t.t.t.t.t.4.~ O.9.t.t.t.t.8.Z - v W ` ` ` ` ` o.y.y.y.y.",
"o.` ` ` ` ` ` ` T T E _ 3.r.t.t.t.t.t.0.~ 3.r.t.t.t.t.w.2.= : Y ` ` ` ` ` o.y.y.y.y.",
"o.` ` ` ` ` ` T U T E _ 3.t.t.t.t.t.t.t.! 4.t.t.t.t.t.t.6.= * x Y ` ` ` ` | y.y.y.y.",
"| ` ` ` ` ` ` T U U E E 3.t.t.t.5.4 t.t.Q 9.t.#.#.t.t.t.q.* & t Y ` ` ` ` | y.y.y.y.",
"2.o.` ` ` ` ` T K U T E 3.t.t.:.@ o 4 e.J 4.9 + + #.t.t.6.* & < Y ` ` | 1.2.y.y.y.y.",
"y.| ` ` ` ` ` T B K U U 3.r.t.:.o o O 8.V 1.4 o o 7 t.e.6.& $ < Y ` O.2.y.y.y.y.y.y.",
"y.1.o.` ` ` ` U B B B B ..0.t.:.o o o 2.N H 3 o o 7 t.q.S & X , Y ` ..y.y.y.y.y.y.y.",
"y.y.1.o.` ` ` U M M B B } 4.t.6.7 O #.H v n A # 4 y.t.6.2 X X , Y ` ..y.y.y.y.y.y.y.",
"y.y.y.1.o.` ` T M v M M N <.r.t.7.9 8.n x 8 =.$.$.t.w.;.& X X , Y ` ..y.y.y.y.y.y.y.",
"y.y.y.y.X.` ` E M v v v v F 1.0.t.8.H x < , b 2.q.q.w.5 X . X v W ` ..y.y.y.y.y.y.y.",
"y.y.y.y.X.` ` _ M x x x x x N } 4.H < , : : = b ,.=.5 X . . & Y ` ` ..y.y.y.y.y.y.y.",
"y.y.y.y.<.[ [ ) N x < < < < x m m t , , ; ; - r m - X . . . > Q [ [ X.y.y.y.y.y.y.y.",
"y.y.y.y.y.y.y.y.y.c < , , < i k f f d u u d f f k u $ . . X y.y.y.y.y.y.y.y.y.y.y.y.",
"y.y.y.y.y.y.y.y.y.y.c , y d f k l I k h h k z l k f d u ; y.y.y.y.y.y.y.y.y.y.y.y.y.",
"y.y.y.y.y.y.y.y.c c < y h f h j ( ` ( ( ( ( ( L i s f d u c y.y.y.y.y.y.y.y.y.y.y.y.",
"y.y.y.y.y.y.;.c < < < t r g d h l l l I I z l l g d g i r < b -.y.y.y.y.y.y.y.y.y.y.",
"y.y.y.y.y.y.-.< < < < < < r w u d d d k k k d d q e r t < < < b -.y.y.y.y.y.y.y.y.y.",
"y.y.y.y.y.-.b < < < < C G S S D a w 0 0 0 % a >.%.S G Z < < < < b =.y.y.y.y.y.y.y.y.",
"y.y.y.y.y.&.< < < < C -.y.y.y.y.;.C C p 6 6 *.y.y.y.y.y.Z < < < < G y.y.y.y.y.y.y.y.",
"y.y.y.y.y.&.< < < < -.y.y.y.y.y.y.y.y.y.y.y.y.y.y.y.y.y.y.C < < < G y.y.y.y.y.y.y.y.",
"y.y.y.y.y.&.< < < < -.y.y.y.y.y.y.y.y.y.y.y.y.y.y.y.y.y.y.y.x < < G y.y.y.y.y.y.y.y.",
"y.y.y.y.y.&.< < < < G y.y.y.y.y.y.y.y.y.y.y.y.y.y.y.y.y.y.=.x < < G y.y.y.y.y.y.y.y.",
"y.y.y.y.y.=.c < < < < G -.y.y.y.y.y.y.y.y.y.y.y.y.y.y.y.=.< < < < G y.y.y.y.y.y.y.y.",
"y.y.y.y.y.y.-.< < 1 < < < Z y.y.y.y.y.y.y.y.y.y.y.y.y.=.< < < < < G y.y.y.y.y.y.y.y.",
"y.y.y.y.y.y.;.F 1 < < < < < Z y.y.y.y.y.y.y.y.y.y.y.&.t < < < < < < C } O.y.y.y.y.y.",
"y.y.y.y.<.[ [ ` / Q 2 1 < < Z y.y.y.y.y.y.y.y.y.y.&.1 < < < < 1 1 n ! ` ] O.y.y.y.y.",
"y.y.y.X.[ ` ` ] ` ` W R V b G y.y.y.y.y.y.y.y.y.y.G x < b P R R R W ` ' ' { y.y.y.y.",
"y.y.y...] ] ] ' ] ] ` ` ~ ~ ..y.y.y.y.y.y.y.y.y.y. .Y Y R ` ] ` ` ` ] ] ' { y.y.y.y.",
"y.y.y.1.O.] ' ' ' ' ] ] ] ' O.y.y.y.y.y.y.y.y.y.y.X.` ' ] ' ' ] ] ] ] ' { X.y.y.y.y."
};
