/* XPM */
static char *yellow_ball_jump15[] = {
"42 42 125 2",
"   c #000000",
".  c #322d00",
"X  c #3b3701",
"o  c #0c1449",
"O  c #161d50",
"+  c #192153",
"@  c #333957",
"#  c #5d3c0a",
"$  c #68330f",
"%  c #4b4908",
"&  c #534f00",
"*  c #504b1a",
"=  c #585601",
"-  c #695a07",
";  c #754210",
":  c #615d2c",
">  c #696704",
",  c #726d01",
"<  c #7c7c01",
"1  c #787715",
"2  c #66642e",
"3  c #716f31",
"4  c #7e7c53",
"5  c #565b80",
"6  c #696e8f",
"7  c #7e8107",
"8  c #953c1d",
"9  c #935317",
"0  c #8f680f",
"q  c #8f7509",
"w  c #a75918",
"e  c #b34224",
"r  c #a57613",
"t  c #db3b32",
"y  c #e23b35",
"u  c #c9442b",
"i  c #d4472d",
"p  c #df4232",
"a  c #d35430",
"s  c #c67e1b",
"d  c #e64433",
"f  c #e75a2e",
"g  c #e65430",
"h  c #e66a2a",
"j  c #898805",
"k  c #999804",
"l  c #919015",
"z  c #898820",
"x  c #8d8c2a",
"c  c #ad8c10",
"v  c #a9a704",
"b  c #adab18",
"n  c #b9b606",
"m  c #b2b218",
"M  c #a3a327",
"N  c #adab35",
"B  c #b2b122",
"V  c #918f53",
"C  c #9b9c57",
"Z  c #a09f4d",
"A  c #a4a357",
"S  c #b5b453",
"D  c #a5a763",
"F  c #b2af6f",
"G  c #b6b576",
"H  c #c1bf04",
"J  c #ec9821",
"K  c #eda61d",
"L  c #edbf18",
"P  c #c9c706",
"I  c #c9c71f",
"U  c #d1ce06",
"Y  c #d1cd11",
"T  c #d9d608",
"R  c #dad613",
"E  c #ccca2c",
"W  c #d7d538",
"Q  c #e3dc11",
"!  c #f1ca16",
"~  c #e8e40a",
"^  c #eee816",
"/  c #f4ef0e",
"(  c #f1ec11",
")  c #e9e428",
"_  c #e8e436",
"`  c #cbcb44",
"'  c #c6c556",
"]  c #d8d746",
"[  c #d9d755",
"{  c #c7c66e",
"}  c #c8c87a",
"|  c #d0ce7e",
" . c #d8d565",
".. c #d3d17a",
"X. c #e1dd46",
"o. c #eae647",
"O. c #f2ef4d",
"+. c #f2ef5b",
"@. c #f2ef6f",
"#. c #858998",
"$. c #8a8da8",
"%. c #9194ad",
"&. c #979ab1",
"*. c #b5b491",
"=. c #abadbb",
"-. c #b6b7a8",
";. c #b0b2c4",
":. c #cdcc8c",
">. c #cac998",
",. c #d1cf82",
"<. c #d0cf99",
"1. c #dbdb97",
"2. c #c7c6a4",
"3. c #d0cfbd",
"4. c #d5d5a1",
"5. c #ebe990",
"6. c #f2ef8d",
"7. c #e9e9bc",
"8. c #cfcfcd",
"9. c #d6d6d5",
"0. c #dcdce6",
"q. c #edece5",
"w. c #f1f0ee",
"e. c #faf9fb",
"r. c None",
"r.r.r.r.r.r.r.r.r.r.r.r.r.r.r.r.r.r.r.r.r.r.r.r.r.r.r.r.r.r.r.r.r.r.r.r.r.r.r.r.r.r.",
"r.r.r.r.r.r.r.r.r.r.r.r.r.r.r.r.r.r.r.r.r.r.r.r.r.r.r.r.r.r.r.r.r.r.r.r.r.r.r.r.r.r.",
"r.r.r.r.r.r.r.r.r.r.r.r.r.r.r.r.r.r.r.r.r.r.r.r.r.r.r.r.r.r.r.r.r.r.r.r.r.r.r.r.r.r.",
"r.r.r.r.r.r.r.r.r.r.r.r.r.r.r.r.r.r.r.r.r.r.r.r.r.r.r.r.r.r.r.r.r.r.r.r.r.r.r.r.r.r.",
"r.r.r.r.r.r.r.r.r.r.r.r.r.r.r.r.r.r.r.r.r.r.r.r.r.r.2.2.r.r.r.r.r.r.r.r.r.r.r.r.r.r.",
"r.r.r.r.r.r.r.r.r.r.r.r.r.r.r.r.r.r.r.r.r.r.r.r.r. .^ X.r.r.r.r.r.r.r.r.r.r.r.r.r.r.",
"r.r.r.r.r.r.r.r.r.r.r.r.r.r.r.r.r.r.r.r.r.r.r.,.) ^ ^ ^ ,.r.r.r.r.r.r.r.r.r.r.r.r.r.",
"r.r.r.r.r.r.r.r.r.r.r.r.r.-.r.-.*.r.r.-.r.r.[ ^ ^ ^ ^ ^ ) r.r.r.r.r.r.r.r.r.r.r.r.r.",
"r.r.r.r.r.r.r.r.r.r.r.r.S k N k M l C > *.r.W ^ ^ ^ ^ ^ ^  .r.r.r.r.r.r.r.r.r.r.r.r.",
"r.r.r.r.r.r.r.r.r.r.} I P n n v ' <.G Z 1 1 n R ^ ^ ^ ^ ^ ) r.r.r.r.r.r.r.r.r.r.r.r.",
"r.r.r.r.r.r.r.r.*.E U T T U P E X X X X A 1 , k Y ^ ^ ^ _ 2.r.r.r.r.r.r.r.r.r.r.r.r.",
"r.r.r.r.r.r.r.r.m U T T T T P X X X X X X *.- = < n ^ ^ X.r.r.r.r.r.r.r.r.r.r.r.r.r.",
"r.r.r.r.r.r.r.{ R T ~ ~ ~ T U X X X X X X X *.& = j R ^ ..r.r.r.r.r.r.r.r.r.r.r.r.r.",
"r.r.r.r.r.r.2.T ~ O.T 6.@.^ T X X X X X X X X 3 % > v ^ ) r.r.r.r.r.r.r.r.r.r.r.r.r.",
"r.r.r.r.r.r.{ T _ +.X X X 6.o.W X X X X X e.e.-.% X < Y ^  .r.r.r.r.r.r.r.r.r.r.r.r.",
"r.r.r.r.r.r.[ ~ +.X X X X X X R X X X 5 $.e.e.3.2 X = k ^ ^ >.r.r.r.r.r.r.r.r.r.r.r.",
"r.r.r.r.r.r.W ~ +.X X X X X X 5.` X &.o o %.e.9.2 X X , R ^ _ r.r.r.r.r.r.r.r.r.r.r.",
"r.r.r.r.r.>.T ~ O.X X X X X X X ` 1.#.o o + w.e.4 X X > ^ ^ _ r.r.r.r.r.r.r.r.r.r.r.",
"r.r.r.r.r.{ T ~ _ X X X X X X &.7.m 4.@ + 6 e.q.V X . % b  .r.r.r.r.r.r.r.r.r.r.r.r.",
"r.r.r.>.r.' T T ~ X X X X 6 o o -.S M C 9.%.e.8.: X . X r.r.r.r.r.r.r.r.r.r.r.r.r.r.",
"r.:._ ^ _ T U T T _ X X e.6 o o @ { j 7 D *.2.F % . . * r.r.r.r.r.r.r.r.r.r.r.r.r.r.",
"[ ^ ^ ^ ^ Q U U T T 5.e.e.0.o O $.} j < > = M r ; $ 9 9 r.r.r.r.r.r.r.r.r.r.r.r.r.r.",
"^ ^ ^ ^ ^ T U P U U Y 7.w.e.8.;.=.<.7 , - - y y y y y i r.r.r.r.r.r.r.r.r.r.r.r.r.r.",
") ^ ^ ^ ^ ^ U H P P H ` 1.e.e.e.q.A , > y y h h a y t % r.r.r.r.r.r.r.r.r.r.r.r.r.r.",
"^ ^ ^ ^ ^ ^ R P n n n v B | 1.5.4.z 9 y u p J Q s y u r.r.r.r.r.r.r.r.r.r.r.r.r.r.r.",
") ^ ^ ^ ^ ^ ^ U n v v k k k j b c y y p h L ! h t y % r.r.r.r.r.r.r.r.r.r.r.r.r.r.r.",
"| [ ^ ^ ^ ^ ^ Q P v k k j j < q y d J K ( K f y y # < r.r.r.r.r.r.r.r.r.r.r.r.r.r.r.",
"r.r.[ _ ^ ^ ^ ^ Q n k j < < , w y h ^ K g g y 8 # # < < r.r.r.r.r.r.r.r.r.r.r.r.r.r.",
"r.r.r.r.:. .] ^ ^ Q v j < , 9 t y i f y t y # # # < < < < r.r.r.r.r.r.r.r.r.r.r.r.r.",
"r.r.r.r.r.r.r.) ^ ^ ^ , , < w i i t e a % % # # < < < < < < r.r.r.r.r.r.r.r.r.r.r.r.",
"r.r.r.r.r.r.r...^ ^ z , , < q q 0 > % % % r.r.r.r., < < < < < r.r.r.r.r.r.r.r.r.r.r.",
"r.r.r.r.r.r.r.z z j < < r.r.r.r.r.r.r.r.r.r.r.r.r.r.r.< < < < < r.r.r.r.r.r.r.r.r.r.",
"r.r.r.r.r.r.r.< < < < r.r.r.r.r.r.r.r.r.r.r.r.r.r.r.r.r.< < < < r.r.r.r.r.r.r.r.r.r.",
"r.r.r.r.r.r.r.< < < < r.r.r.r.r.r.r.r.r.r.r.r.r.r.r.r.r.r.< < < r.r.r.r.r.r.r.r.r.r.",
"r.r.r.r.r.r.r.< < < < r.r.r.r.r.r.r.r.r.r.r.r.r.r.r.r.r.r.< < < r.r.r.r.r.r.r.r.r.r.",
"r.r.r.r.r.r.r.< < < < < r.r.r.r.r.r.r.r.r.r.r.r.r.r.r.r.< < < < r.r.r.r.r.r.r.r.r.r.",
"r.r.r.r.r.r.r.r.< < 1 < < < r.r.r.r.r.r.r.r.r.r.r.r.r.< < < < < r.r.r.r.r.r.r.r.r.r.",
"r.r.r.r.r.r.r.r.Z 1 < < < < < r.r.r.r.r.r.r.r.r.r.r.< < < < < < < G / r.r.r.r.r.r.r.",
"r.r.r.r.r.r.( / / ( W 2 < < < r.r.r.r.r.r.r.r.r.r.1 < < < < 1 1 S / / / r.r.r.r.r.r.",
"r.r.r.r.r.^ ^ ^ ( ^ ^ ^ ^ A Z r.r.r.r.r.r.r.r.r.r.j < x W ^ ^ ^ ( / / / r.r.r.r.r.r.",
"r.r.r.r.r./ / / / / ( ^ ^ ^ / r.r.r.r.r.r.r.r.r.r.^ / / / / ^ ^ ( ( / / r.r.r.r.r.r.",
"r.r.r.r.r.r.( / / / / / ( / / r.r.r.r.r.r.r.r.r.r.^ / ( / / / / / / / r.r.r.r.r.r.r."
};
