/* XPM */
static char *yellow_ball_destroy7[] = {
"42 42 122 2",
"   c #000000",
".  c #393302",
"X  c #171e4f",
"o  c #1f2655",
"O  c #484504",
"+  c #5d5a14",
"@  c #5e5b27",
"#  c #7d5028",
"$  c #786009",
"%  c #7d7c04",
"&  c #7e7b15",
"*  c #736a3c",
"=  c #777637",
"-  c #404671",
";  c #7d794a",
":  c #595e83",
">  c #5b6084",
",  c #666a8d",
"<  c #b43927",
"1  c #806d09",
"2  c #827c05",
"3  c #8b7213",
"4  c #926e0c",
"5  c #8e7c2d",
"6  c #ac5b1f",
"7  c #b35c1d",
"8  c #ac5921",
"9  c #b64c22",
"0  c #bb5025",
"q  c #bc583f",
"w  c #99724f",
"e  c #ad715d",
"r  c #a27e63",
"t  c #cc482b",
"y  c #cb4c34",
"u  c #da4f2d",
"i  c #d7572a",
"p  c #e26a29",
"a  c #e47726",
"s  c #858509",
"d  c #868417",
"f  c #9b9902",
"g  c #9b9910",
"h  c #898929",
"j  c #8d8c30",
"k  c #948734",
"l  c #a19f31",
"z  c #b89c29",
"x  c #a9a709",
"c  c #aba81b",
"v  c #b5b405",
"b  c #b4b212",
"n  c #afae29",
"m  c #aeae3e",
"M  c #b5b429",
"N  c #83845d",
"B  c #95934f",
"V  c #9a9953",
"C  c #9a9c76",
"Z  c #adac5e",
"A  c #bdbc43",
"S  c #a0a060",
"D  c #aaa977",
"F  c #b0af78",
"G  c #ea8525",
"H  c #eba71d",
"J  c #cbc905",
"K  c #c8c41c",
"L  c #d1cf0b",
"P  c #d0cc11",
"I  c #d9d50a",
"U  c #d8d414",
"Y  c #cdcb36",
"T  c #d1ce31",
"R  c #d8d735",
"E  c #e0dd0c",
"W  c #e2de16",
"Q  c #ece716",
"!  c #f4ef0e",
"~  c #f1ec12",
"^  c #eae524",
"/  c #e6e133",
"(  c #c5c348",
")  c #c9c85a",
"_  c #d2cf5d",
"`  c #dfdc4e",
"'  c #dbd854",
"]  c #cdcc69",
"[  c #d0ce7f",
"{  c #dad762",
"}  c #d6d57c",
"|  c #e0dd43",
" . c #e2e04e",
".. c #f0ec58",
"X. c #ecea7c",
"o. c #f0ed72",
"O. c #8c909c",
"+. c #9d9b85",
"@. c #abaa87",
"#. c #b0aa93",
"$. c #b7b78e",
"%. c #b6b697",
"&. c #a4a6a6",
"*. c #b8b8a2",
"=. c #ccca8a",
"-. c #c7c697",
";. c #d0cf82",
":. c #d3d29f",
">. c #c5c5a2",
",. c #d5d6b9",
"<. c #e8e79f",
"1. c #f2f093",
"2. c #f6f4a6",
"3. c #f7f5ba",
"4. c #dfded7",
"5. c #e0e0c7",
"6. c #e8e7d8",
"7. c #f4f3d7",
"8. c #e2e2e8",
"9. c #f5f4ec",
"0. c #faf9fb",
"q. c None",
"q.q.q.q.q.q.q.q.q.q.q.q.q.q.q.q.q.q.q.q.q.q.q.q.q.q.q.q.q.q.q.q.q.q.q.q.q.q.q.q.q.q.",
"q.q.q.q.q.q.q.q.q.q.q.q.q.q.q.q.q.q.q.q.q.q.q.q.q.q.q.q.q.q.q.q.q.q.q.q.q.q.q.q.q.q.",
"q.q.q.q.q.q.q.q.q.q.q.q.q.q.q.q.q.q.q.q.q.q.q.q.q.q.q.q.q.q.q.q.q.q.q.q.q.q.q.q.q.q.",
"q.q.q.q.q.q.q.q.q.q.q.q.q.q.q.q.q.q.q.q.q.q.q.q.q.q.q.q.q.q.q.q.q.q.q.q.q.q.q.q.q.q.",
"q.q.q.q.q.q.q.q.q.q.q.q.q.q.q.q.q.q.q.q.q.q.q.q.q.q.q.q.q.q.q.q.q.q.q.q.q.q.q.q.q.q.",
"q.q.q.q.q.q.q.q.q.q.q.q.q.q.q.q.q.q.q.q.q.q.q.q.q.q.q.q.q.q.q.q.q.q.q.q.q.q.q.q.q.q.",
"q.q.q.q.q.q.q.q.q.q.q.q.q.q.q.q.q.q.q.q.q.q.q.q.q.q.q.q.q.q.q.q.q.q.q.q.q.q.q.q.q.q.",
"q.q.q.q.q.q.q.q.q.q.q.q.q.q.q.q.q.q.q.q.q.q.q.q.q.q.q.q.q.q.q.q.q.q.q.q.q.q.q.q.q.q.",
"q.q.q.q.q.q.q.q.q.q.q.q.q.q.q.q.q.q.q.q.q.q.q.q.q.q.q.q.q.q.q.q.q.q.q.q.q.q.q.q.q.q.",
"q.q.q.q.q.q.q.q.q.q.q.q.q.q.q.q.q.q.q.[ q.q.q.q.q.q.q.q.q.q.q.q.q.q.q.q.q.q.q.q.q.q.",
"q.q.q.q.q.q.q.q.q.q.q.q.q.q.q.q.q.q.! Q ` q.q.q.q.q.q.q.q.q.q.q.q.q.q.q.q.q.q.q.q.q.",
"q.q.q.q.q.q.q.q.q.q.q.q.q.q.q.q.q.! ! ~ ' q.q.q.q.q.q.q.q.q.q.q.q.q.q.q.q.q.q.q.q.q.",
"q.q.q.q.q.q.q.q.q.q.q.q.q.q.q.q.~ ~ W K F %.q.q.q.q.q.q.q.q.q.q.q.q.q.q.q.q.q.q.q.q.",
"q.q.q.q.q.q.q.q.q.q.q.q.q.q.q.[ T c & % % d @.q.q.q.q.q.q.q.q.q.q.q.q.q.q.q.q.q.q.q.",
"q.q.q.q.q.q.q.q.q.q.q.q.q.q.q.q.F d h j d % j *.q.q.q.q.q.q.q.q.q.q.q.q.q.q.q.q.q.q.",
"q.q.q.q.q.q.q.q.q.q.q.q.q.q.q.q.q.@.%.q.D % d %.q.q.q.q.q.q.q.q.q.q.q.q.q.q.q.q.q.q.",
"q.q.q.q.q.q.q.q.q.q.q.q.q.q.q.q.q.q.q.q.%.% % D q.[ q.q.q.q.q.q.q.q.q.q.q.q.q.q.q.q.",
"q.q.q.q.q.q.q.q.q.q.~ _ q.q.q.q.q.q.q.#.5 4 d F _ Q ' } ;.>.q.q.q.q.q.q.q.q.q.q.q.q.",
"q.q.q.q.q.q.q.q.q.! W g D q.q.q.q.@.w q t t 1 s x U Q Q Q / { q.q.q.q.q.q.q.q.q.q.q.",
"q.q.q.q.q.q.q.q.~ ~ b 2 D q.q.q.+.# t a p 7 2 s f v I Q ~ ~ ^ q.q.q.q.q.q.q.q.q.q.q.",
"q.q.q.q.q.q.q.! ~ K s % D q.q.q.e u H G i z m n v v J I ~ ~ Q =.q.q.q.q.q.q.q.q.q.q.",
"q.q.q.q.q.q.q.~ Q l s % D q.*.r y H p 9 3 5.9.7.} L J L Q ^ } q.q.q.q.q.q.q.q.q.q.q.",
"q.q.q.q.q.q.q.{ ` $.D s d j h 8 t a 9 $ d &.> q.9.X.E I ] -.q.q.q.q.q.q.q.q.q.q.q.q.",
"q.q.q.q.q.q.q.q.q.q.q.S s 2 2 0 < 6 k h s C o : 0.9...I =.q.q.q.q.q.q.q.q.q.q.q.q.q.",
"q.q.q.q.q.q.q.q.q.q.q.q.%.$.@.* . ; 6.O.N ) q.q.0.0.2.Q -.q.q.q.q.q.q.q.q.q.q.q.q.q.",
"q.q.q.q.q.q.q.q.q.q.q.q.q.q.q.= . N 8.- X ,.} 7.0.0.3.Q -.q.q.q.q.q.q.q.q.q.q.q.q.q.",
"q.q.q.q.q.q.q.q.q.q.q.q.q.q.` b O @ 4.q., 8.<. .1.3.o.U >.q.q.q.q.q.q.q.q.q.q.q.q.q.",
"q.q.q.q.q.q.q.q.q.q.q.q.q.q.' U % O %.0.0.0.7.R E Q I ( q.q.q.q.q.q.q.q.q.q.q.q.q.q.",
"q.q.q.q.q.q.q.q.q.q.q.q.q.q.q.` U % + %.9.0.9._ J L Y -.q.q.q.q.q.q.q.q.q.q.q.q.q.q.",
"q.q.q.q.q.q.q.q.q.q.q.q.q.q.q.-.^ P s & V q.:.M b A -.q.q.q.q.q.q.q.q.q.q.q.q.q.q.q.",
"q.q.q.q.q.q.q.q.q.q.q.q.q.q.q.=.^ ~ Q K D B F Z $.q.q.q.q.q.q.q.q.q.q.q.q.q.q.q.q.q.",
"q.q.q.q.q.q.q.q.q.q.q.q.q.q.q.[ ^ ~ ~ | q.q.q.q.q.q.q.q.q.q.q.q.q.q.q.q.q.q.q.q.q.q.",
"q.q.q.q.q.q.q.q.q.q.q.q.q.q.q.q.q.q.q.q.q.q.q.q.q.q.q.q.q.q.q.q.q.q.q.q.q.q.q.q.q.q.",
"q.q.q.q.q.q.q.q.q.q.q.q.q.q.q.q.q.q.q.q.q.q.q.q.q.q.q.q.q.q.q.q.q.q.q.q.q.q.q.q.q.q.",
"q.q.q.q.q.q.q.q.q.q.q.q.q.q.q.q.q.q.q.q.q.q.q.q.q.q.q.q.q.q.q.q.q.q.q.q.q.q.q.q.q.q.",
"q.q.q.q.q.q.q.q.q.q.q.q.q.q.q.q.q.q.q.q.q.q.q.q.q.q.q.q.q.q.q.q.q.q.q.q.q.q.q.q.q.q.",
"q.q.q.q.q.q.q.q.q.q.q.q.q.q.q.q.q.q.q.q.q.q.q.q.q.q.q.q.q.q.q.q.q.q.q.q.q.q.q.q.q.q.",
"q.q.q.q.q.q.q.q.q.q.q.q.q.q.q.q.q.q.q.q.q.q.q.q.q.q.q.q.q.q.q.q.q.q.q.q.q.q.q.q.q.q.",
"q.q.q.q.q.q.q.q.q.q.q.q.q.q.q.q.q.q.q.q.q.q.q.q.q.q.q.q.q.q.q.q.q.q.q.q.q.q.q.q.q.q.",
"q.q.q.q.q.q.q.q.q.q.q.q.q.q.q.q.q.q.q.q.q.q.q.q.q.q.q.q.q.q.q.q.q.q.q.q.q.q.q.q.q.q.",
"q.q.q.q.q.q.q.q.q.q.q.q.q.q.q.q.q.q.q.q.q.q.q.q.q.q.q.q.q.q.q.q.q.q.q.q.q.q.q.q.q.q.",
"q.q.q.q.q.q.q.q.q.q.q.q.q.q.q.q.q.q.q.q.q.q.q.q.q.q.q.q.q.q.q.q.q.q.q.q.q.q.q.q.q.q."
};
