/* XPM */
static char *yellow_ball_jump3[] = {
"42 42 127 2",
"   c #000000",
".  c #332e00",
"X  c #383501",
"o  c #0c1449",
"O  c #262d58",
"+  c #453e06",
"@  c #494702",
"#  c #494810",
"$  c #504e00",
"%  c #5c5902",
"&  c #5d5e2d",
"*  c #635706",
"=  c #784b0e",
"-  c #6e4f3f",
";  c #605d2c",
":  c #6a6502",
">  c #766b04",
",  c #7c7c01",
"<  c #777616",
"1  c #716933",
"2  c #7d7c25",
"3  c #444a73",
"4  c #4b5179",
"5  c #53587e",
"6  c #757544",
"7  c #676b8e",
"8  c #7f8038",
"9  c #8e391a",
"0  c #ae3c24",
"q  c #944d18",
"w  c #8f6e0b",
"e  c #aa571b",
"r  c #b54923",
"t  c #a26115",
"y  c #c73d32",
"u  c #dc3a33",
"i  c #e23c34",
"p  c #c64a2c",
"a  c #d6472d",
"s  c #de4231",
"d  c #d36227",
"f  c #e54733",
"g  c #e0562e",
"h  c #e75430",
"j  c #ea7329",
"k  c #878605",
"l  c #88861a",
"z  c #8f9112",
"x  c #938e06",
"c  c #999805",
"v  c #9a9a1b",
"b  c #8b8b32",
"n  c #a19f02",
"m  c #a9a706",
"M  c #b0ae03",
"N  c #b9b708",
"B  c #b0b11e",
"V  c #adae33",
"C  c #868554",
"Z  c #999843",
"A  c #929172",
"S  c #a7a658",
"D  c #afad50",
"F  c #b9ba42",
"G  c #a3a268",
"H  c #a6a57a",
"J  c #b9b961",
"K  c #b4b37d",
"L  c #bec02b",
"P  c #de981c",
"I  c #c6bb0e",
"U  c #c4bf10",
"Y  c #c0be3a",
"T  c #eb8c23",
"R  c #eda41e",
"E  c #efbc19",
"W  c #c1bf48",
"Q  c #cac805",
"!  c #cac817",
"~  c #d1ce0a",
"^  c #d2cf11",
"/  c #d9d608",
"(  c #dbd814",
")  c #d2d035",
"_  c #efca15",
"`  c #e2de0a",
"'  c #e2de14",
"]  c #e3df3f",
"[  c #e8e40b",
"{  c #eee916",
"}  c #f4ef0e",
"|  c #f1ec11",
" . c #eae526",
".. c #e5e237",
"X. c #d0ce41",
"o. c #d2d049",
"O. c #ddda55",
"+. c #d1cf6b",
"@. c #d7d675",
"#. c #e0dd46",
"$. c #eeeb57",
"%. c #f3ef71",
"&. c #989b92",
"*. c #8588a4",
"=. c #aaa986",
"-. c #b6b591",
";. c #b4b6c8",
":. c #cac986",
">. c #cbca97",
",. c #dada84",
"<. c #d4d398",
"1. c #ceccbf",
"2. c #d1d0ac",
"3. c #e4e28b",
"4. c #f5f391",
"5. c #edecaa",
"6. c #e7e6b5",
"7. c #c1c3d1",
"8. c #d6d6d2",
"9. c #dadae4",
"0. c #eae9c7",
"q. c #e2e2d6",
"w. c #f6f5cc",
"e. c #eae9ed",
"r. c #f7f6e8",
"t. c #faf9fb",
"y. c None",
"y.y.y.y.y.y.y.y.y.y.y.y.y.y.y.y.y.y.y.y.y.y.y.y.y.y.y.y.y.y.y.y.y.y.y.y.y.y.y.y.y.y.",
"y.y.y.y.y.y.y.y.y.y.y.y.y.y.y.y.y.y.y.y.y.y.y.y.y.y.y.y.y.y.y.y.y.y.y.y.y.y.y.y.y.y.",
"y.y.y.y.y.y.y.y.y.y.y.y.y.y.y.y.y.y.y.y.y.y.y.y.y.y.y.y.y.y.y.y.y.y.y.y.y.y.y.y.y.y.",
"y.y.y.y.y.y.y.y.y.y.y.y.y.y.y.y.y.y.y.y.y.y.y.y.y.y.y.y.y.y.y.y.y.y.y.y.y.y.y.y.y.y.",
"y.y.y.y.y.y.y.y.y.y.y.y.y.y.y.y.y.y.y.y.y.y.y.y.y.y.y.y.y.y.y.y.y.y.y.y.y.y.y.y.y.y.",
"y.y.y.y.y.y.y.y.y.y.y.y.y.y.y.y.y.y.y.y.y.y.y.y.y.y.y.y.y.y.y.y.y.y.y.y.y.y.y.y.y.y.",
"y.y.y.y.y.y.y.y.y.y.y.y.y.y.y.y.y.y.y.y.y.y.y.y.y.y.y.y.y.y.y.y.y.y.y.y.y.y.y.y.y.y.",
"y.y.y.y.y.y.y.y.y.y.y.y.y.y.y.y.y.y.y.y.y.y.y.y.y.y.y.y.y.y.y.y.y.y.y.y.y.y.y.y.y.y.",
"y.y.y.y.y.y.y.y.y.y.y.y.y.y.y.>.+.V x K S -.y.y.y.y.y.y.y.y.{ { { { y.y.y.y.y.y.y.y.",
"y.y.y.y.y.y.y.y.y.y.y.y.y.o.! ~ Q Q N M n v S =.H y.y.:.O.{ { {  .{ y.y.y.y.y.y.y.y.",
"y.y.y.y.y.y.y.y.y.y.y.y.Y ~ / / / ~ Q N W <.J l < y.y. .{ { { { { { y.y.y.y.y.y.y.y.",
"y.y.y.y.y.y.y.y.y.y.:.^ / ` [ [ ` / Q ! 6.t.t.2.l 2 N ' { { { { { { y.y.y.y.y.y.y.y.",
"y.y.y.y.y.y.y.y.y.y.X.`  .%.4.{ [ / ~ @.r.t.t.t.-.< k N { { { { { { y.y.y.y.y.y.y.y.",
"y.y.y.y.y.y.y.y.y.:.( [ 4.t.r.w.$.' ^ 3.t.t.t.t.q.G % , U { { { { { y.y.y.y.y.y.y.y.",
"y.y.y.y.y.y.y.y.y.) [ $.r.t.t.t.6.$.( 3.t.t.t.t.t.q.% $ k ( { { { { y.y.y.y.y.y.y.y.",
"y.y.y.y.y.y.y.y.+./ { %.t.t.t.t.t.5.~ 6.t.t.t.t.t.t.C @ > U {  .{ y.y.y.y.y.y.y.y.y.",
"y.y.y.y.y.y.y.y.^ / [ 4.t.t.t.t.t.r.o.5.t.;.;.t.t.t.=.@ % m { ] { y.y.y.y.y.y.y.y.y.",
"y.y.>.+...{ @.o./ / [ 4.t.t.t.t.t.t.,.@.e.7 O 5 t.t.=.@ @ k { { { y.y.y.y.y.y.y.y.y.",
"y...{ { { { { / ~ / [ %.t.t.t.7.4 7.0.L 8.o o o t.t.=.# X > ^ { y.y.y.y.y.y.y.y.y.y.",
"y.O.{ { { { { / Q / / ..t.t.t.4 o o q.B <.O o o 5 t.A + X % N { O.y.y.y.y.y.y.y.y.y.",
">. .{ { { { { / Q Q / / w.t.t.3 o o &.F V 6 5 7 t.e.A X X % ^ {  .y.y.y.y.y.y.y.y.y.",
"y.{ { { { { { / Q Q Q Q 3.r.t.*.o O 5 V k Z y.9.t.1.; X . $ ( {  .y.y.y.y.y.y.y.y.y.",
"y.#.{ { { { { ( Q N N N ) 6.t.e.;.4 0.z , > b -.6.C + . . 1 y.y.y.y.y.y.y.y.y.y.y.y.",
"y.y.@.{ { { { [ Q M M M M F r.t.t.t.-.k > : % l x * X . X A y.y.y.y.y.y.y.y.y.y.y.y.",
"y.y.>.] { { { { ~ m n m n c J ,.0.6.b > : = q p f r 9 0 1 -.y.y.y.y.y.y.y.y.y.y.y.y.",
"y.y.y.y.@...{ { ' N c x x x k c B x t e r y f j h u i i p y.y.y.y.y.y.y.y.y.y.y.y.y.",
"y.y.y.y.y.y.+.{ { ^ c k k , , w d i h i a g T _ I p u r w y.y.y.y.y.y.y.y.y.y.y.y.y.",
"y.y.y.y.y.y.>.{ { [ m k > > > e s f R R _ | E T a u y t y.y.y.y.y.y.y.y.y.y.y.y.y.y.",
"y.y.y.y.y.y.y.#.+.>.y.S l > r i s P _ R j j h i u y , , , y.y.y.y.y.y.y.y.y.y.y.y.y.",
"y.y.y.y.y.y.y.y.H G b G b w a a i i u u u i 0 9 , , , , , , y.y.y.y.y.y.y.y.y.y.y.y.",
"y.y.y.y.y.y.y.y.k l , , , , y.w q q p r = + # & - > , , , , , y.y.y.y.y.y.y.y.y.y.y.",
"y.y.y.y.y.y.y., , , , , y.y.y.=.8 y.y.C 6 y.y.y.y.y.y., , , , , y.y.y.y.y.y.y.y.y.y.",
"y.y.y.y.y.y.y., , , , y.y.y.y.y.y.y.y.y.y.y.y.y.y.y.y.y., , , , y.y.y.y.y.y.y.y.y.y.",
"y.y.y.y.y.y.y., , , , y.y.y.y.y.y.y.y.y.y.y.y.y.y.y.y.y.y., , , y.y.y.y.y.y.y.y.y.y.",
"y.y.y.y.y.y.y., , , , y.y.y.y.y.y.y.y.y.y.y.y.y.y.y.y.y.y., , , y.y.y.y.y.y.y.y.y.y.",
"y.y.y.y.y.y.y., , , , , y.y.y.y.y.y.y.y.y.y.y.y.y.y.y.y., , , , y.y.y.y.y.y.y.y.y.y.",
"y.y.y.y.y.y.y.y., , < , , , y.y.y.y.y.y.y.y.y.y.y.y.y., , , , , y.y.y.y.y.y.y.y.y.y.",
"y.y.y.y.y.y.y.y.D < , , , , , y.y.y.y.y.y.y.y.y.y.y., , , , , , , K } y.y.y.y.y.y.y.",
"y.y.y.y.y.y.| } } | ) 1 , , , y.y.y.y.y.y.y.y.y.y.< , , , , < 2 D } } } y.y.y.y.y.y.",
"y.y.y.y.y.{ { { | { { { { S Z y.y.y.y.y.y.y.y.y.y.k , b ) { { { | } } } y.y.y.y.y.y.",
"y.y.y.y.y.} } } } } | { { { } y.y.y.y.y.y.y.y.y.y.{ } } } } { { | | } } y.y.y.y.y.y.",
"y.y.y.y.y.y.| } } } } } | } } y.y.y.y.y.y.y.y.y.y.{ } | } } } } } } } y.y.y.y.y.y.y."
};
