/* XPM */
static char *yellow_ball_jump24[] = {
"42 42 128 2",
"   c #000000",
".  c #322d00",
"X  c #3a3600",
"o  c #0c1449",
"O  c #11194c",
"+  c #1e2556",
"@  c #222a57",
"#  c #303764",
"$  c #433f09",
"%  c #4a4806",
"&  c #4f4e17",
"*  c #514e05",
"=  c #5b5903",
"-  c #5a5a27",
";  c #6c6802",
":  c #766010",
">  c #7c7b01",
",  c #777512",
"<  c #74732d",
"1  c #747144",
"2  c #787858",
"3  c #575c82",
"4  c #5f6488",
"5  c #777b9a",
"6  c #7f8207",
"7  c #7e802c",
"8  c #7e829f",
"9  c #933f1e",
"0  c #86382c",
"q  c #af3a25",
"w  c #895111",
"e  c #866a0a",
"r  c #916f0d",
"t  c #a2451d",
"y  c #ab5b1a",
"u  c #bc5122",
"i  c #a56c14",
"p  c #867845",
"a  c #c93b2c",
"s  c #c93830",
"d  c #db3c32",
"f  c #e33b35",
"g  c #cc4b2b",
"h  c #c8791d",
"j  c #d67322",
"k  c #e44532",
"l  c #e7572f",
"z  c #e8692b",
"x  c #e57b26",
"c  c #c56c63",
"v  c #868503",
"b  c #918b04",
"n  c #989704",
"m  c #9a9b17",
"M  c #8b8a2d",
"N  c #999736",
"B  c #9da032",
"V  c #a8a606",
"C  c #abad10",
"Z  c #b0af03",
"A  c #bbb805",
"S  c #a7a539",
"D  c #b3b12d",
"F  c #999845",
"G  c #9e9d6f",
"H  c #abaa4c",
"J  c #a7a67b",
"K  c #b1b162",
"L  c #b7b677",
"P  c #bec018",
"I  c #e88a23",
"U  c #ed9d20",
"Y  c #ecb11a",
"T  c #cc847e",
"R  c #c9c705",
"E  c #d2cf06",
"W  c #d3cf12",
"Q  c #d8d509",
"!  c #d9d615",
"~  c #cdcd2b",
"^  c #c7c536",
"/  c #d2cf38",
"(  c #d6d425",
")  c #d7d537",
"_  c #e1dd0a",
"`  c #f1cd15",
"'  c #e1dd3b",
"]  c #e7e20a",
"[  c #ede816",
"{  c #f4ef0e",
"}  c #f1ec11",
"|  c #e8e428",
" . c #eae637",
".. c #c8c748",
"X. c #dfdc49",
"o. c #dad758",
"O. c #c9c872",
"+. c #d9d666",
"@. c #d4d275",
"#. c #e2de42",
"$. c #f1ed53",
"%. c #e9e878",
"&. c #f2ef66",
"*. c #8b8e9d",
"=. c #aeae83",
"-. c #b9b985",
";. c #b6b697",
":. c #b4b5ac",
">. c #cccb85",
",. c #c9c898",
"<. c #d1d187",
"1. c #dfde91",
"2. c #c6c6a6",
"3. c #cfcdb7",
"4. c #d7d7bb",
"5. c #ecea88",
"6. c #efeeaf",
"7. c #cbccd6",
"8. c #dfdfc2",
"9. c #dedee7",
"0. c #e9e8d4",
"q. c #f1efce",
"w. c #f6f5d7",
"e. c #e8e7ea",
"r. c #efeef3",
"t. c #f4f4e8",
"y. c #faf9fb",
"u. c None",
"u.u.u.u.u.u.u.u.u.u.u.u.u.u.u.u.u.u.u.u.u.u.u.u.u.u.u.u.u.u.u.u.u.u.u.u.u.u.u.u.u.u.",
"u.u.u.u.u.u.u.u.u.u.u.u.u.u.u.u.u.u.u.u.u.u.u.u.u.u.u.u.u.u.u.u.u.u.u.u.u.u.u.u.u.u.",
"u.u.u.u.u.u.u.u.u.u.u.u.u.u.u.u.u.u.u.u.u.u.u.u.u.u.u.u.u.u.u.u.u.u.u.u.u.u.u.u.u.u.",
"u.u.u.u.u.u.u.u.u.u.u.u.u.u.u.u.u.u.u.u.u.u.u.u.u.u.u.u.u.u.u.u.u.u.u.u.u.u.u.u.u.u.",
"u.u.u.u.u.u.u.u.u.u.u.u.u.u.u.u.u.u.u.u.u.u.u.u.u.u.u.u.u.u.u.u.u.u.u.u.u.u.u.u.u.u.",
"u.u.u.u.u.u.u.u.u.u.u.u.u.u.u.u.u.u.u.u.u.u.u.u.u.u.u.u.u.u.u.u.u.u.u.u.u.u.u.u.u.u.",
"u.u.u.u.u.u.u.u.u.u.u.u.u.u.u.u.u.u.u.u.u.u.u.u.u.u.u.u.u.u.u.u.u.u.u.u.u.u.u.u.u.u.",
"u.u.u.u.u.u.u.u.u.u.u.u.u.u.u.u.u.u.u.u.u.u.u.u.u.u.u.u.u.u.u.u.u.u.u.u.u.u.u.u.u.u.",
"u.u.u.u.u.u.u.u.u.u.u.u.u.u.u.u.u.2.,.>.L K u.u.u.u.u.u.u.u.u.u.u.u.u.u.u.u.u.u.u.u.",
"u.u.u.u.u.u.u.u.u.u.u.u.u.u.u.D R E E R A V H H ;.u.u.u.u.u.u.u.u.u.u.u.u.u.u.u.u.u.",
"u.u.u.u.u.u.u.u.u.u.u.u.u...! Q Q Q Q E R A Z n B ;.u.u.u.u.u.u.u.u.u.u.u.u.u.u.u.u.",
"u.u.u.u.u.u.u.u.u.u.u.u.O.! ] ] [ [ ] Q E R ^ <.O.N , J u.2.,.<.@.+.o.,.u.u.u.u.u.u.",
"u.u.u.u.u.u.u.u.u.u.u.O.! ] &.w.w.&.[ _ E ~ 1.t.t.,.N G u.o.[ [ [ [ [ +.u.u.u.u.u.u.",
"u.u.u.u.u.u.u.u.u.u.>.( ] $.q.y.y.w.&.] Q +.t.y.y.r.-., n ! [ [ [ [ [ +.u.u.u.u.u.u.",
"u.u.u.u.u.2.2.2.u.,./ _ [ 5.y.y.y.y.6. .! 1.y.y.y.y.4.M > A [ [ [ [ [ X.u.u.u.u.u.u.",
"u.u.<.| [ [ [ #.>...Q ]  .6.y.y.y.y.t.%.) 6.y.y.y.y.e.J = v ! [ [ [ [ X.u.u.u.u.u.u.",
"u.u.<.[ [ [ [ [ ] E Q ]  .w.y.y.y.y.y.6.) w.y.y.y.y.y.3.* = n [ [ [ [ ) u.u.u.u.u.u.",
"u.,.| [ [ [ [ [ ! E E _  .y.y.y.y.e.y.q.~ y.e.8 y.y.y.0.* * n [ [ [ @.<.u.u.u.u.u.u.",
"u.2.[ [ [ [ [ [ E R E Q | y.y.y.e.+ 7.t.P r.5 O 4 y.y.e.% % v [ [ +.u.u.u.u.u.u.u.u.",
"u.u.[ [ [ [ [ [ Q R R E Q y.y.y.o o o t.Z 0.O o o r.y.3.% X e ] [ u.u.u.u.u.u.u.u.u.",
"u.u.,.[ [ [ [ [ Q A R R R q.y.y.@ o o 4.C >.+ o o 9.y.G % X > ! [ 2.u.u.u.u.u.u.u.u.",
"u.u.u.| [ [ [ [ Q A A A A 1.t.y.# o # -.m N *.@ *.r.y.1 X X ; W [ ,.u.u.u.u.u.u.u.u.",
"u.u.u.2. .[ [ [ Q Z V Z Z ..q.y.y.3 7.K b 6 -.:.e.y.3.- X X > W [ <.u.u.u.u.u.u.u.u.",
"u.u.u.u.u.X.[ [ ! Z n n n V <.t.y.y.4.N > ; 7 =.8.3.1 X . X V [ [ @.u.u.u.u.u.u.u.u.",
"u.u.u.u.u.u.o.[ [ A n b b b m D 6.8.F > ; ; = M S < $ . . % D #.#.@.u.u.u.u.u.u.u.u.",
"u.u.u.u.u.u.+.[ [ R n v v v v n V b e e w w t u g w X . . 2 u.u.u.u.u.u.u.u.u.u.u.u.",
"u.u.u.u.u.u.@. .' ^ S v > ; > i k f k d g g k z k d a t p u.u.u.u.u.u.u.u.u.u.u.u.u.",
"u.u.u.u.u.u.u.u.u.u.;.F > w g d k z I z x I U Y h a f d u.=.u.u.u.u.u.u.u.u.u.u.u.u.",
"u.u.u.u.u.u.u.u.u.> F F r u f d j _ ` ` ` Y U I g d d u > u.u.u.u.u.u.u.u.u.u.u.u.u.",
"u.u.u.u.u.u.u.u.> > > > > r y f f d d k l l k d s 0 r > > > u.u.u.u.u.u.u.u.u.u.u.u.",
"u.u.u.u.u.u.u.u.> > > > > > e : w g a q q q 9 T c p > > > > > u.u.u.u.u.u.u.u.u.u.u.",
"u.u.u.u.u.u.u.> > > > > u.:.:.;.u.u.= & & - - u.u.u.u.> > > > > u.u.u.u.u.u.u.u.u.u.",
"u.u.u.u.u.u.u.> > > > u.u.u.u.u.u.u.u.u.u.u.u.u.u.u.u.u.> > > > u.u.u.u.u.u.u.u.u.u.",
"u.u.u.u.u.u.u.> > > > u.u.u.u.u.u.u.u.u.u.u.u.u.u.u.u.u.u.> > > u.u.u.u.u.u.u.u.u.u.",
"u.u.u.u.u.u.u.> > > > u.u.u.u.u.u.u.u.u.u.u.u.u.u.u.u.u.u.> > > u.u.u.u.u.u.u.u.u.u.",
"u.u.u.u.u.u.u.> > > > > u.u.u.u.u.u.u.u.u.u.u.u.u.u.u.u.> > > > u.u.u.u.u.u.u.u.u.u.",
"u.u.u.u.u.u.u.u.> > , > > > u.u.u.u.u.u.u.u.u.u.u.u.u.> > > > > u.u.u.u.u.u.u.u.u.u.",
"u.u.u.u.u.u.u.u.H , > > > > > u.u.u.u.u.u.u.u.u.u.u.> > > > > > > L { u.u.u.u.u.u.u.",
"u.u.u.u.u.u.} { { } / < > > > u.u.u.u.u.u.u.u.u.u., > > > > , < K { { { u.u.u.u.u.u.",
"u.u.u.u.u.[ [ [ } [ [ [ [ H F u.u.u.u.u.u.u.u.u.u.b > M ) [ [ [ } { { { u.u.u.u.u.u.",
"u.u.u.u.u.{ { { { { } [ [ [ { u.u.u.u.u.u.u.u.u.u.[ { { { { [ [ } } { { u.u.u.u.u.u.",
"u.u.u.u.u.u.} { { { { { } { { u.u.u.u.u.u.u.u.u.u.[ { } { { { { { { { u.u.u.u.u.u.u."
};
