/* XPM */
static char *yellow_ball_jump23[] = {
"42 42 126 2",
"   c #000000",
".  c #332e00",
"X  c #383501",
"o  c #0c1449",
"O  c #262d58",
"+  c #453e06",
"@  c #494702",
"#  c #494810",
"$  c #504e00",
"%  c #5c5902",
"&  c #5d5e2d",
"*  c #635706",
"=  c #784b0e",
"-  c #6e4f3f",
";  c #605d2c",
":  c #6a6502",
">  c #766b04",
",  c #7c7c01",
"<  c #777616",
"1  c #716933",
"2  c #7d7c25",
"3  c #4b5179",
"4  c #4d537a",
"5  c #757544",
"6  c #676b8e",
"7  c #7f8038",
"8  c #8e391a",
"9  c #ae3c24",
"0  c #944d18",
"q  c #8f6e0b",
"w  c #aa571b",
"e  c #b54923",
"r  c #a26115",
"t  c #c73d32",
"y  c #dc3a33",
"u  c #e23c34",
"i  c #c64a2c",
"p  c #d6472d",
"a  c #de4231",
"s  c #d36227",
"d  c #e54733",
"f  c #e0562e",
"g  c #e75430",
"h  c #ea7329",
"j  c #878605",
"k  c #88861a",
"l  c #8f9112",
"z  c #938e06",
"x  c #999805",
"c  c #9a9a1b",
"v  c #8b8b32",
"b  c #a19f02",
"n  c #a9a707",
"m  c #b0ae03",
"M  c #b9b708",
"N  c #b0b11e",
"B  c #adae33",
"V  c #868554",
"C  c #999843",
"Z  c #929172",
"A  c #a7a658",
"S  c #afad50",
"D  c #b9ba42",
"F  c #a3a268",
"G  c #a6a57a",
"H  c #b9b961",
"J  c #b4b37d",
"K  c #bec02b",
"L  c #de981c",
"P  c #c6bb0e",
"I  c #c4bf10",
"U  c #c0be3a",
"Y  c #eb8c23",
"T  c #eda41e",
"R  c #efbc19",
"E  c #c1bf48",
"W  c #cac805",
"Q  c #cac817",
"!  c #d1ce0a",
"~  c #d2cf11",
"^  c #d9d608",
"/  c #dbd814",
"(  c #d2d035",
")  c #efca15",
"_  c #e2de0a",
"`  c #e2de14",
"'  c #e3df3f",
"]  c #e8e40b",
"[  c #eee916",
"{  c #f4ef0e",
"}  c #f1ec11",
"|  c #eae526",
" . c #e5e237",
".. c #d0ce41",
"X. c #d2d049",
"o. c #ddda55",
"O. c #d1cf6b",
"+. c #d7d675",
"@. c #e0dd46",
"#. c #eeeb57",
"$. c #f3ef71",
"%. c #989a8f",
"&. c #8588a4",
"*. c #aaa986",
"=. c #b6b591",
"-. c #bbbaa1",
";. c #b4b6c8",
":. c #cac986",
">. c #cbca97",
",. c #dada84",
"<. c #d4d398",
"1. c #c5c4a6",
"2. c #d4d3b7",
"3. c #e4e28b",
"4. c #f5f391",
"5. c #e9e8b1",
"6. c #c1c3d1",
"7. c #d6d6d2",
"8. c #dadae4",
"9. c #eae9c7",
"0. c #e2e2d6",
"q. c #f6f5cc",
"w. c #eae9ed",
"e. c #f7f6e8",
"r. c #faf9fb",
"t. c None",
"t.t.t.t.t.t.t.t.t.t.t.t.t.t.t.t.t.t.t.t.t.t.t.t.t.t.t.t.t.t.t.t.t.t.t.t.t.t.t.t.t.t.",
"t.t.t.t.t.t.t.t.t.t.t.t.t.t.t.t.t.t.t.t.t.t.t.t.t.t.t.t.t.t.t.t.t.t.t.t.t.t.t.t.t.t.",
"t.t.t.t.t.t.t.t.t.t.t.t.t.t.t.t.t.t.t.t.t.t.t.t.t.t.t.t.t.t.t.t.t.t.t.t.t.t.t.t.t.t.",
"t.t.t.t.t.t.t.t.t.t.t.t.t.t.t.t.t.t.t.t.t.t.t.t.t.t.t.t.t.t.t.t.t.t.t.t.t.t.t.t.t.t.",
"t.t.t.t.t.t.t.t.t.t.t.t.t.t.t.t.t.t.t.t.t.t.t.t.t.t.t.t.t.t.t.t.t.t.t.t.t.t.t.t.t.t.",
"t.t.t.t.t.t.t.t.t.t.t.t.t.t.t.t.t.t.t.t.t.t.t.t.t.t.t.t.t.t.t.t.t.t.t.t.t.t.t.t.t.t.",
"t.t.t.t.t.t.t.t.t.t.t.t.t.t.t.t.t.t.t.t.t.t.t.t.t.t.t.t.t.t.t.t.t.t.t.t.t.t.t.t.t.t.",
"t.t.t.t.t.t.t.t.t.t.t.t.t.t.t.t.t.t.t.t.t.t.t.t.t.t.t.t.t.t.t.t.t.t.t.t.t.t.t.t.t.t.",
"t.t.t.t.t.t.t.t.t.t.t.t.t.t.t.1.O.B z J A =.t.t.t.t.t.t.t.t.[ [ [ [ t.t.t.t.t.t.t.t.",
"t.t.t.t.t.t.t.t.t.t.t.t.t.X.Q ! W W M m b c A *.G t.t.:.o.[ [ [ | [ t.t.t.t.t.t.t.t.",
"t.t.t.t.t.t.t.t.t.t.t.t.U ! ^ ^ ^ ! W M E <.H k < t.1.| [ [ [ [ [ [ t.t.t.t.t.t.t.t.",
"t.t.t.t.t.t.t.t.t.t.:.~ ^ _ ] ] _ ^ W Q 5.r.r.<.k 2 M ` [ [ [ [ [ [ t.t.t.t.t.t.t.t.",
"t.t.t.t.t.t.t.t.t.t..._ | $.4.[ ] ^ ! +.e.r.r.r.=.< j M [ [ [ [ [ [ t.t.t.t.t.t.t.t.",
"t.t.t.t.t.t.t.t.t.:./ ] 4.r.e.q.#.` ~ 3.r.r.r.r.0.F % , I [ [ [ [ [ t.t.t.t.t.t.t.t.",
"t.t.t.t.t.t.t.t.t.( ] #.e.r.r.r.5.#./ 3.r.r.r.r.r.0.% $ j / [ [ [ [ t.t.t.t.t.t.t.t.",
"t.t.t.t.t.t.t.t.O.^ [ $.r.r.r.r.r.5.! 5.r.r.r.r.r.r.V @ > I [ | [ t.t.t.t.t.t.t.t.t.",
"t.t.t.t.t.1.t.1.~ ^ ] 4.r.r.r.r.r.e.X.5.r.;.;.r.r.r.*.@ % n [ ' [ t.t.t.t.t.t.t.t.t.",
"t.t.>.O. .[ +.X.^ ^ ] 4.r.r.r.r.r.r.,.+.w.6 O 4 r.r.-.@ @ j [ [ [ t.t.t.t.t.t.t.t.t.",
"t. .[ [ [ [ [ ^ ! ^ ] $.r.r.r.6.3 6.9.K 7.o o o r.r.*.# X > ~ [ t.t.t.t.t.t.t.t.t.t.",
"t.o.[ [ [ [ [ ^ W ^ ^  .r.r.r.3 o o 0.N <.O o o ;.r.Z + X % M [ o.t.t.t.t.t.t.t.t.t.",
">.| [ [ [ [ [ ^ W W ^ ^ q.r.r.3 o o %.D B 5 4 6 r.w.Z X X % ~ [ | t.t.t.t.t.t.t.t.t.",
"t.[ [ [ [ [ [ ^ W W W W 3.e.r.&.o O %.B j C t.8.r.2.; X . $ / [ | t.t.t.t.t.t.t.t.t.",
"t.@.[ [ [ [ [ / W M M M ( 5.r.w.;.4 9.l , > v =.5.V + . . 1 t.t.t.t.t.t.t.t.t.t.t.t.",
"t.1.+.[ [ [ [ ] W m m m m D e.r.r.r.=.j > : % k z * X . X Z t.t.t.t.t.t.t.t.t.t.t.t.",
"t.t.>.' [ [ [ [ ! n b n b x H ,.9.2.v > : = 0 i d e 8 9 1 -.t.t.t.t.t.t.t.t.t.t.t.t.",
"t.t.t.t.+. .[ [ ` M x z z z j x N z r w e t d h g y u u i t.t.t.t.t.t.t.t.t.t.t.t.t.",
"t.t.t.t.t.1.O.[ [ ~ x j j , , q s u g u p f Y ) P i y e q t.t.t.t.t.t.t.t.t.t.t.t.t.",
"t.t.t.t.t.t.>.[ [ ] n j > > > w a d T T ) } R Y p y t r t.t.t.t.t.t.t.t.t.t.t.t.t.t.",
"t.t.t.t.t.t.t.@.O.>.n A k > e u a L ) T h h g u y t , , , t.t.t.t.t.t.t.t.t.t.t.t.t.",
"t.t.t.t.t.t.t.t.G F C F v q p p u u y y y u 9 8 , , , , , , t.t.t.t.t.t.t.t.t.t.t.t.",
"t.t.t.t.t.t.t.t.j k , , , , t.q 0 0 i e = + # & - > , , , , , t.t.t.t.t.t.t.t.t.t.t.",
"t.t.t.t.t.t.t., , , , , t.t.t.*.7 t.t.V 5 t.t.t.t.t.t., , , , , t.t.t.t.t.t.t.t.t.t.",
"t.t.t.t.t.t.t., , , , t.t.t.t.t.t.t.t.t.t.t.t.t.t.t.t.t., , , , t.t.t.t.t.t.t.t.t.t.",
"t.t.t.t.t.t.t., , , , t.t.t.t.t.t.t.t.t.t.t.t.t.t.t.t.t.t., , , t.t.t.t.t.t.t.t.t.t.",
"t.t.t.t.t.t.t., , , , t.t.t.t.t.t.t.t.t.t.t.t.t.t.t.t.t.t., , , t.t.t.t.t.t.t.t.t.t.",
"t.t.t.t.t.t.t., , , , , t.t.t.t.t.t.t.t.t.t.t.t.t.t.t.t., , , , t.t.t.t.t.t.t.t.t.t.",
"t.t.t.t.t.t.t.t., , < , , , t.t.t.t.t.t.t.t.t.t.t.t.t., , , , , t.t.t.t.t.t.t.t.t.t.",
"t.t.t.t.t.t.t.t.S < , , , , , t.t.t.t.t.t.t.t.t.t.t., , , , , , , J { t.t.t.t.t.t.t.",
"t.t.t.t.t.t.} { { } ( 1 , , , t.t.t.t.t.t.t.t.t.t.< , , , , < 2 S { { { t.t.t.t.t.t.",
"t.t.t.t.t.[ [ [ } [ [ [ [ A C t.t.t.t.t.t.t.t.t.t.j , v ( [ [ [ } { { { t.t.t.t.t.t.",
"t.t.t.t.t.{ { { { { } [ [ [ { t.t.t.t.t.t.t.t.t.t.[ { { { { [ [ } } { { t.t.t.t.t.t.",
"t.t.t.t.t.t.} { { { { { } { { t.t.t.t.t.t.t.t.t.t.[ { } { { { { { { { t.t.t.t.t.t.t."
};
