/* XPM */
static char *yellow_ball_jump21[] = {
"42 42 126 2",
"   c #000000",
".  c #322d00",
"X  c #393601",
"o  c #0c1449",
"O  c #161d50",
"+  c #192153",
"@  c #333957",
"#  c #5d3c0a",
"$  c #68330f",
"%  c #4b4908",
"&  c #534f00",
"*  c #504b1a",
"=  c #585601",
"-  c #695a07",
";  c #754210",
":  c #615d2c",
">  c #696704",
",  c #726d01",
"<  c #7c7c01",
"1  c #787715",
"2  c #66642e",
"3  c #716f31",
"4  c #7e7c53",
"5  c #565b80",
"6  c #6c7091",
"7  c #7e8107",
"8  c #953c1d",
"9  c #935317",
"0  c #8f720a",
"q  c #a75918",
"w  c #b34224",
"e  c #a57613",
"r  c #db3b32",
"t  c #e23b35",
"y  c #c9442b",
"u  c #d4472d",
"i  c #df4232",
"p  c #d35430",
"a  c #c67e1b",
"s  c #e64b31",
"d  c #e65430",
"f  c #e66a2a",
"g  c #898805",
"h  c #999804",
"j  c #919015",
"k  c #898820",
"l  c #8d8c2a",
"z  c #ad8c10",
"x  c #a9a704",
"c  c #adab18",
"v  c #b9b606",
"b  c #b2b218",
"n  c #a3a327",
"m  c #b0ae2b",
"M  c #969555",
"N  c #a09f4d",
"B  c #a4a357",
"V  c #b5b453",
"C  c #a5a763",
"Z  c #b2af6f",
"A  c #b6b576",
"S  c #c1bf04",
"D  c #ec9821",
"F  c #eda61d",
"G  c #edbf18",
"H  c #c9c706",
"J  c #c9c71f",
"K  c #d1ce06",
"L  c #d1cd11",
"P  c #d9d608",
"I  c #dad613",
"U  c #c6c432",
"Y  c #d4d425",
"T  c #d7d538",
"R  c #e3dc11",
"E  c #f1ca16",
"W  c #e8e40a",
"Q  c #eee816",
"!  c #f4ef0e",
"~  c #f1ec11",
"^  c #e9e428",
"/  c #e8e436",
"(  c #cbcb44",
")  c #c6c556",
"_  c #d6d548",
"`  c #d9d755",
"'  c #c7c66e",
"]  c #c8c87a",
"[  c #d0ce7e",
"{  c #d8d565",
"}  c #d3d17a",
"|  c #e1dd46",
" . c #eae647",
".. c #f2ef4d",
"X. c #f2ef5c",
"o. c #f2ef6f",
"O. c #858998",
"+. c #8a8da8",
"@. c #9194ad",
"#. c #989ab2",
"$. c #b5b491",
"%. c #abadbb",
"&. c #b6b7a8",
"*. c #b5b6c8",
"=. c #c0bf95",
"-. c #cdcc8c",
";. c #cac998",
":. c #d1cf82",
">. c #d0cf99",
",. c #dbdb97",
"<. c #c7c6a4",
"1. c #d0cfbd",
"2. c #d5d5a1",
"3. c #ebe990",
"4. c #f2ef8d",
"5. c #e9e8ba",
"6. c #f1f0aa",
"7. c #cfcfcd",
"8. c #d6d6d5",
"9. c #dcdce6",
"0. c #f4f3d4",
"q. c #edece5",
"w. c #ecebf1",
"e. c #f8f7eb",
"r. c #faf9fc",
"t. c None",
"t.t.t.t.t.t.t.t.t.t.t.t.t.t.t.t.t.t.t.t.t.t.t.t.t.t.t.t.t.t.t.t.t.t.t.t.t.t.t.t.t.t.",
"t.t.t.t.t.t.t.t.t.t.t.t.t.t.t.t.t.t.t.t.t.t.t.t.t.t.t.t.t.t.t.t.t.t.t.t.t.t.t.t.t.t.",
"t.t.t.t.t.t.t.t.t.t.t.t.t.t.t.t.t.t.t.t.t.t.t.t.t.t.t.t.t.t.t.t.t.t.t.t.t.t.t.t.t.t.",
"t.t.t.t.t.t.t.t.t.t.t.t.t.t.t.t.t.t.t.t.t.t.t.t.t.t.t.t.t.t.t.t.t.t.t.t.t.t.t.t.t.t.",
"t.t.t.t.t.t.t.t.t.t.t.t.t.t.t.t.t.t.t.t.t.t.t.t.t.t.<.<.t.t.t.t.t.t.t.t.t.t.t.t.t.t.",
"t.t.t.t.t.t.t.t.t.t.t.t.t.t.t.t.t.t.t.t.t.t.t.t.t.{ Q | t.t.t.t.t.t.t.t.t.t.t.t.t.t.",
"t.t.t.t.t.t.t.t.t.t.t.t.t.t.t.t.t.t.t.t.t.t.t.:.^ Q Q Q :.t.t.t.t.t.t.t.t.t.t.t.t.t.",
"t.t.t.t.t.t.t.t.t.t.t.t.t.&.t.&.$.t.t.&.t.t.` Q Q Q Q Q ^ t.t.t.t.t.t.t.t.t.t.t.t.t.",
"t.t.t.t.t.t.t.t.t.t.t.t.V h m h n j B > $.t.T Q Q Q Q Q Q { t.t.t.t.t.t.t.t.t.t.t.t.",
"t.t.t.t.t.t.t.t.t.t.] J H v v x ) >.A N 1 1 v I Q Q Q Q Q ^ t.t.t.t.t.t.t.t.t.t.t.t.",
"t.t.t.t.t.t.t.t.=.U K P P K H U 5.r.r.q.B 1 , h L Q Q Q / <.t.t.t.t.t.t.t.t.t.t.t.t.",
"t.t.t.t.t.t.t.t.b K P P P P H _ e.r.r.r.q.$.- = < v Q Q | t.t.t.t.t.t.t.t.t.t.t.t.t.",
"t.t.t.t.t.t.t.' I P W W W P K ` r.r.r.r.r.q.$.& = g I Q } t.t.t.t.t.t.t.t.t.t.t.t.t.",
"t.t.t.t.t.t.<.P W ..6.4.o.Q P Y 0.r.r.r.r.r.r.3 % > x Q ^ t.t.t.t.t.t.t.t.t.t.t.t.t.",
"t.t.t.t.t.t.' P / 0.r.r.e.4. .T 5.r.r.w.r.r.r.&.% X < L Q { t.t.t.t.t.t.t.t.t.t.t.t.",
"t.t.t.t.t.t.` W X.e.r.r.r.e.5.Y 6.r.*.5 +.r.r.1.2 X = h Q Q ;.t.t.t.t.t.t.t.t.t.t.t.",
"t.t.t.t.t.t.T W X.r.r.r.r.r.e.3.( r.#.o o @.r.8.2 X X , I Q / t.t.t.t.t.t.t.t.t.t.t.",
"t.t.t.t.t.;.P W ..0.r.r.r.r.r.r.( ,.O.o o + w.r.4 X X > Q Q / t.t.t.t.t.t.t.t.t.t.t.",
"t.t.t.t.t.' P W / 0.r.r.r.#.6 #.5.b 2.@ + 6 r.q.M X . % c { t.t.t.t.t.t.t.t.t.t.t.t.",
"t.t.t.;.t.) P P W 6.r.r.r.6 o o &.V n M 8.@.r.7.: X . X t.t.t.t.t.t.t.t.t.t.t.t.t.t.",
"t.-./ Q / P K P P / r.r.r.6 o o @ ' g 7 C $.<.Z % . . * t.t.t.t.t.t.t.t.t.t.t.t.t.t.",
"` Q Q Q Q R K K P P 3.r.r.9.o O +.] g < > = n e ; $ 9 9 t.t.t.t.t.t.t.t.t.t.t.t.t.t.",
"Q Q Q Q Q P K H K K L 5.e.r.7.*.%.>.7 , - - t t t t t u t.t.t.t.t.t.t.t.t.t.t.t.t.t.",
"^ Q Q Q Q Q K S H H S ( ,.r.r.r.q.B , > t t f f p t r % t.t.t.t.t.t.t.t.t.t.t.t.t.t.",
"Q Q Q Q Q Q I H v v v x b [ ,.3.2.k 9 t y i D R a t y t.t.t.t.t.t.t.t.t.t.t.t.t.t.t.",
"^ Q Q Q Q Q Q K v x x h h h g c z t t i f G E f r t % t.t.t.t.t.t.t.t.t.t.t.t.t.t.t.",
"[ ` Q Q Q Q Q R H x h h g g < 0 t s D F ~ F d t t # < t.t.t.t.t.t.t.t.t.t.t.t.t.t.t.",
"t.t.` / Q Q Q Q R v h g < < , q t f Q F d d t 8 # # < < t.t.t.t.t.t.t.t.t.t.t.t.t.t.",
"t.t.t.t.-.{ _ Q Q R x g < , 9 r t u d t r t # # # < < < < t.t.t.t.t.t.t.t.t.t.t.t.t.",
"t.t.t.t.t.t.t.^ Q Q Q , , < q u u r w p % % # # < < < < < < t.t.t.t.t.t.t.t.t.t.t.t.",
"t.t.t.t.t.t.t.} Q Q k , , < 0 0 0 > % % % t.t.t.t., < < < < < t.t.t.t.t.t.t.t.t.t.t.",
"t.t.t.t.t.t.t.k k g < < t.t.t.t.t.t.t.t.t.t.t.t.t.t.t.< < < < < t.t.t.t.t.t.t.t.t.t.",
"t.t.t.t.t.t.t.< < < < t.t.t.t.t.t.t.t.t.t.t.t.t.t.t.t.t.< < < < t.t.t.t.t.t.t.t.t.t.",
"t.t.t.t.t.t.t.< < < < t.t.t.t.t.t.t.t.t.t.t.t.t.t.t.t.t.t.< < < t.t.t.t.t.t.t.t.t.t.",
"t.t.t.t.t.t.t.< < < < t.t.t.t.t.t.t.t.t.t.t.t.t.t.t.t.t.t.< < < t.t.t.t.t.t.t.t.t.t.",
"t.t.t.t.t.t.t.< < < < < t.t.t.t.t.t.t.t.t.t.t.t.t.t.t.t.< < < < t.t.t.t.t.t.t.t.t.t.",
"t.t.t.t.t.t.t.t.< < 1 < < < t.t.t.t.t.t.t.t.t.t.t.t.t.< < < < < t.t.t.t.t.t.t.t.t.t.",
"t.t.t.t.t.t.t.t.N 1 < < < < < t.t.t.t.t.t.t.t.t.t.t.< < < < < < < A ! t.t.t.t.t.t.t.",
"t.t.t.t.t.t.~ ! ! ~ T 2 < < < t.t.t.t.t.t.t.t.t.t.1 < < < < 1 1 V ! ! ! t.t.t.t.t.t.",
"t.t.t.t.t.Q Q Q ~ Q Q Q Q B N t.t.t.t.t.t.t.t.t.t.g < l T Q Q Q ~ ! ! ! t.t.t.t.t.t.",
"t.t.t.t.t.! ! ! ! ! ~ Q Q Q ! t.t.t.t.t.t.t.t.t.t.Q ! ! ! ! Q Q ~ ~ ! ! t.t.t.t.t.t.",
"t.t.t.t.t.t.~ ! ! ! ! ! ~ ! ! t.t.t.t.t.t.t.t.t.t.Q ! ~ ! ! ! ! ! ! ! t.t.t.t.t.t.t."
};
