/* XPM */
static char * blue_jump4_xpm[] = {
"54 54 457 2",
"  	c None",
". 	c #B5B6C9",
"+ 	c #9D9EC5",
"@ 	c #898CC3",
"# 	c #7B80C1",
"$ 	c #7176BF",
"% 	c #6A70BE",
"& 	c #656BBD",
"* 	c #676DBD",
"= 	c #6D73BD",
"- 	c #777CBD",
"; 	c #8486BE",
"> 	c #979AC1",
", 	c #B1B2C5",
"' 	c #9093C4",
") 	c #7378C1",
"! 	c #6B71C1",
"~ 	c #6D73C1",
"{ 	c #6C72C0",
"] 	c #696FBF",
"^ 	c #666CBE",
"/ 	c #6569BD",
"( 	c #6167BB",
"_ 	c #5F65B9",
": 	c #676DB9",
"< 	c #8689BC",
"[ 	c #AEAFC4",
"} 	c #AEAFC8",
"| 	c #8389C1",
"1 	c #6E74C2",
"2 	c #6F75C3",
"3 	c #7278C4",
"4 	c #7177C5",
"5 	c #7276C4",
"6 	c #6A6EC0",
"7 	c #686EBE",
"8 	c #646ABC",
"9 	c #6268BA",
"0 	c #5E64B8",
"a 	c #5A60B6",
"b 	c #7478B6",
"c 	c #A3A4BD",
"d 	c #BEBECA",
"e 	c #898DC3",
"f 	c #7479C4",
"g 	c #767BC6",
"h 	c #797EC7",
"i 	c #787DC8",
"j 	c #777CC7",
"k 	c #757AC5",
"l 	c #6C70C2",
"m 	c #686EC0",
"n 	c #666ABE",
"o 	c #6369BB",
"p 	c #565DB4",
"q 	c #777BB3",
"r 	c #B2B2BE",
"s 	c #A4A6C6",
"t 	c #6F75C1",
"u 	c #7B80C9",
"v 	c #7D82C9",
"w 	c #7C81CA",
"x 	c #7D83CB",
"y 	c #7D82CB",
"z 	c #7278C6",
"A 	c #6A70C0",
"B 	c #5B62B7",
"C 	c #555BB1",
"D 	c #8F93B3",
"E 	c #9296C4",
"F 	c #7F84CB",
"G 	c #8085CC",
"H 	c #8285CE",
"I 	c #8489CE",
"J 	c #8386CF",
"K 	c #8388CD",
"L 	c #5057B2",
"M 	c #7A7EAE",
"N 	c #BCBCBC",
"O 	c #7177C3",
"P 	c #868BD0",
"Q 	c #898CD1",
"R 	c #898ED1",
"S 	c #8A8FD2",
"T 	c #8990D1",
"U 	c #888DD0",
"V 	c #7276C6",
"W 	c #6269BC",
"X 	c #5D64B9",
"Y 	c #585FB6",
"Z 	c #535AB3",
"` 	c #4E55B2",
" .	c #6E71AA",
"..	c #B7B7B7",
"+.	c #888CC2",
"@.	c #7C7FCA",
"#.	c #8B90D3",
"$.	c #8E93D4",
"%.	c #8F94D5",
"&.	c #9095D6",
"*.	c #858ACF",
"=.	c #5157B1",
"-.	c #4A51B0",
";.	c #6D6FA7",
">.	c #B3B3B3",
",.	c #9195C3",
"'.	c #7F86CB",
").	c #878CD1",
"!.	c #8C91D2",
"~.	c #9296D6",
"{.	c #9398D7",
"].	c #9498D8",
"^.	c #969AD8",
"/.	c #959AD9",
"(.	c #9399D7",
"_.	c #9196D5",
":.	c #555BB3",
"<.	c #474FAF",
"[.	c #7274A4",
"}.	c #A1A6C5",
"|.	c #7C81C8",
"1.	c #8F95D5",
"2.	c #9497D8",
"3.	c #989EDA",
"4.	c #9B9FDB",
"5.	c #9CA0DC",
"6.	c #989CDA",
"7.	c #979BD9",
"8.	c #8D92D3",
"9.	c #7A7FC8",
"0.	c #5C63B8",
"a.	c #565FB4",
"b.	c #5259B2",
"c.	c #4A51B2",
"d.	c #444CAE",
"e.	c #7E80A0",
"f.	c #BDBEC9",
"g.	c #686EBC",
"h.	c #7076C2",
"i.	c #8287CE",
"j.	c #9FA3DD",
"k.	c #A1A4DF",
"l.	c #A2A6E0",
"m.	c #A1A5DF",
"n.	c #9EA2DE",
"o.	c #888ED0",
"p.	c #7D85CB",
"q.	c #747BC4",
"r.	c #6369BD",
"s.	c #4B52B1",
"t.	c #464EAE",
"u.	c #434BAB",
"v.	c #90929C",
"w.	c #8388C1",
"x.	c #9DA1DD",
"y.	c #A3A7E1",
"z.	c #A6A9E2",
"A.	c #A7AAE3",
"B.	c #A9ADE3",
"C.	c #A8ADE2",
"D.	c #A6AAE2",
"E.	c #9A9EDA",
"F.	c #8B8ED3",
"G.	c #8186CD",
"H.	c #757AC7",
"I.	c #484FB0",
"J.	c #424AAC",
"K.	c #5F639F",
"L.	c #9F9F9F",
"M.	c #ACAEC6",
"N.	c #A8ABE4",
"O.	c #ABB0E5",
"P.	c #AEB2E6",
"Q.	c #ADB2E7",
"R.	c #A9AEE3",
"S.	c #8A8DD2",
"T.	c #575EB5",
"U.	c #4950B1",
"V.	c #444CAC",
"W.	c #3E46AA",
"X.	c #7B7D93",
"Y.	c #A9A9A9",
"Z.	c #7B7FBD",
"`.	c #7076C4",
" +	c #7379C7",
".+	c #878CCF",
"++	c #9295D6",
"@+	c #A5AAE1",
"#+	c #AAAEE4",
"$+	c #AFB3E7",
"%+	c #B2B7E8",
"&+	c #B2B6EA",
"*+	c #B1B5E9",
"=+	c #A9ACE5",
"-+	c #A5A9E1",
";+	c #9197D5",
">+	c #595FB5",
",+	c #545AB2",
"'+	c #454DAD",
")+	c #575C9D",
"!+	c #949494",
"~+	c #B6B6B6",
"{+	c #B1B3C7",
"]+	c #6167B9",
"^+	c #8188CD",
"/+	c #A4A8E0",
"(+	c #B4B8EC",
"_+	c #B7BBED",
":+	c #B7BCED",
"<+	c #B5B9EB",
"[+	c #B1B7E9",
"}+	c #999DDB",
"|+	c #8D93D3",
"1+	c #6066BA",
"2+	c #4C53B2",
"3+	c #4048AC",
"4+	c #3941A7",
"5+	c #797B8B",
"6+	c #A3A3A3",
"7+	c #8A8DBE",
"8+	c #7175C5",
"9+	c #B8BCEE",
"0+	c #BCBFF0",
"a+	c #BFC3F1",
"b+	c #BCC0F0",
"c+	c #B9BDEF",
"d+	c #A0A4DE",
"e+	c #9A9DDC",
"f+	c #5C62B6",
"g+	c #464DB0",
"h+	c #3A42A8",
"i+	c #5F6395",
"j+	c #919191",
"k+	c #B5B5B5",
"l+	c #A7ABE3",
"m+	c #B0B4EA",
"n+	c #C1C5F3",
"o+	c #C4C8F4",
"p+	c #C1C6F3",
"q+	c #BDC1F1",
"r+	c #4149AB",
"s+	c #4047A2",
"t+	c #818181",
"u+	c #A6A6A6",
"v+	c #B0B2C6",
"w+	c #B3B6EB",
"x+	c #BDC0F1",
"y+	c #C5C8F5",
"z+	c #CACEF8",
"A+	c #8B90D1",
"B+	c #3B43A9",
"C+	c #353DA5",
"D+	c #727484",
"E+	c #989898",
"F+	c #BABABA",
"G+	c #9497C0",
"H+	c #A2A5E0",
"I+	c #A1A7DF",
"J+	c #65678B",
"K+	c #8A8A8A",
"L+	c #B1B1B1",
"M+	c #7F83BB",
"N+	c #A0A6DE",
"O+	c #B2B6E8",
"P+	c #BABEEE",
"Q+	c #BBBFF1",
"R+	c #B8BDEE",
"S+	c #B1B3E9",
"T+	c #ACB0E6",
"U+	c #9FA3DF",
"V+	c #9A9EDC",
"W+	c #545BB4",
"X+	c #4048AA",
"Y+	c #3B43A7",
"Z+	c #555895",
"`+	c #808080",
" @	c #A7A7A7",
".@	c #6C71B8",
"+@	c #9FA5DD",
"@@	c #A8ACE4",
"#@	c #B0B3EA",
"$@	c #AAADE4",
"%@	c #343CA4",
"&@	c #464C9A",
"*@	c #797979",
"=@	c #9C9C9C",
"-@	c #BEBEBE",
";@	c #5E66B4",
">@	c #B2B8EA",
",@	c #7175C3",
"'@	c #454CAF",
")@	c #333BA3",
"!@	c #39409D",
"~@	c #757575",
"{@	c #B9B9B9",
"]@	c #545DB2",
"^@	c #9297D8",
"/@	c #9EA2DC",
"(@	c #434BAD",
"_@	c #3840A6",
":@	c #323AA4",
"<@	c #2F37A1",
"[@	c #717171",
"}@	c #8E8E8E",
"|@	c #555EB3",
"1@	c #999CDB",
"2@	c #8184CD",
"3@	c #3C44A8",
"4@	c #363EA6",
"5@	c #3139A3",
"6@	c #2C35A0",
"7@	c #6E6E6E",
"8@	c #898989",
"9@	c #535AB1",
"0@	c #6B71BF",
"a@	c #7A7DC8",
"b@	c #8C8FD4",
"c@	c #2F37A3",
"d@	c #6D6D6D",
"e@	c #868686",
"f@	c #595FB1",
"g@	c #5D63B7",
"h@	c #3840A8",
"i@	c #2D36A3",
"j@	c #363D9C",
"k@	c #6C6C6C",
"l@	c #858585",
"m@	c #6469B2",
"n@	c #777DC7",
"o@	c #7A7FCA",
"p@	c #5E64BA",
"q@	c #3C44AA",
"r@	c #373FA7",
"s@	c #2C35A2",
"t@	c #404696",
"u@	c #767AB6",
"v@	c #3F47AB",
"w@	c #2A33A0",
"x@	c #4F548F",
"y@	c #8C90BA",
"z@	c #676FBD",
"A@	c #3D45A9",
"B@	c #323AA2",
"C@	c #27309F",
"D@	c #5D5F85",
"E@	c #8D8D8D",
"F@	c #ACAEC2",
"G@	c #676DBF",
"H@	c #6E76C2",
"I@	c #676BBF",
"J@	c #5960B7",
"K@	c #4F56B1",
"L@	c #4953AF",
"M@	c #252E9D",
"N@	c #686978",
"O@	c #4E55AE",
"P@	c #7D80CB",
"Q@	c #6468BC",
"R@	c #373FA5",
"S@	c #30359A",
"T@	c #6A6A6A",
"U@	c #797DB3",
"V@	c #424CAC",
"W@	c #2932A1",
"X@	c #242D9E",
"Y@	c #52568A",
"Z@	c #A8AAC0",
"`@	c #3038A2",
" #	c #2B34A1",
".#	c #262F9E",
"+#	c #212A9B",
"@#	c #676979",
"##	c #707070",
"$#	c #6265AC",
"%#	c #232C9D",
"&#	c #424890",
"*#	c #696969",
"=#	c #767676",
"-#	c #9B9EB9",
";#	c #4A54B0",
">#	c #2E37A2",
",#	c #2831A0",
"'#	c #1F289B",
")#	c #64667A",
"!#	c #666CAA",
"~#	c #3F47A9",
"{#	c #4950AF",
"]#	c #585EB4",
"^#	c #20299A",
"/#	c #474C8D",
"(#	c #747474",
"_#	c #AEAEBC",
":#	c #3A42A6",
"<#	c #575EB3",
"[#	c #212A99",
"}#	c #696B73",
"|#	c #8789AF",
"1#	c #1D2699",
"2#	c #606380",
"3#	c #6E72A6",
"4#	c #4149AD",
"5#	c #29319F",
"6#	c #505688",
"7#	c #878787",
"8#	c #BBBBBB",
"9#	c #5E62A2",
"0#	c #1C2598",
"a#	c #484D8C",
"b#	c #9E9E9E",
"c#	c #5B60A1",
"d#	c #232B9B",
"e#	c #7D7D7D",
"f#	c #999999",
"g#	c #64679E",
"h#	c #333BA5",
"i#	c #1E279A",
"j#	c #1B2497",
"k#	c #505388",
"l#	c #7C7C7C",
"m#	c #969696",
"n#	c #76799C",
"o#	c #2D359F",
"p#	c #3139A1",
"q#	c #222B9C",
"r#	c #1E2696",
"s#	c #5E5F80",
"t#	c #B2B2B2",
"u#	c #8F8F9B",
"v#	c #515697",
"w#	c #2E36A4",
"x#	c #1A2398",
"y#	c #454A8D",
"z#	c #686972",
"A#	c #787B90",
"B#	c #484E96",
"C#	c #28319E",
"D#	c #242D9C",
"E#	c #1A2396",
"F#	c #3F458F",
"G#	c #63657B",
"H#	c #777889",
"I#	c #55598F",
"J#	c #30389A",
"K#	c #222A9A",
"L#	c #283094",
"M#	c #4E538A",
"N#	c #666878",
"O#	c #6F7181",
"P#	c #5F6187",
"Q#	c #4B508F",
"R#	c #3B4193",
"S#	c #2B3397",
"T#	c #212997",
"U#	c #283096",
"V#	c #383E92",
"W#	c #5A5C84",
"X#	c #777777",
"                                                                                                            ",
"                                                                                                            ",
"                                                                                                            ",
"                                                                                                            ",
"                                          . + @ # $ % & * = - ; > ,                                         ",
"                                    . ' ) ! ~ ~ ~ ~ ~ { ] ] ^ / ( _ : < [                                   ",
"                                } | ~ 1 2 3 4 4 4 4 3 5 2 1 ~ 6 7 8 9 0 a b c                               ",
"                            d e ~ 2 3 f g g g h i h j g k f 3 2 l m n o _ a p q r                           ",
"                          s t 1 3 f g i u v w x x y y w u i g z 3 1 A 7 o _ B p C D                         ",
"                        E ! 2 4 g h w F G H I I I J K K G F u i g 4 2 ! 7 o _ a p L M N                     ",
"                      e { O 4 g u y G I P Q R R S R T U P I G F u j V 2 { 7 W X Y Z `  ...                  ",
"                    +.{ 2 4 j @.F I P R #.$.%.&.&.%.%.$.#.R *.I G u j 4 2 { & ( B p =.-.;.>.                ",
"                  ,.] 1 4 j u '.I ).!.$.~.{.].^./.^.].(._.%.!.U I G u j 4 1 ] 8 _ a :.` <.[.>.              ",
"                }.7 ~ 3 g |.G I R #.1.2./.3.4.5.5.5.4.6.7.{._.8.R J G 9.g 3 ~ ^ ( 0.a.b.c.d.e.>.            ",
"              f.g.A h.k i F i.).8.&.].6.5.j.k.l.l.l.m.n.5.6.].&.8.o.I p.i q.h.] r._ a :.s.t.u.v...          ",
"              w.^ ! 3 g u G P !._.].3.x.m.y.z.A.B.C.D.y.m.x.E.^._.F.P G.u H.3 ~ ^ 9 0.p L I.J.K.L.N         ",
"            M.8 ] 1 z i F I S %.{.6.x.l.D.N.O.P.P.Q.O.R.D.l.x.6.{.$.S.I x i z 1 ] W 0 T.=.U.V.W.X.Y.        ",
"            Z./ 6 `. +9.G .+!.++/.5.m.@+#+$+%+&+&+*+*+$+=+-+k.5.7.;+#.P G u g O A & _ >+,+s.'+W.)+!+~+      ",
"          {+]+& { `.g w ^+U $.{.E.n./+#+Q.*+(+_+:+_+<+[+P.#+y.n.}+{.|+U G.w g 3 { * 1+a Z 2+t.3+4+5+6+      ",
"          7+1+^ ~ 8+j w i.R %.].4.m.D.O.*+<+9+0+a+b+c+<+*+O.D.d+e+].%.R I x j 3 ~ ^ ( f+:.2+g+3+h+i+j+k+    ",
"          : 9 7 1 4 j F I S _.7.5.l.l+P.m+_+b+n+o+p+q+_+m+P.l+l.5./._.S.I x h 4 ~ ^ 9 B p ` t.r+h+s+t+u+    ",
"        v+B 1+^ 1 4 j F *.S &./.5.l.B.Q.w+9+x+y+z+o+a+9+&+Q.N.l.5.7.%.A+*.y h 4 ~ ^ ( B :.` <.r+B+C+D+E+F+  ",
"        G+B 1+7 ~ 4 h F I R %./.5.H+A.P.&+_+b+n+y+n+q+_+m+P.A.I+5.7.%.A+I F i 4 ~ * ( B :.` <.3+B+C+J+K+L+  ",
"        M+B 1+^ ~ 4 j x I R %.].4.N+D.O.O+(+P+b+x+Q+R+<+S+T+D.U+V+].%.R K x j 4 ~ ^ 1+B W+2+t.X+Y+C+Z+`+ @  ",
"        .@a 1+& { 3 g w H ).$.{.6.+@/+@@P.#@(+_+9+_+(+[+Q.$@/+n.}+(.$.o.K u g 3 ! & _ B Z 2+t.3+4+%@&@*@=@-@",
"        ;@Y _ & ] O k u G *.!.;+7.5.m.D.#+Q.*+&+>@m+%+P.#+D.m.5.7.~.!.P G u k ,@A 8 _ >+,+s.'@W.4+)@!@~@!+{@",
"        ]@T.0 o ] 1 z h F I R $.^@3./@l.D.B.O.P.P.P.T+@@D.l.x.6.{.$.R I F h 4 1 ] o 0 T.b.U.(@W._@:@<@[@}@~+",
"        L |@B ( ^ ~ 3 g w G.*.S &.^.1@/@m.-+D.A.l+l+D.y.m.x.}+].&.S P 2@@.j 3 ~ 7 ( B p ` I.J.3@4@5@6@7@8@>.",
"        9@Z a _ 8 0@2 z a@p.K ).8.&.].6.5.j.m.I+l.m.U++@5.6.].&.b@U I y 9.z 2 0@& _ a Z 2+t.r+B+C+c@6@d@e@L+",
"        f@=.T.0.( 7 ~ 3 g u '.I Q 8.%.].7.}+4.5.5.5.4.3.7.{.1.8.).I F u g 3 ~ 7 ( g@T.b.-.d.W.h@)@i@j@k@l@L+",
"        m@` W+a _ 8 ] 1 4 n@@.G I Q !.$.++{.].^.7./.].{.++$.#.).I '.o@j 4 1 A 8 p@a :.` <.J.q@r@5@s@t@d@e@L+",
"        u@c.=.p g@( & A 2 4 j w F i.*.R !.|+%.%.%.%.%.$.!.R *.I '.@.j V 2 ! ^ 1+0.T.=.c.d.v@4+C+c@w@x@7@8@>.",
"        y@<.2+:.a 0 W z@{ 2 f j u y G.I *.U R S S R R ).*.I 2@F u g f 2 ! 7 o X a ,+` <.J.A@_@B@i@C@D@[@E@~+",
"        F@d.U.L p a _ o G@! H@4 g h w F G G.I I *.I I K G y w i g 4 h.{ I@o _ J@p K@L@(@v@h+%@c@w@M@N@~@!+{@",
"          O@'@s.b.T.a _ o ^ A 1 3 k g i 9.w P@F F x x w u h g z 3 1 { ^ Q@1+a p =.c.t.r+B+R@B@s@C@S@T@*@=@-@",
"          U@V@g+s.b.p B _ o * ] ~ H@3 f k g j j i j j g  +f 3 2 ~ A & o _ a p b.s.t.V@A@4+%@c@W@X@Y@k@`+ @  ",
"          Z@W.(@<.2+b.p a X ( 8 7 ] ~ 1 O 3 3 4 4 4 3 O 2 1 ~ 0@^ 8 9 0 a p b.2+I.(@W.h+C+`@ #.#+#@###K+L+  ",
"            $#W.(@I.s.=.p Y 0.1+o 8 7 7 A { ~ ~ ~ l ~ ! ] ] ^ & ( _ 0.>+:.=.2+I.(@v@Y+4@5@s@C@%#&#*#=#E+F+  ",
"            -#h+v@(@<.c.K@Z T.a 0._ 1+W & n ^ 7 7 7 ^ & 8 o ( _ 0.a T.Z L ;#<.(@v@Y+4@B@>#,#X@'#)#d@t+u+    ",
"              !#h+~#J.'@{#2+=.:.T.a B 0 _ ]+( 1+1+9 1+1+_ 0 B a ]#:.=.2+U.t.J.W.h+4@B@>#W@M@^#/#*#(#j+k+    ",
"              _#:#h+A@r+d.<.-.` =.Z p ]#a a B B B B a a >+T.<#Z =.2+c.I.d.r+A@h+4@:@>#W@M@+#[#}#d@t+6+      ",
"                |#%@4+B+v@J.'@I.U.2+K@b.b.Z W+p |@W+W+Z Z b.L 2+U.<.d.J.v@B+4+C+5@>#W@M@+#1#2#T@=#!+k+      ",
"                  3#)@r@h+A@v@J.d.t.I.U.s.2+2+` 2+` 2+2+s.-.I.t.d.4#X+A@4+R@)@`@i@5#M@+#1#6#*#[@7#Y.        ",
"                  8#9#B@C+_@h+q@v@3+J.(@d.t.g+<.<.<.t.t.'+d.J.3+v@3@h+R@C+B@># #,#X@^#0#a#*#7@`+b#8#        ",
"                    ..c#c@:@C+R@4+Y+q@W.W.3+3+r+r+r+X+X+v@W.3@h+_@r@%@:@`@s@w@.#d#^#0#a#*#d@e#f#..          ",
"                      >.g#s@c@5@h#C+r@_@4+h+B+Y+h+B+B+h+4+_@4@C+h#5@c@i@w@C@X@+#i#j#k#*#d@l#m#>.            ",
"                        >.n#o#6@i@`@`@:@h#)@%@C+C+C+%@%@)@:@p#c@>#s@W@C@M@q#'#0#r#s#*#7@e#m#t#              ",
"                          >.u#v#,#w@ #s@i@>#w#c@c@c@>#>#i@s@ #W@,#.#%#q#'#0#x#y#z#T@[@`+f#>.                ",
"                            ..L.A#B#M@.#C@C#5#,#5#W@,#,#C#.#M@D#q#^#i#0#E#F#G#*#d@=#7#b#..                  ",
"                              N Y.!+H#I#J#q#q#d#d#d#%#q#K#^#'#i#0#x#L#M#N#*#d@(#t+!+Y.8#                    ",
"                                  ~+6+j+t+O#P#Q#R#S#[#1#T#U#V#a#W#N#T@k@##X#t+j+6+~+                        ",
"                                      k+ @E+K+t+*@~@[@7@d@d@d@7@[@~@*@`+K+E+u+k+                            ",
"                                          F+L+ @=@!+}@8@e@l@e@8@}@!+=@ @L+F+                                ",
"                                                -@{@~+>.t#L+t#>.~+{@-@                                      "};
