/* XPM */
static char * blue_jump2_xpm[] = {
"54 54 445 2",
"  	c None",
". 	c #B8B8CA",
"+ 	c #A0A2C8",
"@ 	c #8F91C5",
"# 	c #8185C3",
"$ 	c #767CC2",
"% 	c #7075C0",
"& 	c #6B71BF",
"* 	c #6C72C0",
"= 	c #7378BF",
"- 	c #7C81C0",
"; 	c #898BC1",
"> 	c #9A9DC4",
", 	c #B5B5C7",
"' 	c #9698C6",
") 	c #787EC4",
"! 	c #7177C3",
"~ 	c #7378C3",
"{ 	c #7277C2",
"] 	c #6F75C1",
"^ 	c #6B6FBF",
"/ 	c #666DBE",
"( 	c #646BBC",
"_ 	c #6D72BB",
": 	c #8C8EBE",
"< 	c #B2B3C6",
"[ 	c #B2B3CA",
"} 	c #888EC4",
"| 	c #7479C4",
"1 	c #757AC5",
"2 	c #787DC6",
"3 	c #777DC7",
"4 	c #787CC6",
"5 	c #7074C2",
"6 	c #6D73C1",
"7 	c #6A70BE",
"8 	c #686EBC",
"9 	c #646ABA",
"0 	c #6167B9",
"a 	c #797EB9",
"b 	c #A7A8BF",
"c 	c #C0C0CC",
"d 	c #8F93C5",
"e 	c #797FC7",
"f 	c #7B81C9",
"g 	c #7E84CA",
"h 	c #7D83CB",
"i 	c #7C82CA",
"j 	c #7A80C8",
"k 	c #7276C4",
"l 	c #6E74C2",
"m 	c #6C70C0",
"n 	c #696FBD",
"o 	c #5D63B7",
"p 	c #7C80B6",
"q 	c #B5B5C1",
"r 	c #A8AAC8",
"s 	c #747AC4",
"t 	c #8086CC",
"u 	c #8288CC",
"v 	c #8187CD",
"w 	c #8388CD",
"x 	c #8288CE",
"y 	c #787EC8",
"z 	c #7076C2",
"A 	c #6268BA",
"B 	c #5C62B4",
"C 	c #9497B6",
"D 	c #979BC7",
"E 	c #8489CE",
"F 	c #858BCF",
"G 	c #888BD0",
"H 	c #898ED1",
"I 	c #888CD2",
"J 	c #898ECF",
"K 	c #575DB5",
"L 	c #7F83B1",
"M 	c #BFBFBF",
"N 	c #777CC5",
"O 	c #8C91D2",
"P 	c #8D90D3",
"Q 	c #8D92D3",
"R 	c #8E93D4",
"S 	c #8D94D3",
"T 	c #787CC8",
"U 	c #686EBE",
"V 	c #6369BB",
"W 	c #5F65B9",
"X 	c #5A60B6",
"Y 	c #555CB5",
"Z 	c #7376AD",
"` 	c #BABABA",
" .	c #8E92C4",
"..	c #8185CD",
"+.	c #8F94D5",
"@.	c #9297D6",
"#.	c #9398D7",
"$.	c #9499D8",
"%.	c #8A8FD2",
"&.	c #575EB5",
"*.	c #4F56B5",
"=.	c #7376AB",
"-.	c #B6B6B6",
";.	c #969AC6",
">.	c #848BCE",
",.	c #8B90D3",
"'.	c #9095D4",
").	c #969BD8",
"!.	c #979CD9",
"~.	c #989DDA",
"{.	c #9A9FDA",
"].	c #999EDB",
"^.	c #979DD9",
"/.	c #959AD7",
"(.	c #5C62B6",
"_.	c #4B52B5",
":.	c #7679A8",
"<.	c #A5A9C7",
"[.	c #8187CB",
"}.	c #9399D7",
"|.	c #989BDA",
"1.	c #9CA2DC",
"2.	c #9FA4DD",
"3.	c #A0A4DE",
"4.	c #9CA1DC",
"5.	c #9BA0DB",
"6.	c #9196D5",
"7.	c #7F85CB",
"8.	c #5D65B7",
"9.	c #595FB5",
"0.	c #5057B6",
"a.	c #4850B6",
"b.	c #8384A3",
"c.	c #BFC0CB",
"d.	c #6E73BE",
"e.	c #767BC4",
"f.	c #888DD0",
"g.	c #A2A6DE",
"h.	c #A4A6E0",
"i.	c #A5A9E1",
"j.	c #A4A8E0",
"k.	c #A1A5DF",
"l.	c #8C92D2",
"m.	c #838ACD",
"n.	c #7981C7",
"o.	c #696FBF",
"p.	c #5158B5",
"q.	c #4951B5",
"r.	c #474EB3",
"s.	c #9496A0",
"t.	c #898DC3",
"u.	c #A6AAE2",
"v.	c #A9ABE3",
"w.	c #AAADE4",
"x.	c #ACB0E4",
"y.	c #ABB0E3",
"z.	c #A9ADE3",
"A.	c #9EA3DC",
"B.	c #8F92D5",
"C.	c #868CD0",
"D.	c #7A80CA",
"E.	c #4C54B6",
"F.	c #464DB4",
"G.	c #6569A3",
"H.	c #A3A3A3",
"I.	c #B0B2C8",
"J.	c #ABAEE5",
"K.	c #AEB3E6",
"L.	c #B1B5E7",
"M.	c #B0B5E8",
"N.	c #ACB1E4",
"O.	c #8E91D4",
"P.	c #5E64B8",
"Q.	c #4E55B6",
"R.	c #484FB4",
"S.	c #4149B3",
"T.	c #818397",
"U.	c #ADADAD",
"V.	c #8084C0",
"W.	c #767BC6",
"X.	c #797FC9",
"Y.	c #9699D8",
"Z.	c #A8ADE2",
"`.	c #ADB1E5",
" +	c #B2B6E8",
".+	c #B5BAE9",
"++	c #B5B9EB",
"@+	c #B4B8EA",
"#+	c #ACAFE6",
"$+	c #A8ACE2",
"%+	c #959BD7",
"&+	c #6066B8",
"*+	c #5B61B5",
"=+	c #4950B5",
"-+	c #5A5FA4",
";+	c #989898",
">+	c #B9B9B9",
",+	c #B5B7C9",
"'+	c #676DBB",
")+	c #868DD0",
"!+	c #A7ABE1",
"~+	c #B8BBEC",
"{+	c #BBBEED",
"]+	c #BBBFED",
"^+	c #B8BCEC",
"/+	c #B4B9EA",
"(+	c #9DA2DD",
"_+	c #9197D5",
":+	c #656CBD",
"<+	c #535AB5",
"[+	c #434BB5",
"}+	c #3C44B0",
"|+	c #7F818F",
"1+	c #A7A7A7",
"2+	c #8F92C1",
"3+	c #777BC7",
"4+	c #BBBFEF",
"5+	c #C0C2F0",
"6+	c #C3C6F1",
"7+	c #C0C3F0",
"8+	c #BDC0EF",
"9+	c #A3A7DF",
"0+	c #9EA1DE",
"a+	c #6369B9",
"b+	c #4951B7",
"c+	c #3D45B1",
"d+	c #63679B",
"e+	c #959595",
"f+	c #B8B8B8",
"g+	c #AAAEE4",
"h+	c #B4B7EA",
"i+	c #C5C8F3",
"j+	c #C8CBF4",
"k+	c #C5C9F3",
"l+	c #C1C4F1",
"m+	c #454CB3",
"n+	c #444BAA",
"o+	c #868686",
"p+	c #AAAAAA",
"q+	c #B4B6C8",
"r+	c #B6B9EC",
"s+	c #C1C3F1",
"t+	c #C9CBF5",
"u+	c #CCCFF8",
"v+	c #8F94D3",
"w+	c #3E46B2",
"x+	c #3840AE",
"y+	c #777989",
"z+	c #9C9C9C",
"A+	c #BDBDBD",
"B+	c #999CC3",
"C+	c #A5A8E1",
"D+	c #A4A9E0",
"E+	c #6A6D92",
"F+	c #8F8F8F",
"G+	c #B4B4B4",
"H+	c #8488BE",
"I+	c #A3A8DF",
"J+	c #B5B9E9",
"K+	c #BEC1EE",
"L+	c #BFC2F1",
"M+	c #BBC0EF",
"N+	c #B4B6EA",
"O+	c #AFB3E7",
"P+	c #A2A6E0",
"Q+	c #9EA3DE",
"R+	c #5B61B7",
"S+	c #444BB2",
"T+	c #3E46B0",
"U+	c #5A5D9C",
"V+	c #858585",
"W+	c #ABABAB",
"X+	c #7177BB",
"Y+	c #A2A7DE",
"Z+	c #ABAFE5",
"`+	c #ADAFE5",
" @	c #373FAD",
".@	c #4A50A2",
"+@	c #7F7F7F",
"@@	c #A0A0A0",
"#@	c #C0C0C0",
"$@	c #656DB7",
"%@	c #B5BAEB",
"&@	c #777BC5",
"*@	c #363EAC",
"=@	c #3C44A6",
"-@	c #7B7B7B",
";@	c #BCBCBC",
">@	c #5B63B5",
",@	c #969BDA",
"'@	c #A1A5DD",
")@	c #474EB5",
"!@	c #3B43AF",
"~@	c #353DAD",
"{@	c #323BAA",
"]@	c #777777",
"^@	c #929292",
"/@	c #5C64B6",
"(@	c #9DA0DD",
"_@	c #868AD0",
":@	c #3F47B1",
"<@	c #3941AF",
"[@	c #343CAC",
"}@	c #2F38A9",
"|@	c #747474",
"1@	c #8E8E8E",
"2@	c #5A60B4",
"3@	c #7176C1",
"4@	c #7F83CB",
"5@	c #9093D6",
"6@	c #323BAC",
"7@	c #737373",
"8@	c #8B8B8B",
"9@	c #6066B4",
"0@	c #3B43B1",
"a@	c #3039AC",
"b@	c #3940A5",
"c@	c #727272",
"d@	c #8A8A8A",
"e@	c #696FB5",
"f@	c #7D82C9",
"g@	c #7F85CD",
"h@	c #646ABC",
"i@	c #3F47B3",
"j@	c #3A42B0",
"k@	c #2F38AB",
"l@	c #444A9E",
"m@	c #7B7FB9",
"n@	c #424AB4",
"o@	c #2D36A9",
"p@	c #545896",
"q@	c #9195BD",
"r@	c #6C74C0",
"s@	c #4048B2",
"t@	c #353DAB",
"u@	c #2A33A8",
"v@	c #62658C",
"w@	c #919191",
"x@	c #B0B2C4",
"y@	c #747BC4",
"z@	c #6D71C1",
"A@	c #6066BA",
"B@	c #565CB4",
"C@	c #4D57B5",
"D@	c #2831A6",
"E@	c #6D6E7F",
"F@	c #545AB2",
"G@	c #8286CE",
"H@	c #6A6EBE",
"I@	c #3A42AE",
"J@	c #3338A3",
"K@	c #707070",
"L@	c #7E82B6",
"M@	c #4650B4",
"N@	c #2C35AA",
"O@	c #262FA8",
"P@	c #565A92",
"Q@	c #ACAEC2",
"R@	c #2E37AA",
"S@	c #2831A8",
"T@	c #232CA5",
"U@	c #6C6F80",
"V@	c #767676",
"W@	c #686CB0",
"X@	c #252EA7",
"Y@	c #464C98",
"Z@	c #6F6F6F",
"`@	c #7C7C7C",
" #	c #A0A3BC",
".#	c #4F59B5",
"+#	c #313AAB",
"@#	c #2B34A9",
"##	c #212AA5",
"$#	c #696B81",
"%#	c #6C73AE",
"&#	c #434AB1",
"*#	c #4D54B5",
"=#	c #5F65B7",
"-#	c #222BA4",
";#	c #4C5194",
">#	c #7A7A7A",
",#	c #B1B1BF",
"'#	c #3D45AF",
")#	c #5E64B6",
"!#	c #232CA3",
"~#	c #6F7179",
"{#	c #8C8EB2",
"]#	c #1F28A3",
"^#	c #656887",
"/#	c #7478AA",
"(#	c #444CB6",
"_#	c #2C34A8",
":#	c #555A8F",
"<#	c #8C8C8C",
"[#	c #BEBEBE",
"}#	c #6469A6",
"|#	c #1E27A2",
"1#	c #A2A2A2",
"2#	c #6166A5",
"3#	c #252EA5",
"4#	c #828282",
"5#	c #9D9D9D",
"6#	c #6A6DA2",
"7#	c #363EAE",
"8#	c #2029A4",
"9#	c #1D26A1",
"0#	c #55588F",
"a#	c #818181",
"b#	c #9A9A9A",
"c#	c #7C7FA0",
"d#	c #3038A8",
"e#	c #343CAA",
"f#	c #242DA6",
"g#	c #2029A0",
"h#	c #636487",
"i#	c #B5B5B5",
"j#	c #93939F",
"k#	c #565B9E",
"l#	c #313AAD",
"m#	c #1C25A2",
"n#	c #494E95",
"o#	c #6E6F78",
"p#	c #7E8094",
"q#	c #4C529E",
"r#	c #2B34A7",
"s#	c #262FA6",
"t#	c #434997",
"u#	c #686B82",
"v#	c #7C7D8E",
"w#	c #5A5E96",
"x#	c #333BA3",
"y#	c #242DA4",
"z#	c #2B339D",
"A#	c #535791",
"B#	c #6B6E7F",
"C#	c #757787",
"D#	c #64668E",
"E#	c #4F5497",
"F#	c #3E459C",
"G#	c #2E36A0",
"H#	c #232CA1",
"I#	c #2B339F",
"J#	c #3B429B",
"K#	c #5F618B",
"L#	c #7D7D7D",
"                                                                                                            ",
"                                                                                                            ",
"                                                                                                            ",
"                                                                                                            ",
"                                          . + @ # $ % & * = - ; > ,                                         ",
"                                    . ' ) ! ~ ~ ~ ~ ~ { ] ] * ^ / ( _ : <                                   ",
"                                [ } ~ | 1 2 3 3 3 3 2 4 1 | ~ 5 6 7 8 9 0 a b                               ",
"                            c d ~ 1 2 e f f f g h g i f j e 2 1 k l m n ( 0 o p q                           ",
"                          r s | 2 e f h t u v w w x x v t h f y 2 | z 6 n ( A o B C                         ",
"                        D ! 1 3 f g v E F G H H H I J J F E t h f 3 1 ! 6 n ( 0 o K L M                     ",
"                      d { N 3 f t x F H O P Q Q R Q S O O H F E t i T 1 { 6 U V W X Y Z `                   ",
"                     .{ 1 3 i ..E H O Q +.@.#.$.$.#.#.@.+.Q %.H F t i 3 1 { & / A o &.*.=.-.                ",
"                  ;.] | 3 i t >.H ,.'.@.).!.~.{.].{.~.^./.#.'.O H F t i 3 | ] 7 ( 0 (.Y _.:.-.              ",
"                <.6 ~ 2 f [.F H Q +.}.|.].1.2.3.3.3.2.4.5.!./.6.Q I F 7.f 2 ~ * / V 8.9.0.a.b.-.            ",
"              c.d.z e.j h E f.,.6.$.~.4.3.g.h.i.i.i.j.k.3.4.~.$.6.l.H m.h n.e.] o.( 0 (.p.q.r.s.`           ",
"              t.* ! 2 f t F O './.~.1.3.j.u.v.w.x.y.z.u.j.3.A.{./.B.O C.t D.2 ~ * 8 V o K E.F.G.H.M         ",
"            I.7 ] | y h E H R #.!.4.3.i.z.J.K.L.L.M.K.N.z.i.3.4.!.@.O.H w h y | ] U 9 P.&.Q.R.S.T.U.        ",
"            V.^ 5 W.X.7.F O '.Y.].3.j.Z.`. +.+++++@+@+ +#+$+h.3.5.%++.O F t f N z & ( &+*+p.=+S.-+;+>+      ",
"          ,+'+& { W.f v )+O @.!.A.k.!+`.M.@+~+{+]+{+^+/+L.`.u.k.(+!._+O C.v f 2 { * :+0 X <+q.[+}+|+1+      ",
"          2+:+* ~ 3+i v f.Q #.~.2.j.z.K.@+^+4+5+6+7+8+^+@+K.z.9+0+~.#.Q H w i 2 ~ * / a+(.<+b+[+c+d+e+f+    ",
"          _ 8 6 | 3 i E H R /.5.3.i.g+L.h+{+7+i+j+k+l+{+h+L.g+i.3.]./.O.H w g 3 ~ * 8 A o Y q.m+c+n+o+p+    ",
"        q+A :+* | 3 i E %.R $.].3.i.x.M.r+4+s+t+u+j+6+4+++M.J.i.3.5.#.v+%.x g 3 ~ * / A (.Y _.m+w+x+y+z+A+  ",
"        B+A :+6 ~ 3 g E H Q #.].3.C+w.L.++{+7+i+t+i+l+{+h+L.w.D+3.5.#.v+H E h 3 ~ * / A (.Y _.[+w+x+E+F+G+  ",
"        H+A :+* ~ 3 i w H Q #.~.2.I+z.K.J+~+K+7+s+L+M+^+N+O+z.P+Q+~.#.Q J w i 3 ~ * :+A R+<+q.S+T+x+U+V+W+  ",
"        X+0 :+& { 2 f v G ,.@.!.4.Y+!+Z+L.N+~+{+4+{+~+/+M.`+!+k.(+^.@.l.J t f 2 ! & ( A X <+q.[+}+ @.@+@@@#@",
"        $@W ( & ] N j t F %.'.%+5.3.j.z.`.M.@+++%@h+.+L.`.z.j.3.5.).'.O F t j &@z 7 ( &+*+p.a.S.}+*@=@-@;+;@",
"        >@P.9 n ] | y g E H Q @.,@1.'@i.z.x.K.L.L.L.O+Z+z.i.3.4.!.@.Q H E g 3 | ] n 9 P.9.Q.)@S.!@~@{@]@^@>+",
"        K /@A / * ~ 2 f v C.%.R $.{.(@'@j.$+z.w.g+g+z.u.j.3.(+~.$.R O _@..i 2 ~ 6 / A o Y E.F.:@<@[@}@|@1@-.",
"        2@X 0 ( 7 3@1 y 4@m.J ,.6.$.~.4.3.g.j.D+i.j.P+Y+3.4.~.$.5@O H x 7.y 1 3@& ( 0 X <+q.m+w+x+6@}@7@8@G+",
"        9@&.P.V / 6 ~ 2 f t >.H P 6.#.~.5.(+2.3.3.3.2.1.5.!.}.6.,.H E t f 2 ~ 6 / 9 P.9.*.a.S.0@*@a@b@c@d@G+",
"        e@Y R+0 ( 7 ] | 3 f@..F H P '.@.Y.!.~.{.5.].~.!.Y.@.+.,.H >.g@i 3 | z 7 h@0 (.Y _.F.i@j@[@k@l@7@8@G+",
"        m@0.&.o 9 / & z 1 3 i v E f.%.Q '._+#.#.#.#.#.@.'.Q %.H >...i T 1 ! * :+V P.&.0.a.n@}+x+6@o@p@|@1@-.",
"        q@_.<+(.0 9 U r@{ 1 e i t x C.H %.O Q R R Q Q ,.%.H _@E t f e 1 ! 6 n V 0 *+Y _.F.s@!@t@a@u@v@]@w@>+",
"        x@a.Q.K o 0 ( n 6 ! y@3 f g v E F C.H H %.H H J F x v h f 3 e.{ z@n ( A@o B@C@)@n@c+ @6@o@D@E@-@;+;@",
"          F@a.p.9.P.0 ( n * z | 2 j f h 7.v G@E E w w v t g f y 2 | { * H@:+0 o &.0.q.m+w+I@t@k@u@J@K@+@@@#@",
"          L@M@b+p.9.o A ( n * ] ~ y@2 e j f i i h i i f X.e 2 1 ~ z & n ( 0 o 9.p.q.M@s@}+ @6@N@O@P@c@V+W+  ",
"          Q@S.)@_.<+9.o 0 V / 7 6 ] ~ | N 2 2 3 3 3 2 N 1 | ~ 3@* 7 8 9 0 o 9.<+E.)@S.c+x+6@R@S@T@U@V@F+G+  ",
"            W@S.)@E.p.&.o W V :+n 7 6 6 z { ~ ~ ~ k ~ ! ] ] * & / ( V &+(.&.<+E.)@n@T+<@[@k@u@X@Y@Z@`@z+A+  ",
"             #c+n@)@_.0.B@X P.0 V ( :+U & m * 6 6 6 * & 7 n / ( V 0 P.X K .#_.)@n@T+<@t@+#@#O@##$#7@o+p+    ",
"              %#c+&#F.a.*#<+&.(.P.0 A 9 ( '+/ :+:+8 :+:+( 9 A 0 =#(.&.<+Q.q.F.S.c+<@t@+#N@D@-#;#Z@>#e+f+    ",
"              ,#'#c+s@m+a._.*.Y &.X o =#0 0 A A A A 0 0 &+P.)#X &.<+0.E.a.m+s@c+<@~@+#N@D@T@!#~#7@o+1+      ",
"                {# @}+w+n@F.a.E.Q.<+B@9.9.X R+o /@R+R+X X 9.K <+Q._.a.F.n@w+}+x+[@+#N@D@T@]#^#K@`@;+f+      ",
"                  /#*@j@c+s@n@F.a.q.E.Q.p.<+<+Y <+Y <+<+p.*.E.q.a.(#S+s@}+I@*@6@a@_#D@T@]#:#Z@]@<#U.        ",
"                  [#}#t@x+!@c+i@n@[+F.)@a.q.b+_._._.q.q.=+a.F.[+n@:@c+I@x+t@+#R@@#O@-#|#;#Z@|@V+1#[#        ",
"                    ` 2#6@~@x+I@}+T+i@S.S.[+[+m+m+m+S+S+n@S.:@c+!@j@ @~@6@k@o@S@3#-#|#;#Z@7@4#5#`           ",
"                      -.6#k@6@[@7#x+j@!@}+c+w+T+c+w+w+c+}+!@<@x+7#[@6@a@o@u@O@T@8#9#0#Z@7@a#b#-.            ",
"                        -.c#d#}@a@6@6@~@7#*@ @x+x+x+ @ @*@~@e#6@+#k@N@u@D@f###|#g#h#Z@|@4#b#i#              ",
"                          -.j#k#@#o@R@k@a@+#l#6@6@6@+#+#a@k@R@N@@#S@X@f###|#m#n#o#K@]@V+5#-.                ",
"                            ` H.p#q#D@S@u@r#_#@#_#N@@#@#r#S@D@s#f#-#8#|#m#t#u#Z@7@`@<#1#`                   ",
"                              M U.;+v#w#x#f#f#3#3#3#X@f#y#-###8#|#m#z#A#B#Z@7@>#o+;+U.[#                    ",
"                                  >+1+e+o+C#D#E#F#G#!#]#H#I#J#;#K#B#K@c@V@L#o+e+1+>+                        ",
"                                      f+W+z+F+o++@-@]@|@7@7@7@|@]@-@+@V+F+z+p+f+                            ",
"                                          A+G+W+@@;+^@1@8@d@8@1@^@;+@@W+G+A+                                ",
"                                                #@;@>+-.i#G+i#-.>+;@#@                                      "};
