/* XPM */
static char * blue_jump8_xpm[] = {
"54 54 445 2",
"  	c None",
". 	c #A3A4BB",
"+ 	c #8A8CBA",
"@ 	c #777AB9",
"# 	c #686EB8",
"$ 	c #5D64B7",
"% 	c #575DB5",
"& 	c #5158B5",
"* 	c #535AB5",
"= 	c #5A60B4",
"- 	c #646AB4",
"; 	c #7174B5",
"> 	c #8487B6",
", 	c #9FA0B7",
"' 	c #7D80B9",
") 	c #5F66B9",
"! 	c #575EB9",
"~ 	c #5960B9",
"{ 	c #585FB8",
"] 	c #565CB6",
"^ 	c #5259B6",
"/ 	c #5156B5",
"( 	c #4F56B3",
"_ 	c #4D54B1",
": 	c #545AB0",
"< 	c #7577B1",
"[ 	c #9C9DB6",
"} 	c #9B9DBB",
"| 	c #7077B8",
"1 	c #5A61BA",
"2 	c #5B62BB",
"3 	c #5F65BB",
"4 	c #5E64BC",
"5 	c #5F63BB",
"6 	c #575BB7",
"7 	c #545BB6",
"8 	c #5057B4",
"9 	c #5057B2",
"0 	c #4D54AF",
"a 	c #4B52AB",
"b 	c #6167AD",
"c 	c #9293B0",
"d 	c #ACACBA",
"e 	c #777CB9",
"f 	c #6066BC",
"g 	c #6268BE",
"h 	c #656BBF",
"i 	c #646AC0",
"j 	c #6369BF",
"k 	c #6167BD",
"l 	c #585DBA",
"m 	c #545BB8",
"n 	c #5257B6",
"o 	c #4A50A6",
"p 	c #6569A9",
"q 	c #A1A1AF",
"r 	c #9193B9",
"s 	c #5B62B9",
"t 	c #676DC1",
"u 	c #696FC1",
"v 	c #686EC2",
"w 	c #6A70C2",
"x 	c #696FC3",
"y 	c #5F65BD",
"z 	c #575DB7",
"A 	c #4C53AC",
"B 	c #4A50A2",
"C 	c #7F82A7",
"D 	c #7F83B9",
"E 	c #6B71C3",
"F 	c #6C72C4",
"G 	c #6C70C6",
"H 	c #6E74C6",
"I 	c #6D71C7",
"J 	c #6D74C5",
"K 	c #474EA3",
"L 	c #696DA3",
"M 	c #ACACAC",
"N 	c #5E64BA",
"O 	c #7076C8",
"P 	c #7377C9",
"Q 	c #7379C9",
"R 	c #747ACA",
"S 	c #737BC9",
"T 	c #7278C8",
"U 	c #5F63BD",
"V 	c #4C53B0",
"W 	c #4A51AA",
"X 	c #484FA4",
"Y 	c #464DA2",
"Z 	c #5E61A0",
"` 	c #A7A7A7",
" .	c #767BB8",
"..	c #686CC2",
"+.	c #757BCB",
"@.	c #787ECC",
"#.	c #797FCD",
"$.	c #7A80CE",
"%.	c #6F75C7",
"&.	c #484EA2",
"*.	c #43499F",
"=.	c #5E619C",
"-.	c #A4A4A4",
";.	c #7E82B8",
">.	c #6B73C3",
",.	c #7177C9",
"'.	c #767CCA",
").	c #7B81CF",
"!.	c #7C82D0",
"~.	c #7E84D0",
"{.	c #7D83D1",
"].	c #7B83CF",
"^.	c #7B81CD",
"/.	c #4950A5",
"(.	c #40479E",
"_.	c #62659A",
":.	c #8F94B9",
"<.	c #686EC0",
"[.	c #7981CD",
"}.	c #7C80D0",
"|.	c #8088D2",
"1.	c #8389D3",
"2.	c #848AD4",
"3.	c #8086D2",
"4.	c #7F85D1",
"5.	c #777DCB",
"6.	c #666CC0",
"7.	c #4C53AE",
"8.	c #4A53A6",
"9.	c #434AA1",
"0.	c #3E449C",
"a.	c #6E7094",
"b.	c #AAACBA",
"c.	c #555BB3",
"d.	c #5D63B9",
"e.	c #6C73C6",
"f.	c #878CD5",
"g.	c #898CD7",
"h.	c #888ED8",
"i.	c #898ED7",
"j.	c #868BD6",
"k.	c #727AC8",
"l.	c #6A72C2",
"m.	c #6069BC",
"n.	c #444AA0",
"o.	c #3F469D",
"p.	c #3C439A",
"q.	c #81848F",
"r.	c #7176B7",
"s.	c #858AD5",
"t.	c #898FD9",
"u.	c #8C90DA",
"v.	c #8D91DB",
"w.	c #8F94DB",
"x.	c #8E95DA",
"y.	c #8C91DA",
"z.	c #8288D2",
"A.	c #7579CB",
"B.	c #6B71C5",
"C.	c #6167BF",
"D.	c #41489F",
"E.	c #3C429A",
"F.	c #565A90",
"G.	c #919191",
"H.	c #999CB9",
"I.	c #8E92DC",
"J.	c #9198DD",
"K.	c #9499DE",
"L.	c #939ADF",
"M.	c #8F96DB",
"N.	c #7478CA",
"O.	c #4A51A8",
"P.	c #4249A0",
"Q.	c #3D449B",
"R.	c #383F9A",
"S.	c #6E7086",
"T.	c #9A9A9A",
"U.	c #686DB4",
"V.	c #5C63BC",
"W.	c #6066BE",
"X.	c #7177C7",
"Y.	c #7A7ECE",
"Z.	c #8B92D9",
"`.	c #9095DC",
" +	c #959ADF",
".+	c #979EE1",
"++	c #989DE2",
"@+	c #979CE1",
"#+	c #969CE2",
"$+	c #8F92DD",
"%+	c #8B91D9",
"&+	c #7B83CD",
"*+	c #4B52A9",
"=+	c #494FA3",
"-+	c #3E459C",
";+	c #4E538E",
">+	c #868686",
",+	c #A6A6A6",
"'+	c #9FA1B9",
")+	c #4F56B1",
"!+	c #6B74C5",
"~+	c #8A90D8",
"{+	c #999FE5",
"]+	c #9CA1E6",
"^+	c #9CA3E6",
"/+	c #9BA0E3",
"(+	c #8187D3",
"_+	c #777FCB",
":+	c #4E55B2",
"<+	c #454BA1",
"[+	c #39409B",
"}+	c #333A97",
"|+	c #6D6F7D",
"1+	c #959595",
"2+	c #787CB4",
"3+	c #5E62BC",
"4+	c #9DA2E7",
"5+	c #A1A4E9",
"6+	c #A4A9EA",
"7+	c #A1A6E9",
"8+	c #9EA3E8",
"9+	c #888DD6",
"0+	c #8286D4",
"a+	c #4D53AB",
"b+	c #3F469F",
"c+	c #343B98",
"d+	c #555987",
"e+	c #838383",
"f+	c #A5A5A5",
"g+	c #8D92DB",
"h+	c #969BE2",
"i+	c #A3A9ED",
"j+	c #A6ABEE",
"k+	c #A3AAED",
"l+	c #A1A7EB",
"m+	c #3B4199",
"n+	c #3A4092",
"o+	c #757575",
"p+	c #989898",
"q+	c #9EA0B8",
"r+	c #999CE3",
"s+	c #A1A5EB",
"t+	c #A7AAEF",
"u+	c #ABB0F3",
"v+	c #757BC9",
"w+	c #353C99",
"x+	c #303794",
"y+	c #676977",
"z+	c #8A8A8A",
"A+	c #AAAAAA",
"B+	c #8285B4",
"C+	c #888CD8",
"D+	c #8990D7",
"E+	c #5B5D7D",
"F+	c #7D7D7D",
"G+	c #A2A2A2",
"H+	c #6C71B2",
"I+	c #888FD6",
"J+	c #979DE1",
"K+	c #9FA4E7",
"L+	c #9FA5EB",
"M+	c #9DA4E7",
"N+	c #969AE2",
"O+	c #9297DE",
"P+	c #878DD7",
"Q+	c #8288D4",
"R+	c #484FA6",
"S+	c #3A4098",
"T+	c #353C97",
"U+	c #4D4F85",
"V+	c #747474",
"W+	c #595FAF",
"X+	c #878ED5",
"Y+	c #8E93DC",
"Z+	c #9699E2",
"`+	c #9094DC",
" @	c #2F3693",
".@	c #3F458B",
"+@	c #6D6D6D",
"@@	c #8E8E8E",
"#@	c #AEAEAE",
"$@	c #4F57A9",
"%@	c #989FE2",
"&@	c #5E62BA",
"*@	c #3E459E",
"=@	c #2E3592",
"-@	c #333A8D",
";@	c #696969",
">@	c #A9A9A9",
",@	c #4952A3",
"'@	c #7A80D0",
")@	c #868CD4",
"!@	c #3D439B",
"~@	c #333A95",
"{@	c #2D3493",
"]@	c #2A3190",
"^@	c #666666",
"/@	c #818181",
"(@	c #4952A5",
"_@	c #8185D3",
":@	c #6B6FC5",
"<@	c #363D98",
"[@	c #313895",
"}@	c #2C3392",
"|@	c #282F8E",
"1@	c #636363",
"2@	c #7C7C7C",
"3@	c #494FA1",
"4@	c #575EB7",
"5@	c #666AC0",
"6@	c #767ACC",
"7@	c #2A3292",
"8@	c #626262",
"9@	c #797979",
"0@	c #4D53A3",
"a@	c #4D54AD",
"b@	c #323998",
"c@	c #283092",
"d@	c #30368C",
"e@	c #616161",
"f@	c #787878",
"g@	c #545AA8",
"h@	c #646ABE",
"i@	c #656CC3",
"j@	c #4C53B2",
"k@	c #363D9A",
"l@	c #313997",
"m@	c #282F90",
"n@	c #3A3F86",
"o@	c #6469AC",
"p@	c #262D8E",
"q@	c #474B81",
"r@	c #7A7FB0",
"s@	c #535CB5",
"t@	c #373E99",
"u@	c #2D3491",
"v@	c #232A8D",
"w@	c #545678",
"x@	c #808080",
"y@	c #9A9CB4",
"z@	c #535AB7",
"A@	c #5A63BA",
"B@	c #5358B7",
"C@	c #4A51AC",
"D@	c #474DA1",
"E@	c #424B9E",
"F@	c #21298B",
"G@	c #5D5F6D",
"H@	c #474D9D",
"I@	c #696DC3",
"J@	c #5055B4",
"K@	c #2B2F89",
"L@	c #5F5F5F",
"M@	c #676CA9",
"N@	c #3C459A",
"O@	c #252C8F",
"P@	c #20288C",
"Q@	c #494D7D",
"R@	c #9698B2",
"S@	c #2B3291",
"T@	c #272E8F",
"U@	c #22298C",
"V@	c #1D2589",
"W@	c #656565",
"X@	c #5458A0",
"Y@	c #1F278B",
"Z@	c #3B4081",
"`@	c #5E5E5E",
" #	c #6A6A6A",
".#	c #8A8DAC",
"+#	c #434C9F",
"@#	c #242B8E",
"##	c #1B2389",
"$#	c #5A5C6E",
"%#	c #585E9E",
"&#	c #394099",
"*#	c #42489E",
"=#	c #4B51A7",
"-#	c #1C2488",
";#	c #40447E",
">#	c #9D9DAD",
",#	c #343B96",
"'#	c #4B51A5",
")#	c #1D2587",
"!#	c #5E6068",
"~#	c #7779A3",
"{#	c #1A2288",
"]#	c #565974",
"^#	c #5F639B",
"/#	c #3A419C",
"(#	c #252C8D",
"_#	c #484D7A",
":#	c #7A7A7A",
"<#	c #ABABAB",
"[#	c #555993",
"}#	c #192187",
"|#	c #41457D",
"1#	c #909090",
"2#	c #535791",
"3#	c #1F2689",
"4#	c #717171",
"5#	c #8B8B8B",
"6#	c #5A5D90",
"7#	c #2E3594",
"8#	c #1B2289",
"9#	c #182086",
"0#	c #484B7A",
"a#	c #707070",
"b#	c #888888",
"c#	c #696B8F",
"d#	c #2C3390",
"e#	c #1E268A",
"f#	c #1B2285",
"g#	c #545674",
"h#	c #A3A3A3",
"i#	c #80808E",
"j#	c #4A4E88",
"k#	c #293193",
"l#	c #171F87",
"m#	c #3E427E",
"n#	c #5D5E67",
"o#	c #6C6E82",
"p#	c #414687",
"q#	c #242B8C",
"r#	c #20278A",
"s#	c #171F85",
"t#	c #383D80",
"u#	c #595B6F",
"v#	c #6C6D7C",
"w#	c #4D5181",
"x#	c #2B3289",
"y#	c #1E2588",
"z#	c #232A83",
"A#	c #464A7C",
"B#	c #5C5E6C",
"C#	c #646674",
"D#	c #56577A",
"E#	c #444880",
"F#	c #343A84",
"G#	c #262D86",
"H#	c #1E2586",
"I#	c #242A84",
"J#	c #323782",
"K#	c #515377",
"L#	c #6B6B6B",
"                                                                                                            ",
"                                                                                                            ",
"                                                                                                            ",
"                                                                                                            ",
"                                          . + @ # $ % & * = - ; > ,                                         ",
"                                    . ' ) ! ~ ~ ~ ~ ~ { ] ] ^ / ( _ : < [                                   ",
"                                } | ~ 1 2 3 4 4 4 4 3 5 2 1 ~ 6 7 8 9 0 a b c                               ",
"                            d e ~ 2 3 f g g g h i h j g k f 3 2 l m n 9 _ a o p q                           ",
"                          r s 1 3 f g i t u v w w x x v t i g y 3 1 z 7 9 _ A o B C                         ",
"                        D ! 2 4 g h v E F G H H H I J J F E t i g 4 2 ! 7 9 _ a o K L M                     ",
"                      e { N 4 g t x F H O P Q Q R Q S T O H F E t j U 2 { 7 ( V W X Y Z `                   ",
"                     .{ 2 4 j ..E H O Q +.@.#.$.$.#.#.@.+.Q %.H F t j 4 2 { & ( A o &.*.=.-.                ",
"                  ;.] 1 4 j t >.H ,.'.@.$.).!.~.{.~.!.].^.#.'.T H F t j 4 1 ] 8 _ a /.Y (._.-.              ",
"                :.7 ~ 3 g <.F H Q +.[.}.{.|.1.2.2.2.1.3.4.).^.5.Q I F 6.g 3 ~ ^ ( 7.8.&.9.0.a.-.            ",
"              b.c.z d.k i E e.,.5.$.!.3.2.f.g.h.h.h.i.j.2.3.!.$.5.k.H l.i m.d.] 8 _ a /.n.o.p.q.`           ",
"              r.^ ! 3 g t F O '.^.!.|.s.i.t.u.v.w.x.y.t.i.s.z.~.^.A.O B.t C.3 ~ ^ 9 7.o K D.E.F.G.M         ",
"            H.8 ] 1 y i E H R #.).3.s.h.y.I.J.K.K.L.J.M.y.h.s.3.).@.N.H w i y 1 ] ( 0 O.&.P.Q.R.S.T.        ",
"            U./ 6 V.W.6.F X.'.Y.{.2.i.Z.`. +.+++++@+#+ +$+%+g.2.4.&++.O F t g N z & _ *+=+n.-+R.;+>+,+      ",
"          '+)+& { V.g v !+T @.).z.j.~+`.L.@+{+]+^+]+/+.+K.`.t.j.(+)._+T B.v g 3 { * :+a X <+o.[+}+|+1+      ",
"          2+:+^ ~ 3+j v e.Q #.!.1.i.y.J.#+/+4+5+6+7+8+/+#+J.y.9+0+!.#.Q H w j 3 ~ ^ ( a+/.<+b+[+c+d+e+f+    ",
"          : 9 7 1 4 j E H R ^.4.2.h.g+K.h+]+7+i+j+k+l+]+h+K.g+h.2.{.^.N.H w h 4 ~ ^ 9 A o Y o.m+c+n+o+p+    ",
"        q+A :+^ 1 4 j E %.R $.{.2.h.w.L.r+4+s+t+u+j+6+4+++L.I.h.2.4.#.v+%.x h 4 ~ ^ ( A /.Y (.m+w+x+y+z+A+  ",
"        B+A :+7 ~ 4 h E H Q #.{.2.C+v.K.++]+7+i+t+i+l+]+h+K.v.D+2.4.#.v+H E i 4 ~ * ( A /.Y (.[+w+x+E+F+G+  ",
"        H+A :+^ ~ 4 j w H Q #.!.1.I+y.J.J+{+K+7+s+L+M+/+N+O+y.P+Q+!.#.Q J w j 4 ~ ^ :+A R+<+o.S+T+x+U+V+p+  ",
"        W+a :+& { 3 g v G ,.@.).3.X+~+Y+K.Z+{+]+4+]+{+.+L.`+~+j.(+].@.k.J t g 3 ! & _ A X <+o.[+}+ @.@+@@@#@",
"        $@W _ & ] N k t F %.'.&+4.2.i.y.`.L.#+++%@h+.+K.`.y.i.2.4.$.'.O F t k &@z 8 _ *+=+n.*@R.}+=@-@;@>+>@",
"        ,@O.0 9 ] 1 y h E H Q @.'@|.)@h.y.w.J.K.K.K.O+Y+y.h.s.3.).@.Q H E h 4 1 ] 9 0 O.&.P.!@R.~@{@]@^@/@,+",
"        K (@A ( ^ ~ 3 g v B.%.R $.~._@)@i.%+y.v.g+g+y.t.i.s.(+!.$.R O :@..j 3 ~ 7 ( A o Y D.E.<@[@}@|@1@2@-.",
"        3@X a _ 8 4@2 y 5@l.J ,.5.$.!.3.2.f.i.D+h.i.P+X+2.3.!.$.6@T H x 6.y 2 4@& _ a X <+o.m+w+x+7@|@8@9@G+",
"        0@&.O.7.( 7 ~ 3 g t >.H P 5.#.!.4.(+1.2.2.2.1.|.4.).[.5.,.H E t g 3 ~ 7 ( a@O.&.*.0.R.b@=@c@d@e@f@G+",
"        g@Y R+a _ 8 ] 1 4 h@..F H P '.@.Y.).!.~.4.{.!.).Y.@.+.,.H >.i@j 4 1 z 8 j@a /.Y (.E.k@l@}@m@n@8@9@G+",
"        o@9.&.o a@( & z 2 4 j v E e.%.Q '._+#.#.#.#.#.@.'.Q %.H >...j U 2 ! ^ :+7.O.&.9.0.R.}+x+7@p@q@1@2@-.",
"        r@(.<+/.a 0 ( s@{ 2 f j t x B.H %.T Q R R Q Q ,.%.H :@E t g f 2 ! 7 9 V a =+Y (.E.t@~@u@c@v@w@^@x@,+",
"        y@0.P.K o a _ 9 z@! A@4 g h v E F B.H H %.H H J F x v i g 4 d.{ B@9 _ C@o D@E@!@R.c+ @7@p@F@G@;@>+>@",
"          H@*@n.&.O.a _ 9 ^ z 1 3 k g i 6.v I@E E w w v t h g y 3 1 { ^ J@:+a o &.9.o.m+w+[@u@m@v@K@L@+@@@#@",
"          M@N@b+n.&.o A _ 9 * ] ~ A@3 f k g j j i j j g W.f 3 2 ~ z & 9 _ a o &.n.o.N@t@}+ @7@O@P@Q@e@V+p+  ",
"          R@R.!@(.<+&.o a V ( 8 7 ] ~ 1 N 3 3 4 4 4 3 N 2 1 ~ 4@^ 8 9 0 a o &.<+D.!@R.c+x+S@T@U@V@G@W@F+G+  ",
"            X@R.!@D.n.&.o W 7.:+9 8 7 7 z { ~ ~ ~ l ~ ! ] ] ^ & ( _ 7.*+/.&.<+D.!@R.T+[@}@m@v@Y@Z@`@ #z+A+  ",
"            .#c+R.!@(.9.D@X O.a 7._ :+( & n ^ 7 7 7 ^ & 8 9 ( _ 7.a O.X K +#(.!@R.T+[@u@]@@#P@##$#8@o+p+    ",
"              %#c+&#E.*@*#<+&./.O.a A 0 _ )+( :+:+9 :+:+_ 0 A a =#/.&.<+P.o.E.R.c+[@u@]@O@F@-#;#`@;@e+f+    ",
"              >#,#c+t@m+0.(.*.Y &.X o =#a a A A A A a a *+O.'#X &.<+9.D.0.m+t@c+[@{@]@O@F@V@)#!#8@o+1+      ",
"                ~# @}+w+R.E.*@D.P.<+D@&.&.X R+o (@R+R+X X &.K <+P.(.0.E.R.w+}+x+}@]@O@F@V@{#]#L@ #>+f+      ",
"                  ^#=@l@c+t@R.E.0.o.D.P.n.<+<+Y <+Y <+<+n.*.D.o.0./#S+t@}+[@=@S@c@(#F@V@{#_#`@^@:#T.        ",
"                  <#[#u@x+~@c+k@R.[+E.!@0.o.b+(.(.(.o.o.-+0.E.[+R.<@c+[@x+u@]@T@@#P@-#}#|#`@1@V+1#<#        ",
"                    ` 2#7@{@x+[@}+T+k@R.R.[+[+m+m+m+S+S+R.R.<@c+~@l@ @{@S@m@p@U@3#-#}#|#`@8@4#5#`           ",
"                      -.6#m@7@}@7#x+l@~@}+c+w+T+c+w+w+c+}+~@[@x+7#}@7@c@p@v@P@V@8#9#0#`@8@a#b#-.            ",
"                        -.c#|@|@c@S@S@{@7#=@ @x+x+x+ @ @=@{@d#7@]@m@O@v@F@e###}#f#g#`@1@4#b#h#              ",
"                          -.i#j#@#p@T@m@c@]@k#7@7@7@]@]@c@m@T@O@@#U@Y@e###}#l#m#n#L@^@V+5#-.                ",
"                            ` G.o#p#F@U@v@q#(#@#(#O@@#@#q#U@F@r#e#-#8#}#s#t#u#`@8@ #:#1#`                   ",
"                              M T.>+v#w#x#e#e#3#3#3#Y@e#y#-###8#}#l#z#A#B#`@8@;@o+>+T.<#                    ",
"                                  ,+1+e+o+C#D#E#F#G#)#{#H#I#J#|#K#B#L@e@W@L#o+e+1+,+                        ",
"                                      f+p+z+F+o++@;@^@1@8@8@8@1@^@;@+@V+F+z+p+f+                            ",
"                                          A+G+p+@@>+/@2@9@f@9@2@/@>+@@p+G+A+                                ",
"                                                #@>@,+-.h#G+h#-.,+>@#@                                      "};
