/* XPM */
static char *blue_destroy2[] = {
"36 36 65 1",
"  c black",
". c #6e1b00",
"X c #6f2405",
"o c #7e7c65",
"O c #8c3107",
"+ c #8c3329",
"@ c #9d5614",
"# c #ac4a02",
"$ c #907d52",
"% c #867c67",
"& c #a25a4b",
"* c #d56c0e",
"= c #dd6e25",
"- c #ea7d04",
"; c #f37308",
": c #f77905",
"> c #97891c",
", c #948731",
"< c #af9408",
"1 c #b19f27",
"2 c #898259",
"3 c #93864d",
"4 c #878267",
"5 c #ab934b",
"6 c #b4a751",
"7 c #bab060",
"8 c #da8c06",
"9 c #d18a2d",
"0 c #c2a50c",
"q c #ea8c02",
"w c #fb8709",
"e c #ff8814",
"r c #fa9709",
"t c #ff9816",
"y c #ff9522",
"u c #f9a70a",
"i c #fea716",
"p c #f3b308",
"a c #fdba16",
"s c #fea825",
"d c #ffba22",
"f c #c69a44",
"g c #c9b34d",
"h c #d2b863",
"j c #fab952",
"k c #daca2a",
"l c #fcc816",
"z c #f7d115",
"x c #fed726",
"c c #f7d432",
"v c #fee727",
"b c #fdea35",
"n c #fff62d",
"m c #fff636",
"M c #d0c453",
"N c #d7cd66",
"B c #f3d556",
"V c #f5d36a",
"C c #f8e753",
"Z c #fff948",
"A c #fff95a",
"S c #f9ea6f",
"D c #fef868",
"F c #fdeb82",
"G c None",
"GGGGGGGGGGGGGGGGGGGGGGGGGGGGGGGGGGGG",
"GGGGGGGGGGGGGGGGGGGGGGGGGGGGGGGGGGGG",
"GGGGGGGGGGGGGGGGGGGGGGGGGGGGGGGGGGGG",
"GGGGGGGGGGGG3,1kccbck11,$GGGGGGGGGGG",
"GGGGGGGGGGG$6VACZZZZZADh624GGGGGGGGG",
"GGGGGGGGGG$fBBcbbmnvnmZADM34GGGGGGGG",
"GGGGGGGG%$5V988plzzzlxmmZAM54GGGGGGG",
"GGGGGGGG$fV&+#-qruaruuazmZDS,2GGGGGG",
"GGGGGGG$fV9++=eesaurqqqpxnZAN3oGGGGG",
"GGGGGG2>Cs-*=;ettrdstrqpzvnZD724GGGG",
"GGGGG$5DZcteye:wrtirttaulvvmAS54GGGG",
"GGGG%,BZvadse:wttrtewwtrilzmZAN2GGGG",
"GGGG2gAbzpirtewtsww;:wttiulnnZD3GGGG",
"GGG%$CZvpauqqttttwwew::trqalnmA6$GGG",
"GGG$6DZbaarqiwty::we:ew-wrupzvAN$GGG",
"GGG,NAvxprr-ttwe:w:e;w;trraaxbAN,GGG",
"GGG,NAmzxairwww:ee::eeettiulzbAF,GGG",
"GGG>SZmmxutwetee;;:e:yewtriaxxAS,GGG",
"GGG>SZnzxuiwe;we::e;eewwttipbbAS,GGG",
"GGG,VZnxldrtwwttw;:e:e:wiiiaxmAS,GGG",
"GGG,NAmzlairst:w:::t:;:wiuapxbDN,GGG",
"GGG27Abzlurqtww:weeetetwwiplvZAh3GGG",
"GGG%3BZvlpurrtt::e:wtwt-iiapxbD6%GGG",
"GGGG2fDbllaaitswe;;tww-ridaxmZB34GGG",
"GGGG%,Scplpdu-wtwwwwttriiipzmAM2GGGG",
"GGGGG$hAxlairrttttwttqiipalnZD3oGGGG",
"GGGGG43MAxliqtwwyyysttialalmA72GGGGG",
"GGGGGG$5DZxarye;e=***erllzmAB2GGGGGG",
"GGGGGG%36CZaqq**#OO##-qaxbAB,%GGGGGG",
"GGGGGGG%3gDZl8##OX.O#*rcASN62GGGGGGG",
"GGGGGGGG43gSDSj9@.@@9jjgg534GGGGGGGG",
"GGGGGGGGG%23hNSSSSSFh5$$44%GGGGGGGGG",
"GGGGGGGGGGG%3,><<0<<>$$%GGGGGGGGGGGG",
"GGGGGGGGGGGGGGGGGGGGGGGGGGGGGGGGGGGG",
"GGGGGGGGGGGGGGGGGGGGGGGGGGGGGGGGGGGG",
"GGGGGGGGGGGGGGGGGGGGGGGGGGGGGGGGGGGG"
};
