/* XPM */
static char *brown_destroy3[] = {
"36 36 65 1",
"  c black",
". c #7a4a08",
"X c #7f7f67",
"o c #986726",
"O c #947238",
"+ c #907a52",
"@ c #8a7d66",
"# c #987862",
"$ c #a07e41",
"% c #c47706",
"& c #e56200",
"* c #ea7800",
"= c #f77c04",
"- c #958631",
"; c #b28614",
": c #ae8f32",
"> c #90844f",
", c #868266",
"< c #ae9447",
"1 c #b3ad52",
"2 c #d8940a",
"3 c #ca9b29",
"4 c #d7a516",
"5 c #d3b02e",
"6 c #ed8901",
"7 c #eb9703",
"8 c #eb9b13",
"9 c #fa8708",
"0 c #ff8b12",
"q c #fa960b",
"w c #ff9814",
"e c #eaa806",
"r c #f9a70b",
"t c #fda816",
"y c #f5b30d",
"u c #feb617",
"i c #eeac3a",
"p c #fea622",
"a c #feb828",
"s c #c69b54",
"d c #cfb14a",
"f c #c1bb65",
"g c #ebb44d",
"h c #d6c633",
"j c #fec919",
"k c #fad419",
"l c #ffc827",
"z c #faca32",
"x c #ffd92a",
"c c #ffd937",
"v c #ffe31f",
"b c #ffe42a",
"n c #ffe53a",
"m c #fff53a",
"M c #d1c54f",
"N c #dcc966",
"B c #f8d652",
"V c #f6dc65",
"C c #ffec47",
"Z c #fcea57",
"A c #fff448",
"S c #fff755",
"D c #f7f066",
"F c #f9e967",
"G c None",
"GGGGGGGGGGGGGGGGGGGGGGGGGGGGGGGGGGGG",
"GGGGGGGGGGGGGGGGGGGGGGGGGGGGGGGGGGGG",
"GGGGGGGGGGGGGGGGGGGGGGGGGGGGGGGGGGGG",
"GGGGGGGGGGGGG#O;44nhh5:+@GGGGGGGGGGG",
"GGGGGGGGGGGGG+sBZCCAASFN>>XGGGGGGGGG",
"GGGGGGGGGGGG#oiauljzlcSSSd-,GGGGGGGG",
"GGGGGGGGGGG+o%87ue77eyyxASN>,GGGGGGG",
"GGGGGGGGGG+.;allrtlxxut7lCSF-,GGGGGG",
"GGGGGGG@#Ooiacltq6quut*qtkmSF>GGGGGG",
"GGGGGG@$gi8pwaqt009660=p6uxAS1>GGGGG",
"GGGGG@<iztww6099=0=09==96tuxSF<@GGGG",
"GGGG@$3Byr*9w=999qqq90=9awulAAM>GGGG",
"GGGG+dBluww9=0wwtuqqw9999*w7yCD>GGGG",
"GGG@>Bnjuw*90wwatrrpww099=qtznZ1,GGG",
"GGG+<Cvytq0909tttruuqww9999qexSf>GGG",
"GGG-dAbjq6090qwquuycrtt999qtyxAM-GGG",
"GGG-VAbu6999wqqayeyyurq099=qrkAF-GGG",
"GGG-FAk79==0watrujjjeutq090qrjCF-GGG",
"GGG-VAxt9=9wqqrzuejjjrqw09=tayAD-GGG",
"GGG-NCku6*9aqqur7yeyy7wt9=0ttxAF-GGG",
"GGG-NSmuqp96artruuuuutqw9=*6ybSN-GGG",
"GGG,>Zbutw*=00wquuyrt9699=0tubSf>GGG",
"GGGG+MAutw=9099rruu7wp9w900rymS<@GGG",
"GGGG,:Fcy600=0wq66ww909===wyxAB>GGGG",
"GGGG@>gzlw**0=9qqqwww==000wemCd>GGGG",
"GGGGG+szjlww=&=9qtr7q909w09eCD-,GGGG",
"GGGGGGO3cezp*997lnnzt90w9*7xS1>GGGGG",
"GGGGGG#:Bl26ttlxxbmmx6w96rcSB>GGGGGG",
"GGGGGGG+<ZC7tuclxxbAnu7q6CZF-,GGGGGG",
"GGGGGGGG>dBce2t888aa8e2eZVN+,GGGGGGG",
"GGGGGGGGG>:gBgi8%%%%4iVBd<>@GGGGGGGG",
"GGGGGGGGG@++>sggBBBVd<$+@GGGGGGGGGGG",
"GGGGGGGGGGGGG+O;352;;-+@GGGGGGGGGGGG",
"GGGGGGGGGGGGGGGGGGGGGGGGGGGGGGGGGGGG",
"GGGGGGGGGGGGGGGGGGGGGGGGGGGGGGGGGGGG",
"GGGGGGGGGGGGGGGGGGGGGGGGGGGGGGGGGGGG"
};
