/* XPM */
static char * brown_xpm[] = {
"54 54 414 2",
"  	c None",
". 	c #B1A59D",
"+ 	c #AF9887",
"@ 	c #AB8D77",
"# 	c #A9846B",
"$ 	c #A77D61",
"% 	c #A5795B",
"& 	c #A47658",
"* 	c #A4785A",
"= 	c #A57A5D",
"- 	c #A58067",
"; 	c #A88972",
"> 	c #AA9282",
", 	c #AEA29A",
"' 	c #AD917D",
") 	c #A97F63",
"! 	c #A87A5C",
"~ 	c #A87C5E",
"{ 	c #A6785A",
"] 	c #A57759",
"^ 	c #A47858",
"/ 	c #A07456",
"( 	c #9C7256",
"_ 	c #9F765B",
": 	c #A58975",
"< 	c #ADA097",
"[ 	c #B0A298",
"} 	c #AA8772",
"| 	c #A97D5F",
"1 	c #AA7E60",
"2 	c #AC8062",
"3 	c #AB8063",
"4 	c #AC8162",
"5 	c #A77B5B",
"6 	c #A27658",
"7 	c #9F7457",
"8 	c #9B7155",
"9 	c #986F54",
"0 	c #9F7B63",
"a 	c #A7978D",
"b 	c #B3ABA5",
"c 	c #AC8C76",
"d 	c #AC8164",
"e 	c #AF8365",
"f 	c #AE8366",
"g 	c #B08568",
"h 	c #AF8467",
"i 	c #AE8264",
"j 	c #A97D5D",
"k 	c #A77859",
"l 	c #A57959",
"m 	c #A07558",
"n 	c #946C52",
"o 	c #9C7C66",
"p 	c #A7A09B",
"q 	c #AF9B8D",
"r 	c #AA7C5E",
"s 	c #B2876A",
"t 	c #B1876B",
"u 	c #B2886C",
"v 	c #B3886B",
"w 	c #AD8163",
"x 	c #A7795B",
"y 	c #9A7054",
"z 	c #906B52",
"A 	c #9D897D",
"B 	c #AD917F",
"C 	c #B3896D",
"D 	c #B48A6E",
"E 	c #B68E70",
"F 	c #B78D71",
"G 	c #B88F70",
"H 	c #B68C70",
"I 	c #91694F",
"J 	c #AC779C",
"K 	c #BBBBBB",
"L 	c #AB7F61",
"M 	c #B98F73",
"N 	c #BA9274",
"O 	c #BA9074",
"P 	c #B99075",
"Q 	c #BA9176",
"R 	c #BA8E74",
"S 	c #AD8263",
"T 	c #A17557",
"U 	c #976E53",
"V 	c #926A50",
"W 	c #90684E",
"X 	c #A16E85",
"Y 	c #B6B6B6",
"Z 	c #AA8B76",
"` 	c #B2886A",
" .	c #BB9277",
"..	c #BD9479",
"+.	c #BE957A",
"@.	c #BF967B",
"#.	c #B88E72",
"$.	c #B58A6D",
"%.	c #906A50",
"&.	c #8D654B",
"*.	c #9C6E7D",
"=.	c #B2B2B2",
"-.	c #AC907E",
";.	c #B3876D",
">.	c #BF977D",
",.	c #C1987D",
"'.	c #C1997F",
").	c #C2997E",
"!.	c #C0967C",
"~.	c #BE967C",
"{.	c #B88F74",
"].	c #936B51",
"^.	c #8B6349",
"/.	c #A0708E",
"(.	c #AE998C",
"_.	c #BE947A",
":.	c #C19A7D",
"<.	c #C39A81",
"[.	c #C49E84",
"}.	c #C59F85",
"|.	c #C39B81",
"1.	c #C29A80",
"2.	c #BC9378",
"3.	c #B18669",
"4.	c #946B52",
"5.	c #8E664C",
"6.	c #8B6247",
"7.	c #9E7B94",
"8.	c #B2A9A4",
"9.	c #C6A086",
"0.	c #C8A388",
"a.	c #C9A389",
"b.	c #C8A288",
"c.	c #C79F85",
"d.	c #B98D73",
"e.	c #B2866C",
"f.	c #AC7F64",
"g.	c #A37557",
"h.	c #8A6248",
"i.	c #896045",
"j.	c #9A8E97",
"k.	c #AA8872",
"l.	c #C69E84",
"m.	c #CBA389",
"n.	c #CCA78C",
"o.	c #CDA78D",
"p.	c #CCA48C",
"q.	c #CCA68C",
"r.	c #C39D83",
"s.	c #BB9477",
"t.	c #B58B6F",
"u.	c #8D6449",
"v.	c #836A59",
"w.	c #9E9E9E",
"x.	c #AF9F95",
"y.	c #BB9175",
"z.	c #CDA88D",
"A.	c #CFA98F",
"B.	c #D0AB92",
"C.	c #D1AB91",
"D.	c #CDA58D",
"E.	c #BB9375",
"F.	c #966D52",
"G.	c #896147",
"H.	c #875D41",
"I.	c #91798A",
"J.	c #A8A8A8",
"K.	c #A6826A",
"L.	c #BF987B",
"M.	c #CBA38B",
"N.	c #CDA88F",
"O.	c #D1AC93",
"P.	c #D3AC95",
"Q.	c #D4AF96",
"R.	c #D3AE95",
"S.	c #CEA98E",
"T.	c #CBA58B",
"U.	c #BE957C",
"V.	c #966E54",
"W.	c #916B51",
"X.	c #806452",
"Y.	c #929292",
"Z.	c #B5B5B5",
"`.	c #B0A29A",
" +	c #9D7357",
".+	c #B5896F",
"++	c #C0977C",
"@+	c #CAA48A",
"#+	c #CEA88E",
"$+	c #D7B197",
"%+	c #D8B39A",
"&+	c #D8B19A",
"*+	c #D6B198",
"=+	c #C49C82",
"-+	c #BC9278",
";+	c #9E7356",
">+	c #8F674D",
",+	c #885F44",
"'+	c #845A3E",
")+	c #897784",
"!+	c #A2A2A2",
"~+	c #A88A76",
"{+	c #D4AE94",
"]+	c #D9B49B",
"^+	c #DBB79D",
"/+	c #DDB89F",
"(+	c #DBB69D",
"_+	c #DBB59B",
":+	c #C7A187",
"<+	c #C59F83",
"[+	c #997055",
"}+	c #8C6348",
"|+	c #7A6658",
"1+	c #8F8F8F",
"2+	c #B4B4B4",
"3+	c #A0765A",
"4+	c #DFBAA1",
"5+	c #E1BCA3",
"6+	c #DFB8A1",
"7+	c #DDB79D",
"8+	c #805B42",
"9+	c #7F7F7F",
"0+	c #A5A5A5",
"a+	c #AEA19A",
"b+	c #D5B197",
"c+	c #DDB89D",
"d+	c #E3BEA3",
"e+	c #E6C0A6",
"f+	c #855B3F",
"g+	c #82573A",
"h+	c #80707B",
"i+	c #969696",
"j+	c #B9B9B9",
"k+	c #A99181",
"l+	c #C9A489",
"m+	c #C8A088",
"n+	c #796462",
"o+	c #888888",
"p+	c #B0B0B0",
"q+	c #A4846E",
"r+	c #C79F87",
"s+	c #DAB59C",
"t+	c #DDB59B",
"u+	c #D9B29B",
"v+	c #D3AF95",
"w+	c #D0AA90",
"x+	c #C8A086",
"y+	c #C59D83",
"z+	c #B58C71",
"A+	c #875E43",
"B+	c #796251",
"C+	c #7E7E7E",
"D+	c #A6A6A6",
"E+	c #A0785E",
"F+	c #C69E86",
"G+	c #D4AF94",
"H+	c #815639",
"I+	c #7C5C46",
"J+	c #777777",
"K+	c #9B9B9B",
"L+	c #986F56",
"M+	c #D4AD96",
"N+	c #AD8265",
"O+	c #AB8061",
"P+	c #805538",
"Q+	c #7C563C",
"R+	c #737373",
"S+	c #B8B8B8",
"T+	c #916951",
"U+	c #C1977B",
"V+	c #8A6146",
"W+	c #83593D",
"X+	c #7D5235",
"Y+	c #6E6E6E",
"Z+	c #8C8C8C",
"`+	c #936A51",
" @	c #C49E82",
".@	c #B58D6F",
"+@	c #8C644A",
"@@	c #83583B",
"#@	c #7F5437",
"$@	c #7C5032",
"%@	c #686868",
"&@	c #878787",
"*@	c #B18869",
"=@	c #BD9577",
"-@	c #AB7D5F",
";@	c #7F5335",
">@	c #676767",
",@	c #848484",
"'@	c #926D54",
")@	c #855A3D",
"!@	c #7E5234",
"~@	c #7A543A",
"{@	c #656565",
"]@	c #838383",
"^@	c #96725A",
"/@	c #AE8468",
"(@	c #B38769",
"_@	c #9D7255",
":@	c #865C40",
"<@	c #84593C",
"[@	c #7D5133",
"}@	c #775741",
"|@	c #9F7C65",
"1@	c #885E42",
"2@	c #7B4F31",
"3@	c #745C4C",
"4@	c #A38A79",
"5@	c #A4765A",
"6@	c #7A4C2E",
"7@	c #6E5E54",
"8@	c #8B8B8B",
"9@	c #AB9D95",
"0@	c #A97B5F",
"a@	c #996F53",
"b@	c #8F694F",
"c@	c #8C634A",
"d@	c #784A2C",
"e@	c #6C6264",
"f@	c #8B674F",
"g@	c #B3896B",
"h@	c #A27758",
"i@	c #82583C",
"j@	c #775135",
"k@	c #626262",
"l@	c #9C7D68",
"m@	c #895F45",
"n@	c #7C4E30",
"o@	c #715B4D",
"p@	c #A89B92",
"q@	c #8E684E",
"r@	c #794B2D",
"s@	c #774829",
"t@	c #6C6263",
"u@	c #6C6C6C",
"v@	c #90715A",
"w@	c #794A2B",
"x@	c #735541",
"y@	c #606060",
"z@	c #747474",
"A@	c #A39187",
"B@	c #8D644B",
"C@	c #7B4D2F",
"D@	c #764728",
"E@	c #6A5F5E",
"F@	c #8F705D",
"G@	c #865D42",
"H@	c #956D53",
"I@	c #715745",
"J@	c #727272",
"K@	c #A59D97",
"L@	c #936D53",
"M@	c #754729",
"N@	c #686264",
"O@	c #998475",
"P@	c #744526",
"Q@	c #6C5E56",
"R@	c #8E7462",
"S@	c #8A6044",
"T@	c #7A4E30",
"U@	c #6F594B",
"V@	c #858585",
"W@	c #A4A4A4",
"X@	c #856B59",
"Y@	c #7D4F31",
"Z@	c #734425",
"`@	c #705746",
" #	c #9D9D9D",
".#	c #BABABA",
"+#	c #A0A0A0",
"@#	c #836957",
"##	c #7E5336",
"$#	c #77492B",
"%#	c #7B7B7B",
"&#	c #979797",
"*#	c #886B65",
"=#	c #754627",
"-#	c #724324",
";#	c #7A7A7A",
">#	c #949494",
",#	c #9A748F",
"'#	c #7B5033",
")#	c #78492A",
"!#	c #724426",
"~#	c #6B5E55",
"{#	c #B1B1B1",
"]#	c #998C95",
"^#	c #7A604E",
"/#	c #715543",
"(#	c #676162",
"_#	c #8E7587",
":#	c #795B47",
"<#	c #794D2F",
"[#	c #72533E",
"}#	c #6A5E5B",
"|#	c #877482",
"1#	c #745E50",
"2#	c #774F35",
"3#	c #76482A",
"4#	c #72492E",
"5#	c #70594A",
"6#	c #6A6061",
"7#	c #7B6C75",
"8#	c #706056",
"9#	c #735A49",
"0#	c #74523C",
"a#	c #734B31",
"b#	c #734729",
"c#	c #744A2E",
"d#	c #735039",
"e#	c #6E5E52",
"f#	c #6B6061",
"g#	c #757575",
"                                                                                                            ",
"                                                                                                            ",
"                                                                                                            ",
"                                                                                                            ",
"                                          . + @ # $ % & * = - ; > ,                                         ",
"                                    . ' ) ! ~ ~ ~ ~ ~ ! { { ] ^ / ( _ : <                                   ",
"                                [ } ~ | 1 2 2 2 2 2 3 4 1 | ~ 5 ] 6 7 8 9 0 a                               ",
"                            b c ~ 1 2 d e f f g g g h f i d 3 1 j k l m ( 9 n o p                           ",
"                          q | r 2 d f g s t s u u v v s s g e w 2 | x ] m ( y n z A                         ",
"                        B ! 1 2 e g s C D E F F F G H H D C t g e 2 1 ! ] m ( 9 n I J K                     ",
"                      c ! L 2 f s v D F M N O P Q P R M M F D C s h S 1 ! ] T 8 U V W X Y                   ",
"                    Z ! 1 2 h ` C F M P  ...+.@.@.+.+... .O #.F $.t h 2 1 ! & / y n %.&.*.=.                ",
"                  -.{ | 2 h t ;.F M  ...@.>.,.'.).'.,.!.~.+. .{.F $.s h 2 | { 6 ( 9 ].W ^./.=.              ",
"                (.] ~ 2 e t $.F O  ._.:.).<.[.}.}.}.[.|.1.>.~.2.O G $.3.e 2 ~ ] / 8 4.I 5.6.7.=.            ",
"              8.* x 1 i g C H M 2.@.,.|.}.9.0.a.a.a.b.c.}.|.,.@.2.d.F e.g f.1 { g.( 9 ].5.h.i.j.Y           ",
"              k.] ! 3 f t D M  .~.,.<.l.b.m.n.n.o.p.q.m.b.l.r.'.~.s.M t.t e 3 ~ ] 7 8 n I u.i.v.w.K         ",
"            x.6 { | w g C F y.+.>.|.l.a.q.z.A.B.B.C.A.D.q.a.l.|.>...E.F u g w | { T 8 F.%.&.G.H.I.J.        ",
"            K.^ 5 L i 3.D {. .L.).}.b.M.N.O.P.Q.Q.R.R.O.S.T.0.}.1.U. .M $.s e L x & ( V.W.5.h.H.X.Y.Z.      ",
"          `. +& ! L f s .+M ..++r.c.@+#+C.R.$+%+&+%+*+P.B.#+m.c.=+++-+M t.s f 2 ! * ;+9 V >+h.,+'+)+!+      ",
"          ~+;+] ~ 4 h s H O +.,.[.b.q.A.{+*+]+^+/+(+_+*+{+A.q.:+<+,.+.O F u h 3 ~ ] / [+].>+}+,+'+|+1+2+    ",
"          3+7 ] r 2 h C F y.~.1.}.a.q.B.{+%+(+4+5+6+7+%+{+B.q.a.}.).~.E.F u g 2 ~ ] 7 y n W h.,+'+8+9+0+    ",
"        a+y ;+] r 2 h C #.Q @.).}.a.o.C.b+]+c+d+e+5+/+]+Q.C.z.a.}.1.+.Q #.v g 2 ~ ] / y ].W ^.,+f+g+h+i+j+  ",
"        k+y ;+] ~ 2 g C F P +.).}.l+n.B.Q.%+(+4+d+4+7+%+{+B.n.m+}.1.+.Q F C g 2 ~ * / y ].W ^.,+f+g+n+o+p+  ",
"        q+y ;+] ~ 2 h u F P +.,.[.r+q.A.R.$+s+(+c+t+u+*+v+w+q.x+y+,.+.P z+u h 2 ~ ] ;+y ].>+h.A+'+g+B+C+D+  ",
"        E+9 ;+& ! 2 f s E M ..>.|.F+@+o.B.G+$+%+]+%+$+P.C.S.@+c.=+!...d.H t f 2 ! & ( y V >+h.,+'+H+I+J+K+K ",
"        L+U ( & { L i s $.#. .U.1.}.b.q.#+C.{+Q.M+{+P.B.#+q.b.}.1.@. .M D s N+O+x 6 ( V.W.5.6.H.'+P+Q+R+Y.S+",
"        T+F.8 m { | w g C F O ..U+<.}.a.q.o.A.B.B.B.w+o.q.a.l.|.>...P F C g 2 | { m 8 F.I &.V+H.W+P+X+Y+Z+Z.",
"        I `+y / ] ~ 2 e s t.#.Q @.'. @}.b.T.q.n.q.q.q.m.b.l.=+,.@.Q M .@` h 2 ~ ] / y n W +@i.f+@@#@$@%@&@=.",
"        %.V 9 ( 6 x 1 w *@e.H M 2.@.,.|.}.9.b.m+a.b.x+F+}.|.,.@.=@M F v 3.w -@x & ( 9 V >+h.,+f+g+;@$@>@,@p+",
"        '@%.F.8 / ] ~ 2 e s ;.F N 2.+.,.1.=+[.}.}.}.[.<.1.>._.2.M F C s e 2 ~ ] / 8 F.I &.6.H.)@P+!@~@{@]@p+",
"        ^@W ].9 ( 6 { r 2 /@` $.F N  ...L.>.,.'.1.).,.>.L... .M F ;.(@h 2 | x 6 _@9 ].W ^.i.:@<@#@[@}@>@,@p+",
"        |@5.%.n 8 / & x 1 2 h s C H #.O  .-++.+.+.+.+... .P #.F ;.` h S 1 ! ] ;+8 F.%.5.6.1@'+g+;@2@3@%@&@=.",
"        4@^.>+].9 8 T 5@! 1 d h s v t.F #.M P y.y.P O M #.F .@C s f d 1 ! ] m 8 9 W.W ^.i.:@W+#@!@6@7@Y+8@Z.",
"        9@6.&.I n 9 ( m ] ! 0@2 e g s C D t.F F #.F F H D v s g e 2 1 ! l m ( a@n b@c@V+A+'+H+;@2@d@e@R+Y.S+",
"          f@6.5.I F.9 ( m ] x | 2 i f g 3.s g@C C u u s s g f w 3 | ! ] h@;+9 n %.5.h.,+f+i@#@[@6@j@k@J+K+K ",
"          l@m@}+5.%.n y ( m * { ~ 0@2 d N+f h h g h h f i d 2 1 ~ x & m ( 9 n I 5.h.m@:@'+H+;@n@d@o@{@C+D+  ",
"          p@H.V+^.q@%.n 9 8 / 6 ] { ~ | L 2 3 2 2 2 2 L 1 | ~ x ] 6 7 8 9 n %.>++@V+H.'+g+;@$@r@s@t@u@o+p+  ",
"            v@H.V++@5.%.n U 8 ;+m 6 ] ] x ! ~ ~ ~ j ~ ! { { ] & / ( 8 V.].%.>++@V+A+'+@@#@[@6@w@x@y@z@i+j+  ",
"            A@'+A+V+^.5.b@V F.9 8 ( ;+T & l ] ] ] ] ] & 6 m / ( 8 9 F.V I B@^.V+A+'+@@#@!@C@d@D@E@>@9+0+    ",
"              F@'+G@i.6.+@>+%.].F.9 y 8 (  +/ ;+;+7 ;+;+( 8 y 9 H@].%.>+&.h.i.H.'+@@#@!@n@d@D@I@y@J@1+2+    ",
"              K@'+'+:@,+6.^.&.W %.V n H@9 9 y y y y 9 9 V.F.L@V %.>+5.+@6.,+:@'+@@P+!@n@d@s@M@N@>@9+!+      ",
"                O@H+'+f+A+i.6.+@&.q@b@I %.V ].n `+].].V V I I >+&.^.6.i.A+f+'+g+#@!@n@d@s@P@Q@k@z@Y.2+      ",
"                  R@P+<@'+:@1@i.6.h.+@&.5.q@>+W >+W >+q@5.&.+@h.6.S@A+:@'+i@P+;@!@T@d@s@P@U@y@Y+V@J.        ",
"                  W@X@#@g+W+'+:@A+,+i.V+6.h.}+^.^.^.h.h.h.6.i.,+A+f+'+i@g+#@!@Y@C@d@D@Z@`@y@%@C+ #.#        ",
"                    +#@#;@P+g+i@'+'+:@H.H.,+,+,+,+,+A+A+A+H.f+'+W+<@H+P+##[@2@r@$#D@Z@`@y@>@%#&#Y           ",
"                      =.*#[@;@#@H+g+<@W+'+'+f+'+'+f+f+'+'+W+@@g+H+#@;@!@2@6@d@s@=#-#U@y@>@;#>#=.            ",
"                        =.,#'#$@!@####P+H+P+H+g+g+g+H+H+P+P+##;@!@[@n@6@d@)#D@Z@!#~#y@%@%#>#{#              ",
"                          =.]#^#C@2@$@[@!@!@;@;@;@;@!@!@!@[@$@n@C@r@w@)#D@Z@-#/#(#k@Y+C+&#=.                ",
"                            Y w._#:#d@r@6@<#T@C@T@n@C@C@<#r@d@d@)#D@=#Z@-#[#}#y@>@z@V@ #Y                   ",
"                              K J.Y.|#1#2#)#)#$#$#$#w@)#3#D@D@=#Z@-#4#5#6#y@>@J@9+Y.J..#                    ",
"                                  Z.!+1+9+7#8#9#0#a#M@P@b#c#d#`@e#f#k@{@u@g#9+1+!+Z.                        ",
"                                      2+D+i+o+9+J+R+Y+%@>@>@>@%@Y+R+J+C+o+i+0+2+                            ",
"                                          j+p+D+K+Y.Z+&@,@]@,@&@Z+Y.K+D+p+j+                                ",
"                                                K S+Z.=.{#p+{#=.Z.S+K                                       "};
