/* XPM */
static char * brown_jump5_xpm[] = {
"54 54 410 2",
"  	c None",
". 	c #ADA199",
"+ 	c #AC9482",
"@ 	c #A98A73",
"# 	c #A78167",
"$ 	c #A57A5D",
"% 	c #A17659",
"& 	c #A07456",
"* 	c #A07558",
"= 	c #A2775A",
"- 	c #A37D63",
"; 	c #A6866E",
"> 	c #A78F7F",
", 	c #AA9E96",
"' 	c #AA8E7A",
") 	c #A67C60",
"! 	c #A57759",
"~ 	c #A6785A",
"{ 	c #A27658",
"] 	c #A17557",
"^ 	c #A07556",
"/ 	c #9C7154",
"( 	c #986F54",
"_ 	c #9B7359",
": 	c #A28672",
"< 	c #A99C93",
"[ 	c #AC9E94",
"} 	c #A8846E",
"| 	c #A7795B",
"1 	c #A87A5C",
"2 	c #AA7C5E",
"3 	c #A97D5F",
"4 	c #AA7E5E",
"5 	c #A47858",
"6 	c #9E7356",
"7 	c #9B7155",
"8 	c #976E53",
"9 	c #946C52",
"0 	c #9C7860",
"a 	c #A49388",
"b 	c #AFA7A1",
"c 	c #A98973",
"d 	c #AA7E60",
"e 	c #AD7F61",
"f 	c #AC8062",
"g 	c #AE8264",
"h 	c #AD8163",
"i 	c #AC7E60",
"j 	c #A77A59",
"k 	c #A37557",
"l 	c #A17657",
"m 	c #9C7256",
"n 	c #906A50",
"o 	c #997963",
"p 	c #A39C97",
"q 	c #AB9789",
"r 	c #A8795A",
"s 	c #B08466",
"t 	c #AF8467",
"u 	c #B08568",
"v 	c #B18567",
"w 	c #AB7D5F",
"x 	c #A47658",
"y 	c #966D52",
"z 	c #8C6850",
"A 	c #9B8679",
"B 	c #AB8E7B",
"C 	c #B18669",
"D 	c #B2876A",
"E 	c #B48B6C",
"F 	c #B58A6D",
"G 	c #B68B6C",
"H 	c #B4896C",
"I 	c #8D674D",
"J 	c #AC779C",
"K 	c #BBBBBB",
"L 	c #A97B5D",
"M 	c #B78C6F",
"N 	c #B88F70",
"O 	c #B88D70",
"P 	c #B78D71",
"Q 	c #B88E72",
"R 	c #B88B70",
"S 	c #AB7F5F",
"T 	c #9D7255",
"U 	c #936B51",
"V 	c #8E684E",
"W 	c #8C664C",
"X 	c #A06D84",
"Y 	c #B6B6B6",
"Z 	c #A78873",
"` 	c #B08566",
" .	c #B98F73",
"..	c #BA9074",
"+.	c #BB9175",
"@.	c #BC9276",
"#.	c #B68B6E",
"$.	c #B38769",
"%.	c #8C674E",
"&.	c #896349",
"*.	c #9B6C7C",
"=.	c #B2B2B2",
"-.	c #AA8D7A",
";.	c #B18469",
">.	c #BC9378",
",.	c #BE9478",
"'.	c #BE957A",
").	c #BF9579",
"!.	c #BD9177",
"~.	c #BB9277",
"{.	c #B68C70",
"].	c #8F694F",
"^.	c #876147",
"/.	c #A0708E",
"(.	c #AB9587",
"_.	c #BB8F75",
":.	c #BE9678",
"<.	c #C0967C",
"[.	c #C1997F",
"}.	c #C29A80",
"|.	c #C0977C",
"1.	c #BF967B",
"2.	c #AF8365",
"3.	c #906850",
"4.	c #8A644A",
"5.	c #875F45",
"6.	c #9E7B94",
"7.	c #AEA5A0",
"8.	c #C39B81",
"9.	c #C59F83",
"0.	c #C69E84",
"a.	c #C59D83",
"b.	c #C49B80",
"c.	c #B78A6F",
"d.	c #B08368",
"e.	c #AA7C60",
"f.	c #9F7355",
"g.	c #866046",
"h.	c #855D43",
"i.	c #9A8E97",
"j.	c #A8856E",
"k.	c #C39A7F",
"l.	c #C89F84",
"m.	c #C9A387",
"n.	c #CAA288",
"o.	c #C9A087",
"p.	c #C9A187",
"q.	c #C0987E",
"r.	c #B99173",
"s.	c #B3886B",
"t.	c #896147",
"u.	c #806756",
"v.	c #9E9E9E",
"w.	c #AB9B91",
"x.	c #B98E71",
"y.	c #CAA488",
"z.	c #CCA48A",
"A.	c #CDA78D",
"B.	c #CEA68C",
"C.	c #CAA188",
"D.	c #B99071",
"E.	c #926A50",
"F.	c #855F45",
"G.	c #845B40",
"H.	c #91798A",
"I.	c #A8A8A8",
"J.	c #A47F66",
"K.	c #BC9476",
"L.	c #C89F86",
"M.	c #CAA48A",
"N.	c #CEA88E",
"O.	c #D1A88F",
"P.	c #D1AB91",
"Q.	c #D1A98F",
"R.	c #CBA589",
"S.	c #C8A086",
"T.	c #BB9177",
"U.	c #926C52",
"V.	c #8D684F",
"W.	c #7C6250",
"X.	c #929292",
"Y.	c #B5B5B5",
"Z.	c #AC9E96",
"`.	c #997055",
" +	c #B3866B",
".+	c #BD9377",
"++	c #C79F85",
"@+	c #CBA389",
"#+	c #D5AC91",
"$+	c #D6AE94",
"%+	c #D6AD94",
"&+	c #D3AD93",
"*+	c #C1987D",
"=+	c #B98D73",
"-+	c #9A7054",
";+	c #8B654B",
">+	c #81583D",
",+	c #897784",
"'+	c #A2A2A2",
")+	c #A68772",
"!+	c #D7AF95",
"~+	c #D9B397",
"{+	c #DBB399",
"]+	c #D9B197",
"^+	c #D9B095",
"/+	c #C49C82",
"(+	c #C29B7E",
"_+	c #956D53",
":+	c #886046",
"<+	c #766356",
"[+	c #8F8F8F",
"}+	c #B4B4B4",
"|+	c #9C7358",
"1+	c #DDB59B",
"2+	c #DFB79D",
"3+	c #DDB49B",
"4+	c #DBB297",
"5+	c #7D5941",
"6+	c #7F7F7F",
"7+	c #A5A5A5",
"8+	c #AA9D96",
"9+	c #D3AD91",
"0+	c #DBB497",
"a+	c #E1BA9D",
"b+	c #E4BBA0",
"c+	c #82593E",
"d+	c #7F5539",
"e+	c #80707B",
"f+	c #969696",
"g+	c #B9B9B9",
"h+	c #A78E7D",
"i+	c #C6A084",
"j+	c #C59C83",
"k+	c #776260",
"l+	c #888888",
"m+	c #B0B0B0",
"n+	c #A2806A",
"o+	c #C49B82",
"p+	c #D7B197",
"q+	c #DBB195",
"r+	c #D7AE95",
"s+	c #D1AB8F",
"t+	c #CEA58A",
"u+	c #C59C81",
"v+	c #C2997E",
"w+	c #B3896D",
"x+	c #845C42",
"y+	c #766050",
"z+	c #7E7E7E",
"A+	c #A6A6A6",
"B+	c #9C765C",
"C+	c #C39A81",
"D+	c #7E5438",
"E+	c #795A45",
"F+	c #777777",
"G+	c #9B9B9B",
"H+	c #946C54",
"I+	c #D1A991",
"J+	c #AB7F61",
"K+	c #A97D5D",
"L+	c #7D5337",
"M+	c #79543B",
"N+	c #737373",
"O+	c #B8B8B8",
"P+	c #8D664F",
"Q+	c #BE9376",
"R+	c #865E44",
"S+	c #80573C",
"T+	c #7A5034",
"U+	c #6E6E6E",
"V+	c #8C8C8C",
"W+	c #8F674F",
"X+	c #C19A7D",
"Y+	c #B3896B",
"Z+	c #886248",
"`+	c #80563A",
" @	c #7C5236",
".@	c #794E31",
"+@	c #676767",
"@@	c #878787",
"#@	c #AF8465",
"$@	c #BA9072",
"%@	c #A97A5B",
"&@	c #7C5134",
"*@	c #666666",
"=@	c #848484",
"-@	c #8E6A52",
";@	c #82583C",
">@	c #7B5033",
",@	c #775239",
"'@	c #646464",
")@	c #838383",
"!@	c #926F58",
"~@	c #AC8164",
"{@	c #B18365",
"]@	c #996F53",
"^@	c #835A3F",
"/@	c #81573B",
"(@	c #7A4F32",
"_@	c #745540",
":@	c #9C7962",
"<@	c #855C41",
"[@	c #784D30",
"}@	c #725A4A",
"|@	c #A08776",
"1@	c #A07358",
"2@	c #774B2D",
"3@	c #6C5C52",
"4@	c #8B8B8B",
"5@	c #A79991",
"6@	c #A7785B",
"7@	c #956C51",
"8@	c #8B664D",
"9@	c #886048",
"0@	c #75492B",
"a@	c #6A6062",
"b@	c #87644D",
"c@	c #B18667",
"d@	c #9E7556",
"e@	c #7F563B",
"f@	c #744F34",
"g@	c #616161",
"h@	c #997A65",
"i@	c #855C43",
"j@	c #794D2F",
"k@	c #6F594B",
"l@	c #A4978E",
"m@	c #8A654C",
"n@	c #764A2C",
"o@	c #744628",
"p@	c #6A6061",
"q@	c #6C6C6C",
"r@	c #8C6E58",
"s@	c #76482A",
"t@	c #71533F",
"u@	c #5F5F5F",
"v@	c #747474",
"w@	c #A18E83",
"x@	c #896149",
"y@	c #784C2E",
"z@	c #734527",
"A@	c #685D5C",
"B@	c #8B6D5B",
"C@	c #835B41",
"D@	c #916B51",
"E@	c #6F5543",
"F@	c #727272",
"G@	c #A19993",
"H@	c #8F6A51",
"I@	c #724628",
"J@	c #676163",
"K@	c #968172",
"L@	c #714325",
"M@	c #6A5C54",
"N@	c #8B715F",
"O@	c #865D42",
"P@	c #774C2F",
"Q@	c #6C584A",
"R@	c #858585",
"S@	c #A0A0A0",
"T@	c #826856",
"U@	c #7A4E30",
"V@	c #704224",
"W@	c #6E5544",
"X@	c #9D9D9D",
"Y@	c #BABABA",
"Z@	c #9C9C9C",
"`@	c #7F6655",
" #	c #7B5135",
".#	c #74482A",
"+#	c #7B7B7B",
"@#	c #979797",
"##	c #866963",
"$#	c #724426",
"%#	c #6F4123",
"&#	c #7A7A7A",
"*#	c #949494",
"=#	c #9A748F",
"-#	c #784E32",
";#	c #754729",
">#	c #6F4325",
",#	c #695C53",
"'#	c #B1B1B1",
")#	c #998C95",
"!#	c #785E4C",
"~#	c #6E5442",
"{#	c #666061",
"]#	c #8E7587",
"^#	c #765946",
"/#	c #764B2E",
"(#	c #6F513D",
"_#	c #685D5A",
":#	c #877482",
"<#	c #725C4E",
"[#	c #744E34",
"}#	c #734729",
"|#	c #6F472D",
"1#	c #6E5748",
"2#	c #695F60",
"3#	c #7B6B74",
"4#	c #6E5E54",
"5#	c #715847",
"6#	c #71513B",
"7#	c #704A30",
"8#	c #704528",
"9#	c #71482D",
"0#	c #704E38",
"a#	c #6C5C50",
"b#	c #6A5F60",
"c#	c #757575",
"                                                                                                            ",
"                                                                                                            ",
"                                                                                                            ",
"                                                                                                            ",
"                                          . + @ # $ % & * = - ; > ,                                         ",
"                                    . ' ) ! ~ ~ ~ ~ ~ ! { { ] ^ / ( _ : <                                   ",
"                                [ } ~ | 1 2 2 2 2 2 3 4 1 | ~ 5 ] 6 7 8 9 0 a                               ",
"                            b c ~ 1 2 d e f f g g g h f i d 3 1 j k l m ( 9 n o p                           ",
"                          q | r 2 d f g s t s u u v v s s g e w 2 | x ] m ( y n z A                         ",
"                        B ! 1 2 e g s C D E F F F G H H D C t g e 2 1 ! ] m ( 9 n I J K                     ",
"                      c ! L 2 f s v D F M N O P Q P R M M F D C s h S 1 ! ] T 8 U V W X Y                   ",
"                    Z ! 1 2 h ` C F M P  ...+.@.@.+.+... .O #.F $.t h 2 1 ! & / y n %.&.*.=.                ",
"                  -.{ | 2 h t ;.F M  ...@.>.,.'.).'.,.!.~.+. .{.F $.s h 2 | { 6 ( 9 ].W ^./.=.              ",
"                (.] ~ 2 e t $.F O  ._.:.).<.[.}.}.}.[.|.1.>.~. .O G $.2.e 2 ~ ] / 8 3.I 4.5.6.=.            ",
"              7.* x 1 i g C H M  .@.,.|.}.8.9.0.0.0.a.b.}.|.,.@. .c.F d.g e.1 { f.( 9 ].4.g.h.i.Y           ",
"              j.] ! 3 f t D M  .~.,.<.k.a.l.m.m.n.o.p.l.a.k.q.'.~.r.M s.t e 3 ~ ] 7 8 n I t.h.u.v.K         ",
"            w.6 { | w g C F x.+.>.|.k.0.p.y.z.A.A.B.z.C.p.0.k.|.>...D.F u g w | { T 8 E.%.&.F.G.H.I.        ",
"            J.^ 5 L i 2.D {. .K.).}.a.L.M.N.O.P.P.Q.Q.N.R.S.9.}.1.T. .M $.s e L x & ( U.V.4.g.G.W.X.Y.      ",
"          Z.`.& ! L f s  +M ...+q.b.++@+B.Q.#+$+%+$+&+O.A.@+l.b.*+.+=+M s.s f 2 ! * -+9 V ;+g.h.>+,+'+      ",
"          )+-+] ~ 4 h s H O +.,.[.a.p.z.Q.&+!+~+{+]+^+&+Q.z.p./+(+,.+.O F u h 3 ~ ] / _+].;+:+h.>+<+[+}+    ",
"          |+7 ] r 2 h C F x.~.1.}.0.p.A.Q.$+]+1+2+3+4+$+Q.A.p.0.}.).~.D.F u g 2 ~ ] 7 y n W g.h.>+5+6+7+    ",
"        8+y -+] r 2 h C #.Q @.).}.0.n.B.9+!+0+a+b+2+{+!+P.B.y.0.}.1.+.Q #.v g 2 ~ ] / y ].W ^.h.c+d+e+f+g+  ",
"        h+y -+] ~ 2 g C F P +.).}.i+m.A.P.$+]+1+a+1+4+$+Q.A.m.j+}.1.+.Q F C g 2 ~ * / y ].W ^.h.c+d+k+l+m+  ",
"        n+y -+] ~ 2 h u F P +.,.[.o+p.z.Q.#+p+]+0+q+r+&+s+t+p.u+v+,.+.P w+u h 2 ~ ] -+y ].;+g.x+>+d+y+z+A+  ",
"        B+9 -+& ! 2 f s E M ..>.|.C+++n.A.s+#+$+!+$+#+O.B.R.++b.*+!...c.H t f 2 ! & ( y V ;+g.h.>+D+E+F+G+K ",
"        H+U ( & { L i s $.#. .T.1.}.a.p.@+B.Q.P.I+Q.O.A.@+p.a.}.1.@. .M D s J+K+x 6 ( U.V.4.5.G.>+L+M+N+X.O+",
"        P+E.8 m { | w g C F O ..Q+<.}.0.p.n.z.A.A.A.t+n.p.0.k.|.>...P F C g 2 | { m 8 E.I &.R+G.S+L+T+U+V+Y.",
"        I W+y / ] ~ 2 e s s.#.Q @.'.X+}.a.S.p.m.p.p.p.l.a.k.*+,.@.Q M Y+` h 2 ~ ] / y n W Z+h.c+`+ @.@+@@@=.",
"        %.V 9 ( 6 x 1 w #@d.H M  .@.,.|.}.8.a.j+0.a.u+C+}.|.,.@.$@M F v 2.w %@x & ( 9 V ;+g.h.c+d+&@.@*@=@m+",
"        -@%.E.8 / ] ~ 2 e s ;.F N  .+.,.1.*+[.}.}.}.[.<.1.>._. .M F C s e 2 ~ ] / 8 E.I &.5.G.;@L+>@,@'@)@m+",
"        !@W ].9 ( 6 { r 2 ~@` $.F N  ...K.>.,.'.1.).,.>.K... .M F ;.{@h 2 | x 6 ]@9 ].W ^.h.^@/@ @(@_@*@=@m+",
"        :@4.%.n 8 / & x 1 2 h s C H #.O  .=++.+.+.+.+... .P #.F ;.` h S 1 ! ] -+8 E.%.4.5.<@>+d+&@[@}@+@@@=.",
"        |@^.;+].9 8 T 1@! 1 d h s v s.F #.M P x.x.P O M #.F Y+C s f d 1 ! ] m 8 9 V.W ^.h.^@S+ @>@2@3@U+4@Y.",
"        5@5.&.I n 9 ( m ] ! 6@2 e g s C D s.F F #.F F H D v s g e 2 1 ! l m ( 7@n 8@9@R+x+>+D+&@[@0@a@N+X.O+",
"          b@5.4.I E.9 ( m ] x | 2 i f g 2.s c@C C u u s s g f w 3 | ! ] d@-+9 n %.4.g.h.c+e@ @(@2@f@g@F+G+K ",
"          h@i@:+4.%.n y ( m * { ~ 6@2 d J+f h h g h h f i d 2 1 ~ x & m ( 9 n I 4.g.i@^@>+D+&@j@0@k@'@z+A+  ",
"          l@G.R+^.m@%.n 9 8 / 6 ] { ~ | L 2 3 2 2 2 2 L 1 | ~ x ] 6 7 8 9 n %.;+Z+R+G.>+d+&@.@n@o@p@q@l+m+  ",
"            r@G.R+Z+4.%.n U 8 -+m 6 ] ] x ! ~ ~ ~ j ~ ! { { ] & / ( 8 U.].%.;+Z+R+x+>+`+ @(@2@s@t@u@v@f+g+  ",
"            w@>+x+R+^.4.8@V E.9 8 ( -+T & l ] ] ] ] ] & 6 m / ( 8 9 E.V I x@^.R+x+>+`+ @>@y@0@z@A@*@6+7+    ",
"              B@>+C@h.5.Z+;+%.].E.9 y 8 ( `./ -+-+7 -+-+( 8 y 9 D@].%.;+&.g.h.G.>+`+ @>@j@0@z@E@u@F@[+}+    ",
"              G@>+>+^@h.5.^.&.W %.V n D@9 9 y y y y 9 9 U.E.H@V %.;+4.Z+5.h.^@>+`+L+>@j@0@o@I@J@*@6+'+      ",
"                K@D+>+c+x+h.5.Z+&.m@8@I %.V ].n W+].].V V I I ;+&.^.5.h.x+c+>+d+ @>@j@0@o@L@M@g@v@X.}+      ",
"                  N@L+/@>+^@<@h.5.g.Z+&.4.m@;+W ;+W ;+m@4.&.Z+g.5.O@x+^@>+e@L+&@>@P@0@o@L@Q@u@U+R@I.        ",
"                  S@T@ @d+S+>+^@x+h.h.R+5.g.:+^.^.^.g.g.g.5.h.h.x+c+>+e@d+ @>@U@y@0@z@V@W@u@+@z+X@Y@        ",
"                    Z@`@&@L+d+e@>+>+^@G.G.h.h.h.h.h.x+x+x+G.c+>+S+/@D+L+ #(@[@n@.#z@V@W@u@*@+#@#Y           ",
"                      =.##(@&@ @D+d+/@S+>+>+c+>+>+c+c+>+>+S+`+d+D+ @&@>@[@2@0@o@$#%#Q@u@*@&#*#=.            ",
"                        =.=#-#.@>@ # #L+D+L+D+d+d+d+D+D+L+L+ #&@>@(@j@2@0@;#z@V@>#,#u@+@+#*#'#              ",
"                          =.)#!#y@[@.@(@>@>@&@&@&@&@>@>@>@(@.@j@y@n@s@;#z@V@%#~#{#g@U+z+@#=.                ",
"                            Y v.]#^#0@n@2@/#P@y@P@j@y@y@/#n@0@0@;#z@$#V@%#(#_#u@*@v@R@X@Y                   ",
"                              K I.X.:#<#[#;#;#.#.#.#s@;#}#z@z@$#V@%#|#1#2#u@*@F@6+X.I.Y@                    ",
"                                  Y.'+[+6+3#4#5#6#7#I@L@8#9#0#W@a#b#g@'@q@c#6+[+'+Y.                        ",
"                                      }+A+f+l+6+F+N+U++@*@*@*@+@U+N+F+z+l+f+7+}+                            ",
"                                          g+m+A+G+X.V+@@=@)@=@@@V+X.G+A+m+g+                                ",
"                                                K O+Y.=.'#m+'#=.Y.O+K                                       "};
