/* XPM */
static char * brown_jump2_xpm[] = {
"54 54 400 2",
"  	c None",
". 	c #B5AAA3",
"+ 	c #B39D8D",
"@ 	c #AF937F",
"# 	c #AD8A73",
"$ 	c #AC846A",
"% 	c #AA8064",
"& 	c #AA7E60",
"* 	c #A97F63",
"= 	c #AA8166",
"- 	c #AA8770",
"; 	c #AC8F7A",
"> 	c #AF9889",
", 	c #B2A7A0",
"' 	c #B19885",
") 	c #AE866C",
"! 	c #AD8265",
"~ 	c #AD8367",
"{ 	c #AB8063",
"] 	c #AA7F62",
"^ 	c #AA7F60",
"/ 	c #A87A5C",
"( 	c #A5795B",
"_ 	c #A57D63",
": 	c #A9907D",
"< 	c #B1A59D",
"[ 	c #B4A79E",
"} 	c #AE8D7A",
"| 	c #AE8468",
"1 	c #AF8569",
"2 	c #B1876B",
"3 	c #B0876C",
"4 	c #B1896B",
"5 	c #AC8364",
"6 	c #A87D60",
"7 	c #A77B5D",
"8 	c #A4785A",
"9 	c #A2775A",
"0 	c #A4826C",
"a 	c #AB9C93",
"b 	c #B7AFA9",
"c 	c #B0927E",
"d 	c #B1886D",
"e 	c #B3896D",
"f 	c #B2896E",
"g 	c #B48B70",
"h 	c #B38A6F",
"i 	c #B2886C",
"j 	c #AE8566",
"k 	c #AC8062",
"l 	c #AA8062",
"m 	c #A77C5F",
"n 	c #9E7458",
"o 	c #A1836F",
"p 	c #ACA5A0",
"q 	c #B3A193",
"r 	c #B68D72",
"s 	c #B58D73",
"t 	c #B68E74",
"u 	c #B78E73",
"v 	c #AC8164",
"w 	c #9A7258",
"x 	c #A28F84",
"y 	c #B29886",
"z 	c #B78F75",
"A 	c #B89076",
"B 	c #BA9478",
"C 	c #BB9379",
"D 	c #BC9578",
"E 	c #BA9278",
"F 	c #9B7155",
"G 	c #AC779C",
"H 	c #BBBBBB",
"I 	c #B0866A",
"J 	c #BD957B",
"K 	c #BE987C",
"L 	c #BE967C",
"M 	c #BD977D",
"N 	c #BE987E",
"O 	c #BE957C",
"P 	c #B28A6C",
"Q 	c #A87C5E",
"R 	c #A17659",
"S 	c #9C7256",
"T 	c #9A7054",
"U 	c #A37187",
"V 	c #B6B6B6",
"W 	c #AE917E",
"X 	c #B68F72",
"Y 	c #BF997F",
"Z 	c #C09A80",
"` 	c #C19B81",
" .	c #C29C82",
"..	c #BC947A",
"+.	c #B99075",
"@.	c #9A7156",
"#.	c #976D51",
"$.	c #9F7180",
"%.	c #B2B2B2",
"&.	c #B19785",
"*.	c #B78E75",
"=.	c #C29D84",
"-.	c #C49E84",
";.	c #C49F86",
">.	c #C59F85",
",.	c #C39B83",
"'.	c #C19C83",
").	c #BC967C",
"!.	c #9D7357",
"~.	c #956B4F",
"{.	c #A1718F",
"].	c #B29E92",
"^.	c #C19981",
"/.	c #C49F84",
"(.	c #C69F88",
"_.	c #C7A38B",
":.	c #C8A48C",
"<.	c #C6A188",
"[.	c #C5A087",
"}.	c #B58C71",
"|.	c #9E7258",
"1.	c #986E52",
"2.	c #966A4C",
"3.	c #9E7B94",
"4.	c #B6ADA8",
"5.	c #C9A58D",
"6.	c #CBA88F",
"7.	c #CCA890",
"8.	c #CBA78F",
"9.	c #CAA58C",
"0.	c #BD947B",
"a.	c #B68D74",
"b.	c #B1876D",
"c.	c #AA7C5E",
"d.	c #946A4E",
"e.	c #94684A",
"f.	c #9A8E97",
"g.	c #AE8F7A",
"h.	c #C9A48B",
"i.	c #CEA990",
"j.	c #CEAB92",
"k.	c #CFAB93",
"l.	c #CEA892",
"m.	c #CEAA92",
"n.	c #C6A28A",
"o.	c #BF9A7F",
"p.	c #B99177",
"q.	c #986C4E",
"r.	c #8D715F",
"s.	c #9E9E9E",
"t.	c #B3A49B",
"u.	c #BF977D",
"v.	c #CFAC93",
"w.	c #D1AD95",
"x.	c #D2AF98",
"y.	c #D3AF97",
"z.	c #CFAA93",
"A.	c #BF997D",
"B.	c #A07558",
"C.	c #94694C",
"D.	c #936547",
"E.	c #91798A",
"F.	c #A8A8A8",
"G.	c #AB8973",
"H.	c #C29D82",
"I.	c #CDA791",
"J.	c #CFAC95",
"K.	c #D3B099",
"L.	c #D5B19B",
"M.	c #D6B39C",
"N.	c #D5B29B",
"O.	c #D0AD94",
"P.	c #CDA991",
"Q.	c #C19A83",
"R.	c #A0765A",
"S.	c #9B7257",
"T.	c #8A6C58",
"U.	c #929292",
"V.	c #B5B5B5",
"W.	c #B4A7A0",
"X.	c #A57A5D",
"Y.	c #B99077",
"Z.	c #C39D83",
"`.	c #D0AC94",
" +	c #D9B59D",
".+	c #DAB7A0",
"++	c #DAB6A0",
"@+	c #D8B59E",
"#+	c #C7A289",
"$+	c #BF977F",
"%+	c #A67A5C",
"&+	c #9A6F52",
"*+	c #906244",
"=+	c #897784",
"-+	c #A2A2A2",
";+	c #AD907D",
">+	c #D6B29A",
",+	c #DBB8A1",
"'+	c #DCBBA2",
")+	c #DEBBA4",
"!+	c #DCB9A2",
"~+	c #DDB9A1",
"{+	c #CAA68E",
"]+	c #C8A48A",
"^+	c #A3785B",
"/+	c #976B4D",
"(+	c #836E5F",
"_+	c #8F8F8F",
":+	c #B4B4B4",
"<+	c #A67D62",
"[+	c #E0BDA6",
"}+	c #E2BFA8",
"|+	c #E0BCA6",
"1+	c #DEBAA2",
"2+	c #8C6348",
"3+	c #7F7F7F",
"4+	c #A5A5A5",
"5+	c #B2A6A0",
"6+	c #D7B69D",
"7+	c #DEBBA2",
"8+	c #E4C1A8",
"9+	c #E7C3AB",
"0+	c #916345",
"a+	c #8F5F3F",
"b+	c #80707B",
"c+	c #969696",
"d+	c #B9B9B9",
"e+	c #AE9788",
"f+	c #CCA990",
"g+	c #CBA68F",
"h+	c #806A68",
"i+	c #888888",
"j+	c #B0B0B0",
"k+	c #A88A76",
"l+	c #CAA58E",
"m+	c #DEB9A0",
"n+	c #DBB7A1",
"o+	c #D5B49B",
"p+	c #D2AE96",
"q+	c #CBA68D",
"r+	c #C8A38A",
"s+	c #B99379",
"t+	c #936749",
"u+	c #846B58",
"v+	c #7E7E7E",
"w+	c #A6A6A6",
"x+	c #A58067",
"y+	c #C9A48D",
"z+	c #D6B39A",
"A+	c #8E5E3E",
"B+	c #88644C",
"C+	c #777777",
"D+	c #9B9B9B",
"E+	c #A2765C",
"F+	c #D6B29C",
"G+	c #B0886A",
"H+	c #8D5D3D",
"I+	c #885E42",
"J+	c #737373",
"K+	c #B8B8B8",
"L+	c #9B7157",
"M+	c #C49C82",
"N+	c #8F6143",
"O+	c #8A5A3A",
"P+	c #6F6F6F",
"Q+	c #8C8C8C",
"R+	c #9D7157",
"S+	c #C7A389",
"T+	c #B99377",
"U+	c #976C4F",
"V+	c #906040",
"W+	c #8C5C3C",
"X+	c #895837",
"Y+	c #6A6A6A",
"Z+	c #878787",
"`+	c #B58E71",
" @	c #C09A7E",
".@	c #B08568",
"+@	c #8C5B3A",
"@@	c #848484",
"#@	c #9C745A",
"$@	c #916243",
"%@	c #8B5A39",
"&@	c #865C40",
"*@	c #686868",
"=@	c #838383",
"-@	c #9F795F",
";@	c #B28A70",
">@	c #B78D71",
",@	c #A6785A",
"'@	c #926446",
")@	c #916141",
"!@	c #8A5938",
"~@	c #835F47",
"{@	c #A4846E",
"]@	c #946648",
"^@	c #885736",
"/@	c #7F6553",
"(@	c #A89080",
"_@	c #A97D63",
":@	c #885634",
"<@	c #78675C",
"[@	c #8B8B8B",
"}@	c #AFA29B",
"|@	c #AE8268",
"1@	c #A47658",
"2@	c #976A4F",
"3@	c #875331",
"4@	c #716769",
"5@	c #956F55",
"6@	c #B79073",
"7@	c #A87E60",
"8@	c #8E6042",
"9@	c #84593A",
"0@	c #666666",
"a@	c #A28470",
"b@	c #94664A",
"c@	c #895735",
"d@	c #7C6454",
"e@	c #ACA098",
"f@	c #986F54",
"g@	c #885432",
"h@	c #86512E",
"i@	c #716768",
"j@	c #6D6D6D",
"k@	c #9A7960",
"l@	c #885330",
"m@	c #7F5D47",
"n@	c #656565",
"o@	c #747474",
"p@	c #A8978E",
"q@	c #976B51",
"r@	c #85502D",
"s@	c #716665",
"t@	c #997763",
"u@	c #926648",
"v@	c #9F7559",
"w@	c #7C5F4C",
"x@	c #727272",
"y@	c #A9A29D",
"z@	c #9D7459",
"A@	c #84502E",
"B@	c #6D6769",
"C@	c #9F8B7D",
"D@	c #834E2B",
"E@	c #76665E",
"F@	c #967A68",
"G@	c #956749",
"H@	c #7A6252",
"I@	c #858585",
"J@	c #A9A9A9",
"K@	c #8F725F",
"L@	c #8A5836",
"M@	c #824D2A",
"N@	c #7B5F4D",
"O@	c #9D9D9D",
"P@	c #BABABA",
"Q@	c #8C705E",
"R@	c #8B5B3B",
"S@	c #865230",
"T@	c #7B7B7B",
"U@	c #979797",
"V@	c #90716B",
"W@	c #844F2C",
"X@	c #814C29",
"Y@	c #7A7A7A",
"Z@	c #949494",
"`@	c #9A748F",
" #	c #885838",
".#	c #87522F",
"+#	c #814D2B",
"@#	c #75675D",
"##	c #B1B1B1",
"$#	c #998C95",
"%#	c #856855",
"&#	c #7C5E4A",
"*#	c #6C6667",
"=#	c #8E7587",
"-#	c #84644E",
";#	c #875635",
">#	c #7E5B44",
",#	c #736663",
"'#	c #877482",
")#	c #7F6757",
"!#	c #84583A",
"~#	c #85512F",
"{#	c #805234",
"]#	c #7B6251",
"^#	c #716667",
"/#	c #7D6E77",
"(#	c #7A695E",
"_#	c #7E6250",
":#	c #805B42",
"<#	c #815537",
"[#	c #82502E",
"}#	c #825334",
"|#	c #7F593F",
"1#	c #78675A",
"2#	c #726667",
"3#	c #757575",
"                                                                                                            ",
"                                                                                                            ",
"                                                                                                            ",
"                                                                                                            ",
"                                          . + @ # $ % & * = - ; > ,                                         ",
"                                    . ' ) ! ~ ~ ~ ~ ~ ! { { ] ^ / ( _ : <                                   ",
"                                [ } ~ | 1 2 2 2 2 2 3 4 1 | ~ 5 ] 6 7 8 9 0 a                               ",
"                            b c ~ 1 2 d e f f g g g h f i d 3 1 j k l m ( 9 n o p                           ",
"                          q | | 2 d f g r s r t t u u r r g e i 2 | v ] m ( 8 n w x                         ",
"                        y ! 1 2 e g r z A B C C C D E E A z s g e 2 1 ! ] m ( 9 n F G H                     ",
"                      c ! I 2 f r u A C J K L M N M O J J C A z r h P 1 ! ] Q 8 R S T U V                   ",
"                    W ! 1 2 h X z C J M Y Z `  . .` ` Z Y L ..C +.s h 2 1 ! & / 8 n @.#.$.%.                ",
"                  &.{ | 2 h s *.C J Y Z  .=.-.;.>.;.-.,.'.` Y ).C +.r h 2 | { 6 ( 9 !.T ~.{.%.              ",
"                ].] ~ 2 e s +.C L Y ^./.>.(._.:.:.:._.<.[.=.'.Y L D +.}.e 2 ~ ] / 8 |.F 1.2.3.%.            ",
"              4.* v 1 i g z E J Y  .-.<.:.5.6.7.7.7.8.9.:.<.-. .Y 0.C a.g b.1 { c.( 9 !.1.d.e.f.V           ",
"              g.] ! 3 f s A J Y '.-.(.h.8.i.j.j.k.l.m.i.8.h.n.;.'.o.J p.s e 3 ~ ] 7 8 n F q.e.r.s.H         ",
"            t.6 { | i g z C u.` =.<.h.7.m.v.w.x.x.y.w.z.m.7.h.<.=.Z A.C t g i | { Q 8 B.@.#.C.D.E.F.        ",
"            G.^ 5 I i }.A ).Y H.>.:.8.I.J.K.L.M.M.N.N.K.O.P.6.:.[.Q.Y J +.r e I v & ( R.S.1.d.D.T.U.V.      ",
"          W.X.& ! I f r Y.J Z Z.n.9.P.`.y.N. +.+++.+@+L.x.`.i.9.#+Z.$+J p.r f 2 ! * %+9 S &+d.e.*+=+-+      ",
"          ;+%+] ~ 4 h r E L ` -._.8.m.w.>+@+,+'+)+!+~+@+>+w.m.{+]+-.` L C t h 3 ~ ] / ^+!.&+/+e.*+(+_+:+    ",
"          <+7 ] | 2 h z C u.'.[.:.7.m.x.>+.+!+[+}+|+1+.+>+x.m.7.:.>.'.A.C t g 2 ~ ] 7 8 n T d.e.*+2+3+4+    ",
"        5+8 %+] | 2 h z ..N  .>.:.7.k.y.6+,+7+8+9+}+)+,+M.y.v.7.:.[.` N ..u g 2 ~ ] / 8 !.T ~.e.0+a+b+c+d+  ",
"        e+8 %+] ~ 2 g z C M ` >.:.f+j.x.M..+!+[+8+[+1+.+>+x.j.g+:.[.` N C z g 2 ~ * / 8 !.T ~.e.0+a+h+i+j+  ",
"        k+8 %+] ~ 2 h t C M ` -._.l+m.w.N. +!+!+7+m+n+@+o+p+m.q+r+-.` M s+t h 2 ~ ] %+8 !.&+d.t+*+a+u+v+w+  ",
"        x+9 %+& ! 2 f r B J Z =.<.y+P.k.x.z+ +.+,+.+ +L.y.O.P.9.#+,.Z 0.E s f 2 ! & ( 8 S &+d.e.*+A+B+C+D+H ",
"        E+R ( & { I i r +...Y Q.[.:.8.m.`.y.>+M.F+>+L.x.`.m.8.:.[. .Y J A r d G+v 6 ( R.S.1.2.D.*+H+I+J+U.K+",
"        L+B.8 m { | i g z C L Z M+(.:.7.m.k.w.x.x.x.p+k.m.7.h.<.=.Z M C z g 2 | { m 8 B.F #.C.D.N+H+O+P+Q+V.",
"        F R+8 / ] ~ 2 e r p...N  .;.S+:.8.P.m.j.m.m.m.i.8.h.#+-. .N J T+X h 2 ~ ] / 8 n T U+e.0+V+W+X+Y+Z+%.",
"        @.S 9 ( 6 v 1 i `+a.E J Y  .-.<.:.5.8.g+7.8.q+y+:.<.-. . @J C u }.i .@v & ( 9 S &+d.e.0+a++@X+Y+@@j+",
"        #@@.B.8 / ] ~ 2 e r *.C K Y ` -.[.#+_.:.:.:._.(.[.=.^.Y J C z r e 2 ~ ] / 8 B.F #.2.D.$@H+%@&@*@=@j+",
"        -@T !.9 ( 6 { | 2 ;@X +.C K Y Z H.=.-.;.[.>.-.=.H.Z Y J C *.>@h 2 | v 6 ,@9 !.T ~.e.'@)@W+!@~@Y+@@j+",
"        {@1.@.n 8 / & v 1 2 h r z E ..L Y $+` ` ` ` ` Z Y M ..C *.X h P 1 ! ] %+8 B.@.1.2.]@*+a++@^@/@Y+Z+%.",
"        (@~.&+!.9 8 Q _@! 1 d h r u p.C ..J M u.u.M L J ..C T+z r f d 1 ! ] m 8 9 S.T ~.e.'@N+W+%@:@<@P+[@V.",
"        }@2.#.F n 9 ( m ] ! |@2 e g r z A p.C C ..C C E A u r g e 2 1 ! l m ( 1@n T 2@C.t+*+A++@^@3@4@J+U.K+",
"          5@2.1.F B.9 ( m ] v | 2 i f g }.r 6@z z t t r r g f i 3 | ! ] 7@%+9 n @.1.d.e.0+8@W+!@:@9@0@C+D+H ",
"          a@b@/+1.@.n 8 ( m * { ~ |@2 d d f h h g h h f i d 2 1 ~ v & m ( 9 n F 1.d.b@'@*+A++@c@3@d@*@v+w+  ",
"          e@D.C.~.f@@.n 9 8 / 6 ] { ~ | I 2 3 2 2 2 2 I 1 | ~ v ] 6 7 8 9 n @.&+U+C.D.*+a++@X+g@h@i@j@i+j+  ",
"            k@D.C.U+1.@.n R 8 %+m 6 ] ] v ! ~ ~ ~ j ~ ! { { ] & / ( 8 R.!.@.&+U+C.t+*+V+W+!@:@l@m@n@o@c+d+  ",
"            p@*+t+C.~.1.T S B.9 8 ( %+Q & l ] ] ] ] ] & 6 m / ( 8 9 B.S F q@~.C.t+*+V+W+%@c@3@r@s@Y+3+4+    ",
"              t@*+u@e.2.U+&+@.!.B.9 8 8 ( X./ %+%+7 %+%+( 8 8 9 v@!.@.&+#.d.e.D.*+V+W+%@c@3@r@w@n@x@_+:+    ",
"              y@*+*+'@e.2.~.#.T @.S n v@9 9 8 8 8 8 9 9 R.B.z@S @.&+1.U+2.e.'@*+V+H+%@c@3@h@A@B@Y+3+-+      ",
"                C@A+*+0+t+e.2.U+#.f@T F @.S !.n R+!.!.S S F F &+#.~.2.e.t+0+*+a+W+%@c@3@h@D@E@0@o@U.:+      ",
"                  F@H+)@*+'@]@e.2.d.U+#.1.f@&+T &+T &+f@1.#.U+d.2.G@t+'@*+8@H++@%@^@3@h@D@H@n@P+I@F.        ",
"                  J@K@W+a+N+*+'@t+e.e.C.2.d./+~.~.~.d.d.d.2.e.e.t+0+*+8@a+W+%@L@c@3@r@M@N@n@Y+v+O@P@        ",
"                    4+Q@+@H+a+8@*+*+'@D.D.e.e.e.e.e.t+t+t+D.0+*+N+)@A+H+R@!@^@g@S@r@M@N@n@Y+T@U@V           ",
"                      %.V@!@+@W+A+a+)@N+*+*+0+*+*+0+0+*+*+N+V+a+A+W++@%@^@:@3@h@W@X@H@n@Y+Y@Z@%.            ",
"                        %.`@ #X+%@R@R@H+A+H+A+a+a+a+A+A+H+H+R@+@%@!@c@:@3@.#r@M@+#@#n@Y+T@Z@##              ",
"                          %.$#%#c@^@X+!@%@%@+@+@+@+@%@%@%@!@X+c@c@g@l@.#r@M@X@&#*#0@P+v+U@%.                ",
"                            V s.=#-#3@g@:@;#^@c@^@c@c@c@;#g@3@3@.#r@W@M@X@>#,#n@Y+o@I@O@V                   ",
"                              H F.U.'#)#!#.#.#S@S@S@l@.#~#r@r@W@M@X@{#]#^#n@Y+x@3+U.F.P@                    ",
"                                  V.-+_+3+/#(#_#:#<#A@D@[#}#|#N@1#2#0@*@j@3#3+_+-+V.                        ",
"                                      :+w+c+i+3+C+J+P+Y+Y+Y+Y+Y+P+J+C+v+i+c+4+:+                            ",
"                                          d+j+w+D+U.Q+Z+@@=@@@Z+Q+U.D+w+j+d+                                ",
"                                                H K+V.%.##j+##%.V.K+H                                       "};
