/* XPM */
static char * brown_jump1_xpm[] = {
"54 54 397 2",
"  	c None",
". 	c #B6ABA4",
"+ 	c #B59F8F",
"@ 	c #B19581",
"# 	c #AF8D77",
"$ 	c #AD876D",
"% 	c #AB8267",
"& 	c #AC8164",
"* 	c #AB8369",
"= 	c #AC8972",
"- 	c #AE917C",
"; 	c #B09A8C",
"> 	c #B4A9A2",
", 	c #B39A87",
"' 	c #AF896F",
") 	c #AE8468",
"! 	c #AE856A",
"~ 	c #AC8266",
"{ 	c #AC8364",
"] 	c #AA7E60",
"^ 	c #A77C5F",
"/ 	c #A78167",
"( 	c #AB927F",
"_ 	c #B3A79F",
": 	c #B6A9A0",
"< 	c #B0907C",
"[ 	c #AF866B",
"} 	c #B0876C",
"| 	c #B2896E",
"1 	c #B1896F",
"2 	c #B28B6E",
"3 	c #AD8567",
"4 	c #AA8064",
"5 	c #A97E61",
"6 	c #A67B5E",
"7 	c #A4795C",
"8 	c #A6846E",
"9 	c #AD9E95",
"0 	c #B8B1AC",
"a 	c #B29480",
"b 	c #B28A70",
"c 	c #B58C71",
"d 	c #B48C72",
"e 	c #B68E74",
"f 	c #B58D73",
"g 	c #B48B70",
"h 	c #AF8769",
"i 	c #AD8265",
"j 	c #AC8466",
"k 	c #A97F63",
"l 	c #A17659",
"m 	c #A38571",
"n 	c #ADA7A3",
"o 	c #B5A395",
"p 	c #B0866A",
"q 	c #B78F75",
"r 	c #B79177",
"s 	c #B89076",
"t 	c #B38A6F",
"u 	c #AD8367",
"v 	c #A67A5C",
"w 	c #9E755A",
"x 	c #A49186",
"y 	c #B39A89",
"z 	c #B89278",
"A 	c #B99379",
"B 	c #BB967B",
"C 	c #BC967C",
"D 	c #BD977B",
"E 	c #BB957B",
"F 	c #9F7457",
"G 	c #AC779C",
"H 	c #BBBBBB",
"I 	c #B1886D",
"J 	c #BE987E",
"K 	c #BF9A7F",
"L 	c #BF997F",
"M 	c #BE9980",
"N 	c #BF9A81",
"O 	c #BF977F",
"P 	c #B38C6F",
"Q 	c #AA7F62",
"R 	c #A4785A",
"S 	c #A07558",
"T 	c #9E7356",
"U 	c #A37288",
"V 	c #B6B6B6",
"W 	c #B09380",
"X 	c #B79175",
"Y 	c #C09B82",
"Z 	c #C19C83",
"` 	c #C29D84",
" .	c #C39E85",
"..	c #BD977D",
"+.	c #BA9278",
"@.	c #9E7458",
"#.	c #9B7053",
"$.	c #9F7381",
"%.	c #B2B2B2",
"&.	c #B29988",
"*.	c #B89078",
"=.	c #C39F87",
"-.	c #C5A087",
";.	c #C5A189",
">.	c #C6A188",
",.	c #C49D86",
"'.	c #C29E86",
").	c #BD987F",
"!.	c #996E51",
"~.	c #A1718F",
"{.	c #B4A094",
"].	c #C29B84",
"^.	c #C5A187",
"/.	c #C7A28B",
"(.	c #C8A58E",
"_.	c #C9A68F",
":.	c #C7A38B",
"<.	c #C6A28A",
"[.	c #A17459",
"}.	c #9C7154",
"|.	c #9A6C4E",
"1.	c #9E7B94",
"2.	c #B7AFAB",
"3.	c #CAA68E",
"4.	c #CCA990",
"5.	c #CCA992",
"6.	c #CCA890",
"7.	c #CBA68D",
"8.	c #BE967E",
"9.	c #B78F77",
"0.	c #B28970",
"a.	c #AC8062",
"b.	c #986D50",
"c.	c #986A4C",
"d.	c #9A8E97",
"e.	c #B0917C",
"f.	c #CEAA92",
"g.	c #D0AD94",
"h.	c #D1AD95",
"i.	c #D0AB94",
"j.	c #D0AC94",
"k.	c #C7A48D",
"l.	c #C09C82",
"m.	c #BA947A",
"n.	c #9B6F51",
"o.	c #907462",
"p.	c #9E9E9E",
"q.	c #B5A69D",
"r.	c #C09A80",
"s.	c #D1AE95",
"t.	c #D2AF98",
"u.	c #D4B19A",
"v.	c #D1AC95",
"w.	c #C09B80",
"x.	c #A37759",
"y.	c #986C4E",
"z.	c #976849",
"A.	c #91798A",
"B.	c #A8A8A8",
"C.	c #AD8B75",
"D.	c #C39F85",
"E.	c #CFAA93",
"F.	c #D1AE97",
"G.	c #D4B29C",
"H.	c #D6B29C",
"I.	c #D7B49D",
"J.	c #D6B39C",
"K.	c #D1B097",
"L.	c #CFAB93",
"M.	c #C29D86",
"N.	c #A3785B",
"O.	c #9F7559",
"P.	c #8D6F5B",
"Q.	c #929292",
"R.	c #B5B5B5",
"S.	c #B6A9A2",
"T.	c #A77D61",
"U.	c #BA927A",
"V.	c #C49F86",
"W.	c #CDAA93",
"X.	c #DAB69E",
"Y.	c #DBB8A1",
"Z.	c #DBB7A1",
"`.	c #D9B69F",
" +	c #C8A48C",
".+	c #C09982",
"++	c #A87D60",
"@+	c #9E7254",
"#+	c #946546",
"$+	c #897784",
"%+	c #A2A2A2",
"&+	c #AE9280",
"*+	c #D7B39B",
"=+	c #DCB9A2",
"-+	c #DDBDA5",
";+	c #DFBDA7",
">+	c #DDBBA5",
",+	c #DDBAA3",
"'+	c #CBA78F",
")+	c #C9A68D",
"!+	c #A57A5D",
"~+	c #9B6D4F",
"{+	c #877161",
"]+	c #8F8F8F",
"^+	c #B4B4B4",
"/+	c #A88066",
"(+	c #E1BEA7",
"_+	c #E3C0A9",
":+	c #E1BDA7",
"<+	c #DFBCA5",
"[+	c #90664A",
"}+	c #7F7F7F",
"|+	c #A5A5A5",
"1+	c #B4A8A2",
"2+	c #D8B79E",
"3+	c #DFBDA5",
"4+	c #E5C2A9",
"5+	c #E8C4AC",
"6+	c #956647",
"7+	c #936241",
"8+	c #81717C",
"9+	c #969696",
"0+	c #B9B9B9",
"a+	c #AF998B",
"b+	c #CCAA92",
"c+	c #CCA790",
"d+	c #846D6A",
"e+	c #888888",
"f+	c #B0B0B0",
"g+	c #AB8D79",
"h+	c #CBA68F",
"i+	c #DCBAA4",
"j+	c #DFBBA3",
"k+	c #DCB8A2",
"l+	c #D6B59C",
"m+	c #D3B099",
"n+	c #CCA78E",
"o+	c #C9A58D",
"p+	c #BA957C",
"q+	c #97694B",
"r+	c #876E5B",
"s+	c #7E7E7E",
"t+	c #A6A6A6",
"u+	c #A8836A",
"v+	c #CAA58E",
"w+	c #D7B49B",
"x+	c #926140",
"y+	c #8B674F",
"z+	c #777777",
"A+	c #9B9B9B",
"B+	c #BCBCBC",
"C+	c #A4785E",
"D+	c #D7B39D",
"E+	c #B38B71",
"F+	c #B18A6D",
"G+	c #91603F",
"H+	c #8C6144",
"I+	c #737373",
"J+	c #B8B8B8",
"K+	c #9F7359",
"L+	c #C59F85",
"M+	c #936445",
"N+	c #8F5E3D",
"O+	c #6F6F6F",
"P+	c #8C8C8C",
"Q+	c #C8A58C",
"R+	c #BA957A",
"S+	c #946342",
"T+	c #905F3E",
"U+	c #8E5C3A",
"V+	c #6B6B6B",
"W+	c #878787",
"X+	c #B69074",
"Y+	c #C19C81",
"Z+	c #B1876B",
"`+	c #905E3C",
" @	c #848484",
".@	c #9F765B",
"+@	c #966544",
"@@	c #8A5F42",
"#@	c #6A6A6A",
"$@	c #838383",
"%@	c #A17C63",
"&@	c #B48E74",
"*@	c #B88F74",
"=@	c #A87C5E",
"-@	c #966748",
";@	c #956443",
">@	c #8F5D3B",
",@	c #876249",
"'@	c #A68670",
")@	c #98694A",
"!@	c #8E5A38",
"~@	c #826856",
"{@	c #A99283",
"]@	c #AB8167",
"^@	c #8D5835",
"/@	c #7C695E",
"(@	c #8B8B8B",
"_@	c #B1A49D",
":@	c #AF856B",
"<@	c #A6785A",
"[@	c #9D7357",
"}@	c #9B6D51",
"|@	c #8B5633",
"1@	c #73696B",
"2@	c #997157",
"3@	c #B89276",
"4@	c #AA8264",
"5@	c #926344",
"6@	c #895D3D",
"7@	c #686868",
"8@	c #A38673",
"9@	c #98694C",
"0@	c #8F5A37",
"a@	c #7F6757",
"b@	c #AEA29A",
"c@	c #9C7256",
"d@	c #8C5734",
"e@	c #8A5430",
"f@	c #73696A",
"g@	c #6E6E6E",
"h@	c #9C7B62",
"i@	c #8C5632",
"j@	c #82604A",
"k@	c #666666",
"l@	c #747474",
"m@	c #AA9990",
"n@	c #9B6E53",
"o@	c #8E5936",
"p@	c #89532F",
"q@	c #756967",
"r@	c #9B7965",
"s@	c #96684A",
"t@	c #A2775A",
"u@	c #80624E",
"v@	c #727272",
"w@	c #ABA49F",
"x@	c #A0765A",
"y@	c #885330",
"z@	c #6F686A",
"A@	c #A18D7F",
"B@	c #88512C",
"C@	c #796961",
"D@	c #997D6B",
"E@	c #996A4B",
"F@	c #8D5937",
"G@	c #7D6555",
"H@	c #858585",
"I@	c #ABABAB",
"J@	c #927562",
"K@	c #905B38",
"L@	c #7F624F",
"M@	c #9D9D9D",
"N@	c #BABABA",
"O@	c #A7A7A7",
"P@	c #907360",
"Q@	c #8A5532",
"R@	c #7B7B7B",
"S@	c #979797",
"T@	c #92726C",
"U@	c #89522D",
"V@	c #87502B",
"W@	c #7A7A7A",
"X@	c #949494",
"Y@	c #9A748F",
"Z@	c #8B5531",
"`@	c #87512D",
" #	c #786A60",
".#	c #B1B1B1",
"+#	c #998C95",
"@#	c #896B57",
"##	c #80614C",
"$#	c #6F6869",
"%#	c #8E7587",
"&#	c #886650",
"*#	c #8C5836",
"=#	c #835F47",
"-#	c #756865",
";#	c #877482",
">#	c #826A5A",
",#	c #895B3D",
"'#	c #895431",
")#	c #845536",
"!#	c #7E6554",
"~#	c #736869",
"{#	c #7D6E77",
"]#	c #7D6B61",
"^#	c #826552",
"/#	c #855F45",
"(#	c #855739",
"_#	c #865230",
":#	c #875635",
"<#	c #845C42",
"[#	c #7C6A5C",
"}#	c #746869",
"|#	c #757575",
"                                                                                                            ",
"                                                                                                            ",
"                                                                                                            ",
"                                                                                                            ",
"                                          . + @ # $ % & % * = - ; >                                         ",
"                                    . , ' ) ! ! ! ! ! ) ~ ~ ~ { ] ^ / ( _                                   ",
"                                : < ! [ } | | | | | 1 2 } [ ! 3 ~ 4 5 6 7 8 9                               ",
"                            0 a ! } | b c d d e e e f d g b 1 } h i j k ^ 7 l m n                           ",
"                          o [ p | b d e q q q r r s s q q e c t | [ u ~ k ^ v l w x                         ",
"                        y ) } | c e q z A B C C C D E E A z q e c | } ) ~ k ^ 7 l F G H                     ",
"                      a ) I | d q s A C J K L M N M O J J C A z q f P } ) ~ Q 6 R S T U V                   ",
"                    W ) } | f X z C J M Y Z `  . .` ` Z Y L ..C +.q f | } ) & ] v l @.#.$.%.                ",
"                  &.~ [ | f q *.C J Y Z  .=.-.;.>.;.-.,.'.` Y ).C +.q f | [ ~ 4 ^ 7 l T !.~.%.              ",
"                {.~ ! | c q +.C L Y ].^.>./.(._._._.(.:.<.=.'.Y L D +.e c | ! ~ ] 6 [.F }.|.1.%.            ",
"              2.% u } g e z E J Y  .-.:._.3.4.5.5.5.6.7._.:.-. .Y 8.C 9.e 0.} ~ a.^ 7 l }.b.c.d.V           ",
"              e.~ ) 1 d q A J Y '.-./.3.6.f.g.g.h.i.j.f.6.3.k.;.'.l.J m.q c 1 ! ~ 5 6 l F n.c.o.p.H         ",
"            q.4 ~ [ t e z C r.` =.:.3.5.j.s.t.u.u.u.t.v.j.5.3.:.=.Z w.C r e t [ ~ Q 6 x.@.#.y.z.A.B.        ",
"            C.{ 3 I g e A ).Y D.>._.6.E.F.G.H.I.I.J.J.G.K.L.4._.<.M.Y J +.q c I u & ^ N.O.}.b.z.P.Q.R.      ",
"          S.T.& ) I d q U.J Z V.k.7.W.F.u.J.X.Y.Z.Y.`.H.u.F.f.7. +V..+J m.q d | ) % ++7 S @+b.c.#+$+%+      ",
"          &+++~ ! 2 f q E L ` -.(.6.j.t.*+`.=+-+;+>+,+`.*+t.j.'+)+-.` L C r f 1 ! ~ ] !+l @+~+c.#+{+]+^+    ",
"          /+5 ~ p | f z C r.'.<._.5.j.u.*+Y.>+(+_+:+<+Y.*+u.j.5._.>.'.w.C r e | ! ~ 5 v l T b.c.#+[+}+|+    ",
"        1+v ++~ p | f z ..N  .>._.5.h.u.2+=+3+4+5+_+;+=+I.u.s.5._.<.` N ..s e | ! ~ ] v l T !.c.6+7+8+9+0+  ",
"        a+v ++~ ! | e z C M ` >._.b+g.u.I.Y.>+(+4+(+<+Y.*+u.g.c+_.<.` N C z e | ! % ] v l T !.c.6+7+d+e+f+  ",
"        g+v ++~ ! | f r C M ` -.(.h+j.t.J.X.i+>+3+j+k+`.l+m+j.n+o+-.` M p+r f | ! ~ ++v l @+b.q+#+7+r+s+t+  ",
"        u+7 ++& ) | d q B J Z =.:.v+W.h.u.w+X.Y.=+Y.X.H.u.K.W.7. +,.Z 8.E q d | ) & ^ v S @+b.c.#+x+y+z+A+B+",
"        C+R ^ & ~ I g q +...Y M.<._.6.j.F.u.*+I.D+*+H.u.F.j.6._.<. .Y J A q E+F+u 4 ^ N.O.}.|.z.#+G+H+I+Q.J+",
"        K+x.6 k ~ [ t e z C L Z L+/._.5.j.h.t.u.u.u.m+h.j.5.3.:.=.Z M C z e | [ ~ k 6 x.F #.y.z.M+G+N+O+P+R.",
"        F [.v ] ~ ! | c q m...N  .;.Q+_.6.L.j.g.j.j.j.f.6.3. +-. .N J R+X f | ! ~ ] v l T n.c.6+S+T+U+V+W+%.",
"        @.S 7 ^ 4 u } t X+9.E J Y  .-.:._.3.6.c+5.6.n+v+_.:.-. .Y+J C s e t Z+u & ^ 7 S @+b.c.6+7+`+U+V+ @f+",
"        .@@.x.6 ] ~ ! | c q *.C K Y ` -.<. +(._._._.(./.<.=.].Y J C z q c | ! ~ ] 6 x.F #.|.z.+@G+`+@@#@$@f+",
"        %@T l 7 ^ 4 ~ p | &@X +.C K Y Z D.=.-.;.<.>.-.=.D.Z Y J C *.*@f | [ u 4 =@7 l T !.c.-@;@T+>@,@V+ @f+",
"        '@}.@.l 6 ] & u } | f q z E ..L Y .+` ` ` ` ` Z Y M ..C *.X f P } ) ~ ++6 x.@.}.|.)@#+7+`+!@~@V+W+%.",
"        {@!.@+l 7 6 Q ]@) } b f q s m.C ..J M r.r.M L J ..C R+z q d b } ) ~ k 6 7 O.T !.c.-@M+T+`+^@/@O+(@R.",
"        _@|.#.F l 7 ^ k ~ ) :@| c e q z A m.C C ..C C E A s q e c | } ) j k ^ <@l [@}@y.q+#+x+`+!@|@1@I+Q.J+",
"          2@|.}.F x.7 ^ k ~ u [ | g d e e q 3@z z r r q q e d t 1 [ ) ~ 4@++7 l @.}.b.c.6+5@T+>@^@6@7@z+A+B+",
"          8@9@~+}.@.l v ^ k % ~ ! :@| b E+d f f e f f d g b | } ! u & k ^ 7 l F }.b.9@-@#+x+`+0@|@a@#@s+t+  ",
"          b@z.y.!.c@@.l 7 6 ] 4 ~ ~ ! [ I | 1 | | | | I } [ ! u ~ 4 5 6 7 l @.@+n.y.z.#+7+`+U+d@e@f@g@e+f+  ",
"            h@z.y.n.}.@.l R 6 ++k 4 ~ ~ u ) ! ! ! h ! ) ~ ~ ~ & ] ^ 6 N.l @.@+n.y.q+#+S+T+>@^@i@j@k@l@9+0+  ",
"            m@#+q+y.!.}.[@S x.7 6 ^ ++Q & j ~ ~ ~ ~ ~ & 4 k ] ^ 6 7 x.S F n@!.y.q+#+S+T+`+o@|@p@q@V+}+|+    ",
"              r@#+s@c.|.n.@+@.l x.7 v 6 ^ T.] ++++5 ++++^ 6 v 7 t@l @.@+#.b.c.z.#+S+T+`+0@|@p@u@k@v@]+^+    ",
"              w@#+#+-@c.|.!.#.T @.S l t@7 7 v v v v 7 7 N.x.x@S @.@+}.n.|.c.-@#+S+G+`+0@|@e@y@z@V+}+%+      ",
"                A@x+#+6+q+c.|.n.#.c@[@F @.S l l [.l l S S F F @+#.!.|.c.q+6+#+7+T+`+0@|@e@B@C@7@l@Q.^+      ",
"                  D@G+;@#+-@)@c.|.b.n.#.}.c@@+T @+T @+c@}.#.n.b.|.E@q+-@#+5@G+`+`+F@|@e@B@G@k@O+H@B.        ",
"                  I@J@T+7+M+#+-@q+c.c.y.|.b.~+!.!.!.b.b.b.|.c.c.q+6+#+5@7+T+`+K@o@|@p@B@L@k@V+s+M@N@        ",
"                    O@P@`+G+7+5@#+#+-@z.z.c.c.c.c.c.q+q+q+z.6+#+M+;@x+G+N+>@!@d@Q@p@B@L@k@V+R@S@V           ",
"                      %.T@>@`+T+x+7+;@M+#+#+6+#+#+6+6+#+#+M+S+7+x+T+`+`+!@^@|@e@U@V@G@k@V+W@X@%.            ",
"                        %.Y@U+U+`+N+N+G+x+G+x+7+7+7+x+x+G+G+N+`+`+>@0@^@|@Z@p@B@`@ #k@V+R@X@.#              ",
"                          %.+#@#o@!@U+>@`+`+`+`+`+`+`+`+`+>@U+0@o@d@i@Z@p@B@V@##$#7@O+s+S@%.                ",
"                            V p.%#&#|@d@^@*#F@o@F@0@o@o@*#d@|@|@Z@p@U@B@V@=#-#k@V+l@H@M@V                   ",
"                              H B.Q.;#>#,#Z@Z@Q@Q@Q@i@Z@'#p@p@U@B@V@)#!#~#k@V+v@}+Q.B.N@                    ",
"                                  R.%+]+}+{#]#^#/#(#y@B@_#:#<#L@[#}#7@#@g@|#}+]+%+R.                        ",
"                                      ^+t+9+e+}+z+I+O+V+V+V+V+V+O+I+z+s+e+9+|+^+                            ",
"                                          0+f+t+A+Q.P+W+ @$@ @W+P+Q.A+t+f+0+                                ",
"                                                B+J+R.%..#f+.#%.R.J+B+                                      "};
