/* XPM */
static char *brown_destroy2[] = {
"36 36 64 1",
"  c black",
". c #752800",
"X c #7e846a",
"o c #903100",
"O c #a33800",
"+ c #974703",
"@ c #967d35",
"# c #b05000",
"$ c #ac771a",
"% c #937c52",
"& c #877d67",
"* c #937b68",
"= c #c95c00",
"- c #ce7104",
"; c #e86c08",
": c #e97b05",
"> c #f77a04",
", c #fd7d11",
"< c #908530",
"1 c #a89114",
"2 c #b79e31",
"3 c #8a8257",
"4 c #92894c",
"5 c #878268",
"6 c #a9944c",
"7 c #b6af56",
"8 c #b0aa60",
"9 c #db9001",
"0 c #c7a323",
"q c #e98e03",
"w c #fb8808",
"e c #ff8a14",
"r c #fb980b",
"t c #ff9815",
"y c #ff9921",
"u c #f8a609",
"i c #fea617",
"p c #f2b409",
"a c #feb816",
"s c #ffa621",
"d c #ffb923",
"f c #c9b14d",
"g c #ecbc58",
"h c #d6c72e",
"j c #f6c60d",
"k c #fdc817",
"l c #fad619",
"z c #ffc926",
"x c #ffda26",
"c c #f4d833",
"v c #fde727",
"b c #feeb37",
"n c #fef52c",
"m c #fff837",
"M c #d2ca59",
"N c #dbd46a",
"B c #fcd64f",
"V c #efd567",
"C c #f9eb53",
"Z c #fffa46",
"A c #fefa57",
"S c #f7ea72",
"D c #fdf764",
"F c None",
"FFFFFFFFFFFFFFFFFFFFFFFFFFFFFFFFFFFF",
"FFFFFFFFFFFFFFFFFFFFFFFFFFFFFFFFFFFF",
"FFFFFFFFFFFFFFFFFFFFFFFFFFFFFFFFFFFF",
"FFFFFFFFFFF5%<0hcbccC2@4&FFFFFFFFFFF",
"FFFFFFFFFF&%fVBAZZmmZASN635FFFFFFFFF",
"FFFFFFFFF&%fBBBbmmnnmZAADM<5FFFFFFFF",
"FFFFFFFF&%6Bi-qpkkpkjjbZZDS43FFFFFFF",
"FFFFFFF*%2B-#=eqquauuuzxmZAV65FFFFFF",
"FFFFFF&%2B9##;,wdarrqqupvmZAV3FFFFFF",
"FFFFFF%1D9-::,>trrddtrqajnnZD73FFFFF",
"FFFFF*@CZziteewwriirriaakvvmAS4&FFFF",
"FFFF&@fZvzdse>wwtrtewtrrukvnmAN3FFFF",
"FFFF&fCnlprweewtiwe>>wttiujvmmC4FFFF",
"FFF&4CZlpar>>eittweew>>eeqalnmA83FFF",
"FFF37Amvkatwtwtt>>,e>w>>wtujlmA74FFF",
"FFF<NAnlpaq:teeeee>e>,>twtaalvAN<FFF",
"FFF<NZnlxistwwe:ee,,,e>tttuakvAS<FFF",
"FFF<SAmbxutweeee>;,,>twrrriaklAS<FFF",
"FFF<SAvlkui>e;ee>,,>eeewtriaxlAS<FFF",
"FFF<SZnxkdurweete>,,>e>wstiplmAS<FFF",
"FFF<NZnxzauriw:w>e>e>>>wiiaplmAN<FFF",
"FFF%6Anlkarqtww>,eeeeet>wiujlnAN3FFF",
"FFF&4DZxkuarrte>ww>eewr>iiaplmD8&FFF",
"FFFF32Acpkaiirse>>>eew>ridalvZM4FFFF",
"FFFF&6SBpzudr:etew>eetwiuaplmCf3FFFF",
"FFFFF%fAbaarrtttrtettqtuqzknZS65FFFF",
"FFFFF&6MZxkiqtwwt:yeytiakklZD73FFFFF",
"FFFFFF37DZlzrse,e;=;;:rrajbDM3FFFFFF",
"FFFFFFX4MCZp9qw=#OoO=:tdzZAS<&FFFFFF",
"FFFFFFF54fCAz9#++o.+#-izCSN45FFFFFFF",
"FFFFFFFF54fDDDB$+.+$0gVgf64FFFFFFFFF",
"FFFFFFFFF&34fNSSVSVVg6%%3&FFFFFFFFFF",
"FFFFFFFFFFF&4<110001$%&&FFFFFFFFFFFF",
"FFFFFFFFFFFFFFFFFFFFFFFFFFFFFFFFFFFF",
"FFFFFFFFFFFFFFFFFFFFFFFFFFFFFFFFFFFF",
"FFFFFFFFFFFFFFFFFFFFFFFFFFFFFFFFFFFF"
};
