/* XPM */
static char * brown_jump4_xpm[] = {
"54 54 409 2",
"  	c None",
". 	c #B2A69E",
"+ 	c #B09988",
"@ 	c #AC8F7A",
"# 	c #AA866E",
"$ 	c #A87F64",
"% 	c #A67B5E",
"& 	c #A6785A",
"* 	c #A67A5C",
"= 	c #A67C60",
"- 	c #A6826A",
"; 	c #A98B75",
"> 	c #AB9485",
", 	c #AFA39B",
"' 	c #AE9380",
") 	c #AA8166",
"! 	c #A97D5F",
"~ 	c #A97E61",
"{ 	c #A77B5D",
"] 	c #A7795B",
"^ 	c #A67A5A",
"/ 	c #A37557",
"( 	c #9F7457",
"_ 	c #A1785D",
": 	c #A68B78",
"< 	c #AEA198",
"[ 	c #B1A399",
"} 	c #AB8975",
"| 	c #AA7F62",
"1 	c #AB8063",
"2 	c #AD8265",
"3 	c #AC8266",
"4 	c #AD8365",
"5 	c #A87D5E",
"6 	c #A4785A",
"7 	c #A27658",
"8 	c #9D7357",
"9 	c #9A7156",
"0 	c #A07D66",
"a 	c #A8988E",
"b 	c #B4ACA6",
"c 	c #AD8E79",
"d 	c #AD8367",
"e 	c #B08568",
"f 	c #AF8569",
"g 	c #B1876B",
"h 	c #B0866A",
"i 	c #AF8467",
"j 	c #AA7F60",
"k 	c #A87A5C",
"l 	c #A77B5B",
"m 	c #A37759",
"n 	c #966E54",
"o 	c #9D7E69",
"p 	c #A8A19C",
"q 	c #B09C8E",
"r 	c #AB7F61",
"s 	c #B3896D",
"t 	c #B2896E",
"u 	c #B38A6F",
"v 	c #B48A6E",
"w 	c #AE8366",
"x 	c #A87C5E",
"y 	c #9D7255",
"z 	c #936D53",
"A 	c #9F8B7F",
"B 	c #AF9381",
"C 	c #B48B70",
"D 	c #B58C71",
"E 	c #B79073",
"F 	c #B88F74",
"G 	c #B99173",
"H 	c #B78E73",
"I 	c #946B50",
"J 	c #AC779C",
"K 	c #BBBBBB",
"L 	c #AC8164",
"M 	c #BA9176",
"N 	c #BB9477",
"O 	c #BB9277",
"P 	c #BA9278",
"Q 	c #BB9379",
"R 	c #BB9177",
"S 	c #AE8466",
"T 	c #A47658",
"U 	c #9A7054",
"V 	c #946C52",
"W 	c #936A4F",
"X 	c #A26F86",
"Y 	c #B6B6B6",
"Z 	c #AB8D79",
"` 	c #B38B6D",
" .	c #BC947A",
"..	c #BD957B",
"+.	c #BE967C",
"@.	c #BF977D",
"#.	c #B99075",
"$.	c #B68C70",
"%.	c #936B51",
"&.	c #90674C",
"*.	c #9D6F7E",
"=.	c #B2B2B2",
"-.	c #AD9381",
";.	c #B48A70",
">.	c #BF997F",
",.	c #C2997E",
"'.	c #C19B81",
").	c #C39A7F",
"!.	c #C1977D",
"~.	c #BE987E",
"{.	c #B99177",
"].	c #966D52",
"^.	c #8D654B",
"/.	c #A0708E",
"(.	c #AF9A8D",
"_.	c #BE957C",
":.	c #C29B7E",
"<.	c #C39B83",
"[.	c #C49F86",
"}.	c #C5A087",
"|.	c #C39D83",
"1.	c #C29C82",
"2.	c #B2886C",
"3.	c #966D54",
"4.	c #91684D",
"5.	c #8E6448",
"6.	c #9E7B94",
"7.	c #B3AAA5",
"8.	c #C6A188",
"9.	c #C8A48A",
"0.	c #C9A48B",
"a.	c #C8A38A",
"b.	c #C7A187",
"c.	c #BA9076",
"d.	c #B3896F",
"e.	c #AD8167",
"f.	c #A67758",
"g.	c #8D6449",
"h.	c #8C6246",
"i.	c #9A8E97",
"j.	c #AB8B75",
"k.	c #C6A086",
"l.	c #CBA58B",
"m.	c #CDA88D",
"n.	c #CDA88F",
"o.	c #CDA58D",
"p.	c #CDA78D",
"q.	c #C39E85",
"r.	c #BC967A",
"s.	c #B68D72",
"t.	c #90664A",
"u.	c #866C5A",
"v.	c #9E9E9E",
"w.	c #B0A096",
"x.	c #BC9378",
"y.	c #CDA98F",
"z.	c #CFAA91",
"A.	c #D0AC94",
"B.	c #D1AC93",
"C.	c #CDA68F",
"D.	c #BC9578",
"E.	c #996F53",
"F.	c #8C6348",
"G.	c #8B6043",
"H.	c #91798A",
"I.	c #A8A8A8",
"J.	c #A7846D",
"K.	c #BF997D",
"L.	c #CCA48C",
"M.	c #CDA991",
"N.	c #D1AD95",
"O.	c #D3AD97",
"P.	c #D4B098",
"Q.	c #D3AF97",
"R.	c #CEAA90",
"S.	c #CCA68C",
"T.	c #BE967E",
"U.	c #997055",
"V.	c #826654",
"W.	c #929292",
"X.	c #B5B5B5",
"Y.	c #B1A39B",
"Z.	c #9F7559",
"`.	c #B68B72",
" +	c #C1987D",
".+	c #CAA58C",
"++	c #CEA990",
"@+	c #D7B299",
"#+	c #D8B49C",
"$+	c #D8B39C",
"%+	c #D6B29A",
"&+	c #C49E84",
"*+	c #BC937A",
"=+	c #A07558",
"-+	c #92694E",
";+	c #885D40",
">+	c #897784",
",+	c #A2A2A2",
"'+	c #AA8C78",
")+	c #D4AF96",
"!+	c #D9B59D",
"~+	c #DBB89F",
"{+	c #DDB9A1",
"]+	c #DBB79F",
"^+	c #DBB69D",
"/+	c #C7A289",
"(+	c #C5A085",
"_+	c #9C7256",
":+	c #8F6549",
"<+	c #7C685A",
"[+	c #8F8F8F",
"}+	c #B4B4B4",
"|+	c #A2785C",
"1+	c #DFBBA3",
"2+	c #E1BDA5",
"3+	c #DFBAA3",
"4+	c #DDB89F",
"5+	c #845E44",
"6+	c #7F7F7F",
"7+	c #A5A5A5",
"8+	c #AFA29B",
"9+	c #D5B299",
"0+	c #DDB99F",
"a+	c #E3BFA5",
"b+	c #E6C1A8",
"c+	c #895E41",
"d+	c #865A3C",
"e+	c #80707B",
"f+	c #969696",
"g+	c #B9B9B9",
"h+	c #AB9383",
"i+	c #C9A58B",
"j+	c #C8A18A",
"k+	c #7B6664",
"l+	c #888888",
"m+	c #B0B0B0",
"n+	c #A58671",
"o+	c #C7A089",
"p+	c #DAB69E",
"q+	c #DDB79D",
"r+	c #D9B39D",
"s+	c #D3B097",
"t+	c #D1AB91",
"u+	c #C8A288",
"v+	c #C59F85",
"w+	c #B68E74",
"x+	c #8B6145",
"y+	c #7C6554",
"z+	c #7E7E7E",
"A+	c #A6A6A6",
"B+	c #A27A60",
"C+	c #C69F88",
"D+	c #D4B096",
"E+	c #85593B",
"F+	c #805E48",
"G+	c #777777",
"H+	c #9B9B9B",
"I+	c #9B7157",
"J+	c #D4AF98",
"K+	c #AE8468",
"L+	c #AC8264",
"M+	c #84583A",
"N+	c #80583E",
"O+	c #737373",
"P+	c #B8B8B8",
"Q+	c #936B53",
"R+	c #C2987C",
"S+	c #8D6347",
"T+	c #875C3F",
"U+	c #815537",
"V+	c #6E6E6E",
"W+	c #8C8C8C",
"X+	c #966C52",
"Y+	c #C49F84",
"Z+	c #B68F72",
"`+	c #8F664B",
" @	c #875B3D",
".@	c #835739",
"+@	c #805234",
"@@	c #696969",
"#@	c #878787",
"$@	c #B28A6C",
"%@	c #BE9678",
"&@	c #AC8062",
"*@	c #835537",
"=@	c #686868",
"-@	c #848484",
";@	c #956F55",
">@	c #895D3F",
",@	c #825436",
"'@	c #7E563C",
")@	c #666666",
"!@	c #838383",
"~@	c #99745B",
"{@	c #AF866B",
"]@	c #B4896C",
"^@	c #A07456",
"/@	c #8A5F42",
"(@	c #885C3E",
"_@	c #815335",
":@	c #7B5943",
"<@	c #A07E68",
"[@	c #8C6144",
"}@	c #7F5133",
"|@	c #785F4E",
"1@	c #A48C7C",
"2@	c #A6785C",
"3@	c #7E4F30",
"4@	c #716157",
"5@	c #8B8B8B",
"6@	c #AC9E96",
"7@	c #AA7D62",
"8@	c #9C7154",
"9@	c #926A50",
"0@	c #8F654B",
"a@	c #7C4D2E",
"b@	c #6D6365",
"c@	c #8D6951",
"d@	c #B48C6E",
"e@	c #A4795A",
"f@	c #865B3E",
"g@	c #7B5437",
"h@	c #636363",
"i@	c #9E7F6A",
"j@	c #8C6046",
"k@	c #805132",
"l@	c #745E50",
"m@	c #A99C93",
"n@	c #91694F",
"o@	c #7D4E2F",
"p@	c #7B4B2B",
"q@	c #6D6364",
"r@	c #6C6C6C",
"s@	c #93735B",
"t@	c #7D4D2D",
"u@	c #775843",
"v@	c #626262",
"w@	c #747474",
"x@	c #A59389",
"y@	c #90664C",
"z@	c #7F5031",
"A@	c #7B4A29",
"B@	c #6C6160",
"C@	c #91725F",
"D@	c #8A6044",
"E@	c #986F54",
"F@	c #755947",
"G@	c #727272",
"H@	c #A69E98",
"I@	c #7A4A2A",
"J@	c #6A6466",
"K@	c #9B8677",
"L@	c #784828",
"M@	c #6F6159",
"N@	c #907664",
"O@	c #8D6245",
"P@	c #7E5032",
"Q@	c #725C4E",
"R@	c #858585",
"S@	c #886C5A",
"T@	c #815233",
"U@	c #784726",
"V@	c #745A48",
"W@	c #9D9D9D",
"X@	c #BABABA",
"Y@	c #A1A1A1",
"Z@	c #856B59",
"`@	c #825638",
" #	c #7C4C2C",
".#	c #7B7B7B",
"+#	c #979797",
"@#	c #8A6D67",
"##	c #7A4928",
"$#	c #774625",
"%#	c #7A7A7A",
"&#	c #949494",
"*#	c #9A748F",
"=#	c #7F5335",
"-#	c #7D4C2B",
";#	c #774727",
">#	c #6E6158",
",#	c #B1B1B1",
"'#	c #998C95",
")#	c #7E6250",
"!#	c #755845",
"~#	c #696364",
"{#	c #8E7587",
"]#	c #7D5E49",
"^#	c #7D4F31",
"/#	c #765640",
"(#	c #6D615E",
"_#	c #877482",
":#	c #786152",
"<#	c #7B5237",
"[#	c #7A4B2C",
"}#	c #764C30",
"|#	c #745C4C",
"1#	c #6C6263",
"2#	c #7C6C75",
"3#	c #736359",
"4#	c #775D4B",
"5#	c #78553E",
"6#	c #774E33",
"7#	c #77492B",
"8#	c #784D30",
"9#	c #77533B",
"0#	c #716155",
"a#	c #6E6263",
"b#	c #757575",
"                                                                                                            ",
"                                                                                                            ",
"                                                                                                            ",
"                                                                                                            ",
"                                          . + @ # $ % & * = - ; > ,                                         ",
"                                    . ' ) ! ~ ~ ~ ~ ~ ! { { ] ^ / ( _ : <                                   ",
"                                [ } ~ | 1 2 2 2 2 2 3 4 1 | ~ 5 ] 6 7 8 9 0 a                               ",
"                            b c ~ 1 2 d e f f g g g h f i d 3 1 j k l m ( 9 n o p                           ",
"                          q | r 2 d f g s t s u u v v s s g e w 2 | x ] m ( y n z A                         ",
"                        B ! 1 2 e g s C D E F F F G H H D C t g e 2 1 ! ] m ( 9 n I J K                     ",
"                      c ! L 2 f s v D F M N O P Q P R M M F D C s h S 1 ! ] T 8 U V W X Y                   ",
"                    Z ! 1 2 h ` C F M P  ...+.@.@.+.+... .O #.F $.t h 2 1 ! & / y n %.&.*.=.                ",
"                  -.{ | 2 h t ;.F M  ...@.>.,.'.).'.,.!.~.+. .{.F $.s h 2 | { 6 ( 9 ].W ^./.=.              ",
"                (.] ~ 2 e t $.F O  ._.:.).<.[.}.}.}.[.|.1.>.~. .O G $.2.e 2 ~ ] / 8 3.I 4.5.6.=.            ",
"              7.* x 1 i g C H M  .@.,.|.}.8.9.0.0.0.a.b.}.|.,.@. .c.F d.g e.1 { f.( 9 ].4.g.h.i.Y           ",
"              j.] ! 3 f t D M  .~.,.<.k.a.l.m.m.n.o.p.l.a.k.q.'.~.r.M s.t e 3 ~ ] 7 8 n I t.h.u.v.K         ",
"            w.6 { | w g C F x.+.>.|.k.0.p.y.z.A.A.B.z.C.p.0.k.|.>...D.F u g w | { T 8 E.%.&.F.G.H.I.        ",
"            J.^ 5 L i 2.D {. .K.).}.a.L.M.N.O.P.P.Q.Q.N.R.S.9.}.1.T. .M $.s e L x & ( U.z 4.g.G.V.W.X.      ",
"          Y.Z.& ! L f s `.M .. +q.b..+++B.Q.@+#+$+#+%+O.A.++l.b.&+ +*+M s.s f 2 ! * =+9 V -+g.h.;+>+,+      ",
"          '+=+] ~ 4 h s H O +.,.[.a.p.z.)+%+!+~+{+]+^+%+)+z.p./+(+,.+.O F u h 3 ~ ] / _+].-+:+h.;+<+[+}+    ",
"          |+7 ] r 2 h C F x.~.1.}.0.p.A.)+#+]+1+2+3+4+#+)+A.p.0.}.).~.D.F u g 2 ~ ] 7 y n W g.h.;+5+6+7+    ",
"        8+y =+] r 2 h C #.Q @.).}.0.n.B.9+!+0+a+b+2+{+!+P.B.y.0.}.1.+.Q #.v g 2 ~ ] / y ].W ^.h.c+d+e+f+g+  ",
"        h+y =+] ~ 2 g C F P +.).}.i+m.A.P.#+]+1+a+1+4+#+)+A.m.j+}.1.+.Q F C g 2 ~ * / y ].W ^.h.c+d+k+l+m+  ",
"        n+y =+] ~ 2 h u F P +.,.[.o+p.z.Q.@+p+]+0+q+r+%+s+t+p.u+v+,.+.P w+u h 2 ~ ] =+y ].-+g.x+;+d+y+z+A+  ",
"        B+9 =+& ! 2 f s E M ..>.|.C+.+n.A.D+@+#+!+#+@+O.B.R..+b.&+!...c.H t f 2 ! & ( y V -+g.h.;+E+F+G+H+K ",
"        I+U ( & { L i s $.#. .T.1.}.a.p.++B.)+P.J+)+O.A.++p.a.}.1.@. .M D s K+L+x 6 ( U.z 4.5.G.;+M+N+O+W.P+",
"        Q+E.8 m { | w g C F O ..R+<.}.0.p.n.z.A.A.A.t+n.p.0.k.|.>...P F C g 2 | { m 8 E.I &.S+G.T+M+U+V+W+X.",
"        I X+y / ] ~ 2 e s s.#.Q @.'.Y+}.a.S.p.m.p.p.p.l.a.k.&+,.@.Q M Z+` h 2 ~ ] / y n W `+h.c+ @.@+@@@#@=.",
"        %.V 9 ( 6 x 1 w $@d.H M  .@.,.|.}.8.a.j+0.a.u+C+}.|.,.@.%@M F v 2.w &@x & ( 9 V -+g.h.c+d+*@+@=@-@m+",
"        ;@%.E.8 / ] ~ 2 e s ;.F N  .+.,.1.&+[.}.}.}.[.<.1.>._. .M F C s e 2 ~ ] / 8 E.I &.5.G.>@M+,@'@)@!@m+",
"        ~@W ].9 ( 6 { r 2 {@` $.F N  ...K.>.,.'.1.).,.>.K... .M F ;.]@h 2 | x 6 ^@9 ].W ^.h./@(@.@_@:@=@-@m+",
"        <@4.%.n 8 / & x 1 2 h s C H #.O  .*++.+.+.+.+... .P #.F ;.` h S 1 ! ] =+8 E.%.4.5.[@;+d+*@}@|@@@#@=.",
"        1@^.-+].9 8 T 2@! 1 d h s v s.F #.M P x.x.P O M #.F Z+C s f d 1 ! ] m 8 9 z W ^.h./@T+.@,@3@4@V+5@X.",
"        6@5.&.I n 9 ( m ] ! 7@2 e g s C D s.F F #.F F H D v s g e 2 1 ! l m ( 8@n 9@0@S+x+;+E+*@}@a@b@O+W.P+",
"          c@5.4.I E.9 ( m ] x | 2 i f g 2.s d@C C u u s s g f w 3 | ! ] e@=+9 n %.4.g.h.c+f@.@_@3@g@h@G+H+K ",
"          i@j@:+4.%.n y ( m * { ~ 7@2 d K+f h h g h h f i d 2 1 ~ x & m ( 9 n I 4.g.j@/@;+E+*@k@a@l@)@z+A+  ",
"          m@G.S+^.n@%.n 9 8 / 6 ] { ~ | L 2 3 2 2 2 2 L 1 | ~ x ] 6 7 8 9 n %.-+`+S+G.;+d+*@+@o@p@q@r@l+m+  ",
"            s@G.S+`+4.%.n U 8 =+m 6 ] ] x ! ~ ~ ~ j ~ ! { { ] & / ( 8 U.].%.-+`+S+x+;+ @.@_@3@t@u@v@w@f+g+  ",
"            x@;+x+S+^.4.9@V E.9 8 ( =+T & l ] ] ] ] ] & 6 m / ( 8 9 E.V I y@^.S+x+;+ @.@,@z@a@A@B@=@6+7+    ",
"              C@;+D@h.5.`+-+%.].E.9 y 8 ( Z./ =+=+7 =+=+( 8 y 9 E@].%.-+&.g.h.G.;+ @.@,@k@a@A@F@v@G@[+}+    ",
"              H@;+;+/@h.5.^.&.W %.V n E@9 9 y y y y 9 9 U.E.n V %.-+4.`+5.h./@;+ @M+,@k@a@p@I@J@=@6+,+      ",
"                K@E+;+c+x+h.5.`+&.n@9@I %.V ].n X+].].V V I I -+&.^.5.h.x+c+;+d+.@,@k@a@p@L@M@h@w@W.}+      ",
"                  N@M+(@;+/@[@h.5.g.`+&.4.n@-+W -+W -+n@4.&.`+g.5.O@x+/@;+f@M+*@,@P@a@p@L@Q@v@V+R@I.        ",
"                  7+S@.@d+T+;+/@x+h.h.S+5.g.:+^.^.^.g.g.g.5.h.h.x+c+;+f@d+.@,@T@z@a@A@U@V@v@@@z+W@X@        ",
"                    Y@Z@*@M+d+f@;+;+/@G.G.h.h.h.h.h.x+x+x+G.c+;+T+(@E+M+`@_@}@o@ #A@U@V@v@=@.#+#Y           ",
"                      =.@#_@*@.@E+d+(@T+;+;+c+;+;+c+c+;+;+T+ @d+E+.@*@,@}@3@a@p@##$#Q@v@=@%#&#=.            ",
"                        =.*#=#+@,@`@`@M+E+M+E+d+d+d+E+E+M+M+`@*@,@_@k@3@a@-#A@U@;#>#v@@@.#&#,#              ",
"                          =.'#)#z@}@+@_@,@,@*@*@*@*@,@,@,@_@+@k@z@o@t@-#A@U@$#!#~#h@V+z++#=.                ",
"                            Y v.{#]#a@o@3@^#P@z@P@k@z@z@^#o@a@a@-#A@##U@$#/#(#v@=@w@R@W@Y                   ",
"                              K I.W._#:#<#-#-# # # #t@-#[#A@A@##U@$#}#|#1#v@=@G@6+W.I.X@                    ",
"                                  X.,+[+6+2#3#4#5#6#I@L@7#8#9#V@0#a#h@)@r@b#6+[+,+X.                        ",
"                                      }+A+f+l+6+G+O+V+@@=@=@=@@@V+O+G+z+l+f+7+}+                            ",
"                                          g+m+A+H+W.W+#@-@!@-@#@W+W.H+A+m+g+                                ",
"                                                K P+X.=.,#m+,#=.X.P+K                                       "};
