/* XPM */
static char * brown_jump3_xpm[] = {
"54 54 400 2",
"  	c None",
". 	c #B4A8A0",
"+ 	c #B19B8B",
"@ 	c #AE917C",
"# 	c #AC8870",
"$ 	c #AA8166",
"% 	c #A87D60",
"& 	c #A87C5E",
"* 	c #A87E62",
"= 	c #A8846C",
"- 	c #AB8D77",
"; 	c #AD9687",
"> 	c #B1A59D",
", 	c #B09682",
"' 	c #AB8369",
") 	c #AB7F61",
"! 	c #AB8063",
"~ 	c #A97D5F",
"{ 	c #A87D5E",
"] 	c #A6785A",
"^ 	c #A37759",
"/ 	c #A47B60",
"( 	c #A88E7A",
"_ 	c #B0A39A",
": 	c #B2A59C",
"< 	c #AD8B77",
"[ 	c #AB8165",
"} 	c #AD8265",
"| 	c #AE8468",
"1 	c #AE8668",
"2 	c #AA7F60",
"3 	c #A77B5D",
"4 	c #A5795B",
"5 	c #A17659",
"6 	c #9E7458",
"7 	c #A27F68",
"8 	c #AA9A90",
"9 	c #B6AEA8",
"0 	c #AF907B",
"a 	c #AF8569",
"b 	c #B1876B",
"c 	c #B2896E",
"d 	c #B2886C",
"e 	c #B18669",
"f 	c #AC8162",
"g 	c #AA7C5E",
"h 	c #A97E5F",
"i 	c #A67A5C",
"j 	c #9A7156",
"k 	c #9F806B",
"l 	c #AAA39E",
"m 	c #B19F91",
"n 	c #AC8164",
"o 	c #B58B6F",
"p 	c #B48B70",
"q 	c #B48C72",
"r 	c #B68C70",
"s 	c #B08568",
"t 	c #AA7E60",
"u 	c #A07558",
"v 	c #967056",
"w 	c #A18D81",
"x 	c #B09684",
"y 	c #B68D72",
"z 	c #B78E73",
"A 	c #B89276",
"B 	c #BA9176",
"C 	c #BA9376",
"D 	c #B89076",
"E 	c #976E53",
"F 	c #AC779C",
"G 	c #BBBBBB",
"H 	c #AE8366",
"I 	c #BC9378",
"J 	c #BC967A",
"K 	c #BC947A",
"L 	c #BD957B",
"M 	c #BC937A",
"N 	c #B08768",
"O 	c #A7795B",
"P 	c #9D7357",
"Q 	c #986F54",
"R 	c #976D51",
"S 	c #A27086",
"T 	c #B6B6B6",
"U 	c #AD8F7B",
"V 	c #B58D6F",
"W 	c #BE967C",
"X 	c #BF977D",
"Y 	c #C0987E",
"Z 	c #C1997F",
"` 	c #BB9277",
" .	c #B88E72",
"..	c #966E54",
"+.	c #946A4E",
"@.	c #9D707F",
"#.	c #B2B2B2",
"$.	c #AF9583",
"%.	c #B68C72",
"&.	c #C19B81",
"*.	c #C39B81",
"=.	c #C39D83",
"-.	c #C49C82",
";.	c #C29980",
">.	c #C09A80",
",.	c #BA947A",
"'.	c #9A7054",
").	c #91684D",
"!.	c #A0718E",
"~.	c #B09C90",
"{.	c #C0977E",
"].	c #C39D81",
"^.	c #C59D85",
"/.	c #C6A188",
"(.	c #C7A289",
"_.	c #C59F85",
":.	c #C49E84",
"<.	c #B48A6E",
"[.	c #9A7056",
"}.	c #946B50",
"|.	c #92674A",
"1.	c #9E7B94",
"2.	c #B5ACA7",
"3.	c #C8A38A",
"4.	c #CAA68C",
"5.	c #CBA68D",
"6.	c #CAA58C",
"7.	c #C9A389",
"8.	c #BC9278",
"9.	c #B48B72",
"0.	c #AF8369",
"a.	c #A87A5C",
"b.	c #91674B",
"c.	c #906548",
"d.	c #9A8E97",
"e.	c #AD8D77",
"f.	c #C8A288",
"g.	c #CDA78D",
"h.	c #CEAA90",
"i.	c #CFAA91",
"j.	c #CEA790",
"k.	c #CEA990",
"l.	c #C5A087",
"m.	c #BE987C",
"n.	c #B88F74",
"o.	c #94694C",
"p.	c #896F5D",
"q.	c #9E9E9E",
"r.	c #B1A299",
"s.	c #CFAB91",
"t.	c #D0AC94",
"u.	c #D2AE96",
"v.	c #D3AE95",
"w.	c #CFA891",
"x.	c #BD977B",
"y.	c #9D7255",
"z.	c #90664A",
"A.	c #8F6345",
"B.	c #91798A",
"C.	c #A8A8A8",
"D.	c #A9866F",
"E.	c #C19B7F",
"F.	c #CDA68F",
"G.	c #CFAB93",
"H.	c #D3AF97",
"I.	c #D4AF98",
"J.	c #D5B199",
"K.	c #D4B098",
"L.	c #D0AC92",
"M.	c #CDA88F",
"N.	c #C09880",
"O.	c #9C7358",
"P.	c #976F55",
"Q.	c #866956",
"R.	c #929292",
"S.	c #B5B5B5",
"T.	c #B3A59D",
"U.	c #A3785B",
"V.	c #B88E74",
"W.	c #C29A80",
"X.	c #CCA78E",
"Y.	c #D0AB92",
"Z.	c #D8B39A",
"`.	c #D9B59D",
" +	c #D9B49D",
".+	c #D7B39B",
"++	c #C6A086",
"@+	c #BE957C",
"#+	c #A4785A",
"$+	c #966C50",
"%+	c #8C6042",
"&+	c #897784",
"*+	c #A2A2A2",
"=+	c #AB8E7B",
"-+	c #D5B097",
";+	c #DAB69E",
">+	c #DCB9A0",
",+	c #DEBAA2",
"'+	c #DCB8A0",
")+	c #DCB79E",
"!+	c #C9A48B",
"~+	c #C7A287",
"{+	c #9F7559",
"]+	c #93684B",
"^+	c #806B5C",
"/+	c #8F8F8F",
"(+	c #B4B4B4",
"_+	c #A57B5F",
":+	c #E0BCA4",
"<+	c #E2BEA6",
"[+	c #E0BBA4",
"}+	c #DEB9A0",
"|+	c #886046",
"1+	c #7F7F7F",
"2+	c #A5A5A5",
"3+	c #B1A49D",
"4+	c #D6B39A",
"5+	c #DEBAA0",
"6+	c #E4C0A6",
"7+	c #E7C2A9",
"8+	c #8D6143",
"9+	c #8A5C3E",
"0+	c #80707B",
"a+	c #969696",
"b+	c #B9B9B9",
"c+	c #AC9586",
"d+	c #CBA78D",
"e+	c #CAA38C",
"f+	c #7E6866",
"g+	c #888888",
"h+	c #B0B0B0",
"i+	c #A78873",
"j+	c #C9A28B",
"k+	c #DBB79F",
"l+	c #DEB89E",
"m+	c #DAB59E",
"n+	c #D4B198",
"o+	c #D2AD94",
"p+	c #CAA48A",
"q+	c #C7A187",
"r+	c #8F6447",
"s+	c #806856",
"t+	c #7E7E7E",
"u+	c #A6A6A6",
"v+	c #A47E64",
"w+	c #C8A18A",
"x+	c #D5B197",
"y+	c #895B3D",
"z+	c #84614A",
"A+	c #777777",
"B+	c #9B9B9B",
"C+	c #9F7359",
"D+	c #D5B099",
"E+	c #AF866B",
"F+	c #AE8566",
"G+	c #885A3C",
"H+	c #845B40",
"I+	c #737373",
"J+	c #B8B8B8",
"K+	c #976E55",
"L+	c #C39A7F",
"M+	c #8B5F41",
"N+	c #855739",
"O+	c #6F6F6F",
"P+	c #8C8C8C",
"Q+	c #9A6E54",
"R+	c #C6A186",
"S+	c #B89174",
"T+	c #93694D",
"U+	c #8B5D3F",
"V+	c #87593B",
"W+	c #845536",
"X+	c #696969",
"Y+	c #878787",
"Z+	c #B48C6E",
"`+	c #BF987B",
" @	c #AE8264",
".@	c #885838",
"+@	c #848484",
"@@	c #987258",
"#@	c #8D5F41",
"$@	c #865738",
"%@	c #82593E",
"&@	c #676767",
"*@	c #838383",
"=@	c #9C775E",
"-@	c #B1886D",
";@	c #A47658",
">@	c #8E6244",
",@	c #8C5E40",
"'@	c #855637",
")@	c #7F5C45",
"!@	c #A2806A",
"~@	c #906446",
"{@	c #845434",
"]@	c #7B6251",
"^@	c #A68E7E",
"/@	c #A87B60",
"(@	c #835231",
"_@	c #756459",
":@	c #8B8B8B",
"<@	c #ADA099",
"[@	c #AB7F65",
"}@	c #A07456",
"|@	c #966D52",
"1@	c #93674D",
"2@	c #81502F",
"3@	c #6F6567",
"4@	c #916C53",
"5@	c #B68E70",
"6@	c #A77C5D",
"7@	c #8A5E40",
"8@	c #7F5739",
"9@	c #656565",
"0@	c #9F816D",
"a@	c #906348",
"b@	c #855433",
"c@	c #786152",
"d@	c #AA9E96",
"e@	c #946C52",
"f@	c #825130",
"g@	c #804E2C",
"h@	c #6F6566",
"i@	c #6D6D6D",
"j@	c #96765E",
"k@	c #82502E",
"l@	c #7B5B45",
"m@	c #636363",
"n@	c #747474",
"o@	c #A7958B",
"p@	c #94684E",
"q@	c #845332",
"r@	c #7F4D2B",
"s@	c #6F6463",
"t@	c #957561",
"u@	c #8E6346",
"v@	c #9C7256",
"w@	c #795C49",
"x@	c #727272",
"y@	c #A8A09A",
"z@	c #997157",
"A@	c #7E4D2C",
"B@	c #6B6567",
"C@	c #9C887A",
"D@	c #7D4B29",
"E@	c #73645B",
"F@	c #947866",
"G@	c #916547",
"H@	c #835333",
"I@	c #765F50",
"J@	c #858585",
"K@	c #A7A7A7",
"L@	c #8B6F5D",
"M@	c #855535",
"N@	c #7E4A28",
"O@	c #775D4B",
"P@	c #9D9D9D",
"Q@	c #BABABA",
"R@	c #A3A3A3",
"S@	c #896D5B",
"T@	c #86583A",
"U@	c #804F2E",
"V@	c #7B7B7B",
"W@	c #979797",
"X@	c #8D6F69",
"Y@	c #7E4C2A",
"Z@	c #7D4927",
"`@	c #7A7A7A",
" #	c #949494",
".#	c #9A748F",
"+#	c #814F2D",
"@#	c #72645A",
"##	c #B1B1B1",
"$#	c #998C95",
"%#	c #816553",
"&#	c #785B48",
"*#	c #6B6566",
"=#	c #8E7587",
"-#	c #80614C",
";#	c #825232",
">#	c #7A5842",
",#	c #706360",
"'#	c #877482",
")#	c #7B6455",
"!#	c #7F5539",
"~#	c #7F4E2D",
"{#	c #7A4F32",
"]#	c #775F4F",
"^#	c #6E6465",
"/#	c #7C6D76",
"(#	c #77665B",
"_#	c #7A604E",
":#	c #7C5840",
"<#	c #7C5134",
"[#	c #7C4C2C",
"}#	c #7D4F31",
"|#	c #7B563D",
"1#	c #756457",
"2#	c #706465",
"3#	c #757575",
"                                                                                                            ",
"                                                                                                            ",
"                                                                                                            ",
"                                                                                                            ",
"                                          . + @ # $ % & % * = - ; >                                         ",
"                                    . , ' ) ! ! ! ! ! ) ~ ~ ~ { ] ^ / ( _                                   ",
"                                : < ! [ } | | | | | | 1 } [ ! 2 ~ 3 4 5 6 7 8                               ",
"                            9 0 ! } | a b b b c c c d b e a | } f g h i ^ 6 j k l                           ",
"                          m [ n | a b c o p o q q r r o o c b s | [ t ~ i ^ u j v w                         ",
"                        x ) } | b c o y z A B B B C D D z y p c b | } ) ~ i ^ 6 j E F G                     ",
"                      0 ) H | b o r z B I J K K L K M I I B z y o d N } ) ~ O 5 P Q R S T                   ",
"                    U ) } | d V y B I K W X Y Z Z Y Y X W K ` B  .p d | } ) & ] u j ..+.@.#.                ",
"                  $.~ [ | d p %.B I W X Z &.*.=.-.=.*.;.>.Y W ,.B  .o d | [ ~ 3 ^ 6 '.R ).!.#.              ",
"                ~.~ ! | b p  .B K W {.].-.^./.(.(.(./._.:.&.>.W K C  .<.b | ! ~ ] 5 [.E }.|.1.#.            ",
"              2.% t } e c y D I W Z *._.(.3.4.5.5.5.6.7.(._.*.Z W 8.B 9.c 0.} ~ a.^ 6 '.}.b.c.d.T           ",
"              e.~ ) | b p z I W >.*.^.f.6.g.h.h.i.j.k.g.6.f.l.=.>.m.I n.p b | ! ~ 4 5 j E o.c.p.q.G         ",
"            r.3 ~ [ s c y B L Y &._.f.5.k.s.t.u.u.v.t.w.k.5.f._.&.X x.B q c s [ ~ O 5 y...+.z.A.B.C.        ",
"            D.{ 2 H e <.z ,.W E.-.(.6.F.G.H.I.J.J.K.K.H.L.M.4.(.:.N.W I  .o b H t & ^ O.P.}.b.A.Q.R.S.      ",
"          T.U.& ) H b o V.I X W.l.7.X.Y.v.K.Z.`. +`..+I.u.Y.g.7.++W.@+I n.o b | ) % #+6 Q $+b.c.%+&+*+      ",
"          =+#+~ ! 1 d o D K Y *./.6.k.t.-+.+;+>+,+'+)+.+-+t.k.!+~+*.Y K B q d | ! ~ ] {+'.$+]+c.%+^+/+(+    ",
"          _+4 ~ n | d y B L >.:.(.5.k.u.-+`.'+:+<+[+}+`.-+u.k.5.(.-.>.x.B q c | ! ~ 4 u j R b.c.%+|+1+2+    ",
"        3+u #+~ n | d y ` L Z -.(.5.i.v.4+;+5+6+7+<+,+;+J.v.s.5.(.:.Y L ` r c | ! ~ ] u '.R ).c.8+9+0+a+b+  ",
"        c+u #+~ ! | c y B K Y -.(.d+h.u.J.`.'+:+6+:+}+`.-+u.h.e+(.:.Y L B y c | ! % ] u '.R ).c.8+9+f+g+h+  ",
"        i+u #+~ ! | d q B K Y *./.j+k.t.K.Z.k+'+5+l+m+.+n+o+k.p+q+*.Y K D q d | ! ~ #+u '.$+b.r+%+9+s+t+u+  ",
"        v+6 #+& ) | b o A I X &._.w+X.i.u.x+Z.`.;+`.Z.I.v.L.X.7.++;.X 8.D p b | ) & ^ u Q $+b.c.%+y+z+A+B+G ",
"        C+P ^ & ~ H e o  .` W N.:.(.6.k.Y.v.-+J.D+-+I.u.Y.k.6.(.:.Z W I z o E+F+t 3 ^ O.P.}.|.A.%+G+H+I+R.J+",
"        K+y.5 i ~ [ s c y B K X L+^.(.5.k.i.t.u.u.u.o+i.k.5.f._.&.X K B y c | [ ~ i 5 y.E +.z.A.M+G+N+O+P+S.",
"        E Q+u ] ~ ! | b o n.` L Z =.R+(.6.M.k.h.k.k.k.g.6.f.++*.Z L I S+V d | ! ~ ] u j R T+c.8+U+V+W+X+Y+#.",
"        ..Q 6 ^ 3 t } s Z+9.D I W Z *._.(.3.6.e+5.6.p+w+(._.*.Z `+I B r <.s  @t & ^ 6 Q $+b.c.8+9+.@W+X++@h+",
"        @@..y.5 ] ~ ! | b o %.B J W Y *.:.++/.(.(.(./.^.:.&.{.W I B y o b | ! ~ ] 5 y.E +.|.A.#@G+$@%@&@*@h+",
"        =@R '.6 ^ 3 ~ n | -@V  .B J W X E.&.*.=.:.-.*.&.E.X W I B %.o d | [ t 3 ;@6 '.R ).c.>@,@V+'@)@X++@h+",
"        !@}...j 5 ] & t } | d o y D ` K W @+Y Y Y Y Y X W K ` B %.V d N } ) ~ #+5 y...}.|.~@%+9+.@{@]@X+Y+#.",
"        ^@).$+'.6 5 O /@) } a d o r n.B ` I K L L K K I ` B S+y o b a } ) ~ i 5 6 P.R ).c.>@M+V+$@(@_@O+:@S.",
"        <@|.+.E j 6 ^ i ~ ) [@| b c o y z n.B B ` B B D z r o c b | } ) h i ^ }@j |@1@z.r+%+y+.@{@2@3@I+R.J+",
"          4@|.}.E y.6 ^ i ~ t [ | e b c <.o 5@y y q q o o c b s | [ ) ~ 6@#+6 j ..}.b.c.8+7@V+'@(@8@9@A+B+G ",
"          0@a@]+}...j u ^ i % ~ ! [@| a E+b d d c d d b e a | } ! t & i ^ 6 j E }.b.a@>@%+y+.@b@2@c@&@t+u+  ",
"          d@A.z.).e@..j 6 5 ] 3 ~ ~ ! [ H | | | | | | H } [ ! t ~ 3 4 5 6 j ..$+T+z.A.%+9+.@W+f@g@h@i@g+h+  ",
"            j@A.z.T+}...j P 5 #+i 3 ~ ~ t ) ! ! ! f ! ) ~ ~ ~ & ] ^ 5 O.'...$+T+z.r+%+U+V+'@(@k@l@m@n@a+b+  ",
"            o@%+r+z.).}.|@Q y.6 5 ^ #+O & h ~ ~ ~ ~ ~ & 3 i ] ^ 5 6 y.Q E p@).z.r+%+U+V+$@q@2@r@s@X+1+2+    ",
"              t@%+u@c.|.T+$+..'.y.6 u 5 ^ U.] #+#+4 #+#+^ 5 u 6 v@'...$++.b.c.A.%+U+V+$@b@2@r@w@m@x@/+(+    ",
"              y@%+%+>@c.|.).+.R ..Q j v@6 6 u u u u 6 6 O.y.z@Q ..$+}.T+|.c.>@%+U+G+$@b@2@g@A@B@X+1+*+      ",
"                C@y+%+8+r+c.|.T++.e@|@E ..Q '.j Q+'.'.Q Q E E $++.).|.c.r+8+%+9+V+$@b@2@g@D@E@9@n@R.(+      ",
"                  F@G+,@%+>@~@c.|.b.T++.}.e@$+R $+R $+e@}.+.T+b.|.G@r+>@%+7@G+.@$@H@2@g@D@I@m@O+J@C.        ",
"                  K@L@V+9+M+%+>@r+c.c.z.|.b.]+).).).b.b.b.|.c.c.r+8+%+7@9+V+$@M@q@2@r@N@O@m@X+t+P@Q@        ",
"                    R@S@.@G+9+7@%+%+>@A.A.c.c.c.c.c.r+r+r+A.8+%+M+,@y+G+T@'@{@f@U@r@N@O@m@X+V@W@T           ",
"                      #.X@'@.@V+y+9+,@M+%+%+8+%+%+8+8+%+%+M+U+9+y+V+.@$@{@(@2@g@Y@Z@I@m@X+`@ ##.            ",
"                        #..#W+W+$@T@T@G+y+G+y+9+9+9+y+y+G+G+T@.@$@'@b@(@2@+#r@N@D@@#m@X+V@ ###              ",
"                          #.$#%#q@{@W+'@$@$@.@.@.@.@$@$@$@'@W+b@q@f@k@+#r@N@Z@&#*#9@O+t+W@#.                ",
"                            T q.=#-#2@f@(@;#H@q@H@b@q@q@;#f@2@2@+#r@Y@N@Z@>#,#m@X+n@J@P@T                   ",
"                              G C.R.'#)#!#+#+#U@U@U@k@+#~#r@r@Y@N@Z@{#]#^#m@X+x@1+R.C.Q@                    ",
"                                  S.*+/+1+/#(#_#:#<#A@D@[#}#|#O@1#2#9@&@i@3#1+/+*+S.                        ",
"                                      (+u+a+g+1+A+I+O+X+X+X+X+X+O+I+A+t+g+a+2+(+                            ",
"                                          b+h+u+B+R.P+Y++@*@+@Y+P+R.B+u+h+b+                                ",
"                                                G J+S.#.##h+###.S.J+G                                       "};
