/* XPM */
static char * brown_small_xpm[] = {
"32 32 221 2",
"  	c None",
". 	c #666666",
"+ 	c #6A6764",
"@ 	c #79645D",
"# 	c #86665A",
"$ 	c #8F6859",
"% 	c #926656",
"& 	c #906354",
"* 	c #8B6153",
"= 	c #826256",
"- 	c #756059",
"; 	c #6A6462",
"> 	c #696665",
", 	c #82685E",
"' 	c #986B5C",
") 	c #9C7160",
"! 	c #9D7061",
"~ 	c #9D7363",
"{ 	c #9C7162",
"] 	c #9B6F5F",
"^ 	c #996C5D",
"/ 	c #956859",
"( 	c #926654",
"_ 	c #8C5E4E",
": 	c #795D53",
"< 	c #686562",
"[ 	c #746560",
"} 	c #956D5D",
"| 	c #A17667",
"1 	c #A4796A",
"2 	c #A57B6D",
"3 	c #A67E6E",
"4 	c #A57D6D",
"5 	c #A47C6C",
"6 	c #A17767",
"7 	c #9D7263",
"8 	c #936657",
"9 	c #8E6250",
"0 	c #855B4B",
"a 	c #6F5F59",
"b 	c #776861",
"c 	c #A07868",
"d 	c #AA8172",
"e 	c #AD8475",
"f 	c #AF8677",
"g 	c #AF8779",
"h 	c #A97F71",
"i 	c #966A58",
"j 	c #8E6150",
"k 	c #885A48",
"l 	c #6F5D57",
"m 	c #726662",
"n 	c #A77D6F",
"o 	c #AE8576",
"p 	c #B28A7C",
"q 	c #B58E81",
"r 	c #B79083",
"s 	c #B89184",
"t 	c #A27768",
"u 	c #956957",
"v 	c #8D5F4D",
"w 	c #865744",
"x 	c #6C5F5A",
"y 	c #916D5F",
"z 	c #A87F70",
"A 	c #AF8777",
"B 	c #B58D7F",
"C 	c #BA9486",
"D 	c #BD988B",
"E 	c #C19C8F",
"F 	c #C29C8E",
"G 	c #C09B8E",
"H 	c #BE9A8C",
"I 	c #AE8678",
"J 	c #A88070",
"K 	c #9A6F5E",
"L 	c #916353",
"M 	c #895A49",
"N 	c #7D5545",
"O 	c #666564",
"P 	c #7E665E",
"Q 	c #BC9688",
"R 	c #C29D90",
"S 	c #C6A296",
"T 	c #C9A599",
"U 	c #CBA79B",
"V 	c #B58E7F",
"W 	c #956A59",
"X 	c #8D604F",
"Y 	c #71574D",
"Z 	c #676665",
"` 	c #A27868",
" .	c #C8A498",
"..	c #CDAB9F",
"+.	c #D2AFA4",
"@.	c #D3B1A5",
"#.	c #D2B0A4",
"$.	c #CEACA0",
"%.	c #C7A297",
"&.	c #906352",
"*.	c #875747",
"=.	c #7D4E3D",
"-.	c #766660",
";.	c #9B705F",
">.	c #A47B6A",
",.	c #B59081",
"'.	c #D5B4A9",
").	c #DAB9AE",
"!.	c #DDBCB1",
"~.	c #DABBB0",
"{.	c #D5B3A7",
"].	c #926554",
"^.	c #80513E",
"/.	c #6C5B54",
"(.	c #83665B",
"_.	c #9C7262",
":.	c #AF8879",
"<.	c #E2C2B8",
"[.	c #E6C6BC",
"}.	c #CAA79A",
"|.	c #9D7261",
"1.	c #946856",
"2.	c #8B5D4B",
"3.	c #825340",
"4.	c #715245",
"5.	c #8B6759",
"6.	c #A67C6E",
"7.	c #B89384",
"8.	c #D4B2A6",
"9.	c #EED1C8",
"0.	c #DDBDB1",
"a.	c #D3B2A7",
"b.	c #B79285",
"c.	c #8A5D4C",
"d.	c #754D3D",
"e.	c #926756",
"f.	c #E5C6BD",
"g.	c #E2C3B8",
"h.	c #81523F",
"i.	c #774937",
"j.	c #A3796B",
"k.	c #CDAA9F",
"l.	c #DAB8AE",
"m.	c #BF998B",
"n.	c #926454",
"o.	c #8A5C4A",
"p.	c #774433",
"q.	c #8D6353",
"r.	c #996E5D",
"s.	c #B28B7C",
"t.	c #906252",
"u.	c #875947",
"v.	c #7E4F3C",
"w.	c #754633",
"x.	c #866152",
"y.	c #966858",
"z.	c #AD8577",
"A.	c #CAA59A",
"B.	c #C5A195",
"C.	c #BA9588",
"D.	c #AD8677",
"E.	c #845644",
"F.	c #7D4C39",
"G.	c #714737",
"H.	c #7C5E54",
"I.	c #BE998C",
"J.	c #794835",
"K.	c #6D4C3F",
"L.	c #715F59",
"M.	c #8D5E4D",
"N.	c #7E4D3A",
"O.	c #764430",
"P.	c #68554E",
"Q.	c #855A49",
"R.	c #8E6050",
"S.	c #AD8575",
"T.	c #946958",
"U.	c #6F402D",
"V.	c #745C52",
"W.	c #895B49",
"X.	c #946656",
"Y.	c #8F614F",
"Z.	c #7C4836",
"`.	c #74422E",
" +	c #684E44",
".+	c #7C4B38",
"++	c #6D412F",
"@+	c #6B5E59",
"#+	c #855745",
"$+	c #7B4A37",
"%+	c #744330",
"&+	c #703C28",
"*+	c #685A54",
"=+	c #855643",
"-+	c #8A5C4C",
";+	c #6E3C28",
">+	c #6A5C56",
",+	c #764938",
"'+	c #7F4E3B",
")+	c #804F3C",
"!+	c #713F2B",
"~+	c #6A3C2A",
"{+	c #685952",
"]+	c #676461",
"^+	c #6E5044",
"/+	c #774633",
"(+	c #784734",
"_+	c #774731",
":+	c #703E2A",
"<+	c #6C3A26",
"[+	c #694B3F",
"}+	c #666360",
"|+	c #666160",
"1+	c #6A534A",
"2+	c #6C483A",
"3+	c #704230",
"4+	c #6F3D29",
"5+	c #6C3E2C",
"6+	c #6A4536",
"7+	c #685148",
"8+	c #66605E",
". . . . . . . . . . . . . . . . . . . . . . . . . . . . . . . . ",
". . . . . . . . . . . . . . . . . . . . . . . . . . . . . . . . ",
". . . . . . . . . . . . . . . . . . . . . . . . . . . . . . . . ",
". . . . . . . . . . . . . . . . . . . . . . . . . . . . . . . . ",
". . . . . . . . . . . + @ # $ % & * = - ; . . . . . . . . . . . ",
". . . . . . . . . > , ' ) ! ~ { ] ^ / ( _ : < . . . . . . . . . ",
". . . . . . . . [ } ~ | 1 2 3 4 5 6 7 ^ 8 9 0 a . . . . . . . . ",
". . . . . . . b ] c 2 d e f g f e h 2 6 ] i j k l . . . . . . . ",
". . . . . . m ) | n o p q r s r q p e n t ] u v w x . . . . . . ",
". . . . . . y 6 z A B C D E F G H C B I J | K L M N O . . . . . ",
". . . . . P ~ 3 o B Q R S T U T S E Q V e 2 7 W X w Y . . . . . ",
". . . . Z } ` h p C R  ...+.@.#.$.%.E C p d | ' &.*.=.O . . . . ",
". . . . -.;.>.e ,.D S ..'.).!.~.{...S D q e 5 ] ].M ^./.. . . . ",
". . . . (._.2 :.r G T #.).<.[.<.).#.}.G r f 2 |.1.2.3.4.. . . . ",
". . . . 5.~ 6.:.7.E U 8.!.[.9.[.0.a.U F b.g 3 { u c.3.d.. . . . ",
". . . . e._.4 f r G T #.).<.f.g.~.#.T E s g 2 { 1.c.h.i.. . . . ",
". . . . ( ] j.e q D S k.'.l.0.).{.$.S m.q e 1 ] n.o.h.p.. . . . ",
". . . . q.r.| d s.C E  ...+.a.+.k. .E C p d 6 r.t.u.v.w.. . . . ",
". . . . x.y.7 3 z.B Q R S T A.T B.E C.B D.2 ~ y.X E.F.G.. . . . ",
". . . . H.L K | z :.B C I.G E G D C B g n 6 r.L o.h.J.K.. . . . ",
". . . . L.M.1.] t n e s.q r s 7.q p o z ` ] u v w N.O.P.. . . . ",
". . . . O Q.R.i ] c 3 h S.g :.f S.d 4 6 ) T.R.*.^.J.U.O . . . . ",
". . . . . V.W.j X.K ~ ` 1 2 3 2 1 | ~ ^ u Y.W.3.Z.`. +. . . . . ",
". . . . . . N u.M.].y.r.) { { ! ] r./ L v u.3..+O.++O . . . . . ",
". . . . . . @+^.#+M M.&.n.X.1.1.e.t.M.M E.^.$+%+&+*+. . . . . . ",
". . . . . . . /.N.h.=+u.M 2.-+2.M k =+h.N.J.`.;+P.. . . . . . . ",
". . . . . . . . >+,+.+'+^.3.3.3.^.)+.+J.O.!+~+{+. . . . . . . . ",
". . . . . . . . . ]+^+O./+J.J.J.(+_+`.:+<+[+}+. . . . . . . . . ",
". . . . . . . . . . . |+1+2+3+4+4+5+6+7+8+. . . . . . . . . . . ",
". . . . . . . . . . . . . . . . . . . . . . . . . . . . . . . . ",
". . . . . . . . . . . . . . . . . . . . . . . . . . . . . . . . ",
". . . . . . . . . . . . . . . . . . . . . . . . . . . . . . . . "};
