/* XPM */
static char * cell_xpm[] = {
"64 64 367 2",
"  	c None",
". 	c #BFBFBF",
"+ 	c #BEBEBE",
"@ 	c #AEAEAE",
"# 	c #ACACAC",
"$ 	c #C3C3C3",
"% 	c #C9C9C9",
"& 	c #B9B9B9",
"* 	c #C1C1C1",
"= 	c #C5C5C5",
"- 	c #C7C7C7",
"; 	c #BDBDBD",
"> 	c #BBBBBB",
", 	c #B7B7B7",
"' 	c #B5B5B5",
") 	c #B4B4B4",
"! 	c #B3B3B3",
"~ 	c #B2B2B2",
"{ 	c #A7A7A7",
"] 	c #A5A5A5",
"^ 	c #A1A1A1",
"/ 	c #9F9F9F",
"( 	c #808080",
"_ 	c #484848",
": 	c #B0B0B0",
"< 	c #A9A9A9",
"[ 	c #A4A4A4",
"} 	c #A0A0A0",
"| 	c #ABABAB",
"1 	c #7F7F7F",
"2 	c #9D9D9D",
"3 	c #979797",
"4 	c #919191",
"5 	c #8F8F8F",
"6 	c #909090",
"7 	c #989898",
"8 	c #A2A2A2",
"9 	c #959595",
"0 	c #9A9A9A",
"a 	c #717171",
"b 	c #4E4E4E",
"c 	c #949494",
"d 	c #8C8C8C",
"e 	c #8B8B8B",
"f 	c #8E8E8E",
"g 	c #8A8A8A",
"h 	c #888888",
"i 	c #838383",
"j 	c #7C7C7C",
"k 	c #7D7D7D",
"l 	c #868686",
"m 	c #777777",
"n 	c #787878",
"o 	c #7A7A7A",
"p 	c #828282",
"q 	c #878787",
"r 	c #626262",
"s 	c #4C4C4C",
"t 	c #848484",
"u 	c #858585",
"v 	c #858686",
"w 	c #868687",
"x 	c #888887",
"y 	c #898888",
"z 	c #898989",
"A 	c #898A89",
"B 	c #8A8A8B",
"C 	c #8C8B8C",
"D 	c #8D8C8C",
"E 	c #8D8D8D",
"F 	c #8D8E8E",
"G 	c #8D8D8E",
"H 	c #8E8F8E",
"I 	c #8F8F8E",
"J 	c #8F8E8F",
"K 	c #8E8E8D",
"L 	c #8C8D8D",
"M 	c #8B8A8B",
"N 	c #898A8A",
"O 	c #888889",
"P 	c #878887",
"Q 	c #767676",
"R 	c #636363",
"S 	c #505050",
"T 	c #3C3C3C",
"U 	c #7B7B7B",
"V 	c #888787",
"W 	c #8B8B8C",
"X 	c #8C8C8D",
"Y 	c #8E8F8F",
"Z 	c #908F8F",
"` 	c #908F90",
" .	c #90908F",
"..	c #888988",
"+.	c #888788",
"@.	c #868586",
"#.	c #858485",
"$.	c #6D6D6D",
"%.	c #5A5A5A",
"&.	c #474747",
"*.	c #363636",
"=.	c #858586",
"-.	c #868787",
";.	c #888989",
">.	c #8B8A8A",
",.	c #8C8B8B",
"'.	c #8D8D8C",
").	c #8E8D8E",
"!.	c #909091",
"~.	c #919091",
"{.	c #909191",
"].	c #8F8F90",
"^.	c #8B8C8B",
"/.	c #898988",
"(.	c #6F6F6F",
"_.	c #585858",
":.	c #464646",
"<.	c #373737",
"[.	c #89898A",
"}.	c #8A8B8A",
"|.	c #8E8E8F",
"1.	c #919190",
"2.	c #919292",
"3.	c #929192",
"4.	c #929292",
"5.	c #929293",
"6.	c #939292",
"7.	c #919291",
"8.	c #8F908F",
"9.	c #8E8D8D",
"0.	c #8A8B8B",
"a.	c #878686",
"b.	c #6B6B6B",
"c.	c #575757",
"d.	c #454545",
"e.	c #858685",
"f.	c #878786",
"g.	c #8B8B8A",
"h.	c #8D8E8D",
"i.	c #8F9090",
"j.	c #919090",
"k.	c #929392",
"l.	c #939393",
"m.	c #939493",
"n.	c #939394",
"o.	c #949394",
"p.	c #929393",
"q.	c #929191",
"r.	c #909190",
"s.	c #878687",
"t.	c #686868",
"u.	c #545454",
"v.	c #444444",
"w.	c #949393",
"x.	c #949594",
"y.	c #959494",
"z.	c #959495",
"A.	c #959594",
"B.	c #939293",
"C.	c #939392",
"D.	c #8D8C8D",
"E.	c #676767",
"F.	c #393939",
"G.	c #959695",
"H.	c #969696",
"I.	c #969596",
"J.	c #959596",
"K.	c #959696",
"L.	c #949595",
"M.	c #949493",
"N.	c #8A8989",
"O.	c #898889",
"P.	c #878888",
"Q.	c #565656",
"R.	c #3A3A3A",
"S.	c #979697",
"T.	c #969697",
"U.	c #979696",
"V.	c #969797",
"W.	c #949495",
"X.	c #929291",
"Y.	c #8F8E8E",
"Z.	c #8A898A",
"`.	c #979796",
" +	c #989897",
".+	c #989798",
"++	c #979897",
"@+	c #939494",
"#+	c #919192",
"$+	c #6A6A6A",
"%+	c #383838",
"&+	c #979798",
"*+	c #999898",
"=+	c #989998",
"-+	c #969695",
";+	c #616161",
">+	c #515151",
",+	c #434343",
"'+	c #989899",
")+	c #999999",
"!+	c #999998",
"~+	c #999899",
"{+	c #424242",
"]+	c #989999",
"^+	c #999A9A",
"/+	c #9A9A99",
"(+	c #9B9B9A",
"_+	c #9B9B9B",
":+	c #9A9B9A",
"<+	c #99999A",
"[+	c #535353",
"}+	c #4A4A4A",
"|+	c #404040",
"1+	c #9A9999",
"2+	c #9B9A9B",
"3+	c #9C9B9B",
"4+	c #9B9C9B",
"5+	c #9C9C9B",
"6+	c #9C9C9C",
"7+	c #9B9B9C",
"8+	c #9B9A9A",
"9+	c #3E3E3E",
"0+	c #313131",
"a+	c #969796",
"b+	c #999A99",
"c+	c #9A9A9B",
"d+	c #9C9B9C",
"e+	c #9D9C9C",
"f+	c #9C9D9C",
"g+	c #9D9C9D",
"h+	c #9C9D9D",
"i+	c #606060",
"j+	c #3D3D3D",
"k+	c #2B2B2B",
"l+	c #989797",
"m+	c #9A9B9B",
"n+	c #9D9D9C",
"o+	c #9E9E9D",
"p+	c #9E9E9E",
"q+	c #9E9D9E",
"r+	c #9D9E9D",
"s+	c #595959",
"t+	c #272727",
"u+	c #707070",
"v+	c #9B9C9C",
"w+	c #9D9D9E",
"x+	c #9E9F9E",
"y+	c #9E9F9F",
"z+	c #9E9E9F",
"A+	c #9F9E9F",
"B+	c #9D9E9E",
"C+	c #232323",
"D+	c #9A999A",
"E+	c #9F9F9E",
"F+	c #A0A09F",
"G+	c #343434",
"H+	c #222222",
"I+	c #A0A0A1",
"J+	c #A1A0A0",
"K+	c #A09F9F",
"L+	c #979898",
"M+	c #4D4D4D",
"N+	c #252525",
"O+	c #A1A1A0",
"P+	c #A1A1A2",
"Q+	c #A2A1A2",
"R+	c #A2A1A1",
"S+	c #A0A1A1",
"T+	c #3F3F3F",
"U+	c #2F2F2F",
"V+	c #9E9D9D",
"W+	c #9FA09F",
"X+	c #A2A3A2",
"Y+	c #A3A3A2",
"Z+	c #A2A2A3",
"`+	c #969595",
" @	c #A3A2A3",
".@	c #A3A3A3",
"+@	c #A4A4A3",
"@@	c #A4A3A3",
"#@	c #A3A4A3",
"$@	c #9F9FA0",
"%@	c #9F9E9E",
"&@	c #2E2E2E",
"*@	c #A1A0A1",
"=@	c #A4A5A4",
"-@	c #A4A5A5",
";@	c #A3A4A4",
">@	c #5F5F5F",
",@	c #A1A2A1",
"'@	c #A4A3A4",
")@	c #A5A6A5",
"!@	c #A6A6A6",
"~@	c #A4A4A5",
"{@	c #A3A3A4",
"]@	c #A2A3A3",
"^@	c #A1A2A2",
"/@	c #A0A1A0",
"(@	c #5D5D5D",
"_@	c #A5A6A6",
":@	c #A7A6A6",
"<@	c #A6A7A7",
"[@	c #A6A6A5",
"}@	c #A3A2A2",
"|@	c #A09FA0",
"1@	c #A7A6A7",
"2@	c #A8A8A7",
"3@	c #A7A7A8",
"4@	c #A7A7A6",
"5@	c #A8A8A8",
"6@	c #A8A9A9",
"7@	c #A8A8A9",
"8@	c #A7A8A8",
"9@	c #A7A8A7",
"0@	c #A6A7A6",
"a@	c #A6A5A6",
"b@	c #656565",
"c@	c #A8A7A8",
"d@	c #AAAAAA",
"e@	c #AAA9AA",
"f@	c #A9A9AA",
"g@	c #A9A8A8",
"h@	c #A5A5A4",
"i@	c #9C9C9D",
"j@	c #292929",
"k@	c #A2A2A1",
"l@	c #ABABAA",
"m@	c #AAABAB",
"n@	c #A8A7A7",
"o@	c #A5A4A5",
"p@	c #A8A9A8",
"q@	c #AAAAA9",
"r@	c #ABAAAA",
"s@	c #262626",
"t@	c #AAAAAB",
"u@	c #A9AAAA",
"v@	c #A5A4A4",
"w@	c #A9AAA9",
"x@	c #A9A9A8",
"y@	c #A5A5A6",
"z@	c #6C6C6C",
"A@	c #9FA0A0",
"B@	c #A6A5A5",
"C@	c #A6A6A7",
"D@	c #696969",
"E@	c #818181",
"F@	c #323232",
"G@	c #4F4F4F",
"H@	c #646464",
"I@	c #8C8C8B",
"J@	c #8C8D8C",
"K@	c #333333",
"L@	c #525252",
"M@	c #5B5B5B",
"N@	c #8B8C8C",
"O@	c #868786",
"P@	c #878788",
"Q@	c #8A8A89",
"R@	c #848485",
"S@	c #848585",
"T@	c #757575",
"U@	c #727272",
"V@	c #5C5C5C",
"W@	c #4B4B4B",
"X@	c #2D2D2D",
"Y@	c #202020",
"Z@	c #1D1D1D",
". + @ # $ % $ + & * = - = $ * ; > & & , & > + . . ; > & & ' ' ' ) ! ! ! ~ @ # @ ) & + > & , & > + . + > & ~ { ] { ^ / @ ! @ ( _ ",
". ; @ # * - . > & + $ $ $ * + > & & ' ' , & ; ; ; > & , ' ) ! ! ~ : : @ @ # < # ! , & & ' ) ' & > ; > & , : ] [ { } / # ~ | 1 _ ",
"& & | { ~ ! # < { | @ @ # { { ] < # { [ [ ] < { { ] [ [ ^ 2 2 / / / 3 4 5 6 4 7 } } } / / 2 } 8 ] { < < { ^ 3 9 9 0 } 8 / 6 a b ",
") ! [ 0 0 7 9 c 4 9 7 9 4 d e e 4 7 6 d d 5 c 4 f e g h i j k i l l k m n o j p g h q h q l q e d 5 c 9 c d ( ( p 5 7 9 e n r s ",
"! : 7 i t t t u v w q x y z A B g C d D E F G f H I 5 5 5 5 5 5 5 5 5 5 5 5 5 5 J f E K L d d C e M N z O P q l v u t t Q R S T ",
") : 3 U t t u l l V h z z g M W d X E E K Y 5 5 5 5 5 Z 5 6 6 6 ` 6 6  . .5 5 5 5 5 J Y f G E X d W e g z ..+.q q @.#.t $.%.&.*.",
", ' / k t u =.-.q h ;.A >.e ,.d '.).f 5 5 5 5  .` 6 !.!.4 4 ~.4 4 4 4 4 {.4 6 6 ].Z 5 5 5 H f K E d ^.e g A /.h q q l u (._.:.<.",
"+ > ] l u l q V h z [.}.e d E E G |.5 5 ]. .6 1.4 4 2.4 3.4.5.4.4.6.4.4.3.7.4 4 4 6 6 8.5 5 5 f f 9.d C e 0.A z h V a.=.b.c.d.<.",
"= $ | 5 e.f.V h z z g.,.d X h.f 5 5 5 i.j.~.4 3.4.5.k.l.l.m.l.n.c l.l.o.l.p.4.4.4.q.4 j.r. .5 5 J f ).L d ,.e g z h P s.t.u.v.<.",
"$ * # 4 a.q h O N }.,.d E f Y 5 5 5 ` !.4 7.6.5.l.m.m.w.x.y.c z.x.A.x.y.c c o.m.B.C.4.2.4 4 6 8.5 5 |.E D.d d g.g z h q E.u.:.F.",
"$ . # c q +.z [.>.e X L f J 5 5 ` {.4 7.4.6.w.c x.c 9 9 G.9 G.H.I.G.J.K.G.9 L.A.c M.n.p.4.2.4 1.i.5 5 |.f E d ,.g N.O.P.t.Q.&.R.",
"* . @ 3 x ;.z e W d E f H 5 5 6 1.4 4.l.l.o.L.x.9 I.H.H.S.T.3 U.3 S.3 T.V.H.H.I.9 A.W.c l.6.4.X.{.6 i.5 Y.f E d e g g O b.c.:.F.",
"* + @ 7 O Z.g e d E 9.|.5 5 6 {.4 6.C.n.W.z.9 G.`.3 3 3 7  +.+.+7 7 7 7 ++3 U.3 T.H.9 L.W.@+B.4.#+1.6 8.5 J K E d ,.0.A $+Q.d.%+",
". + @ 7 z g 0.d '.K J 5 5 6 1.4.5.l.o.A.9 H.T.3 &+.+7 7 7 7 7 7 *+=+7 7 7 7 7 .+3 3 U.-+9 c o.l.C.#+r.6 5 5 |.G E ,.e g ;+>+,+*.",
". ; @ 7 N M C L E f 5 5 6 4 7.C.w.c z.-+H.S.++&+7 7 *+=+'+)+)+)+)+)+)+)+!+~+7 7 7 7 3 T.H.K.L.c l.C.#+4 6 5 5 |.F L C >.%.b {+*.",
"+ ; @ 7 g ,.D.9.f 5 5 6 j.q.B.l.x.9 K.T.3 .+7 7 ]+)+^+0 /+0 0 (+_+:+:+0 0 <+)+~+!+7 7 7 3 H.-+9 y.l.B.X.1.6 5 5 f E d ,.[+}+|+*.",
"; > | 6 M C E K J 5 8.4 #+4.l.c 9 H.S.&+7 7 7 )+1+/+_+2+_+3+4+5+6+6+7+7+_+8+_+0 )+)+7 7 7 3 3 H.9 c l.6.4.j.6 5 5 f E ^.%.s 9+0+",
"& , ] t C d F Y.5 8.j.q.5.l.c A.H.a+.+7 7 *+b+0 c+_+d+6+6+6+e+f+g+h+f+f+6+6+3+_+0 ^+1+7 7 7 .+T.-+A.c w.B.4 r.].5 f G L i+b j+k+",
"# < 4.Q d E f 5 5 6 4 4.l.c 9 K.`.l+7 7 ]+0 0 m+3+6+n+2 2 2 o+p+p+p+q+r+2 h+n+6+_+2+0 /+)+7 7 3 V.G.9 c l.4.4 6 5 5 f E s+}+F.t+",
"[ ^ g u+L 9.J 5 Z r.2.k.M.9 I.H.++7 7 )+)+(+7+v+n+2 w+p+x+y+/ / / / z+A+p+p+B+2 f+6+_+8+1+)+7 7 3 H.J.c l.6.#+1. .5 I E u.&.*.C+",
"{ [ 5 k E f 5 5 6 #+4.l.c 9 H.3 7 7 =+D+8+3+6+2 B+p+E+/ / } } } } } } F+/ / / p+2 6+6+_+(+D+)+7 7 3 H.J.c l.4.4 r.Z 5 f Q.&.G+H+",
"@ | 3 q G Y 5 6 r.3.B.M.y.K.3 .+7 !+<+(+4+6+2 o+p+/ } } } } } I+J+} } } } } K+/ p+B+2 6+4+_+1+]+7 L+3 -+9 w.B.3.{.Z 5 Y.M+{+G+N+",
"' ) } 5 ).5 5 6 4 4.n.c 9 H.3 7 7 b+0 _+6+h+p+x+/ F+} } O+^ P+^ Q+R+P+^ S+} } } / y+p+2 6+_+2+1+'+7 L+H.9 y.l.4.4 6 5 5 T+R.*.U+",
"' ) ] 9 I 5  .r.7.B.w.9 -+V.7 7 ]+0 _+d+g+V+x+W+} } } P+8 8 X+X+Y+8 Z+8 Q+^ } } } / x+B+h+d+_+0 )+7 &+3 `+9 n.B.#+!.5 5 s ,+F.U+",
"~ : < 0 5 5 ` 1.3.l.c 9 V.l+7 !+1+8+7+6+o+x+/ } } J+8 8  @.@+@+@@@#@[ .@X+8 P+^ } } $@%@p+f+_+:+<+!+7 3 H.9 c l.4.~. .5 ;+>+T+&@",
"@ @ < / 5 5 6 4 4.m.A.`+V.L+7 )+^+_+6+2 p+/ } } *@Q+X+.@+@[ =@] ] -@[ [ ;@.@8 Q+^ } } / p+2 6+_+0 )+7 .+`.G.L.c 4.7.6 5 >@s j+U+",
"@ @ | } 5 5 r.7.5.n.A.H.3 7 =+1+0 v+e+V+z+F+} J+,@8 '@[ ] ] )@!@!@!@)@)@~@[ {@]@^@/@} } / B+2 7+8+b+7 7 3 K.A.@+p.4 6 8.(@_ R.U+",
"& , @ 2 5 8.4 #+l.c 9 H.3 7 7 1+_+6+2 p+/ } } ^ 8 .@[ ] _@:@{ { { { <@!@[@] [ .@}@^ *@} $@p+2 d+(+D+]+7 3 H.9 c l.4.j.5 Q.&.R.0+",
"> & @ 6+5  .~.4.l.x.9 `.++7 ~+)+_+f+2 p+|@} ^ 8 }@'@[ !@1@{ { { 2@3@{ { 4@[@=@[ .@^@^ } $@x+w+6+_+0 ]+7 l+a+I.c l.4.4  ._._ T U+",
") ! | )+5 6 4 4.w.c G.3 3 7 )+0 3+e+V+/ $@} ^ 8 #@[ [@!@{ { 5@6@6@7@8@9@{ 0@a@[ .@8 ^ } |@A+p+6+d+0 )+7  +H.H.z.l.4.~.6 b@>+j+k+",
"< < ] 7 5 ` 4 4.n.W.K.3 .+7 )+0 3+f+r+/ } } ,@X+.@] a@{ { c@< d@e@f@g@5@{ { !@h@#@8 P+} } / w+i@d+0 )+7 .+V.I.L.l.4.4 8.t.[+j+j@",
"2 2 / 9 5 6 4 4.w.x.H.3 7 7 )+8+d+n+p+/ } /@k@X+.@h@!@{ { 6@< l@m@d@e@g@n@{ !@o@+@ @,@S+} / B+n+_+c+b+*+7 3 I.L.n.k.4 i.b@u.j+N+",
"| < / 6 5 ].4 k.l.L.G.3 7 7 )+:+5+n+p+/ } J+k@ @[ ] :@{ 2@p@q@| # r@q@6@9@{ !@] '@Y+P+O+} / p+h+3+0 b+*+7 a+9 L.c 4.4 6 t.u.j+s@",
"& , } g 5 6 4 4.l.9 K.3 7 7 1+c+5+h+p+/ } /@P+]@+@] !@{ 3@g@f@d@l@t@u@p@9@{ !@v@@@Y+P+} } / q+2 6+0 1+7 7 S.I.9 o.4.4 6 b.u.j+t+",
"> & 8 l 5  .4 k.n.z.J.H..+7 b+0 4+h+B+/ |@*@,@Z+[ -@_@<@{ 5@6@q@d@w@x@5@{ 4@y@] #@X+,@/@} y+V+n+d+2+)+7 7 3 H.L.m.4.4 i.z@S T k+",
"& ' 8 p 5 i.4 4.l.x.G.`.7 7 )+0 3+6+o+x+A@} ^ 8 {@[ B@:@{ { 5@5@7@5@5@{ { C@] ~@#@Z+^ } } %@2 g+_+0 )+7  +H.G.z.l.4.4 6 D@s R.&@",
"@ # 0 1 5 Z ~.3.l.c 9 S. +7 )+0 _+6+r+x+$@} J+P+}@;@o@a@<@{ { { 9@3@{ { 1@!@] '@X+Q+S+} W+A+B+6+_+0 *+7 L+T.9 c l.X.{.` >@:.F.U+",
"@ # 6+E@5 8.r.#+B.n.9 U.l+7 ]+D+c+d+2 B+/ } } ^ 8 #@[ h@a@4@4@{ { { { 0@!@] [ .@8 ^ } } / p+2 5+c+/+*+7 &+H.9 c B.#+{.].s+,+%+0+",
", ) 8 h 5 5 j.2.p.n.L.H.3 7 '+/+0 _+6+B+z+$@} S+^@X+.@[ ] ] !@!@!@!@_@B@=@[ .@.@k@S+} } y+r+g+4+8+b+7 7 3 H.9 @+6.4 !.5 _.{+<.F@",
"> & [ e 5 5 6 4 6.m.x.G.S.l+7 !+0 _+6+2 p+/ } } *@Q+Z+{@@@=@o@] ] ] ] [ +@.@Y+P+S+} |@/ p+2 6+_+^+!+7 ++`.G.c l.4.4 6 5 G@{+F.*.",
"+ > [ e J 5 6 ~.4.l.c 9 H.3 7 7 b+_+d+6+p+%@W+} } *@,@8 }@.@[ [ .@{@[ #@Z+ @P+*@} } / x+2 i@v+:+<+=+7 3 a+9 c l.4.4 6 5 :.,+j+%+",
"; & ^ h f 5 5 ~.4.k.m.W.H.3 L+7 )+0 _+d+g+r+/ A@} } ^ ^ ^@8 X+}@X+}@Z+8 ^@^ *@} } / %@w+i@5+_+0 ]+7 7 S.H.L.n.6.#+6 5 5 Q.s {+F.",
"; & ^ q f 5 5 6 #+4.l.c 9 T.l+7 =+b+0 _+6+2 p+A+$@} } } S+^ ,@^ ^ k@P+^ ^ } } } $@%@p+2 6+_+0 )+~+7 .+H.9 W.l.p.4 6 5 I r [+d.F.",
". ; ] d F I 5 ` 1.X.l.M.9 I.`.&+7 ]+<+2+4+e+2 q+p+/ K+} } } } I+} *@} } } } K+/ x+o+i@6+5+8+b+]+7 7 a+H.z.c l.4.1.].5 Y H@[+d.F.",
"$ . | 4 E f 5 Z !.4 k.l.W.9 H.3 7 7 ~+D+0 7+6+f+o+p+E+K+A@} } } } } } F+F+/ / p+V+2 6+d+m+0 )+7 7 3 H.9 A.l.4.4 6 5 5 F H@[+d.F.",
"$ $ @ 9 D 9.H 5 ` 6 X.p.M.c 9 3 &+7 7 )+^+m+4+6+6+2 o+p+x+/ %@/ / / %@A+y+p+o+2 6+7+_+c+D+)+7 7 &+V.G.c M.l.3.{.Z 5 I ).H@u.:.F.",
"$ . | 4 d E f 5 5 i.4 4.l.o.A.-+U.l+7 7 ~+<+0 :+_+6+h+g+V+q+p+p+q+p+o+V+2 2 6+6+4+_+:+<+)+7 7 &+V.-+9 @+l.4.4 6 5 5 f E H@Q.:.%+",
"; > [ g I@L f 5 5  .6 #+4.m.c 9 H.S.l+7 7 '+)+^+0 2+_+v+6+i@i@2 2 g+2 g+6+d+7+(+2+0 /+=+7 7 &+U.H.9 c l.k.4 !.8.5 f E J@H@Q.:.*.",
", ' [ 5 e d L f J 5 Z {.4.C.l.L.A.H.V.&+7 7 =+)+^+D+m+c+_+5+4+4+6+7+_+_+_+_+(+D+1+)+=+7 L+3 V.H.9 c l.4.2.{.6 5 5 F D d r u.v.K@",
"! : [ 9 g.e D.E f 5 5 6 {.q.B.n.c 9 H.V.3  +7 7 =+]+<+b+0 0 8+0 m+c+2+0 0 D+)+)+=+7 7 ++3 a+-+9 c n.p.7.j. .5 5 f E D e i+L@{+F@",
"& , < 0 g }.e L G f 5 5 6 4 4.p.l.c A.`+H.S.&+++7 7 '+~+'+)+1+b+D+b+)+)+)+*+7 7 7 .+l+U.H.9 A.c o.l.4.4 6 6 5 f 9.d e }.i+>+{+F@",
"; > # 2 z g e d D.).f 5 Z 6 {.#+4.w.c 9 9 -+T.3 .+7 7 7 7 7 7 '+*+7 7 7 7 7 7 7 l+3 T.H.9 9 c l.p.q.4 6 5 5 f F E d e g >@G@|+F@",
"; > | 0 h z >.,.d X ).5 5 8.6 4 4 4.l.@+c L.9 I.a+S.S.&+l+L+++7 .+L+.+7 &+&+`.`.U.-+J.9 c c C.6.X.1.6 5 5 Y ).E d e }.z _.s 9+F@",
"+ ; < 7 h z N.g e d E G 5 5 5 6 j.3.4.6.w.c c z.G.K.K.H.T.a+`.3 `.3 `.T.U.H.H.K.9 y.c c l.5.4.2.1.].5 5 I K E d e }.[.z M@M+T+F@",
"* . < c q x y N g.N@d E f Y.5 5 i.!.4 4.5.l.@+@+c A.9 9 9 J.-+H.H.I.J.-+9 9 c W.c m.l.B.4.7.4 j.i.5 5 J f E X e }.[.z h E.L@{+G+",
"* . # 5 O@P@h z Q@e W J@'.).f 5 5 ` 6 j.q.3.4.l.l.w.l.c c W.9 9 L.A.L.c c o.w.n.l.l.4.4.4 {.6 5 5 5 H f L J@^.}.N.O.h q D@Q.d.*.",
". + @ h @.s.q h z N.B ^.d J@).f 5 5 5 ].!.~.4 X.4.k.B.B.l.l.w.l.o.l.l.l.l.B.p.4.3.q.4 ~.j.6 5 5 H f ).E d W M N.z h q O@$+_.&.F.",
"* . | p u l q P O z N.B e C J@h.).5 5 5 5 5 6 {.1.4 4 4.4.4.4.4.4.4.5.4.2.3.3.4 r.j.6 i.5 5 5 f ).E '.N@e g N z h V O@v b@Q.:.<.",
"$ . { 1 t R@l f.q h z A B e C L E F f Y.5 5 5 ` ` 6 !.{.~.4 4 4 4 4 4 4 4 ~.!.].6 Z 5 5 5 H f 9.E d N@e g Z./.h q f.@.u H@u.d.*.",
"$ . 8 1 t t u u s.V h z [.g B ,.d J@E h.f 5 5 5 5 5 5 Z  .6 Z 6 6 6 i.i.i.8.Z 5 5 5 5 H f 9.D.L d ,.B g z h h q a.@.S@t $+c.:.%+",
"& ) f $.Q.%.T@Q u+z@D@E.H@r b@$.u+u+$+b@;+i+R H@b@E.D@b.$.U@b@>+u.M@(@(@(@i+t.D@$+E.R V@%.V@(@>@[+_ :.s E.(.H@H@t.b@H@$+H@L@v.%+",
"[ 2 D@W@M+L@M@%.c.Q.[+L@>+L@[+Q._.s+c.[+>+S >+[+_.c.Q.Q.c.%.c.S M+W@G@>+>+[+c.u.>+W@:.:._ s W@_ T+<.j+:.L@c.L@[+Q.u.[+Q.L@_ T+<.",
"( o M+<.|+:._ &.d.v.,+,+v.d.d.d.:._ d.,+{+{+|+,+:.:.d.v.d.:.:.:.{+T+{+v.v.d.:.|+%+*.F@G+*.%+*.F@0+U+*.F.9+{+d.:.d.,+{+T+j+F.G+U+",
"_.u.<.j@F@<.T F.%+*.*.%+F.R.F.F.F.F.*.K@G+K@0+K@*.*.<.<.<.<.<.%+*.G+<.%+%+%+<.X@Y@C+N+N+N+N+H+Z@N+U+k+k+X@F@T R.<.F@U+j@t+j@j@t+"};
