/* XPM */
static char * cyan_jump4_xpm[] = {
"54 54 459 2",
"  	c None",
". 	c #B5C8C9",
"+ 	c #9DC1C5",
"@ 	c #89BEC3",
"# 	c #7BBDC1",
"$ 	c #71BBBF",
"% 	c #6AB9BE",
"& 	c #65B8BD",
"* 	c #67B8BD",
"= 	c #6DB8BD",
"- 	c #77B9BD",
"; 	c #84BABE",
"> 	c #97BFC1",
", 	c #B1C4C5",
"' 	c #90BFC4",
") 	c #73BDC1",
"! 	c #6BBCC1",
"~ 	c #6DBCC1",
"{ 	c #6CBBC0",
"] 	c #69BABF",
"^ 	c #66B9BE",
"/ 	c #65B6BD",
"( 	c #61B6BB",
"_ 	c #5FB4B9",
": 	c #67B4B9",
"< 	c #86B7BC",
"[ 	c #AEC3C4",
"} 	c #AEC6C8",
"| 	c #83BFC1",
"1 	c #6EBDC2",
"2 	c #6FBEC3",
"3 	c #72BFC4",
"4 	c #71C0C5",
"5 	c #72BDC4",
"6 	c #6AB9C0",
"7 	c #68B9BE",
"8 	c #64B7BC",
"9 	c #62B5BA",
"0 	c #5EB3B8",
"a 	c #5AB1B6",
"b 	c #74B2B6",
"c 	c #A3BCBD",
"d 	c #BEC9CA",
"e 	c #89BFC3",
"f 	c #74C0C4",
"g 	c #76C2C6",
"h 	c #79C3C7",
"i 	c #78C4C8",
"j 	c #77C3C7",
"k 	c #75C1C5",
"l 	c #6CBBC2",
"m 	c #68BBC0",
"n 	c #66B7BE",
"o 	c #63B6BB",
"p 	c #56AEB4",
"q 	c #77B0B3",
"r 	c #B2BDBE",
"s 	c #A4C4C6",
"t 	c #6FBCC1",
"u 	c #7BC5C9",
"v 	c #7DC5C9",
"w 	c #7CC6CA",
"x 	c #7DC6CB",
"y 	c #7DC7CB",
"z 	c #72C1C6",
"A 	c #6ABBC0",
"B 	c #5BB1B7",
"C 	c #55ACB1",
"D 	c #8FB1B3",
"E 	c #92C1C4",
"F 	c #7FC7CB",
"G 	c #80C8CC",
"H 	c #82C8CE",
"I 	c #84CACE",
"J 	c #83C9CF",
"K 	c #83C9CD",
"L 	c #50ADB2",
"M 	c #7AABAE",
"N 	c #BCBCBC",
"O 	c #71BEC3",
"P 	c #86CCD0",
"Q 	c #89CBD1",
"R 	c #89CDD1",
"S 	c #8ACED2",
"T 	c #89CFD1",
"U 	c #88CCD0",
"V 	c #72BFC6",
"W 	c #62B7BC",
"X 	c #5DB4B9",
"Y 	c #58B1B6",
"Z 	c #53ADB3",
"` 	c #4EACB2",
" .	c #6EA5AA",
"..	c #B7B7B7",
"+.	c #88BEC2",
"@.	c #7CC4CA",
"#.	c #8BCFD3",
"$.	c #8ED0D4",
"%.	c #8FD1D5",
"&.	c #90D2D6",
"*.	c #85CBCF",
"=.	c #51ACB1",
"-.	c #4AAAB0",
";.	c #6DA3A7",
">.	c #B3B3B3",
",.	c #91C0C3",
"'.	c #7FC9CB",
").	c #87CDD1",
"!.	c #8CCED2",
"~.	c #92D2D6",
"{.	c #93D3D7",
"].	c #94D4D8",
"^.	c #96D4D8",
"/.	c #95D5D9",
"(.	c #93D5D7",
"_.	c #91D1D5",
":.	c #55AEB3",
"<.	c #47A9AF",
"[.	c #72A0A4",
"}.	c #A1C3C5",
"|.	c #7CC4C8",
"1.	c #8FD3D5",
"2.	c #94D3D8",
"3.	c #98D8DA",
"4.	c #9BD7DB",
"5.	c #9CD9DC",
"6.	c #98D6DA",
"7.	c #97D5D9",
"8.	c #8DCFD3",
"9.	c #7AC4C8",
"0.	c #5CB2B8",
"a.	c #56B1B4",
"b.	c #52ACB2",
"c.	c #4AACB2",
"d.	c #44A7AE",
"e.	c #7E9EA0",
"f.	c #BDC9C9",
"g.	c #68B7BC",
"h.	c #70BDC2",
"i.	c #82CACE",
"j.	c #9FDADD",
"k.	c #A1DADF",
"l.	c #A2DDE0",
"m.	c #A1DCDF",
"n.	c #9EDBDE",
"o.	c #88CED0",
"p.	c #7DC8CB",
"q.	c #74C2C4",
"r.	c #63B8BD",
"s.	c #4BABB1",
"t.	c #46A8AE",
"u.	c #43A5AB",
"v.	c #909C9C",
"w.	c #83BDC1",
"x.	c #9DDADD",
"y.	c #A3DEE1",
"z.	c #A6DDE2",
"A.	c #A7DEE3",
"B.	c #A9E0E3",
"C.	c #A8E0E2",
"D.	c #A6DFE2",
"E.	c #9AD6DA",
"F.	c #8BCDD3",
"G.	c #81C9CD",
"H.	c #75C3C7",
"I.	c #48AAB0",
"J.	c #42A6AC",
"K.	c #5F9C9F",
"L.	c #9F9F9F",
"M.	c #ACC5C6",
"N.	c #A8DFE4",
"O.	c #ABE2E5",
"P.	c #AEE3E6",
"Q.	c #ADE4E7",
"R.	c #A9E1E3",
"S.	c #8ACCD2",
"T.	c #57AFB5",
"U.	c #49ABB1",
"V.	c #44A6AC",
"W.	c #3EA4AA",
"X.	c #7B9293",
"Y.	c #A9A9A9",
"Z.	c #7BB9BD",
"`.	c #70BFC4",
" +	c #73C2C7",
".+	c #87CBCF",
"++	c #92D1D6",
"@+	c #A5DFE1",
"#+	c #AAE1E4",
"$+	c #AFE4E7",
"%+	c #B2E6E8",
"&+	c #B2E6EA",
"*+	c #B1E4E9",
"=+	c #B1E6E9",
"-+	c #A9E0E5",
";+	c #A5DEE1",
">+	c #91D3D5",
",+	c #59B0B5",
"'+	c #54ADB2",
")+	c #45A7AD",
"!+	c #57999D",
"~+	c #949494",
"{+	c #B6B6B6",
"]+	c #B1C6C7",
"^+	c #61B4B9",
"/+	c #81CBCD",
"(+	c #A4DDE0",
"_+	c #B1E5E9",
":+	c #B4E7EC",
"<+	c #B7EAED",
"[+	c #B7EBED",
"}+	c #B5E8EB",
"|+	c #B1E7E9",
"1+	c #99D7DB",
"2+	c #8DD1D3",
"3+	c #60B5BA",
"4+	c #4CACB2",
"5+	c #40A6AC",
"6+	c #39A0A7",
"7+	c #798A8B",
"8+	c #A3A3A3",
"9+	c #8ABBBE",
"0+	c #71BEC5",
"a+	c #B8EBEE",
"b+	c #BCEAF0",
"c+	c #BFEEF1",
"d+	c #BCEDF0",
"e+	c #B9ECEF",
"f+	c #A0DBDE",
"g+	c #9AD7DC",
"h+	c #5CB1B6",
"i+	c #46AAB0",
"j+	c #3AA1A8",
"k+	c #5F9295",
"l+	c #919191",
"m+	c #B5B5B5",
"n+	c #A7E0E3",
"o+	c #B0E6EA",
"p+	c #C1F0F3",
"q+	c #C4F1F4",
"r+	c #C1F1F3",
"s+	c #BDEEF1",
"t+	c #41A5AB",
"u+	c #409CA2",
"v+	c #818181",
"w+	c #A6A6A6",
"x+	c #B0C5C6",
"y+	c #B3E6EB",
"z+	c #BDEBF1",
"A+	c #C5F1F5",
"B+	c #CAF5F8",
"C+	c #B2E5EA",
"D+	c #8BCDD1",
"E+	c #3BA3A9",
"F+	c #359EA5",
"G+	c #728384",
"H+	c #989898",
"I+	c #BABABA",
"J+	c #94BDC0",
"K+	c #A2DBE0",
"L+	c #A1DDDF",
"M+	c #658A8B",
"N+	c #8A8A8A",
"O+	c #B1B1B1",
"P+	c #7FB8BB",
"Q+	c #A0DCDE",
"R+	c #B2E5E8",
"S+	c #BAEBEE",
"T+	c #BBEEF1",
"U+	c #B8ECEE",
"V+	c #ACE3E6",
"W+	c #9FDBDF",
"X+	c #9AD8DC",
"Y+	c #54AFB4",
"Z+	c #40A4AA",
"`+	c #3BA1A7",
" @	c #558F95",
".@	c #808080",
"+@	c #A7A7A7",
"@@	c #6CB4B8",
"#@	c #9FDBDD",
"$@	c #A8E1E4",
"%@	c #B0E5EA",
"&@	c #AADFE4",
"*@	c #349DA4",
"=@	c #46959A",
"-@	c #797979",
";@	c #9C9C9C",
">@	c #BEBEBE",
",@	c #5EB1B4",
"'@	c #B2E8EA",
")@	c #71BCC3",
"!@	c #45A9AF",
"~@	c #339DA3",
"{@	c #39979D",
"]@	c #757575",
"^@	c #B9B9B9",
"/@	c #54AFB2",
"(@	c #92D4D8",
"_@	c #9ED9DC",
":@	c #43A7AD",
"<@	c #389FA6",
"[@	c #329DA4",
"}@	c #2F9AA1",
"|@	c #717171",
"1@	c #8E8E8E",
"2@	c #55B0B3",
"3@	c #99D6DB",
"4@	c #81C7CD",
"5@	c #3CA2A8",
"6@	c #369FA6",
"7@	c #319CA3",
"8@	c #2C99A0",
"9@	c #6E6E6E",
"0@	c #898989",
"a@	c #53ACB1",
"b@	c #6BBABF",
"c@	c #7AC2C8",
"d@	c #8CCED4",
"e@	c #2F9CA3",
"f@	c #6D6D6D",
"g@	c #868686",
"h@	c #59ACB1",
"i@	c #5DB2B7",
"j@	c #38A2A8",
"k@	c #2D9CA3",
"l@	c #36969C",
"m@	c #6C6C6C",
"n@	c #858585",
"o@	c #64AEB2",
"p@	c #77C2C7",
"q@	c #7AC6CA",
"r@	c #5EB5BA",
"s@	c #3CA4AA",
"t@	c #37A1A7",
"u@	c #2C9BA2",
"v@	c #409196",
"w@	c #76B2B6",
"x@	c #3FA5AB",
"y@	c #2A99A0",
"z@	c #4F8B8F",
"A@	c #8CB8BA",
"B@	c #67BABD",
"C@	c #3DA3A9",
"D@	c #329CA2",
"E@	c #27989F",
"F@	c #5D8385",
"G@	c #8D8D8D",
"H@	c #ACC1C2",
"I@	c #67BABF",
"J@	c #6EBFC2",
"K@	c #67B8BF",
"L@	c #59B2B7",
"M@	c #4FACB1",
"N@	c #49ABAF",
"O@	c #25969D",
"P@	c #687778",
"Q@	c #4EA8AE",
"R@	c #7DC5CB",
"S@	c #64B5BC",
"T@	c #379FA5",
"U@	c #30919A",
"V@	c #6A6A6A",
"W@	c #79B0B3",
"X@	c #42A8AC",
"Y@	c #299AA1",
"Z@	c #24979E",
"`@	c #52878A",
" #	c #A8BFC0",
".#	c #309CA2",
"+#	c #2B9AA1",
"@#	c #26979E",
"##	c #21949B",
"$#	c #677879",
"%#	c #707070",
"&#	c #62A6AC",
"*#	c #23969D",
"=#	c #428B90",
"-#	c #696969",
";#	c #767676",
">#	c #9BB8B9",
",#	c #4AACB0",
"'#	c #2E9BA2",
")#	c #2899A0",
"!#	c #1F949B",
"~#	c #647A7A",
"{#	c #66A8AA",
"]#	c #3FA3A9",
"^#	c #49A9AF",
"/#	c #58AFB4",
"(#	c #20939A",
"_#	c #47888D",
":#	c #747474",
"<#	c #AEBBBC",
"[#	c #3AA0A6",
"}#	c #57AEB3",
"|#	c #219299",
"1#	c #697373",
"2#	c #87ABAF",
"3#	c #1D9299",
"4#	c #607F80",
"5#	c #6EA3A6",
"6#	c #41A7AD",
"7#	c #29989F",
"8#	c #508688",
"9#	c #878787",
"0#	c #BBBBBB",
"a#	c #5E9EA2",
"b#	c #1C9198",
"c#	c #48888C",
"d#	c #9E9E9E",
"e#	c #5B9DA1",
"f#	c #23949B",
"g#	c #7D7D7D",
"h#	c #999999",
"i#	c #64999E",
"j#	c #339EA5",
"k#	c #1E939A",
"l#	c #1B9097",
"m#	c #508488",
"n#	c #7C7C7C",
"o#	c #969696",
"p#	c #76999C",
"q#	c #2D989F",
"r#	c #319AA1",
"s#	c #22959C",
"t#	c #1E8F96",
"u#	c #5E7E80",
"v#	c #B2B2B2",
"w#	c #8F9A9B",
"x#	c #519397",
"y#	c #2E9DA4",
"z#	c #1A9198",
"A#	c #45898D",
"B#	c #687172",
"C#	c #788F90",
"D#	c #489196",
"E#	c #28979E",
"F#	c #24959C",
"G#	c #1A8F96",
"H#	c #3F8A8F",
"I#	c #63797B",
"J#	c #778989",
"K#	c #558B8F",
"L#	c #30939A",
"M#	c #22939A",
"N#	c #288D94",
"O#	c #4E868A",
"P#	c #667778",
"Q#	c #6F8081",
"R#	c #5F8587",
"S#	c #4B8B8F",
"T#	c #3B8E93",
"U#	c #2B9097",
"V#	c #219097",
"W#	c #288F96",
"X#	c #388D92",
"Y#	c #5A8084",
"Z#	c #777777",
"                                                                                                            ",
"                                                                                                            ",
"                                                                                                            ",
"                                                                                                            ",
"                                          . + @ # $ % & * = - ; > ,                                         ",
"                                    . ' ) ! ~ ~ ~ ~ ~ { ] ] ^ / ( _ : < [                                   ",
"                                } | ~ 1 2 3 4 4 4 4 3 5 2 1 ~ 6 7 8 9 0 a b c                               ",
"                            d e ~ 2 3 f g g g h i h j g k f 3 2 l m n o _ a p q r                           ",
"                          s t 1 3 f g i u v w x x y y w u i g z 3 1 A 7 o _ B p C D                         ",
"                        E ! 2 4 g h w F G H I I I J K K G F u i g 4 2 ! 7 o _ a p L M N                     ",
"                      e { O 4 g u y G I P Q R R S R T U P I G F u j V 2 { 7 W X Y Z `  ...                  ",
"                    +.{ 2 4 j @.F I P R #.$.%.&.&.%.%.$.#.R *.I G u j 4 2 { & ( B p =.-.;.>.                ",
"                  ,.] 1 4 j u '.I ).!.$.~.{.].^./.^.].(._.%.!.U I G u j 4 1 ] 8 _ a :.` <.[.>.              ",
"                }.7 ~ 3 g |.G I R #.1.2./.3.4.5.5.5.4.6.7.{._.8.R J G 9.g 3 ~ ^ ( 0.a.b.c.d.e.>.            ",
"              f.g.A h.k i F i.).8.&.].6.5.j.k.l.l.l.m.n.5.6.].&.8.o.I p.i q.h.] r._ a :.s.t.u.v...          ",
"              w.^ ! 3 g u G P !._.].3.x.m.y.z.A.B.C.D.y.m.x.E.^._.F.P G.u H.3 ~ ^ 9 0.p L I.J.K.L.N         ",
"            M.8 ] 1 z i F I S %.{.6.x.l.D.N.O.P.P.Q.O.R.D.l.x.6.{.$.S.I x i z 1 ] W 0 T.=.U.V.W.X.Y.        ",
"            Z./ 6 `. +9.G .+!.++/.5.m.@+#+$+%+&+&+*+=+$+-+;+k.5.7.>+#.P G u g O A & _ ,+'+s.)+W.!+~+{+      ",
"          ]+^+& { `.g w /+U $.{.E.n.(+#+Q._+:+<+[+<+}+|+P.#+y.n.1+{.2+U G.w g 3 { * 3+a Z 4+t.5+6+7+8+      ",
"          9+3+^ ~ 0+j w i.R %.].4.m.D.O.=+}+a+b+c+d+e+}+=+O.D.f+g+].%.R I x j 3 ~ ^ ( h+:.4+i+5+j+k+l+m+    ",
"          : 9 7 1 4 j F I S _.7.5.l.n+P.o+<+d+p+q+r+s+<+o+P.n+l.5./._.S.I x h 4 ~ ^ 9 B p ` t.t+j+u+v+w+    ",
"        x+B 3+^ 1 4 j F *.S &./.5.l.B.Q.y+a+z+A+B+q+c+a+C+Q.N.l.5.7.%.D+*.y h 4 ~ ^ ( B :.` <.t+E+F+G+H+I+  ",
"        J+B 3+7 ~ 4 h F I R %./.5.K+A.P.&+<+d+p+A+p+s+<+o+P.A.L+5.7.%.D+I F i 4 ~ * ( B :.` <.5+E+F+M+N+O+  ",
"        P+B 3+^ ~ 4 j x I R %.].4.Q+D.O.R+:+S+d+z+T+U+}+_+V+D.W+X+].%.R K x j 4 ~ ^ 3+B Y+4+t.Z+`+F+ @.@+@  ",
"        @@a 3+& { 3 g w H ).$.{.6.#@(+$@P.%@:+<+a+<+:+|+Q.&@(+n.1+(.$.o.K u g 3 ! & _ B Z 4+t.5+6+*@=@-@;@>@",
"        ,@Y _ & ] O k u G *.!.>+7.5.m.D.#+Q.=+&+'@o+%+P.#+D.m.5.7.~.!.P G u k )@A 8 _ ,+'+s.!@W.6+~@{@]@~+^@",
"        /@T.0 o ] 1 z h F I R $.(@3._@l.D.B.O.P.P.P.V+$@D.l.x.6.{.$.R I F h 4 1 ] o 0 T.b.U.:@W.<@[@}@|@1@{+",
"        L 2@B ( ^ ~ 3 g w G.*.S &.^.3@_@m.;+D.A.n+n+D.y.m.x.1+].&.S P 4@@.j 3 ~ 7 ( B p ` I.J.5@6@7@8@9@0@>.",
"        a@Z a _ 8 b@2 z c@p.K ).8.&.].6.5.j.m.L+l.m.W+#@5.6.].&.d@U I y 9.z 2 b@& _ a Z 4+t.t+E+F+e@8@f@g@O+",
"        h@=.T.0.( 7 ~ 3 g u '.I Q 8.%.].7.1+4.5.5.5.4.3.7.{.1.8.).I F u g 3 ~ 7 ( i@T.b.-.d.W.j@~@k@l@m@n@O+",
"        o@` Y+a _ 8 ] 1 4 p@@.G I Q !.$.++{.].^.7./.].{.++$.#.).I '.q@j 4 1 A 8 r@a :.` <.J.s@t@7@u@v@f@g@O+",
"        w@c.=.p i@( & A 2 4 j w F i.*.R !.2+%.%.%.%.%.$.!.R *.I '.@.j V 2 ! ^ 3+0.T.=.c.d.x@6+F+e@y@z@9@0@>.",
"        A@<.4+:.a 0 W B@{ 2 f j u y G.I *.U R S S R R ).*.I 4@F u g f 2 ! 7 o X a '+` <.J.C@<@D@k@E@F@|@G@{+",
"        H@d.U.L p a _ o I@! J@4 g h w F G G.I I *.I I K G y w i g 4 h.{ K@o _ L@p M@N@:@x@j+*@e@y@O@P@]@~+^@",
"          Q@!@s.b.T.a _ o ^ A 1 3 k g i 9.w R@F F x x w u h g z 3 1 { ^ S@3+a p =.c.t.t+E+T@D@u@E@U@V@-@;@>@",
"          W@X@i+s.b.p B _ o * ] ~ J@3 f k g j j i j j g  +f 3 2 ~ A & o _ a p b.s.t.X@C@6+*@e@Y@Z@`@m@.@+@  ",
"           #W.:@<.4+b.p a X ( 8 7 ] ~ 1 O 3 3 4 4 4 3 O 2 1 ~ b@^ 8 9 0 a p b.4+I.:@W.j+F+.#+#@###$#%#N+O+  ",
"            &#W.:@I.s.=.p Y 0.3+o 8 7 7 A { ~ ~ ~ l ~ ! ] ] ^ & ( _ 0.,+:.=.4+I.:@x@`+6@7@u@E@*#=#-#;#H+I+  ",
"            >#j+x@:@<.c.M@Z T.a 0._ 3+W & n ^ 7 7 7 ^ & 8 o ( _ 0.a T.Z L ,#<.:@x@`+6@D@'#)#Z@!#~#f@v+w+    ",
"              {#j+]#J.!@^#4+=.:.T.a B 0 _ ^+( 3+3+9 3+3+_ 0 B a /#:.=.4+U.t.J.W.j+6@D@'#Y@O@(#_#-#:#l+m+    ",
"              <#[#j+C@t+d.<.-.` =.Z p /#a a B B B B a a ,+T.}#Z =.4+c.I.d.t+C@j+6@[@'#Y@O@##|#1#f@v+8+      ",
"                2#*@6+E+x@J.!@I.U.4+M@b.b.Z Y+p 2@Y+Y+Z Z b.L 4+U.<.d.J.x@E+6+F+7@'#Y@O@##3#4#V@;#~+m+      ",
"                  5#~@t@j+C@x@J.d.t.I.U.s.4+4+` 4+` 4+4+s.-.I.t.d.6#Z+C@6+T@~@.#k@7#O@##3#8#-#|@9#Y.        ",
"                  0#a#D@F+<@j+s@x@5+J.:@d.t.i+<.<.<.t.t.)+d.J.5+x@5@j+T@F+D@'#+#)#Z@(#b#c#-#9@.@d#0#        ",
"                    ..e#e@[@F+T@6+`+s@W.W.5+5+t+t+t+Z+Z+x@W.5@j+<@t@*@[@.#u@y@@#f#(#b#c#-#f@g#h#..          ",
"                      >.i#u@e@7@j#F+t@<@6+j+E+`+j+E+E+j+6+<@6@F+j#7@e@k@y@E@Z@##k#l#m#-#f@n#o#>.            ",
"                        >.p#q#8@k@.#.#[@j#~@*@F+F+F+*@*@~@[@r#e@'#u@Y@E@O@s#!#b#t#u#-#9@g#o#v#              ",
"                          >.w#x#)#y@+#u@k@'#y#e@e@e@'#'#k@u@+#Y@)#@#*#s#!#b#z#A#B#V@|@.@h#>.                ",
"                            ..L.C#D#O@@#E@E#7#)#7#Y@)#)#E#@#O@F#s#(#k#b#G#H#I#-#f@;#9#d#..                  ",
"                              N Y.~+J#K#L#s#s#f#f#f#*#s#M#(#!#k#b#z#N#O#P#-#f@:#v+~+Y.0#                    ",
"                                  {+8+l+v+Q#R#S#T#U#|#3#V#W#X#c#Y#P#V@m@%#Z#v+l+8+{+                        ",
"                                      m++@H+N+v+-@]@|@9@f@f@f@9@|@]@-@.@N+H+w+m+                            ",
"                                          I+O++@;@~+1@0@g@n@g@0@1@~+;@+@O+I+                                ",
"                                                >@^@{+>.v#O+v#>.{+^@>@                                      "};
