/* XPM */
static char * cyan_jump5_xpm[] = {
"54 54 454 2",
"  	c None",
". 	c #AFC3C5",
"+ 	c #96BDC2",
"@ 	c #83BABF",
"# 	c #75B9BD",
"$ 	c #6AB7BC",
"% 	c #63B6BB",
"& 	c #5EB5BA",
"* 	c #60B5BA",
"= 	c #66B5BA",
"- 	c #70B6BA",
"; 	c #7DB6BB",
"> 	c #90BBBE",
", 	c #ABBFC1",
"' 	c #8ABCC0",
") 	c #6CB9BE",
"! 	c #64B9BE",
"~ 	c #66B9BE",
"{ 	c #65B8BD",
"] 	c #62B7BC",
"^ 	c #5FB6BB",
"/ 	c #5EB2BA",
"( 	c #5AB3B8",
"_ 	c #58B1B6",
": 	c #60B1B6",
"< 	c #80B3B8",
"[ 	c #A9BFBF",
"} 	c #A8C1C4",
"| 	c #7CBCBE",
"1 	c #67BABF",
"2 	c #68BBC0",
"3 	c #6BBCC1",
"4 	c #6ABDC2",
"5 	c #6BBAC1",
"6 	c #63B5BD",
"7 	c #61B6BB",
"8 	c #5DB4B9",
"9 	c #5BB1B7",
"0 	c #57AFB5",
"a 	c #53ADB3",
"b 	c #6DAFB3",
"c 	c #9DB8B9",
"d 	c #B9C4C5",
"e 	c #83BCBF",
"f 	c #6DBCC1",
"g 	c #6FBEC3",
"h 	c #71C0C5",
"i 	c #70BFC4",
"j 	c #6EBDC2",
"k 	c #65B7BF",
"l 	c #61B8BD",
"m 	c #5FB3BB",
"n 	c #5CB2B8",
"o 	c #4FABB1",
"p 	c #70ACB0",
"q 	c #ADB8B9",
"r 	c #9EC0C2",
"s 	c #68B9BE",
"t 	c #73C2C7",
"u 	c #76C2C6",
"v 	c #75C3C7",
"w 	c #76C3C8",
"x 	c #76C4C8",
"y 	c #6BBEC3",
"z 	c #63B8BD",
"A 	c #54AEB4",
"B 	c #4FA7AD",
"C 	c #89ADAF",
"D 	c #8CBDC0",
"E 	c #77C4C9",
"F 	c #78C5CA",
"G 	c #7BC5CB",
"H 	c #7CC7CC",
"I 	c #7BC6CD",
"J 	c #7CC6CA",
"K 	c #4BA7AD",
"L 	c #74A7AA",
"M 	c #B7B7B7",
"N 	c #6ABBC0",
"O 	c #7FC9CD",
"P 	c #81C8CF",
"Q 	c #81CACF",
"R 	c #83CBCF",
"S 	c #81CCCF",
"T 	c #80C9CE",
"U 	c #6BBBC3",
"V 	c #5BB3B9",
"W 	c #56B0B6",
"X 	c #51ADB3",
"Y 	c #4DA9AF",
"Z 	c #4AA6AC",
"` 	c #67A1A7",
" .	c #B2B2B2",
"..	c #82BBBE",
"+.	c #75C1C7",
"@.	c #83CCD1",
"#.	c #87CDD1",
"$.	c #87CED3",
"%.	c #89CFD3",
"&.	c #7DC8CD",
"*.	c #4CA6AC",
"=.	c #47A3A9",
"-.	c #669FA4",
";.	c #AEAEAE",
">.	c #8BBCBF",
",.	c #77C6C9",
"'.	c #7FCACF",
").	c #84CBD0",
"!.	c #8ACFD4",
"~.	c #8BD0D5",
"{.	c #8CD1D6",
"].	c #8ED1D6",
"^.	c #8DD2D7",
"/.	c #8BD2D5",
"(.	c #89CED3",
"_.	c #4EAAB0",
":.	c #44A2A8",
"<.	c #6B9CA1",
"[.	c #9BBFC1",
"}.	c #75C1C5",
"|.	c #87D0D3",
"1.	c #8CD0D6",
"2.	c #90D5D8",
"3.	c #93D5D9",
"4.	c #94D6DA",
"5.	c #90D3D8",
"6.	c #8FD3D7",
"7.	c #85CCD1",
"8.	c #72C1C6",
"9.	c #55AFB5",
"0.	c #4FADB1",
"a.	c #4DA7AD",
"b.	c #47A5AB",
"c.	c #42A1A6",
"d.	c #79999B",
"e.	c #B8C4C4",
"f.	c #61B4B9",
"g.	c #69BABF",
"h.	c #7BC7CB",
"i.	c #97D7DB",
"j.	c #99D7DD",
"k.	c #9ADADE",
"l.	c #99D9DD",
"m.	c #96D8DC",
"n.	c #80CBCE",
"o.	c #76C5C8",
"p.	c #6DBEC1",
"q.	c #5CB4BA",
"r.	c #48A4AA",
"s.	c #43A1A7",
"t.	c #409EA4",
"u.	c #8B9797",
"v.	c #7DB9BD",
"w.	c #95D7DB",
"x.	c #9BDBDF",
"y.	c #9EDAE0",
"z.	c #9FDBE1",
"A.	c #A1DDE1",
"B.	c #A0DEE0",
"C.	c #9EDCE0",
"D.	c #92D3D8",
"E.	c #83CAD1",
"F.	c #7AC6CA",
"G.	c #6DBFC5",
"H.	c #45A3A9",
"I.	c #3F9FA5",
"J.	c #5B9599",
"K.	c #9A9A9A",
"L.	c #A6C1C2",
"M.	c #A0DCE2",
"N.	c #A3DFE3",
"O.	c #A6E0E4",
"P.	c #A5E1E5",
"Q.	c #A1DFE1",
"R.	c #83C9CF",
"S.	c #50ACB2",
"T.	c #46A4AA",
"U.	c #419FA5",
"V.	c #3B9DA3",
"W.	c #768D8E",
"X.	c #A4A4A4",
"Y.	c #74B6BA",
"Z.	c #69BCC1",
"`.	c #6CBEC4",
" +	c #80C8CC",
".+	c #8ACED4",
"++	c #9DDDDF",
"@+	c #A2DEE2",
"#+	c #A7E1E5",
"$+	c #AAE4E6",
"%+	c #ABE4E7",
"&+	c #AAE1E6",
"*+	c #A9E3E7",
"=+	c #A1DDE3",
"-+	c #9DDBDF",
";+	c #89D0D3",
">+	c #52ACB2",
",+	c #4EA8AE",
"'+	c #42A0A6",
")+	c #539397",
"!+	c #8F8F8F",
"~+	c #B1B1B1",
"{+	c #ABC2C3",
"]+	c #5AB0B6",
"^+	c #7AC8CA",
"/+	c #9CDADE",
"(+	c #AAE3E6",
"_+	c #ACE5EA",
":+	c #AFE7EB",
"<+	c #AFE9EB",
"[+	c #ADE5E9",
"}+	c #91D4D9",
"|+	c #85CED1",
"1+	c #59B2B7",
"2+	c #49A5AB",
"3+	c #3D9FA5",
"4+	c #37999F",
"5+	c #748586",
"6+	c #9E9E9E",
"7+	c #83B8BB",
"8+	c #6ABAC2",
"9+	c #B0E8EC",
"0+	c #B4E8EE",
"a+	c #B7ECEF",
"b+	c #B4EAEE",
"c+	c #B1E9ED",
"d+	c #98D8DC",
"e+	c #92D4DA",
"f+	c #55ADB3",
"g+	c #43A3A9",
"h+	c #379AA1",
"i+	c #5B8C8F",
"j+	c #8C8C8C",
"k+	c #B0B0B0",
"l+	c #9FDDE1",
"m+	c #A9E4E7",
"n+	c #B9EEF1",
"o+	c #BCEFF2",
"p+	c #B9EFF1",
"q+	c #B5ECEF",
"r+	c #3E9EA4",
"s+	c #3D959B",
"t+	c #7C7C7C",
"u+	c #A1A1A1",
"v+	c #ABC1C1",
"w+	c #ABE4E9",
"x+	c #B5E9EF",
"y+	c #BDEFF3",
"z+	c #C2F3F6",
"A+	c #ABE2E7",
"B+	c #84CACE",
"C+	c #389BA2",
"D+	c #33979D",
"E+	c #6D7E7F",
"F+	c #939393",
"G+	c #B5B5B5",
"H+	c #8EB9BC",
"I+	c #9AD8DE",
"J+	c #99DADD",
"K+	c #618485",
"L+	c #858585",
"M+	c #ACACAC",
"N+	c #78B4B8",
"O+	c #98D9DC",
"P+	c #AAE2E6",
"Q+	c #B2E8EC",
"R+	c #B3EBEF",
"S+	c #B0EAEC",
"T+	c #A9E2E7",
"U+	c #A4E0E4",
"V+	c #97D9DD",
"W+	c #92D6DA",
"X+	c #4DABB1",
"Y+	c #3D9DA3",
"Z+	c #389AA0",
"`+	c #52898E",
" @	c #7B7B7B",
".@	c #A2A2A2",
"+@	c #65B0B5",
"@@	c #97D8DB",
"#@	c #A0DEE2",
"$@	c #A2DDE2",
"%@	c #32969C",
"&@	c #438E93",
"*@	c #747474",
"=@	c #979797",
"-@	c #B9B9B9",
";@	c #57AEB1",
">@	c #ABE5E7",
",@	c #6AB9C0",
"'@	c #42A2A8",
")@	c #30959C",
"!@	c #369096",
"~@	c #707070",
"{@	c #B4B4B4",
"]@	c #4EABAE",
"^@	c #8AD1D6",
"/@	c #96D6DA",
"(@	c #40A0A6",
"_@	c #36989E",
":@	c #30969C",
"<@	c #2D9399",
"[@	c #6C6C6C",
"}@	c #898989",
"|@	c #4EACB0",
"1@	c #91D3D9",
"2@	c #7AC4CA",
"3@	c #399BA1",
"4@	c #33989F",
"5@	c #2F959B",
"6@	c #2A9198",
"7@	c #696969",
"8@	c #848484",
"9@	c #4EA7AC",
"0@	c #64B7BC",
"a@	c #72BFC6",
"b@	c #84CBD2",
"c@	c #2D949B",
"d@	c #686868",
"e@	c #818181",
"f@	c #52A8AE",
"g@	c #56AEB4",
"h@	c #359AA1",
"i@	c #2B949B",
"j@	c #338F95",
"k@	c #676767",
"l@	c #808080",
"m@	c #5DAAAF",
"n@	c #72C3C8",
"o@	c #57B1B7",
"p@	c #399CA3",
"q@	c #3499A0",
"r@	c #2A939A",
"s@	c #3D8A8F",
"t@	c #6FAFB3",
"u@	c #3C9EA4",
"v@	c #289198",
"w@	c #4C8588",
"x@	c #85B4B7",
"y@	c #60B7BA",
"z@	c #3A9CA2",
"A@	c #30949A",
"B@	c #259097",
"C@	c #597D7F",
"D@	c #888888",
"E@	c #A7BDBD",
"F@	c #60B7BC",
"G@	c #67BCBF",
"H@	c #60B4BC",
"I@	c #52AEB4",
"J@	c #4BA5AB",
"K@	c #46A5A8",
"L@	c #238E95",
"M@	c #637273",
"N@	c #4BA2A7",
"O@	c #76C2C8",
"P@	c #5DB1B9",
"Q@	c #34989E",
"R@	c #2E8A92",
"S@	c #656565",
"T@	c #72ACB0",
"U@	c #3FA1A5",
"V@	c #279299",
"W@	c #228F96",
"X@	c #4E8184",
"Y@	c #A2BBBC",
"Z@	c #299299",
"`@	c #248F96",
" #	c #1F8C93",
".#	c #627374",
"+#	c #6B6B6B",
"@#	c #5BA2A9",
"##	c #218E95",
"$#	c #3F8589",
"%#	c #646464",
"&#	c #717171",
"*#	c #95B4B5",
"=#	c #47A5A9",
"-#	c #2C939A",
";#	c #269198",
">#	c #1D8C93",
",#	c #5F7475",
"'#	c #60A4A6",
")#	c #3D9CA1",
"!#	c #46A2A8",
"~#	c #51ABB1",
"{#	c #1E8B92",
"]#	c #448286",
"^#	c #6F6F6F",
"/#	c #A9B6B7",
"(#	c #50AAB0",
"_#	c #1F8A91",
":#	c #646E6E",
"<#	c #81A7AB",
"[#	c #1B8A91",
"}#	c #5B797B",
"|#	c #679FA3",
"1#	c #3EA0A6",
"2#	c #279097",
"3#	c #4D7F81",
"4#	c #828282",
"5#	c #B6B6B6",
"6#	c #5A989C",
"7#	c #1A8990",
"8#	c #458185",
"9#	c #999999",
"0#	c #58969A",
"a#	c #218C93",
"b#	c #787878",
"c#	c #949494",
"d#	c #609498",
"e#	c #30979E",
"f#	c #1C8B92",
"g#	c #19888F",
"h#	c #4D7E81",
"i#	c #777777",
"j#	c #919191",
"k#	c #719597",
"l#	c #2B9197",
"m#	c #2F9399",
"n#	c #208D94",
"o#	c #1C878E",
"p#	c #59797B",
"q#	c #ADADAD",
"r#	c #8A9596",
"s#	c #4E8C90",
"t#	c #2C959C",
"u#	c #188990",
"v#	c #428286",
"w#	c #636C6D",
"x#	c #738A8B",
"y#	c #458B8F",
"z#	c #268F96",
"A#	c #228D94",
"B#	c #18878E",
"C#	c #3C8488",
"D#	c #5E7476",
"E#	c #728384",
"F#	c #528588",
"G#	c #2E8C92",
"H#	c #208B92",
"I#	c #26868C",
"J#	c #4B8083",
"K#	c #617273",
"L#	c #6A7B7C",
"M#	c #5B7F81",
"N#	c #488488",
"O#	c #38878C",
"P#	c #29898F",
"Q#	c #1F888F",
"R#	c #26888E",
"S#	c #35868B",
"T#	c #567A7E",
"U#	c #727272",
"                                                                                                            ",
"                                                                                                            ",
"                                                                                                            ",
"                                                                                                            ",
"                                          . + @ # $ % & * = - ; > ,                                         ",
"                                    . ' ) ! ~ ~ ~ ~ ~ { ] ] ^ / ( _ : < [                                   ",
"                                } | ~ 1 2 3 4 4 4 4 3 5 2 1 ~ 6 7 8 9 0 a b c                               ",
"                            d e ~ 2 3 f g g g h h h i g j f 3 2 k l m n _ a o p q                           ",
"                          r s 1 3 f g h t u v w w x x v t h g y 3 1 z 7 n _ A o B C                         ",
"                        D ! 2 4 g h v E F G H H H I J J F E t h g 4 2 ! 7 n _ a o K L M                     ",
"                      e { N 4 g t x F H O P Q Q R Q S T O H F E t i U 2 { 7 V W X Y Z `  .                  ",
"                    ..{ 2 4 i +.E H O Q @.#.$.%.%.$.$.#.@.Q &.H F t i 4 2 { & ( A o *.=.-.;.                ",
"                  >.] 1 4 i t ,.H '.).#.!.~.{.].^.].{./.(.$.).T H F t i 4 1 ] 8 _ a _.Z :.<.;.              ",
"                [.7 ~ 3 g }.F H Q @.|.1.^.2.3.4.4.4.3.5.6.~.(.7.Q I F 8.g 3 ~ ^ ( 9.0.a.b.c.d.;.            ",
"              e.f.z g.j h E h.'.7.%.{.5.4.i.j.k.k.k.l.m.4.5.{.%.7.n.H o.h p.g.] q._ a _.r.s.t.u. .          ",
"              v.^ ! 3 g t F O ).(.{.2.w.l.x.y.z.A.B.C.x.l.w.D.].(.E.O F.t G.3 ~ ^ 9 9.o K H.I.J.K.M         ",
"            L.8 ] 1 y h E H R $.~.5.w.k.C.M.N.O.O.P.N.Q.C.k.w.5.~.#.R.H w h y 1 ] V 0 S.*.T.U.V.W.X.        ",
"            Y./ 6 Z.`.8.F  +)..+^.4.l.++@+#+$+%+%+&+*+#+=+-+j.4.6.;+@.O F t g N z & _ >+,+r.'+V.)+!+~+      ",
"          {+]+& { Z.g v ^+T #.~.D.m./+@+P.(+_+:+<+:+[+$+O.@+x.m.}+~.|+T F.v g 3 { * 1+a Y 2+s.3+4+5+6+      ",
"          7+1+^ ~ 8+i v h.Q $.{.3.l.C.N.*+[+9+0+a+b+c+[+*+N.C.d+e+{.$.Q H w i 3 ~ ^ ( f+_.2+g+3+h+i+j+k+    ",
"          : 9 7 1 4 i E H R (.6.4.k.l+O.m+:+b+n+o+p+q+:+m+O.l+k.4.^.(.R.H w h 4 ~ ^ 9 A o Z s.r+h+s+t+u+    ",
"        v+A 1+^ 1 4 i E &.R %.^.4.k.A.P.w+9+x+y+z+o+a+9+A+P.M.k.4.6.$.B+&.x h 4 ~ ^ ( A _.Z :.r+C+D+E+F+G+  ",
"        H+A 1+7 ~ 4 h E H Q $.^.4.I+z.O.%+:+b+n+y+n+q+:+m+O.z.J+4.6.$.B+H E h 4 ~ * ( A _.Z :.3+C+D+K+L+M+  ",
"        N+A 1+^ ~ 4 i w H Q $.{.3.O+C.N.P+_+Q+b+x+R+S+[+T+U+C.V+W+{.$.Q J w i 4 ~ ^ 1+A X+2+s.Y+Z+D+`+ @.@  ",
"        +@a 1+& { 3 g v G '.#.~.5.@@/+#@O.T+_+:+9+:+_+$+P.$@/+m.}+/.#.n.J t g 3 ! & _ A Y 2+s.3+4+%@&@*@=@-@",
"        ;@X _ & ] N j t F &.).;+6.4.l.C.@+P.*+%+>@m+$+O.@+C.l.4.6.!.).O F t j ,@z 8 _ >+,+r.'@V.4+)@!@~@!+{@",
"        ]@S.0 n ] 1 y h E H Q #.^@2./@k.C.A.N.O.O.O.U+#@C.k.w.5.~.#.Q H E h 4 1 ] n 0 S.a.T.(@V._@:@<@[@}@~+",
"        K |@A ( ^ ~ 3 g v F.&.R %.].1@/@l.-+C.z.l+l+C.x.l.w.}+{.%.R O 2@+.i 3 ~ 7 ( A o Z H.I.3@4@5@6@7@8@;.",
"        9@Y a _ 8 0@2 y a@o.J '.7.%.{.5.4.i.l.J+k.l.V+@@4.5.{.%.b@T H x 8.y 2 0@& _ a Y 2+s.r+C+D+c@6@d@e@M+",
"        f@*.S.9.( 7 ~ 3 g t ,.H P 7.$.{.6.}+3.4.4.4.3.2.6.~.|.7.'.H E t g 3 ~ 7 ( g@S.a.=.c.V.h@)@i@j@k@l@M+",
"        m@Z X+a _ 8 ] 1 4 i +.F H P ).#..+~.{.].6.^.{.~..+#.@.'.H ,.n@i 4 1 z 8 o@a _.Z :.I.p@q@5@r@s@d@e@M+",
"        t@b.*.o g@( & z 2 4 i v E h.&.Q ).|+$.$.$.$.$.#.).Q &.H ,.+.i U 2 ! ^ 1+9.S.*.b.c.u@4+D+c@v@w@7@8@;.",
"        x@:.2+_.a 0 V y@{ 2 f i t x F.H &.T Q R R Q Q '.&.H 2@E t g f 2 ! 7 n W a ,+Z :.I.z@_@A@i@B@C@[@D@~+",
"        E@c.T.K o a _ n F@! G@4 g h v E F F.H H &.H H J F x v h g 4 g.{ H@n _ I@o J@K@(@u@h+%@c@v@L@M@~@!+{@",
"          N@'@r.a.S.a _ n ^ z 1 3 j g h 8.v O@E E w w v t h g y 3 1 { ^ P@1+a o *.b.s.r+C+Q@A@r@B@R@S@*@=@-@",
"          T@U@g+r.a.o A _ n * ] ~ G@3 f j g i i h i i g `.f 3 2 ~ z & n _ a o a.r.s.U@z@4+%@c@V@W@X@k@ @.@  ",
"          Y@V.(@:.2+a.o a W ( 8 7 ] ~ 1 N 3 3 4 4 4 3 N 2 1 ~ 0@^ 8 9 0 a o a.2+H.(@V.h+D+c@Z@`@ #.#+#L+M+  ",
"            @#V.(@H.r.*.o X 9.1+n 8 7 7 z { ~ ~ ~ k ~ ! ] ] ^ & ( _ 9.>+_.*.2+H.(@u@Z+4@5@r@B@##$#%#&#F+G+  ",
"            *#h+u@(@:.b.J@Y S.a 9._ 1+V & m ^ 7 7 7 ^ & 8 n ( _ 9.a S.Y K =#:.(@u@Z+4@A@-#;#W@>#,#d@t+u+    ",
"              '#h+)#I.'@!#2+*._.S.a A 0 _ ]+( 1+1+9 1+1+_ 0 A a ~#_.*.2+T.s.I.V.h+4@A@-#V@L@{#]#%#^#j+k+    ",
"              /#4+h+z@r+c.:.=.Z *.Y o ~#a a A A A A a a >+S.(#Y *.2+b.H.c.r+z@h+4@:@-#V@L@ #_#:#d@t+6+      ",
"                <#%@4+C+u@I.'@H.T.2+J@a.a.Y X+o |@X+X+Y Y a.K 2+T.:.c.I.u@C+4+D+5@-#V@L@ #[#}#S@&#!+k+      ",
"                  |#)@q@h+z@u@I.c.s.H.T.r.2+2+Z 2+Z 2+2+r.=.H.s.c.1#Y+z@4+Q@)@c@i@2#L@ #[#3#%#[@4#X.        ",
"                  5#6#A@D+_@h+p@u@3+I.(@c.s.g+:.:.:.s.s.'+c.I.3+u@3@h+Q@D+A@-#Z@;#W@{#7#8#%#7@ @9#5#        ",
"                     .0#c@:@D+Q@4+Z+p@V.V.3+3+r+r+r+Y+Y+u@V.3@h+_@q@%@:@c@r@v@`@a#{#7#8#%#d@b#c# .          ",
"                      ;.d#r@c@5@e#D+q@_@4+h+C+Z+h+C+C+h+4+_@4@D+e#5@c@i@v@B@W@ #f#g#h#%#d@i#j#;.            ",
"                        ;.k#l#6@i@c@c@:@e#)@%@D+D+D+%@%@)@:@m#c@-#r@V@B@L@n#>#7#o#p#%#7@b#j#q#              ",
"                          ;.r#s#;#v@Z@r@i@-#t#c@c@c@-#-#i@r@Z@V@;#`@##n#>#7#u#v#w#S@[@ @c#;.                ",
"                             .K.x#y#L@`@B@z#2#;#2#V@;#;#z#`@L@A#n#{#f#7#B#C#D#%#d@&#4#9# .                  ",
"                              M X.!+E#F#G#n#n#a#a#a###n#H#{#>#f#7#u#I#J#K#%#d@^#t+!+X.5#                    ",
"                                  ~+6+j+t+L#M#N#O#P#_#[#Q#R#S#8#T#K#S@k@+#U#t+j+6+~+                        ",
"                                      k+.@F+L+t+*@~@[@7@d@d@d@7@[@~@*@ @L+F+u+k+                            ",
"                                          G+M+.@=@!+}@8@e@l@e@8@}@!+=@.@M+G+                                ",
"                                                -@{@~+;.q#M+q#;.~+{@-@                                      "};
