/* XPM */
static char * cyan_jump2_xpm[] = {
"54 54 450 2",
"  	c None",
". 	c #B8C9CA",
"+ 	c #A0C4C8",
"@ 	c #8FC1C5",
"# 	c #81BFC3",
"$ 	c #76BDC2",
"% 	c #70BCC0",
"& 	c #6BBABF",
"* 	c #6CBBC0",
"= 	c #73BBBF",
"- 	c #7CBCC0",
"; 	c #89BDC1",
"> 	c #9AC1C4",
", 	c #B5C6C7",
"' 	c #96C2C6",
") 	c #78BFC4",
"! 	c #71BEC3",
"~ 	c #73BFC3",
"{ 	c #72BEC2",
"] 	c #6FBCC1",
"^ 	c #6BB8BF",
"/ 	c #66B8BE",
"( 	c #64B6BC",
"_ 	c #6DB7BB",
": 	c #8CBABE",
"< 	c #B2C6C6",
"[ 	c #B2C8CA",
"} 	c #88C2C4",
"| 	c #74C0C4",
"1 	c #75C1C5",
"2 	c #78C2C6",
"3 	c #77C2C7",
"4 	c #78C0C6",
"5 	c #70BBC2",
"6 	c #6DBCC1",
"7 	c #6AB9BE",
"8 	c #68B7BC",
"9 	c #64B5BA",
"0 	c #61B4B9",
"a 	c #79B5B9",
"b 	c #A7BEBF",
"c 	c #C0CBCC",
"d 	c #8FC2C5",
"e 	c #79C2C7",
"f 	c #7BC4C9",
"g 	c #7EC5CA",
"h 	c #7DC6CB",
"i 	c #7CC5CA",
"j 	c #7AC3C8",
"k 	c #72BDC4",
"l 	c #6EBDC2",
"m 	c #6CB9C0",
"n 	c #69B8BD",
"o 	c #5DB2B7",
"p 	c #7CB3B6",
"q 	c #B5C0C1",
"r 	c #A8C6C8",
"s 	c #74BFC4",
"t 	c #80C7CC",
"u 	c #82C7CC",
"v 	c #81C8CD",
"w 	c #83C9CD",
"x 	c #82C9CE",
"y 	c #78C3C8",
"z 	c #70BDC2",
"A 	c #62B5BA",
"B 	c #5CAFB4",
"C 	c #94B5B6",
"D 	c #97C4C7",
"E 	c #84C9CE",
"F 	c #85CACF",
"G 	c #88CAD0",
"H 	c #89CCD1",
"I 	c #88CCD2",
"J 	c #89CBCF",
"K 	c #57B0B5",
"L 	c #7FAEB1",
"M 	c #BFBFBF",
"N 	c #77C1C5",
"O 	c #8CCED2",
"P 	c #8DCDD3",
"Q 	c #8DCFD3",
"R 	c #8ED0D4",
"S 	c #8DD1D3",
"T 	c #78C1C8",
"U 	c #68B9BE",
"V 	c #63B6BB",
"W 	c #5FB4B9",
"X 	c #5AB1B6",
"Y 	c #55B0B5",
"Z 	c #73A8AD",
"` 	c #BABABA",
" .	c #8EC1C4",
"..	c #81C6CD",
"+.	c #8FD1D5",
"@.	c #92D2D6",
"#.	c #93D3D7",
"$.	c #94D4D8",
"%.	c #8ACDD2",
"&.	c #57AFB5",
"*.	c #4FAFB5",
"=.	c #73A6AB",
"-.	c #B6B6B6",
";.	c #96C3C6",
">.	c #84CBCE",
",.	c #8BCFD3",
"'.	c #90D0D4",
").	c #96D4D8",
"!.	c #97D5D9",
"~.	c #98D6DA",
"{.	c #9AD6DA",
"].	c #99D7DB",
"^.	c #97D7D9",
"/.	c #95D3D7",
"(.	c #5CB1B6",
"_.	c #4BAFB5",
":.	c #76A4A8",
"<.	c #A5C6C7",
"[.	c #81C6CB",
"}.	c #93D5D7",
"|.	c #98D5DA",
"1.	c #9CDADC",
"2.	c #9FD9DD",
"3.	c #A0DADE",
"4.	c #9CD8DC",
"5.	c #9BD7DB",
"6.	c #91D1D5",
"7.	c #7FC6CB",
"8.	c #5DB4B7",
"9.	c #59B0B5",
"0.	c #50B0B6",
"a.	c #48B0B6",
"b.	c #83A1A3",
"c.	c #BFCBCB",
"d.	c #6EBABE",
"e.	c #76C0C4",
"f.	c #88CCD0",
"g.	c #A2DBDE",
"h.	c #A4DBE0",
"i.	c #A5DEE1",
"j.	c #A4DDE0",
"k.	c #A1DCDF",
"l.	c #8CD0D2",
"m.	c #83CACD",
"n.	c #79C4C7",
"o.	c #69BABF",
"p.	c #51AFB5",
"q.	c #49AEB5",
"r.	c #47ADB3",
"s.	c #949FA0",
"t.	c #89C0C3",
"u.	c #A0DBDE",
"v.	c #A6DFE2",
"w.	c #A9DEE3",
"x.	c #AADFE4",
"y.	c #ACE1E4",
"z.	c #ABE1E3",
"A.	c #A9E0E3",
"B.	c #9ED8DC",
"C.	c #8FCFD5",
"D.	c #86CBD0",
"E.	c #7AC5CA",
"F.	c #4CB0B6",
"G.	c #46AEB4",
"H.	c #65A0A3",
"I.	c #A3A3A3",
"J.	c #B0C7C8",
"K.	c #ABE0E5",
"L.	c #AEE3E6",
"M.	c #B1E4E7",
"N.	c #B0E5E8",
"O.	c #ACE2E4",
"P.	c #8ECED4",
"Q.	c #5EB3B8",
"R.	c #4EB0B6",
"S.	c #48AEB4",
"T.	c #41ACB3",
"U.	c #819697",
"V.	c #ADADAD",
"W.	c #80BCC0",
"X.	c #76C2C6",
"Y.	c #79C4C9",
"Z.	c #8CCDD2",
"`.	c #96D3D8",
" +	c #A8E0E2",
".+	c #ADE2E5",
"++	c #B2E5E8",
"@+	c #B5E7E9",
"#+	c #B5E7EB",
"$+	c #B4E5EA",
"%+	c #B4E7EA",
"&+	c #ACE1E6",
"*+	c #A8DFE2",
"=+	c #95D5D7",
"-+	c #60B3B8",
";+	c #5BB0B5",
">+	c #49AFB5",
",+	c #5AA0A4",
"'+	c #989898",
")+	c #B9B9B9",
"!+	c #B5C9C9",
"~+	c #67B6BB",
"{+	c #86CDD0",
"]+	c #A7DEE1",
"^+	c #B4E6EA",
"/+	c #B8E8EC",
"(+	c #BBEAED",
"_+	c #BBECED",
":+	c #B8E9EC",
"<+	c #B4E8EA",
"[+	c #9DD9DD",
"}+	c #91D3D5",
"|+	c #65B7BD",
"1+	c #53AFB5",
"2+	c #43AEB5",
"3+	c #3CA9B0",
"4+	c #7F8E8F",
"5+	c #A7A7A7",
"6+	c #8FBEC1",
"7+	c #77C0C7",
"8+	c #BBECEF",
"9+	c #C0EBF0",
"0+	c #C3EFF1",
"a+	c #C0EEF0",
"b+	c #BDECEF",
"c+	c #A3DCDF",
"d+	c #9ED9DE",
"e+	c #63B4B9",
"f+	c #49B0B7",
"g+	c #3DAAB1",
"h+	c #63989B",
"i+	c #959595",
"j+	c #B8B8B8",
"k+	c #AAE1E4",
"l+	c #C5F1F3",
"m+	c #C8F2F4",
"n+	c #C5F2F3",
"o+	c #C1EFF1",
"p+	c #45ADB3",
"q+	c #44A4AA",
"r+	c #868686",
"s+	c #AAAAAA",
"t+	c #B4C7C8",
"u+	c #B6E7EC",
"v+	c #C1ECF1",
"w+	c #C9F2F5",
"x+	c #CCF5F8",
"y+	c #B5E6EB",
"z+	c #8FCFD3",
"A+	c #3EABB2",
"B+	c #38A7AE",
"C+	c #778889",
"D+	c #9C9C9C",
"E+	c #BDBDBD",
"F+	c #99C0C3",
"G+	c #A5DCE1",
"H+	c #A4DEE0",
"I+	c #6A9192",
"J+	c #8F8F8F",
"K+	c #B4B4B4",
"L+	c #84BBBE",
"M+	c #A3DDDF",
"N+	c #B5E6E9",
"O+	c #BEECEE",
"P+	c #BFEEF1",
"Q+	c #BBEDEF",
"R+	c #AFE4E7",
"S+	c #A2DCE0",
"T+	c #9EDADE",
"U+	c #5BB2B7",
"V+	c #44ACB2",
"W+	c #3EA9B0",
"X+	c #5A979C",
"Y+	c #858585",
"Z+	c #ABABAB",
"`+	c #71B6BB",
" @	c #A2DCDE",
".@	c #ABE2E5",
"+@	c #ADE1E5",
"@@	c #37A6AD",
"#@	c #4A9DA2",
"$@	c #7F7F7F",
"%@	c #A0A0A0",
"&@	c #C0C0C0",
"*@	c #65B4B7",
"=@	c #B5E9EB",
"-@	c #77BFC5",
";@	c #36A5AC",
">@	c #3CA0A6",
",@	c #7B7B7B",
"'@	c #BCBCBC",
")@	c #5BB2B5",
"!@	c #96D6DA",
"~@	c #A1DADD",
"{@	c #47AFB5",
"]@	c #3BA8AF",
"^@	c #35A6AD",
"/@	c #32A3AA",
"(@	c #777777",
"_@	c #929292",
":@	c #5CB3B6",
"<@	c #9DD8DD",
"[@	c #86CAD0",
"}@	c #3FAAB1",
"|@	c #39A8AF",
"1@	c #34A5AC",
"2@	c #2FA2A9",
"3@	c #747474",
"4@	c #8E8E8E",
"5@	c #5AAFB4",
"6@	c #71BDC1",
"7@	c #7FC5CB",
"8@	c #90D0D6",
"9@	c #32A5AC",
"0@	c #737373",
"a@	c #8B8B8B",
"b@	c #60AFB4",
"c@	c #3BAAB1",
"d@	c #30A5AC",
"e@	c #399FA5",
"f@	c #727272",
"g@	c #8A8A8A",
"h@	c #69B0B5",
"i@	c #7DC4C9",
"j@	c #7FC8CD",
"k@	c #64B7BC",
"l@	c #3FACB3",
"m@	c #3AA9B0",
"n@	c #2FA4AB",
"o@	c #44999E",
"p@	c #7BB5B9",
"q@	c #42ADB4",
"r@	c #2DA2A9",
"s@	c #549396",
"t@	c #91BBBD",
"u@	c #6CBDC0",
"v@	c #40ABB2",
"w@	c #35A4AB",
"x@	c #2AA1A8",
"y@	c #628A8C",
"z@	c #919191",
"A@	c #B0C4C4",
"B@	c #74C2C4",
"C@	c #6DBAC1",
"D@	c #60B5BA",
"E@	c #56AFB4",
"F@	c #4DB1B5",
"G@	c #289FA6",
"H@	c #6D7E7F",
"I@	c #54ADB2",
"J@	c #82C7CE",
"K@	c #6AB7BE",
"L@	c #3AA7AE",
"M@	c #339AA3",
"N@	c #707070",
"O@	c #7EB3B6",
"P@	c #46B0B4",
"Q@	c #2CA3AA",
"R@	c #26A0A8",
"S@	c #568E92",
"T@	c #ACC1C2",
"U@	c #32A4AC",
"V@	c #2EA3AA",
"W@	c #28A0A8",
"X@	c #239DA5",
"Y@	c #6C7F80",
"Z@	c #767676",
"`@	c #68AAB0",
" #	c #259FA7",
".#	c #469398",
"+#	c #6F6F6F",
"@#	c #7C7C7C",
"##	c #A0BCBC",
"$#	c #4FB1B5",
"%#	c #31A4AB",
"&#	c #2BA2A9",
"*#	c #219DA5",
"=#	c #698081",
"-#	c #6CABAE",
";#	c #43ABB1",
">#	c #4DAFB5",
",#	c #5FB2B7",
"'#	c #229CA4",
")#	c #4C9094",
"!#	c #7A7A7A",
"~#	c #B1BEBF",
"{#	c #3DA8AF",
"]#	c #5EB1B6",
"^#	c #239BA3",
"/#	c #6F7979",
"(#	c #8CAFB2",
"_#	c #1F9BA3",
":#	c #658687",
"<#	c #74A7AA",
"[#	c #44AFB6",
"}#	c #2CA1A8",
"|#	c #558D8F",
"1#	c #8C8C8C",
"2#	c #BEBEBE",
"3#	c #64A2A6",
"4#	c #1E9AA2",
"5#	c #4C8F94",
"6#	c #A2A2A2",
"7#	c #61A1A5",
"8#	c #259DA5",
"9#	c #828282",
"0#	c #9D9D9D",
"a#	c #6A9DA2",
"b#	c #36A7AE",
"c#	c #209CA4",
"d#	c #1D9AA1",
"e#	c #558C8F",
"f#	c #818181",
"g#	c #9A9A9A",
"h#	c #7C9EA0",
"i#	c #30A1A8",
"j#	c #34A3AA",
"k#	c #249EA6",
"l#	c #2098A0",
"m#	c #638587",
"n#	c #B5B5B5",
"o#	c #939E9F",
"p#	c #569A9E",
"q#	c #31A6AD",
"r#	c #1C9AA2",
"s#	c #499095",
"t#	c #6E7778",
"u#	c #7E9394",
"v#	c #4C999E",
"w#	c #2BA0A7",
"x#	c #269EA6",
"y#	c #439297",
"z#	c #688082",
"A#	c #7C8D8E",
"B#	c #5A9396",
"C#	c #339CA3",
"D#	c #249CA4",
"E#	c #2B979D",
"F#	c #538E91",
"G#	c #6B7E7F",
"H#	c #758687",
"I#	c #648C8E",
"J#	c #4F9297",
"K#	c #3E969C",
"L#	c #2E99A0",
"M#	c #2399A1",
"N#	c #2B989F",
"O#	c #3B959B",
"P#	c #5F878B",
"Q#	c #7D7D7D",
"                                                                                                            ",
"                                                                                                            ",
"                                                                                                            ",
"                                                                                                            ",
"                                          . + @ # $ % & * = - ; > ,                                         ",
"                                    . ' ) ! ~ ~ ~ ~ ~ { ] ] * ^ / ( _ : <                                   ",
"                                [ } ~ | 1 2 3 3 3 3 2 4 1 | ~ 5 6 7 8 9 0 a b                               ",
"                            c d ~ 1 2 e f f f g h g i f j e 2 1 k l m n ( 0 o p q                           ",
"                          r s | 2 e f h t u v w w x x v t h f y 2 | z 6 n ( A o B C                         ",
"                        D ! 1 3 f g v E F G H H H I J J F E t h f 3 1 ! 6 n ( 0 o K L M                     ",
"                      d { N 3 f t x F H O P Q Q R Q S O O H F E t i T 1 { 6 U V W X Y Z `                   ",
"                     .{ 1 3 i ..E H O Q +.@.#.$.$.#.#.@.+.Q %.H F t i 3 1 { & / A o &.*.=.-.                ",
"                  ;.] | 3 i t >.H ,.'.@.).!.~.{.].{.~.^./.#.'.O H F t i 3 | ] 7 ( 0 (.Y _.:.-.              ",
"                <.6 ~ 2 f [.F H Q +.}.|.].1.2.3.3.3.2.4.5.!./.6.Q I F 7.f 2 ~ * / V 8.9.0.a.b.-.            ",
"              c.d.z e.j h E f.,.6.$.~.4.3.g.h.i.i.i.j.k.3.4.~.$.6.l.H m.h n.e.] o.( 0 (.p.q.r.s.`           ",
"              t.* ! 2 f t F O './.~.1.u.j.v.w.x.y.z.A.v.j.u.B.{./.C.O D.t E.2 ~ * 8 V o K F.G.H.I.M         ",
"            J.7 ] | y h E H R #.!.4.u.i.A.K.L.M.M.N.L.O.A.i.u.4.!.@.P.H w h y | ] U 9 Q.&.R.S.T.U.V.        ",
"            W.^ 5 X.Y.7.F Z.'.`.].3.j. +.+++@+#+#+$+%+++&+*+h.3.5.=++.O F t f N z & ( -+;+p.>+T.,+'+)+      ",
"          !+~+& { X.f v {+O @.!.B.k.]+.+N.^+/+(+_+(+:+<+M..+v.k.[+!.}+O D.v f 2 { * |+0 X 1+q.2+3+4+5+      ",
"          6+|+* ~ 7+i v f.Q #.~.2.j.A.L.%+:+8+9+0+a+b+:+%+L.A.c+d+~.#.Q H w i 2 ~ * / e+(.1+f+2+g+h+i+j+    ",
"          _ 8 6 | 3 i E H R /.5.3.i.k+M.%+(+a+l+m+n+o+(+%+M.k+i.3.]./.P.H w g 3 ~ * 8 A o Y q.p+g+q+r+s+    ",
"        t+A |+* | 3 i E %.R $.].3.i.y.N.u+8+v+w+x+m+0+8+y+N.K.i.3.5.#.z+%.x g 3 ~ * / A (.Y _.p+A+B+C+D+E+  ",
"        F+A |+6 ~ 3 g E H Q #.].3.G+x.M.#+(+a+l+w+l+o+(+%+M.x.H+3.5.#.z+H E h 3 ~ * / A (.Y _.2+A+B+I+J+K+  ",
"        L+A |+* ~ 3 i w H Q #.~.2.M+A.L.N+/+O+a+v+P+Q+:+^+R+A.S+T+~.#.Q J w i 3 ~ * |+A U+1+q.V+W+B+X+Y+Z+  ",
"        `+0 |+& { 2 f v G ,.@.!.4. @]+.@M.^+/+(+8+(+/+<+N.+@]+k.[+^.@.l.J t f 2 ! & ( A X 1+q.2+3+@@#@$@%@&@",
"        *@W ( & ] N j t F %.'.=+5.3.j.A..+N.%+#+=@%+@+M..+A.j.3.5.).'.O F t j -@z 7 ( -+;+p.a.T.3+;@>@,@'+'@",
"        )@Q.9 n ] | y g E H Q @.!@1.~@i.A.y.L.M.M.M.R+.@A.i.u.4.!.@.Q H E g 3 | ] n 9 Q.9.R.{@T.]@^@/@(@_@)+",
"        K :@A / * ~ 2 f v D.%.R $.{.<@~@j.*+A.x.k+k+A.v.j.u.[+~.$.R O [@..i 2 ~ 6 / A o Y F.G.}@|@1@2@3@4@-.",
"        5@X 0 ( 7 6@1 y 7@m.J ,.6.$.~.4.3.g.j.H+i.j.S+ @3.4.~.$.8@O H x 7.y 1 6@& ( 0 X 1+q.p+A+B+9@2@0@a@K+",
"        b@&.Q.V / 6 ~ 2 f t >.H P 6.#.~.5.[+2.3.3.3.2.1.5.!.}.6.,.H E t f 2 ~ 6 / 9 Q.9.*.a.T.c@;@d@e@f@g@K+",
"        h@Y U+0 ( 7 ] | 3 i@..F H P '.@.`.!.~.{.5.].~.!.`.@.+.,.H >.j@i 3 | z 7 k@0 (.Y _.G.l@m@1@n@o@0@a@K+",
"        p@0.&.o 9 / & z 1 3 i v E f.%.Q '.}+#.#.#.#.#.@.'.Q %.H >...i T 1 ! * |+V Q.&.0.a.q@3+B+9@r@s@3@4@-.",
"        t@_.1+(.0 9 U u@{ 1 e i t x D.H %.O Q R R Q Q ,.%.H [@E t f e 1 ! 6 n V 0 ;+Y _.G.v@]@w@d@x@y@(@z@)+",
"        A@a.R.K o 0 ( n 6 ! B@3 f g v E F D.H H %.H H J F x v h f 3 e.{ C@n ( D@o E@F@{@q@g+@@9@r@G@H@,@'+'@",
"          I@a.p.9.Q.0 ( n * z | 2 j f h 7.v J@E E w w v t g f y 2 | { * K@|+0 o &.0.q.p+A+L@w@n@x@M@N@$@%@&@",
"          O@P@f+p.9.o A ( n * ] ~ B@2 e j f i i h i i f Y.e 2 1 ~ z & n ( 0 o 9.p.q.P@v@3+@@9@Q@R@S@f@Y+Z+  ",
"          T@T.{@_.1+9.o 0 V / 7 6 ] ~ | N 2 2 3 3 3 2 N 1 | ~ 6@* 7 8 9 0 o 9.1+F.{@T.g+B+U@V@W@X@Y@Z@J+K+  ",
"            `@T.{@F.p.&.o W V |+n 7 6 6 z { ~ ~ ~ k ~ ! ] ] * & / ( V -+(.&.1+F.{@q@W+|@1@n@x@ #.#+#@#D+E+  ",
"            ##g+q@{@_.0.E@X Q.0 V ( |+U & m * 6 6 6 * & 7 n / ( V 0 Q.X K $#_.{@q@W+|@w@%#&#R@*#=#0@r+s+    ",
"              -#g+;#G.a.>#1+&.(.Q.0 A 9 ( ~+/ |+|+8 |+|+( 9 A 0 ,#(.&.1+R.q.G.T.g+|@w@%#Q@G@'#)#+#!#i+j+    ",
"              ~#{#g+v@p+a._.*.Y &.X o ,#0 0 A A A A 0 0 -+Q.]#X &.1+0.F.a.p+v@g+|@^@%#Q@G@X@^#/#0@r+5+      ",
"                (#@@3+A+q@G.a.F.R.1+E@9.9.X U+o :@U+U+X X 9.K 1+R._.a.G.q@A+3+B+1@%#Q@G@X@_#:#N@@#'+j+      ",
"                  <#;@m@g+v@q@G.a.q.F.R.p.1+1+Y 1+Y 1+1+p.*.F.q.a.[#V+v@3+L@;@U@d@}#G@X@_#|#+#(@1#V.        ",
"                  2#3#w@B+]@g+l@q@2+G.{@a.q.f+_._._.q.q.>+a.G.2+q@}@g+L@B+w@%#V@&#R@'#4#5#+#3@Y+6#2#        ",
"                    ` 7#9@^@B+L@3+W+l@T.T.2+2+p+p+p+V+V+q@T.}@g+]@m@@@^@U@n@r@W@8#'#4#5#+#0@9#0#`           ",
"                      -.a#n@9@1@b#B+m@]@3+g+A+W+g+A+A+g+3+]@|@B+b#1@9@d@r@x@R@X@c#d#e#+#0@f#g#-.            ",
"                        -.h#i#2@d@U@U@^@b#;@@@B+B+B+@@@@;@^@j#9@%#n@Q@x@G@k#*#4#l#m#+#3@9#g#n#              ",
"                          -.o#p#&#r@V@n@d@%#q#9@9@9@%#%#d@n@V@Q@&#W@ #k#*#4#r#s#t#N@(@Y+0#-.                ",
"                            ` I.u#v#G@W@x@w#}#&#}#Q@&#&#w#W@G@x#k#'#c#4#r#y#z#+#0@@#1#6#`                   ",
"                              M V.'+A#B#C#k#k#8#8#8# #k#D#'#*#c#4#r#E#F#G#+#0@!#r+'+V.2#                    ",
"                                  )+5+i+r+H#I#J#K#L#^#_#M#N#O#5#P#G#N@f@Z@Q#r+i+5+)+                        ",
"                                      j+Z+D+J+r+$@,@(@3@0@0@0@3@(@,@$@Y+J+D+s+j+                            ",
"                                          E+K+Z+%@'+_@4@a@g@a@4@_@'+%@Z+K+E+                                ",
"                                                &@'@)+-.n#K+n#-.)+'@&@                                      "};
