/* XPM */
static char * cyan_jump1_xpm[] = {
"54 54 446 2",
"  	c None",
". 	c #BACBCC",
"+ 	c #A3C5C9",
"@ 	c #91C2C7",
"# 	c #84C1C4",
"$ 	c #79BFC3",
"% 	c #72BDC2",
"& 	c #6DBCC1",
"* 	c #6FBCC1",
"= 	c #75BCC1",
"- 	c #7FBDC1",
"; 	c #8BBEC3",
"> 	c #9DC3C5",
", 	c #B6C7C8",
"' 	c #97C3C7",
") 	c #7BC1C5",
"! 	c #74C0C4",
"~ 	c #75C0C5",
"{ 	c #74BFC4",
"] 	c #72BEC2",
"^ 	c #6EBDC2",
"/ 	c #6DBAC1",
"( 	c #6BBABF",
"_ 	c #69B8BD",
": 	c #6FB8BD",
"< 	c #8EBCC0",
"[ 	c #B3C6C7",
"} 	c #B3C9CB",
"| 	c #8BC3C5",
"1 	c #76C1C6",
"2 	c #77C2C7",
"3 	c #7BC3C7",
"4 	c #7AC3C8",
"5 	c #7BC1C7",
"6 	c #73BDC3",
"7 	c #70BDC2",
"8 	c #6CBBC0",
"9 	c #6CB9BE",
"0 	c #68B7BC",
"a 	c #64B5BA",
"b 	c #7CB7BA",
"c 	c #A9C0C1",
"d 	c #C2CCCC",
"e 	c #91C4C7",
"f 	c #7CC3C8",
"g 	c #7EC5CA",
"h 	c #81C7CB",
"i 	c #80C7CC",
"j 	c #7FC6CB",
"k 	c #7DC4C9",
"l 	c #75BFC5",
"m 	c #70BFC4",
"n 	c #6EBBC2",
"o 	c #60B3B8",
"p 	c #7EB4B8",
"q 	c #B6C1C2",
"r 	c #A9C7C9",
"s 	c #77C0C5",
"t 	c #83C9CD",
"u 	c #85C9CD",
"v 	c #84C9CE",
"w 	c #86CACE",
"x 	c #85CACF",
"y 	c #7BC4C9",
"z 	c #73BFC3",
"A 	c #65B6BB",
"B 	c #5EB0B6",
"C 	c #96B6B8",
"D 	c #99C5C7",
"E 	c #87CBCF",
"F 	c #88CCD0",
"G 	c #89CBD1",
"H 	c #8BCDD1",
"I 	c #8ACCD2",
"J 	c #8ACCD0",
"K 	c #5BB2B7",
"L 	c #82AFB2",
"M 	c #C0C0C0",
"N 	c #7AC2C6",
"O 	c #8DCFD3",
"P 	c #90CFD4",
"Q 	c #90D0D4",
"R 	c #91D1D5",
"S 	c #90D2D4",
"T 	c #8FCFD3",
"U 	c #7BC3C9",
"V 	c #67B8BD",
"W 	c #62B5BA",
"X 	c #5DB2B7",
"Y 	c #59B2B7",
"Z 	c #77ABAF",
"` 	c #BBBBBB",
" .	c #90C3C6",
"..	c #84C8CE",
"+.	c #92D2D6",
"@.	c #95D3D7",
"#.	c #96D4D8",
"$.	c #97D5D9",
"%.	c #8CCED2",
"&.	c #5CB1B6",
"*.	c #53B1B7",
"=.	c #75A8AD",
"-.	c #B8B8B8",
";.	c #98C3C6",
">.	c #87CCCF",
",.	c #8ED0D4",
"'.	c #93D1D5",
").	c #99D6D9",
"!.	c #9AD7DA",
"~.	c #9CD7DA",
"{.	c #9BD7DB",
"].	c #99D7D9",
"^.	c #98D4D8",
"/.	c #5EB2B8",
"(.	c #4FB1B7",
"_.	c #7AA6AA",
":.	c #A8C7C8",
"<.	c #84C8CC",
"[.	c #96D6D8",
"}.	c #9AD5DA",
"|.	c #9EDADC",
"1.	c #A1DADD",
"2.	c #A2DBDE",
"3.	c #9ED9DC",
"4.	c #9CD8DC",
"5.	c #94D2D6",
"6.	c #82C8CC",
"7.	c #66B7BC",
"8.	c #60B5B8",
"9.	c #54B2B8",
"0.	c #4AB1B8",
"a.	c #85A3A5",
"b.	c #C0CBCC",
"c.	c #70BBC0",
"d.	c #79C1C5",
"e.	c #89CDD1",
"f.	c #A5DCDF",
"g.	c #A7DDE1",
"h.	c #A6DEE2",
"i.	c #A7DEE1",
"j.	c #A4DDE0",
"k.	c #8FD1D3",
"l.	c #86CBCE",
"m.	c #7CC5C8",
"n.	c #55B1B7",
"o.	c #4DB1B7",
"p.	c #48B0B6",
"q.	c #97A1A1",
"r.	c #8BC1C5",
"s.	c #A3DCDF",
"t.	c #A7DFE3",
"u.	c #AADFE4",
"v.	c #ABE0E5",
"w.	c #ADE1E5",
"x.	c #ACE2E4",
"y.	c #AAE0E4",
"z.	c #A0D9DC",
"A.	c #92D0D6",
"B.	c #7DC6CB",
"C.	c #50B2B8",
"D.	c #47B1B7",
"E.	c #68A2A6",
"F.	c #A5A5A5",
"G.	c #B1C8C9",
"H.	c #ACE1E6",
"I.	c #AFE3E7",
"J.	c #B2E5E8",
"K.	c #ADE3E5",
"L.	c #91CFD5",
"M.	c #61B4B9",
"N.	c #52B2B8",
"O.	c #49B0B7",
"P.	c #43B0B7",
"Q.	c #839899",
"R.	c #AEAEAE",
"S.	c #83BEC1",
"T.	c #79C3C7",
"U.	c #7CC5CA",
"V.	c #8ECED2",
"W.	c #97D3D9",
"X.	c #A9E1E3",
"Y.	c #AEE2E6",
"Z.	c #B3E5E9",
"`.	c #B6E8EA",
" +	c #B7E8EB",
".+	c #B6E6EA",
"++	c #B5E7EB",
"@+	c #A9DFE3",
"#+	c #98D6D8",
"$+	c #63B4B9",
"%+	c #5DB1B7",
"&+	c #4BB1B7",
"*+	c #5EA2A6",
"=+	c #9A9A9A",
"-+	c #BABABA",
";+	c #B6C9CA",
">+	c #6BB8BD",
",+	c #88CED0",
"'+	c #A8DEE2",
")+	c #B6E7EA",
"!+	c #B9E9ED",
"~+	c #BCEBEE",
"{+	c #BCECEE",
"]+	c #BAE9EC",
"^+	c #9FDADD",
"/+	c #94D4D6",
"(+	c #6AB9BE",
"_+	c #57B1B7",
":+	c #44B1B8",
"<+	c #3EADB4",
"[+	c #819091",
"}+	c #A9A9A9",
"|+	c #91C0C3",
"1+	c #7AC2C8",
"2+	c #BDECEF",
"3+	c #C1ECF1",
"4+	c #C4EFF2",
"5+	c #C1EEF1",
"6+	c #BEEDF0",
"7+	c #A6DDE0",
"8+	c #A0D9DE",
"9+	c #66B5BA",
"0+	c #4EB2B8",
"a+	c #3FAEB5",
"b+	c #669B9E",
"c+	c #979797",
"d+	c #B9B9B9",
"e+	c #ABE1E5",
"f+	c #B5E8EB",
"g+	c #C5F1F3",
"h+	c #C8F2F4",
"i+	c #C5F2F3",
"j+	c #C2EFF2",
"k+	c #46B0B6",
"l+	c #45A8AF",
"m+	c #898989",
"n+	c #ACACAC",
"o+	c #B5C8C9",
"p+	c #B8E8EC",
"q+	c #C2EDF2",
"r+	c #C9F2F5",
"s+	c #CEF6F8",
"t+	c #B7E7EB",
"u+	c #92D0D4",
"v+	c #40AFB6",
"w+	c #39ABB3",
"x+	c #7A8B8C",
"y+	c #9E9E9E",
"z+	c #BEBEBE",
"A+	c #9BC1C3",
"B+	c #A6DDE2",
"C+	c #A7DFE1",
"D+	c #6C9394",
"E+	c #919191",
"F+	c #B6B6B6",
"G+	c #86BCC0",
"H+	c #A6DEE0",
"I+	c #BFECEF",
"J+	c #C0EFF2",
"K+	c #BDEDEF",
"L+	c #B5E6EB",
"M+	c #B0E4E8",
"N+	c #A5DEE1",
"O+	c #A0DBDE",
"P+	c #5EB3B8",
"Q+	c #45AFB5",
"R+	c #40AEB4",
"S+	c #5B999F",
"T+	c #888888",
"U+	c #74B8BC",
"V+	c #A5DDDF",
"W+	c #ACE2E6",
"X+	c #AEE1E6",
"Y+	c #38AAB2",
"Z+	c #4CA1A6",
"`+	c #818181",
" @	c #A2A2A2",
".@	c #C2C2C2",
"+@	c #68B6B8",
"@@	c #B7E9EB",
"#@	c #7AC0C6",
"$@	c #4CB2B8",
"%@	c #37AAB1",
"&@	c #3EA4AA",
"*@	c #7D7D7D",
"=@	c #BDBDBD",
"-@	c #5DB3B7",
";@	c #98D7DA",
">@	c #A4DBDE",
",@	c #48B1B8",
"'@	c #3DACB3",
")@	c #36ABB2",
"!@	c #33A7AF",
"~@	c #7A7A7A",
"{@	c #959595",
"]@	c #5EB4B8",
"^@	c #9FD8DD",
"/@	c #88CAD0",
"(@	c #41AEB5",
"_@	c #3AADB4",
":@	c #35AAB1",
"<@	c #30A6AE",
"[@	c #777777",
"}@	c #909090",
"|@	c #5DB0B5",
"1@	c #73BEC3",
"2@	c #82C6CC",
"3@	c #93D1D7",
"4@	c #33A9B1",
"5@	c #767676",
"6@	c #8D8D8D",
"7@	c #63B1B5",
"8@	c #67B6BB",
"9@	c #3CAFB6",
"0@	c #31A9B1",
"a@	c #3AA3AA",
"b@	c #757575",
"c@	c #8C8C8C",
"d@	c #6DB2B7",
"e@	c #80C6CA",
"f@	c #82C9CE",
"g@	c #68B9BE",
"h@	c #41B0B7",
"i@	c #3BAEB5",
"j@	c #30A8B0",
"k@	c #469DA2",
"l@	c #7EB7BA",
"m@	c #2EA6AE",
"n@	c #56969A",
"o@	c #93BCBF",
"p@	c #6FBEC1",
"q@	c #42AFB6",
"r@	c #36A9B0",
"s@	c #2BA6AD",
"t@	c #648D90",
"u@	c #949494",
"v@	c #B1C5C5",
"w@	c #6FBEC3",
"x@	c #76C3C6",
"y@	c #6FBCC3",
"z@	c #63B6BB",
"A@	c #5AB1B6",
"B@	c #51B3B7",
"C@	c #29A4AB",
"D@	c #708182",
"E@	c #58AFB4",
"F@	c #85C9CF",
"G@	c #6CB9C0",
"H@	c #3BACB3",
"I@	c #359EA7",
"J@	c #737373",
"K@	c #80B4B8",
"L@	c #47B3B7",
"M@	c #2DA7AF",
"N@	c #27A5AD",
"O@	c #589296",
"P@	c #ADC2C3",
"Q@	c #34A9B0",
"R@	c #2FA7AF",
"S@	c #2AA5AC",
"T@	c #24A2AA",
"U@	c #6F8283",
"V@	c #797979",
"W@	c #6BABB1",
"X@	c #26A4AC",
"Y@	c #48979C",
"Z@	c #727272",
"`@	c #7E7E7E",
" #	c #A1BCBD",
".#	c #53B3B7",
"+#	c #33A8AF",
"@#	c #2CA6AE",
"##	c #22A2AA",
"$#	c #6C8384",
"%#	c #6FADAF",
"&#	c #44AFB6",
"*#	c #51B1B7",
"=#	c #62B3B8",
"-#	c #23A1A9",
";#	c #4E9498",
">#	c #B2BFC0",
",#	c #3FACB3",
"'#	c #61B2B7",
")#	c #24A0A8",
"!#	c #717C7D",
"~#	c #8FB0B3",
"{#	c #20A2AA",
"]#	c #67898B",
"^#	c #76A9AC",
"/#	c #45B2B9",
"(#	c #2DA6AD",
"_#	c #579193",
":#	c #8E8E8E",
"<#	c #BFBFBF",
"[#	c #68A4A8",
"}#	c #1FA1A9",
"|#	c #4E9398",
"1#	c #A4A4A4",
"2#	c #65A3A7",
"3#	c #26A2AA",
"4#	c #858585",
"5#	c #9F9F9F",
"6#	c #6E9FA4",
"7#	c #37ACB3",
"8#	c #21A3AB",
"9#	c #1EA0A8",
"0#	c #578F93",
"a#	c #848484",
"b#	c #9C9C9C",
"c#	c #7F9FA1",
"d#	c #31A6AD",
"e#	c #35A8AF",
"f#	c #25A3AB",
"g#	c #219FA7",
"h#	c #65898B",
"i#	c #B7B7B7",
"j#	c #96A0A0",
"k#	c #589EA2",
"l#	c #32AAB2",
"m#	c #1DA1A9",
"n#	c #4B9499",
"o#	c #707A7C",
"p#	c #809596",
"q#	c #4E9DA2",
"r#	c #2CA4AC",
"s#	c #28A3AA",
"t#	c #1D9FA7",
"u#	c #45969B",
"v#	c #6B8385",
"w#	c #809090",
"x#	c #5C969A",
"y#	c #35A1A7",
"z#	c #25A1A9",
"A#	c #2C9BA2",
"B#	c #559195",
"C#	c #6E8182",
"D#	c #778889",
"E#	c #668F92",
"F#	c #51969B",
"G#	c #409BA0",
"H#	c #2F9EA5",
"I#	c #25A0A7",
"J#	c #2C9DA4",
"K#	c #3D999F",
"L#	c #618A8F",
"M#	c #7F7F7F",
"                                                                                                            ",
"                                                                                                            ",
"                                                                                                            ",
"                                                                                                            ",
"                                          . + @ # $ % & * = - ; > ,                                         ",
"                                    . ' ) ! ~ ~ ~ ~ ~ { ] ] ^ / ( _ : < [                                   ",
"                                } | ~ 1 2 3 4 4 4 4 3 5 2 1 ~ 6 7 8 9 0 a b c                               ",
"                            d e ~ 2 3 f g g g h i h j g k f 3 2 l m n ( _ a o p q                           ",
"                          r s 1 3 f g i t u v w w x x v t i g y 3 1 z 7 ( _ A o B C                         ",
"                        D ! 2 4 g h v E F G H H H I J J F E t i g 4 2 ! 7 ( _ a o K L M                     ",
"                      e { N 4 g t x F H O P Q Q R Q S T O H F E t j U 2 { 7 ( V W X Y Z `                   ",
"                     .{ 2 4 j ..E H O Q +.@.#.$.$.#.#.@.+.Q %.H F t j 4 2 { & ( A o &.*.=.-.                ",
"                  ;.] 1 4 j t >.H ,.'.@.$.).!.~.{.~.!.].^.#.'.T H F t j 4 1 ] 8 _ a /.Y (._.-.              ",
"                :.7 ~ 3 g <.F H Q +.[.}.{.|.1.2.2.2.1.3.4.).^.5.Q I F 6.g 3 ~ ^ ( 7.8.&.9.0.a.-.            ",
"              b.c.z d.k i E e.,.5.$.!.3.2.f.g.h.h.h.i.j.2.3.!.$.5.k.H l.i m.d.] 8 _ a /.n.o.p.q.`           ",
"              r.^ ! 3 g t F O '.^.!.|.s.i.t.u.v.w.x.y.t.i.s.z.~.^.A.O F t B.3 ~ ^ 9 7.o K C.D.E.F.M         ",
"            G.8 ] 1 y i E H R #.).3.s.h.y.H.I.J.J.J.I.K.y.h.s.3.).@.L.H w i y 1 ] ( 0 M.&.N.O.P.Q.R.        ",
"            S./ 6 T.U.6.F V.'.W.{.2.i.X.Y.Z.`. + +.+++Z.Y.@+g.2.4.#++.O F t g N z & _ $+%+n.&+P.*+=+-+      ",
"          ;+>+& { T.g v ,+T @.).z.j.'+Y.J.)+!+~+{+~+]+`.J.Y.t.j.^+)./+T F v g 3 { * (+a X _+o.:+<+[+}+      ",
"          |+(+^ ~ 1+j v e.Q #.!.1.i.y.I.++]+2+3+4+5+6+]+++I.y.7+8+!.#.Q H w j 3 ~ ^ ( 9+/._+0+:+a+b+c+d+    ",
"          : 9 7 1 4 j E H R ^.4.2.h.e+J.f+~+5+g+h+i+j+~+f+J.e+h.2.{.^.L.H w h 4 ~ ^ 9 A o Y o.k+a+l+m+n+    ",
"        o+A (+^ 1 4 j E %.R $.{.2.h.w.J.p+2+q+r+s+h+4+2+t+J.H.h.2.4.#.u+%.x h 4 ~ ^ ( A /.Y (.k+v+w+x+y+z+  ",
"        A+A (+7 ~ 4 h E H Q #.{.2.B+v.J. +~+5+g+r+g+j+~+f+J.v.C+2.4.#.u+H E i 4 ~ * ( A /.Y (.:+v+w+D+E+F+  ",
"        G+A (+^ ~ 4 j w H Q #.!.1.H+y.I.)+!+I+5+q+J+K+]+L+M+y.N+O+!.#.Q J w j 4 ~ ^ (+A P+_+o.Q+R+w+S+T+n+  ",
"        U+a (+& { 3 g v G ,.@.).3.V+'+W+J.L+!+~+2+~+!+`.J.X+'+j.^+].@.k.J t g 3 ! & _ A X _+o.:+<+Y+Z+`+ @.@",
"        +@W _ & ] N k t F %.'.#+4.2.i.y.Y.J.++ +@@f+`.J.Y.y.i.2.4.$.'.O F t k #@z 8 _ $+%+n.$@P.<+%@&@*@=+=@",
"        -@M.0 ( ] 1 y h E H Q @.;@|.>@h.y.w.I.J.J.J.M+W+y.h.s.3.).@.Q H E h 4 1 ] ( 0 M.&.N.,@P.'@)@!@~@{@-+",
"        K ]@A ( ^ ~ 3 g v F %.R $.~.^@>@i.@+y.v.e+e+y.t.i.s.^+!.$.R O /@..j 3 ~ 7 ( A o Y C.D.(@_@:@<@[@}@-.",
"        |@X a _ 8 1@2 y 2@l.J ,.5.$.!.3.2.f.i.C+h.i.N+V+2.3.!.$.3@T H x 6.y 2 1@& _ a X _+o.k+v+w+4@<@5@6@F+",
"        7@&.M.7.( 7 ~ 3 g t >.H P 5.#.!.4.^+1.2.2.2.1.|.4.).[.5.,.H E t g 3 ~ 7 ( 8@M.&.*.0.P.9@%@0@a@b@c@F+",
"        d@Y P+a _ 8 ] 1 4 e@..F H P '.@.W.).!.~.4.{.!.).W.@.+.,.H >.f@j 4 1 z 8 g@a /.Y (.D.h@i@:@j@k@5@6@F+",
"        l@9.&.o 8@( & z 2 4 j v E e.%.Q './+#.#.#.#.#.@.'.Q %.H >...j U 2 ! ^ (+7.M.&.9.0.P.<+w+4@m@n@[@}@-.",
"        o@(._+/.a 0 ( p@{ 2 f j t x F H %.T Q R R Q Q ,.%.H /@E t g f 2 ! 7 ( V a %+Y (.D.q@'@r@0@s@t@~@u@-+",
"        v@0.N.K o a _ ( w@! x@4 g h v E F F H H %.H H J F x v i g 4 d.{ y@( _ z@o A@B@,@P.a+Y+4@m@C@D@*@=+=@",
"          E@$@n.&.M.a _ ( ^ z 1 3 k g i 6.v F@E E w w v t h g y 3 1 { ^ G@(+a o &.9.o.k+v+H@r@j@s@I@J@`+ @.@",
"          K@L@0+n.&.o A _ ( * ] ~ x@3 f k g j j i j j g U.f 3 2 ~ z & ( _ a o &.n.o.L@q@<+Y+4@M@N@O@b@T+n+  ",
"          P@P.,@(._+&.o a V ( 8 7 ] ~ 1 N 3 3 4 4 4 3 N 2 1 ~ 1@^ 8 9 0 a o &._+C.,@P.a+w+Q@R@S@T@U@V@E+F+  ",
"            W@P.,@C.n.&.o W 7.(+( 8 7 7 z { ~ ~ ~ l ~ ! ] ] ^ & ( _ 7.$+/.&._+C.,@P.R+_@:@j@s@X@Y@Z@`@y+z+  ",
"             #a+P.,@(.9.A@X M.a 7._ (+( & n ^ 7 7 7 ^ & 8 ( ( _ 7.a M.X K .#(.,@P.R+_@r@+#@#N@##$#5@m+n+    ",
"              %#a+&#D.$@*#_+&./.M.a A 0 _ >+( (+(+9 (+(+_ 0 A a =#/.&._+N.o.D.P.a+_@r@+#M@C@-#;#Z@*@c+d+    ",
"              >#,#a+q@k+0.(.*.Y &.X o =#a a A A A A a a $+M.'#X &._+9.C.0.k+q@a+_@)@+#M@C@T@)#!#5@m+}+      ",
"                ~#Y+<+v+P.D.$@C.N._+A@&.&.X P+o ]@P+P+X X &.K _+N.(.0.D.P.v+<+w+:@+#M@C@T@{#]#J@`@=+d+      ",
"                  ^#%@i@a+q@P.D.0.o.C.N.n._+_+Y _+Y _+_+n.*.C.o.0./#Q+q@<+H@%@Q@0@(#C@T@{#_#Z@~@:#R.        ",
"                  <#[#r@w+'@a+h@P.:+D.,@0.o.0+(.(.(.o.o.&+0.D.:+P.(@a+H@w+r@+#R@@#N@-#}#|#Z@[@T+1#<#        ",
"                    ` 2#4@)@w+H@<+R+h@P.P.:+:+k+k+k+Q+Q+P.P.(@a+'@i@Y+)@Q@j@m@S@3#-#}#|#Z@5@4#5#`           ",
"                      -.6#j@4@:@7#w+i@'@<+a+v+R+a+v+v+a+<+'@_@w+7#:@4@0@m@s@N@T@8#9#0#Z@5@a#b#-.            ",
"                        -.c#d#<@0@Q@Q@)@7#%@Y+w+w+w+Y+Y+%@)@e#4@+#j@M@s@C@f###}#g#h#Z@[@4#b#i#              ",
"                          -.j#k#@#m@R@j@0@+#l#4@4@4@+#+#0@j@R@M@@#S@X@f###}#m#n#o#J@~@T+5#-.                ",
"                            ` F.p#q#C@S@s@r#(#@#(#M@@#@#r#S@C@s#f#-#8#}#t#u#v#Z@5@`@:#1#`                   ",
"                              M R.=+w#x#y#f#f#3#3#3#X@f#z#-###8#}#m#A#B#C#Z@5@*@m+=+R.<#                    ",
"                                  -+}+c+m+D#E#F#G#H#)#{#I#J#K#|#L#C#J@b@V@M#m+c+}+-+                        ",
"                                      d+n+y+E+m+`+*@~@[@5@5@5@[@~@*@`+T+E+y+n+d+                            ",
"                                          z+F+n+ @=+{@}@6@c@6@}@{@=+ @n+F+z+                                ",
"                                                .@=@-+-.i#F+i#-.-+=@.@                                      "};
