/* XPM */
static char *cyan_destroy4[] = {
"36 36 64 1",
"  c black",
". c #a8761e",
"X c #aa7b2e",
"o c #947c50",
"O c #967b56",
"+ c #8a7c67",
"@ c #937c65",
"# c #a57a4a",
"$ c #c37c22",
"% c #95852e",
"& c #b18734",
"* c #b9a43c",
"= c #8f8452",
"- c #978547",
"; c #878264",
": c #918e6d",
"> c #b68c4a",
", c #b2a761",
"< c #d88f10",
"1 c #d18d36",
"2 c #d7a111",
"3 c #d8a433",
"4 c #ec8b03",
"5 c #e89603",
"6 c #ef910c",
"7 c #f4970a",
"8 c #fb9a15",
"9 c #e6982f",
"0 c #eba906",
"q c #efac10",
"w c #fda817",
"e c #fcb81a",
"r c #f2aa2e",
"t c #fdbb26",
"y c #cb9145",
"u c #d1b04e",
"i c #e0ac54",
"p c #f0b650",
"a c #dec433",
"s c #eccf10",
"d c #fcc719",
"f c #f9d71a",
"g c #eed930",
"h c #fec725",
"j c #fdc836",
"k c #fdd828",
"l c #feda38",
"z c #fbe71b",
"x c #fde627",
"c c #fde637",
"v c #fefb29",
"b c #fefc38",
"n c #dec65b",
"m c #d9c762",
"M c #f2cd52",
"N c #ffda44",
"B c #fddb55",
"V c #f8d867",
"C c #ffe946",
"Z c #fee957",
"A c #fffc43",
"S c #fff854",
"D c #fdeb6b",
"F c None",
"FFFFFFFFFFFFFFFFFFFFFFFFFFFFFFFFFFFF",
"FFFFFFFFFFFFFFFFFFFFFFFFFFFFFFFFFFFF",
"FFFFFFFFFFFFFFFFFFFFFFFFFFFFFFFFFFFF",
"FFFFFFFFFFFFFFo&<22ga*%=;FFFFFFFFFFF",
"FFFFFFFFFFFFFFOiNNCcCBDm-=FFFFFFFFFF",
"FFFFFFFFFFFFFF=u2q50hjCSZu-FFFFFFFFF",
"FFFFFFFFFFFFF;,MBNNlleqsCZn-+FFFFFFF",
"FFFFFFFFFFFF:,mBZSSSSSCqqcZM%;FFFFFF",
"FFFFFFF+++::,uVSgcSSSSlt50kCn=FFFFFF",
"FFFFFF;#y1yyuMZAxscAcxkhw45kS*=FFFFF",
"FFFFF+o19<rrBCcbbbbbxfxd777dcV-FFFFF",
"FFFFFo&rw6rlAAbvvbbbbbbkkt75lZuOFFFF",
"FFFFO>rw7wtkbbbbAbbbbbbxkw77eCM-+FFF",
"FFF+O368w7kcAASSAAbvbvbvbkq7ekZ>OFFF",
"FFFO>Mw88wdkAAAAAAAbbbbvskq7whZ,-FFF",
"FFF#yMw4wjkgbAAbbbbAAbvvvfh865Bn%FFF",
"FFF%ir54whkbvbbbbbAAAbbvvzkw4<ZV%FFF",
"FFF%MN05tkxbvAAAAbbbbbbzzvdw65ZV%FFF",
"FFF%iN05tkbbbbbbAbbbbbvbzvk86eND%FFF",
"FFFXiC04ekbbbbbbbbbbbvvvvsdw4qNV%FFF",
"FFFoyBt7wdxbbbbbbbbAbvvvvxe770Sm%FFF",
"FFF+-3j6wekxbvvAAbbbbvvvxke74dSu=FFF",
"FFFF@.B84ehfxvvbAbAbvzvzfe747lZ-+FFF",
"FFFF+XV847ehkxxbbbbbbvvfdt46ekM=FFFF",
"FFFFFo1r768elfvxxvbbvvffew75tZ*;FFFF",
"FFFFF@#p688wedxfbbAbvsfdq7h0Cp%+FFFF",
"FFFFFFO1r44wqqxkAAAbbkqqe7qkZ>oFFFFF",
"FFFFFF@>prwNjkAAAAAAbcdhe2hNMoFFFFFF",
"FFFFFFFO>pjqhcclSClgClllelZM%+FFFFFF",
"FFFFFFFFOy9jq5tqrjjtjqrrBDu-+FFFFFFF",
"FFFFFFFF+#&33r99<<<<<3pi&%-FFFFFFFFF",
"FFFFFFFFFF@oo>>y99p1y#O@;;;FFFFFFFFF",
"FFFFFFFFFFFFF@#X$1.$Xo;FFFFFFFFFFFFF",
"FFFFFFFFFFFFFFFFFFFFFFFFFFFFFFFFFFFF",
"FFFFFFFFFFFFFFFFFFFFFFFFFFFFFFFFFFFF",
"FFFFFFFFFFFFFFFFFFFFFFFFFFFFFFFFFFFF"
};
