/* XPM */
static char * cyan_small_xpm[] = {
"32 32 235 2",
"  	c None",
". 	c #666666",
"+ 	c #626A6C",
"@ 	c #567C80",
"# 	c #4F8891",
"$ 	c #4C929C",
"% 	c #4797A1",
"& 	c #45969F",
"* 	c #459099",
"= 	c #4B858D",
"- 	c #52787C",
"; 	c #606A6C",
"> 	c #636A6B",
", 	c #55848B",
"' 	c #4D9DA7",
") 	c #529FAA",
"! 	c #52A2AC",
"~ 	c #55A0AB",
"{ 	c #53A2AB",
"] 	c #51A0A9",
"^ 	c #4E9EA8",
"/ 	c #4A9AA4",
"( 	c #4595A1",
"_ 	c #3F919B",
": 	c #497D83",
"< 	c #616869",
"[ 	c #5C7578",
"} 	c #5097A2",
"| 	c #54A0AC",
"1 	c #59A6AF",
"2 	c #5CA9B2",
"3 	c #5FAAB3",
"4 	c #60A9B4",
"5 	c #5FA8B3",
"6 	c #5EA7B2",
"7 	c #59A4AF",
"8 	c #54A3AC",
"9 	c #4898A2",
"0 	c #41919D",
"a 	c #3C8894",
"b 	c #547074",
"c 	c #5B787D",
"d 	c #5AA3AE",
"e 	c #65AEB7",
"f 	c #68B1BA",
"g 	c #6AB3BC",
"h 	c #6CB4BC",
"i 	c #63AEB7",
"j 	c #4999A5",
"k 	c #40929E",
"l 	c #388B98",
"m 	c #507276",
"n 	c #5E7476",
"o 	c #61ACB5",
"p 	c #69B2BB",
"q 	c #6FB7BF",
"r 	c #74BAC2",
"s 	c #76BCC4",
"t 	c #77BDC5",
"u 	c #5AA7B0",
"v 	c #4898A4",
"w 	c #3E909C",
"x 	c #348996",
"y 	c #556E71",
"z 	c #52949E",
"A 	c #63ACB5",
"B 	c #6AB1BC",
"C 	c #73B9C1",
"D 	c #7ABEC6",
"E 	c #7EC2CA",
"F 	c #83C5CD",
"G 	c #82C6CE",
"H 	c #82C4CC",
"I 	c #7FC1CB",
"J 	c #72B9C2",
"K 	c #6BB3BB",
"L 	c #62ABB6",
"M 	c #4F9DA9",
"N 	c #4496A0",
"O 	c #3A8E98",
"P 	c #37808B",
"Q 	c #646666",
"R 	c #568186",
"S 	c #7CC0C8",
"T 	c #84C6CE",
"U 	c #8ACBD2",
"V 	c #8DCDD5",
"W 	c #90CFD6",
"X 	c #72B7C2",
"Y 	c #4A98A4",
"Z 	c #3F919D",
"` 	c #457279",
" .	c #656767",
"..	c #4F98A3",
"+.	c #5AA5B0",
"@.	c #8CCCD4",
"#.	c #93D1D9",
"$.	c #99D8DD",
"%.	c #9AD7DE",
"&.	c #99D6DD",
"*.	c #94D2DA",
"=.	c #8BCDD3",
"-.	c #43939F",
";.	c #378D97",
">.	c #2E828C",
",.	c #5A777C",
"'.	c #519EA9",
").	c #5CA7B2",
"!.	c #74B8C2",
"~.	c #9ED9E0",
"{.	c #A3DEE5",
"].	c #A7E2E7",
"^.	c #A5DEE5",
"/.	c #9CD9E0",
"(.	c #2E8390",
"_.	c #4E6E72",
":.	c #52858C",
"<.	c #539FAB",
"[.	c #6CB2BC",
"}.	c #98D6DE",
"|.	c #AEE7EC",
"1.	c #B2EBF0",
"2.	c #8FCED5",
"3.	c #81C5CD",
"4.	c #52A0AC",
"5.	c #4797A3",
"6.	c #3B8E9B",
"7.	c #308592",
"8.	c #3B737B",
"9.	c #4C8E98",
"0.	c #61ABB3",
"a.	c #6BB2BD",
"b.	c #77BBC5",
"c.	c #9BD8DF",
"d.	c #BEF3F8",
"e.	c #A7E0E7",
"f.	c #9CD7DE",
"g.	c #78BCC4",
"h.	c #3C8E9A",
"i.	c #2F7883",
"j.	c #4894A0",
"k.	c #B3EAEF",
"l.	c #AEE5EC",
"m.	c #2F8491",
"n.	c #277B87",
"o.	c #5DA8B1",
"p.	c #93D3D9",
"q.	c #A3DFE5",
"r.	c #95D2D9",
"s.	c #7FC3CB",
"t.	c #4597A1",
"u.	c #3A8D9A",
"v.	c #227D88",
"w.	c #44919C",
"x.	c #4E9CA8",
"y.	c #6FB5BF",
"z.	c #8DCDD3",
"A.	c #4296A0",
"B.	c #378A97",
"C.	c #2C818E",
"D.	c #247884",
"E.	c #458993",
"F.	c #499BA5",
"G.	c #6AB2BA",
"H.	c #8ED0D6",
"I.	c #89C9D1",
"J.	c #7BBFC7",
"K.	c #69B0BB",
"L.	c #348794",
"M.	c #29808D",
"N.	c #29747F",
"O.	c #498087",
"P.	c #80C2CA",
"Q.	c #247D8A",
"R.	c #346F78",
"S.	c #537377",
"T.	c #3E929C",
"U.	c #2A818E",
"V.	c #1F7987",
"W.	c #476A6F",
"X.	c #3A8894",
"Y.	c #40949E",
"Z.	c #68AFBA",
"`.	c #4997A3",
" +	c #41939D",
".+	c #1D727F",
"++	c #49767D",
"@+	c #398C99",
"#+	c #4799A3",
"$+	c #26818C",
"%+	c #1E7784",
"&+	c #3B6A71",
"*+	c #378B97",
"=+	c #287F8C",
"-+	c #20707C",
";+	c #546C70",
">+	c #358995",
",+	c #4796A1",
"'+	c #43959F",
")+	c #277E8B",
"!+	c #1F7885",
"~+	c #177381",
"{+	c #4F696D",
"]+	c #338895",
"^+	c #3C909A",
"/+	c #17727F",
"(+	c #516B6F",
"_+	c #297985",
":+	c #2B828F",
"<+	c #2C8390",
"[+	c #257C89",
"}+	c #1A7582",
"|+	c #1A6D7A",
"1+	c #4D686D",
"2+	c #606768",
"3+	c #3A7078",
"4+	c #207986",
"5+	c #227B88",
"6+	c #237C89",
"7+	c #217787",
"8+	c #1D7785",
"9+	c #197381",
"0+	c #15707D",
"a+	c #356B73",
"b+	c #5F6667",
"c+	c #5E6768",
"d+	c #426C72",
"e+	c #2E6F78",
"f+	c #21737F",
"g+	c #19727F",
"h+	c #187280",
"i+	c #1D6F7B",
"j+	c #2A6C76",
"k+	c #406A70",
"l+	c #5C6768",
". . . . . . . . . . . . . . . . . . . . . . . . . . . . . . . . ",
". . . . . . . . . . . . . . . . . . . . . . . . . . . . . . . . ",
". . . . . . . . . . . . . . . . . . . . . . . . . . . . . . . . ",
". . . . . . . . . . . . . . . . . . . . . . . . . . . . . . . . ",
". . . . . . . . . . . + @ # $ % & * = - ; . . . . . . . . . . . ",
". . . . . . . . . > , ' ) ! ~ { ] ^ / ( _ : < . . . . . . . . . ",
". . . . . . . . [ } | 1 2 3 4 5 6 7 8 ^ 9 0 a b . . . . . . . . ",
". . . . . . . c ] d 3 e f g h g f i 3 7 ] j k l m . . . . . . . ",
". . . . . . n ) 1 o p q r s t s r q f o u ] v w x y . . . . . . ",
". . . . . . z 7 A B C D E F G H I D J K L 1 M N O P Q . . . . . ",
". . . . . R | 4 p C S T U V W V U F S X f 3 8 Y Z x ` . . . . . ",
". . . .  ...+.i q D T @.#.$.%.&.*.=.F D q e 1 ' -.;.>.Q . . . . ",
". . . . ,.'.).f !.E U #.~.{.].^./.#.U E r f 6 ] ( O (._.. . . . ",
". . . . :.<.3 [.s H V }.{.|.1.|.{.&.2.3.s g 3 4.5.6.7.8.. . . . ",
". . . . 9.| 0.a.b.F W c.].1.d.1.e.f.W G g.h 4 { v h.7.i.. . . . ",
". . . . j.<.5 g s 3.V &.{.|.k.l.^.&.V F t h 3 { 5.h.m.n.. . . . ",
". . . . ( ] o.f r E U p.~.q.e.{./.r.U s.r f 2 ] t.u.m.v.. . . . ",
". . . . w.x.1 e y.D F @.#.$.f.$.p.z.F D q e 7 x.A.B.C.D.. . . . ",
". . . . E.F.8 4 G.C S T U V H.V I.F J.C K.3 ~ F.Z L.M.N.. . . . ",
". . . . O.N M 1 A [.C D P.H F H E D J h o 7 x.N u.m.Q.R.. . . . ",
". . . . S.T.5.] u o f y.r s t b.r q p A +.] v w x U.V.W.. . . . ",
". . . . Q X.Y.j ] d 4 i Z.h a.g Z.e 5 7 ) `. +;.(.Q..+Q . . . . ",
". . . . . ++@+k #+M | +.2 3 4 3 2 1 | ^ v k @+7.$+%+&+. . . . . ",
". . . . . . P *+T.( F.x.) { { ! ] x./ N w *+7.=+V.-+Q . . . . . ",
". . . . . . ;+(.>+O T.-.t.#+5.5.,+'+T.O L.(.)+!+~+{+. . . . . . ",
". . . . . . . _.U.m.]+*+O 6.^+6.O l ]+m.U.Q.%+/+W.. . . . . . . ",
". . . . . . . . (+_+=+:+(.7.7.7.(.<+=+[+V.}+|+1+. . . . . . . . ",
". . . . . . . . . 2+3+4+5+Q.[+Q.6+7+8+9+0+a+b+. . . . . . . . . ",
". . . . . . . . . . . c+d+e+f+g+h+i+j+k+l+. . . . . . . . . . . ",
". . . . . . . . . . . . . . . . . . . . . . . . . . . . . . . . ",
". . . . . . . . . . . . . . . . . . . . . . . . . . . . . . . . ",
". . . . . . . . . . . . . . . . . . . . . . . . . . . . . . . . "};
