/* XPM */
static char *cyan_destroy1[] = {
"36 36 65 1",
"  c black",
". c #0e302e",
"X c #1f2e23",
"o c #2e2f0c",
"O c #11423d",
"+ c #314734",
"@ c #1f4746",
"# c #533507",
"$ c #554b0f",
"% c #534a2a",
"& c #695528",
"* c #576659",
"= c #579778",
"- c #6e976a",
"; c #32b09e",
": c #19c4be",
"> c #35c4b6",
", c #12d6d4",
"< c #10e7e8",
"1 c #1fe7e5",
"2 c #24d4d1",
"3 c #5aa195",
"4 c #53b598",
"5 c #41bcc3",
"6 c #53c5aa",
"7 c #5ff1e9",
"8 c #a4641a",
"9 c #b6772c",
"0 c #937c54",
"q c #897c66",
"w c #a77a44",
"e c #d07217",
"r c #d46c14",
"t c #cb7a29",
"y c #e8790e",
"u c #958832",
"i c #b68737",
"p c #a9a532",
"a c #928850",
"s c #908669",
"d c #9ea663",
"f c #b0914b",
"g c #d49c1f",
"h c #ce8a30",
"j c #f18d10",
"k c #ef9128",
"l c #f9af14",
"z c #f8b02f",
"x c #c69649",
"c c #d0b64d",
"v c #d4ae5a",
"b c #fdd029",
"n c #f2d22f",
"m c #dccd55",
"M c #dac568",
"N c #f7d84e",
"B c #e7d366",
"V c #fff050",
"C c #fcee6b",
"Z c #a8c59a",
"A c #9bf2e4",
"S c #cfb081",
"D c #e0c882",
"F c #c6fffc",
"G c None",
"GGGGGGGGGGGGGGGGGGGGGGGGGGGGGGGGGGGG",
"GGGGGGGGGGGGGGGGGGGGGGGGGGGGGGGGGGGG",
"GGGGGGGGGGGGGGq0wwa0aqqGGGGGGGGGGGGG",
"GGGGGGGGGGGGGGsxgnNccpuasGGGGGGGGGGG",
"GGGGGGGGGGGGGGsfggVVVVCBaaqGGGGGGGGG",
"GGGGGGGGGGGG333=dpcNNNVVCcuqGGGGGGGG",
"GGGGGGGGGG3345>>4-ddppgnVVmasGGGGGGG",
"GGGGGGGGG33>2212:>6>4-aizVVmasGGGGGG",
"GGGGGGGGG3>,1<<,,,,,;=ahjlbVmaGGGGGG",
"GGGGGGG0-621<<1<,1,:;ahkjlbVVcaGGGGG",
"GGGGGG0fd4211<<<,,2>=fhjjjjbVCusGGGG",
"GGGGqaxzcd62<<<12:>3ahhhjkjlbVpsGGGG",
"GGGGqizzgxd62177743sf9theyklbVCaGGGG",
"GGGG0hzljkf4>7AFZdfufihh9ejyjVVf0GGG",
"GGGGagblyyhd36AZdfhixih9tryjlbVM0GGG",
"GGG0xNbjjkhffddfxiiiihhttyyjlbVBuGGG",
"GGG0vNlljhhxiii9ifiix9tteyyyjlVCuGGG",
"GGG0MNbljhiadiiff999it9ttyyyjlVBuGGG",
"GGGavNblgfa--fiiixi9999eerjjjlVCuGGG",
"GGGG0hjzh-===ai9tih9t98erryjjlVBuGGG",
"GGGGshkzha-=-aihhiih88teyryyjlVBuGGG",
"GGGGqwvkk9fuiih99h9i999eryyyjbVf0GGG",
"GGGGG0fkkeetheh9999w&&8tryyjzbNaqGGG",
"GGGGGG0tkyyeteh889w%++&tkktkgNgaGGGG",
"GGGGGGq8hkh999iwww%OO.o9h98#hNiqGGGG",
"GGGGGG0i89fa&*+++++...X%&%o$mBuqGGGG",
"GGGGGGsxx##++OOOO......XooopCvaGGGGG",
"GGGGGGGwxfoo...........Xo$cCmaGGGGGG",
"GGGGGGG0fDa%X..........XoMCBusGGGGGG",
"GGGGGGGGqaaS#X........X%dvMasGGGGGGG",
"GGGGGGGGGqsf0G*+XXXX@*Gs000GGGGGGGGG",
"GGGGGGGGGGGGGGGssssGGGGGGGGGGGGGGGGG",
"GGGGGGGGGGGGGGGGGGGGGGGGGGGGGGGGGGGG",
"GGGGGGGGGGGGGGGGGGGGGGGGGGGGGGGGGGGG",
"GGGGGGGGGGGGGGGGGGGGGGGGGGGGGGGGGGGG",
"GGGGGGGGGGGGGGGGGGGGGGGGGGGGGGGGGGGG"
};
