/* XPM */
static char *destroy6[] = {
"36 36 65 1",
"  c black",
". c #967b39",
"X c #bb7611",
"o c #ae7231",
"O c #b9783b",
"+ c #8f7a56",
"@ c #977757",
"# c #887a67",
"$ c #887776",
"% c #977865",
"& c #957878",
"* c #a77844",
"= c #a67857",
"- c #b57749",
"; c #a57a65",
": c #d37612",
"> c #ce782e",
", c #dc7823",
"< c #e17f28",
"1 c #c87b44",
"2 c #887d8d",
"3 c #9f823e",
"4 c #b48938",
"5 c #988249",
"6 c #968256",
"7 c #928269",
"8 c #a98057",
"9 c #b28d4c",
"0 c #af8465",
"q c #d48415",
"w c #d08e2a",
"e c #cc8638",
"r c #d6aa37",
"t c #e88804",
"y c #ed8f13",
"u c #ea9906",
"i c #f59f18",
"p c #eb8c2b",
"a c #fd9a25",
"s c #efad0c",
"d c #fba914",
"f c #feb91a",
"g c #eeb52b",
"h c #fea726",
"j c #fdb834",
"k c #ca8e49",
"l c #d0b048",
"z c #e5a555",
"x c #f1d00c",
"c c #fcc817",
"v c #fdd91a",
"b c #fcca2a",
"n c #f5cc36",
"m c #fed828",
"M c #ffdb33",
"N c #fbe91b",
"B c #fbf71d",
"V c #ffe927",
"C c #ffe736",
"Z c #fefb29",
"A c #fefd35",
"S c #fbc946",
"D c #fee645",
"F c #fffd42",
"G c None",
"GGGGGGGGGGGGGGGGGGGGGGGGGGGGGGGGGGGG",
"GGGGGGGGGGGGGGGGGGGGGGGGGGGGGGGGGGGG",
"GGGGGGGGGGGGGGGGGGGGGGGGGGGGGGGGGGGG",
"GGGGGGGGGGGGGG&=O>:tyqo=%GGGGGGGGGGG",
"GGGGGGGGGGGGGGG01phijjr9=+#GGGGGGGGG",
"GGGGGGGGGGGGGGG;-pydmbDDr9@7GGGGGGGG",
"GGGGGGGGGGGGGGG@OqhfcxNxCgl5#GGGGGGG",
"GGGGGGGGGGGGGG#+*:husVBBZVgw3#GGGGGG",
"GGGGGGGGGG%%;;0=OXisvZZBZNVnr6GGGGGG",
"GGGGGGG&;@=-1>k1oqbCVZZZVNxcg9#GGGGG",
"GGGGGG7=-o4><,,pqgMCAAAVZZNvbl5#GGGG",
"GGGGG+94rggiyyaifcmAAAAAAZZZZn4+GGGG",
"GGGGG84gMCCcuudcvZZAAAAAAZZBVCr5GGGG",
"GGGG;1:smZAZVscvZBBZAFFAAZZZBNn5#GGG",
"GGG@0<aMAAAZZVZNZBZZZFFAAZZZZZC46GGG",
"GGG@-phmZAZAZAAZZAZAAAAAAZZAZxCl.GGG",
"GGG=kadvZZZFAZZAAZZAAAAAAAZAZZCl.GGG",
"GGG*k:tcVAZAAAZZAZAAFFAZAAAZZVDloGGG",
"GGG*kpdccZAAAZBAZAAFFFAZAAABBZFzOGGG",
"GGG@-,aufcvVZZZZAAAAAAAAAAZBZZDl*GGG",
"GGG78epqjscVZAZZAAAAAAZAAAAZBADk@GGG",
"GGG##=O:hsmZZAAAAAAAAABZAZZZVVn97GGG",
"GGGGG%9>yuMVAAAZZAAZBZZZZZAZVCr5#GGG",
"GGGGG&0XpiMvAZZAAAZZZAAABZAZmne+GGGG",
"GGGGGG=>:tdmABBZZZZZAAAAZAAvbwo#GGGG",
"GGGGGG@k,jbAxVxxNAAVNAAZZZNcgk=GGGGG",
"GGGGGG#->ydmvcscmCVvvCCAZVVcw9%GGGGG",
"GGGGGGG=OqdddfutdfcvmufccCbgw@GGGGGG",
"GGGGGGG%*wiaaaay:tubfhtjggSw3#GGGGGG",
"GGGGGGG#6Oepp>>,:pqwqwee4k96#GGGGGGG",
"GGGGGGGG7@*O1--11>>Ooo*=;@+GGGGGGGGG",
"GGGGGGGGGG#%%%;==*=;%7#GG$&GGGGGGGGG",
"GGGGGGGGGGGGGG$#%7%&&$GGGG2GGGGGGGGG",
"GGGGGGGGGGGGGGGGGGGGGGGGGGGGGGGGGGGG",
"GGGGGGGGGGGGGGGGGGGGGGGGGGGGGGGGGGGG",
"GGGGGGGGGGGGGGGGGGGGGGGGGGGGGGGGGGGG"
};
