/* XPM */
static char *destroy5[] = {
"36 36 64 1",
"  c black",
". c #7e826b",
"X c #9d7a37",
"o c #ab731e",
"O c #a7783a",
"+ c #b6772e",
"@ c #8d7656",
"# c #9b744c",
"$ c #987a59",
"% c #8a7967",
"& c #8d7971",
"* c #977b68",
"= c #a57946",
"- c #a77756",
"; c #b77b46",
": c #a27264",
"> c #d07c0f",
", c #cc7a2b",
"< c #e27c27",
"1 c #927b85",
"2 c #b88414",
"3 c #b58833",
"4 c #b89737",
"5 c #968451",
"6 c #90856f",
"7 c #b0884b",
"8 c #d58815",
"9 c #c8883c",
"0 c #cf922b",
"q c #dfa31f",
"w c #d1af31",
"e c #eb8e12",
"r c #ec902c",
"t c #e8ae0d",
"y c #feb918",
"u c #eeb631",
"i c #f8b928",
"p c #cb9148",
"a c #c4a548",
"s c #d6b04f",
"d c #e69843",
"f c #f0b243",
"g c #ddc139",
"h c #edd109",
"j c #f7c916",
"k c #fad719",
"l c #ead234",
"z c #ffc527",
"x c #fbc439",
"c c #fcd926",
"v c #fdd835",
"b c #fbe71a",
"n c #f8fb1c",
"m c #effc29",
"M c #fee728",
"N c #fde736",
"B c #fefc29",
"V c #fefd36",
"C c #f8d348",
"Z c #eed466",
"A c #ffeb42",
"S c #fffe44",
"D c #fffd51",
"F c None",
"FFFFFFFFFFFFFFFFFFFFFFFFFFFFFFFFFFFF",
"FFFFFFFFFFFFFFFFFFFFFFFFFFFFFFFFFFFF",
"FFFFFFFFFFFFFFFFFFFFFFFFFFFFFFFFFFFF",
"FFFFFFFFFFFFFF*;,>e808+=*FFFFFFFFFFF",
"FFFFFFFFFFFFFF%prreiuff4X@FFFFFFFFFF",
"FFFFFFFFFFFFFF*+rxycccvvg45FFFFFFFFF",
"FFFFFFFFFFFFFF$,ettkhBMVcl45%FFFFFFF",
"FFFFFFFFFFF&6@=8ijhhBBVbBcCa5FFFFFFF",
"FFFFFFFF&*$==;oivVMMBBBbBVAl4$FFFFFF",
"FFFFFFF:-++00>>jMVVBBBBVVBVMw4$%FFFF",
"FFFFF&$;9ruqtizMBVVBBBBBVVBBjw3%FFFF",
"FFFFF*O0iNVVMkMBBVSVVBBBVVBVNvw@FFFF",
"FFFF%#3icBBBBBBBBVVSVBBBVVVVVMw$1FFF",
"FFFF69qcbBBBVVBBBVVSSVVVVVBVBnlX*FFF",
"FFF%-0yBBBVVVVBnBVVSSVVSVBBVBnla-FFF",
"FFF-7uMVBVVVSSVBBVVVBVVVVBnnnnN4=FFF",
"FFF;9xVBmVVVVSVVVVBBBBVVVBBBnBSwOFFF",
"FFFO3uMBBVBBBVVSSVVVVBVVVBBBBMlZXFFF",
"FFF=auNBBBBVVVSDDSSVVVVVVVVVVVDaOFFF",
"FFF$7ujMVBBVVSSSSVSSVVVBBVVVSBNs=FFF",
"FFF%72vNNBBVVSSSVVSSVVVBBVVSVmDa#FFF",
"FFFF$OuDNVVBBVVVVVVVVVVBBBBmVBl7*FFF",
"FFFF%=3NVmBBBVSVVVVVVVVBBBBBBBg5FFFF",
"FFFF&#4NBmmnBVSVBVVVVVBBBBBBBv0@FFFF",
"FFFFF*7lBnBnBVVVVVVVVBBBBBBBSCo*FFFF",
"FFFFFF50vkBBBBBBBMMVVBBVVBbNiw7&FFFF",
"FFFFFF*pqzcBBBBBBBBBVBBVVBkvu7@FFFFF",
"FFFFFF%;0etjkjjMkBnVBVBBVbci0$FFFFFF",
"FFFFFF%#7ufizyyzykkBMjkNAAC07%FFFFFF",
"FFFFFFF&$7preeeieyyyzixxws7$%FFFFFFF",
"FFFFFFFFF$=9dr<re8>er,03X=@FFFFFFFFF",
"FFFFFFFFFF6@5#-;99937#$556FFFFFFFFFF",
"FFFFFFFFFFF.66%$=;O=$&&FFFFFFFFFFFFF",
"FFFFFFFFFFFFFFFFFFFFFFFFFFFFFFFFFFFF",
"FFFFFFFFFFFFFFFFFFFFFFFFFFFFFFFFFFFF",
"FFFFFFFFFFFFFFFFFFFFFFFFFFFFFFFFFFFF"
};
