/* XPM */
static char *destroy7[] = {
"36 36 65 1",
"  c black",
". c #7b8167",
"X c #8a7e3c",
"o c #ba6f15",
"O c #b37631",
"+ c #937a4c",
"@ c #987a57",
"# c #8a7a67",
"$ c #8f7a75",
"% c #967a68",
"& c #b0784c",
"* c #a67855",
"= c #a27868",
"- c #d4760a",
"; c #c97a35",
": c #d37929",
"> c #e57608",
", c #e17e23",
"< c #c47b44",
"1 c #8a7a85",
"2 c #9f803f",
"3 c #af8930",
"4 c #948153",
"5 c #918268",
"6 c #b3884c",
"7 c #ab8161",
"8 c #da890a",
"9 c #d48931",
"0 c #dfa51f",
"q c #d9ad36",
"w c #ef8c0b",
"e c #ee9715",
"r c #f89718",
"t c #ed8f2d",
"y c #f79726",
"u c #eba614",
"i c #fba617",
"p c #f4b20a",
"a c #fbb919",
"s c #ffa925",
"d c #f4ae32",
"f c #ffba28",
"g c #c58b49",
"h c #d0b24a",
"j c #ec9747",
"k c #f2b446",
"l c #dbc400",
"z c #fac716",
"x c #f3d10b",
"c c #fbd817",
"v c #ffc827",
"b c #f7c433",
"n c #fed727",
"m c #fdd837",
"M c #f5ec0c",
"N c #fce719",
"B c #fef81a",
"V c #ffe628",
"C c #fee536",
"Z c #fffa27",
"A c #fff833",
"S c #dbc653",
"D c #f8d144",
"F c #ffeb45",
"G c None",
"GGGGGGGGGGGGGGGGGGGGGGGGGGGGGGGGGGGG",
"GGGGGGGGGGGGGGGGGGGGGGGGGGGGGGGGGGGG",
"GGGGGGGGGGGGGGGGGGGGGGGGGGGGGGGGGGGG",
"GGGGGGGGGGGGGG$*O:t-8oO+5GGGGGGGGGGG",
"GGGGGGGGGGGGG1$56;dyddkg++#GGGGGGGGG",
"GGGGGGGGGGGGGGGG@;dfmvmmq6+#GGGGGGGG",
"GGGGGGGGGGGGGGGG%O9azxxVCDg4#GGGGGGG",
"GGGGGGGGGGGGGGGG$*OuzNBcnCDh6#GGGGGG",
"GGGGGGGG$$G#####%*O0cBBNNACdq+GGGGGG",
"GGGGGGG%%%%@*****&O0mABZZZczd6@GGGGG",
"GGGGGG#*&&&6g<;Og;9qFAZBBBNNnq25GGGG",
"GGGGG%*<:j:99,,t-e0uFAZBBZZZVb34GGGG",
"GGGGG*O9kfwsdw>wwaznAABBZBZZZCqXGGGG",
"GGGG$&:wunFfweszzxNZZZZZZAABNcD65GGG",
"GGG$@;dwpnziwefzNBBZZZZANZZAVVF2@GGG",
"GGG@69wwpzaiw-ezxBZZZBZZZZZAcCmh4GGG",
"GGG&gtsfaCvs-wranZMZZlMMBZZZcVmh+GGG",
"GGG&<tesfvmi8-wsuVZxMZZZBZZBBNmSXGGG",
"GGG*&9-r8ueie-ewinZZBNZBBMBMBZFh2GGG",
"GGG@*&:8swiiw-eripcZBBMBBxAMBZCh4GGG",
"GGG#%*Otrwwwvubv8pVNBBBMBZAZZcm6+GGG",
"GGGGG=&;twwapnnnVVAZZZBBBBZZxad6@GGG",
"GGGGG$*<:,>vzAANVNlAVNBBMNNczb34#GGG",
"GGGGGG%g;t8ncNcCFzxcAZBMZZVcaq&#GGGG",
"GGGGGG5*O:ypzVvu8aavzxZZZNcp8O@GGGGG",
"GGGGGG.@Ooyimf8tww>w8pnAZczuyg7$GGGG",
"GGGGGGG5&;yrwet::>yy-eannznfq6#GGGGG",
"GGGGGGG@&9-swy:;;tkt--88uvDq65GGGGGG",
"GGGGGGG%*g:yw9O&&99;;9;99dkg@GGGGGGG",
"GGGGGGGG%&<j;6@%%*&**7***665#GGGGGGG",
"GGGGGGGG$%*6&%GGG%%%%#GG#%5GGGGGGGGG",
"GGGGGGGGGG#5#GGGGGGGGGGGGGGGGGGGGGGG",
"GGGGGGGGGGGGGGGGGGGGGGGGGGGGGGGGGGGG",
"GGGGGGGGGGGGGGGGGGGGGGGGGGGGGGGGGGGG",
"GGGGGGGGGGGGGGGGGGGGGGGGGGGGGGGGGGGG",
"GGGGGGGGGGGGGGGGGGGGGGGGGGGGGGGGGGGG"
};
