/* XPM */
static char * green_jump5_xpm[] = {
"54 54 446 2",
"  	c None",
". 	c #AFC5AF",
"+ 	c #96C297",
"@ 	c #83BF84",
"# 	c #75BD75",
"$ 	c #6ABC6A",
"% 	c #63BB63",
"& 	c #5EBA5E",
"* 	c #60BA60",
"= 	c #66BA66",
"- 	c #70BA70",
"; 	c #7DBB7E",
"> 	c #90BE90",
", 	c #ABC1AB",
"' 	c #8AC08B",
") 	c #6CBE6C",
"! 	c #64BE64",
"~ 	c #66BE66",
"{ 	c #65BD65",
"] 	c #62BC62",
"^ 	c #5FBB5F",
"/ 	c #5EBA60",
"( 	c #5AB85A",
"_ 	c #58B658",
": 	c #60B660",
"< 	c #80B881",
"[ 	c #A9BFA9",
"} 	c #A8C4AA",
"| 	c #7EBE7C",
"1 	c #67BF67",
"2 	c #68C068",
"3 	c #6BC16B",
"4 	c #6AC26A",
"5 	c #6BC16D",
"6 	c #63BD65",
"7 	c #61BB61",
"8 	c #5DB95D",
"9 	c #5BB75B",
"0 	c #57B557",
"a 	c #53B353",
"b 	c #6DB36D",
"c 	c #9DB99D",
"d 	c #B9C5B9",
"e 	c #83BF83",
"f 	c #6DC16D",
"g 	c #6FC36F",
"h 	c #71C571",
"i 	c #70C470",
"j 	c #6EC26E",
"k 	c #65BF67",
"l 	c #61BD61",
"m 	c #5FBB61",
"n 	c #5CB85C",
"o 	c #4FB14F",
"p 	c #70B070",
"q 	c #ADB9AD",
"r 	c #9EC29E",
"s 	c #68BE68",
"t 	c #73C773",
"u 	c #76C676",
"v 	c #75C775",
"w 	c #76C876",
"x 	c #6BC36B",
"y 	c #63BD63",
"z 	c #54B454",
"A 	c #4FAD4F",
"B 	c #8AAF89",
"C 	c #8CC08C",
"D 	c #77C977",
"E 	c #78CA78",
"F 	c #7BCB7C",
"G 	c #7CCC7C",
"H 	c #7BCD7D",
"I 	c #7CCA7C",
"J 	c #4BAD4B",
"K 	c #74AA74",
"L 	c #B7B7B7",
"M 	c #6AC06A",
"N 	c #7FCD7F",
"O 	c #81CF83",
"P 	c #81CF81",
"Q 	c #83CF83",
"R 	c #83CF81",
"S 	c #80CE80",
"T 	c #6BC36D",
"U 	c #5BB95B",
"V 	c #56B656",
"W 	c #51B351",
"X 	c #4DAF4D",
"Y 	c #4AAC4A",
"Z 	c #67A769",
"` 	c #B2B2B2",
" .	c #82BE82",
"..	c #75C776",
"+.	c #83D183",
"@.	c #87D187",
"#.	c #87D387",
"$.	c #89D389",
"%.	c #7DCD7D",
"&.	c #4CAC4C",
"*.	c #47A947",
"=.	c #66A468",
"-.	c #AEAEAE",
";.	c #8BBF8B",
">.	c #79C977",
",.	c #7FCF7F",
"'.	c #84D084",
").	c #8AD48A",
"!.	c #8BD58B",
"~.	c #8CD68C",
"{.	c #8ED68E",
"].	c #8DD78D",
"^.	c #8DD58B",
"/.	c #4EB04E",
"(.	c #44A844",
"_.	c #6BA16D",
":.	c #9CC19B",
"<.	c #75C575",
"[.	c #89D387",
"}.	c #8CD68E",
"|.	c #92D890",
"1.	c #93D993",
"2.	c #94DA94",
"3.	c #90D890",
"4.	c #8FD78F",
"5.	c #85D185",
"6.	c #72C672",
"7.	c #55B555",
"8.	c #51B14F",
"9.	c #4DAD4D",
"0.	c #47AB47",
"a.	c #42A642",
"b.	c #799B79",
"c.	c #B8C4B8",
"d.	c #61B961",
"e.	c #69BF69",
"f.	c #7BCB7B",
"g.	c #97DB97",
"h.	c #99DD9B",
"i.	c #9ADE9A",
"j.	c #99DD99",
"k.	c #96DC96",
"l.	c #82CE80",
"m.	c #78C876",
"n.	c #6FC16D",
"o.	c #5CBA5C",
"p.	c #48AA48",
"q.	c #43A743",
"r.	c #40A440",
"s.	c #8C978B",
"t.	c #7DBD7D",
"u.	c #95DB95",
"v.	c #9BDF9B",
"w.	c #9EE0A0",
"x.	c #9FE1A1",
"y.	c #A1E1A1",
"z.	c #A2E0A0",
"A.	c #9EE09E",
"B.	c #92D892",
"C.	c #83D185",
"D.	c #7ACA7A",
"E.	c #6DC56D",
"F.	c #45A945",
"G.	c #3FA53F",
"H.	c #5B995B",
"I.	c #9A9A9A",
"J.	c #A6C2A6",
"K.	c #A0E2A2",
"L.	c #A3E3A3",
"M.	c #A6E4A6",
"N.	c #A5E5A5",
"O.	c #A3E1A1",
"P.	c #83CF84",
"Q.	c #50B250",
"R.	c #46AA46",
"S.	c #41A541",
"T.	c #3BA33B",
"U.	c #768E76",
"V.	c #A4A4A4",
"W.	c #74BA74",
"X.	c #69C169",
"Y.	c #6CC46C",
"Z.	c #80CC80",
"`.	c #8AD48C",
" +	c #9FDF9D",
".+	c #A2E2A2",
"++	c #A7E5A7",
"@+	c #ABE6AA",
"#+	c #ABE7AB",
"$+	c #AAE6AA",
"%+	c #A9E7A9",
"&+	c #A1E3A3",
"*+	c #9DDF9D",
"=+	c #8BD389",
"-+	c #52B252",
";+	c #4EAE4E",
">+	c #539753",
",+	c #8F8F8F",
"'+	c #B1B1B1",
")+	c #ADC3AB",
"!+	c #5AB65A",
"~+	c #7BCA7A",
"{+	c #9CDE9C",
"]+	c #ACEAAC",
"^+	c #AFEBAF",
"/+	c #B2EBAF",
"(+	c #ADE9AD",
"_+	c #91D991",
":+	c #87D185",
"<+	c #59B759",
"[+	c #49AB49",
"}+	c #3DA53D",
"|+	c #379F37",
"1+	c #748674",
"2+	c #9E9E9E",
"3+	c #83BB83",
"4+	c #6AC26C",
"5+	c #B0ECB0",
"6+	c #B4EEB5",
"7+	c #B7EFB7",
"8+	c #B4EEB4",
"9+	c #B1EDB1",
"0+	c #98DC98",
"a+	c #92DA94",
"b+	c #55B355",
"c+	c #43A943",
"d+	c #37A137",
"e+	c #5B8F5B",
"f+	c #8C8C8C",
"g+	c #B0B0B0",
"h+	c #9FE19F",
"i+	c #B9F1B9",
"j+	c #BCF2BC",
"k+	c #BAF1B9",
"l+	c #B5EFB5",
"m+	c #3EA43E",
"n+	c #3D9B3D",
"o+	c #7C7C7C",
"p+	c #A1A1A1",
"q+	c #ACC1AB",
"r+	c #ABE9AD",
"s+	c #B5EFB6",
"t+	c #BDF3BE",
"u+	c #C2F6C2",
"v+	c #84CE84",
"w+	c #38A238",
"x+	c #339D33",
"y+	c #6D7F6D",
"z+	c #939393",
"A+	c #B5B5B5",
"B+	c #8EBC8E",
"C+	c #9ADE9C",
"D+	c #9BDD99",
"E+	c #618561",
"F+	c #858585",
"G+	c #ACACAC",
"H+	c #78B878",
"I+	c #9ADC98",
"J+	c #B2ECB2",
"K+	c #B3EFB3",
"L+	c #B3ECB0",
"M+	c #A9E7AA",
"N+	c #A4E4A4",
"O+	c #97DD97",
"P+	c #92DA92",
"Q+	c #4DB14D",
"R+	c #3DA33D",
"S+	c #38A038",
"T+	c #528E53",
"U+	c #7B7B7B",
"V+	c #A2A2A2",
"W+	c #65B565",
"X+	c #99DB97",
"Y+	c #A0E2A0",
"Z+	c #A2E2A4",
"`+	c #329C32",
" @	c #439343",
".@	c #747474",
"+@	c #979797",
"@@	c #B9B9B9",
"#@	c #59B157",
"$@	c #ACE7AB",
"%@	c #6AC06C",
"&@	c #42A842",
"*@	c #309C30",
"=@	c #369636",
"-@	c #707070",
";@	c #B4B4B4",
">@	c #50AE4E",
",@	c #8AD68A",
"'@	c #96DA96",
")@	c #40A640",
"!@	c #369E36",
"~@	c #2D992D",
"{@	c #6C6C6C",
"]@	c #898989",
"^@	c #50B04E",
"/@	c #91D993",
"(@	c #7ACA7B",
"_@	c #39A139",
":@	c #339F33",
"<@	c #2F9B2F",
"[@	c #2A982A",
"}@	c #696969",
"|@	c #848484",
"1@	c #4EAC4E",
"2@	c #64BC64",
"3@	c #72C674",
"4@	c #84D286",
"5@	c #2D9B2D",
"6@	c #686868",
"7@	c #818181",
"8@	c #52AE52",
"9@	c #56B456",
"0@	c #35A135",
"a@	c #2B9B2B",
"b@	c #339533",
"c@	c #676767",
"d@	c #808080",
"e@	c #5DAF5D",
"f@	c #72C872",
"g@	c #57B757",
"h@	c #39A339",
"i@	c #34A034",
"j@	c #2A9A2A",
"k@	c #3D8F3D",
"l@	c #6FB36F",
"m@	c #3CA43C",
"n@	c #289828",
"o@	c #4C884C",
"p@	c #85B785",
"q@	c #62BA60",
"r@	c #3AA23A",
"s@	c #309A30",
"t@	c #259725",
"u@	c #597F59",
"v@	c #888888",
"w@	c #A7BDA7",
"x@	c #60BC60",
"y@	c #69BF67",
"z@	c #60BC62",
"A@	c #52B452",
"B@	c #4BAB4B",
"C@	c #48A846",
"D@	c #239523",
"E@	c #637363",
"F@	c #4BA74B",
"G@	c #76C878",
"H@	c #5DB95F",
"I@	c #349E34",
"J@	c #2E9230",
"K@	c #656565",
"L@	c #72B072",
"M@	c #42A53F",
"N@	c #279927",
"O@	c #229622",
"P@	c #4E844E",
"Q@	c #A2BCA2",
"R@	c #299929",
"S@	c #249624",
"T@	c #1F931F",
"U@	c #627462",
"V@	c #6B6B6B",
"W@	c #5BA95D",
"X@	c #219521",
"Y@	c #3F893F",
"Z@	c #646464",
"`@	c #717171",
" #	c #96B595",
".#	c #49A947",
"+#	c #2C9A2C",
"@#	c #269826",
"##	c #1D931D",
"$#	c #5F755F",
"%#	c #61A660",
"&#	c #3DA13D",
"*#	c #46A846",
"=#	c #51B151",
"-#	c #1E921E",
";#	c #448644",
">#	c #6F6F6F",
",#	c #A9B7A9",
"'#	c #50B050",
")#	c #1F911F",
"!#	c #656E64",
"~#	c #81AB82",
"{#	c #1B911B",
"]#	c #5B7B5B",
"^#	c #67A367",
"/#	c #3EA63E",
"(#	c #279727",
"_#	c #4E814D",
":#	c #828282",
"<#	c #B6B6B6",
"[#	c #5A9C5A",
"}#	c #1A901A",
"|#	c #458545",
"1#	c #999999",
"2#	c #589A58",
"3#	c #219321",
"4#	c #787878",
"5#	c #949494",
"6#	c #609861",
"7#	c #309E30",
"8#	c #1C921C",
"9#	c #198F19",
"0#	c #4D814D",
"a#	c #777777",
"b#	c #919191",
"c#	c #719771",
"d#	c #2B972B",
"e#	c #2F992F",
"f#	c #209420",
"g#	c #1C8E1C",
"h#	c #597B59",
"i#	c #ADADAD",
"j#	c #8A968A",
"k#	c #4E904E",
"l#	c #2C9C2C",
"m#	c #189018",
"n#	c #428642",
"o#	c #636D63",
"p#	c #738B73",
"q#	c #458F45",
"r#	c #269626",
"s#	c #229422",
"t#	c #188E18",
"u#	c #3C883C",
"v#	c #5E765E",
"w#	c #728472",
"x#	c #528852",
"y#	c #2E922E",
"z#	c #209220",
"A#	c #268C26",
"B#	c #4B834B",
"C#	c #617361",
"D#	c #6B7C6A",
"E#	c #5B815B",
"F#	c #488848",
"G#	c #388C38",
"H#	c #298F29",
"I#	c #1F8F1F",
"J#	c #268E26",
"K#	c #358B35",
"L#	c #567E57",
"M#	c #727272",
"                                                                                                            ",
"                                                                                                            ",
"                                                                                                            ",
"                                                                                                            ",
"                                          . + @ # $ % & * = - ; > ,                                         ",
"                                    . ' ) ! ~ ~ ~ ~ ~ { ] ] ^ / ( _ : < [                                   ",
"                                } | ~ 1 2 3 4 4 4 4 3 5 2 1 ~ 6 7 8 9 0 a b c                               ",
"                            d e ~ 2 3 f g g g h h h i g j f 3 2 k l m n _ a o p q                           ",
"                          r s 1 3 f g h t u v w w w w v t h g x 3 1 y 7 n _ z o A B                         ",
"                        C ! 2 4 g h v D E F G G G H I I E D t h g 4 2 ! 7 n _ a o J K L                     ",
"                      e { M 4 g t w E G N O P P Q P R S N G E D t i T 2 { 7 U V W X Y Z `                   ",
"                     .{ 2 4 i ..D G N P +.@.#.$.$.#.#.@.+.P %.G E t i 4 2 { & ( z o &.*.=.-.                ",
"                  ;.] 1 4 i t >.G ,.'.@.).!.~.{.].{.~.^.$.#.'.S G E t i 4 1 ] 8 _ a /.Y (._.-.              ",
"                :.7 ~ 3 g <.E G P +.[.}.].|.1.2.2.2.1.3.4.!.$.5.P H E 6.g 3 ~ ^ ( 7.8.9.0.a.b.-.            ",
"              c.d.y e.j h D f.,.5.$.~.3.2.g.h.i.i.i.j.k.2.3.~.$.5.l.G m.h n.e.] o._ a /.p.q.r.s.`           ",
"              t.^ ! 3 g t E N '.$.~.|.u.j.v.w.x.y.z.A.v.j.u.B.{.$.C.N D.t E.3 ~ ^ 9 7.o J F.G.H.I.L         ",
"            J.8 ] 1 x h D G Q #.!.3.u.i.A.K.L.M.M.N.L.O.A.i.u.3.!.@.P.G w h x 1 ] U 0 Q.&.R.S.T.U.V.        ",
"            W./ 6 X.Y.6.E Z.'.`.].2.j. +.+++@+#+#+$+%+++&+*+h.2.4.=++.N E t g M y & _ -+;+p.a.T.>+,+'+      ",
"          )+!+& { X.g v ~+S @.!.B.k.{+.+N.$+]+^+/+^+(+@+M..+v.k._+!.:+S D.v g 3 { * <+a X [+q.}+|+1+2+      ",
"          3+<+^ ~ 4+i v f.P #.~.1.j.A.L.%+(+5+6+7+8+9+(+%+L.A.0+a+~.#.P G w i 3 ~ ^ ( b+/.[+c+}+d+e+f+g+    ",
"          : 9 7 1 4 i D G Q $.4.2.i.h+M.%+^+8+i+j+k+l+^+%+M.h+i.2.].$.P.G w h 4 ~ ^ 9 z o Y q.m+d+n+o+p+    ",
"        q+z <+^ 1 4 i D %.Q $.].2.i.y.N.r+5+s+t+u+j+7+5+#+N.K.i.2.4.#.v+%.w h 4 ~ ^ ( z /.Y (.m+w+x+y+z+A+  ",
"        B+z <+7 ~ 4 h D G P #.].2.C+x.M.#+^+8+i+t+i+l+^+%+M.x.D+2.4.#.v+G D h 4 ~ * ( z /.Y (.}+w+x+E+F+G+  ",
"        H+z <+^ ~ 4 i w G P #.~.1.I+A.L.$+]+J+8+s+K+L+(+M+N+A.O+P+~.#.P I w i 4 ~ ^ <+z Q+[+q.R+S+x+T+U+V+  ",
"        W+a <+& { 3 g v F ,.@.!.3.X+{+Y+M.M+]+^+5+^+]+@+N.Z+{+k._+^.@.l.I t g 3 ! & _ z X [+q.}+|+`+ @.@+@@@",
"        #@W _ & ] M j t E %.'.=+4.2.j.A..+N.%+#+$@%+@+M..+A.j.2.4.).'.N E t j %@y 8 _ -+;+p.&@T.|+*@=@-@,+;@",
"        >@Q.0 n ] 1 x h D G P @.,@|.'@i.A.y.L.M.M.M.N+Y+A.i.u.3.!.@.P G D h 4 1 ] n 0 Q.9.R.)@T.!@*@~@{@]@'+",
"        J ^@z ( ^ ~ 3 g v D.%.Q $.{./@'@j.*+A.x.h+h+A.v.j.u._+~.$.Q N (@..i 3 ~ 7 ( z o Y F.G._@:@<@[@}@|@-.",
"        1@X a _ 8 2@2 x 3@m.I ,.5.$.~.3.2.g.j.D+i.j.O+X+2.3.~.$.4@S G w 6.x 2 2@& _ a X [+q.m+w+x+5@[@6@7@G+",
"        8@&.Q.7.( 7 ~ 3 g t >.G O 5.#.~.4._+1.2.2.2.1.|.4.!.[.5.,.G D t g 3 ~ 7 ( 9@Q.9.*.a.T.0@*@a@b@c@d@G+",
"        e@Y Q+a _ 8 ] 1 4 i ..E G O '.@.`.!.~.{.4.].~.!.`.@.+.,.G >.f@i 4 1 y 8 g@a /.Y (.G.h@i@<@j@k@6@7@G+",
"        l@0.&.o 9@( & y 2 4 i v D f.%.P '.:+#.#.#.#.#.@.'.P %.G >...i T 2 ! ^ <+7.Q.&.0.a.m@|+x+5@n@o@}@|@-.",
"        p@(.[+/.a 0 U q@{ 2 f i t w D.G %.S P Q Q P P ,.%.G (@D t g f 2 ! 7 n V a ;+Y (.G.r@!@s@a@t@u@{@v@'+",
"        w@a.R.J o a _ n x@! y@4 g h v D E D.G G %.G G I E w v h g 4 e.{ z@n _ A@o B@C@)@m@d+`+5@n@D@E@-@,+;@",
"          F@&@p.9.Q.a _ n ^ y 1 3 j g h 6.v G@D D w w v t h g x 3 1 { ^ H@<+a o &.0.q.m+w+I@s@j@t@J@K@.@+@@@",
"          L@M@c+p.9.o z _ n * ] ~ y@3 f j g i i h i i g Y.f 3 2 ~ y & n _ a o 9.p.q.M@r@|+`+5@N@O@P@c@U+V+  ",
"          Q@T.)@(.[+9.o a V ( 8 7 ] ~ 1 M 3 3 4 4 4 3 M 2 1 ~ 2@^ 8 9 0 a o 9.[+F.)@T.d+x+5@R@S@T@U@V@F+G+  ",
"            W@T.)@F.p.&.o W 7.<+n 8 7 7 y { ~ ~ ~ k ~ ! ] ] ^ & ( _ 7.-+/.&.[+F.)@m@S+:@<@j@t@X@Y@Z@`@z+A+  ",
"             #d+m@)@(.0.B@X Q.a 7._ <+U & m ^ 7 7 7 ^ & 8 n ( _ 7.a Q.X J .#(.)@m@S+:@s@+#@#O@##$#6@o+p+    ",
"              %#d+&#G.&@*#[+&./.Q.a z 0 _ !+( <+<+9 <+<+_ 0 z a =#/.&.[+R.q.G.T.d+:@s@+#N@D@-#;#Z@>#f+g+    ",
"              ,#|+d+r@m+a.(.*.Y &.X o =#a a z z z z a a -+Q.'#X &.[+0.F.a.m+r@d+:@*@+#N@D@T@)#!#6@o+2+      ",
"                ~#`+|+w+m@G.&@F.R.[+B@9.9.X Q+o ^@Q+Q+X X 9.J [+R.(.a.G.m@w+|+x+<@+#N@D@T@{#]#K@`@,+g+      ",
"                  ^#*@i@d+r@m@G.a.q.F.R.p.[+[+Y [+Y [+[+p.*.F.q.a./#R+r@|+I@*@5@a@(#D@T@{#_#Z@{@:#V.        ",
"                  <#[#s@x+!@d+h@m@}+G.)@a.q.c+(.(.(.q.q.a.a.G.}+m@_@d+I@x+s@+#R@@#O@-#}#|#Z@}@U+1#<#        ",
"                    ` 2#5@*@x+I@|+S+h@T.T.}+}+m+m+m+R+R+m@T._@d+!@i@`+*@5@j@n@S@3#-#}#|#Z@6@4#5#`           ",
"                      -.6#j@5@<@7#x+i@!@|+d+w+S+d+w+w+d+|+!@:@x+7#<@5@a@n@t@O@T@8#9#0#Z@6@a#b#-.            ",
"                        -.c#d#[@a@5@5@*@7#*@`+x+x+x+`+`+*@*@e#5@+#j@N@t@D@f###}#g#h#Z@}@4#b#i#              ",
"                          -.j#k#@#n@R@j@a@+#l#5@5@5@+#+#a@j@R@N@@#S@X@f###}#m#n#o#K@{@U+5#-.                ",
"                            ` I.p#q#D@S@t@r#(#@#(#N@@#@#r#S@D@s#f#-#8#}#t#u#v#Z@6@`@:#1#`                   ",
"                              L V.,+w#x#y#f#f#3#3#3#X@f#z#-###8#}#m#A#B#C#Z@6@>#o+,+V.<#                    ",
"                                  '+2+f+o+D#E#F#G#H#)#{#I#J#K#|#L#C#K@c@V@M#o+f+2+'+                        ",
"                                      g+V+z+F+o+.@-@{@}@6@6@6@}@{@-@.@U+F+z+p+g+                            ",
"                                          A+G+V++@,+]@|@7@d@7@|@]@,++@V+G+A+                                ",
"                                                @@;@'+-.i#G+i#-.'+;@@@                                      "};
