/* XPM */
static char * green_jump7_xpm[] = {
"54 54 445 2",
"  	c None",
". 	c #A6BEA6",
"+ 	c #8DBD8E",
"@ 	c #7BBB7C",
"# 	c #6CBA6C",
"$ 	c #62B862",
"% 	c #5BB75B",
"& 	c #56B656",
"* 	c #57B757",
"= 	c #5EB65E",
"- 	c #68B668",
"; 	c #75B777",
"> 	c #87B987",
", 	c #A3BBA3",
"' 	c #82BC83",
") 	c #64BA64",
"! 	c #5CBA5C",
"~ 	c #5EBA5E",
"{ 	c #5DB95D",
"] 	c #5AB85A",
"^ 	c #56B658",
"/ 	c #51B551",
"( 	c #50B250",
"_ 	c #58B258",
": 	c #78B47A",
"< 	c #A0BAA0",
"[ 	c #A0BEA1",
"} 	c #76BA74",
"| 	c #5FBB5F",
"1 	c #5FBD5F",
"2 	c #63BD63",
"3 	c #62BE62",
"4 	c #63BD65",
"5 	c #5BB95D",
"6 	c #58B858",
"7 	c #55B555",
"8 	c #53B353",
"9 	c #4FB14F",
"0 	c #4DAF4D",
"a 	c #65AF65",
"b 	c #95B395",
"c 	c #B0BEB0",
"d 	c #7BBB7B",
"e 	c #64BE64",
"f 	c #66C066",
"g 	c #69C169",
"h 	c #68C268",
"i 	c #67C167",
"j 	c #65BF65",
"k 	c #5DBB5F",
"l 	c #58BA58",
"m 	c #57B759",
"n 	c #54B454",
"o 	c #4CAA4C",
"p 	c #69AB69",
"q 	c #A5B3A5",
"r 	c #96BC96",
"s 	c #6BC36B",
"t 	c #6DC36D",
"u 	c #6CC46C",
"v 	c #6EC46E",
"w 	c #6DC56D",
"x 	c #63BF63",
"y 	c #5BB95B",
"z 	c #4EB04E",
"A 	c #4CA64C",
"B 	c #83AA82",
"C 	c #84BC84",
"D 	c #6FC56F",
"E 	c #70C670",
"F 	c #72C874",
"G 	c #74C874",
"H 	c #73C975",
"I 	c #73C773",
"J 	c #48A648",
"K 	c #6DA56D",
"L 	c #B0B0B0",
"M 	c #62BC62",
"N 	c #76CA76",
"O 	c #77CB79",
"P 	c #77CB77",
"Q 	c #78CC78",
"R 	c #79CB77",
"S 	c #63BF65",
"T 	c #53B553",
"U 	c #4EB24E",
"V 	c #4CAE4C",
"W 	c #4AA84A",
"X 	c #47A547",
"Y 	c #60A261",
"Z 	c #ABABAB",
"` 	c #7ABA7A",
" .	c #6CC46E",
"..	c #79CD79",
"+.	c #7CCE7C",
"@.	c #7DCF7D",
"#.	c #7ED07E",
"$.	c #75C975",
"%.	c #49A549",
"&.	c #44A244",
"*.	c #60A062",
"=.	c #A7A7A7",
"-.	c #83BB83",
";.	c #71C56F",
">.	c #75CB75",
",.	c #7ACC7A",
"'.	c #80D080",
").	c #81D181",
"!.	c #82D282",
"~.	c #84D284",
"{.	c #83D383",
"].	c #83D181",
"^.	c #7FCF7F",
"/.	c #4BA94B",
"(.	c #42A042",
"_.	c #649C65",
":.	c #94BB93",
"<.	c #6CC26C",
"[.	c #7FCF7D",
"}.	c #82D284",
"|.	c #88D486",
"1.	c #89D589",
"2.	c #8AD68A",
"3.	c #86D486",
"4.	c #85D385",
"5.	c #7BCD7B",
"6.	c #6AC26A",
"7.	c #4EAA4C",
"8.	c #4AA64A",
"9.	c #44A444",
"0.	c #3FA13F",
"a.	c #729672",
"b.	c #AFBDAF",
"c.	c #59B559",
"d.	c #61BB61",
"e.	c #72C872",
"f.	c #8BD78B",
"g.	c #8DD98F",
"h.	c #8EDA8E",
"i.	c #8DD98D",
"j.	c #8AD88A",
"k.	c #78CA76",
"l.	c #70C46E",
"m.	c #66BE64",
"n.	c #54B654",
"o.	c #45A345",
"p.	c #419F41",
"q.	c #3E9E3E",
"r.	c #869185",
"s.	c #75B975",
"t.	c #89D789",
"u.	c #8FDB8F",
"v.	c #92DC94",
"w.	c #93DD95",
"x.	c #95DD95",
"y.	c #96DC94",
"z.	c #92DC92",
"A.	c #88D488",
"B.	c #79CD7B",
"C.	c #71C771",
"D.	c #65C165",
"E.	c #42A242",
"F.	c #3D9F3D",
"G.	c #579357",
"H.	c #949494",
"I.	c #9EBC9E",
"J.	c #94DE96",
"K.	c #97DF97",
"L.	c #9AE09A",
"M.	c #99E199",
"N.	c #97DD95",
"O.	c #78CC7A",
"P.	c #4CAC4C",
"Q.	c #43A343",
"R.	c #3F9F3F",
"S.	c #399D39",
"T.	c #718971",
"U.	c #9E9E9E",
"V.	c #6CB66C",
"W.	c #60BE60",
"X.	c #64C064",
"Y.	c #77C977",
"Z.	c #80D082",
"`.	c #93DB91",
" +	c #96DE96",
".+	c #9BE19B",
"++	c #9FE29E",
"@+	c #9EE49E",
"#+	c #9DE39D",
"$+	c #9CE49C",
"%+	c #95DF97",
"&+	c #91DB91",
"*+	c #81CF7F",
"=+	c #4DAD4D",
"-+	c #4BA74B",
";+	c #40A040",
">+	c #4F914F",
",+	c #898989",
"'+	c #AAAAAA",
")+	c #A4BDA3",
"!+	c #52B252",
"~+	c #73C771",
"{+	c #90DA90",
"]+	c #A0E6A0",
"^+	c #A3E7A3",
"/+	c #A6E7A3",
"(+	c #A1E5A1",
"_+	c #9FE39D",
":+	c #87D587",
"<+	c #7DCD7B",
"[+	c #50B450",
"}+	c #46A446",
"|+	c #3B9F3B",
"1+	c #359935",
"2+	c #708070",
"3+	c #989898",
"4+	c #7BB77B",
"5+	c #62BE64",
"6+	c #A3E9A3",
"7+	c #A7EBA9",
"8+	c #AAECAA",
"9+	c #A7EBA7",
"0+	c #A4EAA4",
"a+	c #8CD88C",
"b+	c #88D68A",
"c+	c #4FAF4F",
"d+	c #40A240",
"e+	c #359B35",
"f+	c #578957",
"g+	c #868686",
"h+	c #A9A9A9",
"i+	c #93DD93",
"j+	c #ACEEAC",
"k+	c #AFEFAF",
"l+	c #ADEEAC",
"m+	c #A8ECA8",
"n+	c #3C9E3C",
"o+	c #3B953B",
"p+	c #777777",
"q+	c #9B9B9B",
"r+	c #A4BCA2",
"s+	c #9FE5A0",
"t+	c #A8ECAA",
"u+	c #AFF1B1",
"v+	c #B2F4B2",
"w+	c #7ACA7A",
"x+	c #369C36",
"y+	c #319731",
"z+	c #697969",
"A+	c #8D8D8D",
"B+	c #AEAEAE",
"C+	c #87B787",
"D+	c #8EDA90",
"E+	c #8FD98D",
"F+	c #5D815D",
"G+	c #808080",
"H+	c #A5A5A5",
"I+	c #70B470",
"J+	c #8ED88C",
"K+	c #9EE29E",
"L+	c #A6E8A6",
"M+	c #A6ECA6",
"N+	c #A7E9A3",
"O+	c #9CE49E",
"P+	c #98E098",
"Q+	c #8BD98B",
"R+	c #88D688",
"S+	c #4AAA4A",
"T+	c #3B9D3B",
"U+	c #369A36",
"V+	c #4F8950",
"W+	c #767676",
"X+	c #9C9C9C",
"Y+	c #5DB15D",
"Z+	c #8DD78B",
"`+	c #94DE94",
" @	c #96DE98",
".@	c #309630",
"+@	c #418D41",
"@@	c #707070",
"#@	c #919191",
"$@	c #B1B1B1",
"%@	c #53AD51",
"&@	c #A0E49E",
"*@	c #62BC64",
"=@	c #2F952F",
"-@	c #349034",
";@	c #6C6C6C",
">@	c #ADADAD",
",@	c #4DA74B",
"'@	c #80D280",
")@	c #8BD58B",
"!@	c #3EA03E",
"~@	c #349834",
"{@	c #2E962E",
"]@	c #2B932B",
"^@	c #686868",
"/@	c #838383",
"(@	c #4DA94B",
"_@	c #87D589",
":@	c #71C773",
"<@	c #379B37",
"[@	c #329832",
"}@	c #2D952D",
"|@	c #289228",
"1@	c #656565",
"2@	c #7F7F7F",
"3@	c #4BA54B",
"4@	c #5CB85C",
"5@	c #6AC26C",
"6@	c #7ACE7C",
"7@	c #2B952B",
"8@	c #646464",
"9@	c #7C7C7C",
"0@	c #4FA74F",
"a@	c #339B33",
"b@	c #299529",
"c@	c #318F31",
"d@	c #636363",
"e@	c #7B7B7B",
"f@	c #55AB55",
"g@	c #68C068",
"h@	c #6AC46A",
"i@	c #4FB34F",
"j@	c #379D37",
"k@	c #329A32",
"l@	c #299329",
"m@	c #3B893B",
"n@	c #68AE68",
"o@	c #3A9E3A",
"p@	c #279127",
"q@	c #498349",
"r@	c #7EB27E",
"s@	c #5AB757",
"t@	c #389C38",
"u@	c #2E942E",
"v@	c #249024",
"w@	c #557B55",
"x@	c #828282",
"y@	c #9EB89E",
"z@	c #57B957",
"A@	c #61BB5F",
"B@	c #57B95A",
"C@	c #4CB04C",
"D@	c #48A448",
"E@	c #45A143",
"F@	c #228E22",
"G@	c #5F6F5F",
"H@	c #48A048",
"I@	c #6DC56F",
"J@	c #55B557",
"K@	c #2C8C2E",
"L@	c #616161",
"M@	c #6BAB6B",
"N@	c #409F3D",
"O@	c #269226",
"P@	c #218F21",
"Q@	c #4B7F4B",
"R@	c #9AB69A",
"S@	c #2C942C",
"T@	c #279327",
"U@	c #238F23",
"V@	c #1E8C1E",
"W@	c #676767",
"X@	c #56A458",
"Y@	c #208E20",
"Z@	c #3D833D",
"`@	c #606060",
" #	c #6D6D6D",
".#	c #8FB08E",
"+#	c #46A244",
"@#	c #2A942A",
"##	c #259125",
"$#	c #1C8C1C",
"%#	c #5C705C",
"&#	c #5CA25A",
"*#	c #3A9C3A",
"=#	c #43A143",
"-#	c #4DAB4D",
";#	c #1D8B1D",
">#	c #418141",
",#	c #6B6B6B",
"'#	c #A1B1A1",
")#	c #4DA94D",
"!#	c #1E8A1E",
"~#	c #616A60",
"{#	c #7AA67B",
"]#	c #1A8A1A",
"^#	c #587658",
"/#	c #619F61",
"(#	c #3CA03C",
"_#	c #4B7C4A",
":#	c #7D7D7D",
"<#	c #AFAFAF",
"[#	c #569656",
"}#	c #198919",
"|#	c #428042",
"1#	c #939393",
"2#	c #549454",
"3#	c #208C20",
"4#	c #737373",
"5#	c #8E8E8E",
"6#	c #5C925D",
"7#	c #2F972F",
"8#	c #1B8B1B",
"9#	c #188818",
"0#	c #4A7C4A",
"a#	c #727272",
"b#	c #8B8B8B",
"c#	c #6B936B",
"d#	c #299129",
"e#	c #2D932D",
"f#	c #1F8D1F",
"g#	c #1B871B",
"h#	c #567656",
"i#	c #A6A6A6",
"j#	c #849084",
"k#	c #4B8B4B",
"l#	c #2A962A",
"m#	c #178917",
"n#	c #3F813F",
"o#	c #5F695F",
"p#	c #6F856F",
"q#	c #428A42",
"r#	c #258F25",
"s#	c #218D21",
"t#	c #3A823A",
"u#	c #5B715B",
"v#	c #6E7E6E",
"w#	c #4F834F",
"x#	c #2C8C2C",
"y#	c #1F8B1F",
"z#	c #248624",
"A#	c #487E48",
"B#	c #5E6E5E",
"C#	c #687767",
"D#	c #577D57",
"E#	c #458345",
"F#	c #358735",
"G#	c #278927",
"H#	c #1E881E",
"I#	c #248824",
"J#	c #338533",
"K#	c #527A53",
"L#	c #6E6E6E",
"                                                                                                            ",
"                                                                                                            ",
"                                                                                                            ",
"                                                                                                            ",
"                                          . + @ # $ % & * = - ; > ,                                         ",
"                                    . ' ) ! ~ ~ ~ ~ ~ { ] ] * ^ / ( _ : <                                   ",
"                                [ } ~ | 1 2 3 3 3 3 2 4 1 | ~ 5 6 7 8 9 0 a b                               ",
"                            c d ~ 1 2 e f f f g h g i f j e 2 1 k l m n ( 0 o p q                           ",
"                          r | | 2 e f h s t u v v w w u s h f x 2 | y 6 n ( z o A B                         ",
"                        C ! 1 3 f g u D E F G G G H I I E D s h f 3 1 ! 6 n ( 0 o J K L                     ",
"                      d { M 3 f s w E G N O P P Q P R N N G E D s i S 1 { 6 T U V W X Y Z                   ",
"                    ` { 1 3 i  .D G N P ..+.@.#.#.@.@.+...P $.G E s i 3 1 { & / z o %.&.*.=.                ",
"                  -.] | 3 i s ;.G >.,.+.'.).!.~.{.~.!.].^.@.,.N G E s i 3 | ] 7 ( 0 /.X (._.=.              ",
"                :.6 ~ 2 f <.E G P ..[.}.{.|.1.2.2.2.1.3.4.).^.5.P H E 6.f 2 ~ * / U 7.8.9.0.a.=.            ",
"              b.c.y d.j h D e.>.5.#.!.3.2.f.g.h.h.h.i.j.2.3.!.#.5.k.G l.h m.d.] n.( 0 /.o.p.q.r.Z           ",
"              s.* ! 2 f s E N ,.^.!.|.t.i.u.v.w.x.y.z.u.i.t.A.~.^.B.N C.s D.2 ~ * 8 U o J E.F.G.H.L         ",
"            I.7 ] | x h D G Q @.).3.t.h.z.J.K.L.L.M.K.N.z.h.t.3.).+.O.G v h x | ] T 9 P.%.Q.R.S.T.U.        ",
"            V.^ 5 W.X.6.E Y.,.Z.{.2.i.`. +.+++@+@+#+$+.+%+&+g.2.4.*+..N E s f M y & ( =+-+o.;+S.>+,+'+      ",
"          )+!+& { W.f u ~+N +.).A.j.{+ +M.#+]+^+/+^+(+_+L. +u.j.:+).<+N C.u f 2 { * [+0 W }+p.|+1+2+3+      ",
"          4+[+* ~ 5+i u e.P @.!.1.i.z.K.$+(+6+7+8+9+0+(+$+K.z.a+b+!.@.P G v i 2 ~ * / c+/.}+d+|+e+f+g+h+    ",
"          _ 8 6 | 3 i D G Q ^.4.2.h.i+L.$+^+9+j+k+l+m+^+$+L.i+h.2.{.^.O.G v g 3 ~ * 8 z o X p.n+e+o+p+q+    ",
"        r+z [+* | 3 i D $.Q #.{.2.h.x.M.s+6+t+u+v+k+8+6+@+M.J.h.2.4.@.w+$.w g 3 ~ * / z /.X (.n+x+y+z+A+B+  ",
"        C+z [+6 ~ 3 g D G P @.{.2.D+w.L.@+^+9+j+u+j+m+^+$+L.w.E+2.4.@.w+G D h 3 ~ * / z /.X (.|+x+y+F+G+H+  ",
"        I+z [+* ~ 3 i v G P @.!.1.J+z.K.K+]+L+9+t+M+N+(+O+P+z.Q+R+!.@.P I v i 3 ~ * [+z S+}+p.T+U+y+V+W+X+  ",
"        Y+0 [+& { 2 f u F >.+.).3.Z+{+`+L.O+]+^+6+^+]+_+M. @{+j.:+].+.k.I s f 2 ! & ( z W }+p.|+1+.@+@@@#@$@",
"        %@V ( & ] M j s E $.,.*+4.2.i.z. +M.$+@+&@$+++L. +z.i.2.4.'.,.N E s j *@y 7 ( =+-+o.0.S.1+=@-@;@,+>@",
"        ,@P.9 n ] | x g D G P +.'@|.)@h.z.x.K.L.L.L.P+`+z.h.t.3.).+.P G D g 3 | ] n 9 P.8.Q.!@S.~@{@]@^@/@'+",
"        J (@z / * ~ 2 f u C.$.Q #.~._@)@i.&+z.w.i+i+z.u.i.t.:+!.#.Q N :@ .i 2 ~ 6 / z o X E.F.<@[@}@|@1@2@=.",
"        3@W 0 ( 7 4@1 x 5@l.I >.5.#.!.3.2.f.i.E+h.i.Q+Z+2.3.!.#.6@N G w 6.x 1 4@& ( 0 W }+p.n+x+y+7@|@8@9@H+",
"        0@%.P.U / 6 ~ 2 f s ;.G O 5.@.!.4.:+1.2.2.2.1.|.4.).[.5.>.G D s f 2 ~ 6 / 9 P.8.&.0.S.a@=@b@c@d@e@H+",
"        f@X S+0 ( 7 ] | 3 g@ .E G O ,.+.Z.).!.~.4.{.!.).Z.+...>.G ;.h@i 3 | y 7 i@0 /.X (.F.j@k@}@l@m@8@9@H+",
"        n@9.%.o 9 / & y 1 3 i u D e.$.P ,.<+@.@.@.@.@.+.,.P $.G ;. .i S 1 ! * [+U P.%.9.0.o@1+y+7@p@q@1@2@=.",
"        r@(.}+/.0 9 T s@{ 1 e i s w C.G $.N P Q Q P P >.$.G :@D s f e 1 ! 6 n U 0 -+X (.F.t@~@u@b@v@w@^@x@'+",
"        y@0.Q.J o 0 ( n z@! A@3 f g u D E C.G G $.G G I E w u h f 3 d.{ B@n ( C@o D@E@!@o@e+.@7@p@F@G@;@,+>@",
"          H@0.o.8.P.0 ( n * y | 2 j f h 6.u I@D D v v u s g f x 2 | { * J@[+0 o %.9.p.n+x+[@u@l@v@K@L@@@#@$@",
"          M@N@d+o.8.o z ( n * ] ~ A@2 e j f i i h i i f X.e 2 1 ~ y & n ( 0 o 8.o.p.N@t@1+.@7@O@P@Q@d@W+X+  ",
"          R@S.!@(.}+8.o 0 U / 7 6 ] ~ | M 2 2 3 3 3 2 M 1 | ~ 4@* 7 8 9 0 o 8.}+E.!@S.e+y+S@T@U@V@G@W@G+H+  ",
"            X@S.!@E.o.%.o V U [+n 7 6 6 y { ~ ~ ~ k ~ ! ] ] * & / ( U =+/.%.}+E.!@o@U+[@}@l@v@Y@Z@`@ #A+B+  ",
"            .#e+o@!@(.9.D@W P.0 U ( [+T & m * 6 6 6 * & 7 n / ( U 0 P.W J +#(.!@o@U+[@u@@###P@$#%#8@p+q+    ",
"              &#e+*#F.0.=#}+%./.P.0 z 9 ( !+/ [+[+8 [+[+( 9 z 0 -#/.%.}+Q.p.F.S.e+[@u@@#O@F@;#>#`@,#g+h+    ",
"              '#1+e+t@n+0.(.&.X %.W o -#0 0 z z z z 0 0 =+P.)#W %.}+9.E.0.n+t@e+[@{@@#O@F@V@!#~#8@p+3+      ",
"                {#.@1+x+o@F.0.E.Q.}+D@8.8.W S+o (@S+S+W W 8.J }+Q.(.0.F.o@x+1+y+}@@#O@F@V@]#^#L@ #,+h+      ",
"                  /#=@k@e+t@o@F.0.p.E.Q.o.}+}+X }+X }+}+o.&.E.p.0.(#T+t@1+[@=@S@b@##F@V@]#_#`@^@:#U.        ",
"                  <#[#u@y+~@e+j@o@|+F.!@0.p.d+(.(.(.p.p.;+0.F.|+o@<@e+[@y+u@@#T@##P@;#}#|#`@1@W+1#<#        ",
"                    Z 2#7@{@y+[@1+U+j@S.S.|+|+n+n+n+T+T+o@S.<@e+~@k@.@{@S@l@p@U@3#;#}#|#`@8@4#5#Z           ",
"                      =.6#l@7@}@7#y+k@~@1+e+x+U+e+x+x+e+1+~@[@y+7#}@7@b@p@v@P@V@8#9#0#`@8@a#b#=.            ",
"                        =.c#d#|@b@S@S@{@7#=@.@y+y+y+.@.@=@{@e#7@@#l@O@v@F@f#$#}#g#h#`@1@4#b#i#              ",
"                          =.j#k###p@T@l@b@@#l#7@7@7@@#@#b@l@T@O@##U@Y@f#$#}#m#n#o#L@^@W+5#=.                ",
"                            Z H.p#q#F@U@v@r#######O@####r#U@F@s#f#;#8#}#9#t#u#`@8@ #:#1#Z                   ",
"                              L U.,+v#w#x#f#f#3#3#3#Y@f#y#;#$#8#}#m#z#A#B#`@8@,#p+,+U.<#                    ",
"                                  '+3+g+p+C#D#E#F#G#!#]#H#I#J#|#K#B#L@d@W@L#p+g+3+'+                        ",
"                                      h+X+A+G+p+@@;@^@1@8@8@8@1@^@;@@@W+G+A+q+h+                            ",
"                                          B+H+X+#@,+/@2@9@e@9@2@/@,+#@X+H+B+                                ",
"                                                $@>@'+=.i#H+i#=.'+>@$@                                      "};
