/* XPM */
static char * green_jump4_xpm[] = {
"54 54 455 2",
"  	c None",
". 	c #B5C9B5",
"+ 	c #9DC59D",
"@ 	c #89C38B",
"# 	c #7BC17B",
"$ 	c #71BF71",
"% 	c #6ABE6A",
"& 	c #65BD65",
"* 	c #67BD67",
"= 	c #6DBD6D",
"- 	c #77BD77",
"; 	c #84BE85",
"> 	c #97C197",
", 	c #B1C5B1",
"' 	c #90C492",
") 	c #73C173",
"! 	c #6BC16B",
"~ 	c #6DC16D",
"{ 	c #6CC06C",
"] 	c #69BF69",
"^ 	c #66BE66",
"/ 	c #65BD67",
"( 	c #61BB61",
"_ 	c #5FB95F",
": 	c #67B967",
"< 	c #86BC88",
"[ 	c #AEC4AE",
"} 	c #AEC8AF",
"| 	c #84C183",
"1 	c #6EC26E",
"2 	c #6FC36F",
"3 	c #72C472",
"4 	c #71C571",
"5 	c #72C474",
"6 	c #6AC06C",
"7 	c #68BE68",
"8 	c #64BC64",
"9 	c #62BA62",
"0 	c #5EB85E",
"a 	c #5AB65A",
"b 	c #74B674",
"c 	c #A3BDA3",
"d 	c #BECABE",
"e 	c #89C389",
"f 	c #74C474",
"g 	c #76C676",
"h 	c #79C779",
"i 	c #78C878",
"j 	c #77C777",
"k 	c #75C575",
"l 	c #6CC26E",
"m 	c #68C068",
"n 	c #66BE68",
"o 	c #63BB63",
"p 	c #56B456",
"q 	c #77B377",
"r 	c #B2BEB2",
"s 	c #A4C6A4",
"t 	c #6FC16F",
"u 	c #7BC97B",
"v 	c #7DC97D",
"w 	c #7CCA7C",
"x 	c #7DCB7D",
"y 	c #72C672",
"z 	c #6AC06A",
"A 	c #5BB75B",
"B 	c #55B155",
"C 	c #90B38F",
"D 	c #92C492",
"E 	c #7FCB7F",
"F 	c #80CC80",
"G 	c #82CE84",
"H 	c #84CE84",
"I 	c #83CF84",
"J 	c #83CD83",
"K 	c #50B250",
"L 	c #7AAE7A",
"M 	c #BCBCBC",
"N 	c #71C371",
"O 	c #86D086",
"P 	c #89D18A",
"Q 	c #89D189",
"R 	c #8AD28A",
"S 	c #8AD189",
"T 	c #88D088",
"U 	c #72C674",
"V 	c #62BC62",
"W 	c #5DB95D",
"X 	c #58B658",
"Y 	c #53B353",
"Z 	c #4EB24E",
"` 	c #6EAA6F",
" .	c #B7B7B7",
"..	c #88C288",
"+.	c #7CCA7E",
"@.	c #8BD38B",
"#.	c #8ED48E",
"$.	c #8FD58F",
"%.	c #90D690",
"&.	c #85CF85",
"*.	c #51B151",
"=.	c #4AB04A",
"-.	c #6DA76E",
";.	c #B3B3B3",
">.	c #91C391",
",.	c #80CB7F",
"'.	c #87D187",
").	c #8CD28C",
"!.	c #92D692",
"~.	c #93D793",
"{.	c #94D894",
"].	c #96D896",
"^.	c #95D995",
"/.	c #94D793",
"(.	c #91D591",
"_.	c #55B355",
":.	c #47AF47",
"<.	c #72A473",
"[.	c #A2C5A1",
"}.	c #7CC87C",
"|.	c #90D58F",
"1.	c #94D895",
"2.	c #99DA98",
"3.	c #9BDB9B",
"4.	c #9CDC9C",
"5.	c #98DA98",
"6.	c #97D997",
"7.	c #8DD38D",
"8.	c #7AC87A",
"9.	c #5CB85C",
"0.	c #58B456",
"a.	c #52B252",
"b.	c #4AB24A",
"c.	c #44AE44",
"d.	c #7EA07E",
"e.	c #BDC9BD",
"f.	c #68BC68",
"g.	c #70C270",
"h.	c #82CE82",
"i.	c #9FDD9F",
"j.	c #A1DFA2",
"k.	c #A2E0A2",
"l.	c #A1DFA1",
"m.	c #9EDE9E",
"n.	c #89D088",
"o.	c #7FCB7D",
"p.	c #76C474",
"q.	c #63BD63",
"r.	c #4BB14B",
"s.	c #46AE46",
"t.	c #43AB43",
"u.	c #919C90",
"v.	c #83C183",
"w.	c #9DDD9D",
"x.	c #A3E1A3",
"y.	c #A6E2A7",
"z.	c #A7E3A8",
"A.	c #A9E3A9",
"B.	c #A9E2A8",
"C.	c #A6E2A6",
"D.	c #9ADA9A",
"E.	c #8BD38C",
"F.	c #81CD81",
"G.	c #75C775",
"H.	c #48B048",
"I.	c #42AC42",
"J.	c #5F9F5F",
"K.	c #9F9F9F",
"L.	c #ACC6AC",
"M.	c #A8E4A9",
"N.	c #ABE5AB",
"O.	c #AEE6AE",
"P.	c #ADE7AD",
"Q.	c #AAE3A9",
"R.	c #8AD28B",
"S.	c #57B557",
"T.	c #49B149",
"U.	c #44AC44",
"V.	c #3EAA3E",
"W.	c #7B937B",
"X.	c #A9A9A9",
"Y.	c #7BBD7B",
"Z.	c #70C470",
"`.	c #73C773",
" +	c #87CF87",
".+	c #92D693",
"++	c #A6E1A5",
"@+	c #AAE4AA",
"#+	c #AFE7AF",
"$+	c #B3E8B2",
"%+	c #B2EAB2",
"&+	c #B1E9B1",
"*+	c #A9E5AA",
"=+	c #A5E1A5",
"-+	c #92D591",
";+	c #59B559",
">+	c #54B254",
",+	c #45AD45",
"'+	c #579D57",
")+	c #949494",
"!+	c #B6B6B6",
"~+	c #B2C7B1",
"{+	c #61B961",
"]+	c #82CD81",
"^+	c #A4E0A4",
"/+	c #B4ECB4",
"(+	c #B7EDB7",
"_+	c #BAEDB7",
":+	c #B5EBB5",
"<+	c #B3E9B1",
"[+	c #99DB99",
"}+	c #8ED38D",
"|+	c #60BA60",
"1+	c #4CB24C",
"2+	c #40AC40",
"3+	c #39A739",
"4+	c #798B79",
"5+	c #A3A3A3",
"6+	c #8ABE8A",
"7+	c #71C573",
"8+	c #B8EEB8",
"9+	c #BCF0BD",
"0+	c #BFF1BF",
"a+	c #BCF0BC",
"b+	c #B9EFB9",
"c+	c #A0DEA0",
"d+	c #9ADC9B",
"e+	c #5CB65C",
"f+	c #46B046",
"g+	c #3AA83A",
"h+	c #5F955F",
"i+	c #919191",
"j+	c #B5B5B5",
"k+	c #A7E3A7",
"l+	c #B0EAB0",
"m+	c #C1F3C1",
"n+	c #C4F4C4",
"o+	c #C2F3C1",
"p+	c #BDF1BD",
"q+	c #41AB41",
"r+	c #40A240",
"s+	c #818181",
"t+	c #A6A6A6",
"u+	c #B1C6B0",
"v+	c #B3EBB5",
"w+	c #BDF1BE",
"x+	c #C5F5C7",
"y+	c #CAF8CA",
"z+	c #8BD18B",
"A+	c #3BA93B",
"B+	c #35A535",
"C+	c #728472",
"D+	c #989898",
"E+	c #BABABA",
"F+	c #94C094",
"G+	c #A2E0A3",
"H+	c #A2DFA1",
"I+	c #658B65",
"J+	c #8A8A8A",
"K+	c #B1B1B1",
"L+	c #7FBB7F",
"M+	c #A1DEA0",
"N+	c #B2E8B2",
"O+	c #BAEEBA",
"P+	c #BBF1BB",
"Q+	c #BBEEB8",
"R+	c #B1E9B2",
"S+	c #ACE6AC",
"T+	c #9FDF9F",
"U+	c #9ADC9A",
"V+	c #54B454",
"W+	c #40AA40",
"X+	c #3BA73B",
"Y+	c #559557",
"Z+	c #808080",
"`+	c #A7A7A7",
" @	c #6CB86C",
".@	c #A0DD9F",
"+@	c #A8E4A8",
"@@	c #B0EAB2",
"#@	c #AAE4AB",
"$@	c #34A434",
"%@	c #469A46",
"&@	c #797979",
"*@	c #9C9C9C",
"=@	c #BEBEBE",
"-@	c #60B45E",
";@	c #B4EAB2",
">@	c #71C373",
",@	c #45AF45",
"'@	c #33A333",
")@	c #399D39",
"!@	c #757575",
"~@	c #B9B9B9",
"{@	c #56B254",
"]@	c #92D892",
"^@	c #9EDC9E",
"/@	c #43AD43",
"(@	c #38A638",
"_@	c #32A432",
":@	c #2FA12F",
"<@	c #717171",
"[@	c #8E8E8E",
"}@	c #57B355",
"|@	c #99DB9A",
"1@	c #81CD82",
"2@	c #3CA83C",
"3@	c #36A636",
"4@	c #31A331",
"5@	c #2CA02C",
"6@	c #6E6E6E",
"7@	c #898989",
"8@	c #53B153",
"9@	c #6BBF6B",
"0@	c #7AC87B",
"a@	c #8CD48D",
"b@	c #2FA32F",
"c@	c #6D6D6D",
"d@	c #868686",
"e@	c #59B159",
"f@	c #5DB75D",
"g@	c #38A838",
"h@	c #2DA32D",
"i@	c #369C36",
"j@	c #6C6C6C",
"k@	c #858585",
"l@	c #64B264",
"m@	c #7ACA7A",
"n@	c #5EBA5E",
"o@	c #3CAA3C",
"p@	c #37A737",
"q@	c #2CA22C",
"r@	c #409640",
"s@	c #76B676",
"t@	c #3FAB3F",
"u@	c #2AA02A",
"v@	c #4F8F4F",
"w@	c #8CBA8C",
"x@	c #69BD67",
"y@	c #3DA93D",
"z@	c #32A232",
"A@	c #279F27",
"B@	c #5D855D",
"C@	c #8D8D8D",
"D@	c #ACC2AC",
"E@	c #67BF67",
"F@	c #70C26E",
"G@	c #67BF69",
"H@	c #59B759",
"I@	c #4FB14F",
"J@	c #4BAF49",
"K@	c #259D25",
"L@	c #687868",
"M@	c #4EAE4E",
"N@	c #7DCB7F",
"O@	c #64BC66",
"P@	c #37A537",
"Q@	c #309A33",
"R@	c #6A6A6A",
"S@	c #79B379",
"T@	c #45AC42",
"U@	c #29A129",
"V@	c #249E24",
"W@	c #528A52",
"X@	c #A8C0A8",
"Y@	c #30A230",
"Z@	c #2BA12B",
"`@	c #269E26",
" #	c #219B21",
".#	c #677967",
"+#	c #707070",
"@#	c #62AC64",
"##	c #239D23",
"$#	c #429042",
"%#	c #696969",
"&#	c #767676",
"*#	c #9CB99B",
"=#	c #4CB04A",
"-#	c #2EA22E",
";#	c #28A028",
">#	c #1F9B1F",
",#	c #647A64",
"'#	c #68AA66",
")#	c #3FA93F",
"!#	c #49AF49",
"~#	c #58B458",
"{#	c #209A20",
"]#	c #478D47",
"^#	c #747474",
"/#	c #AEBCAE",
"(#	c #3AA63A",
"_#	c #57B357",
":#	c #219921",
"<#	c #6A7369",
"[#	c #87AF88",
"}#	c #1D991D",
"|#	c #608060",
"1#	c #6EA66E",
"2#	c #41AD41",
"3#	c #299F29",
"4#	c #528850",
"5#	c #878787",
"6#	c #BBBBBB",
"7#	c #5EA25E",
"8#	c #1C981C",
"9#	c #488C48",
"0#	c #9E9E9E",
"a#	c #5BA15B",
"b#	c #239B23",
"c#	c #7D7D7D",
"d#	c #999999",
"e#	c #649E66",
"f#	c #33A533",
"g#	c #1E9A1E",
"h#	c #1B971B",
"i#	c #508850",
"j#	c #7C7C7C",
"k#	c #969696",
"l#	c #769C76",
"m#	c #2D9F2D",
"n#	c #31A131",
"o#	c #229C22",
"p#	c #1E961E",
"q#	c #5E805E",
"r#	c #B2B2B2",
"s#	c #8F9B8F",
"t#	c #519751",
"u#	c #2EA42E",
"v#	c #1A981A",
"w#	c #458D45",
"x#	c #687268",
"y#	c #789078",
"z#	c #489648",
"A#	c #289E28",
"B#	c #249C24",
"C#	c #1A961A",
"D#	c #3F8F3F",
"E#	c #637B63",
"F#	c #778977",
"G#	c #558F55",
"H#	c #309A30",
"I#	c #229A22",
"J#	c #289428",
"K#	c #4E8A4E",
"L#	c #667866",
"M#	c #70816F",
"N#	c #5F875F",
"O#	c #4B8F4B",
"P#	c #3B933B",
"Q#	c #2B972B",
"R#	c #219721",
"S#	c #289628",
"T#	c #389238",
"U#	c #5A845B",
"V#	c #777777",
"                                                                                                            ",
"                                                                                                            ",
"                                                                                                            ",
"                                                                                                            ",
"                                          . + @ # $ % & * = - ; > ,                                         ",
"                                    . ' ) ! ~ ~ ~ ~ ~ { ] ] ^ / ( _ : < [                                   ",
"                                } | ~ 1 2 3 4 4 4 4 3 5 2 1 ~ 6 7 8 9 0 a b c                               ",
"                            d e ~ 2 3 f g g g h i h j g k f 3 2 l m n o _ a p q r                           ",
"                          s t 1 3 f g i u v w x x x x w u i g y 3 1 z 7 o _ A p B C                         ",
"                        D ! 2 4 g h w E F G H H H I J J F E u i g 4 2 ! 7 o _ a p K L M                     ",
"                      e { N 4 g u x F H O P Q Q R Q S T O H F E u j U 2 { 7 V W X Y Z `  .                  ",
"                    ..{ 2 4 j +.E H O Q @.#.$.%.%.$.$.#.@.Q &.H F u j 4 2 { & ( A p *.=.-.;.                ",
"                  >.] 1 4 j u ,.H '.).#.!.~.{.].^.].{./.(.$.).T H F u j 4 1 ] 8 _ a _.Z :.<.;.              ",
"                [.7 ~ 3 g }.F H Q @.|.1.^.2.3.4.4.4.3.5.6.~.(.7.Q I F 8.g 3 ~ ^ ( 9.0.a.b.c.d.;.            ",
"              e.f.z g.k i E h.'.7.%.{.5.4.i.j.k.k.k.l.m.4.5.{.%.7.n.H o.i p.g.] q._ a _.r.s.t.u. .          ",
"              v.^ ! 3 g u F O ).(.{.2.w.l.x.y.z.A.B.C.x.l.w.D.].(.E.O F.u G.3 ~ ^ 9 9.p K H.I.J.K.M         ",
"            L.8 ] 1 y i E H R $.~.5.w.k.C.M.N.O.O.P.N.Q.C.k.w.5.~.#.R.H x i y 1 ] V 0 S.*.T.U.V.W.X.        ",
"            Y./ 6 Z.`.8.F  +)..+^.4.l.++@+#+$+%+%+&+&+#+*+=+j.4.6.-+@.O F u g N z & _ ;+>+r.,+V.'+)+!+      ",
"          ~+{+& { Z.g w ]+T #.~.D.m.^+@+P.&+/+(+_+(+:+<+O.@+x.m.[+~.}+T F.w g 3 { * |+a Y 1+s.2+3+4+5+      ",
"          6+|+^ ~ 7+j w h.Q $.{.3.l.C.N.&+:+8+9+0+a+b+:+&+N.C.c+d+{.$.Q H x j 3 ~ ^ ( e+_.1+f+2+g+h+i+j+    ",
"          : 9 7 1 4 j E H R (.6.4.k.k+O.l+(+a+m+n+o+p+(+l+O.k+k.4.^.(.R.H x h 4 ~ ^ 9 A p Z s.q+g+r+s+t+    ",
"        u+A |+^ 1 4 j E &.R %.^.4.k.A.P.v+8+w+x+y+n+0+8+%+P.M.k.4.6.$.z+&.x h 4 ~ ^ ( A _.Z :.q+A+B+C+D+E+  ",
"        F+A |+7 ~ 4 h E H Q $.^.4.G+z.O.%+(+a+m+x+m+p+(+l+O.z.H+4.6.$.z+H E i 4 ~ * ( A _.Z :.2+A+B+I+J+K+  ",
"        L+A |+^ ~ 4 j x H Q $.{.3.M+C.N.N+/+O+a+w+P+Q+:+R+S+C.T+U+{.$.Q J x j 4 ~ ^ |+A V+1+s.W+X+B+Y+Z+`+  ",
"         @a |+& { 3 g w G '.#.~.5..@^++@O.@@/+(+8+(+/+<+P.#@^+m.[+/.#.n.J u g 3 ! & _ A Y 1+s.2+3+$@%@&@*@=@",
"        -@X _ & ] N k u F &.).-+6.4.l.C.@+P.&+%+;@l+$+O.@+C.l.4.6.!.).O F u k >@z 8 _ ;+>+r.,@V.3+'@)@!@)+~@",
"        {@S.0 o ] 1 y h E H Q #.]@2.^@k.C.A.N.O.O.O.S++@C.k.w.5.~.#.Q H E h 4 1 ] o 0 S.a.T./@V.(@_@:@<@[@!+",
"        K }@A ( ^ ~ 3 g w F.&.R %.].|@^@l.=+C.z.k+k+C.x.l.w.[+{.%.R O 1@+.j 3 ~ 7 ( A p Z H.I.2@3@4@5@6@7@;.",
"        8@Y a _ 8 9@2 y 0@o.J '.7.%.{.5.4.i.l.H+k.l.T+.@4.5.{.%.a@T H x 8.y 2 9@& _ a Y 1+s.q+A+B+b@5@c@d@K+",
"        e@*.S.9.( 7 ~ 3 g u ,.H P 7.$.{.6.[+3.4.4.4.3.2.6.~.|.7.'.H E u g 3 ~ 7 ( f@S.a.=.c.V.g@'@h@i@j@k@K+",
"        l@Z V+a _ 8 ] 1 4 j +.F H P ).#..+~.{.].6.^.{.~..+#.@.'.H ,.m@j 4 1 z 8 n@a _.Z :.I.o@p@4@q@r@c@d@K+",
"        s@b.*.p f@( & z 2 4 j w E h.&.Q ).}+$.$.$.$.$.#.).Q &.H ,.+.j U 2 ! ^ |+9.S.*.b.c.t@3+B+b@u@v@6@7@;.",
"        w@:.1+_.a 0 V x@{ 2 f j u x F.H &.T Q R R Q Q '.&.H 1@E u g f 2 ! 7 o W a >+Z :.I.y@(@z@h@A@B@<@C@!+",
"        D@c.T.K p a _ o E@! F@4 g h w E F F.H H &.H H J F x w i g 4 g.{ G@o _ H@p I@J@/@t@g+$@b@u@K@L@!@)+~@",
"          M@,@r.a.S.a _ o ^ z 1 3 k g i 8.w N@E E x x w u h g y 3 1 { ^ O@|+a p *.b.s.q+A+P@z@q@A@Q@R@&@*@=@",
"          S@T@f+r.a.p A _ o * ] ~ F@3 f k g j j i j j g `.f 3 2 ~ z & o _ a p a.r.s.T@y@3+$@b@U@V@W@j@Z+`+  ",
"          X@V./@:.1+a.p a W ( 8 7 ] ~ 1 N 3 3 4 4 4 3 N 2 1 ~ 9@^ 8 9 0 a p a.1+H./@V.g+B+Y@Z@`@ #.#+#J+K+  ",
"            @#V./@H.r.*.p X 9.|+o 8 7 7 z { ~ ~ ~ l ~ ! ] ] ^ & ( _ 9.;+_.*.1+H./@t@X+3@4@q@A@##$#%#&#D+E+  ",
"            *#g+t@/@:.b.I@Y S.a 9._ |+V & n ^ 7 7 7 ^ & 8 o ( _ 9.a S.Y K =#:./@t@X+3@z@-#;#V@>#,#c@s+t+    ",
"              '#g+)#I.,@!#1+*._.S.a A 0 _ {+( |+|+9 |+|+_ 0 A a ~#_.*.1+T.s.I.V.g+3@z@-#U@K@{#]#%#^#i+j+    ",
"              /#(#g+y@q+c.:.=.Z *.Y p ~#a a A A A A a a ;+S._#Y *.1+b.H.c.q+y@g+3@_@-#U@K@ #:#<#c@s+5+      ",
"                [#$@3+A+t@I.,@H.T.1+I@a.a.Y V+p }@V+V+Y Y a.K 1+T.:.c.I.t@A+3+B+4@-#U@K@ #}#|#R@&#)+j+      ",
"                  1#'@p@g+y@t@I.c.s.H.T.r.1+1+Z 1+Z 1+1+r.=.H.s.c.2#W+y@3+P@'@Y@h@3#K@ #}#4#%#<@5#X.        ",
"                  6#7#z@B+(@g+o@t@2+I./@c.s.f+:.:.:.s.s.,+c.I.2+t@2@g+P@B+z@-#Z@;#V@{#8#9#%#6@Z+0#6#        ",
"                     .a#b@_@B+P@3+X+o@V.V.2+2+q+q+q+W+W+t@V.2@g+(@p@$@_@Y@q@u@`@b#{#8#9#%#c@c#d# .          ",
"                      ;.e#q@b@4@f#B+p@(@3+g+A+X+g+A+A+g+3+(@3@B+f#4@b@h@u@A@V@ #g#h#i#%#c@j#k#;.            ",
"                        ;.l#m#5@h@Y@Y@_@f#'@$@B+B+B+$@$@'@_@n#b@-#q@U@A@K@o#>#8#p#q#%#6@c#k#r#              ",
"                          ;.s#t#;#u@Z@q@h@-#u#b@b@b@-#-#h@q@Z@U@;#`@##o#>#8#v#w#x#R@<@Z+d#;.                ",
"                             .K.y#z#K@`@A@A#3#;#3#U@;#;#A#`@K@B#o#{#g#8#C#D#E#%#c@&#5#0# .                  ",
"                              M X.)+F#G#H#o#o#b#b#b###o#I#{#>#g#8#v#J#K#L#%#c@^#s+)+X.6#                    ",
"                                  !+5+i+s+M#N#O#P#Q#:#}#R#S#T#9#U#L#R@j@+#V#s+i+5+!+                        ",
"                                      j+`+D+J+s+&@!@<@6@c@c@c@6@<@!@&@Z+J+D+t+j+                            ",
"                                          E+K+`+*@)+[@7@d@k@d@7@[@)+*@`+K+E+                                ",
"                                                =@~@!+;.r#K+r#;.!+~@=@                                      "};
