/* XPM */
static char *green_destroy3[] = {
"36 36 65 1",
"  c black",
". c #6f871d",
"X c #779053",
"o c #9b760b",
"O c #977a37",
"+ c #b97700",
"@ c #927d52",
"# c #887e63",
"$ c #dd6f00",
"% c #eb7a00",
"& c #f77b04",
"* c #95862f",
"= c #ae8812",
"- c #ac8b35",
"; c #bca835",
": c #8a8356",
"> c #94874b",
", c #868364",
"< c #a58b4c",
"1 c #b8ad54",
"2 c #acc625",
"3 c #d09308",
"4 c #cca30f",
"5 c #d4ab34",
"6 c #ec8700",
"7 c #eb9802",
"8 c #f98708",
"9 c #fe8c13",
"0 c #f99609",
"q c #fe9714",
"w c #ed9524",
"e c #e9a706",
"r c #eab605",
"t c #f8a709",
"y c #fea817",
"u c #f9b70b",
"i c #fdb617",
"p c #ffaa23",
"a c #feb926",
"s c #f1b431",
"d c #d0ae50",
"f c #c6b860",
"g c #e4bd4e",
"h c #dcc239",
"j c #f3c512",
"k c #fec619",
"l c #fed61c",
"z c #fec925",
"x c #fcce37",
"c c #ffd926",
"v c #ffe627",
"b c #fee936",
"n c #fff22f",
"m c #fef439",
"M c #d3ce50",
"N c #dcca68",
"B c #f8cf51",
"V c #fddd44",
"C c #e9d563",
"Z c #ffeb44",
"A c #fde657",
"S c #fff747",
"D c #fff558",
"F c #faea67",
"G c None",
"GGGGGGGGGGGGGGGGGGGGGGGGGGGGGGGGGGGG",
"GGGGGGGGGGGGGGGGGGGGGGGGGGGGGGGGGGGG",
"GGGGGGGGGGGGGGGGGGGGGGGGGGGGGGGGGGGG",
"GGGGGGGGGGGGG#<o44jzh5->,GGGGGGGGGGG",
"GGGGGGGGGGGGG@-FDZbSZSFN1:GGGGGGGGGG",
"GGGGGGGGGGGG:-5xkuzzzZSDF1>#GGGGGGGG",
"GGGGGGGGGGGX.hzrkuurrrrbDDC>,GGGGGGG",
"GGGGGGGGGGX.2bmckkcnvluezSDC*,GGGGGG",
"GGGGGGG#@>*Mmmvut7ulcku7tlmDM:GGGGGG",
"GGGGGG#-dwsyya7yq6q660%p7ucSDf:GGGGG",
"GGGGGG@5xy866086888q8&&%6yicDF*,GGGG",
"GGGGG<5xiq$qp8807yq00986aqiumSM:GGGG",
"GGGG@gxziqq66qqtiay0qq880%07kmD>GGGG",
"GGG,<Abkiq%qqqyaiititq08&&q7zmD<#GGG",
"GGG@1Znryq98q0yiiiiittp998%yucDf@GGG",
"GGG*CSvz0898qqyekzkziiy08&9qacDN*GGG",
"GGG*CSvi0899qytzuekukiqq88%qykDC*GGG",
"GGG*CSly0&&qqyiuklllriy0q8q0icZC*GGG",
"GGG*FScy%&8ptttckrllliyq08&qzjSF*GGG",
"GGG*NZli088yutzteurkk7qp889yejSF*GGG",
"GGG>NZmz7y80iytikuuuiiqq9&%8ulSN*GGG",
"GGG#>Bbiy9&0qqqtzkuty088&&9qzcD1@GGG",
"GGGG@dZzyq&&q8qyyiz7yp9q99qtkvD1#GGG",
"GGGG#*BVi899&qq007qq8q9&&&6icmB:GGGG",
"GGGGGOgxz0%%q899qqqqq6899&yubS;:GGGG",
"GGGGG@dxbti0%$&80607069&9q6eZA-#GGGG",
"GGGGGG>gZkkap986xVzzi0999$0VD1:GGGGG",
"GGGGGG#-Bz77aatclbmnv7q86yzDC:GGGGGG",
"GGGGGGG@-AViiizlcmbmbi0q7AFC*,GGGGGG",
"GGGGGGGG>dBxu3itiaszay3eAFN>,GGGGGGG",
"GGGGGGGGG@-gBBsw++3+3sgBg->GGGGGGGGG",
"GGGGGGGGGGG>OdgBBsBgBd<>@,GGGGGGGGGG",
"GGGGGGGGGGGGG@O=443=oO:#GGGGGGGGGGGG",
"GGGGGGGGGGGGGGGGGGGGGGGGGGGGGGGGGGGG",
"GGGGGGGGGGGGGGGGGGGGGGGGGGGGGGGGGGGG",
"GGGGGGGGGGGGGGGGGGGGGGGGGGGGGGGGGGGG"
};
