/* XPM */
static char * green_xpm[] = {
"54 54 458 2",
"  	c None",
". 	c #B4C8B4",
"+ 	c #9BC59C",
"@ 	c #88C289",
"# 	c #7AC07A",
"$ 	c #6EBE6E",
"% 	c #67BD67",
"& 	c #62BC62",
"* 	c #64BC64",
"= 	c #6ABC6A",
"- 	c #74BC74",
"; 	c #82BE83",
"> 	c #95C195",
", 	c #B0C4B0",
"' 	c #8FC390",
") 	c #70C070",
"! 	c #68C068",
"~ 	c #6AC06A",
"{ 	c #69BF69",
"] 	c #66BE66",
"^ 	c #63BD63",
"/ 	c #62BC64",
"( 	c #5EBA5E",
"_ 	c #5CB85C",
": 	c #64B864",
"< 	c #85BB86",
"[ 	c #ADC3AD",
"} 	c #ADC7AE",
"| 	c #83C181",
"1 	c #6BC16B",
"2 	c #6CC26C",
"3 	c #6FC36F",
"4 	c #70C470",
"5 	c #6FC371",
"6 	c #67BF69",
"7 	c #65BD65",
"8 	c #61BB61",
"9 	c #5FB95F",
"0 	c #5BB75B",
"a 	c #57B557",
"b 	c #71B571",
"c 	c #A2BCA2",
"d 	c #BDC9BD",
"e 	c #88C288",
"f 	c #72C472",
"g 	c #74C674",
"h 	c #77C777",
"i 	c #76C876",
"j 	c #75C775",
"k 	c #73C573",
"l 	c #69C16B",
"m 	c #65BF65",
"n 	c #63BD65",
"o 	c #60BA60",
"p 	c #53B353",
"q 	c #74B274",
"r 	c #B1BDB1",
"s 	c #A3C5A3",
"t 	c #6CC06C",
"u 	c #79C979",
"v 	c #7BC97B",
"w 	c #7ACA7A",
"x 	c #7CCA7C",
"y 	c #7BCB7B",
"z 	c #71C571",
"A 	c #67BF67",
"B 	c #58B658",
"C 	c #52B052",
"D 	c #8FB28E",
"E 	c #91C391",
"F 	c #7DCB7D",
"G 	c #7ECC7E",
"H 	c #80CE82",
"I 	c #82CE82",
"J 	c #81CF83",
"K 	c #81CD81",
"L 	c #4DB14D",
"M 	c #78AC78",
"N 	c #BBBBBB",
"O 	c #6EC26E",
"P 	c #84D084",
"Q 	c #87D189",
"R 	c #87D187",
"S 	c #88D288",
"T 	c #89D187",
"U 	c #86D086",
"V 	c #71C573",
"W 	c #5FBB5F",
"X 	c #5AB85A",
"Y 	c #55B555",
"Z 	c #50B250",
"` 	c #4CB04C",
" .	c #6BA96D",
"..	c #B6B6B6",
"+.	c #87C187",
"@.	c #7ACA7C",
"#.	c #89D389",
"$.	c #8CD48C",
"%.	c #8DD58D",
"&.	c #8ED68E",
"*.	c #83CF83",
"=.	c #4EB04E",
"-.	c #49AD49",
";.	c #6AA66B",
">.	c #B2B2B2",
",.	c #90C290",
"'.	c #7FCB7D",
").	c #85D185",
"!.	c #8AD28A",
"~.	c #90D690",
"{.	c #91D791",
"].	c #92D892",
"^.	c #94D894",
"/.	c #93D993",
"(.	c #93D791",
"_.	c #8FD58F",
":.	c #52B252",
"<.	c #46AC46",
"[.	c #6FA370",
"}.	c #A1C4A0",
"|.	c #7AC87A",
"1.	c #8FD58D",
"2.	c #92D894",
"3.	c #98DA96",
"4.	c #99DB99",
"5.	c #9ADC9A",
"6.	c #96DA96",
"7.	c #95D995",
"8.	c #8BD38B",
"9.	c #78C878",
"0.	c #59B759",
"a.	c #56B353",
"b.	c #4FB14F",
"c.	c #49AF49",
"d.	c #43AB43",
"e.	c #7C9E7C",
"f.	c #BCC8BC",
"g.	c #65BB65",
"h.	c #6DC16D",
"i.	c #80CE80",
"j.	c #9DDD9D",
"k.	c #9FDFA0",
"l.	c #A0E0A0",
"m.	c #9FDF9F",
"n.	c #9CDE9C",
"o.	c #88D086",
"p.	c #7ECA7C",
"q.	c #74C472",
"r.	c #60BC60",
"s.	c #4AAE4A",
"t.	c #45AB45",
"u.	c #42A842",
"v.	c #8F9A8E",
"w.	c #82C082",
"x.	c #9BDD9B",
"y.	c #A1E1A1",
"z.	c #A4E2A6",
"A.	c #A5E3A7",
"B.	c #A7E3A7",
"C.	c #A7E2A6",
"D.	c #A4E2A4",
"E.	c #98DA98",
"F.	c #89D38B",
"G.	c #7FCD7F",
"H.	c #73C773",
"I.	c #47AD47",
"J.	c #41A941",
"K.	c #5D9D5D",
"L.	c #9E9E9E",
"M.	c #ABC5AB",
"N.	c #A6E4A8",
"O.	c #A9E5A9",
"P.	c #ACE6AC",
"Q.	c #ABE7AB",
"R.	c #A8E3A7",
"S.	c #88D28A",
"T.	c #54B454",
"U.	c #48AE48",
"V.	c #43A943",
"W.	c #3DA73D",
"X.	c #799179",
"Y.	c #A8A8A8",
"Z.	c #79BD79",
"`.	c #6DC36D",
" +	c #72C672",
".+	c #85CF85",
"++	c #90D691",
"@+	c #A5E1A3",
"#+	c #A8E4A8",
"$+	c #ADE7AD",
"%+	c #B1E8B0",
"&+	c #B2EAB2",
"*+	c #B1E9B1",
"=+	c #AFE9AF",
"-+	c #A7E5A9",
";+	c #A3E1A3",
">+	c #91D58F",
",+	c #56B456",
"'+	c #51B151",
")+	c #44AA44",
"!+	c #559B55",
"~+	c #929292",
"{+	c #B5B5B5",
"]+	c #B1C6B0",
"^+	c #5EB85E",
"/+	c #81CD7F",
"(+	c #A2E0A2",
"_+	c #B4ECB4",
":+	c #B7EDB7",
"<+	c #B9EDB7",
"[+	c #B5EBB5",
"}+	c #B2E9B1",
"|+	c #97DB97",
"1+	c #8DD38B",
"2+	c #5DB95D",
"3+	c #4BAF4B",
"4+	c #3FA93F",
"5+	c #38A438",
"6+	c #778977",
"7+	c #A2A2A2",
"8+	c #88BE88",
"9+	c #70C472",
"0+	c #B8EEB8",
"a+	c #BCF0BD",
"b+	c #BFF1BF",
"c+	c #BCF0BC",
"d+	c #B9EFB9",
"e+	c #9EDE9E",
"f+	c #98DC9A",
"g+	c #59B559",
"h+	c #45AD45",
"i+	c #39A539",
"j+	c #5D935D",
"k+	c #8F8F8F",
"l+	c #B4B4B4",
"m+	c #A5E3A5",
"n+	c #B0EAB0",
"o+	c #C1F3C1",
"p+	c #C4F4C4",
"q+	c #C2F3C1",
"r+	c #BDF1BD",
"s+	c #40A840",
"t+	c #3F9F3F",
"u+	c #7F7F7F",
"v+	c #A5A5A5",
"w+	c #B0C5AF",
"x+	c #B3EBB4",
"y+	c #BDF1BE",
"z+	c #C5F5C6",
"A+	c #CAF8CA",
"B+	c #89D189",
"C+	c #3AA63A",
"D+	c #34A234",
"E+	c #708270",
"F+	c #969696",
"G+	c #B9B9B9",
"H+	c #93BF93",
"I+	c #A0E0A2",
"J+	c #A1DF9F",
"K+	c #638963",
"L+	c #888888",
"M+	c #B0B0B0",
"N+	c #7DBB7D",
"O+	c #9FDE9E",
"P+	c #B0E8B0",
"Q+	c #BAEEBA",
"R+	c #BBF1BB",
"S+	c #BAEEB8",
"T+	c #AFE9B1",
"U+	c #AAE6AA",
"V+	c #9DDF9D",
"W+	c #98DC98",
"X+	c #51B351",
"Y+	c #3FA73F",
"Z+	c #3AA43A",
"`+	c #549256",
" @	c #7E7E7E",
".@	c #A6A6A6",
"+@	c #69B769",
"@@	c #9EDD9D",
"#@	c #A6E4A6",
"$@	c #B0EAB2",
"%@	c #A8E4A9",
"&@	c #33A133",
"*@	c #459745",
"=@	c #777777",
"-@	c #9B9B9B",
";@	c #BDBDBD",
">@	c #5DB35B",
",@	c #B3EAB2",
"'@	c #6EC270",
")@	c #44AC44",
"!@	c #32A032",
"~@	c #389A38",
"{@	c #737373",
"]@	c #B8B8B8",
"^@	c #53B151",
"/@	c #90D890",
"(@	c #9CDC9C",
"_@	c #42AA42",
":@	c #37A337",
"<@	c #31A131",
"[@	c #2E9C2E",
"}@	c #6F6F6F",
"|@	c #8C8C8C",
"1@	c #54B252",
"2@	c #97DB99",
"3@	c #7FCD81",
"4@	c #3BA53B",
"5@	c #35A335",
"6@	c #30A030",
"7@	c #2B9B2B",
"8@	c #6C6C6C",
"9@	c #878787",
"0@	c #50B050",
"a@	c #68BE68",
"b@	c #78C87A",
"c@	c #8AD48C",
"d@	c #2E9E2E",
"e@	c #6B6B6B",
"f@	c #848484",
"g@	c #56B056",
"h@	c #5AB65A",
"i@	c #37A537",
"j@	c #2C9E2C",
"k@	c #349834",
"l@	c #6A6A6A",
"m@	c #838383",
"n@	c #61B161",
"o@	c #76C676",
"p@	c #78CA78",
"q@	c #5BB95B",
"r@	c #3BA73B",
"s@	c #36A436",
"t@	c #2B9D2B",
"u@	c #3F933F",
"v@	c #73B573",
"w@	c #3EA83E",
"x@	c #299B29",
"y@	c #4E8C4E",
"z@	c #8ABA8A",
"A@	c #66BC64",
"B@	c #3CA63C",
"C@	c #319F31",
"D@	c #269A26",
"E@	c #5B835B",
"F@	c #8B8B8B",
"G@	c #ABC1AB",
"H@	c #64BE64",
"I@	c #6DC16B",
"J@	c #64BE66",
"K@	c #56B656",
"L@	c #4DAF4D",
"M@	c #4AAC48",
"N@	c #249824",
"O@	c #667666",
"P@	c #4DAB4D",
"Q@	c #7BCB7D",
"R@	c #61BB63",
"S@	c #36A236",
"T@	c #2F9532",
"U@	c #686868",
"V@	c #76B276",
"W@	c #44A941",
"X@	c #289C28",
"Y@	c #239923",
"Z@	c #508850",
"`@	c #A7BFA7",
" #	c #2F9F2F",
".#	c #2A9C2A",
"+#	c #259925",
"@#	c #209620",
"##	c #657765",
"$#	c #6E6E6E",
"%#	c #5FAB61",
"&#	c #229822",
"*#	c #418D41",
"=#	c #676767",
"-#	c #747474",
";#	c #9BB89A",
">#	c #4BAD49",
",#	c #2D9D2D",
"'#	c #279B27",
")#	c #1E961E",
"!#	c #627862",
"~#	c #65A963",
"{#	c #3EA63E",
"]#	c #48AC48",
"^#	c #55B355",
"/#	c #1F951F",
"(#	c #468A46",
"_#	c #727272",
":#	c #ADBBAD",
"<#	c #39A339",
"[#	c #54B254",
"}#	c #209420",
"|#	c #687167",
"1#	c #86AE87",
"2#	c #1C941C",
"3#	c #5E7E5E",
"4#	c #6BA56B",
"5#	c #40AA40",
"6#	c #289A28",
"7#	c #50854F",
"8#	c #858585",
"9#	c #BABABA",
"0#	c #5CA05C",
"a#	c #1B931B",
"b#	c #478947",
"c#	c #9D9D9D",
"d#	c #5A9E5A",
"e#	c #229622",
"f#	c #7B7B7B",
"g#	c #979797",
"h#	c #629C63",
"i#	c #32A232",
"j#	c #1D951D",
"k#	c #1A921A",
"l#	c #4F854F",
"m#	c #7A7A7A",
"n#	c #949494",
"o#	c #749A74",
"p#	c #2C9A2C",
"q#	c #309E30",
"r#	c #219721",
"s#	c #1D911D",
"t#	c #5C7E5C",
"u#	c #B1B1B1",
"v#	c #8D998D",
"w#	c #509450",
"x#	c #2D9F2D",
"y#	c #199319",
"z#	c #448A44",
"A#	c #667066",
"B#	c #768E76",
"C#	c #479347",
"D#	c #279927",
"E#	c #239723",
"F#	c #199119",
"G#	c #3D8B3D",
"H#	c #617961",
"I#	c #758775",
"J#	c #548C54",
"K#	c #2F952F",
"L#	c #219521",
"M#	c #278F27",
"N#	c #4D874D",
"O#	c #647664",
"P#	c #6E7F6D",
"Q#	c #5D855D",
"R#	c #4A8C4A",
"S#	c #398F39",
"T#	c #2A922A",
"U#	c #209220",
"V#	c #279127",
"W#	c #368E36",
"X#	c #588259",
"Y#	c #757575",
"                                                                                                            ",
"                                                                                                            ",
"                                                                                                            ",
"                                                                                                            ",
"                                          . + @ # $ % & * = - ; > ,                                         ",
"                                    . ' ) ! ~ ~ ~ ~ ~ { ] ] ^ / ( _ : < [                                   ",
"                                } | ~ 1 2 3 4 4 4 4 3 5 2 1 ~ 6 7 8 9 0 a b c                               ",
"                            d e ~ 2 3 f g g g h i h j g k f 3 2 l m n o _ a p q r                           ",
"                          s t 1 3 f g i u v w x x y y w u i g z 3 1 A 7 o _ B p C D                         ",
"                        E ! 2 4 g h w F G H I I I J K K G F u i g 4 2 ! 7 o _ a p L M N                     ",
"                      e { O 4 g u y G I P Q R R S R T U P I G F u j V 2 { 7 W X Y Z `  ...                  ",
"                    +.{ 2 4 j @.F I P R #.$.%.&.&.%.%.$.#.R *.I G u j 4 2 { & ( B p =.-.;.>.                ",
"                  ,.] 1 4 j u '.I ).!.$.~.{.].^./.^.].(._.%.!.U I G u j 4 1 ] 8 _ a :.` <.[.>.              ",
"                }.7 ~ 3 g |.G I R #.1.2./.3.4.5.5.5.4.6.7.{._.8.R J G 9.g 3 ~ ^ ( 0.a.b.c.d.e.>.            ",
"              f.g.A h.k i F i.).8.&.].6.5.j.k.l.l.l.m.n.5.6.].&.8.o.I p.i q.h.] r._ a :.s.t.u.v...          ",
"              w.^ ! 3 g u G P !._.].3.x.m.y.z.A.B.C.D.y.m.x.E.^._.F.P G.u H.3 ~ ^ 9 0.p L I.J.K.L.N         ",
"            M.8 ] 1 z i F I S %.{.6.x.l.D.N.O.P.P.Q.O.R.D.l.x.6.{.$.S.I x i z 1 ] W 0 T.=.U.V.W.X.Y.        ",
"            Z./ 6 `. +9.G .+!.++/.5.m.@+#+$+%+&+&+*+=+$+-+;+k.5.7.>+#.P G u g O A & _ ,+'+s.)+W.!+~+{+      ",
"          ]+^+& { `.g w /+U $.{.E.n.(+#+Q.*+_+:+<+:+[+}+P.#+y.n.|+{.1+U G.w g 3 { * 2+a Z 3+t.4+5+6+7+      ",
"          8+2+^ ~ 9+j w i.R %.].4.m.D.O.=+[+0+a+b+c+d+[+=+O.D.e+f+].%.R I x j 3 ~ ^ ( g+:.3+h+4+i+j+k+l+    ",
"          : 9 7 1 4 j F I S _.7.5.l.m+P.n+:+c+o+p+q+r+:+n+P.m+l.5./._.S.I x h 4 ~ ^ 9 B p ` t.s+i+t+u+v+    ",
"        w+B 2+^ 1 4 j F *.S &./.5.l.B.Q.x+0+y+z+A+p+b+0+&+Q.N.l.5.7.%.B+*.y h 4 ~ ^ ( B :.` <.s+C+D+E+F+G+  ",
"        H+B 2+7 ~ 4 h F I R %./.5.I+A.P.&+:+c+o+z+o+r+:+n+P.A.J+5.7.%.B+I F i 4 ~ * ( B :.` <.4+C+D+K+L+M+  ",
"        N+B 2+^ ~ 4 j x I R %.].4.O+D.O.P+_+Q+c+y+R+S+[+T+U+D.V+W+].%.R K x j 4 ~ ^ 2+B X+3+t.Y+Z+D+`+ @.@  ",
"        +@a 2+& { 3 g w H ).$.{.6.@@(+#@P.$@_+:+0+:+_+}+Q.%@(+n.|+(.$.o.K u g 3 ! & _ B Z 3+t.4+5+&@*@=@-@;@",
"        >@Y _ & ] O k u G *.!.>+7.5.m.D.#+Q.=+&+,@n+%+P.#+D.m.5.7.~.!.P G u k '@A 8 _ ,+'+s.)@W.5+!@~@{@~+]@",
"        ^@T.0 o ] 1 z h F I R $./@3.(@l.D.B.O.P.P.P.U+#@D.l.x.6.{.$.R I F h 4 1 ] o 0 T.b.U._@W.:@<@[@}@|@{+",
"        L 1@B ( ^ ~ 3 g w G.*.S &.^.2@(@m.;+D.A.m+m+D.y.m.x.|+].&.S P 3@@.j 3 ~ 7 ( B p ` I.J.4@5@6@7@8@9@>.",
"        0@Z a _ 8 a@2 z b@p.K ).8.&.].6.5.j.m.J+l.m.V+@@5.6.].&.c@U I y 9.z 2 a@& _ a Z 3+t.s+C+D+d@7@e@f@M+",
"        g@=.T.0.( 7 ~ 3 g u '.I Q 8.%.].7.|+4.5.5.5.4.3.7.{.1.8.).I F u g 3 ~ 7 ( h@T.b.-.d.W.i@!@j@k@l@m@M+",
"        n@` X+a _ 8 ] 1 4 o@@.G I Q !.$.++{.].^.7./.].{.++$.#.).I '.p@j 4 1 A 8 q@a :.` <.J.r@s@6@t@u@e@f@M+",
"        v@c.=.p h@( & A 2 4 j w F i.*.R !.1+%.%.%.%.%.$.!.R *.I '.@.j V 2 ! ^ 2+0.T.=.c.d.w@5+D+d@x@y@8@9@>.",
"        z@<.3+:.a 0 W A@{ 2 f j u y G.I *.U R S S R R ).*.I 3@F u g f 2 ! 7 o X a '+` <.J.B@:@C@j@D@E@}@F@{+",
"        G@d.U.L p a _ o H@! I@4 g h w F G G.I I *.I I K G y w i g 4 h.{ J@o _ K@p L@M@_@w@i+&@d@x@N@O@{@~+]@",
"          P@)@s.b.T.a _ o ^ A 1 3 k g i 9.w Q@F F x x w u h g z 3 1 { ^ R@2+a p =.c.t.s+C+S@C@t@D@T@U@=@-@;@",
"          V@W@h+s.b.p B _ o * ] ~ I@3 f k g j j i j j g  +f 3 2 ~ A & o _ a p b.s.t.W@B@5+&@d@X@Y@Z@l@ @.@  ",
"          `@W._@<.3+b.p a X ( 8 7 ] ~ 1 O 3 3 4 4 4 3 O 2 1 ~ a@^ 8 9 0 a p b.3+I._@W.i+D+ #.#+#@###$#L+M+  ",
"            %#W._@I.s.=.p Y 0.2+o 8 7 7 A { ~ ~ ~ l ~ ! ] ] ^ & ( _ 0.,+:.=.3+I._@w@Z+5@6@t@D@&#*#=#-#F+G+  ",
"            ;#i+w@_@<.c.L@Z T.a 0._ 2+W & n ^ 7 7 7 ^ & 8 o ( _ 0.a T.Z L >#<._@w@Z+5@C@,#'#Y@)#!#e@u+v+    ",
"              ~#i+{#J.)@]#3+=.:.T.a B 0 _ ^+( 2+2+9 2+2+_ 0 B a ^#:.=.3+U.t.J.W.i+5@C@,#X@N@/#(#=#_#k+l+    ",
"              :#<#i+B@s+d.<.-.` =.Z p ^#a a B B B B a a ,+T.[#Z =.3+c.I.d.s+B@i+5@<@,#X@N@@#}#|#e@u+7+      ",
"                1#&@5+C+w@J.)@I.U.3+L@b.b.Z X+p 1@X+X+Z Z b.L 3+U.<.d.J.w@C+5+D+6@,#X@N@@#2#3#U@-#~+l+      ",
"                  4#!@s@i+B@w@J.d.t.I.U.s.3+3+` 3+` 3+3+s.-.I.t.d.5#Y+B@5+S@!@ #j@6#N@@#2#7#=#}@8#Y.        ",
"                  9#0#C@D+:@i+r@w@4+J._@d.t.h+<.<.<.t.t.)+d.J.4+w@4@i+S@D+C@,#.#'#Y@/#a#b#=#8@ @c#9#        ",
"                    ..d#d@<@D+S@5+Z+r@W.W.4+4+s+s+s+Y+Y+w@W.4@i+:@s@&@<@ #t@x@+#e#/#a#b#=#e@f#g#..          ",
"                      >.h#t@d@6@i#D+s@:@5+i+C+Z+i+C+C+i+5+:@5@D+i#6@d@j@x@D@Y@@#j#k#l#=#e@m#n#>.            ",
"                        >.o#p#7@j@ # #<@i#!@&@D+D+D+&@&@!@<@q#d@,#t@X@D@N@r#)#a#s#t#=#8@f#n#u#              ",
"                          >.v#w#'#x@.#t@j@,#x#d@d@d@,#,#j@t@.#X@'#+#&#r#)#a#y#z#A#U@}@ @g#>.                ",
"                            ..L.B#C#N@+#D@D#6#'#6#X@'#'#D#+#N@E#r#/#j#a#F#G#H#=#e@-#8#c#..                  ",
"                              N Y.~+I#J#K#r#r#e#e#e#&#r#L#/#)#j#a#y#M#N#O#=#e@_#u+~+Y.9#                    ",
"                                  {+7+k+u+P#Q#R#S#T#}#2#U#V#W#b#X#O#U@l@$#Y#u+k+7+{+                        ",
"                                      l+.@F+L+u+=@{@}@8@e@e@e@8@}@{@=@ @L+F+v+l+                            ",
"                                          G+M+.@-@~+|@9@f@m@f@9@|@~+-@.@M+G+                                ",
"                                                ;@]@{+>.u#M+u#>.{+]@;@                                      "};
