/* XPM */
static char * green_jump6_xpm[] = {
"54 54 450 2",
"  	c None",
". 	c #ABC1AB",
"+ 	c #92C093",
"@ 	c #7FBD80",
"# 	c #71BB71",
"$ 	c #66BA66",
"% 	c #5FB95F",
"& 	c #5AB85A",
"* 	c #5CB85C",
"= 	c #62B862",
"- 	c #6CB86C",
"; 	c #79B97B",
"> 	c #8CBC8C",
", 	c #A7BDA7",
"' 	c #86BE87",
") 	c #68BC68",
"! 	c #60BC60",
"~ 	c #62BC62",
"{ 	c #61BB61",
"] 	c #5EBA5E",
"^ 	c #5BB95B",
"/ 	c #5AB85C",
"( 	c #56B656",
"_ 	c #54B454",
": 	c #5CB45C",
"< 	c #7CB67E",
"[ 	c #A4BCA4",
"} 	c #A4C0A5",
"| 	c #7ABC78",
"1 	c #63BD63",
"2 	c #64BE64",
"3 	c #67BF67",
"4 	c #66C066",
"5 	c #67BF69",
"6 	c #5FBB61",
"7 	c #5DB95D",
"8 	c #59B759",
"9 	c #57B557",
"0 	c #53B353",
"a 	c #4FB14F",
"b 	c #69B169",
"c 	c #9AB69A",
"d 	c #B4C2B4",
"e 	c #7FBD7F",
"f 	c #68C068",
"g 	c #6AC26A",
"h 	c #6DC36D",
"i 	c #6CC46C",
"j 	c #6BC36B",
"k 	c #69C169",
"l 	c #61BD63",
"m 	c #5DBB5D",
"n 	c #5BB95D",
"o 	c #58B658",
"p 	c #4DAD4D",
"q 	c #6CAE6C",
"r 	c #A8B6A8",
"s 	c #99BF99",
"t 	c #64BC64",
"u 	c #6FC56F",
"v 	c #71C571",
"w 	c #70C670",
"x 	c #72C672",
"y 	c #71C771",
"z 	c #67C167",
"A 	c #5FBB5F",
"B 	c #50B250",
"C 	c #4DA94D",
"D 	c #87AC86",
"E 	c #88BE88",
"F 	c #73C773",
"G 	c #74C874",
"H 	c #76CA78",
"I 	c #78CA78",
"J 	c #77CB79",
"K 	c #77C977",
"L 	c #4AAA4A",
"M 	c #70A870",
"N 	c #B3B3B3",
"O 	c #66BE66",
"P 	c #7ACC7A",
"Q 	c #7DCD7F",
"R 	c #7DCD7D",
"S 	c #7ECE7E",
"T 	c #7FCD7D",
"U 	c #7CCC7C",
"V 	c #67C169",
"W 	c #57B757",
"X 	c #52B452",
"Y 	c #4DB14D",
"Z 	c #4BAB4B",
"` 	c #49A949",
" .	c #64A465",
"..	c #AEAEAE",
"+.	c #7EBC7E",
"@.	c #70C672",
"#.	c #7FCF7F",
"$.	c #82D082",
"%.	c #83D183",
"&.	c #84D284",
"*.	c #79CB79",
"=.	c #4BA94B",
"-.	c #46A646",
";.	c #63A164",
">.	c #ABABAB",
",.	c #87BD87",
"'.	c #75C773",
").	c #7BCD7B",
"!.	c #80CE80",
"~.	c #86D286",
"{.	c #86D486",
"].	c #89D389",
"^.	c #88D488",
"/.	c #87D286",
"(.	c #85D185",
"_.	c #4CAC4C",
":.	c #43A543",
"<.	c #689E69",
"[.	c #98BE98",
"}.	c #70C470",
"|.	c #85D183",
"1.	c #86D488",
"2.	c #8CD58B",
"3.	c #8DD78D",
"4.	c #8ED88E",
"5.	c #8BD58B",
"6.	c #89D589",
"7.	c #81CF81",
"8.	c #6EC46E",
"9.	c #51B351",
"0.	c #4FAD4D",
"a.	c #46A846",
"b.	c #40A440",
"c.	c #759975",
"d.	c #B3C1B3",
"e.	c #5DB75D",
"f.	c #65BD65",
"g.	c #76CA76",
"h.	c #91D991",
"i.	c #93DB95",
"j.	c #94DC94",
"k.	c #93DB93",
"l.	c #90DA90",
"m.	c #7ECC7C",
"n.	c #74C672",
"o.	c #6AC068",
"p.	c #58B858",
"q.	c #47A747",
"r.	c #42A442",
"s.	c #3FA13F",
"t.	c #899488",
"u.	c #79BB79",
"v.	c #8FD98F",
"w.	c #95DD95",
"x.	c #98DE9A",
"y.	c #99DF9B",
"z.	c #9BDF9B",
"A.	c #9CDE9A",
"B.	c #98DE98",
"C.	c #8DD58D",
"D.	c #7FCF81",
"E.	c #75C975",
"F.	c #69C369",
"G.	c #44A644",
"H.	c #3EA23E",
"I.	c #599759",
"J.	c #979797",
"K.	c #A2BEA2",
"L.	c #9AE09C",
"M.	c #9DE19D",
"N.	c #A0E2A0",
"O.	c #9FE39F",
"P.	c #9DDF9B",
"Q.	c #7ECE80",
"R.	c #4DAF4D",
"S.	c #45A745",
"T.	c #40A240",
"U.	c #3AA03A",
"V.	c #738B73",
"W.	c #A1A1A1",
"X.	c #70B870",
"Y.	c #65BF65",
"Z.	c #68C268",
"`.	c #7BCB7B",
" +	c #84D286",
".+	c #99DD97",
"++	c #9CE09C",
"@+	c #A1E3A1",
"#+	c #A5E4A4",
"$+	c #A4E6A4",
"%+	c #A3E5A3",
"&+	c #9BE19D",
"*+	c #97DD97",
"=+	c #87D185",
"-+	c #4EB04E",
";+	c #4CAA4C",
">+	c #41A341",
",+	c #529452",
"'+	c #8C8C8C",
")+	c #ADADAD",
"!+	c #A8BFA7",
"~+	c #56B456",
"{+	c #77C975",
"]+	c #96DC96",
"^+	c #A6E8A6",
"/+	c #A9E9A9",
"(+	c #ACE9A9",
"_+	c #A7E7A7",
":+	c #A5E5A3",
"<+	c #8BD78B",
"[+	c #83CF81",
"}+	c #55B555",
"|+	c #48A848",
"1+	c #3CA23C",
"2+	c #369C36",
"3+	c #718371",
"4+	c #9B9B9B",
"5+	c #7FB97F",
"6+	c #66C068",
"7+	c #AAEAAA",
"8+	c #AEECAF",
"9+	c #B1EDB1",
"0+	c #AEECAE",
"a+	c #ABEBAB",
"b+	c #92DA92",
"c+	c #8CD88E",
"d+	c #51B151",
"e+	c #42A642",
"f+	c #369E36",
"g+	c #598D59",
"h+	c #898989",
"i+	c #ACACAC",
"j+	c #99DF99",
"k+	c #A2E6A2",
"l+	c #B2F0B2",
"m+	c #B5F1B5",
"n+	c #B4F0B2",
"o+	c #AEEEAE",
"p+	c #3DA13D",
"q+	c #3C983C",
"r+	c #7A7A7A",
"s+	c #9E9E9E",
"t+	c #A7BEA6",
"u+	c #A5E7A7",
"v+	c #AEEEB0",
"w+	c #B6F2B8",
"x+	c #BBF5BB",
"y+	c #7FCD7F",
"z+	c #379F37",
"A+	c #329A32",
"B+	c #6B7D6B",
"C+	c #909090",
"D+	c #B1B1B1",
"E+	c #8ABA8A",
"F+	c #94DC96",
"G+	c #95DB93",
"H+	c #5F835F",
"I+	c #828282",
"J+	c #A9A9A9",
"K+	c #74B674",
"L+	c #94DA92",
"M+	c #A4E4A4",
"N+	c #ACEAAC",
"O+	c #ACEEAC",
"P+	c #ADEAAA",
"Q+	c #A3E5A4",
"R+	c #9EE29E",
"S+	c #91DB91",
"T+	c #8CD88C",
"U+	c #4BAD4B",
"V+	c #3CA03C",
"W+	c #379D37",
"X+	c #508C52",
"Y+	c #797979",
"Z+	c #9F9F9F",
"`+	c #61B361",
" @	c #93D991",
".@	c #9AE09A",
"+@	c #A2E6A4",
"@@	c #9CE09E",
"#@	c #319931",
"$@	c #429042",
"%@	c #727272",
"&@	c #949494",
"*@	c #B5B5B5",
"=@	c #55AF53",
"-@	c #A6E6A4",
";@	c #66BE68",
">@	c #41A541",
",@	c #2F992F",
"'@	c #359335",
")@	c #6E6E6E",
"!@	c #B0B0B0",
"~@	c #4EAA4C",
"{@	c #84D484",
"]@	c #90D890",
"^@	c #3FA33F",
"/@	c #359B35",
"(@	c #2C962C",
"_@	c #6A6A6A",
":@	c #868686",
"<@	c #4FAC4C",
"[@	c #8BD78D",
"}@	c #75C977",
"|@	c #389E38",
"1@	c #329C32",
"2@	c #2E982E",
"3@	c #299529",
"4@	c #676767",
"5@	c #818181",
"6@	c #4CA84C",
"7@	c #60BA60",
"8@	c #6EC470",
"9@	c #80D082",
"0@	c #2C982C",
"a@	c #666666",
"b@	c #7E7E7E",
"c@	c #50AA50",
"d@	c #52B252",
"e@	c #349E34",
"f@	c #2A982A",
"g@	c #329232",
"h@	c #656565",
"i@	c #7D7D7D",
"j@	c #59AD59",
"k@	c #6CC26C",
"l@	c #6EC66E",
"m@	c #53B553",
"n@	c #38A038",
"o@	c #339D33",
"p@	c #299729",
"q@	c #3C8C3C",
"r@	c #6BB16B",
"s@	c #3BA13B",
"t@	c #279527",
"u@	c #4A864A",
"v@	c #82B482",
"w@	c #5EB85C",
"x@	c #399F39",
"y@	c #2F972F",
"z@	c #249424",
"A@	c #577D57",
"B@	c #858585",
"C@	c #A2BAA2",
"D@	c #5CBA5C",
"E@	c #65BD63",
"F@	c #5CBA5E",
"G@	c #4EB24E",
"H@	c #4AA84A",
"I@	c #47A545",
"J@	c #239123",
"K@	c #617161",
"L@	c #4AA44A",
"M@	c #71C773",
"N@	c #59B75B",
"O@	c #339B33",
"P@	c #2D8F2F",
"Q@	c #636363",
"R@	c #6FAD6F",
"S@	c #41A23E",
"T@	c #269626",
"U@	c #229222",
"V@	c #4C824C",
"W@	c #9EB89E",
"X@	c #2D972D",
"Y@	c #289628",
"Z@	c #239323",
"`@	c #1F8F1F",
" #	c #607260",
".#	c #696969",
"+#	c #58A65A",
"@#	c #209220",
"##	c #3E863E",
"$#	c #626262",
"%#	c #6F6F6F",
"&#	c #93B292",
"*#	c #48A646",
"=#	c #2B972B",
"-#	c #269426",
";#	c #1D8F1D",
">#	c #5D735D",
",#	c #5DA45C",
"'#	c #3B9F3B",
")#	c #45A545",
"!#	c #4EAE4E",
"~#	c #1E8E1E",
"{#	c #438343",
"]#	c #6D6D6D",
"^#	c #A4B4A4",
"/#	c #4EAC4E",
"(#	c #1F8D1F",
"_#	c #636C62",
":#	c #7EA87F",
"<#	c #1B8D1B",
"[#	c #5A785A",
"}#	c #64A064",
"|#	c #3DA33D",
"1#	c #4C7F4B",
"2#	c #7F7F7F",
"3#	c #B2B2B2",
"4#	c #589A58",
"5#	c #1A8C1A",
"6#	c #448244",
"7#	c #969696",
"8#	c #569856",
"9#	c #209020",
"0#	c #767676",
"a#	c #919191",
"b#	c #5E9660",
"c#	c #309A30",
"d#	c #1C8E1C",
"e#	c #198B19",
"f#	c #4B7F4B",
"g#	c #757575",
"h#	c #8E8E8E",
"i#	c #6D956D",
"j#	c #2A942A",
"k#	c #2E962E",
"l#	c #1F911F",
"m#	c #1C8A1C",
"n#	c #587858",
"o#	c #AAAAAA",
"p#	c #879387",
"q#	c #4D8D4D",
"r#	c #2B992B",
"s#	c #188C18",
"t#	c #418341",
"u#	c #616B61",
"v#	c #708870",
"w#	c #448C44",
"x#	c #269226",
"y#	c #229022",
"z#	c #188A18",
"A#	c #3B853B",
"B#	c #708270",
"C#	c #508650",
"D#	c #2D8F2D",
"E#	c #258925",
"F#	c #498149",
"G#	c #5F715F",
"H#	c #697969",
"I#	c #597F59",
"J#	c #468646",
"K#	c #378937",
"L#	c #288C28",
"M#	c #1F8B1F",
"N#	c #258B25",
"O#	c #348834",
"P#	c #547C55",
"Q#	c #707070",
"                                                                                                            ",
"                                                                                                            ",
"                                                                                                            ",
"                                                                                                            ",
"                                          . + @ # $ % & * = - ; > ,                                         ",
"                                    . ' ) ! ~ ~ ~ ~ ~ { ] ] ^ / ( _ : < [                                   ",
"                                } | ~ 1 2 3 4 4 4 4 3 5 2 1 ~ 6 7 8 9 0 a b c                               ",
"                            d e ~ 2 3 f g g g h i h j g k f 3 2 l m n o _ a p q r                           ",
"                          s t 1 3 f g i u v w x x y y w u i g z 3 1 A 7 o _ B p C D                         ",
"                        E ! 2 4 g h w F G H I I I J K K G F u i g 4 2 ! 7 o _ a p L M N                     ",
"                      e { O 4 g u y G I P Q R R S R T U P I G F u j V 2 { 7 W X Y Z `  ...                  ",
"                    +.{ 2 4 j @.F I P R #.$.%.&.&.%.%.$.#.R *.I G u j 4 2 { & ( B p =.-.;.>.                ",
"                  ,.] 1 4 j u '.I ).!.$.&.~.{.].^.].{./.(.%.!.U I G u j 4 1 ] 8 _ a _.` :.<.>.              ",
"                [.7 ~ 3 g }.G I R #.|.1.^.2.3.4.4.4.3.5.6.~.(.7.R J G 8.g 3 ~ ^ ( 9.0.=.a.b.c.>.            ",
"              d.e.A f.k i F g.).7.&.{.5.4.h.i.j.j.j.k.l.4.5.{.&.7.m.I n.i o.f.] p._ a _.q.r.s.t...          ",
"              u.^ ! 3 g u G P !.(.{.2.v.k.w.x.y.z.A.B.w.k.v.C.].(.D.P E.u F.3 ~ ^ 9 9.p L G.H.I.J.N         ",
"            K.8 ] 1 z i F I S %.~.5.v.j.B.L.M.N.N.O.M.P.B.j.v.5.~.$.Q.I x i z 1 ] W 0 R.=.S.T.U.V.W.        ",
"            X./ 6 Y.Z.8.G `.!. +^.4.k..+++@+#+$+$+%+%+@+&+*+i.4.6.=+#.P G u g O A & _ -+;+q.>+U.,+'+)+      ",
"          !+~+& { Y.g w {+U $.~.C.l.]+++O.%+^+/+(+/+_+:+N.++w.l.<+~.[+U E.w g 3 { * }+a Z |+r.1+2+3+4+      ",
"          5+}+^ ~ 6+j w g.R %.{.3.k.B.M.%+_+7+8+9+0+a+_+%+M.B.b+c+{.%.R I x j 3 ~ ^ ( d+_.|+e+1+f+g+h+i+    ",
"          : 9 7 1 4 j F I S (.6.4.j.j+N.k+/+0+l+m+n+o+/+k+N.j+j.4.^.(.Q.I x h 4 ~ ^ 9 B p ` r.p+f+q+r+s+    ",
"        t+B }+^ 1 4 j F *.S &.^.4.j.z.O.u+7+v+w+x+m+9+7+$+O.L.j.4.6.%.y+*.y h 4 ~ ^ ( B _.` :.p+z+A+B+C+D+  ",
"        E+B }+7 ~ 4 h F I R %.^.4.F+y.N.$+/+0+l+w+l+o+/+k+N.y.G+4.6.%.y+I F i 4 ~ * ( B _.` :.1+z+A+H+I+J+  ",
"        K+B }+^ ~ 4 j x I R %.{.3.L+B.M.M+^+N+0+v+O+P+_+Q+R+B.S+T+{.%.R K x j 4 ~ ^ }+B U+|+r.V+W+A+X+Y+Z+  ",
"        `+a }+& { 3 g w H ).$.~.5. @]+.@N.+@^+/+7+/+^+:+O.@@]+l.<+/.$.m.K u g 3 ! & _ B Z |+r.1+2+#@$@%@&@*@",
"        =@Y _ & ] O k u G *.!.=+6.4.k.B.++O.%+$+-@k+#+N.++B.k.4.6.&.!.P G u k ;@A 8 _ -+;+q.>@U.2+,@'@)@'+!@",
"        ~@R.0 o ] 1 z h F I R $.{@2.]@j.B.z.M.N.N.N.R+.@B.j.v.5.~.$.R I F h 4 1 ] o 0 R.=.S.^@U./@,@(@_@:@)+",
"        L <@B ( ^ ~ 3 g w E.*.S &.].[@]@k.*+B.y.j+j+B.w.k.v.<+{.&.S P }@@.j 3 ~ 7 ( B p ` G.H.|@1@2@3@4@5@>.",
"        6@Z a _ 8 7@2 z 8@n.K ).7.&.{.5.4.h.k.G+j.k.S+ @4.5.{.&.9@U I y 8.z 2 7@& _ a Z |+r.p+z+A+0@3@a@b@J+",
"        c@=.R.9.( 7 ~ 3 g u '.I Q 7.%.{.6.<+3.4.4.4.3.2.6.~.|.7.).I F u g 3 ~ 7 ( d@R.=.-.b.U.e@,@f@g@h@i@J+",
"        j@` U+a _ 8 ] 1 4 k@@.G I Q !.$. +~.{.].6.^.{.~. +$.#.).I '.l@j 4 1 A 8 m@a _.` :.H.n@o@2@p@q@a@b@J+",
"        r@a.=.p d@( & A 2 4 j w F g.*.R !.[+%.%.%.%.%.$.!.R *.I '.@.j V 2 ! ^ }+9.R.=.a.b.s@2+A+0@t@u@4@5@>.",
"        v@:.|+_.a 0 W w@{ 2 f j u y E.I *.U R S S R R ).*.I }@F u g f 2 ! 7 o X a ;+` :.H.x@/@y@f@z@A@_@B@)+",
"        C@b.S.L p a _ o D@! E@4 g h w F G E.I I *.I I K G y w i g 4 f.{ F@o _ G@p H@I@^@s@f+#@0@t@J@K@)@'+!@",
"          L@>@q.=.R.a _ o ^ A 1 3 k g i 8.w M@F F x x w u h g z 3 1 { ^ N@}+a p =.a.r.p+z+O@y@p@z@P@Q@%@&@*@",
"          R@S@e+q.=.p B _ o * ] ~ E@3 f k g j j i j j g Z.f 3 2 ~ A & o _ a p =.q.r.S@x@2+#@0@T@U@V@h@Y+Z+  ",
"          W@U.^@:.|+=.p a X ( 8 7 ] ~ 1 O 3 3 4 4 4 3 O 2 1 ~ 7@^ 8 9 0 a p =.|+G.^@U.f+A+X@Y@Z@`@ #.#I+J+  ",
"            +#U.^@G.q.=.p Y 9.}+o 8 7 7 A { ~ ~ ~ l ~ ! ] ] ^ & ( _ 9.-+_.=.|+G.^@s@W+1@2@p@z@@###$#%#C+D+  ",
"            &#f+s@^@:.a.H@Z R.a 9._ }+W & n ^ 7 7 7 ^ & 8 o ( _ 9.a R.Z L *#:.^@s@W+1@y@=#-#U@;#>#a@r+s+    ",
"              ,#f+'#H.>@)#|+=._.R.a B 0 _ ~+( }+}+9 }+}+_ 0 B a !#_.=.|+S.r.H.U.f+1@y@=#T@J@~#{#$#]#h+i+    ",
"              ^#2+f+x@p+b.:.-.` =.Z p !#a a B B B B a a -+R./#Z =.|+a.G.b.p+x@f+1@,@=#T@J@`@(#_#a@r+4+      ",
"                :##@2+z+s@H.>@G.S.|+H@=.=.Z U+p <@U+U+Z Z =.L |+S.:.b.H.s@z+2+A+2@=#T@J@`@<#[#Q@%#'+i+      ",
"                  }#,@o@f+x@s@H.b.r.G.S.q.|+|+` |+` |+|+q.-.G.r.b.|#V+x@2+O@,@X@f@-#J@`@<#1#$#_@2#W.        ",
"                  3#4#y@A+/@f+n@s@1+H.^@b.r.e+:.:.:.r.r.>+b.H.1+s@|@f+O@A+y@=#Y@-#U@~#5#6#$#4@Y+7#3#        ",
"                    ..8#0@,@A+O@2+W+n@U.U.1+1+p+p+p+V+V+s@U.|@f+/@o@#@,@X@p@t@Z@9#~#5#6#$#a@0#a#..          ",
"                      >.b#p@0@2@c#A+o@/@2+f+z+W+f+z+z+f+2+/@1@A+c#2@0@f@t@z@U@`@d#e#f#$#a@g#h#>.            ",
"                        >.i#j#3@f@X@X@,@c#,@#@A+A+A+#@#@,@,@k#0@=#p@T@z@J@l#;#5#m#n#$#4@0#h#o#              ",
"                          >.p#q#-#t@Y@p@f@=#r#0@0@0@=#=#f@p@Y@T@-#Z@@#l#;#5#s#t#u#Q@_@Y+a#>.                ",
"                            ..J.v#w#J@Z@z@x#-#-#-#T@-#-#x#Z@J@y#l#~#d#5#z#A#>#$#a@%#2#7#..                  ",
"                              N W.'+B#C#D#l#l#9#9#9#@#l#`@~#;#d#5#s#E#F#G#$#a@]#r+'+W.3#                    ",
"                                  )+4+h+r+H#I#J#K#L#(#<#M#N#O#6#P#G#Q@h@.#Q#r+h+4+)+                        ",
"                                      i+Z+C+I+r+%@)@_@4@a@a@a@4@_@)@%@Y+I+C+s+i+                            ",
"                                          D+J+Z+&@'+:@5@b@i@b@5@:@'+&@Z+J+D+                                ",
"                                                *@!@)+>.o#J+o#>.)+!@*@                                      "};
