/* XPM */
static char *green_destroy4[] = {
"36 36 65 1",
"  c black",
". c #7a8955",
"X c #74846a",
"o c #9d7c38",
"O c #ba7b14",
"+ c #ae7827",
"@ c #997b4a",
"# c #927c56",
"$ c #897d63",
"% c #907b69",
"& c #ab7a4a",
"* c #c4790a",
"= c #968631",
"- c #a99b12",
"; c #b48a35",
": c #b3a734",
"> c #91834f",
", c #888166",
"< c #928165",
"1 c #ae8e4c",
"2 c #bdab4f",
"3 c #d3900f",
"4 c #d49132",
"5 c #dbaa04",
"6 c #d5ac37",
"7 c #e98a01",
"8 c #eb9504",
"9 c #f18e11",
"0 c #f69809",
"q c #fc9715",
"w c #ef9d38",
"e c #eba708",
"r c #eeb30e",
"t c #f8a60a",
"y c #fba813",
"u c #fdb916",
"i c #f3aa31",
"p c #fcba23",
"a c #d29d4c",
"s c #d1b14d",
"d c #f2b84d",
"f c #d9c32f",
"g c #efcc06",
"h c #fdc916",
"j c #fbd716",
"k c #ffc627",
"l c #f9cb30",
"z c #ffd826",
"x c #ffd738",
"c c #efe509",
"v c #fbe818",
"b c #fdfa1b",
"n c #ffe825",
"m c #ffe337",
"M c #fffc26",
"N c #fffa34",
"B c #d6c554",
"V c #f3cd55",
"C c #ffd947",
"Z c #f0d162",
"A c #ffeb48",
"S c #fee755",
"D c #fff250",
"F c #ffe865",
"G c None",
"GGGGGGGGGGGGGGGGGGGGGGGGGGGGGGGGGGGG",
"GGGGGGGGGGGGGGGGGGGGGGGGGGGGGGGGGGGG",
"GGGGGGGGGGGGGGGGGGGGGGGGGGGGGGGGGGGG",
"GGGGGGGGGGGGGG#+3e3p6:=@<GGGGGGGGGGG",
"GGGGGGGGGGGGGG>ZClxmASFs1>$GGGGGGGGG",
"GGGGGGGGGGGGG,=38reerzmDSs=<GGGGGGGG",
"GGGGGGGGGGGX.=:xzzzjnr5jAAB>$GGGGGGG",
"GGGGGGGGGG..=-fNnMMMMMnrrmDZ=,GGGGGG",
"GGGGGGGG$>>::-zvcbMbMMju8rmAB>GGGGGG",
"GGGGGG%&++335zNMbcbbvgzut8ezD2>GGGGG",
"GGGGGG@4w9eeznvMbMbMgjjry00eAF=,GGGG",
"GGGGG#;iy7uznbbbMbMMMMNjzu0tkAs<GGGG",
"GGGG$;dy80ujbMMbbMMbMMMvju80yNS>GGGG",
"GGG#@6C00tznNNNNMMMbMbbbMht08zD=#GGG",
"GGG@;Cu0pthjMMNNMNNMMMbbgzt0tzD2>GGG",
"GGGoaCu7qkjjMNNMMMNNNMbbvjk003FB=GGG",
"GGGoslt7yhjMvMMMMMNNMMMbMjhy78SB=GGG",
"GGG=Zle8uhvbbMMMNMMMNMbvvNhy7eSZ=GGG",
"GGG=ZCe7yjMbbMMMNMMbMMMMvMzy8yCZ=GGG",
"GGGodCr7ujMbMbMMMMMMMMMbvvhy7rDZ=GGG",
"GGG@aSp7yrjMMMbNMMMMMMMbbnu08uDZ=GGG",
"GGG<@6l9trvvMMMNMNNMMbMMvnuq7rSs>GGG",
"GGGG$;Vq7uzjvMvbMMMMbvbMnr07qkF1$GGG",
"GGGG$oVq78khjnvMMMMMMbbjgut0yAV>GGGG",
"GGGGG@;iq90ujjMncMMMMMjjhtt7pF:,GGGG",
"GGGGG#1iqqquuhgjvMMbMjhut7p5Cd>$GGGG",
"GGGGGG14977urrjnNNNNNnhepeexS1<GGGGG",
"GGGGGG%;VytxznNnNNNNNNjzh5lAs@$GGGGG",
"GGGGGGG@;Ck5uznnnAlmAzzzrlSV=,GGGGGG",
"GGGGGGGG#;ixe5pkeppppr3rSVs>$GGGGGGG",
"GGGGGGGGG@;sdi333333*ids;1>%GGGGGGGG",
"GGGGGGGGGGG#@&1awwwwa1##,,GGGGGGGGGG",
"GGGGGGGGGGGG%%@+O*33+@$,GGGGGGGGGGGG",
"GGGGGGGGGGGGGGGGGGGGGGGGGGGGGGGGGGGG",
"GGGGGGGGGGGGGGGGGGGGGGGGGGGGGGGGGGGG",
"GGGGGGGGGGGGGGGGGGGGGGGGGGGGGGGGGGGG"
};
