/* XPM */
static char *green_destroy1[] = {
"36 36 65 1",
"  c black",
". c #0f3008",
"X c #2b3405",
"o c #154206",
"O c #354902",
"+ c #35472f",
"@ c #513401",
"# c #524c05",
"$ c #684f08",
"% c #666218",
"& c #5e644b",
"* c #37b507",
"= c #31ba2f",
"- c #12d50e",
"; c #10e810",
": c #2ccb0e",
"> c #2ae522",
", c #538f01",
"< c #56ae05",
"1 c #748c04",
"2 c #64a91a",
"3 c #60955a",
"4 c #50cf1c",
"5 c #68f453",
"6 c #9d690f",
"7 c #987931",
"8 c #b47407",
"9 c #927c53",
"0 c #897c65",
"q c #a67948",
"w c #c55700",
"e c #cf750b",
"r c #e67a07",
"t c #909308",
"y c #93872e",
"u c #8ea807",
"i c #ae9e1b",
"p c #b48c0c",
"a c #918650",
"s c #898167",
"d c #b0944a",
"f c #a58663",
"g c #b9a94e",
"h c #a2dd54",
"j c #ce8a10",
"k c #d4952f",
"l c #f18d0e",
"z c #fab216",
"x c #e2a426",
"c c #f7ac2b",
"v c #c8944d",
"b c #ccb04e",
"n c #d1c52c",
"m c #f9ca16",
"M c #f6cf2e",
"N c #ffe939",
"B c #d8c958",
"V c #dbc965",
"C c #f9d54d",
"Z c #ebd568",
"A c #ffef4e",
"S c #faeb69",
"D c #a09682",
"F c #cbff8f",
"G c None",
"GGGGGGGGGGGGGGGGGGGGGGGGGGGGGGGGGGGG",
"GGGGGGGGGGGGGGGGGGGGGGGGGGGGGGGGGGGG",
"GGGGGGGGGGGGGGGqq7a9assGGGGGGGGGGGGG",
"GGGGGGGGGGGGGGfvkCMCngd9sGGGGGGGGGGG",
"GGGGGGGGGGGGG3aixMNNAASbda0GGGGGGGGG",
"GGGGGGGGGGGG3322upzMnNAASba0GGGGGGGG",
"GGGGGGGGGG333==:<uuuuinmNABa0GGGGGGG",
"GGGGGGGGG33=-->-::***<upMAAVasGGGGGG",
"GGGGGGGG33=-;;;;----*,1plzNAVasGGGGG",
"GGGGGGG93=-;;;;;-;--*tpjllzAAgaGGGGG",
"GGGGG09di4:;;;;---:*<pjllllmASysGGGG",
"GGGGGavxxu<>-->>::*2tpjllllzNAb9GGGG",
"GGGG0dkclxu*->555<2tj8ejerlzzASaGGGG",
"GGGGakccljp<:4hFhuipp8j88rlrzNAgsGGG",
"GGG0qczzllju<2hhi8jpjjj88wrllMAbaGGG",
"GGG0dCMzllejpiipippp88jjeerrzzAVyGGG",
"GGG9VAzzljjjpj88ppppjpjeelrllzAZyGGG",
"GGG9SAmzljptipjppp88pj8jjlerlzASyGGG",
"GGGagCmljt1,1p8jppp888j8eelllmASyGGG",
"GGGGqxzMj1,,,tpjpj88e888wrrllmNSyGGG",
"GGGG9kcljt1,1pjjjj8j68eeeerllmAVyGGG",
"GGGGsqkclppppjj88j88pp8ewrlrlmAd9GGG",
"GGGGG9vxlejjjee88886$$6errrlcCC70GGG",
"GGGGGG9ecrlejej8886#OX#elxekCCkaGGGG",
"GGGGGG96exj888p767$oo.X6e86@8Cv0GGGG",
"GGGGGG9v68i7%#OOOOX....#$#X#CZy0GGGG",
"GGGGGG0vb$@XXoooo.......XX#ZSb9GGGGG",
"GGGGGGGqvbXX............X#nSBa0GGGGG",
"GGGGGGG0fgd#............#ZSVa0GGGGGG",
"GGGGGGGG09av@X........X$gVVasGGGGGGG",
"GGGGGGGGGG9qq&&+X..X+&0fqq9GGGGGGGGG",
"GGGGGGGGGGG00GGD00DGGGGGG0GGGGGGGGGG",
"GGGGGGGGGGGGGGGGGGGGGGGGGGGGGGGGGGGG",
"GGGGGGGGGGGGGGGGGGGGGGGGGGGGGGGGGGGG",
"GGGGGGGGGGGGGGGGGGGGGGGGGGGGGGGGGGGG",
"GGGGGGGGGGGGGGGGGGGGGGGGGGGGGGGGGGGG"
};
