/* XPM */
static char * paw_down_left_xpm[] = {
"21 14 46 1",
" 	c None",
".	c #2B2A2A",
"+	c #2E2D2D",
"@	c #222222",
"#	c #282728",
"$	c #383737",
"%	c #434141",
"&	c #474545",
"*	c #434242",
"=	c #383637",
"-	c #282727",
";	c #151415",
">	c #4C4A49",
",	c #5A5859",
"'	c #605E5E",
")	c #5A5858",
"!	c #4B4A4A",
"~	c #222121",
"{	c #434142",
"]	c #5A5959",
"^	c #6F6D6D",
"/	c #7A7777",
"(	c #5B5959",
"_	c #121212",
":	c #605F5E",
"<	c #938F8F",
"[	c #484545",
"}	c #444142",
"|	c #5B5958",
"1	c #6F6D6C",
"2	c #444242",
"3	c #131212",
"4	c #222221",
"5	c #393737",
"6	c #4C4A4A",
"7	c #5B5859",
"8	c #4B4A49",
"9	c #232121",
"0	c #0B0B0B",
"a	c #383736",
"b	c #484546",
"c	c #151414",
"d	c #151514",
"e	c #2F2D2D",
"f	c #141515",
"g	c #050504",
"                     ",
"                     ",
"         .+.@        ",
"       #$%&*=-;      ",
"       $>,')!$~      ",
"      .{]^/^({._     ",
"      +&:/</:[+;     ",
"      .}|^/1,2.3     ",
"      456)'78=90     ",
"       -a*b*$-c      ",
"       d~.e.4fg      ",
"         _c_0        ",
"                     ",
"                     "};
