/* XPM */
static char * pink_jump5_xpm[] = {
"54 54 458 2",
"  	c None",
". 	c #C5AFBF",
"+ 	c #C296B4",
"@ 	c #BF83AC",
"# 	c #BD75A8",
"$ 	c #BC6AA4",
"% 	c #BB63A1",
"& 	c #BA5E9F",
"* 	c #BA60A0",
"= 	c #BA66A1",
"- 	c #BA70A4",
"; 	c #BB7DA7",
"> 	c #BE90B0",
", 	c #C1ABBA",
"' 	c #C08AAF",
") 	c #BE6CA6",
"! 	c #BE64A3",
"~ 	c #BE66A4",
"{ 	c #BD65A3",
"] 	c #BC62A1",
"^ 	c #BC62A2",
"/ 	c #BB5FA0",
"( 	c #BA5E9D",
"_ 	c #B85A9C",
": 	c #B6589A",
"< 	c #B6609D",
"[ 	c #B880A6",
"} 	c #C0A8B9",
"| 	c #C4A8BB",
"1 	c #BE7CAC",
"2 	c #BF67A5",
"3 	c #C068A6",
"4 	c #C16BA8",
"5 	c #C26AA8",
"6 	c #C16BA6",
"7 	c #BD63A0",
"8 	c #BB61A1",
"9 	c #B95D9E",
"0 	c #B75B9C",
"a 	c #B5579A",
"b 	c #B35397",
"c 	c #B36D9F",
"d 	c #B99DB1",
"e 	c #C6B8C1",
"f 	c #C082AE",
"g 	c #C26CA9",
"h 	c #C46EAB",
"i 	c #C36FAA",
"j 	c #C571AC",
"k 	c #C56FAC",
"l 	c #C36DAA",
"m 	c #BF65A2",
"n 	c #BD61A2",
"o 	c #BB5F9E",
"p 	c #B85C9D",
"q 	c #B14F94",
"r 	c #B0709D",
"s 	c #BAACB6",
"t 	c #C29EB8",
"u 	c #BE68A5",
"v 	c #C773AE",
"w 	c #C775AF",
"x 	c #C876B0",
"y 	c #C36BA9",
"z 	c #BD63A2",
"A 	c #B45498",
"B 	c #AD4F91",
"C 	c #AF89A5",
"D 	c #C18BB1",
"E 	c #C874AF",
"F 	c #C977B1",
"G 	c #CA78B2",
"H 	c #CB7BB2",
"I 	c #CC7CB4",
"J 	c #CD7BB3",
"K 	c #CB7BB3",
"L 	c #AD4B90",
"M 	c #AA749A",
"N 	c #B7B7B7",
"O 	c #C06AA7",
"P 	c #CE7EB6",
"Q 	c #CF81B6",
"R 	c #CF81B8",
"S 	c #CF83B9",
"T 	c #CF81BA",
"U 	c #CE80B7",
"V 	c #C470AB",
"W 	c #C36BA7",
"X 	c #B95B9D",
"Y 	c #B6569A",
"Z 	c #B35196",
"` 	c #AF4D92",
" .	c #AC4A8F",
"..	c #A76792",
"+.	c #B2B2B2",
"@.	c #BE82AC",
"#.	c #C874AD",
"$.	c #CD7FB6",
"%.	c #D183BA",
"&.	c #D286BC",
"*.	c #D387BD",
"=.	c #D389BD",
"-.	c #D387BC",
";.	c #CD7DB5",
">.	c #AC4C90",
",.	c #A9478C",
"'.	c #A46690",
").	c #AEAEAE",
"!.	c #BF8BB0",
"~.	c #C977B3",
"{.	c #CF7FB7",
"].	c #D084BA",
"^.	c #D187BB",
"/.	c #D48ABE",
"(.	c #D58BBF",
"_.	c #D68CC0",
":.	c #D68EC1",
"<.	c #D78DC1",
"[.	c #D58BC1",
"}.	c #B04E93",
"|.	c #A8448A",
"1.	c #A16B90",
"2.	c #C19BB7",
"3.	c #C674AE",
"4.	c #D387BE",
"5.	c #D68CBE",
"6.	c #D890C4",
"7.	c #D993C4",
"8.	c #DA94C5",
"9.	c #D890C3",
"0.	c #D78FC2",
"a.	c #D185BB",
"b.	c #C672AD",
"c.	c #B55599",
"d.	c #B14F96",
"e.	c #AE4C91",
"f.	c #AA488D",
"g.	c #A64289",
"h.	c #9C7891",
"i.	c #C5B7C2",
"j.	c #B9619F",
"k.	c #BD63A3",
"l.	c #BF69A6",
"m.	c #CB7BB4",
"n.	c #DB97C7",
"o.	c #DD99C7",
"p.	c #DE9ACA",
"q.	c #DD99C9",
"r.	c #DC96C7",
"s.	c #CE80B9",
"t.	c #C876B2",
"u.	c #C26CAB",
"v.	c #BA5C9E",
"w.	c #A74389",
"x.	c #A44086",
"y.	c #978B94",
"z.	c #BE7CAA",
"A.	c #DB95C6",
"B.	c #DF9BCB",
"C.	c #E09ECB",
"D.	c #E19FCC",
"E.	c #E1A1CE",
"F.	c #E0A0CF",
"G.	c #E09ECD",
"H.	c #D892C3",
"I.	c #D183B8",
"J.	c #CB79B3",
"K.	c #C56DAB",
"L.	c #A9458C",
"M.	c #A53F87",
"N.	c #995B87",
"O.	c #9A9A9A",
"P.	c #C2A6BA",
"Q.	c #D082B9",
"R.	c #E2A0CD",
"S.	c #E3A3D0",
"T.	c #E4A6D2",
"U.	c #E5A5D2",
"V.	c #E1A1D0",
"W.	c #D082B7",
"X.	c #B25095",
"Y.	c #AA468D",
"Z.	c #A54187",
"`.	c #A23C84",
" +	c #8E7687",
".+	c #A4A4A4",
"++	c #BA74A6",
"@+	c #C169A7",
"#+	c #C46CAA",
"$+	c #D48ABD",
"%+	c #DF9DCD",
"&+	c #E2A2CF",
"*+	c #E5A7D3",
"=+	c #E6AAD6",
"-+	c #E8AAD6",
";+	c #E6AAD5",
">+	c #E7A9D5",
",+	c #E3A1CE",
"'+	c #DF9DCC",
")+	c #D389BF",
"!+	c #B25296",
"~+	c #AE4E92",
"{+	c #A64288",
"]+	c #A33B84",
"^+	c #975383",
"/+	c #8F8F8F",
"(+	c #B1B1B1",
"_+	c #C3ABBC",
":+	c #B65A9B",
"<+	c #CA7AB5",
"[+	c #DE9CCB",
"}+	c #EAACD8",
"|+	c #EBAFD9",
"1+	c #EBAFDB",
"2+	c #E9ADD7",
"3+	c #E7A9D6",
"4+	c #D991C4",
"5+	c #D185BC",
"6+	c #CA7AB3",
"7+	c #B7599B",
"8+	c #AB498E",
"9+	c #A43E86",
"0+	c #9F3781",
"a+	c #867481",
"b+	c #9E9E9E",
"c+	c #BB83AB",
"d+	c #C26AA6",
"e+	c #ECB0DA",
"f+	c #EEB4DC",
"g+	c #EFB7DF",
"h+	c #EEB4DD",
"i+	c #EDB1DB",
"j+	c #DC98C8",
"k+	c #DA92C3",
"l+	c #B35597",
"m+	c #A8448B",
"n+	c #A03881",
"o+	c #8F5B80",
"p+	c #8C8C8C",
"q+	c #B0B0B0",
"r+	c #E19FCE",
"s+	c #F1B9E1",
"t+	c #F2BCE2",
"u+	c #F1B9E2",
"v+	c #EFB5DE",
"w+	c #A13782",
"x+	c #9B3D7F",
"y+	c #7C7C7C",
"z+	c #A1A1A1",
"A+	c #C1ABBB",
"B+	c #E9ABD5",
"C+	c #EFB5DD",
"D+	c #F3BDE2",
"E+	c #F6C2E7",
"F+	c #E7ABD6",
"G+	c #A13982",
"H+	c #9D337E",
"I+	c #7E6E79",
"J+	c #939393",
"K+	c #B5B5B5",
"L+	c #BC8EAE",
"M+	c #DE9AC8",
"N+	c #DD99CB",
"O+	c #86607C",
"P+	c #858585",
"Q+	c #ACACAC",
"R+	c #B878A5",
"S+	c #DC98CA",
"T+	c #E6AAD4",
"U+	c #ECB2DB",
"V+	c #EFB3DD",
"W+	c #ECB0DC",
"X+	c #E7A9D3",
"Y+	c #E4A4D1",
"Z+	c #DD97C8",
"`+	c #DA92C5",
" @	c #CA7CB3",
".@	c #B14D94",
"+@	c #A33D85",
"@@	c #8E527B",
"#@	c #7B7B7B",
"$@	c #A2A2A2",
"%@	c #B5659D",
"&@	c #DB97C9",
"*@	c #E2A0CF",
"=@	c #E2A2CE",
"-@	c #9C327D",
";@	c #92447B",
">@	c #747474",
",@	c #979797",
"'@	c #B9B9B9",
")@	c #B15799",
"!@	c #E8AAD7",
"~@	c #C26EA9",
"{@	c #C06AA5",
"]@	c #A7438A",
"^@	c #9C307C",
"/@	c #953779",
"(@	c #707070",
"_@	c #B4B4B4",
":@	c #AE4E94",
"<@	c #D68AC0",
"[@	c #DA96C6",
"}@	c #A64088",
"|@	c #9E3680",
"1@	c #992D79",
"2@	c #6C6C6C",
"3@	c #898989",
"4@	c #B04E95",
"5@	c #D991C2",
"6@	c #CA7AB1",
"7@	c #A8468B",
"8@	c #9E347F",
"9@	c #9B2F7B",
"0@	c #982A78",
"a@	c #696969",
"b@	c #848484",
"c@	c #AD4D91",
"d@	c #BC64A2",
"e@	c #C672AB",
"f@	c #D284B9",
"g@	c #9B2D7B",
"h@	c #686868",
"i@	c #818181",
"j@	c #AE5293",
"k@	c #B45699",
"l@	c #A03681",
"m@	c #9B2B7A",
"n@	c #953378",
"o@	c #676767",
"p@	c #808080",
"q@	c #AF5D97",
"r@	c #C872AF",
"s@	c #B7579B",
"t@	c #A23A83",
"u@	c #9F3580",
"v@	c #9A2A79",
"w@	c #8F3D77",
"x@	c #B36F9F",
"y@	c #BE64A4",
"z@	c #A43C85",
"A@	c #982877",
"B@	c #884C76",
"C@	c #B785A8",
"D@	c #BA60A2",
"E@	c #9A307B",
"F@	c #972575",
"G@	c #7F5974",
"H@	c #888888",
"I@	c #BEA6B8",
"J@	c #BC60A1",
"K@	c #BF67A7",
"L@	c #BC609F",
"M@	c #B45297",
"N@	c #AB4B8F",
"O@	c #A8468D",
"P@	c #952373",
"Q@	c #73636E",
"R@	c #A74B8C",
"S@	c #C876AE",
"T@	c #B95D9C",
"U@	c #922E72",
"V@	c #656565",
"W@	c #B0729E",
"X@	c #A53F89",
"Y@	c #962274",
"Z@	c #844E74",
"`@	c #BCA2B4",
" #	c #AA4A8E",
".#	c #9B2D7A",
"+#	c #992978",
"@#	c #962474",
"##	c #931F71",
"$#	c #6B6B6B",
"%#	c #A95B90",
"&#	c #942273",
"*#	c #893F73",
"=#	c #646464",
"-#	c #717171",
";#	c #B595AD",
">#	c #A9478E",
",#	c #9A2C7A",
"'#	c #982676",
")#	c #931D70",
"!#	c #755F6F",
"~#	c #A75F94",
"{#	c #A13D84",
"]#	c #B15195",
"^#	c #921E70",
"/#	c #864473",
"(#	c #6F6F6F",
"_#	c #B8A8B2",
":#	c #9E3880",
"<#	c #B05094",
"[#	c #911F6F",
"}#	c #6E646C",
"|#	c #AB819E",
"1#	c #901C6E",
"2#	c #7B5B72",
"3#	c #A36791",
"4#	c #A13B83",
"5#	c #972776",
"6#	c #814D73",
"7#	c #828282",
"8#	c #B6B6B6",
"9#	c #9C5A89",
"0#	c #901A6D",
"a#	c #854572",
"b#	c #999999",
"c#	c #9A5887",
"d#	c #9A2E7A",
"e#	c #932171",
"f#	c #8F1B6D",
"g#	c #787878",
"h#	c #949494",
"i#	c #986086",
"j#	c #9D317D",
"k#	c #911D6F",
"l#	c #8F196C",
"m#	c #824C72",
"n#	c #777777",
"o#	c #919191",
"p#	c #97718C",
"q#	c #972B77",
"r#	c #992F7A",
"s#	c #942072",
"t#	c #8E1C6C",
"u#	c #7B5971",
"v#	c #ADADAD",
"w#	c #978992",
"x#	c #904E7D",
"y#	c #9C2C7B",
"z#	c #864272",
"A#	c #6D636A",
"B#	c #8B7385",
"C#	c #8F4579",
"D#	c #962675",
"E#	c #942272",
"F#	c #8E186B",
"G#	c #883C72",
"H#	c #84727F",
"I#	c #885278",
"J#	c #922E74",
"K#	c #922070",
"L#	c #8C266E",
"M#	c #834B72",
"N#	c #72626D",
"O#	c #7C6A77",
"P#	c #825A76",
"Q#	c #884875",
"R#	c #8C3873",
"S#	c #8F2971",
"T#	c #8F1F6E",
"U#	c #8E266F",
"V#	c #8B3572",
"W#	c #7E5671",
"X#	c #73616E",
"Y#	c #727272",
"                                                                                                            ",
"                                                                                                            ",
"                                                                                                            ",
"                                                                                                            ",
"                                          . + @ # $ % & * = - ; > ,                                         ",
"                                    . ' ) ! ~ ~ ~ ~ ~ { ] ^ / ( _ : < [ }                                   ",
"                                | 1 ~ 2 3 4 5 5 5 5 4 6 3 2 ~ 7 8 9 0 a b c d                               ",
"                            e f ~ 3 4 g h i i j j j k i l g 4 3 m n o p : b q r s                           ",
"                          t u 2 4 g i j v w w x x x x w v j h y 4 2 z 8 p : A q B C                         ",
"                        D ! 3 5 h j E F G H I I I J K K G F v j h 5 3 ! 8 p : b q L M N                     ",
"                      f { O 5 i v x G I P Q R R S R T U P I G F v V W 3 { 8 X Y Z `  ...+.                  ",
"                    @.{ 3 5 V #.F I $.R %.&.*.=.=.-.*.&.%.R ;.I G v V 5 3 { & _ A q >.,.'.).                ",
"                  !.] 2 5 k v ~.I {.].^./.(._.:.<.:._.[.=.*.].U I G v k 5 2 ] 9 : b }. .|.1.).              ",
"                2.8 ~ 4 h 3.G I R %.4.5.<.6.7.8.8.8.7.9.0.(.=.a.R J G b.h 4 ~ / _ c.d.e.f.g.h.).            ",
"              i.j.k.l.l j F m.{.a.=._.9.8.n.o.p.p.p.q.r.8.9._.=.a.s.I t.j u.l.] v.: b }.f.w.x.y.+.          ",
"              z./ ! 4 i v G $.].=._.6.A.q.B.C.D.E.F.G.B.q.A.H.:.=.I.$.J.v K.4 ~ / 0 c.q L L.M.N.O.N         ",
"            P.9 ^ 2 y j F I Q.*.(.9.A.p.G.R.S.T.T.U.S.V.G.p.A.9.(.^.W.I x j y 2 ] X a X.>.Y.Z.`. +.+        ",
"            ++( 7 @+#+b.G $.].$+<.8.q.%+&+*+=+-+-+;+>+*+,+'+o.8.0.)+%.P G v h O z & : !+~+f.{+]+^+/+(+      ",
"          _+:+& { @+i w <+U &.(.H.r.[+&+U.>+}+|+1+|+2+3+T.&+B.r.4+(.5+U 6+w i 4 { * 7+b ` 8+w.9+0+a+b+      ",
"          c+7+/ ~ d+V w m.R *._.7.q.G.S.>+2+e+f+g+h+i+2+>+S.G.j+k+_.-.R I x k 4 ~ / _ l+}.8+m+9+n+o+p+q+    ",
"          < 0 8 2 5 V F I Q.=.0.8.p.r+T.>+|+h+s+t+u+v+|+>+T.r+p.8.<.=.W.I x j 5 ~ / 0 A q  .w.9+w+x+y+z+    ",
"        A+A 7+/ 2 5 V F ;.S =.<.8.p.E.U.B+e+C+D+E+t+g+e+F+U.R.p.8.0.-.S ;.x j 5 ~ / _ A }. .|.9+G+H+I+J+K+  ",
"        L+A 7+8 ~ 5 j F I R -.<.8.M+D.T.-+|+h+s+D+s+v+|+>+T.D.N+8.0.-.S I F j 5 ~ * _ A }. .|.9+G+H+O+P+Q+  ",
"        R+A 7+/ ~ 5 k x I R *._.7.S+G.S.T+}+U+h+C+V+W+2+X+Y+G.Z+`+_.*.R  @x V 5 ~ / 7+A .@8+w.+@n+H+@@#@$@  ",
"        %@b 7+& { 4 i E H {.&.(.9.&@[+*@T.X+}+|+e+|+}+3+U.=@[+r.4+[.&.s.K v i 4 ! & : A ` 8+w.9+0+-@;@>@,@'@",
"        )@Z : & ] O l v G ;.].)+0.8.q.G.&+U.>+-+!@>+=+T.&+G.q.8.0./.].P G v ~@{@k.9 : !+~+f.]@]+0+^@/@(@/+_@",
"        :@X.a p ^ 2 y j F I R ^.<@6.[@p.G.E.S.T.T.T.Y+*@G.p.A.9.(.^.R I F j 5 2 ^ p a X.e.,.}@`.|@^@1@2@3@(+",
"        L 4@A _ / ~ 4 h E J.;.S =.:.5@[@q.'+G.D.r+r+G.B.q.A.4+_.=.S P 6@#.k 4 ~ 8 _ A q  .7@M.G+8@9@0@a@b@).",
"        c@` b : 9 d@3 y e@t.K {.a.=._.9.8.n.q.N+p.q.Z+&@8.9._.=.f@U I x b.y 3 d@& : b ` 8+w.9+G+H+g@0@h@i@Q+",
"        j@>.X.c._ 8 ~ 4 h v ~.I Q a.-._.0.4+7.8.8.8.7.6.0.(.4.a.{.I F v h 4 ~ 8 _ k@X.e.,.g.]+l@^@m@n@o@p@Q+",
"        q@ ..@b : 9 ^ 2 5 V #.G I Q ].^.$+(._.:.0.<._.(.$+^.%.{.I ~.r@V 5 2 k.9 s@b }. .|.M.t@u@9@v@w@h@i@Q+",
"        x@f.>.q k@_ & z 3 5 V E F m.;.R ].5+-.-.-.-.-.&.].R ;.I ~.#.k W 3 y@/ 7+c.X.>.f.g.z@0+H+g@A@B@a@b@).",
"        C@|.8+}.b a X D@{ 3 g V v x J.I ;.U R Q.Q.R R {.;.I 6@F v i g 3 ! 8 p Y b ~+ .|.M.t@|@E@m@F@G@2@H@(+",
"        I@g.,.L q b : p J@! K@5 h j E F G 6+I I ;.I I K G x E j h 5 l.{ L@p : M@q N@O@}@+@n+-@g@A@P@Q@(@/+_@",
"          R@]@f.e.X.b : p / z 2 4 l i j b.E S@F F x x w v j i y 4 2 { / T@7+b q >.f.w.9+G+8@E@v@F@U@V@>@,@'@",
"          W@X@m+f.c@q A : p * ] ~ K@4 g ~@i k V j V k i #+g 4 3 ~ k.& p : b q e.f.w.X@t@0+-@g@A@Y@Z@o@#@$@  ",
"          `@]+}@|. #c@q b Y _ 9 8 ] ~ 2 O 4 4 5 5 5 4 O 3 2 ~ d@/ 9 0 a b q c@8+7@}@`.n+H+.#+#@###Q@$#P+Q+  ",
"            %#]+}@7@f.>.q Z c.7+p 9 8 8 k.{ ~ ~ ~ m ~ ! ] ^ / & _ : c.!+}.>.8+7@}@+@n+8@9@v@F@&#*#=#-#J+K+  ",
"            ;#n++@}@|.f.N@` X.b c.: 7+X & o / 8 8 8 / & 9 p _ : c.b X.` L >#|.}@+@n+8@E@,#'#Y@)#!#h@y+z+    ",
"              ~#n+{#M.]@7@8+>.}.X.b A a : :+_ 7+7+0 7+7+: a A b ]#}.>.8+,.w.M.`.w+8@E@,#A@P@^#/#=#(#p+q+    ",
"              _#:#n+t@9+g.|.,. .>.` q ]#b b A A A A b b !+X.<#` >.8+f.7@g.9+t@n+8@^@,#A@P@##[#}#h@y+b+      ",
"                |#-@0+G++@M.]@7@Y. #N@e.c@` .@q 4@.@.@` ` e.L 8+Y.|.g.M.+@G+0+H+9@,#A@P@##1#2#V@-#/+q+      ",
"                  3#^@u@n+4#z@M.g.w.7@,.f. #8+ .8+ .8+ #f.,.7@w.g.M.+@t@0+8@^@.#m@5#P@##1#6#=#2@7#.+        ",
"                  8#9#E@H+|@n+t@+@9+M.}@g.w.m+|.|.|.w.w.{+g.M.9++@G+n+8@H+E@,#+#'#Y@^#0#a#=#a@#@b#8#        ",
"                    +.c#g@^@H+8@0+n+t@]+]+9+9+9+9+9++@+@+@]+G+w+|@u@-@^@d#v@A@@#e#^#f#a#=#h@g#h#+.          ",
"                      ).i#v@g@9@j#H+u@|@0+n+G+n+w+G+G+n+0+|@8@H+j#9@g@m@A@F@Y@##k#l#m#=#h@n#o#).            ",
"                        ).p#q#0@m@d#d#^@j#^@-@H+H+H+-@-@^@^@r#g@,#v@A@F@P@s#)#f#t#u#=#a@g#o#v#              ",
"                          ).w#x#'#A@+#v@m@,#y#g@g@g@,#,#m@v@+#A@'#@#&#s#)#0#l#z#A#V@2@#@h#).                ",
"                            +.O.B#C#P@@#F@D#5#'#5#A@'#'#D#@#P@E#s#^#k#0#F#G#!#=#h@-#7#b#+.                  ",
"                              N .+/+H#I#J#s#s#e#e#e#&#s#K#^#)#k#0#l#L#M#N#=#h@(#y+/+.+8#                    ",
"                                  (+b+p+y+O#P#Q#R#S#[#1#T#U#V#a#W#X#V@o@$#Y#y+p+b+(+                        ",
"                                      q+$@J+P+y+>@(@2@a@h@h@h@a@2@(@>@#@P+J+z+q+                            ",
"                                          K+Q+$@,@/+3@b@i@p@i@b@3@/+,@$@Q+K+                                ",
"                                                '@_@(+).v#Q+v#).(+_@'@                                      "};
