/* XPM */
static char * pink_small_xpm[] = {
"32 32 287 2",
"  	c None",
". 	c #666666",
"+ 	c #6C6267",
"@ 	c #80566E",
"# 	c #914F73",
"$ 	c #9C4B77",
"% 	c #A04779",
"& 	c #9F4577",
"* 	c #984574",
"= 	c #8D4A6E",
"- 	c #7C5169",
"; 	c #6B6066",
"> 	c #6A6367",
", 	c #8A5572",
"' 	c #A74D7F",
") 	c #AA5182",
"! 	c #AB5284",
"~ 	c #AB5484",
"{ 	c #AA5384",
"] 	c #A95182",
"^ 	c #A74E80",
"/ 	c #A44A7C",
"( 	c #A04576",
"_ 	c #9B3F72",
": 	c #824969",
"< 	c #696165",
"[ 	c #785C6C",
"} 	c #A2507C",
"| 	c #AC5484",
"1 	c #AF5989",
"2 	c #B25C8C",
"3 	c #B35E8E",
"4 	c #B45F8E",
"5 	c #B35F8D",
"6 	c #B25D8C",
"7 	c #AF5988",
"8 	c #AC5485",
"9 	c #A84E80",
"0 	c #A2487A",
"a 	c #9D4173",
"b 	c #933C6B",
"c 	c #735465",
"d 	c #7D5B6D",
"e 	c #AE5988",
"f 	c #B35F8E",
"g 	c #B76492",
"h 	c #BA6896",
"i 	c #BC6A98",
"j 	c #BC6B98",
"k 	c #B76392",
"l 	c #AF5888",
"m 	c #A4497B",
"n 	c #9D4073",
"o 	c #97386C",
"p 	c #755065",
"q 	c #765D6B",
"r 	c #AF598A",
"s 	c #B56190",
"t 	c #BB6896",
"u 	c #BF6E9B",
"v 	c #C2739F",
"w 	c #C476A2",
"x 	c #C577A3",
"y 	c #BF6F9C",
"z 	c #B56191",
"A 	c #B05A8A",
"B 	c #A3487A",
"C 	c #9C3E71",
"D 	c #953469",
"E 	c #705564",
"F 	c #666566",
"G 	c #9E527C",
"H 	c #B56291",
"I 	c #BC6A97",
"J 	c #C1729F",
"K 	c #C679A5",
"L 	c #CA7EA9",
"M 	c #CD82AC",
"N 	c #CE82AD",
"O 	c #CC82AC",
"P 	c #CB7FA9",
"Q 	c #C679A4",
"R 	c #C2729F",
"S 	c #BB6A97",
"T 	c #B66190",
"U 	c #AF5889",
"V 	c #A84F80",
"W 	c #A04477",
"X 	c #983A6E",
"Y 	c #8B3765",
"Z 	c #666465",
"` 	c #865671",
" .	c #B45F8D",
"..	c #C1729E",
"+.	c #C87BA6",
"@.	c #CE83AD",
"#.	c #D289B2",
"$.	c #D58DB6",
"%.	c #D68FB7",
"&.	c #D289B3",
"*.	c #CD82AD",
"=.	c #C2729E",
"-.	c #BA6897",
";.	c #A44A7B",
">.	c #9C3F71",
",.	c #953468",
"'.	c #794561",
").	c #676566",
"!.	c #A34F7D",
"~.	c #B05989",
"{.	c #BF6E9C",
"].	c #D48CB5",
"^.	c #D993BB",
"/.	c #DD98C0",
"(.	c #DE9AC1",
"_.	c #DD99BF",
":.	c #DA94BB",
"<.	c #D38BB5",
"[.	c #CD83AD",
"}.	c #9F4375",
"|.	c #96376C",
"1.	c #8C2E62",
"2.	c #7B5A6C",
"3.	c #A95181",
"4.	c #B25C8B",
"5.	c #BA6796",
"6.	c #C2749F",
"7.	c #E09DC3",
"8.	c #E5A3C9",
"9.	c #E7A6CC",
"0.	c #E5A4C9",
"a.	c #E09CC3",
"b.	c #A14577",
"c.	c #902E64",
"d.	c #724D61",
"e.	c #8C5272",
"f.	c #AB5383",
"g.	c #BC6B97",
"h.	c #DE98BF",
"i.	c #ECADD2",
"j.	c #F0B2D6",
"k.	c #DD98BF",
"l.	c #D58EB6",
"m.	c #CD81AC",
"n.	c #AB5283",
"o.	c #A24779",
"p.	c #9A3B6F",
"q.	c #923065",
"r.	c #7B3B5E",
"s.	c #984C76",
"t.	c #B3608E",
"u.	c #BD6B98",
"v.	c #C577A2",
"w.	c #DF9AC1",
"x.	c #F8BDE0",
"y.	c #E7A6CB",
"z.	c #DE9BC1",
"A.	c #C477A3",
"B.	c #BC6B99",
"C.	c #AB5384",
"D.	c #9A3C6F",
"E.	c #923066",
"F.	c #832F5C",
"G.	c #9F4878",
"H.	c #B35E8D",
"I.	c #EFB2D6",
"J.	c #ECADD1",
"K.	c #DD99C0",
"L.	c #D58DB5",
"M.	c #C576A2",
"N.	c #A34779",
"O.	c #912F65",
"P.	c #87275B",
"Q.	c #A04577",
"R.	c #B15D8C",
"S.	c #D993BC",
"T.	c #E5A3CA",
"U.	c #D994BB",
"V.	c #CB7EA9",
"W.	c #A14578",
"X.	c #993A6D",
"Y.	c #902F64",
"Z.	c #87225A",
"`.	c #9C4474",
" +	c #A84E7F",
".+	c #BF6F9B",
"++	c #D48BB4",
"@+	c #D38CB5",
"#+	c #A74E7F",
"$+	c #9F4276",
"%+	c #96376B",
"&+	c #8E2C62",
"*+	c #842458",
"=+	c #934570",
"-+	c #A4497C",
";+	c #BA6997",
">+	c #D68EB8",
",+	c #D189B2",
"'+	c #C77BA6",
")+	c #BB6996",
"!+	c #9C3F72",
"~+	c #943468",
"{+	c #8C295E",
"]+	c #7F2957",
"^+	c #86496B",
"/+	c #A84F7F",
"(+	c #B56290",
"_+	c #CA7FA9",
":+	c #CC81AC",
"<+	c #993A6E",
"[+	c #89245B",
"}+	c #773459",
"|+	c #775367",
"1+	c #9C3E72",
"2+	c #C273A0",
"3+	c #C576A1",
"4+	c #B05A89",
"5+	c #8D2A60",
"6+	c #861F57",
"7+	c #6E475D",
"8+	c #933A6A",
"9+	c #9D4074",
"0+	c #BA6895",
"a+	c #A3497A",
"b+	c #9D4174",
"c+	c #902E63",
"d+	c #7F1D53",
"e+	c #7C4965",
"f+	c #98396C",
"g+	c #A3477A",
"h+	c #9E4073",
"i+	c #913065",
"j+	c #8B265E",
"k+	c #841E55",
"l+	c #713B58",
"m+	c #666565",
"n+	c #97376C",
"o+	c #97376B",
"p+	c #8C285E",
"q+	c #7B2052",
"r+	c #705463",
"s+	c #953569",
"t+	c #A2477A",
"u+	c #A14678",
"v+	c #9F4376",
"w+	c #943469",
"x+	c #8B275E",
"y+	c #851F57",
"z+	c #801750",
"A+	c #6C4F5F",
"B+	c #943368",
"C+	c #9A3C70",
"D+	c #912F64",
"E+	c #7F174F",
"F+	c #6E475C",
"G+	c #6F5061",
"H+	c #85295B",
"I+	c #8F2B61",
"J+	c #8F2C62",
"K+	c #8C285F",
"L+	c #89255C",
"M+	c #821A52",
"N+	c #7A1A4E",
"O+	c #6D4C5D",
"P+	c #686064",
"Q+	c #773A5B",
"R+	c #862058",
"S+	c #882259",
"T+	c #89245A",
"U+	c #89255B",
"V+	c #882359",
"W+	c #872157",
"X+	c #841D55",
"Y+	c #811951",
"Z+	c #7D154E",
"`+	c #733557",
" @	c #675F63",
".@	c #685D63",
"+@	c #71425B",
"@@	c #782E56",
"#@	c #7E2153",
"$@	c #7F1951",
"%@	c #7F184F",
"&@	c #7B1D50",
"*@	c #762A53",
"=@	c #70405A",
"-@	c #685C63",
". . . . . . . . . . . . . . . . . . . . . . . . . . . . . . . . ",
". . . . . . . . . . . . . . . . . . . . . . . . . . . . . . . . ",
". . . . . . . . . . . . . . . . . . . . . . . . . . . . . . . . ",
". . . . . . . . . . . . . . . . . . . . . . . . . . . . . . . . ",
". . . . . . . . . . . + @ # $ % & * = - ; . . . . . . . . . . . ",
". . . . . . . . . > , ' ) ! ~ { ] ^ / ( _ : < . . . . . . . . . ",
". . . . . . . . [ } | 1 2 3 4 5 6 7 8 9 0 a b c . . . . . . . . ",
". . . . . . . d ] e f g h i j i h k f l ] m n o p . . . . . . . ",
". . . . . . q ) r s t u v w x w v y h z A ] B C D E . . . . . . ",
". . . . . F G l H I J K L M N O P Q R S T U V W X Y Z . . . . . ",
". . . . . ` |  .t ..+.@.#.$.%.$.&.*.+.=.-.f 8 ;.>.,.'.. . . . . ",
". . . . ).!.~.k {.Q @.].^./.(._.:.<.[.K {.g 1 ' }.|.1.Z . . . . ",
". . . . 2.3.4.5.6.L &.^.7.8.9.0.a.^.#.L v h 6 ] b.X c.d.. . . . ",
". . . . e.f.3 g.w O $.h.8.i.j.i.8.k.l.m.w i f n.o.p.q.r.. . . . ",
". . . . s.| t.u.v.[.%.w.9.j.x.j.y.z.%.N A.B.4 C.B D.E.F.. . . . ",
". . . . G.f.H.i w m.$._.8.i.I.J.0.K.L.M M.j f C.N.D.O.P.. . . . ",
". . . . Q.] R.h v L &.S.7.T.y.8.a.U.&.V.v h 2 ] W.X.Y.Z.. . . . ",
". . . . `. +1 g .+K *.++^./.z./.S.@+*.Q {.g 7 #+$+%+&+*+. . . . ",
". . . . =+-+8  .;+..+.@.&.$.>+L.,+*.'+J )+f ~ -+!+~+{+]+. . . . ",
". . . . ^+W /+1 (+g.J Q _+:+[.O L Q R j s l  +W <+O.[+}+. . . . ",
". . . . |+1+o.] A s h .+2+w x 3+2+u t H 4+] B C D 5+6+7+. . . . ",
". . . . Z 8+9+m ] e  .k 0+j u.i 0+g H.l ) a+b+|.c+[+d+Z . . . . ",
". . . . . e+f+n g+/+| ~.2 f 4 3 2 1 | 9 B h+f+i+j+k+l+. . . . . ",
". . . . . m+Y n+1+b.-+#+) C.C.! ] #+/ W C o+i+p+6+q+Z . . . . . ",
". . . . . . r+c+s+X 1+}.W.t+N.o.u+v+1+X w+c+x+y+z+A+. . . . . . ",
". . . . . . . d.5+O.B+o+X p.C+p.X o B+D+5+[+k+E+F+. . . . . . . ",
". . . . . . . . G+H+p+I+c.i+E.i+c+J+K+L+6+M+N+O+. . . . . . . . ",
". . . . . . . . . P+Q+R+S+T+U+[+V+W+X+Y+Z+`+ @. . . . . . . . . ",
". . . . . . . . . . . .@+@@@#@$@%@&@*@=@-@. . . . . . . . . . . ",
". . . . . . . . . . . . . . . . . . . . . . . . . . . . . . . . ",
". . . . . . . . . . . . . . . . . . . . . . . . . . . . . . . . ",
". . . . . . . . . . . . . . . . . . . . . . . . . . . . . . . . "};
