/* XPM */
static char *pink_destroy1[] = {
"36 36 65 1",
"  c black",
". c #350b19",
"X c #330a2d",
"o c #48120b",
"O c #4c0d33",
"+ c #612324",
"@ c #471d43",
"# c #664c5b",
"$ c #7f8061",
"% c #8b301f",
"& c #b8196c",
"* c #a85724",
"= c #957b55",
"- c #8f7a6a",
"; c #a7725b",
": c #cb314e",
"> c #cd2b6a",
", c #d34f15",
"< c #da542e",
"1 c #dc6312",
"2 c #d86934",
"3 c #e75632",
"4 c #ec6e12",
"5 c #ef6c2c",
"6 c #d64f4a",
"7 c #de6d55",
"8 c #f1584d",
"9 c #f2556c",
"0 c #f86a47",
"q c #b127a9",
"w c #a16297",
"e c #cf1a94",
"r c #d6209e",
"t c #d712d0",
"y c #de0ee1",
"u c #e31dd2",
"i c #e80feb",
"p c #ef5c99",
"a c #fa61ec",
"s c #948b34",
"d c #ad9a36",
"f c #8e8550",
"g c #878367",
"h c #ac8a4c",
"j c #bda659",
"k c #d08b32",
"l c #cda433",
"z c #f88d11",
"x c #f88b28",
"c c #faaf14",
"v c #f8ab2c",
"b c #ce9050",
"n c #d1a453",
"m c #dab267",
"M c #fdaf4e",
"N c #fbc817",
"B c #fbcd30",
"V c #ffec38",
"C c #f3d553",
"Z c #e2cc64",
"A c #feef51",
"S c #fceb6b",
"D c #daa281",
"F c #ffaaff",
"G c None",
"GGGGGGGGGGGGGGGGGGGGGGGGGGGGGGGGGGGG",
"GGGGGGGGGGGGGGGGGGGGGGGGGGGGGGGGGGGG",
"GGGGGGGGGGGGGGG===h=ffg-GGGGGGGGGGGG",
"GGGGGGGGGGGGGG=nkBCnndsf-GGGGGGGGGGG",
"GGGGGGGGGGGGGw;7xvAAAASZhf-GGGGGGGGG",
"GGGGGGGGGGGGwwwp90MMCCAAAnsgGGGGGGGG",
"GGGGGGGGGGwwwqqre99822vBAAZfgGGGGGGG",
"GGGGGGGGGwwqttyttreee:65vAACs$GGGGGG",
"GGGGGGGGwwqtiiiytttte&:54vBAZfGGGGGG",
"GGGGGGG=;qtyiiiyyytte:05zzcVAjfGGGGG",
"GGGGGG=b7rtyiyyyttte>855zzcNASsgGGGG",
"GGGGG=hMM9euyyyutrr>90554xzcBAlgGGGG",
"GGGG-hlBxx9rtuaauep9033514zccVAfGGGG",
"GGGG=lBcz58pruFFp9838<0<<144cVAhgGGG",
"GGGGhCBc4409>rpp9833035<,,xzzBAm=GGG",
"GGG=jABcz55889990380<3531144ccAZsGGG",
"GGG=mAcv4538883333<<0355154zzcAZsGGG",
"GGGfSANc508:98330<<<<3<55444zcASsGGG",
"GGGfdAcz43:&>8303033<<<,114zzcASsGGG",
"GGGGhkcc5:&&&68<<3<3<,,,114zcNASsGGG",
"GGGG=kvvx:>>>6805532<,5,41zzccAZsGGG",
"GGGG-;kxx<86<35<<3<3<<21,444zcAj=GGG",
"GGGGG=b5x4555,33<<26%%*2454zcVBh-GGG",
"GGGGGG=kx451335,,2*+O+%2155xvClfGGGG",
"GGGGGG-%1x5<<27<7*%OOOo*2*%o*SdfGGGG",
"GGGGGG-k**2*%+++OOOOXX.+*+ooCZhgGGGG",
"GGGGGG-bb%ooOOOOOXXXXXX.ooolSjfGGGGG",
"GGGGGGG;mbooXXXXXXXXXXXXo*lSZf-GGGGG",
"GGGGGGG==mj+..XXXXXXXXX.+ZSZsgGGGGGG",
"GGGGGGGG-=hD+..XXXXXXX.+jmZfgGGGGGGG",
"GGGGGGGGGG=;;-#@@.X@@#-;=h=gGGGGGGGG",
"GGGGGGGGGGGGGGG----GGGGG--GGGGGGGGGG",
"GGGGGGGGGGGGGGGGGGGGGGGGGGGGGGGGGGGG",
"GGGGGGGGGGGGGGGGGGGGGGGGGGGGGGGGGGGG",
"GGGGGGGGGGGGGGGGGGGGGGGGGGGGGGGGGGGG",
"GGGGGGGGGGGGGGGGGGGGGGGGGGGGGGGGGGGG"
};
