/* XPM */
static char * pink_jump1_xpm[] = {
"54 54 445 2",
"  	c None",
". 	c #CDB9C7",
"+ 	c #C9A3BD",
"@ 	c #C791B6",
"# 	c #C484B1",
"$ 	c #C379AD",
"% 	c #C272AA",
"& 	c #C16DA8",
"* 	c #C16FA9",
"= 	c #C175AB",
"- 	c #C17FAE",
"; 	c #C38BB1",
"> 	c #C59DB9",
", 	c #C8B6C3",
"' 	c #C797B8",
") 	c #C57BAF",
"! 	c #C474AD",
"~ 	c #C575AD",
"{ 	c #C474AC",
"] 	c #C272AB",
"^ 	c #C371AB",
"/ 	c #C26EA9",
"( 	c #C16DA6",
"_ 	c #BF6BA6",
": 	c #BD69A4",
"< 	c #BD6FA6",
"[ 	c #C08EB0",
"} 	c #C8B2C1",
"| 	c #CBB3C3",
"1 	c #C58BB5",
"2 	c #C676AE",
"3 	c #C777AF",
"4 	c #C87AB1",
"5 	c #C77BB1",
"6 	c #C87AAF",
"7 	c #C373AA",
"8 	c #C270AA",
"9 	c #C06CA7",
"0 	c #BD67A4",
"a 	c #BA64A1",
"b 	c #BB7BA8",
"c 	c #C1A9BA",
"d 	c #CDC1C9",
"e 	c #C791B7",
"f 	c #C87CB2",
"g 	c #CA7EB4",
"h 	c #CB81B5",
"i 	c #CC80B6",
"j 	c #CB7FB5",
"k 	c #C97DB3",
"l 	c #C575AC",
"m 	c #C470AB",
"n 	c #C26EA7",
"o 	c #B8609E",
"p 	c #B87EA7",
"q 	c #C2B6BE",
"r 	c #C9A9C0",
"s 	c #C577AE",
"t 	c #CD83B7",
"u 	c #CD85B8",
"v 	c #CE84B8",
"w 	c #CE86B9",
"x 	c #CF85B9",
"y 	c #C97BB2",
"z 	c #C373AC",
"A 	c #BC64A2",
"B 	c #B65E9C",
"C 	c #B896AF",
"D 	c #C898BA",
"E 	c #CF87BA",
"F 	c #D088BB",
"G 	c #D189BA",
"H 	c #D28ABD",
"I 	c #D18BBD",
"J 	c #D28ABB",
"K 	c #D08ABC",
"L 	c #B95F9E",
"M 	c #B75B9C",
"N 	c #B282A4",
"O 	c #C0C0C0",
"P 	c #C779B0",
"Q 	c #D38DBF",
"R 	c #D490BF",
"S 	c #D490C0",
"T 	c #D591C1",
"U 	c #D490C2",
"V 	c #D48EBF",
"W 	c #C97BB0",
"X 	c #BA62A0",
"Y 	c #B75D9D",
"Z 	c #B7599B",
"` 	c #AF779D",
" .	c #BBBBBB",
"..	c #C690B6",
"+.	c #CE84B7",
"@.	c #D38DBE",
"#.	c #D692C2",
"$.	c #D795C4",
"%.	c #D896C5",
"&.	c #D997C6",
"*.	c #D28CBD",
"=.	c #BB65A2",
"-.	c #B65C9C",
";.	c #B75399",
">.	c #AD759B",
",.	c #B8B8B8",
"'.	c #C797B9",
").	c #CF87BB",
"!.	c #D999C6",
"~.	c #DA9AC7",
"{.	c #DB9BC8",
"].	c #DA98C8",
"^.	c #D898C5",
"/.	c #D38FBF",
"(.	c #B85E9D",
"_.	c #B74F98",
":.	c #AA7A9B",
"<.	c #C8A8C0",
"[.	c #CC84B7",
"}.	c #D896C6",
"|.	c #DB99C6",
"1.	c #DC9ECB",
"2.	c #DEA0CC",
"3.	c #DFA1CD",
"4.	c #DC9ECA",
"5.	c #DC9CC9",
"6.	c #D694C3",
"7.	c #CC82B6",
"8.	c #BC66A3",
"9.	c #B860A0",
"0.	c #B7559A",
"a.	c #B84A98",
"b.	c #A5859C",
"c.	c #CCC0C9",
"d.	c #C070A8",
"e.	c #C472AC",
"f.	c #C678AF",
"g.	c #D189BC",
"h.	c #DEA2CD",
"i.	c #E0A4CE",
"j.	c #E2A6CF",
"k.	c #E2A6D0",
"l.	c #E0A4CF",
"m.	c #D48EC1",
"n.	c #CE86BB",
"o.	c #C87CB4",
"p.	c #B74D98",
"q.	c #B64896",
"r.	c #A1979F",
"s.	c #C58BB4",
"t.	c #DFA3CE",
"u.	c #E3A7D1",
"v.	c #E4AAD1",
"w.	c #E5ABD2",
"x.	c #E5ADD5",
"y.	c #E4ACD5",
"z.	c #E4AAD3",
"A.	c #E0A2CE",
"B.	c #DD9FCB",
"C.	c #D692C0",
"D.	c #CB7DB4",
"E.	c #BD65A3",
"F.	c #B85099",
"G.	c #B74796",
"H.	c #A66894",
"I.	c #A5A5A5",
"J.	c #C9B1C2",
"K.	c #E6ACD3",
"L.	c #E7AFD6",
"M.	c #E8B2D8",
"N.	c #E5ADD6",
"O.	c #D591C0",
"P.	c #B9619F",
"Q.	c #B8529A",
"R.	c #B74997",
"S.	c #B74395",
"T.	c #998393",
"U.	c #AEAEAE",
"V.	c #C282AF",
"W.	c #CA7CB3",
"X.	c #D28EBE",
"Y.	c #D997C4",
"Z.	c #E3A9D3",
"`.	c #E6AED5",
" +	c #E9B3D9",
".+	c #EAB6DC",
"++	c #EBB7DC",
"@+	c #EAB6DB",
"#+	c #EBB5DB",
"$+	c #E6AED4",
"%+	c #E3A9D2",
"&+	c #D898C7",
"*+	c #B963A0",
"=+	c #B75D9C",
"-+	c #B74B97",
";+	c #A65E91",
">+	c #9A9A9A",
",+	c #BABABA",
"'+	c #CAB6C5",
")+	c #BE6AA5",
"!+	c #D088BD",
"~+	c #DA98C6",
"{+	c #E2A8D1",
"]+	c #EDB9DE",
"^+	c #EEBCDF",
"/+	c #EEBCE0",
"(+	c #ECBADD",
"_+	c #DE9ECB",
":+	c #D694C4",
"<+	c #B7579B",
"[+	c #B74596",
"}+	c #B43E91",
"|+	c #91818D",
"1+	c #A9A9A9",
"2+	c #C391B4",
"3+	c #EFBDE0",
"4+	c #F1C1E2",
"5+	c #F2C4E4",
"6+	c #F1C1E3",
"7+	c #F0BEE1",
"8+	c #E0A6CF",
"9+	c #DEA0CA",
"0+	c #B84E99",
"a+	c #B53F92",
"b+	c #9E668E",
"c+	c #979797",
"d+	c #B9B9B9",
"e+	c #E5ABD4",
"f+	c #F3C5E6",
"g+	c #F5C7E7",
"h+	c #F3C5E7",
"i+	c #F2C2E4",
"j+	c #B64695",
"k+	c #AF4590",
"l+	c #898989",
"m+	c #ACACAC",
"n+	c #C9B5C4",
"o+	c #D28CBE",
"p+	c #ECB8DC",
"q+	c #F2C2E3",
"r+	c #F5C9E7",
"s+	c #F8CEEC",
"t+	c #D492C1",
"u+	c #B64093",
"v+	c #B23A8F",
"w+	c #8C7A87",
"x+	c #9E9E9E",
"y+	c #BEBEBE",
"z+	c #C39BB7",
"A+	c #E1A7D1",
"B+	c #956B8A",
"C+	c #919191",
"D+	c #B6B6B6",
"E+	c #C086AF",
"F+	c #E1A5D1",
"G+	c #EFBFE1",
"H+	c #F2C0E3",
"I+	c #EFBDE1",
"J+	c #EBB5DA",
"K+	c #E8B0D7",
"L+	c #E1A5CF",
"M+	c #D08ABB",
"N+	c #B85E9E",
"O+	c #B54594",
"P+	c #B44092",
"Q+	c #9E5C89",
"R+	c #888888",
"S+	c #BC74A7",
"T+	c #E0A4D0",
"U+	c #E6ACD5",
"V+	c #B2388E",
"W+	c #A64C8B",
"X+	c #818181",
"Y+	c #A2A2A2",
"Z+	c #C2C2C2",
"`+	c #B967A3",
" @	c #EBB7DD",
".@	c #C779AE",
"+@	c #B84C98",
"@@	c #B1378D",
"#@	c #AA3E8A",
"$@	c #7D7D7D",
"%@	c #BDBDBD",
"&@	c #B75D9E",
"*@	c #DA98C7",
"=@	c #DFA3CD",
"-@	c #B7539A",
";@	c #B84897",
">@	c #B33D90",
",@	c #AE348A",
"'@	c #7A7A7A",
")@	c #959595",
"!@	c #B85E9F",
"~@	c #DD9FC9",
"{@	c #D088B9",
"]@	c #B75199",
"^@	c #B54193",
"/@	c #B33B90",
"(@	c #B1358C",
"_@	c #AE3089",
":@	c #777777",
"<@	c #909090",
"[@	c #B65C9B",
"}@	c #C373AB",
"|@	c #CC82B5",
"1@	c #E1A7D0",
"2@	c #D793C1",
"3@	c #B1338C",
"4@	c #767676",
"5@	c #8D8D8D",
"6@	c #B6629D",
"7@	c #DB99C7",
"8@	c #B53D92",
"9@	c #B0328B",
"0@	c #A93B89",
"a@	c #757575",
"b@	c #8C8C8C",
"c@	c #B76DA1",
"d@	c #CA80B4",
"e@	c #DA9CC8",
"f@	c #CE82B8",
"g@	c #BE68A5",
"h@	c #B74194",
"i@	c #B43C91",
"j@	c #B0308A",
"k@	c #A24687",
"l@	c #BB7DA9",
"m@	c #C573AD",
"n@	c #AE2E88",
"o@	c #9A5686",
"p@	c #BF93B2",
"q@	c #C16FAB",
"r@	c #B64294",
"s@	c #B0368C",
"t@	c #AD2B87",
"u@	c #906483",
"v@	c #949494",
"w@	c #C6B0C0",
"x@	c #C36FAA",
"y@	c #C676B0",
"z@	c #C36FA8",
"A@	c #BB63A1",
"B@	c #B65A9B",
"C@	c #B7519B",
"D@	c #B64495",
"E@	c #AB2985",
"F@	c #82707C",
"G@	c #B45899",
"H@	c #BA609F",
"I@	c #CF85B7",
"J@	c #C06CA5",
"K@	c #A73583",
"L@	c #737373",
"M@	c #B880A8",
"N@	c #B74799",
"O@	c #AF2D89",
"P@	c #AD2785",
"Q@	c #965884",
"R@	c #C3ADBD",
"S@	c #C67AB0",
"T@	c #B0348C",
"U@	c #AF2F89",
"V@	c #AC2A86",
"W@	c #AA2482",
"X@	c #82707D",
"Y@	c #797979",
"Z@	c #B16B9B",
"`@	c #AB2784",
" #	c #9C4883",
".#	c #727272",
"+#	c #7E7E7E",
"@#	c #BDA1B6",
"##	c #B7539C",
"$#	c #AF338B",
"%#	c #AE2C88",
"&#	c #AA2282",
"*#	c #846C7E",
"=#	c #B06E9E",
"-#	c #B64494",
";#	c #A92382",
">#	c #984E82",
",#	c #C0B2BB",
"'#	c #B33F91",
")#	c #A82481",
"!#	c #7C727A",
"~#	c #B48EA8",
"{#	c #AA2081",
"]#	c #8B6781",
"^#	c #AC769C",
"/#	c #B84697",
"(#	c #AD2D87",
"_#	c #935783",
":#	c #8E8E8E",
"<#	c #BFBFBF",
"[#	c #A86895",
"}#	c #A91F80",
"|#	c #A4A4A4",
"1#	c #A76594",
"2#	c #B0348B",
"3#	c #AA2683",
"4#	c #858585",
"5#	c #9F9F9F",
"6#	c #A46E93",
"7#	c #A81E7F",
"8#	c #935781",
"9#	c #848484",
"0#	c #9C9C9C",
"a#	c #A17F97",
"b#	c #AD3188",
"c#	c #B3398F",
"d#	c #AF358B",
"e#	c #AB2584",
"f#	c #A7217F",
"g#	c #8B6580",
"h#	c #B7B7B7",
"i#	c #A1959D",
"j#	c #A2588C",
"k#	c #A91D80",
"l#	c #984C82",
"m#	c #7C7078",
"n#	c #968090",
"o#	c #A24E89",
"p#	c #AC2C86",
"q#	c #AA2884",
"r#	c #A71D7E",
"s#	c #9B4582",
"t#	c #856B7D",
"u#	c #917F8C",
"v#	c #9A5C88",
"w#	c #A73585",
"x#	c #A92582",
"y#	c #A22C7F",
"z#	c #955582",
"A#	c #816F7C",
"B#	c #897784",
"C#	c #926685",
"D#	c #9A5285",
"E#	c #A04084",
"F#	c #A43082",
"G#	c #A72581",
"H#	c #A42C81",
"I#	c #9F3D82",
"J#	c #8F6180",
"K#	c #826E7D",
"L#	c #7F7F7F",
"                                                                                                            ",
"                                                                                                            ",
"                                                                                                            ",
"                                                                                                            ",
"                                          . + @ # $ % & * = - ; > ,                                         ",
"                                    . ' ) ! ~ ~ ~ ~ ~ { ] ^ / ( _ : < [ }                                   ",
"                                | 1 ~ 2 3 4 4 4 4 4 5 6 3 2 ~ 7 8 9 _ 0 a b c                               ",
"                            d e ~ 3 4 f g g g h i h j g k f 5 3 l m n _ : a o p q                           ",
"                          r s 2 4 f g i t u v w w x x v t i g y 4 2 z 8 _ : A o B C                         ",
"                        D ! 3 4 g h v E F G H I H J K K F E t i g 4 3 ! 8 _ : a L M N O                     ",
"                      e { P 4 g t x F H Q R S S T S U V Q H F E t j W 3 { 8 _ 0 X Y Z `  .                  ",
"                    ..{ 3 4 j +.E H @.S #.$.%.&.&.%.%.$.#.S *.H F t j 4 3 { & _ =.o -.;.>.,.                ",
"                  '.] 2 4 j t ).H V #.$.&.!.~.{.{.{.~.].^.%.#./.H F t j 4 2 ] 9 : a (.Z _.:.,.              ",
"                <.8 ~ 4 g [.F H S #.}.|.{.1.2.3.3.3.2.4.5.!.^.6.S J F 7.g 4 ~ / _ 8.9.M 0.a.b.,.            ",
"              c.d.e.f.k i E g.V 6.&.~.4.h.i.j.k.k.k.k.l.h.4.~.&.6.m.H n.i o.f.] 9 : a (.0.p.q.r. .          ",
"              s./ ! 5 g t F @.#.^.~.1.t.k.u.v.w.x.y.z.u.k.A.B.{.^.C.@.F t D.5 ~ / _ E.o M F.G.H.I.O         ",
"            J.9 ^ 2 y i E H T %.!.4.A.k.z.K.L.M.M.M.L.N.z.k.t.4.!.$.O.H w i y 2 ] _ 0 P.-.Q.R.S.T.U.        ",
"            V.( 7 P W.7.F X.#.Y.{.3.k.Z.`. +.+++++@+#+ +$+%+j.3.5.&+#.Q F t g P z & : *+=+0.-+S.;+>+,+      ",
"          '+)+& { P g v !+V $.~+B.l.{+`.M.@+]+^+/+^+(+.+M.`.u.l._+~+:+V F v g 4 { * )+a Y <+p.[+}+|+1+      ",
"          2+)+/ ~ 6 j v g.S %.~.2.k.z.L.#+(+3+4+5+6+7+(+#+L.z.8+9+~.%.S H w j 5 ~ / _ =.(.<+0+[+a+b+c+d+    ",
"          < _ 8 2 4 j E H T ^.5.3.k.e+M.#+^+6+f+g+h+i+^+#+M.e+k.3.{.^.O.H w h 4 ~ / _ =.L Z p.j+a+k+l+m+    ",
"        n+=.)+/ 2 4 j E o+T &.{.h.k.x.M.p+3+q+r+s+g+5+3+++M.K.k.3.5.%.t+o+x h 4 ~ / _ =.(.Z _.j+u+v+w+x+y+  ",
"        z+A )+8 ~ 4 h E I S %.{.3.j.w.M.++^+6+f+r+f+i+^+#+M.w.A+h.5.%.t+I E i 4 ~ * _ =.(.Z _.[+u+v+B+C+D+  ",
"        E+A )+/ ~ 4 j w H S %.~.2.F+z.L.@+]+G+6+q+H+I+(+J+K+z.L+2.~.%.S M+w j 4 ~ / )+A N+<+p.O+P+v+Q+R+m+  ",
"        S+a )+& { 4 g v G V $.!.4.T+{+U+M.J+]+^+3+^+]+.+M.$+{+l._+].$.m.K t g 4 ! & : A Y <+p.[+}+V+W+X+Y+Z+",
"        `+X : & ] P k t F *.#.&+5.3.k.z.`.M.#+++ @#+.+M.`.z.k.3.5.&.#.Q F t k .@e.9 : *+=+0.+@S.}+@@#@$@>+%@",
"        &@P.0 _ ^ 2 y h E H S $.*@1.=@k.z.x.L.M.M.M.K+U+z.k.t.4.!.$.S I E h 4 2 ^ _ 0 P.M -@;@S.>@@@,@'@)@,+",
"        M !@=._ / ~ 4 g v F *.T &.{.~@=@k.%+z.w.e+e+z.u.k.t.B.~.&.T Q {@+.j 4 ~ 8 _ A L Z ]@G.^@/@(@_@:@<@,.",
"        [@Y a : 9 }@3 y |@n.K V 6.&.~.4.3.i.k.A+k.1@L+T+h.4.~.&.2@V H x 7.y 3 }@& : a Y <+p.j+u+v+3@_@4@5@D+",
"        6@-.P.8._ 8 ~ 4 g t ).H R 6.%.7@5._+2.3.h.3.2.1.5.!.}.6.V H E t g 4 ~ 8 _ 8.P.M ;.a.S.8@@@9@0@a@b@D+",
"        c@Z N+a : 9 ^ 2 4 d@+.F H R #.$.Y.!.~.e@5.{.~.!.Y.$.#.V I ).f@j 4 2 e.9 g@a (.Z _.G.h@i@(@j@k@4@5@D+",
"        l@0.-.o 8._ & z 3 4 j v E g.*.S #.:+%.%.%.%.%.$.#.S *.H ).+.j W 3 m@/ )+E.P.-.0.a.S.}+v+3@n@o@:@<@,.",
"        p@_.<+(.a 0 _ q@{ 3 f j t x F H *.V S T T S S V *.H {@E t g f 3 ! 8 _ 0 a =+Z _.G.r@>@s@9@t@u@'@v@,+",
"        w@a.-@M L a : _ x@! y@4 g h v E F F H H o+I H K F x v i g 4 f.{ z@_ : A@L B@C@;@D@a+V+3@n@E@F@$@>+%@",
"          G@+@0.M H@a : _ / z 2 4 k g i 7.v I@E E w w v t h g y 5 2 { / J@)+a o -.0.p.j+u+/@s@j@t@K@L@X+Y+Z+",
"          M@N@0+0.-.o A : _ * ] ~ y@4 f k g j j i j j g W.f 4 3 ~ e.& _ : a o M 0.p.N@r@}+V+3@O@P@Q@a@R+m+  ",
"          R@S.;@_.<+-.L a 0 _ 9 8 ] ~ 2 P 4 5 4 4 4 4 S@3 2 ~ }@/ 9 _ 0 a o -.<+]@;@S.a+v+T@U@V@W@X@Y@C+D+  ",
"            Z@S.;@]@0.-.L X E.)+_ 9 8 8 e.{ ~ ~ ~ l ~ ! ] ^ / & _ : 8.*+(.-.<+]@;@D@P+/@(@j@t@`@ #.#+#x+y+  ",
"            @#a+D@;@_.0.B@Y H@a 8.: )+_ & n / 8 8 8 / & 9 _ _ : 8.a H@Y M ##_.;@D@P+/@s@$#%#P@&#*#4@l+m+    ",
"              =#a+-#G.+@]@<+-.(.P.a A 0 : )+_ )+)+_ )+)+: 0 =.a P.(.-.<+-@p.G.S.a+/@s@$#O@E@;#>#.#$@c+d+    ",
"              ,#'#a+r@j+a._.;.Z -.Y o P.a a A =.A =.a a *+P.o Y -.<+0.]@a.j+r@a+/@@@$#O@E@W@)#!#4@l+1+      ",
"                ~#V+}+u+D@G.+@]@Q.<+B@M -.Y N+L !@N+N+Y Y M M <+Q._.a.G.D@u+}+v+(@$#O@E@W@{#]#L@+#>+d+      ",
"                  ^#@@i@a+r@S.G.a.p.]@-@0.<+<+Z <+Z <+<+0.;.]@p.a./#O+r@}+/@@@T@9@(#E@W@{#_#.#'@:#U.        ",
"                  <#[#s@v+>@a+h@D@[+G.;@a.p.0+_._._.p.p.-+a.G.[+D@^@a+/@v+s@$#U@%#P@;#}#>#.#:@R+|#<#        ",
"                     .1#3@@@v+/@}+P+h@S.S.[+[+j+j+j+O+O+D@S.^@a+>@i@V+@@2#j@n@V@3#;#}#>#.#4@4#5# .          ",
"                      ,.6#j@3@(@V+v+i@>@}+a+u+P+a+u+u+a+}+>@/@v+V+(@3@9@n@t@P@W@&#7#8#.#4@9#0#,.            ",
"                        ,.a#b#_@9@2#2#@@V+@@V+v+c#v+V+V+@@@@d#3@$#j@O@t@E@e#&#}#f#g#.#:@4#0#h#              ",
"                          ,.i#j#%#n@U@j@9@$#3@3@3@3@$#$#9@j@U@O@%#V@`@3#&#}#k#l#m#L@'@R+5#,.                ",
"                             .I.n#o#E@V@t@p#(#%#(#O@%#%#p#V@E@q#e#;#&#}#r#s#t#.#4@+#:#|# .                  ",
"                              O U.>+u#v#w#3#e#3#3#3#`@3#x#;#&#&#}#k#y#z#A#.#4@$@l+>+U.<#                    ",
"                                  ,+1+c+l+B#C#D#E#F#)#{#G#H#I#>#J#K#L@a@Y@L#l+c+1+,+                        ",
"                                      d+m+x+C+l+X+$@'@:@4@4@4@:@'@$@X+R+C+x+m+d+                            ",
"                                          y+D+m+Y+>+)@<@5@b@5@<@)@>+Y+m+D+y+                                ",
"                                                Z+%@,+,.h#D+h#,.,+%@Z+                                      "};
