/* XPM */
static char *pink_destroy3[] = {
"36 36 65 1",
"  c black",
". c #7f7d64",
"X c #7f8070",
"o c #9f7622",
"O c #8f7c50",
"+ c #8c7c68",
"@ c #a65e52",
"# c #a57069",
"$ c #cf770a",
"% c #eb7801",
"& c #f5770c",
"* c #f77b08",
"= c #f27839",
"- c #d5795c",
"; c #996782",
": c #e57287",
"> c #948732",
", c #b08810",
"< c #a68b37",
"1 c #bba437",
"2 c #918651",
"3 c #858267",
"4 c #ab8d49",
"5 c #bcab4d",
"6 c #d59115",
"7 c #d1b031",
"8 c #eb940e",
"9 c #f78509",
"0 c #fd8915",
"q c #f9940b",
"w c #fd9717",
"e c #fd9b24",
"r c #f49530",
"t c #eeaa0d",
"y c #fca718",
"u c #fcb718",
"i c #ffa825",
"p c #f8aa32",
"a c #feb627",
"s c #ffb833",
"d c #ceb14d",
"f c #cfbf62",
"g c #f69447",
"h c #f6b64b",
"j c #fbaf70",
"k c #fbc719",
"l c #ffc736",
"z c #fdd229",
"x c #fed937",
"c c #ffe71f",
"v c #ffeb34",
"b c #d9cd53",
"n c #dace65",
"m c #fdcf55",
"M c #fed946",
"N c #f5d568",
"B c #ffeb4a",
"V c #fee957",
"C c #fff547",
"Z c #fff656",
"A c #f7e76d",
"S c #fff466",
"D c #f59494",
"F c #ffcbb2",
"G c None",
"GGGGGGGGGGGGGGGGGGGGGGGGGGGGGGGGGGGG",
"GGGGGGGGGGGGGGGGGGGGGGGGGGGGGGGGGGGG",
"GGGGGGGGGGGGGGGGGGGGGGGGGGGGGGGGGGGG",
"GGGGGGGGGGGGG+Oo7txz71<233GGGGGGGGGG",
"GGGGGGGGGGGGG#-mMxBZVSAn423GGGGGGGGG",
"GGGGGGGGGGGG#-ghsssMlVVSSd23GGGGGGGG",
"GGGGGGGGGGG;@-grpww8ttaxZSb4.+GGGGGG",
"GGGGGGGGGG#@:Djgrrhmmsw8zCZn>3GGGGGG",
"GGGGGGGGO#@:DFjrrrrhheeqtcvZn2.GGGGG",
"GGGGGG+<dgg=ggre0&0090*i9uxCSf2XGGGG",
"GGGGG+4hMe0&&090*0*00***9yuxZV<3GGGG",
"GGGGGOdMyw%e0&0000w00099swytBBb2GGGG",
"GGGG21Mzuww&*0ewipwww099q%w8uvV2GGGG",
"GGG+2Vvuuw%00wepiiwswww99*0yuvZ4+GGG",
"GGG25Cvuyw0000eiiiiiwwe9009quvZf2GGG",
"GGG2nCcuq*000ww8asssiiw000wqukZN>GGG",
"GGG>nCcuq000wewaywpiiww009%qtuZA>GGG",
"GGG>ACku9*&0eiyyassayywww9wqtzBA>GGG",
"GGG>ACct%*0ewwwssiallyww999wztBA>GGG",
"GGG>bCkuq*9ewqsiwwyuuqwi9*0wyzZA>GGG",
"GGG>nZvawe90pewiiiyyaiqw0*%qtxVn>GGG",
"GGGO2Mvuy9*900wwaayyiq999*9wkxZfOGGG",
"GGGGO7Buyw**000wyaa8wi0w0wwtkCV4+GGG",
"GGGG35Sxuq00*00099wwq00**%qkxZN23GGG",
"GGGG+Odxky%%0*0wwwwwq9*000ytxV13GGGG",
"GGGGG24Mztw**%*99wi8w900we9tCA>+GGGG",
"GGGGGGOhxtuw&0qqsMssi9qw0$8xZ52GGGGG",
"GGGGGG3<mzt9essMxxBBl8w99txBVO+GGGGG",
"GGGGGGGOdVM8qslaMllVMsiw8MSb>3GGGGGG",
"GGGGGGGG2dmlt$8rphpppe6yVAn23GGGGGGG",
"GGGGGGGGGO<7NAhr6$$6$rmNd<O3GGGGGGGG",
"GGGGGGGGGG+OO4hhmmmmj44O++3GGGGGGGGG",
"GGGGGGGGGGGG+Oo,76,,,o2+GGGGGGGGGGGG",
"GGGGGGGGGGGGGGGGGGGGGGGGGGGGGGGGGGGG",
"GGGGGGGGGGGGGGGGGGGGGGGGGGGGGGGGGGGG",
"GGGGGGGGGGGGGGGGGGGGGGGGGGGGGGGGGGGG"
};
