/* XPM */
static char * pink_jump8_xpm[] = {
"54 54 460 2",
"  	c None",
". 	c #BCA2B4",
"+ 	c #BA8AAB",
"@ 	c #B977A4",
"# 	c #B868A0",
"$ 	c #B75D9C",
"% 	c #B6569A",
"& 	c #B55197",
"* 	c #B55398",
"= 	c #B5599A",
"- 	c #B4649D",
"; 	c #B571A0",
"> 	c #B684A7",
", 	c #B79FB0",
"' 	c #B97DA6",
") 	c #B95F9E",
"! 	c #B9579C",
"~ 	c #B9599D",
"{ 	c #B8589C",
"] 	c #B7559A",
"^ 	c #B65298",
"/ 	c #B55195",
"( 	c #B34F96",
"_ 	c #B14D94",
": 	c #B05495",
"< 	c #B2749E",
"[ 	c #B79BAF",
"} 	c #BB9BB1",
"| 	c #B870A5",
"1 	c #BA5A9E",
"2 	c #BB5B9F",
"3 	c #BC5EA0",
"4 	c #BC5EA1",
"5 	c #BB5FA0",
"6 	c #BC5E9E",
"7 	c #B75799",
"8 	c #B65499",
"9 	c #B45097",
"0 	c #B25095",
"a 	c #AF4D92",
"b 	c #AB4B8F",
"c 	c #AD6197",
"d 	c #B191A8",
"e 	c #BBABB6",
"f 	c #BA76A6",
"g 	c #BD5FA1",
"h 	c #BF61A3",
"i 	c #BE62A3",
"j 	c #BF65A5",
"k 	c #C064A5",
"l 	c #C062A4",
"m 	c #BE60A2",
"n 	c #BA589B",
"o 	c #B8549B",
"p 	c #B65296",
"q 	c #A64A8B",
"r 	c #AA6495",
"s 	c #B0A0AB",
"t 	c #BA90AE",
"u 	c #B95B9D",
"v 	c #C266A7",
"w 	c #C169A7",
"x 	c #C268A8",
"y 	c #C26AA8",
"z 	c #C369A9",
"A 	c #BD5FA2",
"B 	c #B7579B",
"C 	c #AD4B90",
"D 	c #A24A88",
"E 	c #A77F9C",
"F 	c #BA7EA8",
"G 	c #C367A8",
"H 	c #C36BA9",
"I 	c #C46CAA",
"J 	c #C66CA9",
"K 	c #C66EAC",
"L 	c #C76DAA",
"M 	c #C56DAB",
"N 	c #C167A7",
"O 	c #A7498B",
"P 	c #A34788",
"Q 	c #A36992",
"R 	c #ACACAC",
"S 	c #BB5D9F",
"T 	c #C870AE",
"U 	c #C973AE",
"V 	c #C973B0",
"W 	c #CA74B1",
"X 	c #C973B2",
"Y 	c #C872AF",
"Z 	c #BF63A4",
"` 	c #BD5F9F",
" .	c #B04C93",
"..	c #AA4A8E",
"+.	c #A44889",
"@.	c #A24687",
"#.	c #A05E8B",
"$.	c #A7A7A7",
"%.	c #B876A5",
"&.	c #C367A6",
"*.	c #CB75B2",
"=.	c #CC78B3",
"-.	c #CE78B5",
";.	c #CE7AB5",
">.	c #CD79B4",
",.	c #C76FAD",
"'.	c #C56BAA",
").	c #AC4C90",
"!.	c #A24888",
"~.	c #9F4384",
"{.	c #9D5D89",
"].	c #A4A4A4",
"^.	c #B87EA7",
"/.	c #C36BAB",
"(.	c #C971AF",
"_.	c #CA76B1",
":.	c #CF7BB6",
"<.	c #D07CB7",
"[.	c #D07EB8",
"}.	c #D17DB8",
"|.	c #CF7BB8",
"1.	c #CD7BB5",
"2.	c #B45096",
"3.	c #A5498A",
"4.	c #9E4082",
"5.	c #9A6288",
"6.	c #B98FAE",
"7.	c #C068A6",
"8.	c #CD79B6",
"9.	c #D07CB5",
"0.	c #D280BC",
"a.	c #D383BC",
"b.	c #D484BD",
"c.	c #D280BA",
"d.	c #D17FB9",
"e.	c #CB77B2",
"f.	c #C066A6",
"g.	c #AE4C91",
"h.	c #A64A8D",
"i.	c #A04485",
"j.	c #9C3E81",
"k.	c #946E89",
"l.	c #BAAAB7",
"m.	c #B45498",
"n.	c #B8569B",
"o.	c #BA5C9E",
"p.	c #C66CAB",
"q.	c #D484BC",
"r.	c #D587BE",
"s.	c #D888BE",
"t.	c #D888C0",
"u.	c #D686BF",
"v.	c #C872B1",
"w.	c #C26AAA",
"x.	c #BD5FA3",
"y.	c #9D3F81",
"z.	c #9A3C7E",
"A.	c #8F818B",
"B.	c #B870A3",
"C.	c #D585BE",
"D.	c #D989C1",
"E.	c #DA8CC1",
"F.	c #DB8DC2",
"G.	c #DB8FC5",
"H.	c #DA8EC6",
"I.	c #DA8CC3",
"J.	c #D684BE",
"K.	c #D282BA",
"L.	c #CB75B0",
"M.	c #C56BAB",
"N.	c #BF61A4",
"O.	c #AF4B91",
"P.	c #9F4183",
"Q.	c #9A3C7F",
"R.	c #90567F",
"S.	c #919191",
"T.	c #B999B0",
"U.	c #DC8EC3",
"V.	c #DD91C7",
"W.	c #DF93C8",
"X.	c #DE94C8",
"Y.	c #DF93C9",
"Z.	c #DB8FC7",
"`.	c #CA74AF",
" +	c #A84A8C",
".+	c #A04284",
"++	c #9B3D7F",
"@+	c #9A387D",
"#+	c #866E7F",
"$+	c #9A9A9A",
"%+	c #B5679E",
"&+	c #BC5CA0",
"*+	c #BE60A3",
"=+	c #C771AE",
"-+	c #CE7AB3",
";+	c #D98BC4",
">+	c #DC90C6",
",+	c #E094C9",
"'+	c #E197CD",
")+	c #E397CC",
"!+	c #E197CB",
"~+	c #E296CC",
"{+	c #DD8FC4",
"]+	c #D98BC2",
"^+	c #CD7BB7",
"/+	c #B55198",
"(+	c #A94B8D",
"_+	c #A34988",
":+	c #9C3E80",
"<+	c #8E4E7B",
"[+	c #868686",
"}+	c #A6A6A6",
"|+	c #B99FB2",
"1+	c #B14F94",
"2+	c #C56BAD",
"3+	c #D88AC1",
"4+	c #E296CB",
"5+	c #E599CF",
"6+	c #E69CD0",
"7+	c #E69CD2",
"8+	c #E49ACE",
"9+	c #E296CD",
"0+	c #D381BB",
"a+	c #CB77B4",
"b+	c #B24E95",
"c+	c #A14586",
"d+	c #9A3A7E",
"e+	c #973379",
"f+	c #7D6D79",
"g+	c #959595",
"h+	c #B577A3",
"i+	c #E79DD1",
"j+	c #E9A1D2",
"k+	c #EBA3D6",
"l+	c #E9A1D4",
"m+	c #E89ED2",
"n+	c #D688BF",
"o+	c #D482BA",
"p+	c #9E4083",
"q+	c #97357A",
"r+	c #875578",
"s+	c #838383",
"t+	c #A5A5A5",
"u+	c #B15395",
"v+	c #DB8DC4",
"w+	c #EDA3D7",
"x+	c #EEA6D9",
"y+	c #EDA3D9",
"z+	c #EBA1D5",
"A+	c #993B7E",
"B+	c #98347A",
"C+	c #923A78",
"D+	c #757575",
"E+	c #989898",
"F+	c #B89EB1",
"G+	c #E498CC",
"H+	c #EBA1D3",
"I+	c #F0A6D8",
"J+	c #F3ABDE",
"K+	c #E298CC",
"L+	c #C975B0",
"M+	c #98367B",
"N+	c #943077",
"O+	c #776772",
"P+	c #8A8A8A",
"Q+	c #AAAAAA",
"R+	c #B482A5",
"S+	c #D888BF",
"T+	c #D789C2",
"U+	c #7E5A74",
"V+	c #7D7D7D",
"W+	c #A2A2A2",
"X+	c #B26C9D",
"Y+	c #D787C1",
"Z+	c #E79FD2",
"`+	c #EB9FD5",
" @	c #E79DD3",
".@	c #E296CA",
"+@	c #DF91C8",
"@@	c #D787C0",
"#@	c #D482BC",
"$@	c #A6488A",
"%@	c #983A7C",
"&@	c #854D73",
"*@	c #747474",
"=@	c #AF5996",
"-@	c #D587C0",
";@	c #DC8EC5",
">@	c #DC90C4",
",@	c #932F76",
"'@	c #8A4074",
")@	c #6D6D6D",
"!@	c #8E8E8E",
"~@	c #AEAEAE",
"{@	c #AA4E91",
"]@	c #E397CE",
"^@	c #BD61A2",
"/@	c #BB5D9D",
"(@	c #9D3F82",
"_@	c #922E75",
":@	c #8C3472",
"<@	c #696969",
"[@	c #A9A9A9",
"}@	c #A3498B",
"|@	c #D07AB7",
"1@	c #D486BD",
"2@	c #9B3D80",
"3@	c #953378",
"4@	c #932D75",
"5@	c #8F2B72",
"6@	c #666666",
"7@	c #818181",
"8@	c #A5498C",
"9@	c #D381B9",
"0@	c #C56BA8",
"a@	c #953178",
"b@	c #922C74",
"c@	c #8E2870",
"d@	c #636363",
"e@	c #7C7C7C",
"f@	c #A24887",
"g@	c #C165A4",
"h@	c #D789C0",
"i@	c #CC76B1",
"j@	c #C165A6",
"k@	c #922A73",
"l@	c #626262",
"m@	c #797979",
"n@	c #A44C8A",
"o@	c #97337A",
"p@	c #912972",
"q@	c #8C3071",
"r@	c #616161",
"s@	c #787878",
"t@	c #A8548F",
"u@	c #BE64A4",
"v@	c #C365A7",
"w@	c #B24C94",
"x@	c #99377C",
"y@	c #963279",
"z@	c #902872",
"A@	c #863A70",
"B@	c #AD6397",
"C@	c #8E2670",
"D@	c #814770",
"E@	c #B07AA0",
"F@	c #B5539A",
"G@	c #912D74",
"H@	c #8D236E",
"I@	c #78546E",
"J@	c #808080",
"K@	c #B599AD",
"L@	c #B75399",
"M@	c #BA5AA0",
"N@	c #B75397",
"O@	c #AC4A8F",
"P@	c #A14787",
"Q@	c #9E4285",
"R@	c #99397D",
"S@	c #8B216C",
"T@	c #6D5D68",
"U@	c #9D4784",
"V@	c #A84A8D",
"W@	c #C369A7",
"X@	c #B45094",
"Y@	c #953177",
"Z@	c #892B6B",
"`@	c #5F5F5F",
" #	c #AA6696",
".#	c #9A3C81",
"+#	c #8F2570",
"@#	c #8C206C",
"##	c #7D496E",
"$#	c #B296AA",
"%#	c #BA5E9F",
"&#	c #912B73",
"*#	c #8F2770",
"=#	c #8C226D",
"-#	c #891D69",
";#	c #656565",
">#	c #A05488",
",#	c #8B1F6B",
"'#	c #813B6C",
")#	c #5E5E5E",
"!#	c #6A6A6A",
"~#	c #AD89A4",
"{#	c #9F4386",
"]#	c #902A72",
"^#	c #8E246F",
"/#	c #891B69",
"(#	c #6E5A69",
"_#	c #9F578B",
":#	c #9E4283",
"<#	c #881C68",
"[#	c #7E406C",
"}#	c #AE9CA8",
"|#	c #953579",
"1#	c #871D68",
"2#	c #675F65",
"3#	c #A47695",
"4#	c #881A68",
"5#	c #74566C",
"6#	c #9C5E8A",
"7#	c #9B3B7F",
"8#	c #8D256F",
"9#	c #7A486C",
"0#	c #7A7A7A",
"a#	c #ABABAB",
"b#	c #935581",
"c#	c #8F2771",
"d#	c #871967",
"e#	c #7D416B",
"f#	c #909090",
"g#	c #91537F",
"h#	c #891F6A",
"i#	c #717171",
"j#	c #8B8B8B",
"k#	c #905A7F",
"l#	c #942E76",
"m#	c #861866",
"n#	c #7A486B",
"o#	c #707070",
"p#	c #888888",
"q#	c #8F6984",
"r#	c #902C73",
"s#	c #8A1E6A",
"t#	c #851B66",
"u#	c #74546A",
"v#	c #A3A3A3",
"w#	c #8E808A",
"x#	c #884A76",
"y#	c #922A74",
"z#	c #871766",
"A#	c #7E3E6B",
"B#	c #675D64",
"C#	c #836B7C",
"D#	c #874173",
"E#	c #8C246D",
"F#	c #8A206B",
"G#	c #851765",
"H#	c #80386B",
"I#	c #6F5968",
"J#	c #7D6B78",
"K#	c #814D72",
"L#	c #892B6D",
"M#	c #881E69",
"N#	c #832367",
"O#	c #7B476C",
"P#	c #6C5C67",
"Q#	c #746470",
"R#	c #7B5570",
"S#	c #80446E",
"T#	c #84346C",
"U#	c #852769",
"V#	c #861E68",
"W#	c #842468",
"X#	c #82326B",
"Y#	c #77516B",
"Z#	c #6C5C68",
"`#	c #6B6B6B",
"                                                                                                            ",
"                                                                                                            ",
"                                                                                                            ",
"                                                                                                            ",
"                                          . + @ # $ % & * = - ; > ,                                         ",
"                                    . ' ) ! ~ ~ ~ ~ ~ { % ] ^ / ( _ : < [                                   ",
"                                } | ~ 1 2 3 4 4 4 4 5 6 2 1 ~ 7 8 9 0 a b c d                               ",
"                            e f ~ 2 3 g h i i j k j l i m g 5 2 n o p ( _ b q r s                           ",
"                          t u 1 3 g i k v w x y y z z x v k h A 3 1 B 8 0 _ C q D E                         ",
"                        F ! 2 4 h j G H I J K K K L M M I H N k h 4 2 ! 8 ( _ b O P Q R                     ",
"                      f { S 4 i v z I K T U V V W V X Y T K I H v Z ` 2 { 8 (  ...+.@.#.$.                  ",
"                    %.{ 2 4 Z &.H K T V *.=.-.;.;.>.-.=.*.V ,.K '.N Z 4 2 { & ( ).q !.~.{.].                ",
"                  ^.% 1 4 l N /.K (._.=.;.:.<.[.}.[.<.|.1.-._.Y K '.v l 4 1 % 2._ b 3.@.4.5.].              ",
"                6.8 ~ 3 h 7.'.K V *.8.9.}.0.a.b.b.b.a.c.d.:.1.e.V L '.f.h 3 ~ ^ ( g.h.!.i.j.k.].            ",
"              l.m.n.o.m k H p.(.e.;.<.c.q.r.s.t.t.t.t.u.q.c.<.;.e.v.K w.k x.o.% 9 _ b 3.i.y.z.A.$.          ",
"              B.^ ! 5 i N I T _.1.<.0.C.t.D.E.F.G.H.I.D.t.J.K.[.1.L.T M.N N.5 ~ ^ 0 O.q P P.Q.R.S.R         ",
"            T.9 ] 1 A k H K W -.:.c.J.t.I.U.V.W.X.Y.V.Z.I.t.C.c.:.=.`.K y k A 1 % ( a  +!..+++@+#+$+        ",
"            %+/ 7 &+*+f.I =+_.-+}.b.t.;+>+,+'+)+)+!+~+,+{+]+s.b.d.^+*.T '.v h S B /+_ (+_+i.:+@+<+[+}+      ",
"          |+1+& { &+i x 2+Y =.:.K.u.3+>+Y.4+5+6+7+6+8+9+X.>+D.u.0+:.a+Y '.x i 3 { * b+b +.c+y.d+e+f+g+      ",
"          h+b+^ ~ 6 Z x p.V -.<.a.t.I.V.~+8+i+j+k+l+m+8+~+V.I.n+o+<.>.V K y l 5 ~ ^ ( ).3.c+p+d+q+r+s+t+    ",
"          u+0 8 1 4 Z H K W 1.d.b.t.v+W.~+6+l+w+x+y+z+6+~+W.v+t.b.}.1.`.K y j 4 ~ ^ 0 ).O @.y.A+B+C+D+E+    ",
"        F+).b+^ 1 4 Z H ,.W ;.}.q.t.G.Y.G+i+H+I+J+x+k+i+K+Y.U.t.b.d.>.L+,.z j 4 ~ ^ ( ).3.@.4.A+M+N+O+P+Q+  ",
"        R+C b+8 ~ 4 j H K V >.}.b.S+F.W.)+6+l+w+I+w+z+6+~+W.F.T+q.d.>.L+K H k 4 ~ * ( ).3.@.4.d+M+N+U+V+W+  ",
"        X+C b+^ ~ 4 l y K V -.<.a.Y+I.V.!+5+Z+l+H+`+ @8+.@+@I.@@#@<.-.V M y Z 4 ~ ^ b+C $@c+y.%@q+N+&@*@E+  ",
"        =@b b+& { 3 i G J (.=.:.c.-@3+;@W..@5+6+i+6+5+9+Y.>@3+u.0+|.=.v.M N i 3 ! & _ C +.c+y.d+e+,@'@)@!@~@",
"        {@.._ /+% S m v '.,._.^+d.b.t.I.>+Y.~+)+]@~+'+X.>+I.t.b.d.;._.T I v ^@/@n.2._ (+_+i.(@@+e+_@:@<@[+[@",
"        }@ +a ( ] 1 A j H K V =.|@0.1@t.I.G.V.W.X.W.+@;@I.t.C.c.:.=.V K H j 4 1 ] 0 a  +!..+2@@+3@4@5@6@7@}+",
"        P 8@).( ^ ~ 3 h G M.,.W ;.[.9@1@t.]+I.F.v+v+I.D.t.C.0+<.;.W T 0@&.l 3 ~ 8 ( C O @.P.Q.M+a@b@c@d@e@].",
"        f@+.b _ 2.B 2 A g@w.M (.e.;.<.c.b.r.t.T+t.h@@@-@q.c.<.;.i@Y K z j@A 2 B /+_ b +.c+y.A+M+N+k@c@l@m@W+",
"        n@!. +g.( 8 ~ 3 h v /.K U e.>.<.d.0+a.b.q.b.a.0.d.:.8.e.(.K H v h 3 ~ 8 ( g. +!.~.j.@+o@_@p@q@r@s@W+",
"        t@@.$@b _ 2.] 1 4 u@&.'.K U _.=.-+:.<.[.d.}.<.:.-+=.*.(.K /.v@Z 4 1 n.2.w@b 3.@.4.Q.x@y@b@z@A@l@m@W+",
"        B@i.!.q g.( & B 2 4 Z G H p.,.V _.a+>.>.>.>.>.=._.V ,.K /.&.l ` 2 ! ^ b+O. +!.i.j.@+e+N+k@C@D@d@e@].",
"        E@4.c+3.b a ( F@{ 2 g Z v z M.K ,.Y V W W V V (.,.K 0@H v i g 2 ! 8 (  .b _+@.4.Q.x@3@G@p@H@I@6@J@}+",
"        K@j..+P O b _ ( L@! M@4 h j G H I '.K K ,.K K M I z G k h 4 o.{ N@( _ O@O P@Q@2@R@q+,@k@C@S@T@<@[+[@",
"          U@(@i.!.V@b _ 0 ^ B 1 3 m i k f.G W@H H y y x v j i A 5 1 { ^ X@b+b q !.i.y.A+M+Y@G@z@H@Z@`@)@!@~@",
"           #.#p+i.!.q C _ ( * % ~ M@3 g ^@i l Z k Z l i *+g 3 2 ~ n.& ( _ b q !.i.y..#x@e+,@k@+#@###r@*@E+  ",
"          $#@+2@4.c+!.O b  .( 2.8 % ~ 1 S 3 5 4 4 4 3 %#2 1 ~ B ^ 2.0 a b q !.c+P.2@@+q+N+&#*#=#-#T@;#V+W+  ",
"            >#@+2@P.i.!.O ..O.b+( 2.8 8 n.{ ~ ~ ~ n ~ ! % ] ^ /+( _ g.(+3.!.c+P.2@R@q+a@b@z@H@,#'#)#!#P+Q+  ",
"            ~#q+R@2@4.i.P@+.V@b g._ b+( /+p ^ 8 8 8 ^ & 2.0 ( _ g.b V@+.P {#4.2@R@q+a@G@]#^#@#/#(#l@D+E+    ",
"              _#q+R@Q.(@:#c+!.3. +b C a _ 1+( b+b+0 b+b+_ a ).b  +3.!.c+.+y.Q.@+B+a@G@]#+#S@<#[#)#<@s+t+    ",
"              }#|#q+x@A+j.4.~.@.!.+.q  +b b C ).C ).b b (+ +q +.!.c+i.P.j.A+x@q+a@4@]#+#S@-#1#2#l@D+g+      ",
"                3#,@e+M+R@Q.(@P..+c+P@!.!.+.$@O 8@$@$@+.+.!.P c+.+4.j.Q.R@M+e+N+b@]#+#S@-#4#5#`@!#[+t+      ",
"                  6#_@y@q+x@@+Q.j.y.P..+i.c+c+@.c+@.c+c+i.~.P.y.j.7#%@x@e+Y@_@&#p@8#S@-#4#9#)#6@0#$+        ",
"                  a#b#G@N+3@q+x@R@d+Q.2@j.y.p+4.4.4.y.y.:+j.Q.d+R@M+q+Y@N+G@]#c#^#@#<#d#e#)#d@*@f#a#        ",
"                    $.g#k@4@N+Y@e+q+x@@+@+d+d+A+A+A+%@%@R@@+M+B+3@y@,@4@&#z@C@=#h#<#d#e#)#l@i#j#$.          ",
"                      ].k#z@k@b@l#N+y@3@e+q+M+q+B+M+M+q+e+3@a@N+l#b@k@p@C@H@@#-#/#m#n#)#l@o#p#].            ",
"                        ].q#c@c@p@&#&#4@l#_@,@N+N+N+,@,@_@4@r#k@]#z@+#H@S@s#/#d#t#u#)#d@i#p#v#              ",
"                          ].w#x#^#C@*#z@p@]#y#k@k@k@]#]#p@z@*#+#^#=#,#s#/#d#z#A#B#`@6@*@j#].                ",
"                            $.S.C#D#S@=#H@E#8#^#8#+#^#^#E#=#S@F#s#<#/#d#G#H#I#)#l@!#0#f#$.                  ",
"                              R $+[+J#K#L#s#s#h#h#h#,#s#M#<#/#/#d#z#N#O#P#)#l@<@D+[+$+a#                    ",
"                                  }+g+s+D+Q#R#S#T#U#1#4#V#W#X#e#Y#Z#`@r@;#`#D+s+g+}+                        ",
"                                      t+E+P+V+D+)@<@6@d@l@l@l@d@6@<@)@*@V+P+E+t+                            ",
"                                          Q+W+E+!@[+7@e@m@s@m@e@7@[+!@E+W+Q+                                ",
"                                                ~@[@}+].v#W+v#].}+[@~@                                      "};
