/* XPM */
static char * pink_jump7_xpm[] = {
"54 54 460 2",
"  	c None",
". 	c #BEA6B7",
"+ 	c #BD8DAE",
"@ 	c #BB7BA7",
"# 	c #BA6CA3",
"$ 	c #B8629F",
"% 	c #B85A9C",
"& 	c #B6569A",
"* 	c #B7579B",
"= 	c #B75D9C",
"- 	c #B6689F",
"; 	c #B775A2",
"> 	c #B987AA",
", 	c #BBA3B4",
"' 	c #BC82AA",
") 	c #BA64A1",
"! 	c #BA5C9E",
"~ 	c #BB5D9F",
"{ 	c #BA5E9F",
"] 	c #B9599D",
"^ 	c #B75598",
"/ 	c #B55197",
"( 	c #B25095",
"_ 	c #B25898",
": 	c #B478A1",
"< 	c #BAA0B2",
"[ 	c #BEA0B4",
"} 	c #BA74A7",
"| 	c #BB5FA0",
"1 	c #BD5FA1",
"2 	c #BE62A3",
"3 	c #BD63A3",
"4 	c #BE62A1",
"5 	c #B95B9B",
"6 	c #B8589C",
"7 	c #B65499",
"8 	c #B45297",
"9 	c #B24E95",
"0 	c #AF4D92",
"a 	c #AF6599",
"b 	c #B395AA",
"c 	c #BFAFBA",
"d 	c #BC7AA8",
"e 	c #BE64A4",
"f 	c #C066A6",
"g 	c #C066A5",
"h 	c #C169A7",
"i 	c #C268A7",
"j 	c #C167A7",
"k 	c #BF65A5",
"l 	c #BB5D9D",
"m 	c #BA589D",
"n 	c #B85699",
"o 	c #B55398",
"p 	c #AA4C8E",
"q 	c #AC6898",
"r 	c #B3A5AF",
"s 	c #BD95B1",
"t 	c #BC5EA0",
"u 	c #C36BA9",
"v 	c #C36DAA",
"w 	c #C46CAA",
"x 	c #C46EAB",
"y 	c #C56DAB",
"z 	c #BF63A4",
"A 	c #B95B9D",
"B 	c #B45498",
"C 	c #B14D94",
"D 	c #A64C8C",
"E 	c #AA829F",
"F 	c #BC84AC",
"G 	c #C56FAC",
"H 	c #C670AD",
"I 	c #C872AD",
"J 	c #C973B0",
"K 	c #C874AF",
"L 	c #C973AE",
"M 	c #C773AE",
"N 	c #AB4B8F",
"O 	c #A6488A",
"P 	c #A56D95",
"Q 	c #B0B0B0",
"R 	c #BD61A2",
"S 	c #CA76B1",
"T 	c #CB77B0",
"U 	c #CB77B2",
"V 	c #CC78B3",
"W 	c #CB77B4",
"X 	c #C167A6",
"Y 	c #BF63A2",
"Z 	c #AE4C91",
"` 	c #A84A8C",
" .	c #A54789",
"..	c #A2608D",
"+.	c #ABABAB",
"@.	c #BA7AA7",
"#.	c #C46CA8",
"$.	c #CD79B4",
"%.	c #CE7CB6",
"&.	c #CF7DB7",
"*.	c #D07EB8",
"=.	c #C975B0",
"-.	c #C76FAD",
";.	c #B04E93",
">.	c #A5498A",
",.	c #A24486",
"'.	c #A0608C",
").	c #A7A7A7",
"!.	c #BB83AB",
"~.	c #C56FAE",
"{.	c #CB75B2",
"].	c #CC7AB4",
"^.	c #D080B9",
"/.	c #D181B9",
"(.	c #D282BA",
"_.	c #D284BB",
":.	c #D383BB",
"<.	c #D181BB",
"[.	c #CF7FB7",
"}.	c #B55599",
"|.	c #A94B8D",
"1.	c #A04285",
"2.	c #9C648A",
"3.	c #BB93B0",
"4.	c #C26CA9",
"5.	c #CF7DB9",
"6.	c #D282B9",
"7.	c #D486BF",
"8.	c #D589BF",
"9.	c #D68AC0",
"0.	c #D486BD",
"a.	c #D385BC",
"b.	c #CD7BB5",
"c.	c #C26AA8",
"d.	c #AA4C91",
"e.	c #A7498B",
"f.	c #A34587",
"g.	c #A13F84",
"h.	c #97718C",
"i.	c #BEAEBA",
"j.	c #B6589A",
"k.	c #BA5A9E",
"l.	c #BC60A1",
"m.	c #C872AF",
"n.	c #D78BC1",
"o.	c #D98DC1",
"p.	c #DA8EC4",
"q.	c #D98DC3",
"r.	c #D88AC1",
"s.	c #CA76B3",
"t.	c #C46EAD",
"u.	c #BE64A6",
"v.	c #9F4184",
"w.	c #9E3E82",
"x.	c #91858E",
"y.	c #BA74A5",
"z.	c #D789C0",
"A.	c #DB8FC5",
"B.	c #DC92C4",
"C.	c #DD93C6",
"D.	c #DD95C8",
"E.	c #DC94C9",
"F.	c #DC92C6",
"G.	c #D488BE",
"H.	c #CD79B2",
"I.	c #C771AE",
"J.	c #C165A6",
"K.	c #A24286",
"L.	c #9F3D82",
"M.	c #935781",
"N.	c #949494",
"O.	c #BC9EB3",
"P.	c #DE94C7",
"Q.	c #DF97CA",
"R.	c #E09ACC",
"S.	c #E09ACB",
"T.	c #E199CC",
"U.	c #DD95CA",
"V.	c #CC78B1",
"W.	c #AC4C90",
"X.	c #A34387",
"Y.	c #9F3F83",
"Z.	c #9D397F",
"`.	c #897182",
" +	c #9E9E9E",
".+	c #B76BA0",
"++	c #BE60A2",
"@+	c #C064A5",
"#+	c #C977B1",
"$+	c #D080B7",
"%+	c #DB91C7",
"&+	c #DE96C9",
"*+	c #E19BCD",
"=+	c #E39DD0",
"-+	c #E49ED0",
";+	c #E39DCE",
">+	c #E49CCF",
",+	c #DF95C8",
"'+	c #DB91C5",
")+	c #CF7FB9",
"!+	c #B7559A",
"~+	c #AD4D91",
"{+	c #A74B8C",
"]+	c #A04084",
"^+	c #9D3980",
"/+	c #914F7D",
"(+	c #898989",
"_+	c #AAAAAA",
":+	c #BDA3B6",
"<+	c #B35196",
"[+	c #C771B0",
"}+	c #D181BA",
"|+	c #DA90C4",
"1+	c #E39DCF",
"2+	c #E6A0D2",
"3+	c #E8A2D3",
"4+	c #E7A3D5",
"5+	c #E5A1D1",
"6+	c #D587BE",
"7+	c #CD7BB7",
"8+	c #B45096",
"9+	c #A44688",
"0+	c #9F3B81",
"a+	c #99357C",
"b+	c #80707C",
"c+	c #989898",
"d+	c #B77BA5",
"e+	c #E9A3D4",
"f+	c #EBA7D5",
"g+	c #ECAAD9",
"h+	c #EBA7D7",
"i+	c #EAA4D5",
"j+	c #D88CC2",
"k+	c #D688BD",
"l+	c #A14185",
"m+	c #9A367D",
"n+	c #89577A",
"o+	c #868686",
"p+	c #A9A9A9",
"q+	c #DD93C7",
"r+	c #E7A3D3",
"s+	c #EEACDB",
"t+	c #F0AEDC",
"u+	c #EEACDC",
"v+	c #ECA8D8",
"w+	c #9E3C81",
"x+	c #9B357D",
"y+	c #953B7A",
"z+	c #777777",
"A+	c #9B9B9B",
"B+	c #BCA2B5",
"C+	c #CA74B1",
"D+	c #E59FCF",
"E+	c #ECA8D6",
"F+	c #F1AFDC",
"G+	c #F4B2E1",
"H+	c #E49ECF",
"I+	c #CB79B3",
"J+	c #9B377E",
"K+	c #973179",
"L+	c #796974",
"M+	c #8D8D8D",
"N+	c #AEAEAE",
"O+	c #B787A9",
"P+	c #DA8EC2",
"Q+	c #D98DC4",
"R+	c #815D77",
"S+	c #808080",
"T+	c #A5A5A5",
"U+	c #B470A0",
"V+	c #D88CC3",
"W+	c #E9A5D5",
"X+	c #ECA6D7",
"Y+	c #E9A3D6",
"Z+	c #E49CCD",
"`+	c #E197CB",
" @	c #D98BC2",
".@	c #D688BF",
"+@	c #AA4A8E",
"@@	c #9D3B80",
"#@	c #9A367C",
"$@	c #894F77",
"%@	c #767676",
"&@	c #9C9C9C",
"*@	c #B15D98",
"=@	c #D78BC2",
"-@	c #DE94C8",
";@	c #DE96C7",
">@	c #963078",
",@	c #8D4177",
"'@	c #707070",
")@	c #919191",
"!@	c #B1B1B1",
"~@	c #AE5094",
"{@	c #E49ED1",
"]@	c #BF65A4",
"^@	c #BD61A0",
"/@	c #952F77",
"(@	c #8F3575",
"_@	c #6C6C6C",
":@	c #ADADAD",
"<@	c #A74B8E",
"[@	c #D280BA",
"}@	c #A03E83",
"|@	c #98347B",
"1@	c #962E77",
"2@	c #922C74",
"3@	c #686868",
"4@	c #838383",
"5@	c #A94B90",
"6@	c #D587BC",
"7@	c #C771AC",
"8@	c #A14386",
"9@	c #98327A",
"0@	c #952D76",
"a@	c #922873",
"b@	c #656565",
"c@	c #7F7F7F",
"d@	c #A64A8B",
"e@	c #C26AA6",
"f@	c #CE7AB3",
"g@	c #952B76",
"h@	c #646464",
"i@	c #7C7C7C",
"j@	c #A84E8D",
"k@	c #D282BB",
"l@	c #B14F94",
"m@	c #9A347C",
"n@	c #942A75",
"o@	c #8F3173",
"p@	c #636363",
"q@	c #7B7B7B",
"r@	c #AB5592",
"s@	c #C068A6",
"t@	c #C46AAA",
"u@	c #B34F96",
"v@	c #9C387F",
"w@	c #99337B",
"x@	c #932974",
"y@	c #893B72",
"z@	c #AF679A",
"A@	c #BB5B9F",
"B@	c #9E3A81",
"C@	c #912772",
"D@	c #834972",
"E@	c #B27EA3",
"F@	c #B7579D",
"G@	c #942E76",
"H@	c #902470",
"I@	c #7B5570",
"J@	c #828282",
"K@	c #B89EB1",
"L@	c #B9579C",
"M@	c #BB5FA2",
"N@	c #B9579A",
"O@	c #B04C93",
"P@	c #A44889",
"Q@	c #A14388",
"R@	c #9E3A80",
"S@	c #8E226E",
"T@	c #6F5F6A",
"U@	c #A04886",
"V@	c #AD4B90",
"W@	c #C56DA9",
"X@	c #B65497",
"Y@	c #8C2C6D",
"Z@	c #616161",
"`@	c #AC6A98",
" #	c #9F3D84",
".#	c #922672",
"+#	c #8F216F",
"@#	c #7F4B70",
"##	c #B69AAE",
"$#	c #A34788",
"%#	c #BC62A2",
"&#	c #942C76",
"*#	c #8F236F",
"=#	c #8C1E6C",
"-#	c #676767",
";#	c #A4568B",
">#	c #8E206E",
",#	c #833D6F",
"'#	c #606060",
")#	c #6D6D6D",
"!#	c #B08EA8",
"~#	c #A24489",
"{#	c #912571",
"]#	c #8C1C6B",
"^#	c #705C6B",
"/#	c #A3598F",
"(#	c #9C3A7F",
"_#	c #A14385",
":#	c #8B1D6B",
"<#	c #81416E",
"[#	c #6B6B6B",
"}#	c #B1A1AC",
"|#	c #98367B",
"1#	c #8A1E6A",
"2#	c #696167",
"3#	c #A67A98",
"4#	c #8A1A69",
"5#	c #76586E",
"6#	c #9F618D",
"7#	c #9B397E",
"8#	c #A03C82",
"9#	c #7C4A6F",
"0#	c #7D7D7D",
"a#	c #AFAFAF",
"b#	c #955783",
"c#	c #932773",
"d#	c #891968",
"e#	c #80426E",
"f#	c #939393",
"g#	c #945481",
"h#	c #942C75",
"i#	c #8C206C",
"j#	c #737373",
"k#	c #8E8E8E",
"l#	c #925C81",
"m#	c #972F78",
"n#	c #8B1B6A",
"o#	c #881867",
"p#	c #7D496E",
"q#	c #727272",
"r#	c #8B8B8B",
"s#	c #936B87",
"t#	c #912972",
"u#	c #932D75",
"v#	c #8D1F6D",
"w#	c #871B67",
"x#	c #76566D",
"y#	c #A6A6A6",
"z#	c #91838D",
"A#	c #8B4B78",
"B#	c #80406D",
"C#	c #695F66",
"D#	c #866E7F",
"E#	c #8A4275",
"F#	c #8F2570",
"G#	c #8D216D",
"H#	c #823A6D",
"I#	c #715B6A",
"J#	c #7F6D7A",
"K#	c #834F74",
"L#	c #8C2C70",
"M#	c #8B1F6B",
"N#	c #862469",
"O#	c #7E486E",
"P#	c #6E5E69",
"Q#	c #776773",
"R#	c #7D5772",
"S#	c #834571",
"T#	c #87356F",
"U#	c #88286C",
"V#	c #881E69",
"W#	c #87256A",
"X#	c #85336D",
"Y#	c #7A526D",
"Z#	c #6E5E6A",
"`#	c #6E6E6E",
"                                                                                                            ",
"                                                                                                            ",
"                                                                                                            ",
"                                                                                                            ",
"                                          . + @ # $ % & * = - ; > ,                                         ",
"                                    . ' ) ! ~ ~ { ~ ~ ! % ] * ^ / ( _ : <                                   ",
"                                [ } ~ | 1 2 2 2 2 2 3 4 1 | ~ 5 6 7 8 9 0 a b                               ",
"                            c d ~ 1 2 e f g g h i h j g k e 3 1 l m n o ( 0 p q r                           ",
"                          s | t 2 e g i u v w x x y y w u i f z 2 | A 6 B ( C p D E                         ",
"                        F ! 1 2 f h w G H I J K J L M M H G u i f 2 1 ! 6 o ( 0 N O P Q                     ",
"                      d ! R 2 g u y H J S T U U V U W S S J H G u X Y 1 ! 6 o 9 Z `  ...+.                  ",
"                    @.! 1 2 X #.G J S U $.%.&.*.*.&.&.%.$.U =.J -.u X 2 1 ! & / ;.p >.,.'.).                ",
"                  !.% | 2 j u ~.J {.].%.^./.(._.:._.(.<.[.&.].S J -.u j 2 | % }.( 0 |. .1.2.).              ",
"                3.6 ~ 2 f 4.-.J U $.5.6.:.7.8.9.9.9.8.0.a./.[.b.U L -.c.f 2 ~ * / 9 d.e.f.g.h.).            ",
"              i.j.k.l.k i G m.{.b.*.(.0.9.n.o.p.p.p.q.r.9.0.(.*.b.s.J t.i u.l.% 7 ( 0 |.f.v.w.x.+.          ",
"              y.* ! 3 g u H S ].[.(.7.z.q.A.B.C.D.E.F.A.q.z.G._.[.H.S I.u J.3 ~ * 8 9 p O K.L.M.N.Q         ",
"            O.7 ] | z i G J V &./.0.z.p.F.P.Q.R.S.T.Q.U.F.p.z.0./.%.V.J x i z | % o 9 W.>.X.Y.Z.`. +        ",
"            .+^ 5 ++@+c.H #+].$+:.9.q.%+&+*+=+-+-+;+>+*+,+'+o.9.a.)+$.S -.u f R A !+( ~+{+f.]+^+/+(+_+      ",
"          :+<+& ! ++g w [+S %.}+G.r.|+&+T.1+2+3+4+3+5+=+S.&+A.r.6+}+7+S I.w g 2 ! * 8+0 ` 9+v.0+a+b+c+      ",
"          d+8+* ~ 4 X w m.U &.(.8.q.F.Q.>+5+e+f+g+h+i+5+>+Q.F.j+k+(.&.U J x j 3 ~ * / ;.|.9+l+0+m+n+o+p+    ",
"          _ 8 6 t 2 X G J V [.a.9.p.q+R.>+r+h+s+t+u+v+3+>+R.q+p.9.:.[.V.J x h 2 { * 8 ;.N  .v.w+x+y+z+A+    ",
"        B+;.8+* t 2 X G C+V *.:.9.p.D.T.D+e+E+F+G+t+g+e+H+T.P.p.9.a.&.I+C+y h 2 { * / ;.|. .1.w+J+K+L+M+N+  ",
"        O+C 8+6 { 2 h G K U &.:.9.P+C.R.-+r+h+s+F+s+v+r+>+R.C.Q+9.a.&.I+K G i 2 { * / ;.|. .1.0+J+K+R+S+T+  ",
"        U+C 8+* ~ 2 j x J U &.(.8.V+F.Q.;+2+W+h+E+X+Y+5+Z+`+F. @.@(.&.U M x X 2 ~ * 8+C +@9+v.@@#@K+$@%@&@  ",
"        *@0 8+& ! 2 g w I {.%./.0.=@|+-@R.Z+2+r+e+r+2+=+T.;@|+r.6+<.%.s.M u g 2 ! & ( C ` 9+v.0+a+>@,@'@)@!@",
"        ~@Z ( !+% R k u -.=.].)+a.9.q.F.&+T.>+-+{@>+=+S.&+F.q.9.a.^.].S H u ]@^@k.}.( ~+{+f.]+^+a+/@(@_@(+:@",
"        <@W.9 o ] | z h G J U %.[@7.9.p.F.D.Q.R.S.R.`+-@F.p.z.0./.%.U K G h 2 | ] B 9 W.e.,.}@Z.|@1@2@3@4@_+",
"        O 5@;./ * ~ 2 f w I.=.V *._.6@9.q.'+F.C.q+q+F.A.q.z.6+(.*.V S 7@#.j 2 ~ 6 / C N  .8@L.J+9@0@a@b@c@).",
"        d@` 0 ( }.A 1 z e@t.M {.b.*.(.0.9.n.q.Q+p.q. @=@9.0.(.*.f@S J y c.z 1 A !+( 0 ` 9+v.w+J+K+g@a@h@i@T+",
"        j@>.W.9 / 6 ~ 2 f u ~.J T b.&.k@a.6+8.9.9.9.8.7.a./.5.b.{.J G u f 2 ~ 6 / l@W.e.,.g.^+m@/@n@o@p@q@T+",
"        r@ .+@0 ( }.] t 2 s@#.-.J T ].%.$+/.(._.a.:.(./.$+%.$.{.K ~.t@X 2 | k.}.u@0 |. .1.L.v@w@0@x@y@h@i@T+",
"        z@f.>.p l@/ & A 1 2 X w G m.=.U ].7+&.&.&.&.&.%.].U =.J ~.#.j Y 1 A@* 8+9 W.>.f.g.B@a+K+g@C@D@b@c@).",
"        E@1.9+|.0 9 o F@! 1 e X u y I.J =.S U V V U U {.=.J 7@G u g e 1 ! 6 o 9 0 {+ .1.L.v@|@G@n@H@I@3@J@_+",
"        K@g.,.O N 0 ( o L@! M@2 f h w G H I.J J C+K J M H y w i f 2 l.! N@o ( O@N P@Q@}@R@m+>@g@C@S@T@_@(+:@",
"          U@]+f.e.V@0 ( B * A | 2 k g i c.w W@G G x x w u h g z 3 | ! * X@8+0 p >.f.v.w+J+9@G@x@H@Y@Z@'@)@!@",
"          `@ #l+f.d@p C ( o * % ~ M@2 e ]@g j X i X j g @+e 2 1 ~ k.& o ( 0 p e.f.v. #v@a+>@g@.#+#@#p@%@&@  ",
"          ##^+}@1.$#d@N 0 9 / }.6 % ~ | R 2 3 2 2 2 2 %#1 | ~ A * }.8 9 0 p d@9+8@}@Z.m+K+&#a@*#=#T@-#S+T+  ",
"            ;#^+}@8@f.>.N Z 9 8+o }.6 6 k.! ~ ~ { l ~ ! % ] * !+/ ( 9 ~+|.>.9+8@}@R@#@9@0@x@H@>#,#'#)#M+N+  ",
"            !#m+R@}@1.f.P@` V@0 9 ( 8+o !+n * 6 6 6 * & }.B / ( 9 0 V@` O ~#1.}@R@#@9@G@n@{#+#]#^#h@z+A+    ",
"              /#m+(#L.]+_#9+>.|.W.0 C 9 ( <+/ 8+8+8 8+8+( 9 ;.0 W.|.>.9+,.v.L.Z.x+9@G@n@.#S@:#<#'#[#o+p+    ",
"              }#|#m+v@w+g.1.,. .>.` p W.0 0 C ;.C ;.0 0 ~+W.p ` >.9+f.8@g.w+v@m+9@1@n@.#S@=#1#2#h@z+c+      ",
"                3#>@a+J+R@L.]+8@X.$#P@e.d@` +@N 5@+@+@` ` e.O 9+X.1.g.L.R@J+a+K+0@n@.#S@=#4#5#Z@)#(+p+      ",
"                  6#/@w@m+7#B@L.g.v.8@,.f.$#9+ .9+ .9+$#f.,.8@v.g.8#@@v@a+9@/@&#n@{#S@=#4#9#'#3@0# +        ",
"                  a#b#G@K+|@m+v@R@0+L.}@g.v.l+1.1.1.v.v.]+g.L.0+R@J+m+9@K+G@n@c#{#+#:#d#e#'#b@%@f#a#        ",
"                    +.g#g@1@K+9@a+#@v@^+^+0+0+w+w+w+@@@@R@^+J+x+|@w@>@1@h#x@C@*#i#:#d#e#'#h@j#k#+.          ",
"                      ).l#x@g@0@m#K+w@|@a+m+J+#@x+J+J+m+a+|@9@K+m#0@g@n@C@H@+#=#n#o#p#'#h@q#r#).            ",
"                        ).s#t#a@n@h#h#1@m#/@>@K+K+K+>@>@/@1@u#g@n@x@.#H@S@v#]#d#w#x#'#b@j#r#y#              ",
"                          ).z#A#{#C@a@x@n@n@g@g@g@g@n@n@n@x@a@.#{#*#>#v#]#d#o#B#C#Z@3@%@k#).                ",
"                            +.N.D#E#S@*#H@F#{#{#{#.#{#{#F#*#S@G#v#:#n#d#o#H#I#'#h@)#0#f#+.                  ",
"                              Q  +(+J#K#L#v#v#i#i#i#>#v#M#:#]#n#d#o#N#O#P#'#h@[#z+(+ +a#                    ",
"                                  _+c+o+z+Q#R#S#T#U#1#4#V#W#X#e#Y#Z#Z@p@-#`#z+o+c+_+                        ",
"                                      p+&@M+S+z+'@_@3@b@h@h@h@b@3@_@'@%@S+M+A+p+                            ",
"                                          N+T+&@)@(+4@c@i@q@i@c@4@(+)@&@T+N+                                ",
"                                                !@:@_+).y#T+y#)._+:@!@                                      "};
