/* XPM */
static char * pink_jump3_xpm[] = {
"54 54 464 2",
"  	c None",
". 	c #CAB6C4",
"+ 	c #C79FBA",
"@ 	c #C48CB2",
"# 	c #C27EAE",
"$ 	c #C074AA",
"% 	c #C06CA7",
"& 	c #BE68A5",
"* 	c #BE6AA5",
"= 	c #BF6FA7",
"- 	c #BF79AA",
"; 	c #C086AE",
"> 	c #C399B7",
", 	c #C6B2C0",
"' 	c #C593B5",
") 	c #C276AC",
"! 	c #C26EA9",
"~ 	c #C36FAA",
"{ 	c #C270AA",
"] 	c #BF69A6",
"^ 	c #BF67A3",
"/ 	c #BC64A2",
"( 	c #BA62A0",
"_ 	c #BA6AA3",
": 	c #BD89AD",
"< 	c #C5AFBF",
"[ 	c #C9AFC1",
"} 	c #C385B2",
"| 	c #C371AB",
"1 	c #C472AC",
"2 	c #C575AE",
"3 	c #C674AE",
"4 	c #C575AD",
"5 	c #C575AC",
"6 	c #C16DA6",
"7 	c #BF6BA6",
"8 	c #BE66A4",
"9 	c #BA609F",
"0 	c #B75D9D",
"a 	c #B876A5",
"b 	c #BFA5B7",
"c 	c #CBBFC7",
"d 	c #C48CB4",
"e 	c #C676AE",
"f 	c #C878B0",
"g 	c #C779B0",
"h 	c #C97BB2",
"i 	c #C979B1",
"j 	c #C777AF",
"k 	c #C36FA8",
"l 	c #C16BA8",
"m 	c #C068A4",
"n 	c #BD65A3",
"o 	c #B5599A",
"p 	c #B579A3",
"q 	c #BFB3BB",
"r 	c #C7A5BD",
"s 	c #C272AB",
"t 	c #C470AB",
"u 	c #CB7DB4",
"v 	c #CB7FB5",
"w 	c #CC80B6",
"x 	c #C775AF",
"y 	c #C16DA8",
"z 	c #BC66A3",
"A 	c #B85E9E",
"B 	c #B25898",
"C 	c #B492AB",
"D 	c #C595B7",
"E 	c #CC7EB5",
"F 	c #CD81B6",
"G 	c #CE82B7",
"H 	c #CF85B8",
"I 	c #D086BA",
"J 	c #D185B9",
"K 	c #CF85B9",
"L 	c #B6589A",
"M 	c #B45498",
"N 	c #AF7DA0",
"O 	c #BDBDBD",
"P 	c #C474AD",
"Q 	c #D288BC",
"R 	c #D38BBC",
"S 	c #D38BBE",
"T 	c #D28CBE",
"U 	c #D38DBF",
"V 	c #D38BBF",
"W 	c #D28ABD",
"X 	c #C87AB1",
"Y 	c #C775AD",
"Z 	c #BA60A0",
"` 	c #B75B9C",
" .	c #B45699",
"..	c #B45297",
"+.	c #AC7099",
"@.	c #B8B8B8",
"#.	c #C38BB3",
"$.	c #CC7EB3",
"%.	c #D189BC",
"&.	c #D48EC0",
"*.	c #D690C1",
"=.	c #D791C2",
"-.	c #D793C3",
";.	c #D692C2",
">.	c #D088BB",
",.	c #CE82B8",
"'.	c #B35597",
").	c #B44C95",
"!.	c #A96F97",
"~.	c #B5B5B5",
"{.	c #C494B6",
"].	c #CD81B8",
"^.	c #D389BD",
"/.	c #D48EBF",
"(.	c #D591C1",
"_.	c #D894C4",
":.	c #D995C5",
"<.	c #D997C6",
"[.	c #DA96C6",
"}.	c #D894C6",
"|.	c #D694C3",
"1.	c #BD67A4",
"2.	c #B55799",
"3.	c #B34994",
"4.	c #A67496",
"5.	c #C6A4BD",
"6.	c #CA7EB4",
"7.	c #D692C4",
"8.	c #D995C3",
"9.	c #DB99C9",
"0.	c #DC9CC9",
"a.	c #DD9DCA",
"b.	c #DB99C7",
"c.	c #DA98C7",
"d.	c #D58FC0",
"e.	c #CA7CB3",
"f.	c #B95F9F",
"g.	c #B5599C",
"h.	c #B44E96",
"i.	c #B24692",
"j.	c #A28098",
"k.	c #CABEC7",
"l.	c #C373AC",
"m.	c #DEA0CC",
"n.	c #E0A2CC",
"o.	c #E1A3CF",
"p.	c #E0A2CE",
"q.	c #DF9FCC",
"r.	c #D28ABE",
"s.	c #CC80B7",
"t.	c #C676B0",
"u.	c #B24893",
"v.	c #AF4590",
"w.	c #9E929B",
"x.	c #C286B0",
"y.	c #DE9ECB",
"z.	c #E2A4D0",
"A.	c #E3A7D0",
"B.	c #E4A8D1",
"C.	c #E4AAD3",
"D.	c #E3A9D3",
"E.	c #E3A7D1",
"F.	c #DB9BC8",
"G.	c #D48EBE",
"H.	c #CF83B9",
"I.	c #C977B1",
"J.	c #BA5E9F",
"K.	c #B44A95",
"L.	c #B04490",
"M.	c #A2628F",
"N.	c #A1A1A1",
"O.	c #C7ADBF",
"P.	c #D48CBF",
"Q.	c #E5A9D2",
"R.	c #E6ACD5",
"S.	c #E7AFD7",
"T.	c #E7AFD6",
"U.	c #E8AED7",
"V.	c #E4AAD4",
"W.	c #D48CBD",
"X.	c #B65A9B",
"Y.	c #B54B96",
"Z.	c #B04691",
"`.	c #AE408E",
" +	c #957D8E",
".+	c #ABABAB",
"++	c #BF7DAC",
"@+	c #C573AD",
"#+	c #C876B0",
"$+	c #D793C1",
"%+	c #E2A6D2",
"&+	c #E5ABD4",
"*+	c #E8B0D7",
"=+	c #E9B3DA",
"-+	c #EAB4DA",
";+	c #E9B3D9",
">+	c #EAB2D9",
",+	c #E6AAD3",
"'+	c #E2A6D0",
")+	c #D793C4",
"!+	c #BF67A5",
"~+	c #B65C9C",
"{+	c #B35798",
"]+	c #B14792",
"^+	c #AF3F8E",
"/+	c #A1598C",
"(+	c #969696",
"_+	c #B7B7B7",
":+	c #C8B2C2",
"<+	c #BA64A1",
"[+	c #CE84BA",
"}+	c #E1A5CF",
"|+	c #ECB6DC",
"1+	c #EDB9DE",
"2+	c #EDB9DF",
"3+	c #EBB7DC",
"4+	c #E9B3DB",
"5+	c #DC9AC9",
"6+	c #D490C2",
"7+	c #CE84B8",
"8+	c #BB63A1",
"9+	c #B45097",
"0+	c #B04290",
"a+	c #AB3B8A",
"b+	c #8D7B88",
"c+	c #A5A5A5",
"d+	c #C08CB1",
"e+	c #C674AC",
"f+	c #EEBADF",
"g+	c #F0BEE0",
"h+	c #F1C1E3",
"i+	c #F0BEE1",
"j+	c #EFBBE0",
"k+	c #DFA1CD",
"l+	c #DD9BC8",
"m+	c #B85E9D",
"n+	c #B44894",
"o+	c #AC3C8B",
"p+	c #996189",
"q+	c #939393",
"r+	c #B6B6B6",
"s+	c #BB69A3",
"t+	c #E4A8D2",
"u+	c #EAB2DA",
"v+	c #F3C3E5",
"w+	c #F4C6E7",
"x+	c #F3C3E6",
"y+	c #F1BFE2",
"z+	c #AF438F",
"A+	c #A64289",
"B+	c #848484",
"C+	c #A8A8A8",
"D+	c #C7B1C1",
"E+	c #D187BB",
"F+	c #EBB5DA",
"G+	c #F1BFE1",
"H+	c #F5C7E6",
"I+	c #F8CCEB",
"J+	c #D38DBE",
"K+	c #AD3D8C",
"L+	c #A93788",
"M+	c #877582",
"N+	c #9A9A9A",
"O+	c #BBBBBB",
"P+	c #C197B5",
"Q+	c #E1A3CD",
"R+	c #E0A2CF",
"S+	c #8F6784",
"T+	c #8C8C8C",
"U+	c #B3B3B3",
"V+	c #BD81AB",
"W+	c #DFA1CE",
"X+	c #EEBCDF",
"Y+	c #F1BDE2",
"Z+	c #EEBAE0",
"`+	c #EAB2D8",
" @	c #E7ADD6",
".@	c #E0A0CD",
"+@	c #DD9BCA",
"@@	c #CE86B9",
"#@	c #B5579A",
"$@	c #AE428E",
"%@	c #AB3D8B",
"&@	c #985884",
"*@	c #838383",
"=@	c #A9A9A9",
"-@	c #B96FA3",
";@	c #DEA0CD",
">@	c #E5A9D3",
",@	c #E5ABD3",
"'@	c #A83687",
")@	c #9D4984",
"!@	c #7C7C7C",
"~@	c #9E9E9E",
"{@	c #BFBFBF",
"]@	c #B6609F",
"^@	c #EAB4DC",
"/@	c #C474AB",
"(@	c #B34793",
"_@	c #A83486",
":@	c #A13B83",
"<@	c #787878",
"[@	c #BABABA",
"}@	c #B3579A",
"|@	c #D993C4",
"1@	c #DD9FCB",
"2@	c #B44C96",
"3@	c #B14591",
"4@	c #AA3A89",
"5@	c #A53183",
"6@	c #747474",
"7@	c #909090",
"8@	c #B5579B",
"9@	c #DC9AC7",
"0@	c #CE84B7",
"a@	c #AA3889",
"b@	c #A83285",
"c@	c #A42E81",
"d@	c #717171",
"e@	c #8B8B8B",
"f@	c #CA7CB1",
"g@	c #D68EBF",
"h@	c #C571AC",
"i@	c #A73184",
"j@	c #707070",
"k@	c #888888",
"l@	c #B35B99",
"m@	c #B95F9E",
"n@	c #AC3A8B",
"o@	c #A72F84",
"p@	c #A13782",
"q@	c #6F6F6F",
"r@	c #878787",
"s@	c #B3679D",
"t@	c #CC7CB4",
"u@	c #BB61A1",
"v@	c #AE3E8D",
"w@	c #AB398A",
"x@	c #A62E83",
"y@	c #9A4280",
"z@	c #B878A5",
"A@	c #B0408F",
"B@	c #A42C81",
"C@	c #93517F",
"D@	c #BC8EAE",
"E@	c #BE6AA7",
"F@	c #A73385",
"G@	c #A4287F",
"H@	c #895F7D",
"I@	c #8F8F8F",
"J@	c #C3ADBD",
"K@	c #C06AA7",
"L@	c #C371AD",
"M@	c #C06AA5",
"N@	c #B85C9D",
"O@	c #B35397",
"P@	c #B34B97",
"Q@	c #AF418F",
"R@	c #A2267D",
"S@	c #7C6A76",
"T@	c #B05295",
"U@	c #B7599B",
"V@	c #CC80B4",
"W@	c #BE66A2",
"X@	c #AA3888",
"Y@	c #9E327C",
"Z@	c #6D6D6D",
"`@	c #B57BA4",
" #	c #B04493",
".#	c #A52B81",
"+#	c #A3257E",
"@#	c #8E547D",
"##	c #C1A9BA",
"$#	c #B45096",
"%#	c #C474AC",
"&#	c #A52D82",
"*#	c #A3277E",
"=#	c #A0227B",
"-#	c #7C6A77",
";#	c #737373",
">#	c #AE6497",
",#	c #A2247D",
"'#	c #94447C",
")#	c #6C6C6C",
"!#	c #797979",
"~#	c #BB9DB3",
"{#	c #B44C98",
"]#	c #A63083",
"^#	c #A42A80",
"/#	c #A0207A",
"(#	c #7E6677",
"_#	c #AC689A",
":#	c #AD418D",
"<#	c #B34B95",
"[#	c #9F217A",
"}#	c #904A7C",
"|#	c #777777",
"1#	c #BDAFB8",
"2#	c #AA3C8A",
"3#	c #9E2279",
"4#	c #766C74",
"5#	c #B189A4",
"6#	c #9E1E78",
"7#	c #84627B",
"8#	c #A87098",
"9#	c #AD3F8D",
"0#	c #B14391",
"a#	c #8B537C",
"b#	c #898989",
"c#	c #BCBCBC",
"d#	c #A46291",
"e#	c #A62C82",
"f#	c #9D1D77",
"g#	c #904A7B",
"h#	c #A0A0A0",
"i#	c #A45E8F",
"j#	c #A63284",
"k#	c #A2287E",
"l#	c #A0247B",
"m#	c #808080",
"n#	c #9B9B9B",
"o#	c #A0688E",
"p#	c #A93587",
"q#	c #9F1F79",
"r#	c #9C1C76",
"s#	c #8C527B",
"t#	c #7F7F7F",
"u#	c #989898",
"v#	c #9D7992",
"w#	c #A32F81",
"x#	c #AA3688",
"y#	c #A1237C",
"z#	c #9B1F77",
"A#	c #846079",
"B#	c #B4B4B4",
"C#	c #9D9199",
"D#	c #9A5486",
"E#	c #A83085",
"F#	c #9D1B77",
"G#	c #90487B",
"H#	c #756B72",
"I#	c #927A8B",
"J#	c #9A4A83",
"K#	c #A22A7F",
"L#	c #A1257C",
"M#	c #9B1B75",
"N#	c #93417B",
"O#	c #8C7A87",
"P#	c #925881",
"Q#	c #9E327E",
"R#	c #9F237B",
"S#	c #992978",
"T#	c #8D517B",
"U#	c #7B6976",
"V#	c #84727F",
"W#	c #8B617F",
"X#	c #924E7E",
"Y#	c #983C7D",
"Z#	c #9B2D7B",
"`#	c #9C2278",
" $	c #9A2A79",
".$	c #963A7B",
"+$	c #885C7A",
"@$	c #7A7A7A",
"                                                                                                            ",
"                                                                                                            ",
"                                                                                                            ",
"                                                                                                            ",
"                                          . + @ # $ % & * = - ; > ,                                         ",
"                                    . ' ) ! ~ ~ { ~ ~ ! % % ] ^ / ( _ : <                                   ",
"                                [ } ~ | 1 2 3 3 3 3 4 5 1 | ~ 6 7 8 / 9 0 a b                               ",
"                            c d ~ 1 2 e f g g h h h i g j e 4 1 k l m n ( 0 o p q                           ",
"                          r s t 2 e g h u v v w w w w v u h f x 2 | y 7 z ( A o B C                         ",
"                        D ! 1 3 f h E F G H I I I J K K G F u h f 3 1 ! 7 n ( 0 L M N O                     ",
"                      d ! P 3 g u w G I Q R S T U T V W Q I G F u X Y 1 ! 7 n Z `  ...+.@.                  ",
"                    #.! 1 3 X $.F I %.T &.*.=.-.-.;.=.*.&.S >.I ,.u X 3 1 ! & / A o '.).!.~.                ",
"                  {.% | 3 i u ].I ^./.(.-._.:.<.[.<.:.}.|.=./.W I ,.u i 3 | % 1.( 0 2...3.4.~.              ",
"                5.7 ~ 2 f 6.,.I S &.7.8.[.9.0.a.a.a.0.b.c._.-.d.S J ,.e.f 2 ~ ] / f.g.M h.i.j.~.            ",
"              k.* y l.j h F K ^.d.-.:.b.a.m.n.o.o.o.p.q.a.b.:.-.d.r.I s.h t.l.% 8 ( 0 2.h.u.v.w.@.          ",
"              x.] ! 4 g u G %./.-.:.9.y.p.z.A.B.C.D.E.z.p.y.F.<.-.G.%.H.u I.4 ~ ] / J.o M K.L.M.N.O         ",
"            O.8 % | x h F I P.=._.b.y.o.E.Q.R.S.T.U.R.V.E.o.y.b._.(.W.I w h x | % n 9 X.'.Y.Z.`. +.+        ",
"            ++^ 6 @+#+e.G %./.$+[.a.p.%+&+*+=+-+-+;+>+*+,+'+n.a.c.)+&.Q ,.u f P y !+( ~+{+h.]+^+/+(+_+      ",
"          :+<+& ! @+g v [+W *._.F.q.}+&+U.;+|+1+2+1+3+4+T.&+z.q.5+_.6+W 7+v g 2 ! * 8+0  .9+u.0+a+b+c+      ",
"          d+8+] ~ e+X v K S =.:.0.p.E.R.>+3+f+g+h+i+j+3+>+R.E.k+l+:.;.S I w i 4 ~ ] / m+2.9+n+0+o+p+q+r+    ",
"          s+/ 7 t 3 X F I P.-.c.a.o.t+S.u+1+i+v+w+x+y+1+u+S.t+o.a.[.-.W.I w h 3 { ] / A L ..u.z+o+A+B+C+    ",
"        D+A 8+] t 3 X F E+U -.[.a.o.C.U.F+f+G+H+I+w+h+f+-+U.Q.o.a.c.;.J+E+w h 3 { ] / A 2...3.z+K+L+M+N+O+  ",
"        P+A 8+7 { 3 h F I T ;.[.a.Q+B.S.-+1+i+v+H+v+y+1+u+S.B.R+a.c.;.J+I F h 3 { * / A 2...3.0+K+L+S+T+U+  ",
"        V+A 8+] ~ 3 i w I T =.:.0.W+E.R.;+|+X+i+G+Y+Z+3+`+ @E..@+@:.=.T @@w X 3 ~ ] 8+A #@9+u.$@%@L+&@*@=@  ",
"        -@0 8+& ! 2 g E H ^.*._.b.;@}+>@S.`+|+1+f+1+|+4+U.,@}+q.5+}.*.r.K u g 2 ! & ( A  .9+u.0+a+'@)@!@~@{@",
"        ]@` ( !+% P j u ,.>./.)+c.a.p.E.&+U.>+-+^@u+=+T.&+E.p.a.c.-./.Q G u j /@y 1.( ~+{+h.(@^+a+_@:@<@(+[@",
"        }@X.9 n % | x h F I S (.|@9.1@o.E.C.R.S.T.S. @>@E.o.y.b._.(.T I F h 3 | % z 9 X.M 2@3@`.4@_@5@6@7@_+",
"        M 8@A / ] ~ 2 f E H.>.U -.<.9@1@p.'+E.B.t+t+E.z.p.y.5+:.-.U Q 0@$.i 2 ~ 7 / A L ..K.L.K+a@b@c@d@e@~.",
"        '. .0 ( 1.y 1 x f@s.K ^.d.-.:.b.a.m.p.R+o.p..@;@a.b.:.-.g@W I w e.x h@y !+( 0  .9+u.z+K+L+i@c@j@k@U+",
"        l@'.X.f./ 7 ~ 2 f u ].I R d.;.:.c.5+0.a.a.a.0.9.c._.7.d.^.I F u f 2 ~ 7 / m@X.M ).i.^+n@_@o@p@q@r@U+",
"        s@..#@0 ( 1.% t 3 X $.,.I R /.(.$+_.:.<.c.[.:._.$+(.&.^.I ].t@X 3 | y 1.u@0 2...3.L.v@w@b@x@y@j@k@U+",
"        z@h.'.o m@/ & y 1 3 X E F K >.S /.6+;.;.;.;.;.*./.T >.I ].$.i Y 1 ! ] 8+J.X.'.h.i.A@a+L+i@B@C@d@e@~.",
"        D@3.9+2.0 9 n E@! 1 e X u w H.I >.W T P.P.T S ^.>.I 0@F u g e 1 ! 7 n Z 0 {+..3.L.v@4@F@o@G@H@6@I@_+",
"        J@i.2@M L 0 ( n K@! L@3 f h E F G 7+I I E+I I K G w E h f 3 l.! M@n ( N@L O@P@3@Q@o+'@i@B@R@S@<@(+[@",
"          T@(@h.M U@0 ( z ] y | 2 j g h e.E V@F F w w v u h g x 4 | ! ] W@8+0 o '.h.u.z+K+X@F@x@G@Y@Z@!@~@{@",
"          `@ #n+h.'.o A ( n * % ~ L@2 e j g i X h X i g #+e 2 1 ~ y & n ( 0 o M h.u. #v@a+'@i@.#+#@#q@*@=@  ",
"          ##^+3@3.$#'.L 0 Z / 1.7 % ~ | P 2 4 3 3 3 2 %#1 | ~ y ] 1./ 9 0 o '.9+K.3@`.o+L+i@&#*#=#-#;#T+U+  ",
"            >#^+3@K.h.'.L ` J.8+n 1.7 7 y ! ~ ~ { k ~ ! % % ] !+/ ( f.~+2.'.9+K.3@Q@%@a@b@x@G@,#'#)#!#N+O+  ",
"            ~#o+Q@3@3.h.O@ .U@0 f.( 8+n !+m ] 7 7 7 ] & 1.z / ( f.0 U@ .M {#3.3@Q@%@a@F@]#^#+#/#(#j@B+C+    ",
"              _#o+:#L.(@<#9+'.2.X.0 A 9 ( <+/ 8+8+/ 8+8+( 9 A 0 X.2.'.9+2@u.L.`.o+a@F@]#.#R@[#}#)#|#q+r+    ",
"              1#2#o+v@z+i.3.)...'. .o X.0 0 A A A A 0 0 ~+X.o  .'.9+h.K.i.z+v@o+a@_@]#.#R@=#3#4#j@B+c+      ",
"                5#'@a+K+Q@L.(@K.Y.$#O@M '. .#@L 8@#@#@ . .M M 9+Y.3.i.L.Q@K+a+L+b@]#.#R@=#6#7#Z@!#(+r+      ",
"                  8#_@w@o+9#A@L.i.u.K.2@h.$#9+..9+..9+$#h.).K.u.i.0#$@v@a+X@_@i@o@^#R@=#6#a#)#6@b#.+        ",
"                  c#d#F@L+4@o+v@Q@0+L.3@i.u.n+3.3.3.u.u.]+i.L.0+Q@K+o+X@L+F@]#e#^#+#[#f#g#)#d@*@h#c#        ",
"                    @.i#i@_@L+X@a+%@v@^+^+0+0+z+z+z+$@$@Q@^+K+o+4@w@'@_@j#x@B@k#l#[#f#g#)#j@m#n#@.          ",
"                      ~.o#x@i@b@p#L+w@4@a+o+K+%@o+K+K+o+a+4@a@L+p#b@i@o@B@G@+#=#q#r#s#)#j@t#u#~.            ",
"                        ~.v#w#c@o@j#j#_@p#_@'@L+x#L+'@'@_@_@j#i@]#x@.#G@R@y#/#f#z#A#)#d@m#u#B#              ",
"                          ~.C#D#^#B@&#x@o@]#E#i@i@i@]#]#o@x@&#.#^#k#,#y#/#f#F#G#H#Z@6@*@n#~.                ",
"                            @.N.I#J#R@k#G@K#^#^#^#.#^#^#K#*#R@L#y#[#q#f#M#N#(#)#j@!#b#h#@.                  ",
"                              O .+(+O#P#Q#y#y#l#l#l#,#y#R#[#/#q#f#F#S#T#U#)#j@|#B+(+.+c#                    ",
"                                  _+c+q+B+V#W#X#Y#Z#3#6#`# $.$g#+$U#Z@q@;#@$B+q+c+_+                        ",
"                                      r+=@N+T+B+!@<@6@d@j@j@j@d@6@<@!@*@T+N+C+r+                            ",
"                                          O+U+=@~@(+7@e@k@r@k@e@7@(+~@=@U+O+                                ",
"                                                {@[@_+~.B#U+B#~._+[@{@                                      "};
