/* XPM */
static char *pink_destroy2[] = {
"36 36 65 1",
"  c black",
". c #742900",
"X c #912c03",
"o c #a33800",
"O c #9d4808",
"+ c #b24201",
"@ c #a86f27",
"# c #8f7c4f",
"$ c #877d65",
"% c #d95a23",
"& c #d96812",
"* c #ec6e07",
"= c #ea7802",
"- c #f87a06",
"; c #fc7226",
": c #e14d41",
"> c #94861d",
", c #918530",
"< c #b1920c",
"1 c #a59533",
"2 c #898259",
"3 c #91874b",
"4 c #868268",
"5 c #aa984f",
"6 c #b3ac56",
"7 c #d19721",
"8 c #ec8702",
"9 c #ee9609",
"0 c #fb8708",
"q c #ff8814",
"w c #fb960a",
"e c #ff9816",
"r c #ff9623",
"t c #f8a70a",
"y c #fea717",
"u c #f1b509",
"i c #feb817",
"p c #ffaa21",
"a c #fda134",
"s c #ffb721",
"d c #ccb04b",
"f c #dead5c",
"g c #dec428",
"h c #f1c60e",
"j c #fcc717",
"k c #fcd719",
"l c #fad02a",
"z c #feda24",
"x c #f4e71f",
"c c #fdea27",
"v c #ffef31",
"b c #fff638",
"n c #d0c64f",
"m c #d5cd65",
"M c #f4d351",
"N c #f0d56e",
"B c #fed968",
"V c #feec49",
"C c #fce856",
"Z c #fffa47",
"A c #fffa57",
"S c #f6ea70",
"D c #fff766",
"F c #fef981",
"G c None",
"GGGGGGGGGGGGGGGGGGGGGGGGGGGGGGGGGGGG",
"GGGGGGGGGGGGGGGGGGGGGGGGGGGGGGGGGGGG",
"GGGGGGGGGGGGGGGGGGGGGGGGGGGGGGGGGGGG",
"GGGGGGGGGGG$3@7gglgCnd534GGGGGGGGGGG",
"GGGGGGGGGGG#5BMVZbZZAADm62GGGGGGGGGG",
"GGGGGGGGGG#dMCVvvbvbbZZADm3GGGGGGGGG",
"GGGGGGGGG#dBa99ilkhjjkbbZDS3$GGGGGGG",
"GGGGGGGG#7N::%*8yti9ttjkbZDS3$GGGGGG",
"GGGGGG43dB&::;;qsyww889ukvZAS#GGGGGG",
"GGGGGG21Dy=;;;-ewwiyyw9ihcbZD62GGGGG",
"GGGGG$5DVieqr-00weywwyiylcxbAS5$GGGG",
"GGGG$,BZcjspq-wweeee0wwwyizbZAn2GGGG",
"GGGG$dVbkui8ww8ee0q=-0eeytjbbZM5GGGG",
"GGGG3Cbvuiw8-wyweqqq0--ew8ijbZD5$GGG",
"GGG26Abziie8y0ee=--q-q-=0etuzvD63GGG",
"GGG,mAvkui98ee0e0q-q---e0eyikvAN,GGG",
"GGG,NZvkzuye0--=eq-----eeytjhcAm,GGG",
"GGG>SZvvzyeqqqqq*----rqqwwtizhAF,GGG",
"GGG,SZxkzty-**qq---*qqq0eyyizvAF,GGG",
"GGG,NAckhitee0qe---q-q-0y9iukbAN,GGG",
"GGG,mAbzjjtwpq-0*q-r---0yyijhvAS,GGG",
"GGG#5Azkjtw8e00--qqqwwe00yijkbAm3GGG",
"GGG$3SZzjtywwee-0q=0eww=eyiukbD52GGG",
"GGGG#dDluiiiyee00--e0w8eysikbAD3GGGG",
"GGGG$5BCuitjw=ey00-wey8pytukbA62GGGG",
"GGGGG#dAzhitweeee00we8yyiijvZS3GGGGG",
"GGGGG$,DZhjy8y00rrqeeeysijhbAm2GGGGG",
"GGGGGG#1CZvierq-*&&&&89thhZAn3GGGGGG",
"GGGGGG4#mCVi88=&+oX+&qsizVAm#GGGGGGG",
"GGGGGGG$#dDVl7OOXXXX+r8lVDN54GGGGGGG",
"GGGGGGGG$#dMDBM@@.O@7MBdd13GGGGGGGGG",
"GGGGGGGGG423fNBBBBBSf5##24GGGGGGGGGG",
"GGGGGGGGGGG$#><<<7<<>,2GGGGGGGGGGGGG",
"GGGGGGGGGGGGGGGGGGGGGGGGGGGGGGGGGGGG",
"GGGGGGGGGGGGGGGGGGGGGGGGGGGGGGGGGGGG",
"GGGGGGGGGGGGGGGGGGGGGGGGGGGGGGGGGGGG"
};
