/* XPM */
static char * red_jump7_xpm[] = {
"54 54 479 2",
"  	c None",
". 	c #C59FA2",
"+ 	c #C98182",
"@ 	c #CC6A6D",
"# 	c #CD595E",
"$ 	c #CF4B51",
"% 	c #D04248",
"& 	c #D03C43",
"* 	c #CF3F46",
"= 	c #CE464C",
"- 	c #CB5359",
"; 	c #C96366",
"> 	c #C57B7E",
", 	c #C09E9F",
"' 	c #CB7375",
") 	c #D14D53",
"! 	c #D34349",
"~ 	c #D3454B",
"{ 	c #D2464C",
"] 	c #D2444A",
"^ 	c #D14148",
"/ 	c #D03E44",
"( 	c #D03C3F",
"_ 	c #CE383F",
": 	c #CC363D",
"< 	c #CA4047",
"[ 	c #C3696B",
"} 	c #C1999A",
"| 	c #C69899",
"1 	c #CC6269",
"2 	c #D3474D",
"3 	c #D5474D",
"4 	c #D54B51",
"5 	c #D64A51",
"6 	c #D54B4E",
"7 	c #D14346",
"8 	c #D04046",
"9 	c #CF3B42",
"0 	c #CD3940",
"a 	c #CC343B",
"b 	c #C9333A",
"c 	c #C35156",
"d 	c #BA8E90",
"e 	c #C3ABAC",
"f 	c #CD696E",
"g 	c #D64C52",
"h 	c #D84E54",
"i 	c #D74F55",
"j 	c #D85258",
"k 	c #D95157",
"l 	c #D94F55",
"m 	c #D74D54",
"n 	c #D44447",
"o 	c #D43E46",
"p 	c #D13D40",
"q 	c #CE3A41",
"r 	c #C33339",
"s 	c #BE565B",
"t 	c #B7A1A2",
"u 	c #C78B8E",
"v 	c #D2484E",
"w 	c #D5454C",
"x 	c #DB5359",
"y 	c #DA565C",
"z 	c #DB555B",
"A 	c #DB575D",
"B 	c #DC565C",
"C 	c #D74B52",
"D 	c #D1434A",
"E 	c #CD3B42",
"F 	c #CB333A",
"G 	c #BE343B",
"H 	c #B4787D",
"I 	c #CB7579",
"J 	c #DC585E",
"K 	c #DC5A60",
"L 	c #DE5C5F",
"M 	c #DE5E64",
"N 	c #DF5D60",
"O 	c #DD5D63",
"P 	c #DA545A",
"Q 	c #BE3036",
"R 	c #AC779C",
"S 	c #BBBBBB",
"T 	c #D44A50",
"U 	c #E06066",
"V 	c #E16164",
"W 	c #E16167",
"X 	c #E06268",
"Y 	c #E16369",
"Z 	c #E1616A",
"` 	c #D85056",
" .	c #D74B4E",
"..	c #CF3940",
"+.	c #C8323A",
"@.	c #C13138",
"#.	c #BD2F35",
"$.	c #AC6280",
"%.	c #B6B6B6",
"&.	c #CB696E",
"*.	c #DB5558",
"=.	c #E2646A",
"-.	c #E3676D",
";.	c #E4686D",
">.	c #E46A6F",
",.	c #DF5F65",
"'.	c #DD595F",
").	c #CA343B",
"!.	c #BD3137",
"~.	c #BB2B32",
"{.	c #AA5F78",
"].	c #B2B2B2",
"^.	c #CA7478",
"/.	c #DC5861",
"(.	c #E15F65",
"_.	c #E1656B",
":.	c #E56B70",
"<.	c #E56D72",
"[.	c #E66E73",
"}.	c #E67075",
"|.	c #E86E74",
"1.	c #E66C74",
"2.	c #E36B71",
"3.	c #DF6167",
"4.	c #CE3C43",
"5.	c #C23239",
"6.	c #BA282F",
"7.	c #A36D8D",
"8.	c #C6888D",
"9.	c #D9555B",
"0.	c #E46870",
"a.	c #E86C6F",
"b.	c #E8727A",
"c.	c #EA747A",
"d.	c #EB757B",
"e.	c #E87277",
"f.	c #E87076",
"g.	c #E2666C",
"h.	c #D95359",
"i.	c #C3333D",
"j.	c #BF3138",
"k.	c #BC2C33",
"l.	c #BA262D",
"m.	c #9E7B94",
"n.	c #C2AAAC",
"o.	c #CE4047",
"p.	c #D24249",
"q.	c #D3494F",
"r.	c #DE5C62",
"s.	c #EA767C",
"t.	c #EB777D",
"u.	c #ED797C",
"v.	c #EE7A80",
"w.	c #ED797F",
"x.	c #EC767C",
"y.	c #E06069",
"z.	c #DB5760",
"A.	c #D64C56",
"B.	c #D03A41",
"C.	c #BB2D34",
"D.	c #B9272E",
"E.	c #B7252C",
"F.	c #9A8E97",
"G.	c #CC6267",
"H.	c #EF7B80",
"I.	c #EF7F82",
"J.	c #F08083",
"K.	c #F08287",
"L.	c #EF8189",
"M.	c #F07E83",
"N.	c #EC747A",
"O.	c #E87479",
"P.	c #E26467",
"Q.	c #DE5A60",
"R.	c #D94D53",
"S.	c #CD333B",
"T.	c #BB2930",
"U.	c #B8242B",
"V.	c #A3474B",
"W.	c #9E9E9E",
"X.	c #C49698",
"Y.	c #E26268",
"Z.	c #F18183",
"`.	c #F1858A",
" +	c #F2888D",
".+	c #F4868C",
"++	c #F0828A",
"@+	c #E26265",
"#+	c #C53339",
"$+	c #BC2A31",
"%+	c #B9252C",
"&+	c #B62027",
"*+	c #91798A",
"=+	c #A8A8A8",
"-+	c #CA585D",
";+	c #D5494F",
">+	c #D84C52",
",+	c #E56B6D",
"'+	c #EE7E86",
")+	c #F08489",
"!+	c #F4888E",
"~+	c #F58B93",
"{+	c #F78B90",
"]+	c #F48C91",
"^+	c #F68A8F",
"/+	c #F28284",
"(+	c #EE7E83",
"_+	c #E36B73",
":+	c #C7333A",
"<+	c #BF333A",
"[+	c #B71F26",
"}+	c #A23E43",
"|+	c #929292",
"1+	c #B5B5B5",
"2+	c #C49CA0",
"3+	c #CC383F",
"4+	c #DD5B64",
"5+	c #E66C71",
"6+	c #EE7C81",
"7+	c #F18388",
"8+	c #F88E93",
"9+	c #F99196",
"0+	c #F99198",
"a+	c #F78F94",
"b+	c #F68A92",
"c+	c #EA7278",
"d+	c #E2666F",
"e+	c #DD5B61",
"f+	c #CD373E",
"g+	c #BC2E35",
"h+	c #B92128",
"i+	c #B41A21",
"j+	c #897784",
"k+	c #A2A2A2",
"l+	c #C66C70",
"m+	c #D64A4D",
"n+	c #EF7F84",
"o+	c #FB9196",
"p+	c #FC9699",
"q+	c #FD999E",
"r+	c #FC969B",
"s+	c #FC9297",
"t+	c #EC787E",
"u+	c #EB7376",
"v+	c #BB272E",
"w+	c #B51B23",
"x+	c #964A4D",
"y+	c #8F8F8F",
"z+	c #B4B4B4",
"A+	c #F08085",
"B+	c #F7898E",
"C+	c #FE9CA0",
"D+	c #FEA0A4",
"E+	c #FE9CA3",
"F+	c #FE969B",
"G+	c #B7232A",
"H+	c #B61A21",
"I+	c #AD232A",
"J+	c #7F7F7F",
"K+	c #A5A5A5",
"L+	c #C29C9F",
"M+	c #F88C8E",
"N+	c #FD9799",
"O+	c #FEA2A4",
"P+	c #FEA8AC",
"Q+	c #F68C91",
"R+	c #E0646A",
"S+	c #B61C23",
"T+	c #B2161D",
"U+	c #81707B",
"V+	c #969696",
"W+	c #B9B9B9",
"X+	c #C47A7E",
"Y+	c #EE7A7D",
"Z+	c #ED7981",
"`+	c #8C555E",
" @	c #888888",
".@	c #B0B0B0",
"+@	c #C55F64",
"@@	c #EC7880",
"#@	c #F58B90",
"$@	c #FA9498",
"%@	c #FE9499",
"&@	c #FB9199",
"*@	c #F68A8D",
"=@	c #F3858A",
"-@	c #ED777D",
";@	c #EB7379",
">@	c #C33138",
",@	c #B62229",
"'@	c #B41C23",
")@	c #984042",
"!@	c #7E7E7E",
"~@	c #A6A6A6",
"{@	c #C7474D",
"]@	c #EB7780",
"^@	c #F18186",
"/@	c #F7898C",
"(@	c #F18385",
"_@	c #B1151C",
":@	c #A12D32",
"<@	c #777777",
"[@	c #9B9B9B",
"}@	c #BCBCBC",
"|@	c #C73741",
"1@	c #F78B93",
"2@	c #D44A4D",
"3@	c #B0141B",
"4@	c #A71D23",
"5@	c #737373",
"6@	c #B8B8B8",
"7@	c #BF333D",
"8@	c #E86A70",
"9@	c #E9777C",
"0@	c #B31920",
"a@	c #B1131A",
"b@	c #AE1017",
"c@	c #6E6E6E",
"d@	c #8C8C8C",
"e@	c #C2323C",
"f@	c #EA7275",
"g@	c #EF7D82",
"h@	c #DD5B5E",
"i@	c #B51D24",
"j@	c #B3171F",
"k@	c #B11118",
"l@	c #AD0D15",
"m@	c #6A6A6A",
"n@	c #878787",
"o@	c #BE3239",
"p@	c #D95356",
"q@	c #E36568",
"r@	c #B10F17",
"s@	c #696969",
"t@	c #848484",
"u@	c #BF373D",
"v@	c #E86C72",
"w@	c #CA363D",
"x@	c #B61820",
"y@	c #B10D15",
"z@	c #A8181F",
"A@	c #676767",
"B@	c #838383",
"C@	c #C13F45",
"D@	c #D75157",
"E@	c #DC5258",
"F@	c #CE343B",
"G@	c #B71D24",
"H@	c #B5171F",
"I@	c #B00C14",
"J@	c #9E262C",
"K@	c #C25459",
"L@	c #D44249",
"M@	c #B82027",
"N@	c #AE0A12",
"O@	c #923A3E",
"P@	c #C07074",
"Q@	c #CF3F49",
"R@	c #AF131A",
"S@	c #AD070F",
"T@	c #844C4D",
"U@	c #8B8B8B",
"V@	c #BE9899",
"W@	c #D23E45",
"X@	c #D34751",
"Y@	c #D23E41",
"Z@	c #CA323A",
"`@	c #BC3036",
" #	c #BA2A34",
".#	c #AA060D",
"+#	c #755F64",
"@#	c #B63238",
"##	c #C63239",
"$#	c #DC5659",
"%#	c #CF3B3E",
"&#	c #A51316",
"*#	c #656565",
"=#	c #BD595E",
"-#	c #B8242E",
";#	c #AF0911",
">#	c #AC040C",
",#	c #8D3D40",
"'#	c #BC9495",
")#	c #BB2F35",
"!#	c #D34B51",
"~#	c #B01017",
"{#	c #AF0B13",
"]#	c #AC060D",
"^#	c #A90109",
"/#	c #745E63",
"(#	c #6D6D6D",
"_#	c #B84244",
":#	c #BD2D34",
"<#	c #AB030B",
"[#	c #962A2F",
"}#	c #636363",
"|#	c #747474",
"1#	c #B9858A",
"2#	c #BB2B35",
"3#	c #B00E16",
"4#	c #AF070F",
"5#	c #A80008",
"6#	c #77585E",
"7#	c #B6464E",
"8#	c #B52128",
"9#	c #BA2A31",
"0#	c #C4343A",
"a#	c #923035",
"b#	c #727272",
"c#	c #B59D9D",
"d#	c #B31B22",
"e#	c #C2343B",
"f#	c #A70109",
"g#	c #6E6266",
"h#	c #B26E70",
"i#	c #A40008",
"j#	c #7E5053",
"k#	c #B05055",
"l#	c #B61E25",
"m#	c #BA2229",
"n#	c #AD0911",
"o#	c #893D42",
"p#	c #858585",
"q#	c #AFAFAF",
"r#	c #A6464B",
"s#	c #A20008",
"t#	c #913136",
"u#	c #9D9D9D",
"v#	c #BABABA",
"w#	c #ABABAB",
"x#	c #A54348",
"y#	c #AF1118",
"z#	c #AB070E",
"A#	c #A9030B",
"B#	c #7B7B7B",
"C#	c #979797",
"D#	c #9F525B",
"E#	c #B2141B",
"F#	c #A60008",
"G#	c #A00008",
"H#	c #8A3C3F",
"I#	c #7A7A7A",
"J#	c #949494",
"K#	c #9A748F",
"L#	c #AC0E16",
"M#	c #AE1219",
"N#	c #AB0109",
"O#	c #7E4E50",
"P#	c #B1B1B1",
"Q#	c #998C95",
"R#	c #9C3A3F",
"S#	c #B20E16",
"T#	c #AA020A",
"U#	c #912F33",
"V#	c #6E6064",
"W#	c #8E7587",
"X#	c #9D2F34",
"Y#	c #AC0810",
"Z#	c #AA040C",
"`#	c #95272C",
" $	c #77575B",
".$	c #877482",
"+$	c #914144",
"@$	c #A5131A",
"#$	c #A8020A",
"$$	c #A00A11",
"%$	c #8C3A3E",
"&$	c #735D60",
"*$	c #7E6A75",
"=$	c #874D50",
"-$	c #93353A",
";$	c #9C2026",
">$	c #A20E15",
",$	c #A4020A",
"'$	c #A10B12",
")$	c #9B1D23",
"!$	c #844849",
"~$	c #745C62",
"{$	c #757575",
"                                                                                                            ",
"                                                                                                            ",
"                                                                                                            ",
"                                                                                                            ",
"                                          . + @ # $ % & * = - ; > ,                                         ",
"                                    . ' ) ! ~ ~ { ~ ~ ] ^ ^ / ( _ : < [ }                                   ",
"                                | 1 ~ 2 3 4 5 5 5 5 4 6 3 2 ~ 7 8 9 0 a b c d                               ",
"                            e f ~ 3 4 g h i i j k j l i m g 4 3 n o p q : b r s t                           ",
"                          u v w 4 g i k x y z A A B B z x k h C 4 2 D 8 E : F r G H                         ",
"                        I ! 3 5 h j z J K L M M M N O O K J P k h 5 3 ! 8 q : b r Q R S                     ",
"                      f ] T 5 i x B K M U V W X Y X Z U U M K J x `  .3 ] 8 ..a +.@.#.$.%.                  ",
"                    &.] 3 5 ` *.J M U X =.-.;.>.>.;.;.-.=.W ,.M '.P ` 5 3 ] & _ ).r !.~.{.].                ",
"                  ^.^ 2 5 l P /.M (._.-.:.<.[.}.|.}.[.1.2.;._.3.M '.x l 5 2 ^ 4.: b 5.#.6.7.].              ",
"                8.8 ~ 4 h 9.'.M W =.0.a.|.b.c.d.d.d.c.e.f.<.2.g.W N '.h.h 4 ~ / _ a i.j.k.l.m.].            ",
"              n.o.p.q.m k J r.(.g.>.[.e.s.t.u.v.v.v.w.x.s.e.[.>.g.y.M z.k A.q.^ B.: b 5.C.D.E.F.%.          ",
"              G./ ! 4 i P K U _.2.[.b.d.w.H.I.J.K.L.M.H.w.N.O.}.2.P.U Q.P R.4 ~ / 0 S.r Q T.U.V.W.S         ",
"            X.9 ^ 2 C k J M Y.;.<.e.N.v.M.Z.`. + +.+`.++M.v.d.e.<.-.@+M A k C 2 ^ ..a #+!.$+%+&+*+=+        ",
"            -+( 7 ;+>+h.K 3._.,+|.d.w.'+)+!+~+{+{+]+^+!+/+(+u.d.f._+=.U '.x h T D & : :+<+C.D.[+}+|+1+      ",
"          2+3+& ] ;+i z 4+U -.5+O.x.6+7+.+^+8+9+0+9+a+b+ +7+H.x.c+5+d+U e+z i 4 ] * f+b @.g+D.h+i+j+k+      ",
"          l+f+/ ~ m+` z r.W ;.[.c.w.n+`.^+a+o+p+q+r+s+a+^+`.n+t+u+[.;.W M A l 4 ~ / _ ).5.g+v+h+w+x+y+z+    ",
"          < 0 8 w 5 ` J M Y.2.f.d.v.A+ +B+9+r+C+D+E+F+9+B+ +A+v.d.|.2.@+M A j 5 { / 0 ).r #.D.G+H+I+J+K+    ",
"        L+).f+/ w 5 ` J ,.Y >.|.s.v.K..+M+o+N+O+P+D+q+o+Q+.+Z.v.d.f.;.R+,.B j 5 { / _ ).5.#.6.G+S+T+U+V+W+  ",
"        X+F f+8 { 5 j J M X ;.|.d.Y+J. +{+9+r+C+O+C+F+9+B+ +J.Z+s.f.;.R+M J k 5 { * _ ).5.#.6.h+S+T+`+ @.@  ",
"        +@F f+/ ~ 5 l A M X ;.[.c.@@M.`.#@8+$@r+N+%@&@a+*@=@n+-@;@[.;.X O A ` 5 ~ / f+F >@g+D.,@'@T+)@!@~@  ",
"        {@b f+& ] 4 i z L (.-.<.e.]@6+^@ +/@8+9+o+9+8+b+.+(@6+x.c+1.-.y.O P i 4 ! & : F @.g+D.h+i+_@:@<@[@}@",
"        |@+.: & ^ T m x '.,._._+f.d.w.M.7+.+^+{+1@B+~+ +7+M.w.d.f.:._.U K x m 2@p.4.: :+<+C.l.[+i+3@4@5@|+6@",
"        7@#+a q ^ 2 C j J M W -.8@b.9@v.M.K.`. + + +=@^@M.v.d.e.<.-.X M J j 5 2 ^ E a #+j.$+%+&+0@a@b@c@d@1+",
"        Q e@)._ / ~ 4 h z Q.,.Y >.}.f@9@w.g@M.J.A+A+n+H.w.d.c+[.>.Y U h@*.l 4 ~ 8 _ F r #.T.U.i@j@k@l@m@n@].",
"        o@@.b : 4.D 3 C p@z.O (.g.>.[.e.d.t.w.Z+v.w.-@]@s.e.[.>.q@U M B h.C 3 D & : b @.g+D.G+S+T+r@l@s@t@.@",
"        u@!.#+a _ 8 ~ 4 h x /.M V g.;.v@f.c+c.d.s.d.c.b.f.<.0.g.(.M J x h 4 ~ 8 _ w@#+j.~.l.[+x@3@y@z@A@B@.@",
"        C@#.>@b : 4.^ w 5 D@*.'.M V _.-.,+<.[.}.f.|.[.<.,+-.=.(.M /.E@` 5 2 p.4.F@b 5.#.6.U.G@H@k@I@J@s@t@.@",
"        K@k.!.r w@_ & D 3 5 ` z J r.,.W _.d+;.;.;.;.;.-._.X ,.M /.*.l  .3 L@/ f+S.#+!.k.l.M@i+T+r@N@O@m@n@].",
"        P@6.g+5.b a ..Q@] 3 g ` x B Q.M ,.U X Y.Y.X W (.,.M h@J x i g 3 ! 8 q a b <+#.6.U.G@0@R@y@S@T@c@U@1+",
"        V@l.$+Q r b : q W@! X@5 h j z J K e+M M ,.M M O K B z k h 5 q.] Y@q : Z@r `@ #%+M@w+_@r@N@.#+#5@|+6@",
"          @#l.C.j.##b : E / D 2 4 m i k h.z $#J J A A z x j i C 4 2 ] / %#f+b r !.k.D.G+S+j@R@I@S@&#*#<@[@}@",
"          =#-#v+C.j.r F : q * ^ ~ X@4 g m i l ` k ` l i >+g 4 3 ~ p.& q : b r j.C.D.-#G@i+_@r@;#>#,#A@!@~@  ",
"          '#[+%+6.)#j.r b a _ 4.8 ^ ~ 2 T 4 4 5 5 5 4 !#3 2 ~ D / 4.0 a b r j.g+T.%+&+w+T+~#{#]#^#/#(# @.@  ",
"            _#[+%+T.C.!.r +.S.f+q 4.8 8 p.] ~ ~ { n ~ ! ^ ^ / & _ : a :+5.!.:#T.%+M@'@j@k@I@S@<#[#}#|#V+W+  ",
"            1#w+M@%+6.k.`@@.##b a : f+..& p / 8 8 8 / & 4.E _ : a b ##@.Q 2#6.%+M@'@j@R@3#4#>#5#6#s@J+K+    ",
"              7#w+8#U.l.9#g+!.5.#+b F a : 3+_ f+f+0 f+f+: a ).b 0#5.!.g+$+D.U.&+H+j@R@3#;#.#5#a#}#b#y+z+    ",
"              c#d#w+G@G+l.6.~.#.!.@.r 0#b b F ).F ).b b :+#+e#@.!.g+k.T.l.G+G@w+j@a@3#;#.#^#f#g#s@J+k+      ",
"                h#_@i+S+M@U.l.T.$+)#`@j.j.@.>@r e@>@>@@.@.j.Q g+$+6.l.U.M@S+i+T+k@3#;#.#^#i#j#*#|#|+z+      ",
"                  k#3@H@w+l#M@U.l.D.T.$+C.)#g+#.g+#.g+)#C.~.T.D.l.m#,@G@i+j@3@~#y@n#.#^#i#o#}#c@p#=+        ",
"                  q#r#R@T+0@w+G@M@h+U.%+l.D.v+6.6.6.D.D.D.l.U.h+M@i@w+j@T+R@3#{#4#>#5#s#t#}#m@!@u#v#        ",
"                    w#x#r@a@T+j@i+'@G@[+[+h+h+G+G+G+,@,@M@[+i@H+0@H@_@a@y#I@N@z#A#5#s#t#}#s@B#C#%.          ",
"                      ].D#I@r@k@E#T+H@0@i+w+S+'@H+S+S+w+i+0@j@T+E#k@r@y@N@S@>#^#F#G#H#}#s@I#J#].            ",
"                        ].K#L#l@y@y#y#a@E#3@_@T+T+T+_@_@3@a@M#r@3#I@;#S@.#N#5#s#s#O#}#m@B#J#P#              ",
"                          ].Q#R#4#N@{#I@y@3#S#r@r@r@3#3#y@I@{#;#4#z#<#T#5#s#G#U#V#*#c@!@C#].                ",
"                            %.W.W#X#.#z#S@Y#n#4#n#;#4#4#Y#]#.#Z#N#5#F#s#G#`# $}#s@|#p#u#%.                  ",
"                              S =+|+.$+$@$T#N#A#A#A#<#T##$5#5#F#s#G#$$%$&$}#s@b#J+|+=+v#                    ",
"                                  1+k+y+J+*$=$-$;$>$f#i#,$'$)$t#!$~$*#A@(#{$J+y+k+1+                        ",
"                                      z+~@V+ @J+<@5@c@m@s@s@s@m@c@5@<@!@ @V+K+z+                            ",
"                                          W+.@~@[@|+d@n@t@B@t@n@d@|+[@~@.@W+                                ",
"                                                }@6@1+].P#.@P#].1+6@}@                                      "};
