/* XPM */
static char *red_destroy4[] = {
"36 36 64 1",
"  c black",
". c #987b2d",
"X c #a65738",
"o c #b77b0f",
"O c #ad712c",
"+ c #9b6556",
"@ c #917c4d",
"# c #977b54",
"$ c #8a7c66",
"% c #92796c",
"& c #a4794a",
"* c #d06822",
"= c #e3720f",
"- c #9b8229",
"; c #998637",
": c #b08a30",
"> c #92844d",
", c #87816a",
"< c #ab8e4c",
"1 c #bba44f",
"2 c #d68d0b",
"3 c #d4912f",
"4 c #dca60a",
"5 c #d6b739",
"6 c #eb8901",
"7 c #e99602",
"8 c #f38b0f",
"9 c #f89709",
"0 c #fc9914",
"q c #ef9424",
"w c #ecb009",
"e c #f6a70a",
"r c #fca815",
"t c #fcb617",
"y c #f9aa2f",
"u c #febc27",
"i c #c99047",
"p c #d3b851",
"a c #dfbd63",
"s c #f0b24a",
"d c #e0bc66",
"f c #fdc716",
"g c #f3d10c",
"h c #fdd818",
"j c #ffc927",
"k c #fdcd35",
"l c #ffd827",
"z c #f1e80a",
"x c #fbe918",
"c c #fef81c",
"v c #ffea27",
"b c #ffe837",
"n c #fffc27",
"m c #fffc33",
"M c #dec45c",
"N c #eecd54",
"B c #ffda4a",
"V c #fcd955",
"C c #f7d563",
"Z c #ffea44",
"A c #ffe855",
"S c #fff257",
"D c #ffea63",
"F c None",
"FFFFFFFFFFFFFFFFFFFFFFFFFFFFFFFFFFFF",
"FFFFFFFFFFFFFFFFFFFFFFFFFFFFFFFFFFFF",
"FFFFFFFFFFFFFFFFFFFFFFFFFFFFFFFFFFFF",
"FFFFFFFFFFFFF,>:24wj5:;@$FFFFFFFFFFF",
"FFFFFFFFFFFF%%#CkkbbZADp<@,FFFFFFFFF",
"FFFFFFFFFFFF%%Xq7e7wtkZSVp>$FFFFFFFF",
"FFFFFFFFFFF%+XOytfftfwwwZDp>$FFFFFFF",
"FFFFFFFFF%%X**=rjmmnnvlw4ZSN;,FFFFFF",
"FFFFFFF%%+X*==0blvncnxft7wbZ5>$FFFFF",
"FFFFFF%&i**=8ulvxgznxght97tbA1@,FFFF",
"FFFFF%#iq=00ulgxcnnxzhhte97tSV;,FFFF",
"FFFFF#iy060jbnxxnxnnnxvffr97jSp,FFFF",
"FFFF$Oy099twhnnnnnnnnnnhfr96jbN>FFFF",
"FFFF#su009uhvmmmmmnnccccxj99rlD<$FFF",
"FFF#<Bt909tfmxmmmnnnmcccxhe974A1@FFF",
"FFF>dBt89ufvxnnnnmnmmnccxhf972Ap;FFF",
"FFF;akt69tfvxcnnnmmmnnnnnhfr6tAN-FFF",
"FFF.pBw7ufhncnnnnnnnmnczxvfr87AC-FFF",
"FFF-aBe6efvcznnnmnnnnnnnhvl08rAD-FFF",
"FFF;aVe6rjvxncnnnnmnmnncxht06eAM-FFF",
"FFF>1V76efhnnnnnnnnmmnnccht96wAa;FFF",
"FFF,>5k89ehhxxnmnnnmncncxvt96fS1>FFF",
"FFF,$-V06rffhvvxnnmnnzcxhw96rbA>>FFF",
"FFFF$.C069rthvxmccnnnncgtr99rbN@FFFF",
"FFFF%@iy060tfhvvgxnmnnhhj997uS1,FFFF",
"FFFFF$is600rtthgvnmmngft96u7AN;FFFFF",
"FFFFF%&3y6=re4llmmmmmhwet9ejA1@FFFFF",
"FFFFFF#:sy9kkhmmmmmmmvwjt7jAM>FFFFFF",
"FFFFFF$#isk7tllbbblbbjbk4jDN;,FFFFFF",
"FFFFFFF$@:su72tutBkurrwuBCa@$FFFFFFF",
"FFFFFFFF,#<3sy2q222=23sN:.@$FFFFFFFF",
"FFFFFFFFFF$>&&i3s3ssi&#@$$FFFFFFFFFF",
"FFFFFFFFFFFF%%&O32oo.@$$FFFFFFFFFFFF",
"FFFFFFFFFFFFFFFFFFFFFFFFFFFFFFFFFFFF",
"FFFFFFFFFFFFFFFFFFFFFFFFFFFFFFFFFFFF",
"FFFFFFFFFFFFFFFFFFFFFFFFFFFFFFFFFFFF"
};
