/* XPM */
static char * red_jump1_xpm[] = {
"54 54 476 2",
"  	c None",
". 	c #D2B4B6",
"+ 	c #D3999A",
"@ 	c #D48486",
"# 	c #D57378",
"$ 	c #D6666B",
"% 	c #D75D63",
"& 	c #D7575D",
"* 	c #D65A60",
"= 	c #D56166",
"- 	c #D36D72",
"; 	c #D17D7F",
"> 	c #D09295",
", 	c #CDB1B2",
"' 	c #D48A8C",
") 	c #D8686D",
"! 	c #DA5E64",
"~ 	c #DA6066",
"{ 	c #D96167",
"] 	c #D95F65",
"^ 	c #D85C62",
"/ 	c #D7595F",
"( 	c #D7575A",
"_ 	c #D5555B",
": 	c #D35359",
"< 	c #D15B60",
"[ 	c #CD8183",
"} 	c #CDADAE",
"| 	c #D1ADAE",
"1 	c #D47C82",
"2 	c #DA6268",
"3 	c #DC6268",
"4 	c #DC666C",
"5 	c #DC666B",
"6 	c #DC6669",
"7 	c #D85E61",
"8 	c #D75B61",
"9 	c #D6565C",
"0 	c #D4565C",
"a 	c #D35157",
"b 	c #D14D53",
"c 	c #CC6A6F",
"d 	c #C7A3A4",
"e 	c #D0BEBF",
"f 	c #D58387",
"g 	c #DC686D",
"h 	c #DE6A6F",
"i 	c #DD6B70",
"j 	c #DE6E73",
"k 	c #DF6D72",
"l 	c #DF6B70",
"m 	c #DD696E",
"n 	c #DA6062",
"o 	c #DA5A60",
"p 	c #D8585B",
"q 	c #D0484F",
"r 	c #C76F73",
"s 	c #C5B3B4",
"t 	c #D1A1A3",
"u 	c #D96369",
"v 	c #DB6167",
"w 	c #E16F74",
"x 	c #E07277",
"y 	c #E17176",
"z 	c #E17378",
"A 	c #E27277",
"B 	c #DD676C",
"C 	c #D85E64",
"D 	c #D24E54",
"E 	c #CD474E",
"F 	c #C08E92",
"G 	c #D48C8F",
"H 	c #E27479",
"I 	c #E2767B",
"J 	c #E47679",
"K 	c #E4787D",
"L 	c #E5777A",
"M 	c #E3777C",
"N 	c #E07075",
"O 	c #D04249",
"P 	c #AC779C",
"Q 	c #BBBBBB",
"R 	c #DB656B",
"S 	c #E67A7F",
"T 	c #E77D80",
"U 	c #E77D82",
"V 	c #E67E83",
"W 	c #E77F84",
"X 	c #E77D85",
"Y 	c #E67C81",
"Z 	c #DE6C71",
"` 	c #DD676A",
" .	c #D6545A",
"..	c #D14B51",
"+.	c #CF454B",
"@.	c #D04047",
"#.	c #B06A86",
"$.	c #B6B6B6",
"%.	c #D48286",
"&.	c #E17174",
"*.	c #E78185",
"=.	c #E88488",
"-.	c #EA8489",
";.	c #EA868B",
">.	c #E5797E",
",.	c #E3757A",
"'.	c #D14F55",
").	c #CF434A",
"!.	c #D23840",
"~.	c #B0687F",
"{.	c #B2B2B2",
"].	c #D38B8E",
"^.	c #E2747C",
"/.	c #E77B81",
"(.	c #E78186",
"_.	c #EA888C",
":.	c #EB898E",
"<.	c #EB8B90",
"[.	c #EC8A8F",
"}.	c #EB878E",
"|.	c #E8888C",
"1.	c #E57D82",
"2.	c #D5575D",
"3.	c #CF474D",
"4.	c #D3333B",
"5.	c #A56F8F",
"6.	c #D19FA3",
"7.	c #DF7176",
"8.	c #EA848C",
"9.	c #EC888A",
"0.	c #ED8D94",
"a.	c #EE9094",
"b.	c #EF9195",
"c.	c #ED8D92",
"d.	c #EC8C90",
"e.	c #E78387",
"f.	c #DF6F74",
"g.	c #D34F56",
"h.	c #D04852",
"i.	c #CE444A",
"j.	c #D13B42",
"k.	c #D52D35",
"l.	c #9E7B94",
"m.	c #CFBDBF",
"n.	c #D55B61",
"o.	c #D95D63",
"p.	c #DA646A",
"q.	c #E4767B",
"r.	c #EE9296",
"s.	c #EF9599",
"t.	c #F19799",
"u.	c #F2969B",
"v.	c #F1979B",
"w.	c #F09498",
"x.	c #E67C84",
"y.	c #E1737B",
"z.	c #DC6870",
"A.	c #D7555B",
"B.	c #D03C43",
"C.	c #D33138",
"D.	c #D42A32",
"E.	c #9A8E97",
"F.	c #D47C80",
"G.	c #EF9397",
"H.	c #F2989C",
"I.	c #F29C9E",
"J.	c #F39D9F",
"K.	c #F49EA2",
"L.	c #F29EA4",
"M.	c #F39B9F",
"N.	c #F09296",
"O.	c #ED8F94",
"P.	c #E78183",
"Q.	c #E4747A",
"R.	c #DF696E",
"S.	c #D34F55",
"T.	c #D3353D",
"U.	c #D52931",
"V.	c #B6585C",
"W.	c #9E9E9E",
"X.	c #CFABAC",
"Y.	c #E77F83",
"Z.	c #F49EA0",
"`.	c #F4A2A6",
" +	c #F5A5A8",
".+	c #F6A4A8",
"++	c #F49EA4",
"@+	c #E77F81",
"#+	c #D14950",
"$+	c #D3373F",
"%+	c #D42C34",
"&+	c #D5252E",
"*+	c #91798A",
"=+	c #A8A8A8",
"-+	c #D27276",
";+	c #DC646A",
">+	c #DE686D",
",+	c #E57B80",
"'+	c #EA8688",
")+	c #F29AA1",
"!+	c #F4A0A4",
"~+	c #F6A6A9",
"{+	c #F7A9AE",
"]+	c #F9A9AD",
"^+	c #F7A9AD",
"/+	c #F8A8AC",
"(+	c #F59FA1",
"_+	c #F29A9F",
":+	c #E8888E",
"<+	c #D04C52",
"[+	c #CD474D",
"}+	c #D42E36",
"|+	c #D6242D",
"1+	c #B94B50",
"2+	c #929292",
"3+	c #B5B5B5",
"4+	c #D0B0B3",
"5+	c #D3555B",
"6+	c #E3757D",
"7+	c #EB878C",
"8+	c #F2989D",
"9+	c #FAACB0",
"0+	c #FBAFB3",
"a+	c #FBAFB4",
"b+	c #F9ADB1",
"c+	c #F8A8AE",
"d+	c #EE8E93",
"e+	c #E7838A",
"f+	c #D4545A",
"g+	c #D03E45",
"h+	c #D6262E",
"i+	c #D31F27",
"j+	c #897784",
"k+	c #A2A2A2",
"l+	c #D08488",
"m+	c #DC6668",
"n+	c #F29CA0",
"o+	c #FCB0B4",
"p+	c #FDB5B7",
"q+	c #FEB8BC",
"r+	c #FDB5B9",
"s+	c #FDB1B5",
"t+	c #F0969A",
"u+	c #EF8F91",
"v+	c #D4323A",
"w+	c #D42029",
"x+	c #AD575B",
"y+	c #8F8F8F",
"z+	c #B4B4B4",
"A+	c #F39DA1",
"B+	c #F9A7AB",
"C+	c #FFB9BD",
"D+	c #FEBEC1",
"E+	c #FFB9BE",
"F+	c #FFB5B9",
"G+	c #D42830",
"H+	c #D51F27",
"I+	c #CA2A31",
"J+	c #7F7F7F",
"K+	c #A5A5A5",
"L+	c #CFAFB2",
"M+	c #FAAAAC",
"N+	c #FEB6B8",
"O+	c #FEC0C1",
"P+	c #FFC7CA",
"Q+	c #F8AAAE",
"R+	c #E68085",
"S+	c #D52129",
"T+	c #D31922",
"U+	c #82717C",
"V+	c #969696",
"W+	c #B9B9B9",
"X+	c #CD9193",
"Y+	c #F29699",
"Z+	c #F1979D",
"`+	c #9C606A",
" @	c #888888",
".@	c #B0B0B0",
"+@	c #CE787C",
"@@	c #F0969C",
"#@	c #F7A9AC",
"$@	c #FCB2B6",
"%@	c #FFB3B7",
"&@	c #FCB0B6",
"*@	c #F8A8AA",
"=@	c #F6A2A6",
"-@	c #F19599",
";@	c #EF8F94",
">@	c #D0464C",
",@	c #D3272F",
"'@	c #D32129",
")@	c #B04A4C",
"!@	c #7E7E7E",
"~@	c #A6A6A6",
"{@	c #CF6167",
"]@	c #EF959B",
"^@	c #F9A7A9",
"/@	c #F4A0A2",
"(@	c #D21821",
"_@	c #BD353B",
":@	c #777777",
"<@	c #9B9B9B",
"[@	c #BEBEBE",
"}@	c #CF515A",
"|@	c #F9A9AF",
"1@	c #DB6568",
"2@	c #D43037",
"3@	c #D11720",
"4@	c #C6222A",
"5@	c #737373",
"6@	c #B8B8B8",
"7@	c #CD4750",
"8@	c #EC868B",
"9@	c #EE9498",
"0@	c #D52B33",
"a@	c #D21E26",
"b@	c #D2161F",
"c@	c #CF131C",
"d@	c #707070",
"e@	c #8C8C8C",
"f@	c #CF4750",
"g@	c #EE8E90",
"h@	c #F29A9E",
"i@	c #E37578",
"j@	c #D4222B",
"k@	c #D21C24",
"l@	c #D2141D",
"m@	c #CE1019",
"n@	c #6F6F6F",
"o@	c #878787",
"p@	c #CD454B",
"q@	c #DF6F71",
"r@	c #E88284",
"s@	c #D2121B",
"t@	c #848484",
"u@	c #CC4C52",
"v@	c #EC888D",
"w@	c #D15157",
"x@	c #D61C25",
"y@	c #D21019",
"z@	c #C71D25",
"A@	c #6E6E6E",
"B@	c #838383",
"C@	c #CA5A5F",
"D@	c #DD6D72",
"E@	c #E26E73",
"F@	c #D55157",
"G@	c #D6222B",
"H@	c #D51B24",
"I@	c #D20E18",
"J@	c #BB2D34",
"K@	c #CB6D71",
"L@	c #DB5D63",
"M@	c #D5252D",
"N@	c #CF0D16",
"O@	c #AC4449",
"P@	c #CA888B",
"Q@	c #D65A63",
"R@	c #D0161F",
"S@	c #D00811",
"T@	c #9B595B",
"U@	c #8B8B8B",
"V@	c #CBABAD",
"W@	c #D9595F",
"X@	c #DA626B",
"Y@	c #D9595C",
"Z@	c #D24C52",
"`@	c #CF4148",
" #	c #D23641",
".#	c #CD0710",
"+#	c #80696E",
"@#	c #CB4147",
"##	c #D1494F",
"$#	c #E27275",
"%#	c #D65659",
"&#	c #C6161B",
"*#	c #6D6D6D",
"=#	c #C67276",
"-#	c #D52935",
";#	c #D10B15",
">#	c #CF050E",
",#	c #A7474C",
"'#	c #C9A7A9",
")#	c #CF3F46",
"!#	c #DA666C",
"~#	c #D1131C",
"{#	c #D10D17",
"]#	c #CF0710",
"^#	c #CD010B",
"/#	c #81696E",
"(#	c #C4585B",
"_#	c #D13D44",
":#	c #CF030D",
"<#	c #B23238",
"[#	c #747474",
"}#	c #C49A9E",
"|#	c #D23843",
"1#	c #D1111A",
"2#	c #D10912",
"3#	c #CC000A",
"4#	c #87656B",
"5#	c #C15D64",
"6#	c #D4262E",
"7#	c #D2363E",
"8#	c #D04A51",
"9#	c #AD393F",
"0#	c #727272",
"a#	c #C3AFAF",
"b#	c #D22028",
"c#	c #CE4A50",
"d#	c #CB010B",
"e#	c #786B70",
"f#	c #BE8486",
"g#	c #CA000A",
"h#	c #955D61",
"i#	c #BA686B",
"j#	c #D5232B",
"k#	c #D7272F",
"l#	c #CF0B14",
"m#	c #A2484E",
"n#	c #858585",
"o#	c #BFBFBF",
"p#	c #B8585C",
"q#	c #C80009",
"r#	c #AB3B40",
"s#	c #9D9D9D",
"t#	c #BABABA",
"u#	c #B95358",
"v#	c #D0141D",
"w#	c #CE0811",
"x#	c #CD030D",
"y#	c #7B7B7B",
"z#	c #979797",
"A#	c #AE616A",
"B#	c #D31720",
"C#	c #C60009",
"D#	c #A3474B",
"E#	c #7A7A7A",
"F#	c #949494",
"G#	c #9A748F",
"H#	c #CD111A",
"I#	c #CF151E",
"J#	c #CF010B",
"K#	c #955B5E",
"L#	c #B1B1B1",
"M#	c #998C95",
"N#	c #B64449",
"O#	c #D3111A",
"P#	c #CE020C",
"Q#	c #AD373D",
"R#	c #796A6F",
"S#	c #8E7587",
"T#	c #B9373D",
"U#	c #CE0A13",
"V#	c #CD050E",
"W#	c #C40009",
"X#	c #B22E34",
"Y#	c #896469",
"Z#	c #877482",
"`#	c #AA4C50",
" $	c #C6161F",
".$	c #CC020C",
"+$	c #C10D15",
"@$	c #A64449",
"#$	c #81686C",
"$$	c #826E79",
"%$	c #9E5A5D",
"&$	c #AD3F44",
"*$	c #BA262D",
"=$	c #C31119",
"-$	c #CA020C",
";$	c #C30D16",
">$	c #B9232A",
",$	c #9B5556",
"'$	c #82676E",
")$	c #757575",
"                                                                                                            ",
"                                                                                                            ",
"                                                                                                            ",
"                                                                                                            ",
"                                          . + @ # $ % & * = - ; > ,                                         ",
"                                    . ' ) ! ~ ~ { ~ ~ ] ^ ^ / ( _ : < [ }                                   ",
"                                | 1 ~ 2 3 4 5 5 5 5 4 6 3 2 ~ 7 8 9 0 a b c d                               ",
"                            e f ~ 3 4 g h i i j k j l i m g 4 3 n o p _ : b q r s                           ",
"                          t u v 4 g i k w x y z z A A y w k h B 4 2 C 8 0 : D q E F                         ",
"                        G ! 3 5 h j y H I J K K K L M M I H N k h 5 3 ! 8 _ : b q O P Q                     ",
"                      f ] R 5 i w A I K S T U V W V X Y S K I H w Z ` 3 ] 8  .a ..+.@.#.$.                  ",
"                    %.] 3 5 Z &.H K S V *.=.-.;.;.-.-.=.*.U >.K ,.N Z 5 3 ] & _ '.q ).!.~.{.                ",
"                  ].^ 2 5 l N ^.K /.(.=.;._.:.<.[.<.:.}.|.-.(.1.K ,.w l 5 2 ^ 2.: b 3.@.4.5.{.              ",
"                6.8 ~ 4 h 7.,.K U *.8.9.[.0.a.b.b.b.a.c.d._.|.e.U L ,.f.h 4 ~ / _ g.h.i.j.k.l.{.            ",
"              m.n.o.p.m k H q./.e.;.:.c.r.s.t.u.u.u.v.w.r.c.:.;.e.x.K y.k z.p.^ A.: b 3.B.C.D.E.$.          ",
"              F./ ! 4 i N I S (.|.:.0.G.v.H.I.J.K.L.M.H.v.N.O.<.|.P.S Q.N R.4 ~ / 0 S.q O T.U.V.W.Q         ",
"            X.9 ^ 2 B k H K Y.-._.c.N.u.M.Z.`. + +.+`.++M.u.G.c._.=.@+K z k B 2 ^  .a #+).$+%+&+*+=+        ",
"            -+( 7 ;+>+f.I ,+(.'+[.b.v.)+!+~+{+]+]+^+/+~+(+_+t.b.d.:+*.S ,.w h R C & : <+[+B.}+|+1+2+3+      ",
"          4+5+& ] ;+i y 6+Y =.7+O.w.8+!+.+/+9+0+a+0+b+c+ +!+H.w.d+7+e+Y ,.y i 4 ] * f+b +.g+C.h+i+j+k+      ",
"          l+f+/ ~ m+Z y q.U -.:.a.v.n+`./+b+o+p+q+r+s+b+/+`.n+t+u+:.-.U K z l 4 ~ / _ '.3.g+v+h+w+x+y+z+    ",
"          < 0 8 v 5 Z H K Y.|.d.b.u.A+ +B+0+r+C+D+E+F+0+B+ +A+u.b.[.|.@+K z j 5 { / 0 '.q @.C.G+H+I+J+K+    ",
"        L+'.f+/ v 5 Z H >.W ;.[.r.u.K..+M+o+N+O+P+D+q+o+Q+.+Z.u.b.d.-.R+>.A j 5 { / _ '.3.@.4.G+S+T+U+V+W+  ",
"        X+D f+8 { 5 j H K V -.[.b.Y+J. +]+0+r+C+O+C+F+0+B+ +J.Z+r.d.-.R+K H k 5 { * _ '.3.@.4.h+S+T+`+ @.@  ",
"        +@D f+/ ~ 5 l z K V -.:.a.@@M.`.#@9+$@r+N+%@&@b+*@=@n+-@;@:.-.V M z Z 5 ~ / f+D >@g+C.,@'@T+)@!@~@  ",
"        {@b f+& ] 4 i y J /.=._.c.]@8+K. +^@9+0+o+0+9+c+.+/@8+w.d+}.=.x.M N i 4 ! & : D +.g+C.h+i+(@_@:@<@[@",
"        }@..: & ^ R m w ,.>.(.:+d.b.v.M.!+.+/+]+|@B+{+ +!+M.v.b.d.;.(.S I w m 1@o.2.: <+[+B.2@|+i+3@4@5@2+6@",
"        7@#+a _ ^ 2 B j H K U =.8@0.9@u.M.K.`. + + +=@K.M.u.G.c._.=.V K H j 5 2 ^ 0 a #+i.$+0@&+a@b@c@d@e@3+",
"        O f@'._ / ~ 4 h y Q.>.W ;.<.g@9@v.h@M.J.A+A+n+H.v.G.d+:.;.W S i@&.l 4 ~ 8 _ D q @.T.U.j@k@l@m@n@o@{.",
"        p@+.b : 2.C 3 B q@y.M /.e.;.:.c.b.s.v.Z+u.v.-@]@r.c.:.;.r@Y K A f.B 3 C & : b +.g+C.G+S+T+s@m@n@t@.@",
"        u@).#+g._ 8 ~ 4 h w ^.K T e.-.v@d.d+a.b.r.b.a.0.d._.8.e./.K H w h 4 ~ 8 _ w@#+i.!.k.|+x@3@y@z@A@B@.@",
"        C@@.>@b : 2.^ v 5 D@&.,.K T (.=.'+_.:.<.d.[.:._.'+=.*./.K ^.E@Z 5 2 o.2.F@b 3.@.4.U.G@H@l@I@J@n@t@.@",
"        K@j.).q w@_ & C 3 5 Z y H q.>.U (.e+-.-.-.-.-.=.(.V >.K ^.&.l ` 3 L@/ f+S.#+).j.k.M@i+T+s@N@O@n@o@{.",
"        P@4.g+3.b a  .Q@] 3 g Z w A Q.K >.Y V Y.Y.V U /.>.K i@H w i g 3 ! 8 _ a b [+@.4.U.G@a@R@y@S@T@d@U@3+",
"        V@k.$+O q b : _ W@! X@5 h j y H I ,.K K >.K K M I A y k h 5 p.] Y@_ : Z@q `@ #0@M@w+(@s@N@.#+#5@2+6@",
"          @#2@B.i.##b : 0 / C 2 4 m i k f.y $#H H z z y w j i B 4 2 ] / %#f+b q ).j.C.G+S+k@R@I@S@&#*#:@<@[@",
"          =#-#v+B.i.q D : _ * ^ ~ X@4 g m i l Z k Z l i >+g 4 3 ~ o.& _ : b q i.B.C.-#G@i+(@s@;#>#,#A@!@~@  ",
"          '#|+0@4.)#i.q b a _ 2.8 ^ ~ 2 R 4 4 5 5 5 4 !#3 2 ~ C / 2.0 a b q i.g+T.0@&+w+T+~#{#]#^#/#d@ @.@  ",
"            (#|+0@T.B.).q ..S.f+_ 2.8 8 o.] ~ ~ { n ~ ! ^ ^ / & _ : g.<+3.)._#T.0@M@'@k@l@I@S@:#<#*#[#V+W+  ",
"            }#w+M@0@4.j.`@+.##b g.: f+ .& p / 8 8 8 / & 2.0 _ : g.b ##+.O |#4.0@M@'@k@R@1#2#>#3#4#n@J+K+    ",
"              5#w+6#U.2@7#g+).3.#+b D a : 5+_ f+f+0 f+f+: a '.b 8#3.).g+$+C.U.&+H+k@R@1#;#.#3#9#*#0#y+z+    ",
"              a#b#w+G@G+k.4.!.@.).+.q 8#b b D '.D '.b b <+#+c#+.).g+j.T.k.G+G@w+k@b@1#;#.#^#d#e#n@J+k+      ",
"                f#(@i+S+M@U.2@T.$+)#`@i.i.+.>@q f@>@>@+.+.i.O g+$+4.k.U.M@S+i+T+l@1#;#.#^#g#h#*#[#2+z+      ",
"                  i#3@H@w+j#M@U.k.C.T.$+B.)#g+@.g+@.g+)#B.!.T.C.k.k#,@G@i+k@3@~#y@l#.#^#g#m#*#d@n#=+        ",
"                  o#p#R@T+a@w+G@M@h+U.0@k.C.v+4.4.4.C.C.}+k.U.h+M@j@w+k@T+R@1#{#2#>#3#q#r#*#n@!@s#t#        ",
"                    Q u#s@b@T+k@i+'@G@|+|+h+h+G+G+G+,@,@M@|+j@H+a@H@(@b@v#I@N@w#x#3#q#r#*#n@y#z#$.          ",
"                      {.A#I@s@l@B#T+H@a@i+w+S+'@H+S+S+w+i+a@k@T+B#l@s@y@N@S@>#^#3#C#D#*#n@E#F#{.            ",
"                        {.G#H#m@y@v#v#b@B#3@(@T+T+T+(@(@3@b@I#s@1#I@;#S@.#J#3#q#q#K#*#n@y#F#L#              ",
"                          {.M#N#2#N@{#I@y@1#O#s@s@s@1#1#y@I@{#;#2#w#:#P#3#q#C#Q#R#*#d@!@z#{.                ",
"                            $.W.S#T#.#w#S@U#l#2#l#;#2#2#U#]#.#V#J#3#3#q#W#X#Y#*#n@[#n#s#$.                  ",
"                              Q =+2+Z#`# $P#J#x#x#x#:#P#.$3#3#3#q#C#+$@$#$*#n@0#J+2+=+t#                    ",
"                                  3+k+y+J+$$%$&$*$=$d#g#-$;$>$r#,$'$*#A@d@)$J+y+k+3+                        ",
"                                      z+~@V+ @J+:@5@d@n@n@n@n@n@d@5@:@!@ @V+K+z+                            ",
"                                          W+.@~@<@2+e@o@t@B@t@o@e@2+<@~@.@W+                                ",
"                                                [@6@3+{.L#.@L#{.3+6@[@                                      "};
