/* XPM */
static char * red_jump6_xpm[] = {
"54 54 486 2",
"  	c None",
". 	c #C8A4A7",
"+ 	c #CC8688",
"@ 	c #CD6F71",
"# 	c #CE5E63",
"$ 	c #D05056",
"% 	c #D1474D",
"& 	c #D14148",
"* 	c #D0444A",
"= 	c #CF4B51",
"- 	c #CC585D",
"; 	c #CA686A",
"> 	c #C88084",
", 	c #C3A1A2",
"' 	c #CD7779",
") 	c #D25258",
"! 	c #D4484E",
"~ 	c #D44A50",
"{ 	c #D44A51",
"] 	c #D4484F",
"^ 	c #D2464C",
"/ 	c #D24249",
"( 	c #D14144",
"_ 	c #D03C43",
": 	c #CD3B42",
"< 	c #CB454B",
"[ 	c #C56D6F",
"} 	c #C39D9E",
"| 	c #C89C9D",
"1 	c #CD676E",
"2 	c #D44C52",
"3 	c #D64C52",
"4 	c #D65056",
"5 	c #D74F55",
"6 	c #D65053",
"7 	c #D2484B",
"8 	c #D2444B",
"9 	c #D04046",
"0 	c #CE3E45",
"a 	c #CD3940",
"b 	c #CB353C",
"c 	c #C5555A",
"d 	c #BD9395",
"e 	c #C6B0B1",
"f 	c #CE6E72",
"g 	c #D75157",
"h 	c #D95359",
"i 	c #D8545A",
"j 	c #D9575D",
"k 	c #DA565C",
"l 	c #DA545A",
"m 	c #D85258",
"n 	c #D5494C",
"o 	c #D5434A",
"p 	c #D24245",
"q 	c #CF3F45",
"r 	c #C7333A",
"s 	c #C05A5F",
"t 	c #BAA4A5",
"u 	c #C98F92",
"v 	c #D34D53",
"w 	c #D64A51",
"x 	c #DC585E",
"y 	c #DB5B61",
"z 	c #DC5A60",
"A 	c #DC5C62",
"B 	c #DD5B61",
"C 	c #D85056",
"D 	c #D2484E",
"E 	c #CE4047",
"F 	c #CC363D",
"G 	c #C1353C",
"H 	c #B67C80",
"I 	c #CD797D",
"J 	c #DD5D63",
"K 	c #DD5F65",
"L 	c #DF6164",
"M 	c #DF6369",
"N 	c #E06265",
"O 	c #DE6268",
"P 	c #DB595F",
"Q 	c #C33138",
"R 	c #AC779C",
"S 	c #BBBBBB",
"T 	c #D64E55",
"U 	c #E1656A",
"V 	c #E2686A",
"W 	c #E2686D",
"X 	c #E1696E",
"Y 	c #E26A6F",
"Z 	c #E26870",
"` 	c #E1676C",
" .	c #D9555B",
"..	c #D85053",
"+.	c #D03E44",
"@.	c #CB333A",
"#.	c #C43239",
"$.	c #C23037",
"%.	c #AD6381",
"&.	c #B6B6B6",
"*.	c #CC6E72",
"=.	c #DC5A5D",
"-.	c #E36B70",
";.	c #E46E73",
">.	c #E66E74",
",.	c #E67076",
"'.	c #E0646A",
").	c #DE5E64",
"!.	c #CB373E",
"~.	c #C23239",
"{.	c #C02C33",
"].	c #AB6078",
"^.	c #B2B2B2",
"/.	c #CC787C",
"(.	c #DD5D66",
"_.	c #E2666B",
":.	c #E26C71",
"<.	c #E67075",
"[.	c #E67277",
"}.	c #E77378",
"|.	c #E7757A",
"1.	c #E87479",
"2.	c #E77179",
"3.	c #E47277",
"4.	c #E0686D",
"5.	c #CF4147",
"6.	c #C5333A",
"7.	c #BF2930",
"8.	c #A36D8D",
"9.	c #C88E92",
"0.	c #DA5A60",
"a.	c #E66E77",
"b.	c #E87274",
"c.	c #E9777F",
"d.	c #EA7A7F",
"e.	c #EC7A80",
"f.	c #E9777C",
"g.	c #E8767B",
"h.	c #E36D72",
"i.	c #DA585E",
"j.	c #CD373F",
"k.	c #C7333E",
"l.	c #C12D34",
"m.	c #BE262E",
"n.	c #9E7B94",
"o.	c #C5AFB1",
"p.	c #CF454B",
"q.	c #D3474D",
"r.	c #D44E54",
"s.	c #DF6167",
"t.	c #EA7C81",
"u.	c #EC7E84",
"v.	c #EE8083",
"w.	c #EF8186",
"x.	c #EE8085",
"y.	c #ED7D83",
"z.	c #E1676F",
"A.	c #DC5C65",
"B.	c #D7515A",
"C.	c #D13F46",
"D.	c #C02E35",
"E.	c #BE282F",
"F.	c #BB252C",
"G.	c #9A8E97",
"H.	c #CD676B",
"I.	c #EC7C82",
"J.	c #F08287",
"K.	c #F08689",
"L.	c #F1878A",
"M.	c #F1898E",
"N.	c #F08890",
"O.	c #F1858A",
"P.	c #ED7B81",
"Q.	c #E9797E",
"R.	c #E36B6D",
"S.	c #DF5F65",
"T.	c #DA5258",
"U.	c #CD373E",
"V.	c #C02A31",
"W.	c #BC242C",
"X.	c #A7494D",
"Y.	c #9E9E9E",
"Z.	c #C69A9C",
"`.	c #E3696E",
" +	c #F2888A",
".+	c #F28C91",
"++	c #F38F94",
"@+	c #F48E93",
"#+	c #F18990",
"$+	c #E3696B",
"%+	c #C9333A",
"&+	c #C12B32",
"*+	c #BC262D",
"=+	c #BA2028",
"-+	c #91798A",
";+	c #A8A8A8",
">+	c #CB5D62",
",+	c #D64E54",
"'+	c #D95157",
")+	c #E0666B",
"!+	c #E67072",
"~+	c #EF858D",
"{+	c #F18B90",
"]+	c #F49094",
"^+	c #F5939A",
"/+	c #F79397",
"(+	c #F59398",
"_+	c #F69296",
":+	c #F3898B",
"<+	c #EF858A",
"[+	c #E4727A",
"}+	c #CA343B",
"|+	c #C2343B",
"1+	c #BD272E",
"2+	c #BA2027",
"3+	c #A64045",
"4+	c #929292",
"5+	c #B5B5B5",
"6+	c #C6A0A4",
"7+	c #CD3D44",
"8+	c #DE6069",
"9+	c #E77176",
"0+	c #EF8388",
"a+	c #F28A8F",
"b+	c #F69297",
"c+	c #F8969A",
"d+	c #FA989D",
"e+	c #FA989F",
"f+	c #F7979B",
"g+	c #F69299",
"h+	c #EB777D",
"i+	c #E36D75",
"j+	c #DE6066",
"k+	c #CE3C43",
"l+	c #C12F36",
"m+	c #BC2229",
"n+	c #B71B22",
"o+	c #897784",
"p+	c #A2A2A2",
"q+	c #C87074",
"r+	c #D74F52",
"s+	c #F0868B",
"t+	c #FB999E",
"u+	c #FC9EA0",
"v+	c #FDA1A5",
"w+	c #FC9EA2",
"x+	c #FC9A9F",
"y+	c #ED7F84",
"z+	c #EC787B",
"A+	c #C02830",
"B+	c #B81C23",
"C+	c #9A4C4F",
"D+	c #8F8F8F",
"E+	c #B4B4B4",
"F+	c #F1878C",
"G+	c #F79195",
"H+	c #FEA4A8",
"I+	c #FEA8AC",
"J+	c #FEA4AA",
"K+	c #FE9EA2",
"L+	c #BB232A",
"M+	c #B91B22",
"N+	c #B0242B",
"O+	c #7F7F7F",
"P+	c #A5A5A5",
"Q+	c #C59FA3",
"R+	c #F99396",
"S+	c #FD9FA1",
"T+	c #FEAAAC",
"U+	c #FEB2B5",
"V+	c #F69498",
"W+	c #E16B70",
"X+	c #B91D24",
"Y+	c #B6161E",
"Z+	c #81707B",
"`+	c #969696",
" @	c #B9B9B9",
".@	c #C57F82",
"+@	c #EF8184",
"@@	c #EE8088",
"#@	c #8D5760",
"$@	c #888888",
"%@	c #B0B0B0",
"&@	c #C76368",
"*@	c #ED7F87",
"=@	c #F59397",
"-@	c #FB9BA0",
";@	c #FE9CA0",
">@	c #FB99A0",
",@	c #F69294",
"'@	c #F48C91",
")@	c #EE7E83",
"!@	c #EC787E",
"~@	c #C63239",
"{@	c #B9232A",
"]@	c #B71D24",
"^@	c #9B4143",
"/@	c #7E7E7E",
"(@	c #A6A6A6",
"_@	c #C84C52",
":@	c #EC7E86",
"<@	c #F2888D",
"[@	c #F79193",
"}@	c #F28A8C",
"|@	c #B5151D",
"1@	c #A42E33",
"2@	c #777777",
"3@	c #9B9B9B",
"4@	c #BCBCBC",
"5@	c #C83A44",
"6@	c #F7939A",
"7@	c #D64E52",
"8@	c #BF272E",
"9@	c #B4141C",
"0@	c #AB1D24",
"a@	c #737373",
"b@	c #B8B8B8",
"c@	c #C2343E",
"d@	c #E96F75",
"e@	c #EA7E83",
"f@	c #BD252C",
"g@	c #B61A21",
"h@	c #B5131B",
"i@	c #B21018",
"j@	c #6E6E6E",
"k@	c #8C8C8C",
"l@	c #C5333D",
"m@	c #EB777A",
"n@	c #F08489",
"o@	c #DE6063",
"p@	c #B81E25",
"q@	c #B6181F",
"r@	c #B51119",
"s@	c #B10D15",
"t@	c #6B6B6B",
"u@	c #878787",
"v@	c #C1333A",
"w@	c #DA585B",
"x@	c #E46C6E",
"y@	c #B50F17",
"z@	c #696969",
"A@	c #848484",
"B@	c #C2383E",
"C@	c #E87277",
"D@	c #CB3940",
"E@	c #B91920",
"F@	c #B50D15",
"G@	c #AB1920",
"H@	c #686868",
"I@	c #838383",
"J@	c #C34349",
"K@	c #D8565C",
"L@	c #DD575D",
"M@	c #CF3940",
"N@	c #BA1E25",
"O@	c #B8181F",
"P@	c #B40C14",
"Q@	c #A1272D",
"R@	c #C4585D",
"S@	c #D5474D",
"T@	c #BC2028",
"U@	c #B10B13",
"V@	c #953B3F",
"W@	c #C17578",
"X@	c #D0444E",
"Y@	c #B3131B",
"Z@	c #B1070F",
"`@	c #874D4F",
" #	c #8B8B8B",
".#	c #C19B9D",
"+#	c #D34349",
"@#	c #D44C55",
"##	c #D34346",
"$#	c #CC343B",
"%#	c #C13138",
"&#	c #BF2B36",
"*#	c #AE060E",
"=#	c #766065",
"-#	c #BB3339",
";#	c #CA323A",
">#	c #DD5B5E",
",#	c #D04043",
"'#	c #A91317",
")#	c #666666",
"!#	c #BE5E62",
"~#	c #BC242F",
"{#	c #B20A12",
"]#	c #B0040C",
"^#	c #903E42",
"/#	c #BF9799",
"(#	c #C03037",
"_#	c #D45056",
":#	c #B41018",
"<#	c #B20C13",
"[#	c #B0060E",
"}#	c #AD0109",
"|#	c #765F64",
"1#	c #6D6D6D",
"2#	c #BB4346",
"3#	c #C22E35",
"4#	c #AF030B",
"5#	c #992B30",
"6#	c #646464",
"7#	c #747474",
"8#	c #BB898E",
"9#	c #C02C36",
"0#	c #B40E16",
"a#	c #B20810",
"b#	c #AC0008",
"c#	c #785A60",
"d#	c #B84850",
"e#	c #B92128",
"f#	c #BF2B32",
"g#	c #C8343B",
"h#	c #953136",
"i#	c #727272",
"j#	c #B8A0A0",
"k#	c #B61C23",
"l#	c #C5353C",
"m#	c #AB0109",
"n#	c #6F6367",
"o#	c #B47274",
"p#	c #A80008",
"q#	c #815154",
"r#	c #B15357",
"s#	c #BA1E26",
"t#	c #BE222A",
"u#	c #B10911",
"v#	c #8C3E43",
"w#	c #858585",
"x#	c #AA484D",
"y#	c #A60008",
"z#	c #943237",
"A#	c #9D9D9D",
"B#	c #BABABA",
"C#	c #AEAEAE",
"D#	c #A9454A",
"E#	c #B31119",
"F#	c #AF070F",
"G#	c #AD030B",
"H#	c #7B7B7B",
"I#	c #979797",
"J#	c #A2545D",
"K#	c #B6141C",
"L#	c #AA0008",
"M#	c #A40008",
"N#	c #8D3D41",
"O#	c #7A7A7A",
"P#	c #949494",
"Q#	c #9A748F",
"R#	c #AF0F16",
"S#	c #B2121A",
"T#	c #AF0109",
"U#	c #814F51",
"V#	c #B1B1B1",
"W#	c #998C95",
"X#	c #9F3B40",
"Y#	c #B60E16",
"Z#	c #AE020A",
"`#	c #943034",
" $	c #6F6165",
".$	c #8E7587",
"+$	c #A03035",
"@$	c #AF0911",
"#$	c #AE040C",
"$$	c #A20008",
"%$	c #98282D",
"&$	c #79595D",
"*$	c #877482",
"=$	c #944246",
"-$	c #A9131A",
";$	c #AC020A",
">$	c #A30B12",
",$	c #8F3B3F",
"'$	c #755E61",
")$	c #7F6B76",
"!$	c #8A4E51",
"~$	c #96363B",
"{$	c #9F2127",
"]$	c #A60E16",
"^$	c #A8020A",
"/$	c #A50B13",
"($	c #9E1E24",
"_$	c #87494B",
":$	c #765D63",
"<$	c #757575",
"                                                                                                            ",
"                                                                                                            ",
"                                                                                                            ",
"                                                                                                            ",
"                                          . + @ # $ % & * = - ; > ,                                         ",
"                                    . ' ) ! ~ ~ { ~ ~ ] ^ ^ / ( _ : < [ }                                   ",
"                                | 1 ~ 2 3 4 5 5 5 5 4 6 3 2 ~ 7 8 9 0 a b c d                               ",
"                            e f ~ 3 4 g h i i j k j l i m g 4 3 n o p q : b r s t                           ",
"                          u v w 4 g i k x y z A A B B z x k h C 4 2 D 8 E : F r G H                         ",
"                        I ! 3 5 h j z J K L M M M N O O K J P k h 5 3 ! 8 q : b r Q R S                     ",
"                      f ] T 5 i x B K M U V W X Y X Z ` U M K J x  ...3 ] 8 +.a @.#.$.%.&.                  ",
"                    *.] 3 5  .=.J M U X -.;.>.,.,.>.>.;.-.W '.M ).P  .5 3 ] & _ !.r ~.{.].^.                ",
"                  /.^ 2 5 l P (.M _.:.;.<.[.}.|.1.|.}.2.3.>.:.4.M ).x l 5 2 ^ 5.: b 6.$.7.8.^.              ",
"                9.8 ~ 4 h 0.).M W -.a.b.1.c.d.e.e.e.d.f.g.[.3.h.W N ).i.h 4 ~ / _ j.k.~.l.m.n.^.            ",
"              o.p.q.r.m k J s._.h.,.}.f.t.u.v.w.w.w.x.y.t.f.}.,.h.z.M A.k B.r.^ C.: b 6.D.E.F.G.&.          ",
"              H./ ! 4 i P K U :.3.}.c.I.x.J.K.L.M.N.O.J.x.P.Q.|.3.R.U S.P T.4 ~ / 0 U.r Q V.W.X.Y.S         ",
"            Z.9 ^ 2 C k J M `.>.[.f.P.w.O. +.+++++@+.+#+O.w.I.f.[.;.$+M A k C 2 ^ +.a %+~.&+*+=+-+;+        ",
"            >+( 7 ,+'+i.K )+:.!+1.e.x.~+{+]+^+/+/+(+_+]+:+<+v.e.g.[+-.U ).x h T D & : }+|+D.1+2+3+4+5+      ",
"          6+7+& ] ,+i z 8+` ;.9+Q.y.0+a+@+b+c+d+e+d+f+g+++a+J.y.h+9+i+` j+z i 4 ] * k+b #.l+E.m+n+o+p+      ",
"          q+k+/ ~ r+ .z s.W >.}.d.x.s+.+_+f+t+u+v+w+x+f+_+.+s+y+z+}.>.W M A l 4 ~ / _ !.6.l+A+m+B+C+D+E+    ",
"          < 0 8 w 5  .J M `.3.g.e.w.F+++G+d+w+H+I+J+K+d+G+++F+w.e.1.3.$+M A j 5 { / 0 !.r $.E.L+M+N+O+P+    ",
"        Q+!.k+/ w 5  .J '.Y ,.1.t.w.M.@+R+t+S+T+U+I+v+t+V+@+ +w.e.g.>.W+'.B j 5 { / _ !.6.$.7.L+X+Y+Z+`+ @  ",
"        .@F k+8 { 5 j J M X >.1.e.+@L.++/+d+w+H+T+H+K+d+G+++L.@@t.g.>.W+M J k 5 { * _ !.6.$.7.m+X+Y+#@$@%@  ",
"        &@F k+/ ~ 5 l A M X >.}.d.*@O..+=@c+-@w+S+;@>@f+,@'@s+)@!@}.>.X O A  .5 ~ / k+F ~@l+E.{@]@Y+^@/@(@  ",
"        _@b k+& ] 4 i z L _.;.[.f.:@0+<@++[@c+d+t+d+c+g+@+}@0+y.h+2.;.z.O P i 4 ! & : F #.l+E.m+n+|@1@2@3@4@",
"        5@@.: & ^ T m x ).'.:.[+g.e.x.O.a+@+_+/+6@G+^+++a+O.x.e.g.<.:.U K x m 7@q.5.: }+|+D.8@2+n+9@0@a@4+b@",
"        c@%+a q ^ 2 C j J M W ;.d@c.e@w.O.M..+++++++'@<@O.w.I.f.[.;.X M J j 5 2 ^ E a %+~.&+f@=+g@h@i@j@k@5+",
"        Q l@!._ / ~ 4 h z S.'.Y ,.|.m@e@x.n@O.L.F+F+s+J.x.I.h+}.,.Y U o@=.l 4 ~ 8 _ F r $.V.W.p@q@r@s@t@u@^.",
"        v@#.b : 5.D 3 C w@A.O _.h.,.}.f.e.u.x.@@w.x.)@:@t.f.}.,.x@` M B i.C 3 D & : b #.l+E.L+X+Y+y@s@z@A@%@",
"        B@~.%+j._ 8 ~ 4 h x (.M V h.>.C@g.h+d.e.t.e.d.c.g.[.a.h._.M J x h 4 ~ 8 _ D@%+~.{.m.2+E@9@F@G@H@I@%@",
"        J@$.~@b : 5.^ w 5 K@=.).M V :.;.!+[.}.|.g.1.}.[.!+;.-._.M (.L@ .5 2 q.5.M@b 6.$.7.W.N@O@r@P@Q@z@A@%@",
"        R@l.~.r D@_ & D 3 5  .z J s.'.W :.i+>.>.>.>.>.;.:.X '.M (.=.l ..3 S@/ k+U.%+~.l.m.T@n+Y+y@U@V@t@u@^.",
"        W@7.l+6.b a +.X@] 3 g  .x B S.M '.` X `.`.X W _.'.M o@J x i g 3 ! 8 q a b |+$.7.W.N@g@Y@F@Z@`@j@ #5+",
"        .#m.&+Q r b : q +#! @#5 h j z J K j+M M '.M M O K B z k h 5 r.] ##q : $#r %#&#f@T@B+|@y@U@*#=#a@4+b@",
"          -#8@D.~.;#b : E / D 2 4 m i k i.z >#J J A A z x j i C 4 2 ] / ,#k+b r ~.l.E.L+X+q@Y@P@Z@'#)#2@3@4@",
"          !#~#A+D.~.r F : q * ^ ~ @#4 g m i l  .k  .l i '+g 4 3 ~ q.& q : b r ~.D.E.~#N@n+|@y@{#]#^#H@/@(@  ",
"          /#2+f@7.(#~.r b a _ 5.8 ^ ~ 2 T 4 4 5 5 5 4 _#3 2 ~ D / 5.0 a b r ~.l+V.f@=+B+Y+:#<#[#}#|#1#$@%@  ",
"            2#2+f@V.D.~.r @.U.k+q 5.8 8 q.] ~ ~ { n ~ ! ^ ^ / & _ : j.}+6.~.3#V.f@T@]@q@r@P@Z@4#5#6#7#`+ @  ",
"            8#B+T@f@7.l.%##.;#b j.: k++.& p / 8 8 8 / & 5.E _ : j.b ;##.Q 9#7.f@T@]@q@Y@0#a#]#b#c#z@O+P+    ",
"              d#B+e#W.8@f#l+~.6.%+b F a : 7+_ k+k+0 k+k+: a !.b g#6.~.l+&+E.W.=+M+q@Y@0#{#*#b#h#6#i#D+E+    ",
"              j#k#B+N@L+m.7.{.$.~.#.r g#b b F !.F !.b b }+%+l##.~.l+l.V.m.L+N@B+q@h@0#{#*#}#m#n#z@O+p+      ",
"                o#|@n+X+T@W.8@V.&+(#%#~.~.#.~@r l@~@~@#.#.~.Q l+&+7.m.W.T@X+n+Y+r@0#{#*#}#p#q#)#7#4+E+      ",
"                  r#9@O@B+s#T@W.m.E.V.&+D.(#l+$.l+$.l+(#D.{.V.E.m.t#{@N@n+q@9@:#F@u#*#}#p#v#6#j@w#;+        ",
"                  ^.x#Y@Y+g@B+N@T@m+W.f@m.E.A+7.7.7.E.E.1+m.W.m+T@p@B+q@Y+Y@0#<#a#]#b#y#z#6#t@/@A#B#        ",
"                    C#D#y@h@Y+q@n+]@N@2+2+m+m+L+L+L+{@{@T@2+p@M+g@O@|@h@E#P@U@F#G#b#y#z#6#z@H#I#&.          ",
"                      ^.J#P@y@r@K#Y+O@g@n+B+X+]@M+X+X+B+n+g@q@Y+K#r@y@F@U@Z@]#}#L#M#N#6#z@O#P#^.            ",
"                        ^.Q#R#s@F@E#E#h@K#9@|@Y+Y+Y+|@|@9@h@S#y@0#P@{#Z@*#T#b#y#y#U#6#t@H#P#V#              ",
"                          ^.W#X#a#U@<#P@F@0#Y#y@y@y@0#0#F@P@<#{#a#F#4#Z#b#y#M#`# $)#j@/@I#^.                ",
"                            &.Y..$+$*#F#Z@@$u#a#u#{#a#a#@$[#*##$T#b#L#y#$$%$&$6#z@7#w#A#&.                  ",
"                              S ;+4+*$=$-$Z#T#G#G#G#4#Z#;$b#b#L#y#M#>$,$'$6#z@i#O+4+;+B#                    ",
"                                  5+p+D+O+)$!$~${$]$m#p#^$/$($z#_$:$)#H@1#<$O+D+p+5+                        ",
"                                      E+(@`+$@O+2@a@j@t@z@z@z@t@j@a@2@/@$@`+P+E+                            ",
"                                           @%@(@3@4+k@u@A@I@A@u@k@4+3@(@%@ @                                ",
"                                                4@b@5+^.V#%@V#^.5+b@4@                                      "};
