/* XPM */
static char * red_jump2_xpm[] = {
"54 54 479 2",
"  	c None",
". 	c #D0B2B4",
"+ 	c #D29697",
"@ 	c #D38183",
"# 	c #D47075",
"$ 	c #D56368",
"% 	c #D65A60",
"& 	c #D6545A",
"* 	c #D5575D",
"= 	c #D45E63",
"- 	c #D26A6F",
"; 	c #D07A7C",
"> 	c #CE9093",
", 	c #CCB0B1",
"' 	c #D3898A",
") 	c #D7656A",
"! 	c #D95B61",
"~ 	c #D95D63",
"{ 	c #D85E64",
"] 	c #D85C62",
"^ 	c #D7595F",
"/ 	c #D6565C",
"( 	c #D65457",
"_ 	c #D45056",
": 	c #D24E54",
"< 	c #D0585D",
"[ 	c #CB7F80",
"} 	c #CCACAD",
"| 	c #D1ABAC",
"1 	c #D3797F",
"2 	c #D95F65",
"3 	c #DB5F65",
"4 	c #DB6369",
"5 	c #DC6268",
"6 	c #DB6366",
"7 	c #D75B5E",
"8 	c #D6585E",
"9 	c #D55359",
"0 	c #D35157",
"a 	c #D24C52",
"b 	c #D14950",
"c 	c #CB676C",
"d 	c #C6A0A2",
"e 	c #CFBDBD",
"f 	c #D48084",
"g 	c #DC646A",
"h 	c #DD676C",
"i 	c #DD676D",
"j 	c #DD6B70",
"k 	c #DF696F",
"l 	c #DF676D",
"m 	c #DC666B",
"n 	c #DA5C5F",
"o 	c #D9575D",
"p 	c #D75558",
"q 	c #D45258",
"r 	c #CF454C",
"s 	c #C66C70",
"t 	c #C4B2B3",
"u 	c #D19FA2",
"v 	c #D86065",
"w 	c #DA5E64",
"x 	c #E06C71",
"y 	c #E06E74",
"z 	c #E06E73",
"A 	c #E07075",
"B 	c #E16F74",
"C 	c #DC6469",
"D 	c #D75B61",
"E 	c #D35359",
"F 	c #D14B51",
"G 	c #CC444B",
"H 	c #BE8C8F",
"I 	c #D38B8E",
"J 	c #E17176",
"K 	c #E17378",
"L 	c #E37577",
"M 	c #E3777C",
"N 	c #E47678",
"O 	c #E2767B",
"P 	c #E06C72",
"Q 	c #CF3D44",
"R 	c #AC779C",
"S 	c #BBBBBB",
"T 	c #DA6268",
"U 	c #E5797E",
"V 	c #E67A7D",
"W 	c #E67A7F",
"X 	c #E57B80",
"Y 	c #E67C81",
"Z 	c #E67A82",
"` 	c #DD696E",
" .	c #DC6466",
"..	c #D55157",
"+.	c #D1474E",
"@.	c #CE4248",
"#.	c #CF3B42",
"$.	c #AF6985",
"%.	c #B6B6B6",
"&.	c #D28083",
"*.	c #E06E70",
"=.	c #E77D82",
"-.	c #E88085",
";.	c #E98186",
">.	c #E98388",
",.	c #E4787D",
"'.	c #E27277",
").	c #D04C52",
"!.	c #CE3E45",
"~.	c #D0343B",
"{.	c #AF677E",
"].	c #B2B2B2",
"^.	c #D3898D",
"/.	c #E17179",
"(.	c #E6787D",
"_.	c #E67E83",
":.	c #EA8489",
"<.	c #EA868B",
"[.	c #EB878C",
"}.	c #EB898E",
"|.	c #EC888D",
"1.	c #EB858C",
"2.	c #E88489",
"3.	c #E47A7F",
"4.	c #D4545A",
"5.	c #CE444A",
"6.	c #D22E36",
"7.	c #A46F8F",
"8.	c #CF9DA0",
"9.	c #DF6D73",
"0.	c #E98188",
"a.	c #EC8689",
"b.	c #ED8B92",
"c.	c #EE8E93",
"d.	c #EF8F94",
"e.	c #ED8B90",
"f.	c #EC8A8F",
"g.	c #E77F84",
"h.	c #DF6B71",
"i.	c #D24C53",
"j.	c #CF454F",
"k.	c #CE4047",
"l.	c #D0363D",
"m.	c #D32B33",
"n.	c #9E7B94",
"o.	c #CEBCBD",
"p.	c #D4585E",
"q.	c #D85A60",
"r.	c #D96167",
"s.	c #E3757A",
"t.	c #EE9095",
"u.	c #EE9296",
"v.	c #F09496",
"w.	c #F19599",
"x.	c #F09498",
"y.	c #EF9195",
"z.	c #E57981",
"A.	c #E07078",
"B.	c #DC646D",
"C.	c #D65258",
"D.	c #CF373E",
"E.	c #D22C34",
"F.	c #D02A32",
"G.	c #9A8E97",
"H.	c #D3797D",
"I.	c #EE9094",
"J.	c #F2969A",
"K.	c #F29A9C",
"L.	c #F39B9D",
"M.	c #F39DA1",
"N.	c #F29CA2",
"O.	c #F3999D",
"P.	c #EF8F93",
"Q.	c #ED8D92",
"R.	c #E77D80",
"S.	c #E37378",
"T.	c #DF656B",
"U.	c #D34B52",
"V.	c #D23038",
"W.	c #D12931",
"X.	c #B45458",
"Y.	c #9E9E9E",
"Z.	c #CFA9AB",
"`.	c #E77B80",
" +	c #F49C9E",
".+	c #F4A0A4",
"++	c #F5A3A7",
"@+	c #F6A2A6",
"#+	c #F39DA3",
"$+	c #E77B7E",
"%+	c #D0464D",
"&+	c #D1333A",
"*+	c #D22A32",
"=+	c #D0242C",
"-+	c #91798A",
";+	c #A8A8A8",
">+	c #D16F73",
",+	c #DB6167",
"'+	c #DD656A",
")+	c #EA8487",
"!+	c #F1999F",
"~+	c #F39FA3",
"{+	c #F6A4A8",
"]+	c #F7A7AD",
"^+	c #F9A7AB",
"/+	c #F7A7AB",
"(+	c #F8A6AA",
"_+	c #F59D9F",
":+	c #F1999D",
"<+	c #E8848B",
"[+	c #D0484F",
"}+	c #CD434A",
"|+	c #D1232C",
"1+	c #B7474C",
"2+	c #929292",
"3+	c #B5B5B5",
"4+	c #CFAFB2",
"5+	c #D25056",
"6+	c #E2747B",
"7+	c #EB858A",
"8+	c #F1979B",
"9+	c #F49EA2",
"0+	c #FAAAAE",
"a+	c #FBADB1",
"b+	c #FBADB3",
"c+	c #F9ABAF",
"d+	c #F8A6AC",
"e+	c #EE8C91",
"f+	c #E77F86",
"g+	c #E27479",
"h+	c #D34F55",
"i+	c #CF3940",
"j+	c #D3252E",
"k+	c #CE1E26",
"l+	c #897784",
"m+	c #A2A2A2",
"n+	c #CF8185",
"o+	c #DC6265",
"p+	c #F29A9E",
"q+	c #FCAEB2",
"r+	c #FDB3B5",
"s+	c #FEB6BA",
"t+	c #FDB3B7",
"u+	c #FDAFB3",
"v+	c #EF9397",
"w+	c #EF8D90",
"x+	c #D32D35",
"y+	c #CF1F28",
"z+	c #AA5458",
"A+	c #8F8F8F",
"B+	c #B4B4B4",
"C+	c #F39B9F",
"D+	c #F9A5A9",
"E+	c #FFB9BD",
"F+	c #FEBEC1",
"G+	c #FFB9BE",
"H+	c #FFB3B7",
"I+	c #D1272F",
"J+	c #D01E26",
"K+	c #C52930",
"L+	c #7F7F7F",
"M+	c #A5A5A5",
"N+	c #CEAEB1",
"O+	c #FAA8AA",
"P+	c #FEB4B6",
"Q+	c #FEC0C1",
"R+	c #FFC5C8",
"S+	c #F8A8AC",
"T+	c #E57D82",
"U+	c #D02028",
"V+	c #CD1921",
"W+	c #81707B",
"X+	c #969696",
"Y+	c #B9B9B9",
"Z+	c #CD8F92",
"`+	c #F19597",
" @	c #F0949A",
".@	c #9A5F69",
"+@	c #888888",
"@@	c #B0B0B0",
"#@	c #CD7579",
"$@	c #EF9399",
"%@	c #FCB0B4",
"&@	c #FFB1B5",
"*@	c #FCAEB4",
"=@	c #F8A6A8",
"-@	c #F6A0A4",
";@	c #F09296",
">@	c #EF8D92",
",@	c #CF4349",
"'@	c #CF272F",
")@	c #CE2028",
"!@	c #AD494B",
"~@	c #7E7E7E",
"{@	c #A6A6A6",
"]@	c #CE5E64",
"^@	c #EE9298",
"/@	c #F49CA0",
"(@	c #F9A5A7",
"_@	c #F49EA0",
":@	c #CC1820",
"<@	c #B9333A",
"[@	c #777777",
"}@	c #9B9B9B",
"|@	c #BDBDBD",
"1@	c #CE4E57",
"2@	c #F9A7AD",
"3@	c #DA6265",
"4@	c #CB171F",
"5@	c #C12129",
"6@	c #737373",
"7@	c #B8B8B8",
"8@	c #CD434D",
"9@	c #EC8489",
"0@	c #ED9195",
"a@	c #D22A31",
"b@	c #CD1D25",
"c@	c #CC161E",
"d@	c #C9131B",
"e@	c #707070",
"f@	c #8C8C8C",
"g@	c #CE444D",
"h@	c #EE8C8F",
"i@	c #F2989C",
"j@	c #E27476",
"k@	c #CF212A",
"l@	c #CD1B23",
"m@	c #CD131C",
"n@	c #C90F18",
"o@	c #6E6E6E",
"p@	c #878787",
"q@	c #CD4148",
"r@	c #DF6B6E",
"s@	c #E87E81",
"t@	c #CD111A",
"u@	c #848484",
"v@	c #CB494F",
"w@	c #EC868B",
"x@	c #D04E54",
"y@	c #D01C24",
"z@	c #CD0F18",
"A@	c #C21C24",
"B@	c #6D6D6D",
"C@	c #838383",
"D@	c #C9555B",
"E@	c #DD696F",
"F@	c #E16B70",
"G@	c #D44C52",
"H@	c #D12129",
"I@	c #CF1B23",
"J@	c #CC0E17",
"K@	c #B62C33",
"L@	c #CA6A6F",
"M@	c #DA5A60",
"N@	c #D2242C",
"O@	c #CA0C15",
"P@	c #A74347",
"Q@	c #C98588",
"R@	c #D55760",
"S@	c #CA161E",
"T@	c #CA0811",
"U@	c #975758",
"V@	c #8B8B8B",
"W@	c #CAAAAC",
"X@	c #D8565C",
"Y@	c #D95F68",
"Z@	c #D85659",
"`@	c #D1494F",
" #	c #CE3C43",
".#	c #D1313D",
"+#	c #C80610",
"@#	c #7E676D",
"##	c #CA3C43",
"$#	c #D1454C",
"%#	c #E16F71",
"&#	c #D55356",
"*#	c #C0161A",
"=#	c #6C6C6C",
"-#	c #C56F73",
";#	c #D12935",
">#	c #CB0B14",
",#	c #CA040E",
"'#	c #A2464A",
")#	c #C8A6A8",
"!#	c #CE3A41",
"~#	c #D96369",
"{#	c #CC121B",
"]#	c #CB0D16",
"^#	c #C90710",
"/#	c #C7010A",
"(#	c #7F676C",
"_#	c #6F6F6F",
":#	c #C35558",
"<#	c #D0383F",
"[#	c #C9030C",
"}#	c #AE3036",
"|#	c #6B6B6B",
"1#	c #747474",
"2#	c #C4989C",
"3#	c #D0343F",
"4#	c #CC1019",
"5#	c #CB0912",
"6#	c #C60009",
"7#	c #846369",
"8#	c #C05A62",
"9#	c #CF252D",
"0#	c #D13139",
"a#	c #CF474E",
"b#	c #A8383D",
"c#	c #727272",
"d#	c #C2AEAE",
"e#	c #CD1F27",
"f#	c #CD474D",
"g#	c #C5010A",
"h#	c #766A6E",
"i#	c #BC8283",
"j#	c #C20009",
"k#	c #915B5F",
"l#	c #B96569",
"m#	c #D0222A",
"n#	c #D4262E",
"o#	c #C90B14",
"p#	c #9E464C",
"q#	c #858585",
"r#	c #BEBEBE",
"s#	c #B65458",
"t#	c #C00009",
"u#	c #A7393E",
"v#	c #9D9D9D",
"w#	c #BABABA",
"x#	c #B74F54",
"y#	c #CA141C",
"z#	c #C80811",
"A#	c #C7030C",
"B#	c #7B7B7B",
"C#	c #979797",
"D#	c #AC5D66",
"E#	c #CD171F",
"F#	c #C40009",
"G#	c #BE0009",
"H#	c #9F4549",
"I#	c #7A7A7A",
"J#	c #949494",
"K#	c #9A748F",
"L#	c #C71119",
"M#	c #CA141D",
"N#	c #C9010B",
"O#	c #91595C",
"P#	c #B1B1B1",
"Q#	c #998C95",
"R#	c #B14348",
"S#	c #CE1019",
"T#	c #C8020C",
"U#	c #A8363B",
"V#	c #77686D",
"W#	c #8E7587",
"X#	c #B4363C",
"Y#	c #C80A13",
"Z#	c #C8040E",
"`#	c #AD2D33",
" $	c #866266",
".$	c #877482",
"+$	c #A64A4E",
"@$	c #C0161E",
"#$	c #C6020C",
"$$	c #BC0C14",
"%$	c #A14347",
"&$	c #7F666A",
"*$	c #826E79",
"=$	c #9A585B",
"-$	c #A93D42",
";$	c #B5252C",
">$	c #BD1119",
",$	c #C2020B",
"'$	c #BD0D15",
")$	c #B42229",
"!$	c #975354",
"~$	c #80656C",
"{$	c #757575",
"                                                                                                            ",
"                                                                                                            ",
"                                                                                                            ",
"                                                                                                            ",
"                                          . + @ # $ % & * = - ; > ,                                         ",
"                                    . ' ) ! ~ ~ { ~ ~ ] ^ ^ / ( _ : < [ }                                   ",
"                                | 1 ~ 2 3 4 5 5 5 5 4 6 3 2 ~ 7 8 9 0 a b c d                               ",
"                            e f ~ 3 4 g h i i j k j l i m g 4 3 n o p q : b r s t                           ",
"                          u v w 4 g i k x y z A A B B z x k h C 4 2 D 8 E : F r G H                         ",
"                        I ! 3 5 h j z J K L M M M N O O K J P k h 5 3 ! 8 q : b r Q R S                     ",
"                      f ] T 5 i x B K M U V W X Y X Z U U M K J x `  .3 ] 8 ..a +.@.#.$.%.                  ",
"                    &.] 3 5 ` *.J M U X =.-.;.>.>.;.;.-.=.W ,.M '.P ` 5 3 ] & _ ).r !.~.{.].                ",
"                  ^.^ 2 5 l P /.M (._.-.:.<.[.}.|.}.[.1.2.;._.3.M '.x l 5 2 ^ 4.: b 5.#.6.7.].              ",
"                8.8 ~ 4 h 9.'.M W =.0.a.|.b.c.d.d.d.c.e.f.<.2.g.W N '.h.h 4 ~ / _ i.j.k.l.m.n.].            ",
"              o.p.q.r.m k J s.(.g.>.[.e.t.u.v.w.w.w.x.y.t.e.[.>.g.z.M A.k B.r.^ C.: b 5.D.E.F.G.%.          ",
"              H./ ! 4 i P K U _.2.[.b.I.x.J.K.L.M.N.O.J.x.P.Q.}.2.R.U S.P T.4 ~ / 0 U.r Q V.W.X.Y.S         ",
"            Z.9 ^ 2 C k J M `.;.<.e.P.w.O. +.+++++@+.+#+O.w.I.e.<.-.$+M A k C 2 ^ ..a %+!.&+*+=+-+;+        ",
"            >+( 7 ,+'+h.K 3._.)+|.d.x.!+~+{+]+^+^+/+(+{+_+:+v.d.f.<+=.U '.x h T D & : [+}+D.E.|+1+2+3+      ",
"          4+5+& ] ,+i z 6+U -.7+Q.y.8+9+@+(+0+a+b+a+c+d+++9+J.y.e+7+f+U g+z i 4 ] * h+b @.i+E.j+k+l+m+      ",
"          n+h+/ ~ o+` z s.W ;.[.c.x.p+.+(+c+q+r+s+t+u+c+(+.+p+v+w+[.;.W M A l 4 ~ / _ ).5.i+x+j+y+z+A+B+    ",
"          < 0 8 w 5 ` J M `.2.f.d.w.C+++D+a+t+E+F+G+H+a+D+++C+w.d.|.2.$+M A j 5 { / 0 ).r #.E.I+J+K+L+M+    ",
"        N+).h+/ w 5 ` J ,.Y >.|.t.w.M.@+O+q+P+Q+R+F+s+q+S+@+ +w.d.f.;.T+,.B j 5 { / _ ).5.#.6.I+U+V+W+X+Y+  ",
"        Z+F h+8 { 5 j J M X ;.|.d.`+L.++^+a+t+E+Q+E+H+a+D+++L. @t.f.;.T+M J k 5 { * _ ).5.#.6.j+U+V+.@+@@@  ",
"        #@F h+/ ~ 5 l A M X ;.[.c.$@O..+/+0+%@t+P+&@*@c+=@-@p+;@>@[.;.X O A ` 5 ~ / h+F ,@i+E.'@)@V+!@~@{@  ",
"        ]@b h+& ] 4 i z L (.-.<.e.^@8+/@++(@0+a+q+a+0+d+@+_@8+y.e+1.-.z.O P i 4 ! & : F @.i+E.j+k+:@<@[@}@|@",
"        1@+.: & ^ T m x '.,._.<+f.d.x.O.9+@+(+^+2@D+]+++9+O.x.d.f.:._.U K x m 3@q.4.: [+}+D.m.|+k+4@5@6@2+7@",
"        8@%+a q ^ 2 C j J M W -.9@b.0@w.O.M..+++++++-@/@O.w.I.e.<.-.X M J j 5 2 ^ E a %+k.&+a@=+b@c@d@e@f@3+",
"        Q g@)._ / ~ 4 h z S.,.Y >.}.h@0@x.i@O.L.C+C+p+J.x.I.e+[.>.Y U j@*.l 4 ~ 8 _ F r #.V.W.k@l@m@n@o@p@].",
"        q@@.b : 4.D 3 C r@A.O (.g.>.[.e.d.u.x. @w.x.;@^@t.e.[.>.s@U M B h.C 3 D & : b @.i+E.I+U+V+t@n@o@u@@@",
"        v@!.%+i._ 8 ~ 4 h x /.M V g.;.w@f.e+c.d.t.d.c.b.f.<.0.g.(.M J x h 4 ~ 8 _ x@%+k.~.m.|+y@4@z@A@B@C@@@",
"        D@#.,@b : 4.^ w 5 E@*.'.M V _.-.)+<.[.}.f.|.[.<.)+-.=.(.M /.F@` 5 2 q.4.G@b 5.#.6.W.H@I@m@J@K@o@u@@@",
"        L@l.!.r x@_ & D 3 5 ` z J s.,.W _.f+;.;.;.;.;.-._.X ,.M /.*.l  .3 M@/ h+U.%+!.l.m.N@k+V+t@O@P@o@p@].",
"        Q@6.i+5.b a ..R@] 3 g ` x B S.M ,.U X `.`.X W (.,.M j@J x i g 3 ! 8 q a b }+#.6.W.H@b@S@z@T@U@e@V@3+",
"        W@m.&+Q r b : q X@! Y@5 h j z J K g+M M ,.M M O K B z k h 5 r.] Z@q : `@r  #.#a@N@y+:@t@O@+#@#6@2+7@",
"          ##m.D.k.$#b : E / D 2 4 m i k h.z %#J J A A z x j i C 4 2 ] / &#h+b r !.l.E.I+U+l@S@J@T@*#=#[@}@|@",
"          -#;#x+D.k.r F : q * ^ ~ Y@4 g m i l ` k ` l i '+g 4 3 ~ q.& q : b r k.D.E.;#H@k+:@t@>#,#'#B@~@{@  ",
"          )#|+a@6.!#k.r b a _ 4.8 ^ ~ 2 T 4 4 5 5 5 4 ~#3 2 ~ D / 4.0 a b r k.i+V.a@=+y+V+{#]#^#/#(#_#+@@@  ",
"            :#|+a@V.D.!.r +.U.h+q 4.8 8 q.] ~ ~ { n ~ ! ^ ^ / & _ : i.[+5.!.<#V.a@N@)@l@m@J@T@[#}#|#1#X+Y+  ",
"            2#y+N@a@6.l. #@.$#b i.: h+..& p / 8 8 8 / & 4.E _ : i.b $#@.Q 3#6.a@N@)@l@S@4#5#,#6#7#o@L+M+    ",
"              8#y+9#W.m.0#i+!.5.%+b F a : 5+_ h+h+0 h+h+: a ).b a#5.!.i+&+E.W.=+J+l@S@4#>#+#6#b#|#c#A+B+    ",
"              d#e#y+H@I+m.6.~.#.!.@.r a#b b F ).F ).b b [+%+f#@.!.i+l.V.m.I+H@y+l@c@4#>#+#/#g#h#o@L+m+      ",
"                i#:@k+U+N@W.m.V.&+!# #k.k.@.,@r g@,@,@@.@.k.Q i+&+6.m.W.N@U+k+V+m@4#>#+#/#j#k#=#1#2+B+      ",
"                  l#4@I@y+m#N@W.m.E.V.&+D.!#i+#.i+#.i+!#D.~.V.E.m.n#'@H@k+l@4@{#z@o#+#/#j#p#|#e@q#;+        ",
"                  r#s#S@V+b@y+H@N@j+W.a@m.E.x+6.6.6.E.E.E.m.W.j+N@k@y+l@V+S@4#]#5#,#6#t#u#|#o@~@v#w#        ",
"                    w#x#t@c@V+l@k+)@H@|+|+j+j+I+I+I+'@'@N@|+k@J+b@I@:@c@y#J@O@z#A#6#t#u#|#o@B#C#%.          ",
"                      ].D#J@t@m@E#V+I@b@k+y+U+)@J+U+U+y+k+b@l@V+E#m@t@z@O@T@,#/#F#G#H#|#o@I#J#].            ",
"                        ].K#L#n@z@y#y#c@E#4@:@V+V+V+:@:@4@c@M#t@4#J@>#T@+#N#6#t#t#O#|#o@B#J#P#              ",
"                          ].Q#R#5#O@]#J@z@4#S#t@t@t@4#4#z@J@]#>#5#z#[#T#6#t#G#U#V#=#e@~@C#].                ",
"                            %.Y.W#X#+#z#T@Y#o#5#o#>#5#5#Y#^#+#Z#N#6#F#t#G#`# $|#o@1#q#v#%.                  ",
"                              S ;+2+.$+$@$T#N#A#A#A#[#T##$6#6#F#t#G#$$%$&$|#o@c#L+2+;+w#                    ",
"                                  3+m+A+L+*$=$-$;$>$g#j#,$'$)$u#!$~$=#B@_#{$L+A+m+3+                        ",
"                                      B+{@X++@L+[@6@e@o@o@o@o@o@e@6@[@~@+@X+M+B+                            ",
"                                          Y+@@{@}@2+f@p@u@C@u@p@f@2+}@{@@@Y+                                ",
"                                                |@7@3+].P#@@P#].3+7@|@                                      "};
