/* XPM */
static char * yellowTempl_xpm[] = {
"64 64 589 2",
"  	c None",
". 	c #BFBFBF",
"+ 	c #BEBEBE",
"@ 	c #AEAEAE",
"# 	c #ACACAC",
"$ 	c #C3C3C3",
"% 	c #C9C9C9",
"& 	c #B9B9B9",
"* 	c #C1C1C1",
"= 	c #C5C5C5",
"- 	c #C7C7C7",
"; 	c #BDBDBD",
"> 	c #BBBBBB",
", 	c #B7B7B7",
"' 	c #B5B5B5",
") 	c #B4B4B4",
"! 	c #B3B3B3",
"~ 	c #B2B2B2",
"{ 	c #A7A7A7",
"] 	c #A5A5A5",
"^ 	c #A1A1A1",
"/ 	c #9F9F9F",
"( 	c #808080",
"_ 	c #484848",
": 	c #B0B0B0",
"< 	c #A9A9A9",
"[ 	c #A4A4A4",
"} 	c #A0A0A0",
"| 	c #ABABAB",
"1 	c #7F7F7F",
"2 	c #9D9D9D",
"3 	c #979797",
"4 	c #919191",
"5 	c #8F8F8F",
"6 	c #909090",
"7 	c #989898",
"8 	c #A2A2A2",
"9 	c #959595",
"0 	c #9A9A9A",
"a 	c #717171",
"b 	c #4E4E4E",
"c 	c #949494",
"d 	c #8C8C8C",
"e 	c #8B8B8B",
"f 	c #8E8E8E",
"g 	c #8A8A8A",
"h 	c #888888",
"i 	c #838383",
"j 	c #7C7C7C",
"k 	c #7D7D7D",
"l 	c #868686",
"m 	c #777777",
"n 	c #787878",
"o 	c #7A7A7A",
"p 	c #828282",
"q 	c #878787",
"r 	c #626262",
"s 	c #4C4C4C",
"t 	c #848484",
"u 	c #858585",
"v 	c #858686",
"w 	c #868687",
"x 	c #888887",
"y 	c #898888",
"z 	c #898989",
"A 	c #898A89",
"B 	c #8A8A8B",
"C 	c #8C8B8C",
"D 	c #8D8C8C",
"E 	c #8D8D8D",
"F 	c #8D8E8E",
"G 	c #8D8D8E",
"H 	c #8E8F8E",
"I 	c #8F8F8E",
"J 	c #8F8E8F",
"K 	c #8E8E8D",
"L 	c #8C8D8D",
"M 	c #8B8A8B",
"N 	c #898A8A",
"O 	c #888889",
"P 	c #878887",
"Q 	c #767676",
"R 	c #636363",
"S 	c #505050",
"T 	c #3C3C3C",
"U 	c #7B7B7B",
"V 	c #6D6D6D",
"W 	c #5A5A5A",
"X 	c #474747",
"Y 	c #363636",
"Z 	c #6F6F6F",
"` 	c #585858",
" .	c #464646",
"..	c #373737",
"+.	c #6B6B6B",
"@.	c #575757",
"#.	c #454545",
"$.	c #686868",
"%.	c #545454",
"&.	c #444444",
"*.	c #676767",
"=.	c #393939",
"-.	c #565656",
";.	c #3A3A3A",
">.	c #8D7E88",
",.	c #9C9979",
"'.	c #9D9967",
").	c #9D9957",
"!.	c #9F984D",
"~.	c #A09844",
"{.	c #A19A43",
"].	c #9F9743",
"^.	c #9C9549",
"/.	c #9A9352",
"(.	c #969060",
"_.	c #969172",
":.	c #85787F",
"<.	c #8D858A",
"[.	c #9E9A75",
"}.	c #A09955",
"|.	c #A59D48",
"1.	c #A79F4A",
"2.	c #A7A04A",
"3.	c #A7A04C",
"4.	c #A7A04D",
"5.	c #A69D49",
"6.	c #A39B45",
"7.	c #A19943",
"8.	c #9E953F",
"9.	c #9B933A",
"0.	c #958D49",
"a.	c #928D67",
"b.	c #81797E",
"c.	c #6A6A6A",
"d.	c #383838",
"e.	c #8E868B",
"f.	c #9F9A6D",
"g.	c #A49C46",
"h.	c #A8A14D",
"i.	c #AAA44F",
"j.	c #ACA652",
"k.	c #ACA654",
"l.	c #AEA754",
"m.	c #AEA954",
"n.	c #ADA753",
"o.	c #ADA853",
"p.	c #ACA552",
"q.	c #AAA34F",
"r.	c #A09841",
"s.	c #9C943F",
"t.	c #9A8F38",
"u.	c #968B32",
"v.	c #8C865B",
"w.	c #7F777D",
"x.	c #616161",
"y.	c #515151",
"z.	c #434343",
"A.	c #9E9A79",
"B.	c #A19948",
"C.	c #A9A24E",
"D.	c #ACA752",
"E.	c #B1AC58",
"F.	c #B1AD59",
"G.	c #B1AD5B",
"H.	c #B4B05C",
"I.	c #B2AE5C",
"J.	c #B3AF5B",
"K.	c #B1AC59",
"L.	c #ADA755",
"M.	c #A59C4A",
"N.	c #9F9740",
"O.	c #9B923A",
"P.	c #978C33",
"Q.	c #928732",
"R.	c #898566",
"S.	c #818181",
"T.	c #424242",
"U.	c #8E898D",
"V.	c #9D9862",
"W.	c #A49A46",
"X.	c #ABA451",
"Y.	c #B2AC5C",
"Z.	c #B6B15F",
"`.	c #B8B361",
" +	c #B8B362",
".+	c #B8B664",
"++	c #B8B464",
"@+	c #AFAA55",
"#+	c #AAA452",
"$+	c #A49D46",
"%+	c #A09A41",
"&+	c #9A923C",
"*+	c #92862C",
"=+	c #87804C",
"-+	c #7B777A",
";+	c #535353",
">+	c #4A4A4A",
",+	c #404040",
"'+	c #8D7E87",
")+	c #9F9A54",
"!+	c #A9A44E",
"~+	c #B7B260",
"{+	c #BAB867",
"]+	c #BCB969",
"^+	c #BEBB6B",
"/+	c #BFBC6C",
"(+	c #BDBA6A",
"_+	c #BBB868",
":+	c #ABA553",
"<+	c #9A9239",
"[+	c #978B33",
"}+	c #91852A",
"|+	c #877E39",
"1+	c #87857B",
"2+	c #3E3E3E",
"3+	c #313131",
"4+	c #8C7D87",
"5+	c #9E984C",
"6+	c #A7A14E",
"7+	c #ACA754",
"8+	c #B0A959",
"9+	c #B5B15E",
"0+	c #C0BF6E",
"a+	c #C2BF70",
"b+	c #C4C373",
"c+	c #C4C173",
"d+	c #C5C474",
"e+	c #B8B363",
"f+	c #9A9138",
"g+	c #958930",
"h+	c #8F8427",
"i+	c #877B2D",
"j+	c #828176",
"k+	c #606060",
"l+	c #3D3D3D",
"m+	c #2B2B2B",
"n+	c #929292",
"o+	c #9D964F",
"p+	c #A39C45",
"q+	c #B4B05F",
"r+	c #C2C173",
"s+	c #C5C274",
"t+	c #C7C677",
"u+	c #C9C879",
"v+	c #CAC97A",
"w+	c #C9CA7C",
"x+	c #C3C272",
"y+	c #BFBD6D",
"z+	c #B9B563",
"A+	c #A39A45",
"B+	c #9D953D",
"C+	c #988D35",
"D+	c #93872D",
"E+	c #8E8222",
"F+	c #837830",
"G+	c #81807B",
"H+	c #595959",
"I+	c #272727",
"J+	c #707070",
"K+	c #9B9359",
"L+	c #B9B763",
"M+	c #C1C06F",
"N+	c #C8C778",
"O+	c #CBCA7B",
"P+	c #CDCC7E",
"Q+	c #CECD7F",
"R+	c #CFD081",
"S+	c #D0CF81",
"T+	c #CCCB7D",
"U+	c #CAC97C",
"V+	c #C0BE6E",
"W+	c #BAB864",
"X+	c #B0A957",
"Y+	c #968A32",
"Z+	c #8A7E1E",
"`+	c #7F763C",
" @	c #232323",
".@	c #9A9770",
"+@	c #CFCE80",
"@@	c #D1D083",
"#@	c #D3D486",
"$@	c #D4D587",
"%@	c #D5D588",
"&@	c #D2D385",
"*@	c #D1D284",
"=@	c #C8C77A",
"-@	c #C5C575",
";@	c #998F36",
">@	c #8C8122",
",@	c #877915",
"'@	c #7A7452",
")@	c #343434",
"!@	c #222222",
"~@	c #8B7C86",
"{@	c #B7B460",
"]@	c #D0D183",
"^@	c #D5D78A",
"/@	c #D8D98C",
"(@	c #D8DA8E",
"_@	c #D9DB8F",
":@	c #D5D689",
"<@	c #CCCD7E",
"[@	c #BAB667",
"}@	c #B6B161",
"|@	c #9A9039",
"1@	c #908425",
"2@	c #887A1B",
"3@	c #83750B",
"4@	c #78756B",
"5@	c #4D4D4D",
"6@	c #252525",
"7@	c #98925E",
"8@	c #9D943D",
"9@	c #A8A24D",
"0@	c #D5D88D",
"a@	c #DADC90",
"b@	c #DCDF93",
"c@	c #DDDF94",
"d@	c #DEE095",
"e@	c #DADB8F",
"f@	c #D7D88B",
"g@	c #D0D082",
"h@	c #9C943C",
"i@	c #908529",
"j@	c #8A7F1E",
"k@	c #847913",
"l@	c #766E3D",
"m@	c #3F3F3F",
"n@	c #2F2F2F",
"o@	c #8B7A85",
"p@	c #998D36",
"q@	c #9F9640",
"r@	c #B5B160",
"s@	c #D3D488",
"t@	c #D6D98C",
"u@	c #DFE39A",
"v@	c #E1E59A",
"w@	c #E2E69B",
"x@	c #DFE399",
"y@	c #DADD91",
"z@	c #8C8022",
"A@	c #857715",
"B@	c #807200",
"C@	c #726F64",
"D@	c #979063",
"E@	c #A59E4A",
"F@	c #D4D68B",
"G@	c #D9DB91",
"H@	c #DDDF96",
"I@	c #E0E49A",
"J@	c #E3E79F",
"K@	c #E4EAA2",
"L@	c #E5EBA3",
"M@	c #E2E79F",
"N@	c #E1E39A",
"O@	c #C1C072",
"P@	c #BDBA68",
"Q@	c #94882F",
"R@	c #8D8124",
"S@	c #867B17",
"T@	c #7F7005",
"U@	c #706941",
"V@	c #2E2E2E",
"W@	c #938B3C",
"X@	c #9A9139",
"Y@	c #A69D4C",
"Z@	c #C3C072",
"`@	c #CECF80",
" #	c #DBDE92",
".#	c #E6EBA4",
"+#	c #EAEFA7",
"@#	c #EBF0A7",
"##	c #E9EFA7",
"$#	c #E7EBA4",
"%#	c #E0E398",
"&#	c #CDCE7F",
"*#	c #B8B462",
"=#	c #94892F",
"-#	c #8E8225",
";#	c #877A19",
">#	c #81730B",
",#	c #786B0E",
"'#	c #5F5F5F",
")#	c #8C7C81",
"!#	c #A7A14C",
"~#	c #CECF82",
"{#	c #DBDF96",
"]#	c #E0E49B",
"^#	c #EDF3AC",
"/#	c #EFF5AF",
"(#	c #EEF3AB",
"_#	c #8E8325",
":#	c #81740B",
"<#	c #7A6900",
"[#	c #6B6859",
"}#	c #5D5D5D",
"|#	c #948E69",
"1#	c #A29A44",
"2#	c #E1E59C",
"3#	c #EBF0A9",
"4#	c #F4F0B7",
"5#	c #EFF6AE",
"6#	c #E7EBA3",
"7#	c #D8DA90",
"8#	c #CACB7B",
"9#	c #887D1B",
"0#	c #827408",
"a#	c #6C6646",
"b#	c #797979",
"c#	c #9C9C9C",
"d#	c #918951",
"e#	c #E6EAA2",
"f#	c #ECF3AD",
"g#	c #D7DA8F",
"h#	c #726832",
"i#	c #737373",
"j#	c #999999",
"k#	c #8E853D",
"l#	c #D6D98E",
"m#	c #E7ECA3",
"n#	c #8D8224",
"o#	c #877C19",
"p#	c #74671B",
"q#	c #656565",
"r#	c #8D822D",
"s#	c #93882D",
"t#	c #A69C49",
"u#	c #B7B262",
"v#	c #C1BF72",
"w#	c #D5D68B",
"x#	c #E3E79D",
"y#	c #DCE097",
"z#	c #D6D78A",
"A#	c #A69F49",
"B#	c #796800",
"C#	c #766700",
"D#	c #292929",
"E#	c #8A7D22",
"F#	c #92872C",
"G#	c #ABA651",
"H#	c #D2D587",
"I#	c #DADC92",
"J#	c #E1E399",
"K#	c #A9A351",
"L#	c #9E963F",
"M#	c #857A15",
"N#	c #7E6D00",
"O#	c #786700",
"P#	c #5E5E5E",
"Q#	c #8A7C1E",
"R#	c #9B913D",
"S#	c #DBDE94",
"T#	c #DCE095",
"U#	c #BDBA6C",
"V#	c #978E33",
"W#	c #8B7D1D",
"X#	c #847713",
"Y#	c #7D6F00",
"Z#	c #776600",
"`#	c #5B5B5B",
" $	c #262626",
".$	c #887C25",
"+$	c #DADA8E",
"@$	c #CCCB7F",
"#$	c #887B1B",
"$$	c #82740E",
"%$	c #7B6A00",
"&$	c #877C33",
"*$	c #9A9035",
"=$	c #D0D185",
"-$	c #C1BF6F",
";$	c #AFA855",
">$	c #867917",
",$	c #807308",
"'$	c #72641B",
")$	c #6C6C6C",
"!$	c #898046",
"~$	c #897C1D",
"{$	c #908429",
"]$	c #968D32",
"^$	c #C7C577",
"/$	c #968C32",
"($	c #837610",
"_$	c #6E6430",
":$	c #696969",
"<$	c #8B845F",
"[$	c #887A17",
"}$	c #B6B25F",
"|$	c #C8C578",
"1$	c #C0BE6C",
"2$	c #8D7F24",
"3$	c #7B6D00",
"4$	c #686141",
"5$	c #8F8B7B",
"6$	c #857710",
"7$	c #847613",
"8$	c #7E7000",
"9$	c #5E5B4D",
"0$	c #80741E",
"a$	c #8B8020",
"b$	c #91862A",
"c$	c #BDB86A",
"d$	c #A39A48",
"e$	c #7C6B00",
"f$	c #766708",
"g$	c #323232",
"h$	c #857D51",
"i$	c #897B19",
"j$	c #6A623C",
"k$	c #4F4F4F",
"l$	c #867E7C",
"m$	c #8A7C1B",
"n$	c #94882C",
"o$	c #59574D",
"p$	c #6E6E6E",
"q$	c #7F7541",
"r$	c #897B1D",
"s$	c #7A6C00",
"t$	c #6D6635",
"u$	c #847E7B",
"v$	c #807208",
"w$	c #897E1D",
"x$	c #55534C",
"y$	c #807A54",
"z$	c #645F40",
"A$	c #646464",
"B$	c #7A6F35",
"C$	c #8B7F1D",
"D$	c #999036",
"E$	c #918527",
"F$	c #6E662D",
"G$	c #7E797A",
"H$	c #776A1D",
"I$	c #7D6C00",
"J$	c #938830",
"K$	c #877919",
"L$	c #796A00",
"M$	c #736619",
"N$	c #52514D",
"O$	c #838077",
"P$	c #786913",
"Q$	c #7F6E00",
"R$	c #8C7E22",
"S$	c #756710",
"T$	c #54524A",
"U$	c #818075",
"V$	c #776A20",
"W$	c #867813",
"X$	c #817005",
"Y$	c #72661E",
"Z$	c #7E7C7B",
"`$	c #766A38",
" %	c #817305",
".%	c #6D6332",
"+%	c #333333",
"@%	c #756F53",
"#%	c #776700",
"$%	c #615C44",
"%%	c #525252",
"&%	c #727272",
"*%	c #787772",
"=%	c #736941",
"-%	c #69613A",
";%	c #54534D",
">%	c #706E6A",
",%	c #6F6948",
"'%	c #75681D",
")%	c #73661D",
"!%	c #665F41",
"~%	c #55534E",
"{%	c #7E7E7E",
"]%	c #6A685F",
"^%	c #6B674D",
"/%	c #6F673A",
"(%	c #736924",
"_%	c #74660E",
":%	c #766600",
"<%	c #75670B",
"[%	c #736724",
"}%	c #6B6438",
"|%	c #666146",
"1%	c #5A5951",
"2%	c #666666",
"3%	c #5C5C5C",
"4%	c #757575",
"5%	c #4B4B4B",
"6%	c #2D2D2D",
"7%	c #202020",
"8%	c #1D1D1D",
". + @ # $ % $ + & * = - = $ * ; > & & , & > + . . ; > & & ' ' ' ) ! ! ! ~ @ # @ ) & + > & , & > + . + > & ~ { ] { ^ / @ ! @ ( _ ",
". ; @ # * - . > & + $ $ $ * + > & & ' ' , & ; ; ; > & , ' ) ! ! ~ : : @ @ # < # ! , & & ' ) ' & > ; > & , : ] [ { } / # ~ | 1 _ ",
"& & | { ~ ! # < { | @ @ # { { ] < # { [ [ ] < { { ] [ [ ^ 2 2 / / / 3 4 5 6 4 7 } } } / / 2 } 8 ] { < < { ^ 3 9 9 0 } 8 / 6 a b ",
") ! [ 0 0 7 9 c 4 9 7 9 4 d e e 4 7 6 d d 5 c 4 f e g h i j k i l l k m n o j p g h q h q l q e d 5 c 9 c d ( ( p 5 7 9 e n r s ",
"! : 7 i t t t u v w q x y z A B g C d D E F G f H I 5 5 5 5 5 5 5 5 5 5 5 5 5 5 J f E K L d d C e M N z O P q l v u t t Q R S T ",
") : 3 U 4 4 4 4 4 4 4 4 4 4 4 4 4 4 4 4 4 4 4 4 4 4 4 4 4 4 4 4 4 4 4 4 4 4 4 4 4 4 4 4 4 4 4 4 4 4 4 4 4 4 4 4 4 4 4 4 V W X Y ",
", ' / k 4 4 4 4 4 4 4 4 4 4 4 4 4 4 4 4 4 4 4 4 4 4 4 4 4 4 4 4 4 4 4 4 4 4 4 4 4 4 4 4 4 4 4 4 4 4 4 4 4 4 4 4 4 4 4 4 Z `  ...",
"+ > ] l 4 4 4 4 4 4 4 4 4 4 4 4 4 4 4 4 4 4 4 4 4 4 4 4 4 4 4 4 4 4 4 4 4 4 4 4 4 4 4 4 4 4 4 4 4 4 4 4 4 4 4 4 4 4 4 4 +.@.#...",
"= $ | 5 4 4 4 4 4 4 4 4 4 4 4 4 4 4 4 4 4 4 4 4 4 4 4 4 4 4 4 4 4 4 4 4 4 4 4 4 4 4 4 4 4 4 4 4 4 4 4 4 4 4 4 4 4 4 4 4 $.%.&...",
"$ * # 4 4 4 4 4 4 4 4 4 4 4 4 4 4 4 4 4 4 4 4 4 4 4 4 4 4 4 4 4 4 4 4 4 4 4 4 4 4 4 4 4 4 4 4 4 4 4 4 4 4 4 4 4 4 4 4 4 *.%. .=.",
"$ . # c 4 4 4 4 4 4 4 4 4 4 4 4 4 4 4 4 4 4 4 4 4 4 6 5 5 f f f f f f f 5 5 6 4 4 4 4 4 4 4 4 4 4 4 4 4 4 4 4 4 4 4 4 4 $.-.X ;.",
"* . @ 3 4 4 4 4 4 4 4 4 4 4 4 4 4 4 4 4 4 4 4 6 5 >.,.'.).!.~.{.].^./.(._.:.z E 5 6 4 4 4 4 4 4 4 4 4 4 4 4 4 4 4 4 4 4 +.@. .=.",
"* + @ 7 4 4 4 4 4 4 4 4 4 4 4 4 4 4 4 4 4 6 <.[.}.|.1.2.3.4.4.2.5.|.6.7.8.9.0.a.b.z f 6 4 4 4 4 4 4 4 4 4 4 4 4 4 4 4 4 c.-.#.d.",
". + @ 7 4 4 4 4 4 4 4 4 4 4 4 4 4 4 4 6 e.f.g.1.h.i.j.k.l.m.n.o.p.q.h.1.g.r.s.t.u.v.w.z f 6 4 4 4 4 4 4 4 4 4 4 4 4 4 4 x.y.z.Y ",
". ; @ 7 4 4 4 4 4 4 4 4 4 4 4 4 4 4 6 A.B.1.C.D.l.E.F.G.H.H.I.J.K.E.L.p.C.M.6.N.O.P.Q.R.S.e 6 4 4 4 4 4 4 4 4 4 4 4 4 4 W b T.Y ",
"+ ; @ 7 4 4 4 4 4 4 4 4 4 4 4 4 4 U.V.W.3.X.L.K.Y.Z.`. +.+++++.+`.Z.I.K.@+#+4.$+%+&+P.*+=+-+z 5 4 4 4 4 4 4 4 4 4 4 4 4 ;+>+,+Y ",
"; > | 6 4 4 4 4 4 4 4 4 4 4 4 4 '+)+|.!+p.E.I.~+++{+]+^+/+/+^+(+]+_+.+~+I.E.:+!+$+%+<+[+}+|+1+u f 6 4 4 4 4 4 4 4 4 4 4 W s 2+3+",
"& , ] t 4 4 4 4 4 4 4 4 4 4 4 4+5+$+6+7+8+9+ +_+^+0+a+b+c+d+c+b+a+0+^+_+e+9+K.o.h.W.N.f+g+h+i+j+i f 4 4 4 4 4 4 4 4 4 4 k+b l+m+",
"# < n+Q 4 4 4 4 4 4 4 4 4 4 e.o+p+h.7+K.q+++]+0+r+s+t+u+v+w+v+u+t+s+x+y+]+z+9+K.7+3.A+B+C+D+E+F+G+u f 4 4 4 4 4 4 4 4 4 H+>+=.I+",
"[ ^ g J+4 4 4 4 4 4 4 4 4 5 K+{.1.X.E.9+L+(+M+d+N+O+P+Q+R+S+R+Q+T+U+N+d+V+(+W+9+X+X.5.7.9.Y+h+Z+`+m q 5 4 4 4 4 4 4 4 4 %.X Y  @",
"{ [ 5 k 4 4 4 4 4 4 4 4 6 .@8.W.C.@+J. +(+V+d+u+T++@@@#@$@$@%@&@*@R+T+=@-@V+]+ +I.L.C.g.8.;@D+>@,@'@m e 6 4 4 4 4 4 4 4 -.X )@!@",
"@ | 3 q 4 4 4 4 4 4 4 4 ~@<+r.1.p.K.{@_+y+d+u+T+]@$@^@/@(@_@(@/@:@$@]@<@u+d+y+[@}@K.D.1.].|@g+1@2@3@4@1 f 4 4 4 4 4 4 4 5@T.)@6@",
"' ) } 5 4 4 4 4 4 4 4 6 7@8@p+9@@+H..+^+x+N+T+]@$@0@a@b@c@d@c@b@e@f@$@g@T+t+x+^+++H.L.C.A+h@P.i@j@k@l@m q 5 4 4 4 4 4 4 m@;.Y n@",
"' ) ] 9 4 4 4 4 4 4 4 o@p@q@|.i.E.r@_+V+-@v+R+s@t@a@d@u@v@w@v@x@d@y@0@s@R+U+-@0+_+Z.E.q.|.q@C+*+z@A@B@C@j E 4 4 4 4 4 4 s z.=.n@",
"~ : < 0 4 4 4 4 4 4 6 D@f+r.E@D.K.`.]+a+t+<@*@F@G@H@I@J@K@L@K@M@N@d@a@^@*@T+t+O@P@`.G.D.E@r.f+Q@R@S@T@U@m q 6 4 4 4 4 4 x.y.m@V@",
"@ @ < / 4 4 4 4 4 4 5 W@X@{.Y@m.G.e+^+Z@u+`@#@/@ #x@M@.#+#@###$#J@%# #/@#@&#u+Z@^+*#J.k.2.7.X@=#-#;#>#,#Z 1 f 4 4 4 4 4 '#s l+n@",
"@ @ | } 4 4 4 4 4 4 )#g+O.7.!#m.H..+/+d+v+~#$@(@{#]#K@##^#/#(#+#K@]#c@(@$@+@v+d+/+.+H.k.4.7.|@g+_#;#:#<#[#m d 6 4 4 4 4 }#_ ;.n@",
"& , @ 2 4 4 4 4 4 6 |#g+9.1#3.l.H.++/+d+v+R+%@(@d@2#L@3#/#4#5#@#6#w@d@7#%@R+8#d+/+.+J.l.!#7.O.g+_#9#0#<#a#b#q 6 4 4 4 4 -.X ;.3+",
"> & @ c#4 4 4 4 4 5 d#g+O.7.!#m.H.++/+b+u++@%@(@c@]#e###^#/#f###e#]#d@g#$@R+v+b+/+L+H.l.!#7.O.g+h+;#>#<#h#i#p 5 4 4 4 4 ` _ T n@",
") ! | j#4 4 4 4 4 f k#=#<+7.3.n.G. +^+b+u+&##@l# #u@J@.###@###m#J@x@ #l##@Q+=@Z@^+e+J.n.3.{.X@g+n#o#>#<#p#c.k f 4 4 4 4 q#y.l+m+",
"< < ] 7 4 4 4 4 4 f r#s#t.r.t#p.G.u#]+v#t+T+]@w#G@d@]#M@K@6#K@x#]#y#e@z#]@T+t+a+]+`.G.p.A#N.f+Q@R@S@T@B#C#r o f 4 4 4 4 $.;+l+D#",
"2 2 / 9 4 4 4 4 4 f E#F#C+8.|.G#E.Z.[@V+-@v+R+H#t@I#d@x@v@2#v@J#d@I#t@s@R+O+s+0+_+r@E.K#|.L#;@*+>@M#N#B#O#P#m E 4 4 4 4 q#%.l+6@",
"| < / 6 4 4 4 4 4 E Q#}+[+R#6.6+L.H..+^+x+t+T+]@$@f@G@S#T#d@c@ #G@0@$@g@T+N+x+U#.+H.L.h.A+8@V#}+W#X#Y#Z#O#`#Q E 4 4 4 4 $.%.l+ $",
"& , } g 4 4 4 4 4 E .$_#g+<+r.1.j.K.~+_+y+d+u+<@]@#@^@l#g#+$g#/@F@$@g@@$u+d+y+_+~+K.p.1.7.<+g+h+#$$$%$Z#C#`#Q E 4 4 4 4 +.%.l+I+",
"> & 8 l 4 4 4 4 4 f &$>@F#*$L#g.C.@+J.e+]+V+s+u+T+R+*@#@$@%@$@#@=$+@T+u+d+-$(+ +I.;$C.W.8.;@F#>@>$,$B#Z#'$P#m E 4 4 4 4 )$S T m+",
"& ' 8 p 4 4 4 4 4 f !$~${$]$O.{.1.X.E.9+++(+V+d+N+O+<@&#+@R++@`@T+v+^$d+-$(+++9+E.X.1.r.O./${$j@($Y#O#Z#_$r o f 4 4 4 4 :$s ;.V@",
"@ # 0 1 4 4 4 4 4 f <$[$R@s#C+B+A+4.7+8+}$.+]+y+x+-@t+u+v+8#v+|$t+-@Z@1$]+.+Z.K.7+!#6.B+C+D+2$o#0#3$Z#Z#4$c.k f 4 4 4 4 '# .=.n@",
"@ # c#S.4 4 4 4 4 5 5$6$Z+h+g+X@q@$+h.k.E.q+e+_+^+V+a+x+c+d+d+Z@-$y+^+{+e+9+K.7+6+g.q@f+g+{$Z+7$8$O#Z#Z#9$i#p 5 4 4 4 4 H+z.d.3+",
", ) 8 h 4 4 4 4 4 6 q 0$S@a$b$V#|@%+|.9@:+E.H.~+.+{+(+^+/+/+^+c$]+{+++~+H.E.:+6+d$N.9.u.b$a$A@,$e$Z#Z#f$%.b#q 6 4 4 4 4 ` T...g$",
"> & [ e 4 4 4 4 4 4 d h$$$i$R@F#P.O.r.g.3.D.@+K.H.Z.`. +++W+++ +u#~+Y.K.@+X.4.g.%+9.P.F#n#i$$$Y#O#Z#Z#j$k+m d 6 4 4 4 4 k$T.=.Y ",
"+ > [ e 4 4 4 4 4 4 5 l$8$7$m$n#n$P.O.q@6.1.C.D.L.E.F.J.H.I.J.J.G.E.@+p.C.1.6.q@|@P.D+-##$($8$<#Z#Z#Z#o$p$1 f 4 4 4 4 4  .z.l+d.",
"; & ^ h 4 4 4 4 4 4 6 q q$T@X#r$n#F#u.t.8@{.g.1.9@q.D.k.k.m.k.k.p.q.6+1.g.r.8.t.u.*+n##$X#T@s$O#Z#Z#t$` V q 6 4 4 4 4 4 -.s T.=.",
"; & ^ q 4 4 4 4 4 4 4 E u$3$v$X#r$n#}+g+C+O.8.].1#|.1.3.3.3.3.1.5.|.A+r.8.|@C+g+b$n#w$X#T@<#Z#Z#Z#Z#x$'#U E 4 4 4 4 4 4 r ;+#.=.",
". ; ] d 4 4 4 4 4 4 4 6 q y$e$T@6$;#a$h+F#Y+;@|@h@8.r.{.7.1#~.r.r.q@h@<+;@g+s#h+z@9#7$T@e$Z#Z#Z#Z#z$W V q 5 4 4 4 4 4 4 A$;+#.=.",
"$ . | 4 4 4 4 4 4 4 4 4 f 1 B$s$8$$$,@C$E+{$n$g+V#D$t.X@O.9.|@X@f+D$P.g+F#E$n#~$S@$$8$s$Z#Z#Z#Z#F$k$k+1 f 4 4 4 4 4 4 4 A$;+#.=.",
"$ $ @ 9 4 4 4 4 4 4 4 4 6 e G$H$B#I$0#($[$Q#R@_#}+F#s#=#g+g+g+J$Q@F#i@h+>@j@K$($0#N#L$Z#Z#Z#O#M$N$'#m e 6 4 4 4 4 4 4 4 A$%. .=.",
"$ . | 4 4 4 4 4 4 4 4 4 4 5 q O$P$Z#e$Q$>#7$>$9#W#z@n#n#_#_#_#-#n#R$j@9#>$($:#N#e$O#Z#O#Z#Z#S$T$}#a q 5 4 4 4 4 4 4 4 4 A$-. .d.",
"; > [ g 4 4 4 4 4 4 4 4 4 4 5 u U$V$Z#B#3$Y#T@$$($W$>$K$o#;#;#;#>$A@7$$$X$Q$%$O#Z#Z#Z#Z#Z#Y$x$}#V u f 4 4 4 4 4 4 4 4 4 A$-. .Y ",
", ' [ 5 4 4 4 4 4 4 4 4 4 4 4 f i Z$`$O#Z#O#B#3$N#8$ %,$>#0#:#,$v$B@Y#%$B#O#Z#Z#Z#Z#O#O#.%N$}#p$i f 6 4 4 4 4 4 4 4 4 4 r %.&.+%",
"! : [ 9 4 4 4 4 4 4 4 4 4 4 4 4 f u m @%#%O#O#Z#Z#Z#B#%$s$<#<#B#B#O#Z#O#Z#Z#Z#O#Z#O##%$%%%'#&%u f 6 4 4 4 4 4 4 4 4 4 4 k+%%T.g$",
"& , < 0 4 4 4 4 4 4 4 4 4 4 4 4 4 5 z b#*%=%Z#Z#Z#O#Z#Z#Z#Z#Z#Z#Z#Z#O#Z#Z#O#Z#Z#Z#-%;%P#V b#h 5 4 4 4 4 4 4 4 4 4 4 4 4 k+y.T.g$",
"; > # 2 4 4 4 4 4 4 4 4 4 4 4 4 4 4 6 e S.m >%,%'%Z#Z#Z#Z#Z#Z#Z#O#O#Z#Z#Z#Z#)%!%~%`#p$J+S.e 6 4 4 4 4 4 4 4 4 4 4 4 4 4 '#k$,+g$",
"; > | 0 4 4 4 4 4 4 4 4 4 4 4 4 4 4 4 6 f z {%m i#]%^%/%(%_%:%Z##%<%[%}%|%1%@.R V J+{%z f 6 4 4 4 4 4 4 4 4 4 4 4 4 4 4 ` s 2+g$",
"+ ; < 7 4 4 4 4 4 4 4 4 4 4 4 4 4 4 4 4 4 6 f z S.b#m m )$2%k+3%W `#'#A$)$V p$b#S.z f 6 4 4 4 4 4 4 4 4 4 4 4 4 4 4 4 4 `#5@m@g$",
"* . < c 4 4 4 4 4 4 4 4 4 4 4 4 4 4 4 4 4 4 4 6 5 E z i 1 U n Q Q Q n U 1 i z E 5 6 4 4 4 4 4 4 4 4 4 4 4 4 4 4 4 4 4 4 *.%%T.)@",
"* . # 5 4 4 4 4 4 4 4 4 4 4 4 4 4 4 4 4 4 4 4 4 4 4 6 5 5 f f f f f f f 5 5 6 4 4 4 4 4 4 4 4 4 4 4 4 4 4 4 4 4 4 4 4 4 :$-.#.Y ",
". + @ h 4 4 4 4 4 4 4 4 4 4 4 4 4 4 4 4 4 4 4 4 4 4 4 4 4 4 4 4 4 4 4 4 4 4 4 4 4 4 4 4 4 4 4 4 4 4 4 4 4 4 4 4 4 4 4 4 c.` X =.",
"* . | p 4 4 4 4 4 4 4 4 4 4 4 4 4 4 4 4 4 4 4 4 4 4 4 4 4 4 4 4 4 4 4 4 4 4 4 4 4 4 4 4 4 4 4 4 4 4 4 4 4 4 4 4 4 4 4 4 q#-. ...",
"$ . { 1 4 4 4 4 4 4 4 4 4 4 4 4 4 4 4 4 4 4 4 4 4 4 4 4 4 4 4 4 4 4 4 4 4 4 4 4 4 4 4 4 4 4 4 4 4 4 4 4 4 4 4 4 4 4 4 4 A$%.#.Y ",
"$ . 8 1 4 4 4 4 4 4 4 4 4 4 4 4 4 4 4 4 4 4 4 4 4 6 6 5 5 5 f f f f f f 5 5 5 6 6 4 4 4 4 4 4 4 4 4 4 4 4 4 4 4 4 4 4 4 c.@. .d.",
"& ) f V -.W 4%Q J+)$:$*.A$r q#V J+J+c.q#x.k+R A$q#*.:$+.V &%q#y.%.`#}#}#}#k+$.:$c.*.R 3%W 3%}#'#;+_  .s *.Z A$A$$.q#A$c.A$%%&.d.",
"[ 2 :$5%5@%%`#W @.-.;+%%y.%%;+-.` H+@.;+y.S y.;+` @.-.-.@.W @.S 5@5%k$y.y.;+@.%.y.5% . ._ s 5%_ m@..l+ .%%@.%%;+-.%.;+-.%%_ m@..",
"( o 5@..,+ ._ X #.&.z.z.&.#.#.#. ._ #.z.T.T.,+z. . .#.&.#. . . .T.m@T.&.&.#. .,+d.Y g$)@Y d.Y g$3+n@Y =.2+T.#. .#.z.T.m@l+=.)@n@",
"` %...D#g$..T =.d.Y Y d.=.;.=.=.=.=.Y +%)@+%3++%Y Y ..........d.Y )@..d.d.d...6%7% @6@6@6@6@!@8%6@n@m+m+6%g$T ;...g$n@D#I+D#D#I+"};
