/* XPM */
static char * yellow_jump3_xpm[] = {
"54 54 453 2",
"  	c None",
". 	c #CAC9B6",
"+ 	c #C7C59F",
"@ 	c #C4C28C",
"# 	c #C2BE7E",
"$ 	c #C0BC74",
"% 	c #BFBA6D",
"& 	c #BEB968",
"* 	c #BEB96A",
"= 	c #BEBA70",
"- 	c #BFBA79",
"; 	c #C0BE86",
"> 	c #C3C099",
", 	c #C6C5B2",
"' 	c #C5C393",
") 	c #C2BE76",
"! 	c #C2BD6E",
"~ 	c #C2BD70",
"{ 	c #C1BC6F",
"] 	c #C0BB6C",
"^ 	c #BFBA69",
"/ 	c #BEBB68",
"( 	c #BCB764",
"_ 	c #BAB562",
": 	c #BAB56A",
"< 	c #BDBB89",
"[ 	c #C5C4AF",
"} 	c #C9C8AF",
"| 	c #C3BE85",
"1 	c #C3BE71",
"2 	c #C4BF72",
"3 	c #C5C075",
"4 	c #C6C174",
"5 	c #C5C275",
"6 	c #C1BE6D",
"7 	c #BFBA6B",
"8 	c #BDB867",
"9 	c #BBB665",
"0 	c #B9B461",
"a 	c #B7B25D",
"b 	c #B8B476",
"c 	c #BEBEA6",
"d 	c #CBCBBF",
"e 	c #C4C18C",
"f 	c #C6C176",
"g 	c #C7C379",
"h 	c #C9C47B",
"i 	c #C9C57B",
"j 	c #C8C47A",
"k 	c #C7C277",
"l 	c #C3C06F",
"m 	c #C1BC6B",
"n 	c #BFBC69",
"o 	c #BCB766",
"p 	c #B5B059",
"q 	c #B5B179",
"r 	c #BFBFB3",
"s 	c #C6C4A6",
"t 	c #C2BE72",
"u 	c #CBC67D",
"v 	c #CAC680",
"w 	c #CBC77F",
"x 	c #CCC780",
"y 	c #CCC880",
"z 	c #C7C275",
"A 	c #C1BC6D",
"B 	c #B8B35E",
"C 	c #B2AD58",
"D 	c #B4B192",
"E 	c #C5C295",
"F 	c #CDC881",
"G 	c #CEC982",
"H 	c #CFCD85",
"I 	c #D0CB86",
"J 	c #D1CE85",
"K 	c #CECA86",
"L 	c #B4AF54",
"M 	c #AFAC7D",
"N 	c #BDBDBD",
"O 	c #C4BF74",
"P 	c #D1CD89",
"Q 	c #D2D08C",
"R 	c #D2CE8C",
"S 	c #D3CF8D",
"T 	c #D2CD8C",
"U 	c #D2CD8A",
"V 	c #C7C475",
"W 	c #BDB865",
"X 	c #BAB560",
"Y 	c #B7B25B",
"Z 	c #B4AF56",
"` 	c #B4AE52",
" .	c #ACAA70",
"..	c #B8B8B8",
"+.	c #C3C08B",
"@.	c #CBC97F",
"#.	c #D4D08E",
"$.	c #D5D191",
"%.	c #D6D292",
"&.	c #D7D393",
"*.	c #D0CC88",
"=.	c #B3AE55",
"-.	c #B4AE4C",
";.	c #A9A76F",
">.	c #B5B5B5",
",.	c #C4C194",
"'.	c #CDC681",
").	c #D3CE89",
"!.	c #D4CF8E",
"~.	c #D8D494",
"{.	c #D9D595",
"].	c #D9D597",
"^.	c #DAD696",
"/.	c #D8D294",
"(.	c #D6D294",
"_.	c #B5AF57",
":.	c #B3AD49",
"<.	c #A6A474",
"[.	c #C6C3A4",
"}.	c #C9C57F",
"|.	c #D6D192",
"1.	c #D9D695",
"2.	c #DBD599",
"3.	c #DCD89C",
"4.	c #DDD99D",
"5.	c #DBD799",
"6.	c #DAD698",
"7.	c #D4D090",
"8.	c #CAC57C",
"9.	c #B9B45F",
"0.	c #B5AE59",
"a.	c #B5AF4D",
"b.	c #B2AC46",
"c.	c #A19F81",
"d.	c #CAC9BE",
"e.	c #BDB86B",
"f.	c #C3BE73",
"g.	c #CFCB85",
"h.	c #DEDAA0",
"i.	c #E0DEA2",
"j.	c #E1DDA3",
"k.	c #E0DCA2",
"l.	c #DFDB9F",
"m.	c #D2CC8A",
"n.	c #CCC580",
"o.	c #C6BF76",
"p.	c #BEB966",
"q.	c #B4AE4E",
"r.	c #B2AC48",
"s.	c #AFA945",
"t.	c #9E9D92",
"u.	c #C2BE86",
"v.	c #DEDA9E",
"w.	c #E2DEA4",
"x.	c #E3E1A7",
"y.	c #E4E2A8",
"z.	c #E4E0AA",
"A.	c #E3DEA9",
"B.	c #E3DFA7",
"C.	c #DBD79B",
"D.	c #D4D28E",
"E.	c #CECA84",
"F.	c #C9C477",
"G.	c #B4AE4A",
"H.	c #B0AA44",
"I.	c #A29E62",
"J.	c #A1A1A1",
"K.	c #C6C6AE",
"L.	c #E5E3A9",
"M.	c #E6E2AC",
"N.	c #E7E3AF",
"O.	c #E8E4AE",
"P.	c #E4DFAA",
"Q.	c #D3D18D",
"R.	c #B6B15A",
"S.	c #B5AF4B",
"T.	c #B0AA46",
"U.	c #AFA83F",
"V.	c #95947D",
"W.	c #ABABAB",
"X.	c #BFBB7D",
"Y.	c #C5C073",
"Z.	c #C8C376",
"`.	c #D0CC8A",
" +	c #D7D593",
".+	c #E2DDA6",
"++	c #E5E1AB",
"@+	c #E8E4B0",
"#+	c #E9E4B3",
"$+	c #EAE7B4",
"%+	c #E9E5B3",
"&+	c #EAE6B2",
"*+	c #E6E2AA",
"=+	c #E2DEA6",
"-+	c #D6D194",
";+	c #B6B15C",
">+	c #B3AE57",
",+	c #B1AB47",
"'+	c #A19D59",
")+	c #969696",
"!+	c #B7B7B7",
"~+	c #C8C6B2",
"{+	c #BAB564",
"]+	c #CEC884",
"^+	c #E1DDA5",
"/+	c #E9E6B3",
"(+	c #ECE8B6",
"_+	c #EDEAB9",
":+	c #EDE9B9",
"<+	c #EBE8B7",
"[+	c #DCD89A",
"}+	c #D4CF90",
"|+	c #BBB663",
"1+	c #B4AE50",
"2+	c #B1AA41",
"3+	c #ABA53B",
"4+	c #8D8B7B",
"5+	c #A5A5A5",
"6+	c #C0BD8C",
"7+	c #C6C374",
"8+	c #EEEBBA",
"9+	c #F0EEBE",
"0+	c #F1EEC1",
"a+	c #F0EDBE",
"b+	c #EFECBB",
"c+	c #DFDBA1",
"d+	c #DDDB9B",
"e+	c #B7B25F",
"f+	c #B4AE48",
"g+	c #ACA63C",
"h+	c #999661",
"i+	c #939393",
"j+	c #B6B6B6",
"k+	c #E4E0A8",
"l+	c #EAE7B2",
"m+	c #F3F0C3",
"n+	c #F4F1C6",
"o+	c #F3EFC3",
"p+	c #F1EEBF",
"q+	c #AFA943",
"r+	c #A6A042",
"s+	c #848484",
"t+	c #A8A8A8",
"u+	c #C7C5B1",
"v+	c #EBE9B5",
"w+	c #F1EFBF",
"x+	c #F5F3C7",
"y+	c #F8F5CC",
"z+	c #EAE6B4",
"A+	c #D2CE8E",
"B+	c #ADA73D",
"C+	c #AAA336",
"D+	c #878675",
"E+	c #9A9A9A",
"F+	c #BBBBBB",
"G+	c #C1BF97",
"H+	c #E1DFA3",
"I+	c #E0DBA2",
"J+	c #8F8C67",
"K+	c #8C8C8C",
"L+	c #B3B3B3",
"M+	c #BDB981",
"N+	c #DFDAA1",
"O+	c #EEEBBC",
"P+	c #F1EEBD",
"Q+	c #EEEABA",
"R+	c #EAE8B2",
"S+	c #E7E3AD",
"T+	c #E0DCA0",
"U+	c #DDD99B",
"V+	c #B5B057",
"W+	c #AEA842",
"X+	c #ABA53D",
"Y+	c #989658",
"Z+	c #838383",
"`+	c #A9A9A9",
" @	c #B9B56F",
".@	c #DED9A0",
"+@	c #E5E1A9",
"@@	c #E5E3AB",
"#@	c #A8A236",
"$@	c #9E9948",
"%@	c #7C7C7C",
"&@	c #9E9E9E",
"*@	c #BFBFBF",
"=@	c #B5AE61",
"-@	c #C4C174",
";@	c #B3AD47",
">@	c #A8A134",
",@	c #A19B3B",
"'@	c #787878",
")@	c #BABABA",
"!@	c #B3AC57",
"~@	c #D9D593",
"{@	c #DDD99F",
"]@	c #B1AB45",
"^@	c #AAA43A",
"/@	c #A9A233",
"(@	c #A59E31",
"_@	c #747474",
":@	c #909090",
"<@	c #B5AD57",
"[@	c #DCD99A",
"}@	c #CECC84",
"|@	c #ADA63D",
"1@	c #ABA437",
"2@	c #A8A132",
"3@	c #A49D2E",
"4@	c #717171",
"5@	c #8B8B8B",
"6@	c #B2AD56",
"7@	c #C0BB6E",
"8@	c #CAC77C",
"9@	c #D5D38F",
"0@	c #A7A031",
"a@	c #707070",
"b@	c #888888",
"c@	c #B2AD5C",
"d@	c #B8B360",
"e@	c #ADA639",
"f@	c #A7A02F",
"g@	c #A19B37",
"h@	c #6F6F6F",
"i@	c #878787",
"j@	c #B3AF67",
"k@	c #C8C37A",
"l@	c #CCC77C",
"m@	c #BBB661",
"n@	c #AEA83E",
"o@	c #ACA538",
"p@	c #A69F2E",
"q@	c #9A9542",
"r@	c #B8B478",
"s@	c #B0A940",
"t@	c #A49D2C",
"u@	c #938F51",
"v@	c #BCB98E",
"w@	c #BEB76A",
"x@	c #AEA73E",
"y@	c #A7A033",
"z@	c #A49C28",
"A@	c #89865F",
"B@	c #8F8F8F",
"C@	c #C3C2AD",
"D@	c #C0BB6A",
"E@	c #C3BC71",
"F@	c #C0BD6A",
"G@	c #B8B35C",
"H@	c #B3AD53",
"I@	c #B3AB4B",
"J@	c #A29A26",
"K@	c #7B7C6A",
"L@	c #B1AB51",
"M@	c #CCCA80",
"N@	c #BDBA67",
"O@	c #AAA338",
"P@	c #9E9A32",
"Q@	c #6D6D6D",
"R@	c #B5B17B",
"S@	c #B0A744",
"T@	c #A69E2A",
"U@	c #A39B25",
"V@	c #8E8B54",
"W@	c #C1C0A9",
"X@	c #A69E2C",
"Y@	c #A39C27",
"Z@	c #A09822",
"`@	c #7C7B6A",
" #	c #737373",
".#	c #AEAB64",
"+#	c #A29A24",
"@#	c #948F44",
"##	c #6C6C6C",
"$#	c #797979",
"%#	c #BAB79E",
"&#	c #B4AB4C",
"*#	c #A69F30",
"=#	c #A49D2A",
"-#	c #A09820",
";#	c #7E7C66",
">#	c #ABA669",
",#	c #ADA741",
"'#	c #B3AD4B",
")#	c #B5B05B",
"!#	c #9F9721",
"~#	c #908C4A",
"{#	c #777777",
"]#	c #BDBDAF",
"^#	c #AAA43C",
"/#	c #B4AF5A",
"(#	c #9E9622",
"_#	c #76746C",
":#	c #B0AF8A",
"<#	c #9E971E",
"[#	c #848262",
"}#	c #A8A570",
"|#	c #B1AB43",
"1#	c #A49C2A",
"2#	c #8B8753",
"3#	c #898989",
"4#	c #BCBCBC",
"5#	c #A5A161",
"6#	c #9D961D",
"7#	c #A0A0A0",
"8#	c #A4A05E",
"9#	c #A09924",
"0#	c #808080",
"a#	c #9B9B9B",
"b#	c #A09E68",
"c#	c #AAA334",
"d#	c #9F981F",
"e#	c #9C951C",
"f#	c #8B8853",
"g#	c #7F7F7F",
"h#	c #989898",
"i#	c #9D9B79",
"j#	c #A39D2F",
"k#	c #A69F32",
"l#	c #A19A23",
"m#	c #9B941F",
"n#	c #848260",
"o#	c #B4B4B4",
"p#	c #9D9D91",
"q#	c #9A9654",
"r#	c #A9A12F",
"s#	c #9D961B",
"t#	c #918D47",
"u#	c #75746B",
"v#	c #91907B",
"w#	c #9A954A",
"x#	c #A29B2A",
"y#	c #A19925",
"z#	c #9B941B",
"A#	c #938E41",
"B#	c #7F7C65",
"C#	c #8C8B7A",
"D#	c #928F58",
"E#	c #9E9832",
"F#	c #9F9823",
"G#	c #999229",
"H#	c #8D8A51",
"I#	c #7B7A69",
"J#	c #848272",
"K#	c #8B8861",
"L#	c #938F4D",
"M#	c #98923C",
"N#	c #9B952D",
"O#	c #9C9522",
"P#	c #9A942A",
"Q#	c #96913A",
"R#	c #88855C",
"S#	c #7B7969",
"T#	c #7A7A7A",
"                                                                                                            ",
"                                                                                                            ",
"                                                                                                            ",
"                                                                                                            ",
"                                          . + @ # $ % & * = - ; > ,                                         ",
"                                    . ' ) ! ~ ~ ~ ~ ~ { ] ] ^ / ( _ : < [                                   ",
"                                } | ~ 1 2 3 4 4 4 4 3 5 2 1 ~ 6 7 8 9 0 a b c                               ",
"                            d e ~ 2 3 f g g g h i h j g k f 3 2 l m n o _ a p q r                           ",
"                          s t 1 3 f g i u v w x x y y w u i g z 3 1 A 7 o _ B p C D                         ",
"                        E ! 2 4 g h w F G H I I I J K K G F u i g 4 2 ! 7 o _ a p L M N                     ",
"                      e { O 4 g u y G I P Q R R S R T U P I G F u j V 2 { 7 W X Y Z `  ...                  ",
"                    +.{ 2 4 j @.F I P R #.$.%.&.&.%.%.$.#.R *.I G u j 4 2 { & ( B p =.-.;.>.                ",
"                  ,.] 1 4 j u '.I ).!.$.&.~.{.].^.].{./.(.%.!.U I G u j 4 1 ] 8 _ a _.` :.<.>.              ",
"                [.7 ~ 3 g }.G I R #.|.1.^.2.3.4.4.4.3.5.6.~.(.7.R J G 8.g 3 ~ ^ ( 9.0.=.a.b.c.>.            ",
"              d.e.A f.k i F g.).7.&.{.5.4.h.i.j.j.j.k.l.4.5.{.&.7.m.I n.i o.f.] p._ a _.q.r.s.t...          ",
"              u.^ ! 3 g u G P !.(.{.2.v.k.w.x.y.z.A.B.w.k.v.C.].(.D.P E.u F.3 ~ ^ 9 9.p L G.H.I.J.N         ",
"            K.8 ] 1 z i F I S %.~.5.v.j.B.L.M.N.N.O.M.P.B.j.v.5.~.$.Q.I x i z 1 ] W 0 R.=.S.T.U.V.W.        ",
"            X./ 6 Y.Z.8.G `.!. +^.4.k..+++@+#+$+$+%+&+@+*+=+i.4.6.-+#.P G u g O A & _ ;+>+q.,+U.'+)+!+      ",
"          ~+{+& { Y.g w ]+U $.~.C.l.^+++O./+(+_+:+_+<+%+N.++w.l.[+~.}+U E.w g 3 { * |+a Z 1+r.2+3+4+5+      ",
"          6+|+^ ~ 7+j w g.R %.{.3.k.B.M.&+<+8+9+0+a+b+<+&+M.B.c+d+{.%.R I x j 3 ~ ^ ( e+_.1+f+2+g+h+i+j+    ",
"          : 9 7 1 4 j F I S (.6.4.j.k+N.l+_+a+m+n+o+p+_+l+N.k+j.4.^.(.Q.I x h 4 ~ ^ 9 B p ` r.q+g+r+s+t+    ",
"        u+B |+^ 1 4 j F *.S &.^.4.j.z.O.v+8+w+x+y+n+0+8+z+O.L.j.4.6.%.A+*.y h 4 ~ ^ ( B _.` :.q+B+C+D+E+F+  ",
"        G+B |+7 ~ 4 h F I R %.^.4.H+y.N.$+_+a+m+x+m+p+_+l+N.y.I+4.6.%.A+I F i 4 ~ * ( B _.` :.2+B+C+J+K+L+  ",
"        M+B |+^ ~ 4 j x I R %.{.3.N+B.M./+(+O+a+w+P+Q+<+R+S+B.T+U+{.%.R K x j 4 ~ ^ |+B V+1+r.W+X+C+Y+Z+`+  ",
"         @a |+& { 3 g w H ).$.~.5..@^++@N.R+(+_+8+_+(+%+O.@@^+l.[+/.$.m.K u g 3 ! & _ B Z 1+r.2+3+#@$@%@&@*@",
"        =@Y _ & ] O k u G *.!.-+6.4.k.B.++O.&+$+z+l+#+N.++B.k.4.6.&.!.P G u k -@A 8 _ ;+>+q.;@U.3+>@,@'@)+)@",
"        !@R.0 o ] 1 z h F I R $.~@2.{@j.B.z.M.N.N.N.S++@B.j.v.5.~.$.R I F h 4 1 ] o 0 R.=.S.]@U.^@/@(@_@:@!+",
"        L <@B ( ^ ~ 3 g w E.*.S &.].[@{@k.=+B.y.k+k+B.w.k.v.[+{.&.S P }@@.j 3 ~ 7 ( B p ` G.H.|@1@2@3@4@5@>.",
"        6@Z a _ 8 7@2 z 8@n.K ).7.&.{.5.4.h.k.I+j.k.T+.@4.5.{.&.9@U I y 8.z 2 7@& _ a Z 1+r.q+B+C+0@3@a@b@L+",
"        c@=.R.9.( 7 ~ 3 g u '.I Q 7.%.{.6.[+3.4.4.4.3.2.6.~.|.7.).I F u g 3 ~ 7 ( d@R.=.-.b.U.e@>@f@g@h@i@L+",
"        j@` V+a _ 8 ] 1 4 k@@.G I Q !.$. +~.{.].6.^.{.~. +$.#.).I '.l@j 4 1 A 8 m@a _.` :.H.n@o@2@p@q@a@b@L+",
"        r@a.=.p d@( & A 2 4 j w F g.*.R !.}+%.%.%.%.%.$.!.R *.I '.@.j V 2 ! ^ |+9.R.=.a.b.s@3+C+0@t@u@4@5@>.",
"        v@:.1+_.a 0 W w@{ 2 f j u y E.I *.U R S S R R ).*.I }@F u g f 2 ! 7 o X a >+` :.H.x@^@y@f@z@A@_@B@!+",
"        C@b.S.L p a _ o D@! E@4 g h w F G E.I I *.I I K G y w i g 4 f.{ F@o _ G@p H@I@]@s@g+#@0@t@J@K@'@)+)@",
"          L@;@q.=.R.a _ o ^ A 1 3 k g i 8.w M@F F x x w u h g z 3 1 { ^ N@|+a p =.a.r.q+B+O@y@p@z@P@Q@%@&@*@",
"          R@S@f+q.=.p B _ o * ] ~ E@3 f k g j j i j j g Z.f 3 2 ~ A & o _ a p =.q.r.S@x@3+#@0@T@U@V@h@Z+`+  ",
"          W@U.]@:.1+=.p a X ( 8 7 ] ~ 1 O 3 3 4 4 4 3 O 2 1 ~ 7@^ 8 9 0 a p =.1+G.]@U.g+C+0@X@Y@Z@`@ #K+L+  ",
"            .#U.]@G.q.=.p Y 9.|+o 8 7 7 A { ~ ~ ~ l ~ ! ] ] ^ & ( _ 9.;+_.=.1+G.]@s@X+1@2@p@z@+#@###$#E+F+  ",
"            %#g+s@]@:.a.H@Z R.a 9._ |+W & n ^ 7 7 7 ^ & 8 o ( _ 9.a R.Z L &#:.]@s@X+1@y@*#=#U@-#;#a@s+t+    ",
"              >#g+,#H.;@'#1+=._.R.a B 0 _ {+( |+|+9 |+|+_ 0 B a )#_.=.1+S.r.H.U.g+1@y@*#T@J@!#~###{#i+j+    ",
"              ]#^#g+x@q+b.:.-.` =.Z p )#a a B B B B a a ;+R./#Z =.1+a.G.b.q+x@g+1@/@*#T@J@Z@(#_#a@s+5+      ",
"                :##@3+B+s@H.;@G.S.1+H@=.=.Z V+p <@V+V+Z Z =.L 1+S.:.b.H.s@B+3+C+2@*#T@J@Z@<#[#Q@$#)+j+      ",
"                  }#>@o@g+x@s@H.b.r.G.S.q.1+1+` 1+` 1+1+q.-.G.r.b.|#W+x@3+O@>@0@f@1#J@Z@<#2###_@3#W.        ",
"                  4#5#y@C+^@g+n@s@2+H.]@b.r.f+:.:.:.r.r.,+b.H.2+s@|@g+O@C+y@*#X@=#U@!#6#~###4@Z+7#4#        ",
"                    ..8#0@/@C+O@3+X+n@U.U.2+2+q+q+q+W+W+s@U.|@g+^@o@#@/@0@p@t@Y@9#!#6#~###a@0#a#..          ",
"                      >.b#p@0@2@c#C+o@^@3+g+B+X+g+B+B+g+3+^@1@C+c#2@0@f@t@z@U@Z@d#e#f###a@g#h#>.            ",
"                        >.i#j#3@f@0@0@/@c#>@#@C+C+C+#@#@>@/@k#0@*#p@T@z@J@l#-#6#m#n###4@0#h#o#              ",
"                          >.p#q#=#t@X@p@f@*#r#0@0@0@*#*#f@p@X@T@=#Y@+#l#-#6#s#t#u#Q@_@Z+a#>.                ",
"                            ..J.v#w#J@Y@z@x#1#=#1#T@=#=#x#Y@J@y#l#!#d#6#z#A#B###a@$#3#7#..                  ",
"                              N W.)+C#D#E#l#l#9#9#9#+#l#F#!#-#d#6#s#G#H#I###a@{#s+)+W.4#                    ",
"                                  !+5+i+s+J#K#L#M#N#(#<#O#P#Q#~#R#S#Q@h@ #T#s+i+5+!+                        ",
"                                      j+`+E+K+s+%@'@_@4@a@a@a@4@_@'@%@Z+K+E+t+j+                            ",
"                                          F+L+`+&@)+:@5@b@i@b@5@:@)+&@`+L+F+                                ",
"                                                *@)@!+>.o#L+o#>.!+)@*@                                      "};
