/* XPM */
static char * yellow_small_xpm[] = {
"32 32 235 2",
"  	c None",
". 	c #666666",
"+ 	c #6C6B62",
"@ 	c #827854",
"# 	c #94864C",
"$ 	c #A18F47",
"% 	c #A58F43",
"& 	c #A48D40",
"* 	c #9D8841",
"= 	c #918247",
"- 	c #7E7450",
"; 	c #6C6A60",
"> 	c #6B6963",
", 	c #8D8253",
"' 	c #AB9549",
") 	c #AF9B4D",
"! 	c #B09A4E",
"~ 	c #AF9C51",
"{ 	c #AF994F",
"] 	c #AE984C",
"^ 	c #AC964A",
"/ 	c #A89246",
"( 	c #A59141",
"_ 	c #A0893A",
": 	c #867746",
"< 	c #696861",
"[ 	c #79735B",
"} 	c #A6944C",
"| 	c #B09D50",
"1 	c #B39E55",
"2 	c #B6A158",
"3 	c #B7A35B",
"4 	c #B8A65C",
"5 	c #B7A45B",
"6 	c #B6A45A",
"7 	c #B3A055",
"8 	c #B09A50",
"9 	c #A69044",
"0 	c #A18D3D",
"a 	c #988538",
"b 	c #756E53",
"c 	c #7F7859",
"d 	c #B29F56",
"e 	c #B7A25B",
"f 	c #BBA761",
"g 	c #BEAA64",
"h 	c #BFAC67",
"i 	c #C0AC68",
"j 	c #BBA65F",
"k 	c #A99545",
"l 	c #A28E3C",
"m 	c #9C8734",
"n 	c #776E4F",
"o 	c #78725C",
"p 	c #B9A45D",
"q 	c #BFAB65",
"r 	c #C3AF6B",
"s 	c #C6B370",
"t 	c #C8B572",
"u 	c #C9B673",
"v 	c #B49F56",
"w 	c #A89444",
"x 	c #A18C39",
"y 	c #9A8530",
"z 	c #726B54",
"A 	c #A2914E",
"B 	c #B9A55F",
"C 	c #BFAE67",
"D 	c #C5B26F",
"E 	c #CAB776",
"F 	c #CDBB7B",
"G 	c #D1BF7F",
"H 	c #D2BF7E",
"I 	c #CFBD7F",
"J 	c #CEBE7C",
"K 	c #C6B26E",
"L 	c #BFAB67",
"M 	c #BAA85E",
"N 	c #AD994B",
"O 	c #A58E3F",
"P 	c #9C8536",
"Q 	c #8F7D33",
"R 	c #666664",
"S 	c #887D54",
"T 	c #CCB978",
"U 	c #D2C080",
"V 	c #D6C486",
"W 	c #D8C78A",
"X 	c #DAC88C",
"Y 	c #C6B46E",
"Z 	c #A89446",
"` 	c #A18D3B",
" .	c #7C7042",
"..	c #676765",
"+.	c #A8954A",
"@.	c #B4A156",
"#.	c #D7C689",
"$.	c #DCCB90",
"%.	c #E1CE95",
"&.	c #E1D097",
"*.	c #E0CF96",
"=.	c #DDCC91",
"-.	c #D6C388",
";.	c #D1BE7F",
">.	c #A48F3E",
",.	c #9C8432",
"'.	c #917A29",
").	c #7D7659",
"!.	c #AE9A4C",
"~.	c #B6A358",
"{.	c #C6B570",
"].	c #E3D39B",
"^.	c #E8D8A0",
"/.	c #EAD9A4",
"(.	c #E8D8A2",
"_.	c #E3D299",
":.	c #A69140",
"<.	c #957F29",
"[.	c #746C4C",
"}.	c #8F824F",
"|.	c #AF9C4F",
"1.	c #C0AE68",
"2.	c #E1D095",
"3.	c #EFDEAB",
"4.	c #F3E2AF",
"5.	c #D8C78C",
"6.	c #D0BE7E",
"7.	c #B09D4E",
"8.	c #A79343",
"9.	c #9F8A37",
"0.	c #97812B",
"a.	c #7E7038",
"b.	c #9C8B48",
"c.	c #B7A35D",
"d.	c #C0AF68",
"e.	c #C9B873",
"f.	c #E2D298",
"g.	c #FAEBBC",
"h.	c #EADAA4",
"i.	c #E1D199",
"j.	c #C8B574",
"k.	c #87752B",
"l.	c #A49144",
"m.	c #B7A55B",
"n.	c #F2E2B0",
"o.	c #EFE0AB",
"p.	c #96802A",
"q.	c #8C7722",
"r.	c #B5A159",
"s.	c #DCC990",
"t.	c #E8D6A0",
"u.	c #CFBC7B",
"v.	c #A68F40",
"w.	c #9E8936",
"x.	c #8D741D",
"y.	c #A08D40",
"z.	c #AC994A",
"A.	c #C3B16B",
"B.	c #D6C38A",
"C.	c #A48D3E",
"D.	c #9C8732",
"E.	c #937D27",
"F.	c #89741F",
"G.	c #978641",
"H.	c #A99345",
"I.	c #BEAA66",
"J.	c #D9C68B",
"K.	c #D4C386",
"L.	c #CBB877",
"M.	c #BEAD66",
"N.	c #99842F",
"O.	c #927C24",
"P.	c #837025",
"Q.	c #897A47",
"R.	c #CEBB7C",
"S.	c #8F791F",
"T.	c #7B6C31",
"U.	c #787052",
"V.	c #A18A39",
"W.	c #937D25",
"X.	c #8C751A",
"Y.	c #706746",
"Z.	c #988536",
"`.	c #A28B3C",
" +	c #BEAC64",
".+	c #A79345",
"++	c #A18B3D",
"@+	c #846E18",
"#+	c #7F7447",
"$+	c #9D8835",
"%+	c #A79143",
"&+	c #A38E3B",
"*+	c #917821",
"=+	c #897319",
"-+	c #746838",
";+	c #917B23",
">+	c #806C1C",
",+	c #716B53",
"'+	c #A69242",
")+	c #907A22",
"!+	c #8A741A",
"~+	c #866F12",
"{+	c #6E684E",
"]+	c #9F8837",
"^+	c #846D12",
"/+	c #706846",
"(+	c #716A4F",
"_+	c #897525",
":+	c #947E26",
"<+	c #957F27",
"[+	c #8E7820",
"}+	c #877015",
"|+	c #7F6A15",
"1+	c #6F694B",
"2+	c #686760",
"3+	c #7B6D37",
"4+	c #8B751B",
"5+	c #8D771D",
"6+	c #8E781E",
"7+	c #8C781C",
"8+	c #8A7318",
"9+	c #866F14",
"0+	c #826B10",
"a+	c #766832",
"b+	c #67665F",
"c+	c #69665D",
"d+	c #746940",
"e+	c #7C6B2A",
"f+	c #836F1D",
"g+	c #846E14",
"h+	c #856E13",
"i+	c #806B18",
"j+	c #7A6926",
"k+	c #73683D",
"l+	c #69655B",
". . . . . . . . . . . . . . . . . . . . . . . . . . . . . . . . ",
". . . . . . . . . . . . . . . . . . . . . . . . . . . . . . . . ",
". . . . . . . . . . . . . . . . . . . . . . . . . . . . . . . . ",
". . . . . . . . . . . . . . . . . . . . . . . . . . . . . . . . ",
". . . . . . . . . . . + @ # $ % & * = - ; . . . . . . . . . . . ",
". . . . . . . . . > , ' ) ! ~ { ] ^ / ( _ : < . . . . . . . . . ",
". . . . . . . . [ } | 1 2 3 4 5 6 7 8 ^ 9 0 a b . . . . . . . . ",
". . . . . . . c ] d e f g h i h g j e 7 ] k l m n . . . . . . . ",
". . . . . . o ) 1 p q r s t u t s r g p v ] w x y z . . . . . . ",
". . . . . . A 7 B C D E F G H I J E K L M 1 N O P Q R . . . . . ",
". . . . . S | 4 q D T U V W X W V G T Y g e 8 Z ` y  .. . . . . ",
". . . . ..+.@.j r E U #.$.%.&.*.=.-.;.E r f 1 ' >.,.'.R . . . . ",
". . . . ).!.~.g {.F V $.].^./.(._.$.V F s g 6 ] :.P <.[.. . . . ",
". . . . }.|.3 1.t I W 2.^.3.4.3.^.2.5.6.t h e 7.8.9.0.a.. . . . ",
". . . . b.| c.d.e.;.X f./.4.g.4.h.i.X H j.i 4 { w 9.0.k.. . . . ",
". . . . l.|.m.h t 6.W *.^.3.n.o.(.*.W G u i e { 8.9.p.q.. . . . ",
". . . . ( ] r.g s F V s.].t.h.^._.=.V u.s g 2 ] v.w.p.x.. . . . ",
". . . . y.z.1 f A.E G #.$.%.i.%.s.B.G E r f 7 z.C.D.E.F.. . . . ",
". . . . G.H.8 4 I.D T U V W J.W K.G L.D M.e ~ H.` N.O.P.. . . . ",
". . . . Q.O N 1 B 1.D E R.I ;.I F E K i p 7 z.O w.p.S.T.. . . . ",
". . . . U.V.8.] v p g A.s t u e.s r q B @.] w x y W.X.Y.. . . . ",
". . . . R Z.`.k ] d 4 j  +i d.h  +f m.7 ) .+++,.<.S.@+R . . . . ",
". . . . . #+$+l %+N | @.2 e 4 3 2 1 | ^ w &+$+0.*+=+-+. . . . . ",
". . . . . . Q D.V.:.H.z.) { { ! ] z./ O x D.0.;+X.>+R . . . . . ",
". . . . . . ,+<.y P V.>.v.%+8.8.'+C.V.P N.<.)+!+~+{+. . . . . . ",
". . . . . . . [.W.p.N.D.P 9.]+9.P m N.p.W.S.=+^+/+. . . . . . . ",
". . . . . . . . (+_+;+:+<.0.0.0.<.<+;+[+X.}+|+1+. . . . . . . . ",
". . . . . . . . . 2+3+4+5+S.[+S.6+7+8+9+0+a+b+. . . . . . . . . ",
". . . . . . . . . . . c+d+e+f+g+h+i+j+k+l+. . . . . . . . . . . ",
". . . . . . . . . . . . . . . . . . . . . . . . . . . . . . . . ",
". . . . . . . . . . . . . . . . . . . . . . . . . . . . . . . . ",
". . . . . . . . . . . . . . . . . . . . . . . . . . . . . . . . "};
