/* XPM */
static char * yellow_jump8_xpm[] = {
"54 54 450 2",
"  	c None",
". 	c #BBBAA3",
"+ 	c #BAB88A",
"@ 	c #B9B777",
"# 	c #B8B368",
"$ 	c #B7B15D",
"% 	c #B5B057",
"& 	c #B5AF51",
"* 	c #B5AF53",
"= 	c #B4AF5A",
"- 	c #B4AF64",
"; 	c #B5B271",
"> 	c #B6B384",
", 	c #B7B69F",
"' 	c #B9B77D",
") 	c #B9B35F",
"! 	c #B9B357",
"~ 	c #B9B359",
"{ 	c #B8B258",
"] 	c #B6B156",
"^ 	c #B6B052",
"/ 	c #B5B151",
"( 	c #B3AD4F",
"_ 	c #B1AB4D",
": 	c #B0AB54",
"< 	c #B1AF75",
"[ 	c #B6B59C",
"} 	c #BBBA9B",
"| 	c #B8B270",
"1 	c #BAB45A",
"2 	c #BBB55B",
"3 	c #BBB65F",
"4 	c #BCB75E",
"5 	c #BBB85F",
"6 	c #B7B457",
"7 	c #B6B054",
"8 	c #B4AE50",
"9 	c #B2AC50",
"0 	c #AFA94D",
"a 	c #ABA54B",
"b 	c #ADA861",
"c 	c #B0AF92",
"d 	c #BABAAC",
"e 	c #B9B577",
"f 	c #BCB760",
"g 	c #BEB962",
"h 	c #BFBA65",
"i 	c #C0BB64",
"j 	c #BFBA63",
"k 	c #BDB861",
"l 	c #BAB658",
"m 	c #B8B254",
"n 	c #B6B252",
"o 	c #B2AD50",
"p 	c #A6A14A",
"q 	c #A9A565",
"r 	c #AFAFA1",
"s 	c #B9B791",
"t 	c #B9B35B",
"u 	c #C1BC67",
"v 	c #C1BC69",
"w 	c #C2BD68",
"x 	c #C2BD6A",
"y 	c #C3BE69",
"z 	c #BDB85F",
"A 	c #B7B257",
"B 	c #ACA64C",
"C 	c #A29D4A",
"D 	c #A7A47F",
"E 	c #B9B67F",
"F 	c #C3BE6B",
"G 	c #C4BF6C",
"H 	c #C6C36C",
"I 	c #C6C16E",
"J 	c #C7C46D",
"K 	c #C5BF6D",
"L 	c #A39D47",
"M 	c #A3A069",
"N 	c #ACACAC",
"O 	c #BAB55E",
"P 	c #C8C370",
"Q 	c #C9C673",
"R 	c #C9C473",
"S 	c #CAC574",
"T 	c #C9C273",
"U 	c #C8C372",
"V 	c #BDBA5F",
"W 	c #B0AA4C",
"X 	c #AAA44A",
"Y 	c #A49E48",
"Z 	c #A29D46",
"` 	c #A09E5E",
" .	c #A7A7A7",
"..	c #B8B476",
"+.	c #C2BF68",
"@.	c #CBC675",
"#.	c #CCC778",
"$.	c #CDC879",
"%.	c #CEC97A",
"&.	c #C7C26F",
"*.	c #A29D48",
"=.	c #9F9A43",
"-.	c #9C9A5E",
";.	c #A4A4A4",
">.	c #B8B57E",
",.	c #C3BC6B",
"'.	c #C9C471",
").	c #CAC576",
"!.	c #CFCA7B",
"~.	c #D0CB7C",
"{.	c #D0CB7E",
"].	c #D1CC7D",
"^.	c #CFC87B",
"/.	c #CDC87B",
"(.	c #A59F49",
"_.	c #9E9840",
":.	c #9A9862",
"<.	c #B9B68F",
"[.	c #C0BB68",
"}.	c #CDC679",
"|.	c #D0CD7C",
"1.	c #D2CB80",
"2.	c #D3CE83",
"3.	c #D4CF84",
"4.	c #D2CD80",
"5.	c #D1CC7F",
"6.	c #CBC677",
"7.	c #C0BB66",
"8.	c #AEA84C",
"9.	c #A69F4A",
"0.	c #A19B43",
"a.	c #9C973E",
"b.	c #94926E",
"c.	c #BAB8AA",
"d.	c #B3AE55",
"e.	c #B9B45D",
"f.	c #C6C16C",
"g.	c #D5D087",
"h.	c #D7D589",
"i.	c #D8D388",
"j.	c #D7D389",
"k.	c #D6D286",
"l.	c #C8C172",
"m.	c #C2BB6A",
"n.	c #BCB460",
"o.	c #B4AF50",
"p.	c #A09B44",
"q.	c #9D973F",
"r.	c #9A943C",
"s.	c #8F8D81",
"t.	c #B7B371",
"u.	c #D5D085",
"v.	c #D9D489",
"w.	c #DAD78C",
"x.	c #DBD88D",
"y.	c #DBD78F",
"z.	c #DAD48E",
"A.	c #DAD58C",
"B.	c #D2CD82",
"C.	c #CBC875",
"D.	c #C5C06B",
"E.	c #BFBA61",
"F.	c #9F9941",
"G.	c #9A953C",
"H.	c #908D56",
"I.	c #919191",
"J.	c #B9B799",
"K.	c #DCD98E",
"L.	c #DDD991",
"M.	c #DEDA94",
"N.	c #DFDB93",
"O.	c #DBD58F",
"P.	c #CAC774",
"Q.	c #A8A24A",
"R.	c #A09A42",
"S.	c #9B953D",
"T.	c #9A9438",
"U.	c #86856E",
"V.	c #9A9A9A",
"W.	c #B4B068",
"X.	c #BCB65C",
"Y.	c #BEB960",
"Z.	c #C7C271",
"`.	c #CECB7A",
" +	c #D9D38B",
".+	c #DCD890",
"++	c #DFDB95",
"@+	c #E1DB97",
"#+	c #E2DE98",
"$+	c #E2DD96",
"%+	c #DDD98F",
"&+	c #D9D48B",
"*+	c #CDC67B",
"=+	c #A9A34B",
"-+	c #A39E49",
";+	c #9C963E",
">+	c #8E8A4E",
",+	c #868686",
"'+	c #A6A6A6",
")+	c #B9B79F",
"!+	c #B1AB4F",
"~+	c #C5BD6B",
"{+	c #D8D38A",
"]+	c #E1DD97",
"^+	c #E5DE99",
"/+	c #E6E19C",
"(+	c #E6E09C",
"_+	c #E3DF9B",
":+	c #D3CE81",
"<+	c #CBC477",
"[+	c #B2AC4E",
"}+	c #A19C45",
"|+	c #9B9539",
"1+	c #979133",
"2+	c #7D7C6D",
"3+	c #959595",
"4+	c #B4B178",
"5+	c #BCB95E",
"6+	c #E7E39D",
"7+	c #E9E7A1",
"8+	c #EAE6A4",
"9+	c #E9E5A1",
"0+	c #E8E49E",
"a+	c #D6D288",
"b+	c #D4D182",
"c+	c #ABA64D",
"d+	c #9F993F",
"e+	c #989234",
"f+	c #878455",
"g+	c #838383",
"h+	c #A5A5A5",
"i+	c #DBD78D",
"j+	c #E2DE96",
"k+	c #EDE8A3",
"l+	c #EEEAA6",
"m+	c #EDE7A3",
"n+	c #EBE6A1",
"o+	c #99943B",
"p+	c #928D3A",
"q+	c #757575",
"r+	c #989898",
"s+	c #B8B69E",
"t+	c #E3E199",
"u+	c #EBE8A1",
"v+	c #EFEDA7",
"w+	c #F3EFAB",
"x+	c #E2DC98",
"y+	c #C9C475",
"z+	c #999335",
"A+	c #948E30",
"B+	c #777667",
"C+	c #8A8A8A",
"D+	c #AAAAAA",
"E+	c #B4B182",
"F+	c #D8D588",
"G+	c #D7D189",
"H+	c #7D7B5B",
"I+	c #7D7D7D",
"J+	c #A2A2A2",
"K+	c #B2AE6C",
"L+	c #D6D088",
"M+	c #E1DC97",
"N+	c #E7E39F",
"O+	c #EBE69F",
"P+	c #E7E19D",
"Q+	c #E2DF96",
"R+	c #DEDA92",
"S+	c #D7D287",
"T+	c #D4CF82",
"U+	c #A6A048",
"V+	c #98933A",
"W+	c #979135",
"X+	c #85834D",
"Y+	c #747474",
"Z+	c #AFAA59",
"`+	c #D5CF87",
" @	c #DCD88E",
".@	c #E2E096",
"+@	c #DCD990",
"@@	c #938D2F",
"#@	c #8B863F",
"$@	c #6D6D6D",
"%@	c #8E8E8E",
"&@	c #AEAEAE",
"*@	c #A9A24F",
"=@	c #BAB75E",
"-@	c #9E983E",
";@	c #928D2E",
">@	c #8D8833",
",@	c #696969",
"'@	c #A9A9A9",
")@	c #A39B49",
"!@	c #D0CB7A",
"~@	c #D4CF86",
"{@	c #9B963D",
"]@	c #959033",
"^@	c #938D2D",
"/@	c #908A2A",
"(@	c #666666",
"_@	c #818181",
":@	c #A59D49",
"<@	c #D3D081",
"[@	c #C5C26B",
"}@	c #989236",
"|@	c #959031",
"1@	c #928C2C",
"2@	c #8E8828",
"3@	c #636363",
"4@	c #7C7C7C",
"5@	c #A19C49",
"6@	c #B7B157",
"7@	c #C0BD66",
"8@	c #CCC976",
"9@	c #928C2A",
"0@	c #626262",
"a@	c #797979",
"b@	c #A39E4D",
"c@	c #ADA74D",
"d@	c #989232",
"e@	c #928B28",
"f@	c #8C8730",
"g@	c #616161",
"h@	c #787878",
"i@	c #A8A354",
"j@	c #BEB964",
"k@	c #C3BD65",
"l@	c #B2AC4C",
"m@	c #9A9436",
"n@	c #979131",
"o@	c #908A28",
"p@	c #86823A",
"q@	c #ACA864",
"r@	c #8E8826",
"s@	c #817D47",
"t@	c #B0AD7A",
"u@	c #B5AD53",
"v@	c #999337",
"w@	c #918B2D",
"x@	c #8D8723",
"y@	c #787654",
"z@	c #808080",
"A@	c #B4B39A",
"B@	c #B7B153",
"C@	c #BAB25A",
"D@	c #B7B353",
"E@	c #ACA64A",
"F@	c #A19C47",
"G@	c #9E9742",
"H@	c #8B8521",
"I@	c #6C6D5D",
"J@	c #9D9847",
"K@	c #C3C069",
"L@	c #B4B050",
"M@	c #958F31",
"N@	c #89862B",
"O@	c #5F5F5F",
"P@	c #A9A567",
"Q@	c #9A933C",
"R@	c #8F8925",
"S@	c #8C8620",
"T@	c #7D7A49",
"U@	c #B2B196",
"V@	c #918B2B",
"W@	c #8F8927",
"X@	c #8C8622",
"Y@	c #89821D",
"Z@	c #6D6C5D",
"`@	c #656565",
" #	c #A09D54",
".#	c #8B851F",
"+#	c #817D3B",
"@#	c #5E5E5E",
"##	c #6A6A6A",
"$#	c #ACA98A",
"%#	c #9F9743",
"&#	c #8E8824",
"*#	c #89821B",
"=#	c #6E6D5A",
"-#	c #9E9858",
";#	c #999339",
">#	c #9E9942",
",#	c #A7A24B",
"'#	c #88811C",
")#	c #7E7A40",
"!#	c #ADAD9D",
"~#	c #969034",
"{#	c #A5A04B",
"]#	c #87811D",
"^#	c #68665E",
"/#	c #A3A277",
"(#	c #88821A",
"_#	c #747256",
":#	c #9B985F",
"<#	c #9C963A",
"[#	c #8D8725",
"}#	c #7A7648",
"|#	c #7A7A7A",
"1#	c #ABABAB",
"2#	c #939055",
"3#	c #878119",
"4#	c #7D7A41",
"5#	c #909090",
"6#	c #918E53",
"7#	c #89831F",
"8#	c #717171",
"9#	c #8B8B8B",
"0#	c #908E5A",
"a#	c #948E2E",
"b#	c #89831B",
"c#	c #868018",
"d#	c #7A7748",
"e#	c #707070",
"f#	c #888888",
"g#	c #8F8D69",
"h#	c #908A2C",
"i#	c #8A841E",
"j#	c #857F1B",
"k#	c #747254",
"l#	c #A3A3A3",
"m#	c #8D8E80",
"n#	c #88854A",
"o#	c #938D29",
"p#	c #878017",
"q#	c #7E7A3E",
"r#	c #67665D",
"s#	c #82806C",
"t#	c #878341",
"u#	c #8C8624",
"v#	c #8A8420",
"w#	c #857F17",
"x#	c #807C38",
"y#	c #6F6D59",
"z#	c #7C7B6C",
"A#	c #817E4D",
"B#	c #89832B",
"C#	c #88821E",
"D#	c #837D23",
"E#	c #7C7846",
"F#	c #6C6B5C",
"G#	c #747264",
"H#	c #7A7856",
"I#	c #807D44",
"J#	c #847F34",
"K#	c #868026",
"L#	c #86801E",
"M#	c #847F24",
"N#	c #827E32",
"O#	c #777551",
"P#	c #6C6A5C",
"Q#	c #6B6B6B",
"                                                                                                            ",
"                                                                                                            ",
"                                                                                                            ",
"                                                                                                            ",
"                                          . + @ # $ % & * = - ; > ,                                         ",
"                                    . ' ) ! ~ ~ ~ ~ ~ { ] ] ^ / ( _ : < [                                   ",
"                                } | ~ 1 2 3 4 4 4 4 3 5 2 1 ~ 6 7 8 9 0 a b c                               ",
"                            d e ~ 2 3 f g g g h i h j g k f 3 2 l m n o _ a p q r                           ",
"                          s t 1 3 f g i u v w x x y y w u i g z 3 1 A 7 o _ B p C D                         ",
"                        E ! 2 4 g h w F G H I I I J K K G F u i g 4 2 ! 7 o _ a p L M N                     ",
"                      e { O 4 g u y G I P Q R R S R T U P I G F u j V 2 { 7 ( W X Y Z `  .                  ",
"                    ..{ 2 4 j +.F I P R @.#.$.%.%.$.$.#.@.R &.I G u j 4 2 { & ( B p *.=.-.;.                ",
"                  >.] 1 4 j u ,.I '.).#.%.!.~.{.].{.~.^./.$.).U I G u j 4 1 ] 8 _ a (.Z _.:.;.              ",
"                <.7 ~ 3 g [.G I R @.}.|.].1.2.3.3.3.2.4.5.!./.6.R J G 7.g 3 ~ ^ ( 8.9.*.0.a.b.;.            ",
"              c.d.A e.k i F f.'.6.%.~.4.3.g.h.i.i.i.j.k.3.4.~.%.6.l.I m.i n.e.] o._ a (.p.q.r.s. .          ",
"              t.^ ! 3 g u G P )./.~.1.u.j.v.w.x.y.z.A.v.j.u.B.{./.C.P D.u E.3 ~ ^ 9 8.p L F.G.H.I.N         ",
"            J.8 ] 1 z i F I S $.!.4.u.i.A.K.L.M.M.N.L.O.A.i.u.4.!.#.P.I x i z 1 ] ( 0 Q.*.R.S.T.U.V.        ",
"            W./ 6 X.Y.7.G Z.).`.].3.j. +.+++@+#+#+@+$+++%+&+h.3.5.*+@.P G u g O A & _ =+-+p.;+T.>+,+'+      ",
"          )+!+& { X.g w ~+U #.!.B.k.{+.+N.]+^+/+(+/+_+@+M..+v.k.:+!.<+U D.w g 3 { * [+a Y }+q.|+1+2+3+      ",
"          4+[+^ ~ 5+j w f.R $.~.2.j.A.L.$+_+6+7+8+9+0+_+$+L.A.a+b+~.$.R I x j 3 ~ ^ ( c+(.}+d+|+e+f+g+h+    ",
"          : 9 7 1 4 j F I S /.5.3.i.i+M.j+/+9+k+l+m+n+/+j+M.i+i.3.]./.P.I x h 4 ~ ^ 9 B p Z q.o+e+p+q+r+    ",
"        s+B [+^ 1 4 j F &.S %.].3.i.y.N.t+6+u+v+w+l+8+6+x+N.K.i.3.5.$.y+&.y h 4 ~ ^ ( B (.Z _.o+z+A+B+C+D+  ",
"        E+B [+7 ~ 4 h F I R $.].3.F+x.M.#+/+9+k+v+k+n+/+j+M.x.G+3.5.$.y+I F i 4 ~ * ( B (.Z _.|+z+A+H+I+J+  ",
"        K+B [+^ ~ 4 j x I R $.~.2.L+A.L.M+^+N+9+u+O+P+_+Q+R+A.S+T+~.$.R K x j 4 ~ ^ [+B U+}+q.V+W+A+X+Y+r+  ",
"        Z+a [+& { 3 g w H '.#.!.4.`+{+ @M..@^+/+6+/+^+@+N.+@{+k.:+^.#.l.K u g 3 ! & _ B Y }+q.|+1+@@#@$@%@&@",
"        *@X _ & ] O k u G &.).*+5.3.j.A..+N.$+#+x+j+@+M..+A.j.3.5.%.).P G u k =@A 8 _ =+-+p.-@T.1+;@>@,@,+'@",
"        )@Q.0 o ] 1 z h F I R #.!@1.~@i.A.y.L.M.M.M.R+ @A.i.u.4.!.#.R I F h 4 1 ] o 0 Q.*.R.{@T.]@^@/@(@_@'+",
"        L :@B ( ^ ~ 3 g w D.&.S %.{.<@~@j.&+A.x.i+i+A.v.j.u.:+~.%.S P [@+.j 3 ~ 7 ( B p Z F.G.}@|@1@2@3@4@;.",
"        5@Y a _ 8 6@2 z 7@m.K '.6.%.~.4.3.g.j.G+i.j.S+`+3.4.~.%.8@U I y 7.z 2 6@& _ a Y }+q.o+z+A+9@2@0@a@J+",
"        b@*.Q.8.( 7 ~ 3 g u ,.I Q 6.$.~.5.:+2.3.3.3.2.1.5.!.}.6.'.I F u g 3 ~ 7 ( c@Q.*.=.a.T.d@;@e@f@g@h@J+",
"        i@Z U+a _ 8 ] 1 4 j@+.G I Q ).#.`.!.~.{.5.].~.!.`.#.@.'.I ,.k@j 4 1 A 8 l@a (.Z _.G.m@n@1@o@p@0@a@J+",
"        q@0.*.p c@( & A 2 4 j w F f.&.R ).<+$.$.$.$.$.#.).R &.I ,.+.j V 2 ! ^ [+8.Q.*.0.a.T.1+A+9@r@s@3@4@;.",
"        t@_.}+(.a 0 ( u@{ 2 f j u y D.I &.U R S S R R '.&.I [@F u g f 2 ! 7 o W a -+Z _.G.v@]@w@e@x@y@(@z@'+",
"        A@a.R.L p a _ o B@! C@4 g h w F G D.I I &.I I K G y w i g 4 e.{ D@o _ E@p F@G@{@T.e+@@9@r@H@I@,@,+'@",
"          J@-@p.*.Q.a _ o ^ A 1 3 k g i 7.w K@F F x x w u h g z 3 1 { ^ L@[+a p *.0.q.o+z+M@w@o@x@N@O@$@%@&@",
"          P@Q@d+p.*.p B _ o * ] ~ C@3 f k g j j i j j g Y.f 3 2 ~ A & o _ a p *.p.q.Q@v@1+@@9@R@S@T@g@Y+r+  ",
"          U@T.{@_.}+*.p a W ( 8 7 ] ~ 1 O 3 3 4 4 4 3 O 2 1 ~ 6@^ 8 9 0 a p *.}+F.{@T.e+A+V@W@X@Y@Z@`@I+J+  ",
"             #T.{@F.p.*.p X 8.[+o 8 7 7 A { ~ ~ ~ l ~ ! ] ] ^ & ( _ 8.=+(.*.}+F.{@T.W+|@1@o@x@.#+#@###C+D+  ",
"            $#e+T.{@_.0.F@Y Q.a 8._ [+( & n ^ 7 7 7 ^ & 8 o ( _ 8.a Q.Y L %#_.{@T.W+|@w@/@&#S@*#=#0@q+r+    ",
"              -#e+;#G.-@>#}+*.(.Q.a B 0 _ !+( [+[+9 [+[+_ 0 B a ,#(.*.}+R.q.G.T.e+|@w@/@R@H@'#)#@#,@g+h+    ",
"              !#~#e+v@o+a._.=.Z *.Y p ,#a a B B B B a a =+Q.{#Y *.}+0.F.a.o+v@e+|@^@/@R@H@Y@]#^#0@q+3+      ",
"                /#@@1+z+T.G.-@F.R.}+F@*.*.Y U+p :@U+U+Y Y *.L }+R._.a.G.T.z+1+A+1@/@R@H@Y@(#_#O@##,+h+      ",
"                  :#;@n@e+v@T.G.a.q.F.R.p.}+}+Z }+Z }+}+p.=.F.q.a.<#V+v@1+M@;@V@e@[#H@Y@(#}#@#(@|#V.        ",
"                  1#2#w@A+]@e+m@T.|+G.{@a.q.d+_._._.q.q.;+a.G.|+T.}@e+M@A+w@/@W@&#S@'#3#4#@#3@Y+5#1#        ",
"                     .6#9@^@A+M@1+W+m@T.T.|+|+o+o+o+V+V+T.T.}@e+]@n@@@^@V@o@r@X@7#'#3#4#@#0@8#9# .          ",
"                      ;.0#o@9@1@a#A+n@]@1+e+z+W+e+z+z+e+1+]@|@A+a#1@9@e@r@x@S@Y@b#c#d#@#0@e#f#;.            ",
"                        ;.g#2@2@e@V@V@^@a#;@@@A+A+A+@@@@;@^@h#9@/@o@R@x@H@i#*#3#j#k#@#3@8#f#l#              ",
"                          ;.m#n#&#r@W@o@e@/@o#9@9@9@/@/@e@o@W@R@&#X@.#i#*#3#p#q#r#O@(@Y+9#;.                ",
"                             .I.s#t#H@X@x@u#[#&#[#R@&#&#u#X@H@v#i#'#b#3#w#x#y#@#0@##|#5# .                  ",
"                              N V.,+z#A#B#i#i#7#7#7#.#i#C#'#*#b#3#p#D#E#F#@#0@,@q+,+V.1#                    ",
"                                  '+3+g+q+G#H#I#J#K#]#(#L#M#N#4#O#P#O@g@`@Q#q+g+3+'+                        ",
"                                      h+r+C+I+q+$@,@(@3@0@0@0@3@(@,@$@Y+I+C+r+h+                            ",
"                                          D+J+r+%@,+_@4@a@h@a@4@_@,+%@r+J+D+                                ",
"                                                &@'@'+;.l#J+l#;.'+'@&@                                      "};
