/* XPM */
static char *yellow_destroy3[] = {
"36 36 65 1",
"  c black",
". c #7e7f71",
"X c #957d30",
"o c #a97e1f",
"O c #a87a28",
"+ c #8c7d59",
"@ c #977b48",
"# c #887d66",
"$ c #857b70",
"% c #c67800",
"& c #e25c00",
"* c #eb7800",
"= c #f77c04",
"- c #948731",
"; c #ae8c37",
": c #b49d2a",
"> c #8a8358",
", c #93874b",
"< c #858366",
"1 c #8a8171",
"2 c #aa964d",
"3 c #b8a850",
"4 c #d3930d",
"5 c #ddb10c",
"6 c #d1b533",
"7 c #eb8601",
"8 c #eb9704",
"9 c #e49512",
"0 c #f98808",
"q c #ff8b13",
"w c #fa960a",
"e c #fe9714",
"r c #ff9e23",
"t c #eeaf08",
"y c #f9a70a",
"u c #fea915",
"i c #f8b70b",
"p c #feb916",
"a c #efb336",
"s c #ffa926",
"d c #fdb926",
"f c #ca9c46",
"g c #ceb250",
"h c #d0bd65",
"j c #f0b648",
"k c #f8cf18",
"l c #ffc619",
"z c #edd727",
"x c #fec725",
"c c #f8cd31",
"v c #ffd828",
"b c #ffe82b",
"n c #ffe735",
"m c #fff32f",
"M c #fff638",
"N c #d8cc54",
"B c #dbcd62",
"V c #f7d350",
"C c #f2d968",
"Z c #ffea45",
"A c #fee957",
"S c #fff547",
"D c #fff657",
"F c #f9eb69",
"G c None",
"GGGGGGGGGGGGGGGGGGGGGGGGGGGGGGGGGGGG",
"GGGGGGGGGGGGGGGGGGGGGGGGGGGGGGGGGGGG",
"GGGGGGGGGGGGGGGGGGGGGGGGGGGGGGGGGGGG",
"GGGGGGGGGGGGG+X-65zz66-,#GGGGGGGGGGG",
"GGGGGGGGGGGGG@3ADSMSSDFB2>1GGGGGGGGG",
"GGGGGGGGGGGG+oaxttplxvDDFN-<GGGGGGGG",
"GGGGGGGGGGG>;cxtlipit5ivDDB2<GGGGGGG",
"GGGGGGGGG#,:zMmvllvbbbt8xnDC-#GGGGGG",
"GGGGGGG#@-fVnmkly8ivvpu7ukmDN,GGGGGG",
"GGGGGG#;jaseuxyuw07w707s7lvSDg,#GGGG",
"GGGGG#@jxy077w70000e0q=*7uikDA-<GGGG",
"GGGGG@gZiw*qs77wwyww0e00seupZZN>GGGG",
"GGGG+:Zlpee00wuyppuwew00q7u8iSF>GGGG",
"GGG#,Vnppe*qeeudppypyywq0*wyiMD2#GGG",
"GGG@3Smtueq0ewsuppilyyu0qq0ylbDh+GGG",
"GGG-BSbxe=q0wwuylxllppue0qewplDBXGGG",
"GGG-NMbuqqqweuyxitlllpwe0=*wytAC-GGG",
"GGGXCDkw00=wuduplkklilu0e0qwyxDC-GGG",
"GGG-CDvu7=qpywuvlikvxiue0q=uxkDF-GGG",
"GGGXNDkp0=0yiyxytiiilyuuq=quykDC-GGG",
"GGG,hDMlwr0ypyuyppipppweq=*0yvDB-GGG",
"GGG+,Anpuq=0wwyylliyuw707=qwimDh>GGG",
"GGGG>6Zpue*0w0wuypl8usqeqeeuxSD2<GGG",
"GGGG>;Avpqqq=qww88uwwqq=0*0yvSV>1GGG",
"GGGG#-Vxlw**q=qewweew==eqeutnAg>GGGG",
"GGGGG@;cly7q=&q08uywe=q0eq04SC2#GGGG",
"GGGGG#@axdde*qq8cvvpu*qqq*7nDh,1GGGG",
"GGGGGG+;Vc88eupvkbMMb8w07uZSV,$GGGGG",
"GGGGGGG@fAx8pxlvvSbMbp8e9ADN-<GGGGGG",
"GGGGGGG#,gVZt4tu9cxxxp8dAFB,>.GGGGGG",
"GGGGGGGG#@;6VVj4%%444VVCg3,<GGGGGGGG",
"GGGGGGGGG$+,2;jjjaVVjf2@+<<1GGGGGGGG",
"GGGGGGGGGGGG1@O;4444o@+$GGGGGGGGGGGG",
"GGGGGGGGGGGGGGGGGGGGGGGGGGGGGGGGGGGG",
"GGGGGGGGGGGGGGGGGGGGGGGGGGGGGGGGGGGG",
"GGGGGGGGGGGGGGGGGGGGGGGGGGGGGGGGGGGG"
};
