/* XPM */
static char * yellow_jump1_xpm[] = {
"54 54 446 2",
"  	c None",
". 	c #CCCBBA",
"+ 	c #C9C7A3",
"@ 	c #C7C591",
"# 	c #C4C184",
"$ 	c #C3BF79",
"% 	c #C2BD72",
"& 	c #C1BC6D",
"* 	c #C1BC6F",
"= 	c #C1BC75",
"- 	c #C1BD7F",
"; 	c #C3C18B",
"> 	c #C5C39D",
", 	c #C8C7B6",
"' 	c #C7C597",
") 	c #C5C17B",
"! 	c #C4C074",
"~ 	c #C5C075",
"{ 	c #C4BF74",
"] 	c #C2BE72",
"^ 	c #C2BD6E",
"/ 	c #C1BE6D",
"( 	c #BFBA6B",
"_ 	c #BDB869",
": 	c #BDB86F",
"< 	c #C0BE8E",
"[ 	c #C7C6B3",
"} 	c #CBCAB3",
"| 	c #C5C18B",
"1 	c #C6C176",
"2 	c #C7C277",
"3 	c #C7C37B",
"4 	c #C8C37A",
"5 	c #C7C57B",
"6 	c #C3C173",
"7 	c #C2BD70",
"8 	c #C0BB6C",
"9 	c #BEB96C",
"0 	c #BCB768",
"a 	c #BAB564",
"b 	c #BAB77C",
"c 	c #C1C0A9",
"d 	c #CCCCC2",
"e 	c #C7C491",
"f 	c #C8C37C",
"g 	c #CAC57E",
"h 	c #CBC781",
"i 	c #CCC780",
"j 	c #CBC67F",
"k 	c #C9C47D",
"l 	c #C5C375",
"m 	c #C4BF70",
"n 	c #C2BF6E",
"o 	c #B8B360",
"p 	c #B8B47E",
"q 	c #C1C2B6",
"r 	c #C9C7A9",
"s 	c #C5C077",
"t 	c #CDC983",
"u 	c #CDC985",
"v 	c #CEC984",
"w 	c #CECA86",
"x 	c #CFCA85",
"y 	c #C9C47B",
"z 	c #C3BF73",
"A 	c #BBB665",
"B 	c #B6B05E",
"C 	c #B8B596",
"D 	c #C7C599",
"E 	c #CFCB87",
"F 	c #D0CC88",
"G 	c #D1CE89",
"H 	c #D1CD8B",
"I 	c #D2D08A",
"J 	c #D0CC8A",
"K 	c #B7B25B",
"L 	c #B2AF82",
"M 	c #C0C0C0",
"N 	c #C6C27A",
"O 	c #D3CF8D",
"P 	c #D4D290",
"Q 	c #D4D090",
"R 	c #D5D191",
"S 	c #D4CF90",
"T 	c #D3CF8F",
"U 	c #C9C67B",
"V 	c #BDB867",
"W 	c #BAB562",
"X 	c #B7B25D",
"Y 	c #B7B259",
"Z 	c #AFAD77",
"` 	c #BBBBBB",
" .	c #C6C390",
"..	c #CECB84",
"+.	c #D6D292",
"@.	c #D7D395",
"#.	c #D8D496",
"$.	c #D9D597",
"%.	c #D2CE8C",
"&.	c #B6B15C",
"*.	c #B7B153",
"=.	c #ADAB75",
"-.	c #B8B8B8",
";.	c #C6C398",
">.	c #CFC987",
",.	c #D4D08E",
"'.	c #D5D193",
").	c #D9D699",
"!.	c #DAD79A",
"~.	c #DAD79C",
"{.	c #DBD79B",
"].	c #D9D499",
"^.	c #D8D498",
"/.	c #B8B25E",
"(.	c #B7B14F",
"_.	c #AAA87A",
":.	c #C8C6A8",
"<.	c #CCC884",
"[.	c #D8D396",
"}.	c #DAD89A",
"|.	c #DCD79E",
"1.	c #DDDAA1",
"2.	c #DEDBA2",
"3.	c #DCD99E",
"4.	c #DCD89C",
"5.	c #D6D294",
"6.	c #CCC882",
"7.	c #BCB766",
"8.	c #B8B160",
"9.	c #B8B254",
"0.	c #B8B14A",
"a.	c #A5A385",
"b.	c #CCCBC0",
"c.	c #C0BB70",
"d.	c #C5C179",
"e.	c #D1CD89",
"f.	c #DFDCA5",
"g.	c #E1DFA7",
"h.	c #E2DEA6",
"i.	c #E1DEA7",
"j.	c #E0DDA4",
"k.	c #D3CE8F",
"l.	c #CEC886",
"m.	c #C8C27C",
"n.	c #B7B155",
"o.	c #B7B14D",
"p.	c #B6B048",
"q.	c #A1A197",
"r.	c #DFDCA3",
"s.	c #E3DFA7",
"t.	c #E4E2AA",
"u.	c #E5E3AB",
"v.	c #E5E1AD",
"w.	c #E4DFAC",
"x.	c #E4E0AA",
"y.	c #DCD9A0",
"z.	c #D6D492",
"A.	c #CBC67D",
"B.	c #B8B250",
"C.	c #B7B147",
"D.	c #A6A268",
"E.	c #A5A5A5",
"F.	c #C9C8B1",
"G.	c #E6E4AC",
"H.	c #E7E3AF",
"I.	c #E8E5B2",
"J.	c #E5E0AD",
"K.	c #D5D391",
"L.	c #B9B461",
"M.	c #B8B252",
"N.	c #B7B049",
"O.	c #B7B043",
"P.	c #999883",
"Q.	c #AEAEAE",
"R.	c #C1BE83",
"S.	c #C7C379",
"T.	c #CAC57C",
"U.	c #D2CE8E",
"V.	c #D9D697",
"W.	c #E3DEA9",
"X.	c #E6E2AE",
"Y.	c #E9E5B3",
"Z.	c #EAE5B6",
"`.	c #EBE8B7",
" +	c #EAE6B6",
".+	c #EBE7B5",
"++	c #E6E3AE",
"@+	c #E3DFA9",
"#+	c #D8D398",
"$+	c #B9B463",
"%+	c #B7B15D",
"&+	c #B7B14B",
"*+	c #A6A25E",
"=+	c #9A9A9A",
"-+	c #BABABA",
";+	c #CAC8B6",
">+	c #BDB86B",
",+	c #D0CA88",
"'+	c #E2DEA8",
")+	c #EAE7B6",
"!+	c #EDE9B9",
"~+	c #EEEBBC",
"{+	c #EEEABC",
"]+	c #ECE9BA",
"^+	c #DDDA9F",
"/+	c #D6D194",
"(+	c #BEB96A",
"_+	c #B7B157",
":+	c #B8B144",
"<+	c #B4AD3E",
"[+	c #919081",
"}+	c #A9A9A9",
"|+	c #C3C091",
"1+	c #C8C57A",
"2+	c #EFECBD",
"3+	c #F1EFC1",
"4+	c #F2EFC4",
"5+	c #F1EEC1",
"6+	c #F0EDBE",
"7+	c #E0DDA6",
"8+	c #DEDCA0",
"9+	c #BAB566",
"0+	c #B8B24E",
"a+	c #B5AE3F",
"b+	c #9E9B66",
"c+	c #979797",
"d+	c #B9B9B9",
"e+	c #E5E1AB",
"f+	c #EBE8B5",
"g+	c #F3F1C5",
"h+	c #F4F2C8",
"i+	c #F3EFC5",
"j+	c #F2EFC2",
"k+	c #B6B046",
"l+	c #AFA845",
"m+	c #898989",
"n+	c #ACACAC",
"o+	c #C9C7B5",
"p+	c #ECEAB8",
"q+	c #F2F0C2",
"r+	c #F5F4C9",
"s+	c #F8F6CE",
"t+	c #EBE7B7",
"u+	c #D4D092",
"v+	c #B6AF40",
"w+	c #B3AB39",
"x+	c #8C8B7A",
"y+	c #9E9E9E",
"z+	c #BEBEBE",
"A+	c #C3C19B",
"B+	c #E2E0A6",
"C+	c #E1DDA7",
"D+	c #94916C",
"E+	c #919191",
"F+	c #B6B6B6",
"G+	c #C0BC86",
"H+	c #E0DCA6",
"I+	c #EFECBF",
"J+	c #F2EFC0",
"K+	c #EFEBBD",
"L+	c #EBE9B5",
"M+	c #E8E4B0",
"N+	c #E1DEA5",
"O+	c #DEDBA0",
"P+	c #B8B35E",
"Q+	c #B5AF45",
"R+	c #B4AE40",
"S+	c #9F9C5B",
"T+	c #888888",
"U+	c #BCB874",
"V+	c #DFDBA5",
"W+	c #E6E2AC",
"X+	c #E6E4AE",
"Y+	c #B2AA38",
"Z+	c #A6A14C",
"`+	c #818181",
" @	c #A2A2A2",
".@	c #C2C2C2",
"+@	c #B8B268",
"@@	c #C6C47A",
"#@	c #B8B24C",
"$@	c #B1AA37",
"%@	c #AAA43E",
"&@	c #7D7D7D",
"*@	c #BDBDBD",
"=@	c #B7AF5D",
"-@	c #DAD798",
";@	c #DEDBA4",
">@	c #B8B148",
",@	c #B3AC3D",
"'@	c #B2AB36",
")@	c #AFA733",
"!@	c #7A7A7A",
"~@	c #959595",
"{@	c #B8B05E",
"]@	c #DDDB9F",
"^@	c #D0CE88",
"/@	c #B5AE41",
"(@	c #B4AD3A",
"_@	c #B1AA35",
":@	c #AEA630",
"<@	c #777777",
"[@	c #909090",
"}@	c #B5B05D",
"|@	c #C3BE73",
"1@	c #CCC982",
"2@	c #D7D593",
"3@	c #B1A933",
"4@	c #767676",
"5@	c #8D8D8D",
"6@	c #B5B163",
"7@	c #BBB667",
"8@	c #B6AF3C",
"9@	c #B1A931",
"0@	c #AAA33A",
"a@	c #757575",
"b@	c #8C8C8C",
"c@	c #B7B26D",
"d@	c #CAC680",
"e@	c #CEC982",
"f@	c #BEB968",
"g@	c #B7B041",
"h@	c #B5AE3B",
"i@	c #B0A830",
"j@	c #A29D46",
"k@	c #BAB77E",
"l@	c #AEA62E",
"m@	c #9A9656",
"n@	c #BFBC93",
"o@	c #C1BA6F",
"p@	c #B6AF42",
"q@	c #B0A936",
"r@	c #ADA62B",
"s@	c #908D64",
"t@	c #949494",
"u@	c #C5C4B1",
"v@	c #C3BE6F",
"w@	c #C6BF76",
"x@	c #C3C06F",
"y@	c #BBB663",
"z@	c #B6B15A",
"A@	c #B7AE51",
"B@	c #ABA429",
"C@	c #828270",
"D@	c #B4AF58",
"E@	c #CFCC85",
"F@	c #C0BD6C",
"G@	c #B3AC3B",
"H@	c #A7A335",
"I@	c #737373",
"J@	c #B8B480",
"K@	c #B7AE47",
"L@	c #AFA72D",
"M@	c #ADA527",
"N@	c #969258",
"O@	c #C3C2AD",
"P@	c #B0A934",
"Q@	c #AFA72F",
"R@	c #ACA52A",
"S@	c #AAA224",
"T@	c #83826F",
"U@	c #797979",
"V@	c #B1AF6B",
"W@	c #ACA426",
"X@	c #9C9748",
"Y@	c #727272",
"Z@	c #7E7E7E",
"`@	c #BDBAA1",
" #	c #B7AF53",
".#	c #AFA833",
"+#	c #AEA62C",
"@#	c #AAA222",
"##	c #84826C",
"$#	c #AFAA6F",
"%#	c #B6AF44",
"&#	c #B7B151",
"*#	c #B8B362",
"=#	c #A9A123",
"-#	c #98944E",
";#	c #BFC0B2",
">#	c #B3AC3F",
",#	c #B7B261",
"'#	c #A8A024",
")#	c #7D7A71",
"!#	c #B3B28F",
"~#	c #AAA220",
"{#	c #8B8867",
"]#	c #ACA976",
"^#	c #B9B245",
"/#	c #ADA62D",
"(#	c #938E57",
"_#	c #8E8E8E",
":#	c #BFBFBF",
"<#	c #A8A468",
"[#	c #A9A11F",
"}#	c #98934E",
"|#	c #A4A4A4",
"1#	c #A7A365",
"2#	c #AAA226",
"3#	c #858585",
"4#	c #9F9F9F",
"5#	c #A4A26E",
"6#	c #B3AC37",
"7#	c #ABA321",
"8#	c #A8A01E",
"9#	c #938F57",
"0#	c #848484",
"a#	c #9C9C9C",
"b#	c #A19F7F",
"c#	c #ADA631",
"d#	c #AFA835",
"e#	c #ABA325",
"f#	c #A79F21",
"g#	c #8B8965",
"h#	c #B7B7B7",
"i#	c #A0A096",
"j#	c #A29E58",
"k#	c #B2AA32",
"l#	c #A9A11D",
"m#	c #99944B",
"n#	c #7C7A70",
"o#	c #969480",
"p#	c #A29D4E",
"q#	c #ACA42C",
"r#	c #AAA328",
"s#	c #A79F1D",
"t#	c #9B9645",
"u#	c #85836B",
"v#	c #908F80",
"w#	c #9A965C",
"x#	c #A7A135",
"y#	c #A9A125",
"z#	c #A29B2C",
"A#	c #959155",
"B#	c #82816E",
"C#	c #898777",
"D#	c #928F66",
"E#	c #9B9651",
"F#	c #A09B40",
"G#	c #A59E2F",
"H#	c #A7A025",
"I#	c #A49D2C",
"J#	c #9F993D",
"K#	c #8F8C61",
"L#	c #82806E",
"M#	c #7F7F7F",
"                                                                                                            ",
"                                                                                                            ",
"                                                                                                            ",
"                                                                                                            ",
"                                          . + @ # $ % & * = - ; > ,                                         ",
"                                    . ' ) ! ~ ~ ~ ~ ~ { ] ] ^ / ( _ : < [                                   ",
"                                } | ~ 1 2 3 4 4 4 4 3 5 2 1 ~ 6 7 8 9 0 a b c                               ",
"                            d e ~ 2 3 f g g g h i h j g k f 3 2 l m n ( _ a o p q                           ",
"                          r s 1 3 f g i t u v w w x x v t i g y 3 1 z 7 ( _ A o B C                         ",
"                        D ! 2 4 g h v E F G H H H I J J F E t i g 4 2 ! 7 ( _ a o K L M                     ",
"                      e { N 4 g t x F H O P Q Q R Q S T O H F E t j U 2 { 7 ( V W X Y Z `                   ",
"                     .{ 2 4 j ..E H O Q +.@.#.$.$.#.#.@.+.Q %.H F t j 4 2 { & ( A o &.*.=.-.                ",
"                  ;.] 1 4 j t >.H ,.'.@.$.).!.~.{.~.!.].^.#.'.T H F t j 4 1 ] 8 _ a /.Y (._.-.              ",
"                :.7 ~ 3 g <.F H Q +.[.}.{.|.1.2.2.2.1.3.4.).^.5.Q I F 6.g 3 ~ ^ ( 7.8.&.9.0.a.-.            ",
"              b.c.z d.k i E e.,.5.$.!.3.2.f.g.h.h.h.i.j.2.3.!.$.5.k.H l.i m.d.] 8 _ a /.n.o.p.q.`           ",
"              | ^ ! 3 g t F O '.^.!.|.r.i.s.t.u.v.w.x.s.i.r.y.~.^.z.O F t A.3 ~ ^ 9 7.o K B.C.D.E.M         ",
"            F.8 ] 1 y i E H R #.).3.r.h.x.G.H.I.I.I.H.J.x.h.r.3.).@.K.H w i y 1 ] ( 0 L.&.M.N.O.P.Q.        ",
"            R./ 6 S.T.6.F U.'.V.{.2.i.W.X.Y.Z.`.`. +.+Y.++@+g.2.4.#++.O F t g N z & _ $+%+n.&+O.*+=+-+      ",
"          ;+>+& { S.g v ,+T @.).y.j.'+X.I.)+!+~+{+~+]+ +I.X.s.j.^+)./+T F v g 3 { * (+a X _+o.:+<+[+}+      ",
"          |+(+^ ~ 1+j v e.Q #.!.1.i.x.H..+]+2+3+4+5+6+]+.+H.x.7+8+!.#.Q H w j 3 ~ ^ ( 9+/._+0+:+a+b+c+d+    ",
"          : 9 7 1 4 j E H R ^.4.2.h.e+I.f+~+5+g+h+i+j+~+f+I.e+h.2.{.^.K.H w h 4 ~ ^ 9 A o Y o.k+a+l+m+n+    ",
"        o+A (+^ 1 4 j E %.R $.{.2.h.v.I.p+2+q+r+s+h+4+2+t+I.G.h.2.4.#.u+%.x h 4 ~ ^ ( A /.Y (.k+v+w+x+y+z+  ",
"        A+A (+7 ~ 4 h E H Q #.{.2.B+u.I.`.~+5+g+r+g+j+~+f+I.u.C+2.4.#.u+H E i 4 ~ * ( A /.Y (.:+v+w+D+E+F+  ",
"        G+A (+^ ~ 4 j w H Q #.!.1.H+x.H.)+!+I+5+q+J+K+]+L+M+x.N+O+!.#.Q J w j 4 ~ ^ (+A P+_+o.Q+R+w+S+T+n+  ",
"        U+a (+& { 3 g v G ,.@.).3.V+'+W+I.L+!+~+2+~+!+ +I.X+'+j.^+].@.k.J t g 3 ! & _ A X _+o.:+<+Y+Z+`+ @.@",
"        +@W _ & ] N k t F %.'.#+4.2.i.x.X.I..+`.t+f+Z.I.X.x.i.2.4.$.'.O F t k @@z 8 _ $+%+n.#@O.<+$@%@&@=+*@",
"        =@L.0 ( ] 1 y h E H Q @.-@|.;@h.x.v.H.I.I.I.M+W+x.h.r.3.).@.Q H E h 4 1 ] ( 0 L.&.M.>@O.,@'@)@!@~@-+",
"        K {@A ( ^ ~ 3 g v F %.R $.~.]@;@i.@+x.u.e+e+x.s.i.r.^+!.$.R O ^@..j 3 ~ 7 ( A o Y B.C./@(@_@:@<@[@-.",
"        }@X a _ 8 |@2 y 1@l.J ,.5.$.!.3.2.f.i.C+h.i.N+V+2.3.!.$.2@T H x 6.y 2 |@& _ a X _+o.k+v+w+3@:@4@5@F+",
"        6@&.L.7.( 7 ~ 3 g t >.H P 5.#.!.4.^+1.2.2.2.1.|.4.).[.5.,.H E t g 3 ~ 7 ( 7@L.&.*.0.O.8@$@9@0@a@b@F+",
"        c@Y P+a _ 8 ] 1 4 d@..F H P '.@.V.).!.~.4.{.!.).V.@.+.,.H >.e@j 4 1 z 8 f@a /.Y (.C.g@h@_@i@j@4@5@F+",
"        k@9.&.o 7@( & z 2 4 j v E e.%.Q './+#.#.#.#.#.@.'.Q %.H >...j U 2 ! ^ (+7.L.&.9.0.O.<+w+3@l@m@<@[@-.",
"        n@(._+/.a 0 ( o@{ 2 f j t x F H %.T Q R R Q Q ,.%.H ^@E t g f 2 ! 7 ( V a %+Y (.C.p@,@q@9@r@s@!@t@-+",
"        u@0.M.K o a _ ( v@! w@4 g h v E F F H H %.H H J F x v i g 4 d.{ x@( _ y@o z@A@>@O.a+Y+3@l@B@C@&@=+*@",
"          D@#@n.&.L.a _ ( ^ z 1 3 k g i 6.v E@E E w w v t h g y 3 1 { ^ F@(+a o &.9.o.k+v+G@q@i@r@H@I@`+ @.@",
"          J@K@0+n.&.o A _ ( * ] ~ w@3 f k g j j i j j g T.f 3 2 ~ z & ( _ a o &.n.o.K@p@<+Y+3@L@M@N@a@T+n+  ",
"          O@O.>@(._+&.o a V ( 8 7 ] ~ 1 N 3 3 4 4 4 3 N 2 1 ~ |@^ 8 9 0 a o &._+B.>@O.a+w+P@Q@R@S@T@U@E+F+  ",
"            V@O.>@B.n.&.o W 7.(+( 8 7 7 z { ~ ~ ~ l ~ ! ] ] ^ & ( _ 7.$+/.&._+B.>@O.R+(@_@i@r@W@X@Y@Z@y+z+  ",
"            `@a+O.>@(.9.z@X L.a 7._ (+( & n ^ 7 7 7 ^ & 8 ( ( _ 7.a L.X K  #(.>@O.R+(@q@.#+#M@@###4@m+n+    ",
"              $#a+%#C.#@&#_+&./.L.a A 0 _ >+( (+(+9 (+(+_ 0 A a *#/.&._+M.o.C.O.a+(@q@.#L@B@=#-#Y@&@c+d+    ",
"              ;#>#a+p@k+0.(.*.Y &.X o *#a a A A A A a a $+L.,#X &._+9.B.0.k+p@a+(@'@.#L@B@S@'#)#4@m+}+      ",
"                !#Y+<+v+O.C.#@B.M._+z@&.&.X P+o {@P+P+X X &.K _+M.(.0.C.O.v+<+w+_@.#L@B@S@~#{#I@Z@=+d+      ",
"                  ]#$@h@a+p@O.C.0.o.B.M.n._+_+Y _+Y _+_+n.*.B.o.0.^#Q+p@<+G@$@P@9@/#B@S@~#(#Y@!@_#Q.        ",
"                  :#<#q@w+,@a+g@O.:+C.>@0.o.0+(.(.(.o.o.&+0.C.:+O./@a+G@w+q@.#Q@+#M@=#[#}#Y@<@T+|#:#        ",
"                    ` 1#3@'@w+G@<+R+g@O.O.:+:+k+k+k+Q+Q+O.O./@a+,@h@Y+'@P@i@l@R@2#=#[#}#Y@4@3#4#`           ",
"                      -.5#i@3@_@6#w+h@,@<+a+v+R+a+v+v+a+<+,@(@w+6#_@3@9@l@r@M@S@7#8#9#Y@4@0#a#-.            ",
"                        -.b#c#:@9@P@P@'@6#$@Y+w+w+w+Y+Y+$@'@d#3@.#i@L@r@B@e#@#[#f#g#Y@<@3#a#h#              ",
"                          -.i#j#+#l@Q@i@9@.#k#3@3@3@.#.#9@i@Q@L@+#R@W@e#@#[#l#m#n#I@!@T+4#-.                ",
"                            ` E.o#p#B@R@r@q#/#+#/#L@+#+#q#R@B@r#e#=#7#[#s#t#u#Y@4@Z@_#|#`                   ",
"                              M Q.=+v#w#x#e#e#2#2#2#W@e#y#=#@#7#[#l#z#A#B#Y@4@&@m+=+Q.:#                    ",
"                                  -+}+c+m+C#D#E#F#G#'#~#H#I#J#}#K#L#I@a@U@M#m+c+}+-+                        ",
"                                      d+n+y+E+m+`+&@!@<@4@4@4@<@!@&@`+T+E+y+n+d+                            ",
"                                          z+F+n+ @=+~@[@5@b@5@[@~@=+ @n+F+z+                                ",
"                                                .@*@-+-.h#F+h#-.-+*@.@                                      "};
