/* XPM */
static char * break1des9_xpm[] = {
"60 60 48 1",
" 	c None",
".	c #CBCACA",
"+	c #CDCDCC",
"@	c #CDCCCC",
"#	c #CDCCCB",
"$	c #CBCBCA",
"%	c #CBCBCB",
"&	c #CACACA",
"*	c #CCCCCB",
"=	c #C9C9C9",
"-	c #D7CBCB",
";	c #D5CACA",
">	c #CBCCCB",
",	c #CBCBCD",
"'	c #CBCBCC",
")	c #CBCCD0",
"!	c #CACACB",
"~	c #CCCCCC",
"{	c #CECDCC",
"]	c #CFCCCC",
"^	c #CECDCA",
"/	c #DDD9C9",
"(	c #DBD8CA",
"_	c #CDCDCB",
":	c #CACAC9",
"<	c #D6D4CA",
"[	c #DEDAC9",
"}	c #D0CFCA",
"|	c #D0CFCB",
"1	c #CDCCCA",
"2	c #CFCECC",
"3	c #C9C9CA",
"4	c #CECDC9",
"5	c #D5D3CA",
"6	c #DCD8C9",
"7	c #DDD9CA",
"8	c #D2D1CA",
"9	c #D7D6CA",
"0	c #D9D7C9",
"a	c #DAD8C9",
"b	c #DCD9C9",
"c	c #E1E0C9",
"d	c #E1DDC9",
"e	c #E2E1C9",
"f	c #E2E0C9",
"g	c #E0DEC9",
"h	c #DDDACA",
"i	c #DFDECC",
"                                                            ",
"                                                            ",
"                                                            ",
"                                                            ",
"                                                            ",
"                                                            ",
"                                                            ",
"                                                            ",
"                                                            ",
"                                                            ",
"                                                            ",
"                                                            ",
"                                                            ",
"                                                            ",
"                                                            ",
"                                                            ",
"                           .      ++ @                      ",
"                                   #+$####$                 ",
"                                   ++$ %$&*                 ",
"                                    #$&&&$       $  &       ",
"                                     &===$                  ",
"                                     &====                  ",
"                   *          #      &====                  ",
"                   *          .=% -;>$,'),                  ",
"                   %         +*!~{]  +   ~                  ",
"                   $         *    *>.$$%%*                  ",
"                   $        @^/(_@       :                  ",
"                   $         <[/}!      $~                  ",
"                   $         |^1====~ #+%                   ",
"                   *           %==:=====                    ",
"                   +            *@    +                     ",
"                  %                              &          ",
"                  *                    +                    ",
"                  +              *.===&%  $                 ",
"                 %           ~.        $  =                 ",
"                 $           %=        &  =                 ",
"                 *                     *  =                 ",
"                 +              &:                          ",
"                #                                           ",
"                %                                           ",
"                $                                           ",
"                %              {                            ",
"                *              +                            ",
"                $+             *                            ",
"                $ +           +$                            ",
"                %#++         +*+                   2        ",
"                 $* ++{ +  ++%3                             ",
"                  $$+ ++++#%&3|                             ",
"                   ~.$$!333:4567                            ",
"                      *890ab///cc                           ",
"                       deeeeefgh                            ",
"                           igcc                             ",
"                                                            ",
"                                                            ",
"                                                            ",
"                                                            ",
"                                                            ",
"                                                            ",
"                                                            ",
"                                                            "};
