/* XPM */
static char * break1des1_xpm[] = {
"60 60 232 2",
"  	c None",
". 	c #DFDACB",
"+ 	c #DBD6C8",
"@ 	c #D7D4C9",
"# 	c #A2A19E",
"$ 	c #737270",
"% 	c #8D8D8C",
"& 	c #868583",
"* 	c #959593",
"= 	c #9B9995",
"- 	c #9F9C90",
"; 	c #A3A095",
"> 	c #AAAAA9",
", 	c #A3A3A3",
"' 	c #ADADAE",
") 	c #B1B1B0",
"! 	c #C0C0C0",
"~ 	c #C5C5C5",
"{ 	c #C6C3BA",
"] 	c #C4C2BA",
"^ 	c #C5C4C1",
"/ 	c #C3C3C3",
"( 	c #9C9B9A",
"_ 	c #272522",
": 	c #44423D",
"< 	c #535352",
"[ 	c #4B4B4B",
"} 	c #51504D",
"| 	c #3E3B35",
"1 	c #3A3834",
"2 	c #464543",
"3 	c #4B4A46",
"4 	c #504E4B",
"5 	c #565655",
"6 	c #6F6D6A",
"7 	c #F1F1F1",
"8 	c #7B7A79",
"9 	c #82827F",
"0 	c #777671",
"a 	c #787776",
"b 	c #B1AFAB",
"c 	c #918F8C",
"d 	c #514E47",
"e 	c #676663",
"f 	c #71706F",
"g 	c #979795",
"h 	c #666461",
"i 	c #3A3830",
"j 	c #2C2925",
"k 	c #2D2923",
"l 	c #ECECEC",
"m 	c #B8B8B8",
"n 	c #BEBDBA",
"o 	c #BBBBBC",
"p 	c #696867",
"q 	c #423E36",
"r 	c #3E3E3B",
"s 	c #302F2C",
"t 	c #282726",
"u 	c #201F1F",
"v 	c #333029",
"w 	c #5E5B53",
"x 	c #CDCDCC",
"y 	c #BCBBB7",
"z 	c #4F4F4F",
"A 	c #626160",
"B 	c #5F5E5C",
"C 	c #5B5B59",
"D 	c #49463F",
"E 	c #67645C",
"F 	c #24221E",
"G 	c #5E5C58",
"H 	c #737168",
"I 	c #818182",
"J 	c #A7A6A3",
"K 	c #9F9E9D",
"L 	c #161616",
"M 	c #858174",
"N 	c #423F3A",
"O 	c #898884",
"P 	c #7F7E7C",
"Q 	c #585755",
"R 	c #484743",
"S 	c #909090",
"T 	c #1D1C1A",
"U 	c #B4B4B3",
"V 	c #36322A",
"W 	c #7B7971",
"X 	c #6C6C6B",
"Y 	c #F2F1EC",
"Z 	c #A8A7A4",
"` 	c #302D27",
" .	c #3C423B",
"..	c #9B3028",
"+.	c #872525",
"@.	c #27302A",
"#.	c #292D3C",
"$.	c #282B38",
"%.	c #30385A",
"&.	c #33312E",
"*.	c #232429",
"=.	c #363534",
"-.	c #454239",
";.	c #513930",
">.	c #464B5E",
",.	c #4C5573",
"'.	c #424A6C",
").	c #363430",
"!.	c #554F3D",
"~.	c #F7F7F3",
"{.	c #494126",
"].	c #CFA916",
"^.	c #BB9E23",
"/.	c #423C2C",
"(.	c #1E1D1C",
"_.	c #7D7B79",
":.	c #F5F5F5",
"<.	c #A7A69E",
"[.	c #947D20",
"}.	c #DDB615",
"|.	c #D4B017",
"1.	c #5E5122",
"2.	c #B5B1A5",
"3.	c #574E2B",
"4.	c #3C3623",
"5.	c #807C71",
"6.	c #D0CDC8",
"7.	c #8C8B87",
"8.	c #D3D1CB",
"9.	c #B6B6B2",
"0.	c #B4B4B4",
"a.	c #6D6A61",
"b.	c #848172",
"c.	c #3D3A31",
"d.	c #918E86",
"e.	c #94938D",
"f.	c #797568",
"g.	c #605E55",
"h.	c #EFECE4",
"i.	c #8D866F",
"j.	c #958B69",
"k.	c #A8A083",
"l.	c #555146",
"m.	c #887F65",
"n.	c #79715B",
"o.	c #7B786A",
"p.	c #84837E",
"q.	c #B1A377",
"r.	c #B9AB80",
"s.	c #B1A271",
"t.	c #D1C8AB",
"u.	c #A29A7D",
"v.	c #A39978",
"w.	c #8F8463",
"x.	c #7F765B",
"y.	c #767161",
"z.	c #D6D7D9",
"A.	c #8B877D",
"B.	c #91886B",
"C.	c #A49770",
"D.	c #B3A67C",
"E.	c #BCAE81",
"F.	c #BFB184",
"G.	c #BBAE84",
"H.	c #B7A879",
"I.	c #D7D2C0",
"J.	c #9E9471",
"K.	c #857A5C",
"L.	c #8B8678",
"M.	c #888067",
"N.	c #A09570",
"O.	c #B0A47D",
"P.	c #D9D6CC",
"Q.	c #92896D",
"R.	c #AD9F78",
"S.	c #BBAD82",
"T.	c #988F74",
"U.	c #A79E7E",
"V.	c #8A8267",
"W.	c #B1AEA3",
"X.	c #908B79",
"Y.	c #9D9374",
"Z.	c #BAAC83",
"`.	c #958C72",
" +	c #6F6957",
".+	c #565344",
"++	c #9B9582",
"@+	c #4C4636",
"#+	c #C7BFA3",
"$+	c #181821",
"%+	c #88888B",
"&+	c #6E6753",
"*+	c #A79E83",
"=+	c #AEA583",
"-+	c #BEBBB3",
";+	c #B9B195",
">+	c #645E4B",
",+	c #7B7661",
"'+	c #26221C",
")+	c #433A1B",
"!+	c #8A741D",
"~+	c #C5A215",
"{+	c #CFB026",
"]+	c #E5DBAE",
"^+	c #746C54",
"/+	c #59533F",
"(+	c #79704E",
"_+	c #9C8E61",
":+	c #C3BEAD",
"<+	c #6B601F",
"[+	c #968C22",
"}+	c #A79719",
"|+	c #B9A31D",
"1+	c #C8A81C",
"2+	c #F8EB18",
"3+	c #E8D787",
"4+	c #A59D82",
"5+	c #D0C5A5",
"6+	c #E4DEC9",
"7+	c #F1D11A",
"8+	c #FBFA15",
"9+	c #FAF118",
"0+	c #EFDB18",
"a+	c #CFB61F",
"b+	c #DED341",
"c+	c #DFD7AC",
"d+	c #E6D479",
"e+	c #E6D352",
"f+	c #E4D535",
"g+	c #F4EF16",
"h+	c #D5C367",
"i+	c #E7DFC0",
"                                                                                                                        ",
"                                                                                                                        ",
"                                                                                                                        ",
"                                                                                                                        ",
"                                                                                                                        ",
"                                                                                                                        ",
"                                                                                                                        ",
"                                                                                                                        ",
"                                                                                                                        ",
"                                                                                                                        ",
"                                                                                                                        ",
"                                                                                                                        ",
"                                                                                                                        ",
"                                                                                                                        ",
"                                                                    . + @ @ @                                           ",
"                                                    # $ % % & % * = - ; > , > > ' ' ) ' ! ~ { { ] { ] { ^ / /           ",
"                                                    ( _ : < [ < < } | | : 1 2 3 4 } 5 6 7 # 8 9 9 8 0 a a a %           ",
"                                            b c 9 % % d 2 e f f a g h i | j i i i i k d l ~ m n ! ~ ~ ! ~ / o           ",
"                                        ^ } 2 [ [ [ 3 : : [ e p f ( * | q j r s t u v w l x o m m ) > > g ' y           ",
"                                        r z A A A B C z : D C 6 f = # E i t u F F t 4 G l n ) m , t H I u J n           ",
"                                      a r A C 8 f C C C [ : } p f g K & D u L L L j < 4 7 o b ' , B M c 6 # n           ",
"                                      N [ C C O P C C A Q : R h $ g K S 0 u T L L L 3 < 7 U & S S ( = ( # ' /           ",
"                                    ! V < C C a f C C C Q : i 5 f c % W f u L L L L d X Y ^ m ) ) ) ) ) ' ' !           ",
"                                    Z v [ Q A f A C C Q < D _ T `  ...+.@.k #.$.%.#.2 C Y ] ) ' ' > ' ' ' ' !           ",
"                                    ( ` [ 5 A f C C Q < 3 q &.*.=.-.;.N 2 q >.,.'.=.3 w 7 o ' > , , ( g c > /           ",
"                                    , k 3 5 e f C 5 < [ : ).!.3 < D ).@._ t j ` ` v } p ~.> O S c * = > > ) ~           ",
"                                    # k R < e e C < < 3 1 {.].^./.1 [ 3 3 [ : 3 2 (.} _.:.! ' ) ) ) m p Q ) ~           ",
"                                    <.k D < e A C < z [ r [.}.|.1.*.r 2 A A [ 4 t =.A _.:.2.) > ' ' ) C C ) x           ",
"                                    S j D < e e C C C < : 3.{.4.L L L T =.r i | s X h 5.7 > ' , # * * * ; ) 6.          ",
"                                    a v R < p 8 A C C 5 r z r s L L (.L L L L L Q P C W :.; 7.c = > , > > b 8.          ",
"                                    d | [ 5 e % f C C < : 3 3 2 ).1 R R d r q : p 8 G 9 7 m ' ) , p Z 2 B 9.            ",
"                                  m ` 3 z C C I $ 5 C z z < < < Q } >.< y 9.>.3 p 8 G & 7 ) > 0.a u > A 8 )             ",
"                                  a V < < C C A p h C < z < < 5 < < < < a.b.3 c.E a Q O l Z > # c % S # , U             ",
"                                  D | [ 5 C C C h $ a a $ p C Q C )._ T L L F s p < k % l ( S ( > m o ! / 9.            ",
"                                n ` 3 [ < C C A e G C } : =._ d 8 P p 3  .3 2 j h [ L & l o ~ ~ ~ / / ! o )             ",
"                                c j R z 5 C C f & a C } : s T A % * * * * ( P u p < L S 7 o / ! ! ! ^ ! m )             ",
"                                e v 3 [ < C C X % & A C Q [ R p a M d.e.7.7.7.).A 0 L S 7 o ! ! ! ! ! o o o 6.          ",
"                                3 c.3 [ z 5 C A 8 6 C C < [ : f.u (.g.% ( = ( P h 8 3 # h.o / ! ^ ^ ! b # c i.j.k.+     ",
"                                i : [ [ < 5 C e 0 e C C < z r H 3 l.m.n.o.5.9 = * g h , h.! / o > = p.b.5.j.q.r.s.t.    ",
"                              o s r [ [ < 5 C p a p C C 5 < r B a j.u.v.j.w.x.y.o.9 p.y z.c A.W o.B.C.D.E.F.G.G.H.I.    ",
"                              # k D 3 3 < < Q p $ h C C < < : 3 8 m.v.u.u.u.u.J.j.K.n.A.L.M.N.O.E.F.G.E.r.r.r.r.H.P.    ",
"                              e.` D 3 [ < 5 C h f A C C < [ D -.f Q.v.u.u.u.u.u.u.u.v.R.H.F.G.S.r.r.r.r.r.r.r.G.q.+     ",
"                              % v : [ 3 z < C A p B g.Q < [ R c.h T.N.u.u.u.u.u.u.u.U.G.S.r.r.r.r.r.r.r.r.G.F.E.G.      ",
"                              = j | 2 3 [ < 5 C A C C } >.3 : ).l.v.N.v.u.u.u.u.u.u.U.r.r.r.r.r.r.r.E.F.F.O.V.W.        ",
"                              ) j : q R [ z < 5 < 5 < < [ N | t 3 b.X.Y.v.u.u.u.u.u.U.Z.Z.r.r.S.G.F.D.`. +.+w *         ",
"                              ) s i q q : 3 [ [ [ [ [ 2 : | v | 6 B $ & d.++u.k.u.u.U.Z.S.G.r.r.k.o.!.@+n.v.#+          ",
"                              , A k ).r | | -.: | : r q | ` $+P   b S & P %+0 &+X.*+=+F.O.u.++& a _.= -++               ",
"                              ) I A j j c.r | c.q c.i s u $+3.;+        > S W >+!.>+,+ +.+X %+, ~                       ",
"                                ( _.h =._ t t *.$+$+$+'+)+!+~+{+]+          b v.i.^+/+(+_+:+                            ",
"                                  6., p.B : v <+[+}+|+1+|.|.].2+2+3+          + ;+4+S.5+6+                              ",
"                                          x Z.7+8+8+8+8+8+9+0+a+b+c+                                                    ",
"                                                ]+d+e+f+0+g+g+h+                                                        ",
"                                                          i+]+                                                          ",
"                                                                                                                        ",
"                                                                                                                        ",
"                                                                                                                        ",
"                                                                                                                        ",
"                                                                                                                        ",
"                                                                                                                        ",
"                                                                                                                        "};
