/* XPM */
static char * break5_xpm[] = {
"60 60 245 2",
"  	c None",
". 	c #E5E5E4",
"+ 	c #CDCBC6",
"@ 	c #E1E3EF",
"# 	c #7F7F82",
"$ 	c #34322C",
"% 	c #191711",
"& 	c #555553",
"* 	c #C3C3C3",
"= 	c #EDEBE5",
"- 	c #B0B0B0",
"; 	c #4E546E",
"> 	c #2C2C2B",
", 	c #0D0D0B",
"' 	c #100F0D",
") 	c #151513",
"! 	c #13120E",
"~ 	c #686764",
"{ 	c #D5D5D4",
"] 	c #9C9B97",
"^ 	c #24221C",
"/ 	c #080705",
"( 	c #0A0906",
"_ 	c #6C6A66",
": 	c #DDDDDC",
"< 	c #6D6C6A",
"[ 	c #171816",
"} 	c #1E1D1A",
"| 	c #73716D",
"1 	c #A5A5A4",
"2 	c #484846",
"3 	c #1A160F",
"4 	c #252116",
"5 	c #413E37",
"6 	c #52514E",
"7 	c #C2BFB6",
"8 	c #787775",
"9 	c #252523",
"0 	c #020202",
"a 	c #636057",
"b 	c #A3A29E",
"c 	c #C3C2BE",
"d 	c #8D8C8A",
"e 	c #9D9D9C",
"f 	c #888888",
"g 	c #94938E",
"h 	c #CDCDCC",
"i 	c #DFDAC9",
"j 	c #DED9C7",
"k 	c #D7D3C7",
"l 	c #DBD7CB",
"m 	c #D6D7D9",
"n 	c #ECE6DC",
"o 	c #858583",
"p 	c #7D7C7A",
"q 	c #999588",
"r 	c #9D9A8E",
"s 	c #A8A8A9",
"t 	c #BCBBB6",
"u 	c #C4C1B6",
"v 	c #BDBDBD",
"w 	c #949492",
"x 	c #444443",
"y 	c #3C3C3B",
"z 	c #43423E",
"A 	c #464236",
"B 	c #2D2A23",
"C 	c #353027",
"D 	c #292723",
"E 	c #413F3B",
"F 	c #484845",
"G 	c #63625E",
"H 	c #F4F4F4",
"I 	c #B1B0AD",
"J 	c #898783",
"K 	c #383838",
"L 	c #585754",
"M 	c #656463",
"N 	c #29251E",
"O 	c #1D1A13",
"P 	c #EEEEEE",
"Q 	c #B5B5B5",
"R 	c #B9B8B3",
"S 	c #3C3A36",
"T 	c #363633",
"U 	c #5B5A55",
"V 	c #5D5C5A",
"W 	c #2D291E",
"X 	c #312D24",
"Y 	c #211E15",
"Z 	c #4A4946",
"` 	c #F0F1F1",
" .	c #B8B8B9",
"..	c #90908D",
"+.	c #4D4D4B",
"@.	c #393733",
"#.	c #514F4A",
"$.	c #615E54",
"%.	c #F2F0EA",
"&.	c #ACACAB",
"*.	c #70706E",
"=.	c #5B5C64",
"-.	c #8F8A7C",
";.	c #888061",
">.	c #404040",
",.	c #565349",
"'.	c #7B7A74",
").	c #E5E4E0",
"!.	c #807E79",
"~.	c #757573",
"{.	c #4F4F50",
"].	c #3A415F",
"^.	c #323D66",
"/.	c #1B1C23",
"(.	c #605F5D",
"_.	c #211F19",
":.	c #F5F3EE",
"<.	c #A1A09D",
"[.	c #FAF9F6",
"}.	c #B2B1AF",
"|.	c #393011",
"1.	c #CFA503",
"2.	c #A38403",
"3.	c #F8F8F8",
"4.	c #8C730C",
"5.	c #DEB200",
"6.	c #D6AD03",
"7.	c #524514",
"8.	c #ABAAA5",
"9.	c #4C411A",
"0.	c #3B300E",
"a.	c #231D0C",
"b.	c #767265",
"c.	c #8C8B86",
"d.	c #D2D0C9",
"e.	c #89867D",
"f.	c #D5D3CD",
"g.	c #77715E",
"h.	c #3A3527",
"i.	c #83827E",
"j.	c #999896",
"k.	c #C0C0C0",
"l.	c #312F2A",
"m.	c #7B7767",
"n.	c #6E6A5C",
"o.	c #857D63",
"p.	c #8E825D",
"q.	c #A19774",
"r.	c #DBD6C6",
"s.	c #D9D8D5",
"t.	c #68665C",
"u.	c #807656",
"v.	c #6E664D",
"w.	c #716D5E",
"x.	c #716E66",
"y.	c #F1EEE5",
"z.	c #AD9D6C",
"A.	c #B5A676",
"B.	c #AD9C66",
"C.	c #D0C6A6",
"D.	c #897F5F",
"E.	c #9D926D",
"F.	c #928661",
"G.	c #877B56",
"H.	c #756B4D",
"I.	c #6B6654",
"J.	c #A8996D",
"K.	c #B9A977",
"L.	c #BCAC7B",
"M.	c #B8A97B",
"N.	c #D7D1BD",
"O.	c #7F7558",
"P.	c #9C9373",
"Q.	c #978C66",
"R.	c #7C704E",
"S.	c #827E73",
"T.	c #827D6D",
"U.	c #7F765B",
"V.	c #9A8D65",
"W.	c #AB9E73",
"X.	c #B6A779",
"Y.	c #B3A36F",
"Z.	c #8A8061",
"`.	c #B8A878",
" +	c #918769",
".+	c #81785A",
"++	c #ADA99D",
"@+	c #88826E",
"#+	c #958C6D",
"$+	c #AFA072",
"%+	c #635D49",
"&+	c #484434",
"*+	c #948E78",
"=+	c #A39A79",
"-+	c #47402C",
";+	c #9E9064",
">+	c #C5BC9D",
",+	c #77787B",
"'+	c #625B44",
")+	c #A19879",
"!+	c #A99F79",
"~+	c #BBB8AF",
"{+	c #03030D",
"]+	c #473D15",
"^+	c #57503C",
"/+	c #716B54",
"(+	c #0D0E19",
"_+	c #060512",
":+	c #332906",
"<+	c #816909",
"[+	c #C39C00",
"}+	c #CEAB12",
"|+	c #E7DCAD",
"1+	c #B1AD9F",
"2+	c #696045",
"3+	c #4B442E",
"4+	c #6E643F",
"5+	c #958654",
"6+	c #C1BBA8",
"7+	c #5F530B",
"8+	c #8F840E",
"9+	c #A29004",
"0+	c #B59D08",
"a+	c #C6A307",
"b+	c #D3A802",
"c+	c #FBED03",
"d+	c #EAD77E",
"e+	c #B5AD8D",
"f+	c #CFC39F",
"g+	c #E5DEC7",
"h+	c #F4D005",
"i+	c #FFFD00",
"j+	c #FEF303",
"k+	c #F1DB03",
"l+	c #CEB20B",
"m+	c #DED230",
"n+	c #E4D7A1",
"o+	c #F0EBDC",
"p+	c #E7D36F",
"q+	c #E7D243",
"r+	c #E5D523",
"s+	c #F1E207",
"t+	c #F7F101",
"u+	c #D4C15B",
"v+	c #E8E0BD",
"                                                                                                                        ",
"                                                                                                                        ",
"                                                                                                                        ",
"                                                                                                                        ",
"                                . +                                                                                     ",
"                            @ # $ % & *                                                                                 ",
"                      = - ; > , ' ) , ! ~                                                                               ",
"                { ] & ^ / ( , ) ) ) ) ) / _ .                                                                           ",
"          : < $ ) / / ' [ ) [ ) % ) ) ) [ ( } | .                                                                       ",
"            1 2 , / ) [ ) ) , / / , ( ! 3 4 5 6 7                                                                       ",
"                + 8 9 0 / , $ a b c d _ e +                                                                             ",
"                    . f g h                                                                                             ",
"                                                                                                                        ",
"                                                                                                                        ",
"                                                              . . . i j k k l m { : : : : . . n =                       ",
"                                                    ] < o o p o d g q r e e b 1 b s s s t * c u 7 u 7 u v * *           ",
"                                                    w ! $ x y z x A B C $ D $ 5 E 5 F G H e < 8 8 | < < < < o           ",
"                                            I J 8 o o 5 K L ~ M < w 6 N B ) D ^ N D O 5 P * Q R v * * * * * v           ",
"                                        c S 9 K y y y $ T y U V M w d W X } D O ) ' Y Z ` h  .Q Q s b 1 ..s Q           ",
"                                      h , , > +.6 6 +.x $ @.#.$.~ w e U W ' , ) ' ! 5 6 %.t &.I e ) G 8 , e t           ",
"                                      V , x & *.~ +.+.+.y 4 @.=.$.| -.;.C , 0 0 0 3 z >.H R s &.e ,.'.o a ] t           ",
"                                    ).} y +.+.!.~.+.+.{.2 B ].^.O % @.y 6 [ 0 0 0 0 y 2 H I p J f w g w ] s *           ",
"                                    t Y x +.+.< G +.+.+.x y /.% } @.$ @.M 9 , ( / , A (.H c Q &.&.&.&.&.s &.v           ",
"                                    b _.x 2 6 M & +.+.+.x $ 4 ^ ^ B } 5 X 9 > 4 } ) y +.:.7 &.s 1 1 s s s s v           ",
"                                    w O y 2 6 M 6 +.2 x @.C ! 0 / W D ) , ! } % % % 5 Z H Q s <.e ] w d f e *           ",
"                                    ] 3 @.2 U M +.2 x y $ 9 O 0 , z y D y T ^ ^ 9 ( S (.[.1 o f d d w 1 b }.*           ",
"                                    ] 3 @.2 U V 2 x x y D |.1.2.Y z < ]  .: e y T , z | 3.t s &.&.&.Q V Z &.*           ",
"                                    b % $ x V 6 +.x x y > 4.5.6.7./.| !.v . I 6 ! 9 L | [.8.&.1 s s &.+.#.&.h           ",
"                                    f O $ x V V +.+.+.x $ 9.0.a.0 0 0 , x U z > [ V L b.[.b s <.] w c.d g &.d.          ",
"                                    _ O @.x V | 6 +.{.2 D 0 0 / 0 > L > ' ( > > F ~.+.b.[.] e.f g e e 1 b I d.          ",
"                                    A B y x L o ~ +.+.x D ^ 9 > D #.!.w I * v 1 U *.+.8 3.&.s &.e V b K +.Q f.          ",
"                                  Q Y @.x 2 {.8 ~ +.2 x x 2 2 x 2 x K E v ). .d U ~.#.!.H s 1 - < , 1 L *.&.{           ",
"                                  _ 4 >.x +.+.6 G L +.x x >.x 2 x x 2 x U g.6 h.L < Z i.:.e 1 j.d o d w e &.m           ",
"                                  @.B z 2 +.+.{.L ~ < < ~ V +.2 +.^ ) / 0 0 ( % (.z 3 o P w d w <.Q t k.* Q :           ",
"                                t % @.z x +.+.6 U +.+.z $ 9 ! E *.| U y > @.L D 6 y 0 p P t * * * * v v Q &.:           ",
"                                J O @.y 2 +.{.G p _ +.x l.} ( 6 o d d d d w 8 , V x 0 f H  .v v v v v v Q &..           ",
"                                V Y @.y x +.{.=.o p L +.+.y @.V < m.e.J e.!.!.9 L ~ 0 f H  .v v v v v t t Q h =         ",
"                                S D y y x +.+.& | G +.+.x y $ n., , ,.o w g w | & | S ] = Q v * * c v 8.] J o.p.q.r.    ",
"                              s.N C K y z x +.L < U +.+.x >.> t.@.A u.v.w.x.8 w g d L e y.t * Q b g '.w.b.p.z.A.B.C.    ",
"                              t } $ y y x 2 +.V < U +.+.x x > 6 < D.q.E.F.G.H.I.x.8 8 R m f p b.w.D.J.A.K.L.M.M.A.N.    ",
"                              ] 3 @.S y x x +.U < L +.+.x x $ S < O.E.P.P.P.P.Q.p.R.v.S.T.U.V.W.A.L.L.M.A.A.A.X.Y.l     ",
"                              c.O @.@.y x x +.U M L +.+.x y @.C M Z.E.P.P.P.P.P.P.E.E.J.Y.L.M.`.X.A.A.A.A.A.A.X.z.j     ",
"                              o O C y @.x x +.6 L {.6 2 x y T B U  +V.P.P.P.P.P.P.P.q.M.M.A.A.A.A.A.A.A.A.K.L.K.M..     ",
"                              g O X T y y x x #.6 +.2 x y y C ^ A E.V.E.P.P.P.P.P.P.q.A.A.A.A.A.A.A.M.L.L.W..+++        ",
"                              &.% C X T y >.x 2 2 2 x x y $ X ) y m.@+#+E.P.P.P.P.P.q.`.A.A.A.`.M.L.$+F.%+&+Z d         ",
"                              &.} N X X $ y y y y y y K C X O B G 6 ~ p e.*+P.=+P.P.q.A.K.M.A.A.=+w.-+h.v.;+>+          ",
"                              e L ) 9 B B X C C $ C B X X O , ,+%.8.f p ~.# _ '+@+)+!+L.!+P.*+p < | g ~+r.y.            ",
"                              &.p 6 ) ) D B B B B W ^ } {+{+]+!+      { s o x.^+-+^+/+%+&+(.# e * %.                    ",
"                                w | L 9 ' ) ) (+_+{+{+! :+<+[+}+|+          1+#+o.2+3+4+5+6+                            ",
"                                  d.e p 6 $ 4 7+8+9+0+a+b+b+1.c+c+d+          r.e+)+`.f+g+                              ",
"                                        : h A.h+i+i+i+i+i+j+k+l+m+n+              =                                     ",
"                                              o+n+p+q+r+s+t+t+u+                                                        ",
"                                                        n v+|+o+                                                        ",
"                                                                                                                        ",
"                                                                                                                        ",
"                                                                                                                        ",
"                                                                                                                        ",
"                                                                                                                        ",
"                                                                                                                        ",
"                                                                                                                        "};
