/* XPM */
static char * break1des3_xpm[] = {
"60 60 226 2",
"  	c None",
". 	c #AFAFAC",
"+ 	c #8B8A88",
"@ 	c #9F9F9E",
"# 	c #9A9998",
"$ 	c #A5A5A4",
"% 	c #AAA8A6",
"& 	c #ADABA1",
"* 	c #B0AEA6",
"= 	c #B6B6B5",
"- 	c #B0B0B0",
"; 	c #B8B8B9",
"> 	c #BBBBBA",
", 	c #C7C7C7",
"' 	c #CBCBCB",
") 	c #CCC9C2",
"! 	c #CAC8C2",
"~ 	c #CBCAC7",
"{ 	c #C9C9C9",
"] 	c #ABAAA9",
"^ 	c #4F4E4C",
"/ 	c #666561",
"( 	c #727271",
"_ 	c #6C6C6B",
": 	c #70706D",
"< 	c #625F5B",
"[ 	c #5F5D5A",
"} 	c #686766",
"| 	c #6B6B68",
"1 	c #706E6C",
"2 	c #757573",
"3 	c #878684",
"4 	c #EDEDED",
"5 	c #91918F",
"6 	c #969694",
"7 	c #8E8D8A",
"8 	c #8E8E8D",
"9 	c #BBB9B6",
"0 	c #A2A19E",
"a 	c #706E69",
"b 	c #82807E",
"c 	c #8A8987",
"d 	c #A7A7A5",
"e 	c #807F7D",
"f 	c #5F5D56",
"g 	c #54514E",
"h 	c #54514C",
"i 	c #E9E9E9",
"j 	c #C0C0C0",
"k 	c #C5C5C2",
"l 	c #C3C3C4",
"m 	c #838381",
"n 	c #64625B",
"o 	c #62625F",
"p 	c #565654",
"q 	c #51504F",
"r 	c #4A4A4A",
"s 	c #595751",
"t 	c #7A7872",
"u 	c #D1D1D0",
"v 	c #C4C3C0",
"w 	c #6F6F6F",
"x 	c #7E7D7C",
"y 	c #7C7B79",
"z 	c #787877",
"A 	c #6A6862",
"B 	c #817F79",
"C 	c #4D4C49",
"D 	c #7A7976",
"E 	c #8B8A83",
"F 	c #959596",
"G 	c #B3B2B0",
"H 	c #ADADAB",
"I 	c #434343",
"J 	c #99958C",
"K 	c #65625F",
"L 	c #9C9B98",
"M 	c #949392",
"N 	c #767573",
"O 	c #696966",
"P 	c #A1A1A1",
"Q 	c #484745",
"R 	c #BEBEBD",
"S 	c #5B5852",
"T 	c #918F8A",
"U 	c #858585",
"V 	c #EEEDE9",
"W 	c #B4B4B1",
"X 	c #56544F",
"Y 	c #60655F",
"Z 	c #AA5651",
"` 	c #9A4E4E",
" .	c #4F5752",
"..	c #515460",
"+.	c #51535D",
"@.	c #565D77",
"#.	c #757574",
"$.	c #595855",
"%.	c #4C4D51",
"&.	c #5B5B5A",
"*.	c #67645D",
"=.	c #705D57",
"-.	c #686B7A",
";.	c #6D738B",
">.	c #656B85",
",.	c #5B5A56",
"'.	c #746F61",
").	c #F1F1EF",
"!.	c #6A644F",
"~.	c #D3B543",
"{.	c #C3AD4C",
"].	c #646054",
"^.	c #494847",
"/.	c #93918F",
"(.	c #F0F0F0",
"_.	c #B4B2AC",
":.	c #A4934A",
"<.	c #DDBF42",
"[.	c #D6BA43",
"}.	c #7A704C",
"|.	c #BEBBB2",
"1.	c #756E53",
"2.	c #605B4C",
"3.	c #95928A",
"4.	c #9E9D9A",
"5.	c #BFBFBC",
"6.	c #BEBEBE",
"7.	c #86847D",
"8.	c #98958A",
"9.	c #615F58",
"0.	c #A2A09A",
"a.	c #A4A49F",
"b.	c #8F8C83",
"c.	c #7C7A73",
"d.	c #EBE9E3",
"e.	c #9F9A87",
"f.	c #A69D83",
"g.	c #B4AE97",
"h.	c #737068",
"i.	c #9B9480",
"j.	c #8F8A78",
"k.	c #918E84",
"l.	c #989893",
"m.	c #BBB08E",
"n.	c #C1B695",
"o.	c #BBAF8A",
"p.	c #D4CDB6",
"q.	c #AFA993",
"r.	c #B0A88E",
"s.	c #A1987E",
"t.	c #948D78",
"u.	c #8D8A7D",
"v.	c #D8D9DA",
"w.	c #9D9A93",
"x.	c #A29B85",
"y.	c #B1A788",
"z.	c #BDB292",
"A.	c #C4B995",
"B.	c #C6BB98",
"C.	c #C3B998",
"D.	c #C0B490",
"E.	c #D9D5C7",
"F.	c #ACA48A",
"G.	c #999179",
"H.	c #9D9A8E",
"I.	c #9B9582",
"J.	c #AEA589",
"K.	c #BAB193",
"L.	c #A39C86",
"M.	c #B8AD8E",
"N.	c #C3B896",
"O.	c #A8A18C",
"P.	c #B3AC93",
"Q.	c #9D9681",
"R.	c #BBB9B0",
"S.	c #A19D8F",
"T.	c #ABA48C",
"U.	c #C2B797",
"V.	c #A59F8A",
"W.	c #878375",
"X.	c #757266",
"Y.	c #AAA696",
"Z.	c #6D685B",
"`.	c #CCC6B0",
" +	c #44444B",
".+	c #9B9B9D",
"++	c #878272",
"@+	c #B3AD97",
"#+	c #B9B297",
"$+	c #C5C3BD",
"%+	c #C1BBA5",
"&+	c #7F7A6C",
"*+	c #918D7D",
"=+	c #4F4C47",
"-+	c #665F46",
";+	c #9D8C48",
">+	c #CBAF42",
",+	c #D3BA4F",
"'+	c #E3DCB9",
")+	c #8C8572",
"!+	c #777262",
"~+	c #8F886E",
"{+	c #ABA07D",
"]+	c #C9C5B8",
"^+	c #857C4A",
"/+	c #A69F4C",
"(+	c #B4A745",
"_+	c #C1B048",
":+	c #CDB447",
"<+	c #F2E844",
"[+	c #E6D99A",
"}+	c #B2AB96",
"|+	c #D3CBB2",
"1+	c #EDD445",
"2+	c #F5F442",
"3+	c #F4ED44",
"4+	c #EBDC44",
"5+	c #D3BF4A",
"6+	c #DED564",
"7+	c #DFD9B7",
"8+	c #E4D690",
"9+	c #E4D571",
"0+	c #E3D75B",
"a+	c #EFEB43",
"b+	c #D7C982",
"c+	c #E5DFC7",
"                                                                                                                        ",
"                                                                                                                        ",
"                                                                                                                        ",
"                                                                                                                        ",
"                                                                                                                        ",
"                                                                                                                        ",
"                                                                                                                        ",
"                                                                                                                        ",
"                                                                                                                        ",
"                                                                                                                        ",
"                                                                                                                        ",
"                                                                                                                        ",
"                                                                                                                        ",
"                                                                                                                        ",
"                                                                                                                        ",
"                                                    . + @ @ # @ $ % & * = - = = ; ; > ; , ' ) ) ! ) ! ) ~ { {           ",
"                                                    ] ^ / ( _ ( ( : < < / [ } | 1 : 2 3 4 . 5 6 6 5 7 8 8 8 @           ",
"                                            9 0 6 @ @ a } b c c 8 d e f < g f f f f h a i ' j k , ' ' , ' { l           ",
"                                        ~ : } _ _ _ | / / _ b m c ] $ < n g o p q r s t i u l j j > = = d ; v           ",
"                                        o w x x x y z w / A z 3 c % . B f q r C C q 1 D i k > j - q E F r G k           ",
"                                      8 o x z 5 c z z z _ / : m c d H # A r I I I g ( 1 4 l 9 ; - y J 0 3 . k           ",
"                                      K _ z z L M z z x N / O e + d H P 7 r Q I I I | ( 4 R # P P ] % ] . ; {           ",
"                                    , S ( z z 8 c z z z N / f 2 c 0 @ T c r I I I I a U V ~ j > > > > > ; ; ,           ",
"                                    W s _ N x c x z z N ( A ^ Q X Y Z `  .h ..+.@...} z V ! > ; ; = ; ; ; ; ,           ",
"                                    ] X _ #.x c z z N ( | n $.%.&.*.=.K } n -.;.>.&.| t 4 l ; = - - ] d 0 = {           ",
"                                    - h | #.b c z #.( _ / ,.'.| ( A ,. .^ q g X X s : m ).= L P 0 $ % = = > '           ",
"                                    . h O ( b b z ( ( | [ !.~.{.].[ _ | | _ / | } ^.: /.(., ; > > > j m N > '           ",
"                                    _.h A ( b x z ( w _ o :.<.[.}.%.o } x x _ 1 q &.x /.(.|.> = ; ; > z z >             ",
"                                    P g A ( b b z z z ( / 1.!.2.I I I Q &.o f < p U e 3.4 = ; - . $ $ $ * >             ",
"                                    8 s O ( m 5 x z z #.o w o p I I ^.I I I I I N M z T (.* 4.0 % = - = = 9             ",
"                                    a < _ #.b @ c z z ( / | | } ,.[ O O a o n / m 5 D 6 4 j ; > - m W } y 5.            ",
"                                  j X | w z z F + #.z w w ( ( ( N : -.( v 5.-.| m 5 D # 4 > = 6.8 r = x 5 >             ",
"                                  8 S ( ( z z x m e z ( w ( ( #.( ( ( ( 7.8.| 9.B 8 N L i W = . 0 @ P . - R             ",
"                                  A < _ #.z z z e + 8 8 + m z N z ,.^ Q I I C p m ( h @ i ] P ] = j l , { 5.            ",
"                                k X | _ ( z z x b D z : / &.^ a 5 M m | Y | } g e _ I # i l ' ' ' { { , l >             ",
"                                0 g O w #.z z c # 8 z : / p Q x @ $ $ $ $ ] M r m ( I P 4 l { , , , ~ , j >             ",
"                                b s | _ ( z z U @ # x z N _ O m 8 J 0.a.4.4.4.,.x 7 I P 4 l , , , , , l l l             ",
"                                | 9.| _ w #.z x 5 3 z z ( _ / b.r ^.c.@ ] % ] M e 5 | . d.l { , ~ ~ , 9 . 0 e.f.g.      ",
"                                f / _ _ ( #.z b 7 b z z ( w o E | h.i.j.k.3.6 % $ d e - d., { l = % l.8.3.f.m.n.o.p.    ",
"                              l p o _ _ ( #.z m 8 m z z #.( o y 8 f.q.r.f.s.t.u.k.6 l.v v.0 w.T k.x.y.z.A.B.C.C.D.E.    ",
"                              . h A | | ( ( N m + e z z ( ( / | 5 i.r.q.q.q.q.F.f.G.j.w.H.I.J.K.A.B.C.A.n.n.n.n.D.      ",
"                              a.X A | _ ( #.z e c x z z ( _ A *.c L.r.q.q.q.q.q.q.q.r.M.D.B.C.N.n.n.n.n.n.n.n.C.m.      ",
"                              @ s / _ | w ( z x m y c.N ( _ O 9.e O.J.q.q.q.q.q.q.q.P.C.N.n.n.n.n.n.n.n.n.C.B.A.C.      ",
"                              % g < } | _ ( #.z x z z : -.| / ,.h.r.J.r.q.q.q.q.q.q.P.n.n.n.n.n.n.n.A.B.B.K.Q.R.        ",
"                              > g / n O _ w ( #.( #.( ( _ K < q | 8.S.T.r.q.q.q.q.q.P.U.U.n.n.N.C.B.z.V.W.X.t $         ",
"                              > p f n n / | _ _ _ _ _ } / < s < 3 y + # 0.Y.q.g.q.q.P.U.N.C.n.n.g.k.'.Z.j.r.`.          ",
"                              - x h ,.o < < *./ < / o n < X  +M   9 P # M .+7 ++S.@+#+B.K.q.Y.# 8 /.% $+                ",
"                              > F x g g 9.o < 9.n 9.f p r  +1.%+        = P T &+'.&+*+W.X.U .+- '                       ",
"                                ] /.e &.^ q q %. + + +=+-+;+>+,+'+          9 r.e.)+!+~+{+]+                            ",
"                                    - l.y / s ^+/+(+_+:+[.[.~.<+<+[+            %+}+N.|+                                ",
"                                            U.1+2+2+2+2+2+3+4+5+6+7+                                                    ",
"                                                '+8+9+0+4+a+a+b+                                                        ",
"                                                          c+'+                                                          ",
"                                                                                                                        ",
"                                                                                                                        ",
"                                                                                                                        ",
"                                                                                                                        ",
"                                                                                                                        ",
"                                                                                                                        ",
"                                                                                                                        "};
