/* XPM */
static char * bsd1_xpm[] = {
"36 60 59 1",
" 	c None",
".	c #580204",
"+	c #760204",
"@	c #680204",
"#	c #480204",
"$	c #330204",
"%	c #940204",
"&	c #840204",
"*	c #AA0204",
"=	c #C00204",
"-	c #1A0204",
";	c #D00204",
">	c #E00204",
",	c #911614",
"'	c #6A383A",
")	c #93A7A6",
"!	c #E5D8DC",
"~	c #CBACAC",
"{	c #AD292C",
"]	c #A96B6C",
"^	c #C6D3D4",
"/	c #A07A7C",
"(	c #701614",
"_	c #AAA9AA",
":	c #FBFCFB",
"<	c #A45050",
"[	c #DAF6F4",
"}	c #754A4A",
"|	c #D3E9E3",
"1	c #CF6F71",
"2	c #BEBABC",
"3	c #9C8A8B",
"4	c #F0EBEE",
"5	c #8F2F30",
"6	c #8A9694",
"7	c #A6BABC",
"8	c #393735",
"9	c #494644",
"0	c #535954",
"a	c #7F7877",
"b	c #9E969C",
"c	c #6A7674",
"d	c #8A6A6C",
"e	c #6A6664",
"f	c #E87173",
"g	c #DE1717",
"h	c #B03634",
"i	c #775A5C",
"j	c #AE100E",
"k	c #642B2C",
"l	c #3F2B2D",
"m	c #C01A1C",
"n	c #341412",
"o	c #2A2A2C",
"p	c #838A89",
"q	c #511A1C",
"r	c #C49494",
"s	c #D82F2F",
"t	c #E8C9CA",
"                                    ",
"        .+            @#            ",
"      $@%             &&.           ",
"     #&*&              &%@$         ",
"    $&*%                +%+$        ",
"   #&=%                 @*%+-       ",
"   .*=&#    --------    $&**@       ",
"   &==&#------$$$$-----$#&*=+       ",
"   %==%+.#$-$######$-$#.@%*=%       ",
"   *;;*%&+##..@@@@..##@+%*=>%       ",
"   %;>;=*&#..@++++@@..+%*;>>        ",
"    ;>>;=..@+&&&%&&&@@@=;;>=        ",
"     =>;+.@+,&%%*%,,++.&;>=         ",
"      %+#@')!~{**]^!/++.&&          ",
"      -#.(_:::~=<:::[]+@.$          ",
"     -$#.}|::::1~::::2&+.$          ",
"     -$.@3[::::![::::45&@#          ",
"     -#.@_:2_^:::42_4:<&@$          ",
"      $.+67890^:[a997[<&+#          ",
"      $.@bc999a!28890^<&.-          ",
"      -.@dc899ef/9999_{+@#          ",
"      #@+5c9880gh888i3%%+.$         ",
"     -.+%j{'98,**k9lh==*%@#         ",
"     $.@*;;>{{*;;=mj>>>;%+#         ",
"      #@%=;;;;*;==;>;;;;%+#         ",
"     $##@&%%%%&%%%%%*%%&+.          ",
"   $#.@..##@@.@..@@.@@.@#           ",
"  $#.@@+@..@++&&&+++@@++.           ",
" -##.@@+&@&%***===***%**+$          ",
" -##..@+++%*=;;;;>;===;*&$          ",
" -$$##.@@+%*=;>>>>>;;>;*&.          ",
" -$--$#.@+%=;>>>>>>;;==*%@$         ",
"  --$#$##&**;>>>>>>>=**%%+#         ",
"  -.+&&@.&*=;>>>>>>>;=%%*%.         ",
"  #%=;;=&+*=;>>>>>>>==%&%*%.        ",
" $&=;;;;=+*=;>>>>>>;;=*&+==&#       ",
" $%==;;;;%%=;>>>>>>>;=*&@*;=&#      ",
" .%==%=;=%*=;>>>>>>>;=*%@&;;=+#     ",
"  +*=*===&==;>>>>>>>;=*%@@=;>=%@#   ",
"  .%*=**&%*=;>>>>>>;;=*%+#%;>>=*+#  ",
"   #@+++&%*==;>>>>>;;=*%+#@=>>>;*+$ ",
"     $#@&%*==;>>>>>;=**%@#.*;>>>=&# ",
"      $.+%%*==;;;;;;=*%&.$.%;>>>=%. ",
"      -#@+%%*===;==**%&@# #&*;;;*&# ",
"       -$.+&%%*****%%+.#   #&**=%.  ",
"        $$#.@@+++++@...#    #@&@    ",
"        #%&+.####$#.&=;+            ",
"       n@=>>=&$   @*>>;%#           ",
"       l&j>>g*@  $+=gg;*(           ",
"       k'ia/d<.  .kiaadik9          ",
"      on0a3bbpq  $}p3bp3kl          ",
"      -npbrr~)q$ $e_rr~_'-          ",
"      o#5,**m<@ql#5{j=j<(#          ",
"      l.%=;;;*+kl#&*;>;=&n          ",
"      l@*=>>>;%(l@*=>>>=%.          ",
"      q@%;>>>=%kl@%=>>>;%q          ",
"      8'{j>>gs<d ih{;gg{<i          ",
"       p_ttt! ^  b!!tt!!7p          ",
"         [                          ",
"                                    "};
