/* XPM */
static char * bsd3_xpm[] = {
"39 60 62 1",
" 	c None",
".	c #580204",
"+	c #760204",
"@	c #840204",
"#	c #680204",
"$	c #480204",
"%	c #940204",
"&	c #330204",
"*	c #AA0204",
"=	c #C00204",
"-	c #1A0204",
";	c #D00204",
">	c #E00204",
",	c #AD292C",
"'	c #A45050",
")	c #701614",
"!	c #6A383A",
"~	c #A07A7C",
"{	c #A96B6C",
"]	c #911614",
"^	c #D3E9E3",
"/	c #FBFCFB",
"(	c #C0C8C9",
"_	c #C6D3D4",
":	c #DAF6F4",
"<	c #BEBABC",
"[	c #AE100E",
"}	c #E5D8DC",
"|	c #9C8A8B",
"1	c #C49494",
"2	c #CF6F71",
"3	c #A6BABC",
"4	c #F0EBEE",
"5	c #E8C9CA",
"6	c #642B2C",
"7	c #838A89",
"8	c #535954",
"9	c #6A6664",
"0	c #8A9694",
"a	c #775A5C",
"b	c #393735",
"c	c #494644",
"d	c #6A7674",
"e	c #511A1C",
"f	c #AAA9AA",
"g	c #8F2F30",
"h	c #7F7877",
"i	c #E87173",
"j	c #754A4A",
"k	c #D82F2F",
"l	c #B03634",
"m	c #D15052",
"n	c #C01A1C",
"o	c #3F2B2D",
"p	c #F0B1B2",
"q	c #DE1717",
"r	c #CBACAC",
"s	c #2A2A2C",
"t	c #181716",
"u	c #341412",
"v	c #8A6A6C",
"w	c #9E969C",
"                   ..                  ",
"        +           @#$                ",
"      $@             @%#&              ",
"     .%               @%+$             ",
"    $*%                +*@$            ",
"   $*%                 #%*@$           ",
"  &@=%      -------   -.%=*+           ",
"  #**#    ---&-&&----&$.%==@           ",
"  @==+$-----$$$$$$$&$.#@*=;*           ",
"  %==%##.&&$..###..$$+%*=>>%           ",
"  %;;*%@@$$.##++++##.#*=;>;            ",
"  %;>;;*@$.##@@@%@@+##@;>=             ",
"   *>>>=#.#+@%%%%,')@#.@%@             ",
"    =>>%$#!~{]**{^/('@+.$-             ",
"     %%$.!_:/<[,}///(]@#.&             ",
"     -&.#|////12/////~@+.&             ",
"     -&.)3:///45/////<%@#$             ",
"     -&$6_//4//:/(77}4]@#&             ",
"     -$.)_3890//_abcd^,%#&             ",
"      &.e3dcccf4fcbc8(g+.$-            ",
"      -$#|9c8bhi~cbccf]%+#$            ",
"      &$#jdbcb9klccb9m=*%+$            ",
"      &.+]'cbc6%*]c!,;;;*@#            ",
"      $#@*[[6g%;;=n>>>>;=@.            ",
"      &.%=;>>>*=;==;===*%+$            ",
"      &.+*===**%%%%@@@###..&           ",
"    &$.$$.##+###...#..$#@@@.           ",
"   &$.#+##..###+@@%@@###***+-          ",
"  -$$.##++#@%***=*=**%@+=;=@$          ",
"  -$$..#+@#%*=;;;>>;;=%@;;=+&          ",
"  -&&$$$#++%*=>>>>>>;=%@;;%#$&         ",
"  ---&&$$#+%==>>>>>>;=*@%%+#.$-        ",
"   --&$$$$+*==>>>>>>>=*%###++#.        ",
"   -.+@@+.@*=;>>>>>>;;=%+$.+@@+$&      ",
"   $%=;==@+*=;>>>>>>>;=%@.$#%%*%#$$&   ",
"  &@==;;>=+*=;>>>>>>;;=*@.&$#***%%@#&  ",
"  &%==;;;;@*=;>>>>>>>;=*@#$ $@*;;;;%#- ",
"  .*==%=;=%*=;>>>>>>>;=*%#&  #%;>>>*@& ",
"   +*=*==*%*=;>>>>>>>;=*%#$  $%;>>>=@. ",
"   .%**=*@%*=;>>>>>>>;=*%+&  .%=>>;*@$ ",
"    $++++@%*==;>>>>>;;=*%+$   .%=**%#  ",
"      -$#@%*=;;>>>>>;=**%#&    .+%@.   ",
"       &.+%%*==;;;;;;=*%@.&     &$.    ",
"       -$.+%**=======*%@#&             ",
"        -$.#@@%****%%%+#$              ",
"        ce&$.##++@++##@%#              ",
"        b)66!6e$$$$$$@=[*.             ",
"        e6f}4^(|.e  eg)))6             ",
"        e6<_4//<#! &$+%%@+e            ",
"        66<44/4<#! .@*=;[@.            ",
"        o!(4///<@j .%=;>;*@$           ",
"        6!55pp}5)!c~pppppp{j           ",
"        o+lq>>qk@69r_}__((<7           ",
"        6+*>>>>=@6ssttttttss           ",
"        u+*;>>>=%6 tttttttt            ",
"        u#%=;;;%ga                     ",
"        b!)%**%lv                      ",
"         9h{~~wf                       ",
"           0f<                         ",
"                                       "};
