/* XPM */
static char * coke1des3_xpm[] = {
"60 57 236 2",
"  	c None",
". 	c #C1C1C1",
"+ 	c #ADADAD",
"@ 	c #AAAAA9",
"# 	c #ACABAB",
"$ 	c #B9B9B9",
"% 	c #828181",
"& 	c #787877",
"* 	c #777776",
"= 	c #747373",
"- 	c #707070",
"; 	c #797978",
"> 	c #A6A5A5",
", 	c #B6B5B5",
"' 	c #767676",
") 	c #7E7D7D",
"! 	c #81807E",
"~ 	c #7B7B7B",
"{ 	c #868585",
"] 	c #B9B8B6",
"^ 	c #9B9A9A",
"/ 	c #848483",
"( 	c #7B7B7A",
"_ 	c #888787",
": 	c #838382",
"< 	c #989795",
"[ 	c #DEDEDD",
"} 	c #777778",
"| 	c #8D8C8A",
"1 	c #807F7D",
"2 	c #9A9796",
"3 	c #8A8989",
"4 	c #EEEEEE",
"5 	c #A1A1A1",
"6 	c #737375",
"7 	c #B2B2B1",
"8 	c #919191",
"9 	c #939394",
"0 	c #E9E9E9",
"a 	c #C3C3C3",
"b 	c #9A9999",
"c 	c #9D9C9C",
"d 	c #B3B3B2",
"e 	c #9C9C9B",
"f 	c #969695",
"g 	c #BEBEBE",
"h 	c #B5B3B3",
"i 	c #DADADA",
"j 	c #737474",
"k 	c #C5C4C3",
"l 	c #CECECD",
"m 	c #8E8D8D",
"n 	c #BCBCBB",
"o 	c #DCDCDB",
"p 	c #C0BFBF",
"q 	c #B7B7B8",
"r 	c #A5A3A2",
"s 	c #8F8F90",
"t 	c #717277",
"u 	c #949492",
"v 	c #7D7C7A",
"w 	c #C5C3BB",
"x 	c #ADA86F",
"y 	c #DDD774",
"z 	c #E9E571",
"A 	c #DEDC72",
"B 	c #CECB7A",
"C 	c #9E9B8D",
"D 	c #817F79",
"E 	c #747579",
"F 	c #EDE4B9",
"G 	c #EDE970",
"H 	c #EEEE74",
"I 	c #EEEE71",
"J 	c #EEED7C",
"K 	c #EEEEBD",
"L 	c #EDE9A3",
"M 	c #B4A971",
"N 	c #E5E473",
"O 	c #D7CA6F",
"P 	c #EED970",
"Q 	c #EADB70",
"R 	c #ECE372",
"S 	c #EEE570",
"T 	c #EEDD70",
"U 	c #9E9575",
"V 	c #EEEA73",
"W 	c #EEEE9F",
"X 	c #EEEE89",
"Y 	c #EDD571",
"Z 	c #D8C472",
"` 	c #BFB074",
" .	c #A89E75",
"..	c #E1DBC6",
"+.	c #DFDA75",
"@.	c #D9CE7B",
"#.	c #D4C373",
"$.	c #CABC73",
"%.	c #C2B271",
"&.	c #B0A374",
"*.	c #999275",
"=.	c #B1A571",
"-.	c #A39A72",
";.	c #988F71",
">.	c #84817C",
",.	c #C6C6C6",
"'.	c #8E8A82",
").	c #928D8A",
"!.	c #D6D5D5",
"~.	c #D5D4D3",
"{.	c #C7C8CB",
"].	c #A0A09F",
"^.	c #ACA9A3",
"/.	c #A09E97",
"(.	c #CACAC9",
"_.	c #E1E1E0",
":.	c #A9A7A6",
"<.	c #8F8E8D",
"[.	c #B9B6B5",
"}.	c #CACBD0",
"|.	c #B38483",
"1.	c #C19696",
"2.	c #C59C9C",
"3.	c #AB9B99",
"4.	c #9E8382",
"5.	c #997C7B",
"6.	c #787472",
"7.	c #D2D2D1",
"8.	c #C7C7C8",
"9.	c #757171",
"0.	c #A77373",
"a.	c #9D817E",
"b.	c #A77B7A",
"c.	c #957F7E",
"d.	c #8C8B89",
"e.	c #D4D3D1",
"f.	c #E5E5E4",
"g.	c #D1D0CE",
"h.	c #B99C99",
"i.	c #C0A2A0",
"j.	c #B49D9A",
"k.	c #A3918F",
"l.	c #CEBABA",
"m.	c #B2A998",
"n.	c #AC948F",
"o.	c #E3E3E3",
"p.	c #C3ADAB",
"q.	c #AB8986",
"r.	c #937373",
"s.	c #79706F",
"t.	c #9A7474",
"u.	c #8E7272",
"v.	c #917575",
"w.	c #886F6F",
"x.	c #947474",
"y.	c #8D7473",
"z.	c #8E7775",
"A.	c #837974",
"B.	c #867773",
"C.	c #EAEAEC",
"D.	c #ECEAE9",
"E.	c #7D7070",
"F.	c #9E9895",
"G.	c #A4A29E",
"H.	c #AFAFAE",
"I.	c #E0E0DD",
"J.	c #D2CD83",
"K.	c #BBBCC3",
"L.	c #D8D378",
"M.	c #D5D1C5",
"N.	c #D4CD71",
"O.	c #DACF73",
"P.	c #8A8675",
"Q.	c #7E7E81",
"R.	c #CCCCCB",
"S.	c #ADA27B",
"T.	c #BAAE73",
"U.	c #9D967A",
"V.	c #C7C7C6",
"W.	c #C8C5B3",
"X.	c #9A9171",
"Y.	c #A29875",
"Z.	c #B2AFA8",
"`.	c #E6E7E8",
" +	c #CACACC",
".+	c #717176",
"++	c #BDB796",
"@+	c #9D9571",
"#+	c #968F79",
"$+	c #DFDFDF",
"%+	c #C9C4A6",
"&+	c #ADA270",
"*+	c #8D8871",
"=+	c #B2AB8C",
"-+	c #A09771",
";+	c #ACABA9",
">+	c #D7D7D7",
",+	c #ECE68E",
"'+	c #D0BC6F",
")+	c #928C74",
"!+	c #D8D9E0",
"~+	c #DFD8B0",
"{+	c #DCCB70",
"]+	c #CBBF72",
"^+	c #C2BEB1",
"/+	c #8F8C7B",
"(+	c #BFBFC1",
"_+	c #CCC091",
":+	c #938C72",
"<+	c #C6B973",
"[+	c #978F72",
"}+	c #948B6F",
"|+	c #BDB6A3",
"1+	c #B2A777",
"2+	c #C8C8C6",
"3+	c #B5AC83",
"4+	c #958D71",
"5+	c #908971",
"6+	c #A99D72",
"7+	c #EADB9C",
"8+	c #BAB39A",
"9+	c #A9A598",
"0+	c #9C9271",
"a+	c #C1B572",
"b+	c #D6CDA6",
"c+	c #B1AB91",
"d+	c #B4AE97",
"e+	c #BCB9B0",
"f+	c #A39C7B",
"g+	c #BEBAA8",
"h+	c #AFAB99",
"i+	c #9F997C",
"j+	c #B0ACA0",
"k+	c #9F9981",
"l+	c #ABA592",
"m+	c #BBB8AD",
"                                                                                                                        ",
"                                                                                                                        ",
"                                                                                                                        ",
"                                                            . + @ # .                                                   ",
"                                                        $ % & * & = - ; >                                               ",
"                                                      , ' ) ! % % ! ~ ' - {                                             ",
"                                                    ] ' ) ) % ^ > / ; ' ; - {                                           ",
"                                                    ( % _ : % < [ $ ~ } } ; - @                                         ",
"                                                  | 1 2 > ^ 3 ! , 4 5 ' ' & 6 )                                         ",
"                                                $ ' { > 7 > 8 ) 9 0 a ' ' ' ; - $                                       ",
"                                                b 1 : c $ d 8 ) b 4 , ' ; & ; - e                                       ",
"                                                { 3 | f g h b : / i f j } ' ' = /                                       ",
"                                              k 3 l @ m n + _ , 7 f % = ; ' } = )                                       ",
"                                              # h 0 o @ p c q 4 4 d j } ' ' } ' ~                                       ",
"                                              d 7 _ f # r f k 3 e l : = ; ' ' ' ;                                       ",
"                                              g | / ~ ) 8 s / % } ^ 8 - ; ' ; ' '                                       ",
"                                                8 t = | u v = j - : 3 - ' } ' ' '                                       ",
"                                                w x y z z A B C D E - - ' ' } ' '                                       ",
"                                                F G H I z G J K L M 6 ' ' ' ; ' ;                                       ",
"                                                L G H N O P Q R S T U t & & ' ' }                                       ",
"                                                V I W X T Y P Y Z `  .} ' ' ' ; - .                                     ",
"                                              ..O +.@.#.$.%.&.*.D E } ' ' } ' ; - 5                                     ",
"                                              9 U =.-.;.>.E t t - { 8 = ; ' ' ; = )                                     ",
"                                          ,.f ~ ( '.2 ).>.; ; v | !.~.' ' ~ ' E ; - $                                   ",
"                                    {.r 3 ].5 < * 5 $ d ^./.e e (.4 _.% ~ ! % ' ' j /                                   ",
"                            a $ + u | b ( - e f ) # d 7 # + ].(.4 4 4 9 ( ) ^ > = } - $                                 ",
"                                  (., :.~ - <.v 8 [.d 7 @ > (.4 4 4 4 # ; 1 3 }.h - ' :                                 ",
"                          ).|.1.2.3.4.5.6.= ~ <., d d @ + !.4 4 4 4 4 (.8 % ) C 7.c - - #                               ",
"                        8.9.0.|.0.a.b.c.* - d._.e.+ + $ f.4 4 4 4 4 4 4 g.].1 ~ | , { j )                               ",
"                        $ - h.i.h.j./.k.9.} e.4 0 !.[ 4 4 4 4 4 4 4 4 4 o h ^ v { 5 c ~ - @                             ",
"                        a - h.l.m.n.4.c.- , 4 4 4 4 4 4 4 4 4 4 4 4 4 4 o.e c / 6 : c { = )                             ",
"                          = j.p.q.5.r.s.9 4 4 4 4 4 4 4 4 4 4 4 4 4 4 4 4 q ) : ; - ; _ ~ - +                           ",
"                          : r.b.t.u.v.s.@ 4 4 4 4 4 4 4 4 4 4 4 4 4 4 4 4 f.m ~ ; ' - { v - <.                          ",
"                          # w.x.y.v.z.9.> 4 4 4 4 4 4 4 4 4 4 4 4 4 4 4 4 4 a ' & ' ~ m E ' (                           ",
"                            5.y.v.y.A.- @ 4 4 4 4 4 4 4 4 4 4 4 4 4 4 4 4 4 4 u - = u _ j & j (.                        ",
"                            4.y.v.B.A.- c C.4 4 4 4 D.4 4 4 4 4 4 4 4 4 4 C.4 d - 8 e j * ' '                           ",
"                            k.s.E.E.- - 8 (.4 4 4 4 4 4 4 4 4 4 4 4 4 4 4 4 C.$ _ > } ' E ' '                           ",
"                              [.F.< G.> H.g 4 4 4 4 4 4 4 4 4 4 4 4 4 4 4 0 I.# > ~ = & & = {                           ",
"                          X J.K.4 4 4 l + . 4 4 4 4 4 4 4 4 4 4 4 4 4 4 4 f.7 e ~ = } ' ; - ^                           ",
"                          L.z B.^.f.4 a + . 4 4 4 4 4 4 4 4 4 4 4 4 4 4 0 d 9 ~ = ; ' ' ; - ^                           ",
"                          M.N.O.P.Q.~.R.# . 4 4 4 4 4 4 4 4 4 4 4 4 4 4 d | ' ' } ' ' } ; - c                           ",
"                            S.T.U.t _ V.H.p C.4 4 4 4 4 4 4 4 4 4 4 4 q ) ' ' ; & ; ; = - - #                           ",
"                            W.X.Y.>.j m Z.g o.`.C.4 4 4 4 4 4 4 4 4  +E 6 ; & ' .+.+- - - - a                           ",
"                              ++@+#+} j b n i $+_.f.0 0 0 0 0 0 `.0 %+@+D .+.+- *.&+*+- = }                             ",
"                                =+-+>.' ~ ;+7.>+o [ $+I.$+$+I._.[ ,+I G '+)+U.L.I I T U.- f                             ",
"                                   .U.v - m 8.l g.~.!.i i i i !+~+{+` =.T.{+I V ]+&+M  .-                               ",
"                                (.^+-./+} )+Z.(+,.R.R.g.g.g.g.7._+-+*+:+:+&.<+Y.:+:+[+}+=+                              ",
"                                    |+-.1+%.S.@ $ . . ,.2+2+,.2+3+4+[+*.X.:+5+:+X.@+X.6+S S 7+                          ",
"                                      8+&+T.T.9+c # , $ , $ q ] S.}+[+0+0+X.X.X.@+@+X.Y.a+$.'+b+                        ",
"                                    k (.c+6+=.d+$ d.m > :.@ @ ^. .4+X.@+*.0+0+0+0+0+4+4+)+4+5+|+                        ",
"                                      (.(.=+}+G.  g f ' ' ~ ) ! @+[+@+@+@+0+@+@+0+0+0+0+X.-+e+                          ",
"                                            ^.        n b / E j [+X.@+@+@+@+@+U @+0+0+f+g+                              ",
"                                                            ,.{.c+X.Y.@+@+-+@+@+@+f+h+                                  ",
"                                                                g+;.0+@+@+X.X.i+^.. (.a a                               ",
"                                                                  j+U.*.k+l+m+(.                                        ",
"                                                                                                                        ",
"                                                                                                                        "};
