/* XPM */
static char * coke1des1_xpm[] = {
"60 57 239 2",
"  	c None",
". 	c #A9A9A8",
"+ 	c #858584",
"@ 	c #7F7F7E",
"# 	c #838281",
"$ 	c #9B9B9A",
"% 	c #373635",
"& 	c #252523",
"* 	c #242321",
"= 	c #1D1D1C",
"- 	c #171717",
"; 	c #272726",
"> 	c #787776",
", 	c #959493",
"' 	c #212121",
") 	c #302F2E",
"! 	c #353330",
"~ 	c #2A2B2B",
"{ 	c #3E3D3C",
"] 	c #9A9895",
"^ 	c #656362",
"/ 	c #3A3A39",
"( 	c #C0C0BF",
"_ 	c #2B2A28",
": 	c #424140",
"< 	c #393938",
"[ 	c #5F5D5A",
"} 	c #DDDDDC",
"| 	c #232426",
"1 	c #4B4946",
"2 	c #33312F",
"3 	c #625E5B",
"4 	c #454443",
"5 	c #FBFBFB",
"6 	c #70706F",
"7 	c #1D1C1F",
"8 	c #8D8D8C",
"9 	c #535252",
"0 	c #565658",
"a 	c #F2F2F2",
"b 	c #ADADAC",
"c 	c #626160",
"d 	c #676767",
"e 	c #908F8E",
"f 	c #676664",
"g 	c #5B5B5A",
"h 	c #A3A3A3",
"i 	c #93908F",
"j 	c #D5D5D5",
"k 	c #1C1D1D",
"l 	c #B0AEAD",
"m 	c #4C4B4B",
"n 	c #A09F9E",
"o 	c #DAD9D8",
"p 	c #A7A6A5",
"q 	c #979799",
"r 	c #767371",
"s 	c #4E4E50",
"t 	c #181A24",
"u 	c #585754",
"v 	c #2E2C29",
"w 	c #B0AD9E",
"x 	c #857C15",
"y 	c #DBD01D",
"z 	c #F1EB19",
"A 	c #DDDA1B",
"B 	c #C0BB28",
"C 	c #6A654B",
"D 	c #353227",
"E 	c #1E2027",
"F 	c #FAE89B",
"G 	c #FAF116",
"H 	c #FBFB1E",
"I 	c #FBFA19",
"J 	c #FBFA2C",
"K 	c #FBFBA1",
"L 	c #F9F273",
"M 	c #927E18",
"N 	c #EBE81C",
"O 	c #D0BA15",
"P 	c #FAD417",
"Q 	c #F3D717",
"R 	c #F7E81B",
"S 	c #FBEA16",
"T 	c #FADC16",
"U 	c #695A20",
"V 	c #F7EFC9",
"W 	c #FAF31D",
"X 	c #FBFB6C",
"Y 	c #FBFA44",
"Z 	c #F9CD18",
"` 	c #D2AF1A",
" .	c #A68B1D",
"..	c #7B691F",
"+.	c #E3D8B1",
"@.	c #E0D520",
"#.	c #D4C02A",
"$.	c #CBAD1C",
"%.	c #B99F1C",
"&.	c #AA8E19",
"*.	c #8A731D",
"=.	c #60541F",
"-.	c #C7C7C6",
";.	c #8C7619",
">.	c #73631A",
",.	c #5E4E19",
"'.	c #3A352D",
").	c #B1B1B1",
"!.	c #4C4638",
"~.	c #554B45",
"{.	c #CECDCD",
"].	c #CCCCC9",
"^.	c #B4B5BA",
"/.	c #6E6D6B",
"(.	c #837E73",
"_.	c #6E695D",
":.	c #B9B9B8",
"<.	c #E3E3E2",
"[.	c #7D7978",
"}.	c #4F4D4B",
"|.	c #9A9594",
"1.	c #B9BAC4",
"2.	c #8F3A39",
"3.	c #A95C5B",
"4.	c #B16766",
"5.	c #816561",
"6.	c #693937",
"7.	c #612C2A",
"8.	c #261D1B",
"9.	c #B4B4B6",
"0.	c #1F1918",
"a.	c #7A1D1D",
"b.	c #683630",
"c.	c #792A29",
"d.	c #5A3230",
"e.	c #494744",
"f.	c #CCCAC6",
"g.	c #EAEAE9",
"h.	c #C5C3C1",
"i.	c #9B6761",
"j.	c #A7706E",
"k.	c #926762",
"l.	c #73534E",
"m.	c #C09D9C",
"n.	c #8D7D5F",
"o.	c #83584E",
"p.	c #E8E8E7",
"q.	c #AD8482",
"r.	c #82433E",
"s.	c #551C1D",
"t.	c #271615",
"u.	c #631D1E",
"v.	c #4C1B1B",
"w.	c #522020",
"x.	c #421515",
"y.	c #581E1D",
"z.	c #4B1D1D",
"A.	c #4D2420",
"B.	c #39271E",
"C.	c #3E231D",
"D.	c #F3F3F7",
"E.	c #F8F3F1",
"F.	c #2F1616",
"G.	c #695E59",
"H.	c #757069",
"I.	c #898887",
"J.	c #E2E1DC",
"K.	c #C7BF39",
"L.	c #9E9FAC",
"M.	c #D3C926",
"N.	c #CCC5B0",
"O.	c #CBBE18",
"P.	c #D5C31C",
"Q.	c #463F20",
"R.	c #303036",
"S.	c #BDBCBA",
"T.	c #84712A",
"U.	c #9D861C",
"V.	c #675B29",
"W.	c #B4B4B2",
"X.	c #B6B08F",
"Y.	c #625218",
"Z.	c #705F20",
"`.	c #8D897B",
" +	c #EDEEF0",
".+	c #B9B9BC",
"++	c #181922",
"@+	c #A2965C",
"#+	c #685918",
"$+	c #5B4F27",
"%+	c #DFDFDF",
"&+	c #B8AF79",
"*+	c #847117",
"=+	c #4B4218",
"-+	c #8E8149",
";+	c #6E5D18",
">+	c #83817E",
",+	c #D0D1D1",
"'+	c #F7ED4D",
")+	c #C39F15",
"!+	c #55491E",
"~+	c #D2D5E1",
"{+	c #E0D28A",
"]+	c #DABA16",
"^+	c #BAA61B",
"/+	c #ABA48C",
"(+	c #4E492B",
"_+	c #A5A6A8",
":+	c #BCA753",
"<+	c #55491B",
"[+	c #B19A1C",
"}+	c #5D4F1B",
"|+	c #584815",
"1+	c #F6F0D6",
"2+	c #A29573",
"3+	c #8E7A24",
"4+	c #B6B6B2",
"5+	c #938339",
"6+	c #5A4B19",
"7+	c #514319",
"8+	c #7E681A",
"9+	c #F4D866",
"0+	c #9C8F62",
"a+	c #7D775E",
"b+	c #665519",
"c+	c #A8941B",
"d+	c #CEBE79",
"e+	c #8C8152",
"f+	c #92875D",
"g+	c #9F9B8A",
"h+	c #C3C2C4",
"i+	c #72662B",
"j+	c #A39C7C",
"k+	c #888161",
"l+	c #6B602D",
"m+	c #8B836D",
"n+	c #6B6035",
"o+	c #817754",
"p+	c #9E9984",
"                                                                                                                        ",
"                                                                                                                        ",
"                                                                                                                        ",
"                                                            . + @ # .                                                   ",
"                                                        $ % & * & = - ; >                                               ",
"                                                      , ' ) ! % % ! ~ ' - {                                             ",
"                                                    ] ' ) ) % ^ > / ; ' ; - {                                           ",
"                                                  ( _ % : < % [ } $ ~ | | ; - @                                         ",
"                                                  1 2 3 > ^ 4 ! , 5 6 ' ' & 7 )                                         ",
"                                                $ ' { > 8 > 9 ) 0 a b ' ' ' ; - $                                       ",
"                                                c 2 < d $ e 9 ) c 5 , ' ; & ; - f                                       ",
"                                                { 4 1 g h i c < / j g k | ' ' = /                                       ",
"                                              l 4 ( @ m n + : , 8 g % = ; ' | = )                                       ",
"                                              # i a o @ p d q 5 5 e k | ' ' | ' ~                                       ",
"                                              e 8 : g # r g l 4 f ( < = ; ' ' ' ;                                       ",
"                                              h 1 / ~ ) 9 s / % | ^ 9 - ; ' ; ' '                                       ",
"                                                9 t = 1 u v = k - < 4 - ' | ' ' '                                       ",
"                                                w x y z z A B C D E - - ' ' | ' '                                       ",
"                                                F G H I z G J K L M 7 ' ' ' ; ' ;                                       ",
"                                                L G H N O P Q R S T U t & & ' ' |                                       ",
"                                              V W I X Y T Z P Z `  ...| ' ' ' ; - .                                     ",
"                                              +.O @.#.$.%.&.*.=.D E | ' ' | ' ; - 6                                     ",
"                                            -.0 U ;.>.,.'.E t t - { 9 = ; ' ' ; = )                                     ",
"                                        -.).g ~ _ !.3 ~.'.; ; v 1 {.].' ' ~ ' E ; - $                                   ",
"                                  -.^.r 4 /.6 [ * 6 $ e (._.f f :.5 <.% ~ ! % ' ' k /                                   ",
"                            b $ + u 1 c _ - f g ) # e 8 # + /.:.5 5 5 0 _ ) ^ > = | - $                                 ",
"                            ].    :., [.~ - }.v 9 |.e 8 @ > :.5 5 5 5 # ; 2 4 1.i - ' <                                 ",
"                          ~.2.3.4.5.6.7.8.= ~ }., e e @ + {.5 5 5 5 5 :.9 % ) C -.d - - #                               ",
"                        9.0.a.2.a.b.c.d.* - e.<.f.+ + $ g.5 5 5 5 5 5 5 h./.2 ~ 1 , { k )                               ",
"                        $ - i.j.i.k._.l.0.| f.5 a {.} 5 5 5 5 5 5 5 5 5 o i ^ v { 6 d ~ - @                             ",
"                        b - i.m.n.o.6.d.- , 5 5 5 5 5 5 5 5 5 5 5 5 5 5 p.f d / 7 < d { = )                             ",
"                          = k.q.r.7.s.t.0 5 5 5 5 5 5 5 5 5 5 5 5 5 5 5 5 q ) < ; - ; : ~ - +                           ",
"                          < s.c.u.v.w.t.@ 5 5 5 5 5 5 5 5 5 5 5 5 5 5 5 5 g.m ~ ; ' - { v - }.                          ",
"                          # x.y.z.w.A.0.> 5 5 5 5 5 5 5 5 5 5 5 5 5 5 5 5 5 b ' & ' ~ m E ' _                           ",
"                            7.z.w.z.B.- @ 5 5 5 5 5 5 5 5 5 5 5 5 5 5 5 5 5 5 u - = u : k & k :.                        ",
"                            6.z.w.C.B.- d D.5 5 5 5 E.5 5 5 5 5 5 5 5 5 5 D.5 e - 9 f k * ' ' -.                        ",
"                            l.t.F.F.- - 9 :.5 5 5 5 5 5 5 5 5 5 5 5 5 5 5 5 D.$ : > | ' E ' '                           ",
"                              |.G.[ H.> I.h 5 5 5 5 5 5 5 5 5 5 5 5 5 5 5 a J.# > ~ = & & = {                           ",
"                          Y K.L.5 5 5 ( + . 5 5 5 5 5 5 5 5 5 5 5 5 5 5 5 g.8 f ~ = | ' ; - ^                           ",
"                          M.z C.(.g.5 b + . 5 5 5 5 5 5 5 5 5 5 5 5 5 5 a e 0 ~ = ; ' ' ; - ^                           ",
"                          N.O.P.Q.R.].S.# . 5 5 5 5 5 5 5 5 5 5 5 5 5 5 e 1 ' ' | ' ' | ; - d                           ",
"                            T.U.V.t : W.I.p D.5 5 5 5 5 5 5 5 5 5 5 5 q ) ' ' ; & ; ; = - - #                           ",
"                            X.Y.Z.'.k m `.h p. +D.5 5 5 5 5 5 5 5 5 .+E 7 ; & ' ++++- - - - b                           ",
"                              @+#+$+| k c n j %+<.g.a a a a a a  +a &+#+D ++++- =.*+=+- = |                             ",
"                                -+;+'.' ~ >+-.,+o } %+J.%+%+J.<.} '+I G )+!+V.M.I I T V.- g                             ",
"                                f...V.v - m 9.( h.].{.j j j j ~+{+]+ .;.U.]+I W ^+*+M ..- 1.                            ",
"                              f.:./+>.(+| !+`._+).S.S.h.h.h.h.-.:+;+=+<+<+*.[+Z.<+<+}+|+-+1+                            ",
"                                .+.+2+>.3+&.T.@ $ . . ).4+4+).4+5+6+}+=.Y.<+7+<+Y.#+Y.8+S S 9+                          ",
"                                  S..+0+*+U.U.a+d # , $ , $ q ] T.|+}+b+b+Y.Y.Y.#+#+Y.Z.c+%.)+d+                        ",
"                                    l :.e+8+;.f+$ e.m > [.@ @ (...6+Y.#+=.b+b+b+b+b+6+6+!+6+7+2+                        ",
"                                    S.:.:.-+|+H.1.h g ' ' ~ ) ! #+}+#+#+#+b+#+#+b+b+b+b+Y.;+g+                          ",
"                                            (.h+  ].S.n c / E k }+Y.#+#+#+#+#+U #+b+b+i+j+                              ",
"                                                          ( ).^.e+Y.Z.#+#+;+#+#+#+i+k+(                                 ",
"                                                                j+,.b+#+#+Y.Y.l+(.. :.b b S.                            ",
"                                                                  m+V.=.n+o+p+:.  ].                                    ",
"                                                                                                                        ",
"                                                                                                                        "};
