/* XPM */
static char * coke1des4_xpm[] = {
"60 57 231 2",
"  	c None",
". 	c #C1C1C1",
"+ 	c #BFBFBF",
"@ 	c #C0C0C0",
"# 	c #C8C8C8",
"$ 	c #A7A7A6",
"% 	c #A1A1A1",
"& 	c #A1A1A0",
"* 	c #9F9E9E",
"= 	c #9D9D9D",
"- 	c #A2A2A1",
"; 	c #BDBCBC",
"> 	c #C6C6C5",
", 	c #A0A0A0",
"' 	c #A5A4A4",
") 	c #A6A6A5",
"! 	c #A3A3A3",
"~ 	c #A9A9A9",
"{ 	c #C8C7C6",
"] 	c #B6B6B5",
"^ 	c #A8A8A8",
"/ 	c #A3A3A2",
"( 	c #ABAAAA",
"_ 	c #A8A8A7",
": 	c #B4B4B3",
"< 	c #DEDEDE",
"[ 	c #AEADAC",
"} 	c #A6A5A4",
"| 	c #B5B4B3",
"1 	c #ACACAB",
"2 	c #E8E8E8",
"3 	c #BABABA",
"4 	c #9E9E9F",
"5 	c #C4C4C3",
"6 	c #B0B0B0",
"7 	c #B1B1B2",
"8 	c #E5E5E5",
"9 	c #CECECE",
"0 	c #B5B5B5",
"a 	c #B7B7B7",
"b 	c #C5C4C4",
"c 	c #B7B7B6",
"d 	c #B3B3B3",
"e 	c #CBCBCB",
"f 	c #C5C5C4",
"g 	c #DCDCDC",
"h 	c #9E9F9F",
"i 	c #D4D4D4",
"j 	c #AEAEAE",
"k 	c #CACAC9",
"l 	c #DDDDDC",
"m 	c #CCCCCB",
"n 	c #C7C7C8",
"o 	c #BCBBBA",
"p 	c #CFCECE",
"q 	c #AFAFAF",
"r 	c #9D9EA1",
"s 	c #B2B2B1",
"t 	c #A4A3A3",
"u 	c #CFCEC9",
"v 	c #C1BE9C",
"w 	c #DDDA9F",
"x 	c #E5E39D",
"y 	c #DEDD9E",
"z 	c #D4D3A2",
"A 	c #B8B6AE",
"B 	c #A6A6A2",
"C 	c #9FA0A2",
"D 	c #E7E2C8",
"E 	c #E7E59C",
"F 	c #E8E89F",
"G 	c #E8E89D",
"H 	c #E8E7A3",
"I 	c #E8E8CA",
"J 	c #E7E5BB",
"K 	c #C5BF9D",
"L 	c #E3E29E",
"M 	c #DAD29C",
"N 	c #E8DB9D",
"O 	c #E5DC9D",
"P 	c #E7E19E",
"Q 	c #E8E29C",
"R 	c #E8DE9C",
"S 	c #B8B3A0",
"T 	c #E8E59E",
"U 	c #E8E8B9",
"V 	c #E8E8AC",
"W 	c #E7D99D",
"X 	c #DACF9E",
"Y 	c #CCC39F",
"Z 	c #BEB89F",
"` 	c #DFDCA0",
" .	c #DBD4A3",
"..	c #D8CE9E",
"+.	c #D2CA9E",
"@.	c #CDC49D",
"#.	c #C2BB9F",
"$.	c #B5B19F",
"%.	c #C3BC9D",
"&.	c #BBB69E",
"*.	c #B4AF9D",
"=.	c #A8A6A4",
"-.	c #AEACA7",
";.	c #B1AEAC",
">.	c #D9D9D9",
",.	c #D9D8D7",
"'.	c #B9B9B8",
").	c #C0BFBB",
"!.	c #B9B8B4",
"~.	c #D2D2D2",
"{.	c #E0E0E0",
"].	c #BEBDBD",
"^.	c #AFAFAE",
"/.	c #C8C6C6",
"(.	c #D2D3D6",
"_.	c #C4A8A8",
":.	c #CDB3B3",
"<.	c #CFB7B7",
"[.	c #C0B6B5",
"}.	c #B8A8A7",
"|.	c #B5A3A3",
"1.	c #A19F9E",
"2.	c #D7D7D6",
"3.	c #9F9D9D",
"4.	c #BD9E9E",
"5.	c #B7A7A5",
"6.	c #BDA3A3",
"7.	c #B3A6A5",
"8.	c #ADACAC",
"9.	c #D8D8D6",
"0.	c #E2E2E2",
"a.	c #D6D6D5",
"b.	c #C8B7B5",
"c.	c #CCBAB9",
"d.	c #C5B7B5",
"e.	c #BBB0AF",
"f.	c #D4C9C8",
"g.	c #C4BEB4",
"h.	c #C0B2AF",
"i.	c #E1E1E1",
"j.	c #CEC1C0",
"k.	c #C0ABA9",
"l.	c #B19E9E",
"m.	c #A29C9C",
"n.	c #B69F9F",
"o.	c #AE9E9E",
"p.	c #B0A0A0",
"q.	c #AB9C9C",
"r.	c #B29F9F",
"s.	c #AE9F9E",
"t.	c #AFA1A0",
"u.	c #A8A29F",
"v.	c #A9A19E",
"w.	c #E5E5E7",
"x.	c #E7E5E5",
"y.	c #A49C9C",
"z.	c #B8B4B2",
"A.	c #BCBAB8",
"B.	c #C2C2C2",
"C.	c #E0DFDE",
"D.	c #D7D4A8",
"E.	c #C9CACE",
"F.	c #CDCDCD",
"G.	c #DBD7A1",
"H.	c #D8D49D",
"I.	c #DCD59E",
"J.	c #ACAAA0",
"K.	c #A5A5A7",
"L.	c #C1BAA3",
"M.	c #C9C19E",
"N.	c #B7B3A3",
"O.	c #D1CFC4",
"P.	c #B5B09D",
"Q.	c #BAB4A0",
"R.	c #C4C2BE",
"S.	c #E3E4E4",
"T.	c #D2D2D3",
"U.	c #9D9DA0",
"V.	c #CBC7B3",
"W.	c #B7B29D",
"X.	c #B3AFA2",
"Y.	c #DFDFDF",
"Z.	c #D2CFBD",
"`.	c #C1BA9D",
" +	c #AEAB9D",
".+	c #C4C0AD",
"++	c #B9B49D",
"@+	c #C0C0BF",
"#+	c #DADADA",
"$+	c #E7E3AF",
"%+	c #D6CA9C",
"&+	c #B1AD9F",
"*+	c #D0D0D1",
"=+	c #DADBDF",
"-+	c #DFDAC2",
";+	c #DDD39C",
">+	c #D3CC9E",
",+	c #CECBC3",
"'+	c #AFADA3",
")+	c #CBCCCD",
"!+	c #D0D0D0",
"~+	c #D3D3D3",
"{+	c #D3CCB0",
"]+	c #B1AD9E",
"^+	c #D0C89E",
"/+	c #B4AF9E",
"(+	c #B2AD9C",
"_+	c #CBC6BB",
":+	c #C4BDA1",
"<+	c #D1D1D0",
"[+	c #C5C0A8",
"}+	c #B3AE9D",
"|+	c #B0AB9D",
"1+	c #BFB79E",
"2+	c #E6DCB7",
"3+	c #C8C4B5",
"4+	c #BEBCB4",
"5+	c #B7B19D",
"6+	c #CDC69E",
"7+	c #D9D4BD",
"8+	c #C3C0B0",
"9+	c #C5C2B4",
"0+	c #CAC8C2",
"a+	c #BBB7A3",
"b+	c #CBC8BE",
"c+	c #C2C0B5",
"d+	c #B8B5A4",
"e+	c #C3C0B9",
"f+	c #B8B5A6",
"g+	c #C0BCB1",
"h+	c #C9C8C1",
"                                                                                                                        ",
"                                                                                                                        ",
"                                                                                                                        ",
"                                                              . + @                                                     ",
"                                                        # $ % & % * = - ;                                               ",
"                                                      > , ' ) $ $ ) ! , = ~                                             ",
"                                                    { , ' ' $ ] ; ^ - , - = ~                                           ",
"                                                    / $ ( _ $ : < # ! % % - = +                                         ",
"                                                  [ } | ; ] 1 ) > 2 3 , , % 4 '                                         ",
"                                                # , ~ ; 5 ; 6 ' 7 8 9 , , , - = #                                       ",
"                                                0 } _ a # b 6 ' 0 2 > , - % - = c                                       ",
"                                                ~ 1 [ d e f 0 _ ^ g d h % , , * ^                                       ",
"                                                1 i + j k . ( > 5 d $ * - , % * '                                       ",
"                                              @ f 8 l + m a n 2 2 b h % , , % , !                                       ",
"                                              b 5 ( d @ o d p 1 c i _ * - , , , -                                       ",
"                                                [ ^ ! ' 6 q ^ $ % ] 6 = - , - , ,                                       ",
"                                                6 r * [ s t * h = _ 1 = , % , , ,                                       ",
"                                                u v w x x y z A B C = = , , % , ,                                       ",
"                                                D E F G x E H I J K 4 , , , - , -                                       ",
"                                                J E F L M N O P Q R S r % % , , %                                       ",
"                                                T G U V R W N W X Y Z % , , , - =                                       ",
"                                                M `  ...+.@.#.$.B C % , , % , - = 3                                     ",
"                                              7 S %.&.*.=.C r r = ~ 6 * - , , - * '                                     ",
"                                            d ! / -.| ;.=.- - t [ >.,., , ! , C - = #                                   ",
"                                      o 1 '.3 : & 3 # b ).!.c c ~.2 {.$ ! ) $ , , h ^                                   ",
"                              # . s [ 0 / = c d ' @ b 5 @ . '.~.2 2 2 7 / ' ] ; * % = #                                 ",
"                                    > ].! = ^.t 6 /.b 5 + ; ~.2 2 2 2 @ - } 1 (.f = , _                                 ",
"                          ;._.:.<.[.}.|.1.* ! ^.> b b + . >.2 2 2 2 2 ~.6 $ ' A 2.a = = @                               ",
"                          3.4._.4.5.6.7.& = 8.{.9.. . # 0.2 2 2 2 2 2 2 a.'.} ! [ > ~ h '                               ",
"                        # = b.c.b.d.!.e.3.% 9.2 8 >.< 2 2 2 2 2 2 2 2 2 l f ] t ~ 3 a ! = +                             ",
"                          = b.f.g.h.}.7.= > 2 2 2 2 2 2 2 2 2 2 2 2 2 2 i.c a ^ 4 _ a ~ * '                             ",
"                          * d.j.k.|.l.m.7 2 2 2 2 2 2 2 2 2 2 2 2 2 2 2 2 n ' _ - = - ( ! = .                           ",
"                          _ l.6.n.o.p.m.+ 2 2 2 2 2 2 2 2 2 2 2 2 2 2 2 2 0.j ! - , = ~ t = ^.                          ",
"                          @ q.r.s.p.t.3.; 2 2 2 2 2 2 2 2 2 2 2 2 2 2 2 2 2 9 , % , ! j C , /                           ",
"                            |.s.p.s.u.= + 2 2 2 2 2 2 2 2 2 2 2 2 2 2 2 2 2 2 s = * s ( h % h                           ",
"                            }.s.p.v.u.= a w.2 2 2 2 x.2 2 2 2 2 2 2 2 2 2 w.2 b = 6 c h & , ,                           ",
"                            e.m.y.y.= = 6 ~.2 2 2 2 2 2 2 2 2 2 2 2 2 2 2 2 w.# ( ; % , C , ,                           ",
"                              /.z.: A.; B.e 2 2 2 2 2 2 2 2 2 2 2 2 2 2 2 8 C.@ ; ! * % % * ~                           ",
"                          V D.E.        . F.2 2 2 2 2 2 2 2 2 2 2 2 2 2 2 0.5 c ! * % , - = ]                           ",
"                          G.x v.).      . F.2 2 2 2 2 2 2 2 2 2 2 2 2 2 8 b 7 ! * - , , - = ]                           ",
"                            H.I.J.K.    @ F.2 2 2 2 2 2 2 2 2 2 2 2 2 2 b [ , , % , , % - = a                           ",
"                            L.M.N.r (   B.m w.2 2 2 2 2 2 2 2 2 2 2 2 n ' , , - % - - * = = @                           ",
"                            O.P.Q.=.h j R.e i.S.w.2 2 2 2 2 2 2 2 2 T.C 4 - % , U.U.= = = =                             ",
"                              V.W.X.% h 0 k g Y.{.0.8 8 8 8 8 8 S.8 Z.W.B U.U.= $.`. += * %                             ",
"                                .+++=., ! @+2.#+l < Y.C.Y.Y.C.{.< $+G E %+&+N.G.G G R N.= d                             ",
"                                  Z N.t = j *+i a.,.>.g g g g =+-+;+Y %.M.;+G T >+`.K Z =                               ",
"                                  ,+&.'+% &+R.)+!+~+~+a.a.a.a.2.{+++ +]+]+#.^+Q.]+]+/+(+.+                              ",
"                                    _+&.:+@.L.+ # F.F.!+<+<+!+<+[+}+/+$.P.]+|+]+P.W.P.1+Q Q 2+                          ",
"                                      3+`.M.M.4+a @ > # > # n { L.(+/+5+5+P.P.P.W.W.P.Q.6++.%+7+                        ",
"                                        8+1+%.9+# 8.j ; ].+ + ).Z }+P.W.$.5+5+5+5+5+}+}+&+}+|+_+                        ",
"                                          .+(+A.    d , , ! ' ) W./+W.W.W.5+W.W.5+5+5+5+P.++0+                          ",
"                                            ).        k 0 ^ C h /+P.W.W.W.W.W.S W.5+5+a+b+                              ",
"                                                                8+P.Q.W.W.++W.W.W.a+c+                                  ",
"                                                                b+*.5+W.W.P.P.d+).                                      ",
"                                                                  e+N.$.f+g+h+                                          ",
"                                                                                                                        ",
"                                                                                                                        "};
