/* XPM */
static char * coke_small_xpm[] = {
"48 48 619 2",
"  	c None",
". 	c #9C9C9B",
"+ 	c #797978",
"@ 	c #787776",
"# 	c #9C9B9A",
"$ 	c #5C5C5B",
"% 	c #31302F",
"& 	c #282826",
"* 	c #252423",
"= 	c #262625",
"- 	c #494947",
"; 	c #9F9E9D",
"> 	c #3B3B3A",
", 	c #1B1B1A",
"' 	c #252320",
") 	c #2E2D2C",
"! 	c #282724",
"~ 	c #181918",
"{ 	c #0C0C0C",
"] 	c #171716",
"^ 	c #828281",
"/ 	c #474644",
"( 	c #1E1D1D",
"_ 	c #21201F",
": 	c #2F2E2C",
"< 	c #6F6D6C",
"[ 	c #6A6A69",
"} 	c #20201F",
"| 	c #0E0F0F",
"1 	c #0E0E0E",
"2 	c #151514",
"3 	c #A0A09F",
"4 	c #646361",
"5 	c #2B2826",
"6 	c #4A4847",
"7 	c #454443",
"8 	c #302F2D",
"9 	c #696765",
"0 	c #C3C2C2",
"a 	c #5D5E5D",
"b 	c #0E0E0F",
"c 	c #101010",
"d 	c #0A0A0B",
"e 	c #383837",
"f 	c #ABABAA",
"g 	c #1C1C1B",
"h 	c #42413F",
"i 	c #757473",
"j 	c #6C6B6A",
"k 	c #393838",
"l 	c #363635",
"m 	c #B9B9B9",
"n 	c #AAAAA9",
"o 	c #0D0D0D",
"p 	c #0F0F0F",
"q 	c #0B0A0A",
"r 	c #A9A9A6",
"s 	c #595857",
"t 	c #242220",
"u 	c #3E3D3C",
"v 	c #7D7D7C",
"w 	c #898887",
"x 	c #3E3D3D",
"y 	c #323130",
"z 	c #B5B5B4",
"A 	c #9E9D9C",
"B 	c #0D0E0E",
"C 	c #111110",
"D 	c #060606",
"E 	c #585755",
"F 	c #D2D1D0",
"G 	c #504F4E",
"H 	c #5C5B5A",
"I 	c #4B4A48",
"J 	c #7A7A7A",
"K 	c #8B8988",
"L 	c #494847",
"M 	c #474745",
"N 	c #565554",
"O 	c #090A0A",
"P 	c #0F0F10",
"Q 	c #0A0909",
"R 	c #252523",
"S 	c #92908F",
"T 	c #6B6968",
"U 	c #D0D0CF",
"V 	c #757574",
"W 	c #767575",
"X 	c #C5C5C5",
"Y 	c #8E8E8D",
"Z 	c #272727",
"` 	c #0F0F0E",
" .	c #0E0F10",
"..	c #313131",
"+.	c #848382",
"@.	c #868584",
"#.	c #6E6D6C",
"$.	c #7A7877",
"%.	c #5A5958",
"&.	c #999898",
"*.	c #7C7B7A",
"=.	c #A09F9E",
"-.	c #10100F",
";.	c #3D3D3D",
">.	c #E1E1E0",
",.	c #A1A1A1",
"'.	c #565553",
").	c #242424",
"!.	c #212120",
"~.	c #3C3B3A",
"{.	c #403F40",
"].	c #1E1E1E",
"^.	c #414141",
"/.	c #464544",
"(.	c #373636",
"_.	c #DAD9D8",
":.	c #75746F",
"<.	c #2B290B",
"[.	c #555115",
"}.	c #75722E",
"|.	c #5A5718",
"1.	c #36340D",
"2.	c #171711",
"3.	c #252524",
"4.	c #040404",
"5.	c #363636",
"6.	c #DBDAD9",
"7.	c #D2C796",
"8.	c #C3BA02",
"9.	c #F1EC07",
"0.	c #F6F004",
"a.	c #EEE804",
"b.	c #D2CF27",
"c.	c #9D9957",
"d.	c #615A1F",
"e.	c #121007",
"f.	c #080808",
"g.	c #0F1010",
"h.	c #DCDBDA",
"i.	c #FCF177",
"j.	c #FDF603",
"k.	c #FAF908",
"l.	c #E5D803",
"m.	c #F7DA02",
"n.	c #FAE613",
"o.	c #FDF030",
"p.	c #E7CF0F",
"q.	c #5F4F0A",
"r.	c #08090F",
"s.	c #10100E",
"t.	c #373738",
"u.	c #D1D0D0",
"v.	c #F9EFC5",
"w.	c #FBF234",
"x.	c #FDFB13",
"y.	c #FBFA41",
"z.	c #F6E112",
"A.	c #F7CB03",
"B.	c #F6CD03",
"C.	c #E4BD04",
"D.	c #B69707",
"E.	c #75610B",
"F.	c #0D0E11",
"G.	c #0E0E0D",
"H.	c #A6A6A5",
"I.	c #BFB79B",
"J.	c #B5A120",
"K.	c #C7B60C",
"L.	c #B39B0E",
"M.	c #9D830A",
"N.	c #836C08",
"O.	c #5B4A0B",
"P.	c #312A0D",
"Q.	c #161615",
"R.	c #1A1B1D",
"S.	c #0D0C0C",
"T.	c #121211",
"U.	c #131313",
"V.	c #686867",
"W.	c #585859",
"X.	c #3C3417",
"Y.	c #645416",
"Z.	c #584B20",
"`.	c #372E1A",
" +	c #131314",
".+	c #0B0C11",
"++	c #131315",
"@+	c #7D7C7B",
"#+	c #0C0B0B",
"$+	c #111111",
"%+	c #0F0F11",
"&+	c #595958",
"*+	c #CFCFCE",
"=+	c #B8B9BC",
"-+	c #797776",
";+	c #70706E",
">+	c #494846",
",+	c #1B1A18",
"'+	c #5D5B55",
")+	c #787572",
"!+	c #645F57",
"~+	c #49463C",
"{+	c #40403E",
"]+	c #5E5D5B",
"^+	c #C4C4C3",
"/+	c #DEDEDD",
"(+	c #1A1A1A",
"_+	c #181817",
":+	c #1D1C1B",
"<+	c #0F1012",
"[+	c #232423",
"}+	c #A9A9A8",
"|+	c #9F9F9E",
"1+	c #7C7B79",
"2+	c #585654",
"3+	c #585655",
"4+	c #1B1A19",
"5+	c #302F2E",
"6+	c #535250",
"7+	c #7A7978",
"8+	c #888887",
"9+	c #7E7D7B",
"0+	c #787673",
"a+	c #706F6D",
"b+	c #C5C5C4",
"c+	c #FAFAFA",
"d+	c #FBFBFB",
"e+	c #3A3A3B",
"f+	c #1A1918",
"g+	c #3B3A38",
"h+	c #5A5959",
"i+	c #0C0C0B",
"j+	c #0C0C0D",
"k+	c #555554",
"l+	c #C3C1BE",
"m+	c #BEADAA",
"n+	c #D1BFBD",
"o+	c #BAADAC",
"p+	c #928886",
"q+	c #716260",
"r+	c #121111",
"s+	c #2B2927",
"t+	c #4A4848",
"u+	c #8F8B8A",
"v+	c #858584",
"w+	c #7B7B7A",
"x+	c #7F7E7D",
"y+	c #D0D0D0",
"z+	c #FFFFFF",
"A+	c #71706F",
"B+	c #1F1E1D",
"C+	c #2A2927",
"D+	c #8C8C8E",
"E+	c #7D7B7A",
"F+	c #171717",
"G+	c #AAA9A5",
"H+	c #4A4340",
"I+	c #6E1E1C",
"J+	c #973E3D",
"K+	c #843D3B",
"L+	c #672E2B",
"M+	c #551D1B",
"N+	c #0F0A08",
"O+	c #5D5C5B",
"P+	c #9F9D9B",
"Q+	c #838382",
"R+	c #999998",
"S+	c #D6D6D5",
"T+	c #C1C0C0",
"U+	c #605F5E",
"V+	c #2B2A28",
"W+	c #3A382A",
"X+	c #878685",
"Y+	c #4A4A49",
"Z+	c #0A0A0A",
"`+	c #444342",
" @	c #434141",
".@	c #6C2E2B",
"+@	c #944946",
"@@	c #803E39",
"#@	c #6E423B",
"$@	c #5F3833",
"%@	c #0C0908",
"&@	c #3F3F3E",
"*@	c #CCCBC9",
"=@	c #E7E6E5",
"-@	c #AEAEAD",
";@	c #C2C2C1",
">@	c #E9E9E9",
",@	c #FDFDFD",
"'@	c #F6F5F5",
")@	c #AEACAB",
"!@	c #403F3D",
"~@	c #636261",
"{@	c #A1A19E",
"]@	c #434342",
"^@	c #774844",
"/@	c #AE867F",
"(@	c #84614D",
"_@	c #6B3D37",
":@	c #542A27",
"<@	c #FBFAFA",
"[@	c #F5F5F5",
"}@	c #B2B1B0",
"|@	c #5E5D5C",
"1@	c #31302E",
"2@	c #171618",
"3@	c #444343",
"4@	c #3D3C3B",
"5@	c #0E0D0D",
"6@	c #4C4B4A",
"7@	c #525251",
"8@	c #68403C",
"9@	c #965E5B",
"0@	c #652420",
"a@	c #4B0E0E",
"b@	c #1F0302",
"c@	c #727273",
"d@	c #FEFEFE",
"e@	c #D8D8D9",
"f@	c #555454",
"g@	c #0A0A09",
"h@	c #242322",
"i@	c #1C1D1C",
"j@	c #191919",
"k@	c #737372",
"l@	c #401112",
"m@	c #5D1010",
"n@	c #470909",
"o@	c #400B0A",
"p@	c #1A0403",
"q@	c #9D9D9C",
"r@	c #222221",
"s@	c #1B1A1A",
"t@	c #0F0E0E",
"u@	c #53514F",
"v@	c #4A1917",
"w@	c #420A09",
"x@	c #370F0A",
"y@	c #0F0604",
"z@	c #8E8D8D",
"A@	c #E8E8E8",
"B@	c #51514F",
"C@	c #090908",
"D@	c #1B1B19",
"E@	c #353533",
"F@	c #121315",
"G@	c #585857",
"H@	c #5B2422",
"I@	c #3D0A09",
"J@	c #3C0D0A",
"K@	c #2B1109",
"L@	c #090604",
"M@	c #807F7F",
"N@	c #FBFBFD",
"O@	c #FEFEFD",
"P@	c #FDFBFA",
"Q@	c #FCFCFD",
"R@	c #949391",
"S@	c #434240",
"T@	c #2D2D2C",
"U@	c #0E0F0D",
"V@	c #0D0E0D",
"W@	c #545454",
"X@	c #785854",
"Y@	c #281312",
"Z@	c #260D0C",
"`@	c #1A0F0E",
" #	c #626261",
".#	c #D3D3D2",
"+#	c #F8F7F9",
"@#	c #A4A3A3",
"##	c #3F3E3D",
"$#	c #404040",
"%#	c #0C0D11",
"&#	c #565555",
"*#	c #DBD799",
"=#	c #949092",
"-#	c #908A87",
";#	c #95928E",
">#	c #8C8A89",
",#	c #C6C6C5",
"'#	c #D6D6D3",
")#	c #807F7D",
"!#	c #444443",
"~#	c #111010",
"{#	c #3B3A39",
"]#	c #E7E122",
"^#	c #E0D818",
"/#	c #716566",
"(#	c #D1CFCB",
"_#	c #C1C1C1",
":#	c #848483",
"<#	c #C8C8C8",
"[#	c #DFDFDF",
"}#	c #868686",
"|#	c #40403F",
"1#	c #CDC480",
"2#	c #D3C81C",
"3#	c #937F0D",
"4#	c #4F4B3B",
"5#	c #A6A5A6",
"6#	c #BCBCBA",
"7#	c #838281",
"8#	c #EDEDED",
"9#	c #323131",
"0#	c #121212",
"a#	c #141313",
"b#	c #EFECE2",
"c#	c #9B8A44",
"d#	c #897309",
"e#	c #393114",
"f#	c #272729",
"g#	c #8F8F8D",
"h#	c #878583",
"i#	c #C3C2C3",
"j#	c #FAFAFC",
"k#	c #F9F9F9",
"l#	c #777779",
"m#	c #1D1C1C",
"n#	c #050404",
"o#	c #7C7A7A",
"p#	c #B2AB87",
"q#	c #695816",
"r#	c #50410F",
"s#	c #1A1811",
"t#	c #262626",
"u#	c #7E7B72",
"v#	c #B8B8B8",
"w#	c #E8E8E9",
"x#	c #EFF0F2",
"y#	c #FCFCFC",
"z#	c #FBFBFC",
"A#	c #C3C1B5",
"B#	c #1F1C0E",
"C#	c #0F0E0F",
"D#	c #0D0E10",
"E#	c #1D190D",
"F#	c #1F1A07",
"G#	c #090802",
"H#	c #040303",
"I#	c #292A2A",
"J#	c #B8B8B7",
"K#	c #8E803E",
"L#	c #675716",
"M#	c #342C12",
"N#	c #474746",
"O#	c #A5A4A2",
"P#	c #D3D4D4",
"Q#	c #DEDDDD",
"R#	c #E6E6E5",
"S#	c #EBEBEA",
"T#	c #EBEBEB",
"U#	c #ECECE9",
"V#	c #EAEAEA",
"W#	c #F1EDBA",
"X#	c #DFD94D",
"Y#	c #9F9104",
"Z#	c #52430B",
"`#	c #2A2410",
" $	c #5D570B",
".$	c #ACA307",
"+$	c #AF9F03",
"@$	c #5A4D08",
"#$	c #0E0C06",
"$$	c #414242",
"%$	c #988C5F",
"&$	c #584A11",
"*$	c #211E14",
"=$	c #797878",
"-$	c #BEBEBE",
";$	c #C9C7C5",
">$	c #D1D0CF",
",$	c #D6D5D4",
"'$	c #D9D9D8",
")$	c #D8D8D8",
"!$	c #D9D9D9",
"~$	c #DAD7C7",
"{$	c #E2CE4B",
"]$	c #C6AF0A",
"^$	c #A99303",
"/$	c #A78A04",
"($	c #BEB007",
"_$	c #E9E10B",
":$	c #C6B605",
"<$	c #A99603",
"[$	c #85700A",
"}$	c #171304",
"|$	c #94969D",
"1$	c #C8C6C3",
"2$	c #AEAB9D",
"3$	c #807238",
"4$	c #463E15",
"5$	c #211D10",
"6$	c #645A37",
"7$	c #979590",
"8$	c #ABABAB",
"9$	c #BBBAB8",
"0$	c #BEBDBB",
"a$	c #C4C2C0",
"b$	c #C4C3C1",
"c$	c #C1B894",
"d$	c #8D781F",
"e$	c #514204",
"f$	c #504006",
"g$	c #675407",
"h$	c #A08807",
"i$	c #816F0A",
"j$	c #544506",
"k$	c #524305",
"l$	c #544203",
"m$	c #756725",
"n$	c #F1EAC3",
"o$	c #B6B5B9",
"p$	c #AAA495",
"q$	c #7D6E2E",
"r$	c #89720B",
"s$	c #957A0A",
"t$	c #7A7048",
"u$	c #82817F",
"v$	c #9A9998",
"w$	c #A1A1A0",
"x$	c #A8A7A5",
"y$	c #AAAAA6",
"z$	c #A6A6A6",
"A$	c #9C9471",
"B$	c #635210",
"C$	c #4E3F05",
"D$	c #554508",
"E$	c #524104",
"F$	c #483904",
"G$	c #4A3B05",
"H$	c #584603",
"I$	c #594803",
"J$	c #655005",
"K$	c #CFBA03",
"L$	c #EBD30F",
"M$	c #E5C648",
"N$	c #BBBABB",
"O$	c #A6A08A",
"P$	c #806E1B",
"Q$	c #897106",
"R$	c #847432",
"S$	c #77746D",
"T$	c #5F5D5B",
"U$	c #737271",
"V$	c #82807F",
"W$	c #858483",
"X$	c #807651",
"Y$	c #5C4A08",
"Z$	c #504004",
"`$	c #5A4804",
" %	c #564506",
".%	c #574403",
"+%	c #5B4903",
"@%	c #574503",
"#%	c #726008",
"$%	c #856E05",
"%%	c #9A822C",
"&%	c #C9C8C7",
"*%	c #9C9578",
"=%	c #725F18",
"-%	c #6C5F35",
";%	c #9F9FA0",
">%	c #706F6E",
",%	c #373736",
"'%	c #3D3C3A",
")%	c #4F4624",
"!%	c #574606",
"~%	c #574603",
"{%	c #5B4B04",
"]%	c #594805",
"^%	c #594604",
"/%	c #574504",
"(%	c #544204",
"_%	c #514005",
":%	c #615114",
"<%	c #817759",
"[%	c #ABA798",
"}%	c #99948D",
"|%	c #D7D7D8",
"1%	c #646463",
"2%	c #323231",
"3%	c #121418",
"4%	c #2C260E",
"5%	c #544305",
"6%	c #5B4A03",
"7%	c #5C4B03",
"8%	c #5D4C09",
"9%	c #5A4706",
"0%	c #625213",
"a%	c #897E52",
"b%	c #CCC8B6",
"c%	c #E3E2E1",
"d%	c #D6D6D6",
"e%	c #C1C1C0",
"f%	c #AEAEAF",
"g%	c #9E9986",
"h%	c #695A21",
"i%	c #5F4D09",
"j%	c #5D4C03",
"k%	c #5C4A03",
"l%	c #5C4C07",
"m%	c #665920",
"n%	c #7E754C",
"o%	c #A6A498",
"p%	c #857B58",
"q%	c #5C4C12",
"r%	c #594A08",
"s%	c #605116",
"t%	c #6C5E2C",
"u%	c #807753",
"v%	c #A19E99",
"w%	c #B9B9B8",
"x%	c #BDBDBD",
"y%	c #BDBCBB",
"z%	c #CCCBCA",
"A%	c #B2AD96",
"B%	c #A9A38C",
"                                                                                                ",
"                                                                                                ",
"                                                                                                ",
"                                                . + @ #                                         ",
"                                              $ % & * = - ;                                     ",
"                                            > , ' ) ! ~ { ] ^                                   ",
"                                          / ( _ : < [ } | 1 2 3                                 ",
"                                        4 5 6 7 8 9 0 a b c d e                                 ",
"                                      f g h i j k l m n o o p q r                               ",
"                                      s t u v w x y z A B C C D E                               ",
"                                    F G H I J K L M ^ N O P B Q R                               ",
"                                    S T U w ^ V W X Y Z o `  .{ ..                              ",
"                                    +.@.#.@ $.%.&.*.=.> { -.B o ;.>.                            ",
"                                    ,.'.).!.~.{.% ].^./.D c c 1 (._.                            ",
"                                      :.<.[.}.|.1.2.] 3.4.1 b o 5.6.                            ",
"                                      7.8.9.0.a.b.c.d.e.f.o g.1 k h.                            ",
"                                      i.j.k.l.m.n.o.p.q.r.s.p o t.u.                            ",
"                                    v.w.x.y.z.A.B.C.D.E.F.G.o C ).H.                            ",
"                                    I.J.K.L.M.N.O.P.Q.R.S.| b T.U.V.                            ",
"                                  . W.X.Y.Z.`. +.+++G @+#+$+p %+G.&+                            ",
"                        >.*+=+-+#.;+>+,+'+)+!+~+{+]+^+/+(+_+:+<+o [+                            ",
"                      }+|+1+2+3+4+5+6+* 7+8+9+0+a+b+c+d+e+f+g+h+i+j+k+                          ",
"                    l+m+n+o+p+q+r+_+s+t+u+v+w+x+y+z+z+z+A+B+C+D+E+$+F+G+                        ",
"                    H+I+J+K+L+M+N+T.O+P+Q+^ R+S+z+z+z+z+T+U+V+W+X+Y+Z+`+                        ",
"                     @.@+@@@#@$@%@&@*@=@-@;@>@,@z+z+z+z+'@)@3+_ !@~@Z G.{@                      ",
"                    ]@^@/@(@_@:@f+H.<@,@[@d+z+z+z+z+z+z+c+}@|@1@2@3@4@5@6@                      ",
"                    7@8@9@0@a@b@c@d@z+z+z+z+z+z+z+z+z+z+z+e@f@* -.g@h@i@j@k@                    ",
"                    /.l@m@n@o@p@Y z+z+z+z+z+z+z+z+z+z+z+z+c+q@).C { r@s@t@u@                    ",
"                      v@w@o@x@y@z@z+z+z+z+z+z+z+z+z+z+z+z+z+A@B@C@D@E@F@` G@                    ",
"                      H@I@J@K@L@M@N@z+z+O@P@z+z+z+z+z+z+z+Q@Q@R@{ S@T@U@V@W@                    ",
"                      X@Y@Z@`@C  #.#z+z+z+z+z+z+z+z+z+z+z+d@+#@###$#P %#o &#                    ",
"                      *#=#-#;#>#v+,#z+z+z+z+z+z+z+z+z+z+z+c+'#)#!#p G.C ~#{#                    ",
"                    ]#^#/#(#d+_#:#<#z+z+z+z+z+z+z+z+z+z+d@[#}#|#p 1 B T.U.3+                    ",
"                    1#2#3#4#5#6#7#<#z+z+z+z+z+z+z+z+z+z+8#+.9#U.b 1 b 0#a#h+                    ",
"                    b#c#d#e#f#g#h#i#j#d@z+z+z+z+z+z+z+k#l#m#p C c $+i+n#(+o#                    ",
"                      p#q#r#s#t#u#v#w#x#c+y#y#y#y#z#z#A#B#C#D#d E#F#G#H#I#J#                    ",
"                        K#L#M#G.N#O#P#Q#R#S#S#T#U#V#W#X#Y#Z#`# $.$+$@$#$$$                      ",
"                          %$&$*$F+=$-$;$>$,$'$)$!$~${$]$^$/$($_$:$<$[$}$|$                      ",
"                        1$2$3$4$5$6$7$8$9$0$a$a$b$c$d$e$f$g$h$i$j$k$l$m$n$                      ",
"                        [#o$p$q$r$s$t$u$v$w$x$y$z$A$B$C$D$E$F$G$H$I$J$K$L$M$                    ",
"                            N$O$P$Q$R$S$T$U$V$W$:#X$Y$Z$`$ %.%.%+%@% %#%$%%%                    ",
"                            &%z *%=%-%;%>%u 5+,%'%)%!%~%{%]%`$+%^%/%(%_%:%<%                    ",
"                                  [%}%|%0$# 1%2%3%4%5%6%7%7%7%8%6%9%0%a%b%                      ",
"                                          c%d%e%f%g%h%i%7%j%k%l%m%n%o%                          ",
"                                                    p%q%r%s%t%u%v%w%x%y%z%                      ",
"                                                        A%B%                                    ",
"                                                                                                ",
"                                                                                                "};
