/* XPM */
static char * coke3_xpm[] = {
"60 57 246 2",
"  	c None",
". 	c #A9A8A7",
"+ 	c #6B6B6A",
"@ 	c #4D4D4C",
"# 	c #7A7978",
"$ 	c #B5B7C2",
"% 	c #BAB9B7",
"& 	c #444443",
"* 	c #100E0D",
"= 	c #11110F",
"- 	c #181715",
"; 	c #1B1A14",
"> 	c #0C0C0C",
", 	c #E3E3E3",
"' 	c #92918D",
") 	c #131312",
"! 	c #22211F",
"~ 	c #242423",
"{ 	c #1C1C1B",
"] 	c #010101",
"^ 	c #2D2D2C",
"/ 	c #D8D8DA",
"( 	c #888887",
"_ 	c #3D3E4A",
": 	c #949493",
"< 	c #474747",
"[ 	c #282827",
"} 	c #3D3D3C",
"| 	c #282726",
"1 	c #10100F",
"2 	c #D5D5D4",
"3 	c #545454",
"4 	c #EDEDEC",
"5 	c #F4F4F4",
"6 	c #5C5B5B",
"7 	c #F5F6FB",
"8 	c #747473",
"9 	c #070809",
"0 	c #E9E7E7",
"a 	c #BBB8B6",
"b 	c #C3C1BF",
"c 	c #CFCFD5",
"d 	c #AEAEAD",
"e 	c #9B9B9A",
"f 	c #0A0404",
"g 	c #BDBCBC",
"h 	c #1F2127",
"i 	c #EFF0F2",
"j 	c #CCC5C2",
"k 	c #953535",
"l 	c #761514",
"m 	c #8B2727",
"n 	c #8B625B",
"o 	c #777678",
"p 	c #1A1804",
"q 	c #535045",
"r 	c #0D0C1A",
"s 	c #696A73",
"t 	c #6B695A",
"u 	c #101010",
"v 	c #585857",
"w 	c #624442",
"x 	c #B07876",
"y 	c #A95A5B",
"z 	c #994D49",
"A 	c #662716",
"B 	c #552022",
"C 	c #736A55",
"D 	c #B4A61E",
"E 	c #DED80D",
"F 	c #E4DA1D",
"G 	c #C3AA1A",
"H 	c #8A7724",
"I 	c #5D5228",
"J 	c #2C2C37",
"K 	c #393837",
"L 	c #7D7C7C",
"M 	c #301F1E",
"N 	c #C88D8B",
"O 	c #CDCCCC",
"P 	c #C7A09F",
"Q 	c #B48582",
"R 	c #521E1B",
"S 	c #261C13",
"T 	c #362608",
"U 	c #2C220D",
"V 	c #574C18",
"W 	c #A08604",
"X 	c #D8B704",
"Y 	c #F2C701",
"Z 	c #716C2E",
"` 	c #1F1E26",
" .	c #733C3B",
"..	c #8C302F",
"+.	c #735A57",
"@.	c #492727",
"#.	c #090309",
"$.	c #150002",
"%.	c #2F190E",
"&.	c #7C5D18",
"*.	c #C9A305",
"=.	c #FFED09",
"-.	c #AEA424",
";.	c #03050C",
">.	c #8E8D8C",
",.	c #1B0707",
"'.	c #5D0908",
").	c #530D0C",
"!.	c #4B0D0C",
"~.	c #341B04",
"{.	c #645207",
"].	c #674F07",
"^.	c #4C3B09",
"/.	c #463717",
"(.	c #362A27",
"_.	c #A9880A",
":.	c #EDC400",
"<.	c #372F0F",
"[.	c #0A0C13",
"}.	c #B4B4B4",
"|.	c #370303",
"1.	c #58100F",
"2.	c #430B0A",
"3.	c #979378",
"4.	c #B59615",
"5.	c #A48502",
"6.	c #A6870B",
"7.	c #836B05",
"8.	c #3A3216",
"9.	c #947B0A",
"0.	c #42370A",
"a.	c #DDDDDC",
"b.	c #343433",
"c.	c #473906",
"d.	c #2A2119",
"e.	c #4E4009",
"f.	c #8D6E6B",
"g.	c #260C04",
"h.	c #90908F",
"i.	c #7B7665",
"j.	c #342813",
"k.	c #89826C",
"l.	c #A4A4A4",
"m.	c #656564",
"n.	c #858071",
"o.	c #786F4E",
"p.	c #4B4239",
"q.	c #FFFFFF",
"r.	c #43403D",
"s.	c #898888",
"t.	c #D0D2D2",
"u.	c #83817D",
"v.	c #858584",
"w.	c #999997",
"x.	c #FFFDF7",
"y.	c #383633",
"z.	c #201F1D",
"A.	c #53514F",
"B.	c #C4C4C4",
"C.	c #605D5B",
"D.	c #413E3C",
"E.	c #595857",
"F.	c #D9D9D6",
"G.	c #ADADB3",
"H.	c #E1DFDE",
"I.	c #6B6967",
"J.	c #888889",
"K.	c #C1BFC2",
"L.	c #E0E0E0",
"M.	c #FAF7EC",
"N.	c #FEFA37",
"O.	c #FBEA1B",
"P.	c #F1DA86",
"Q.	c #F6F4EC",
"R.	c #D3C31C",
"S.	c #FFFF03",
"T.	c #F9DB01",
"U.	c #E3C965",
"V.	c #CBC3AA",
"W.	c #CABD03",
"X.	c #FEF507",
"Y.	c #FEEE01",
"Z.	c #DCB517",
"`.	c #E8E3C9",
" +	c #786416",
".+	c #967C05",
"++	c #E8C007",
"@+	c #BEA021",
"#+	c #B4AD86",
"$+	c #4C3C04",
"%+	c #C39C02",
"&+	c #9A8532",
"*+	c #B3B4BB",
"=+	c #9E904E",
"-+	c #594604",
";+	c #A3986C",
">+	c #B4AA6E",
",+	c #5C4B03",
"'+	c #030410",
")+	c #55470A",
"!+	c #7A6603",
"~+	c #3C3103",
"{+	c #857636",
"]+	c #6A5600",
"^+	c #AD9307",
"/+	c #A8A499",
"(+	c #CAC9C8",
"_+	c #FAEF3E",
":+	c #59500A",
"<+	c #CCC507",
"[+	c #AD8D08",
"}+	c #857947",
"|+	c #D4D3CF",
"1+	c #D1D4E2",
"2+	c #E1D181",
"3+	c #9A7E0A",
"4+	c #F8F007",
"5+	c #B39706",
"6+	c #8A7207",
"7+	c #715D0B",
"8+	c #A9A288",
"9+	c #624F03",
"0+	c #827D72",
"a+	c #B9A244",
"b+	c #4A3800",
"c+	c #F9F2D6",
"d+	c #9C8E69",
"e+	c #B0B0AE",
"f+	c #B4B3AD",
"g+	c #554403",
"h+	c #F7D859",
"i+	c #958856",
"j+	c #755D04",
"k+	c #909093",
"l+	c #513F04",
"m+	c #B7A006",
"n+	c #CDBB6E",
"o+	c #423304",
"p+	c #827961",
"q+	c #675918",
"r+	c #9D9572",
"s+	c #E2E1DF",
"t+	c #7F7754",
"u+	c #5F531D",
"v+	c #B0B1B7",
"w+	c #776C45",
"                                                                                                                        ",
"                                                                                                                        ",
"                                                                                                                        ",
"                                                                                                                        ",
"                                                                                                                        ",
"                                                                . + @ @ # $                                             ",
"                                                            % & * = - ; * > @ ,                                         ",
"                                                          ' ) - ! ~ ! ! ~ { ] ^ /                                       ",
"                                                        ( > ! ! ! ! { ; { ! - ] _                                       ",
"                                                      : ^ < ; ! ! ) [ } | ; 1 ) ] (                                     ",
"                                                    2 3 4 5 3 { - 6 5 7 8 ) > = 9 |                                     ",
"                                          0 a b c   # d d / e f } 4 g 4 b h > ) * 9 %                                   ",
"                                      i j k l m n ' o # p q _ r s 6 = t 2 { > u ) ] (                                   ",
"                                    4 v w x y z A B C D E F G H I { J K L 9 u u ) ] L                                   ",
"                                  4 v M N O P Q n R S T U V W X Y X Z ` - > ) > ) ] L                                   ",
"                                  o u  .y k ..l +.@.#.$.f r r %.&.*.=.-.;.) > > ) ] >.                                  ",
"                                e h ,.'.'.l ).!.!.~.{.].^././.(.@.@._.:.<.[.1 1 1 #.}.                                  ",
"                              % | 9 |.1.1.1.|.2.,.3.4.5.6.7.V 8.U S /.9.0.#.1 1 * * a.                                  ",
"                            a.b.9 f |.|.2.2.|.$.@ , 8.c.T d.r > [.; c.e.{ [.1 1 9 ~                                     ",
"                            v ] 9 +.f. .!.g.g.f h.@ h i./.S S - > j.k.& { - * 1 ] 3                                     ",
"                          l.] ] - m.m.# C j.f #.! 9 3 : n.o.I p.>.a.q.l.^ ~ > ) ] L                                     ",
"                          ^ ] ] ] = ~ ^ @ r.> { ! ; + s.s.o L t.q.7 q.}.} & ) ) ] (                                     ",
"                        b 9 ] ] ] ] ~ & < b.{ [ ) { u.v.L w.4 q.x.x.q.. y.6 z.* ] 3                                     ",
"                        d ] ] ] ] ] ] 1 ^ ^ b.^ 9 } w.e O 7 q.q.q.x.q.d b.+ A.> > > B.                                  ",
"                        0 - ] ] ] ] ] ] ] ) 8 y.9 C.t.q.q.q.q.q.q.x.q.% r.3 l.D.9 f E.                                  ",
"                          d ] ] ] ] ] ] ] 9 ^ ! ; ( 5 q.x.q.q.q.q.q.q.B.6 D.h.F.{ > 9 G.                                ",
"                            g & 9 ] ] ] ] 9 ) 9 & d q.q.q.q.q.q.q.q.q.a.v.@ y.a d 9 9 ^ i                               ",
"                                H.' m.& y.z.#.[ L O q.q.q.q.q.q.q.q.q.7 b + ~ [ . I.] ] (                               ",
"                                          8 9 L >.4 q.q.q.q.q.q.q.q.q.q., . } ! K o b.9 - ,                             ",
"                                          < t J.. q.q.q.q.q.q.q.q.q.q.q.F.s.8 ! } I.6 - ] o                             ",
"                                        / 3 h.L O q.q.q.q.q.q.q.q.q.q.q.4 3 3 ^ > [ 6 [ 9 { a.                          ",
"                                        B.u.( : i q.q.q.q.q.q.q.q.q.q.q.q.w.{ | ) ] ) ^ - ] L                           ",
"                                        g L L g q.q.q.q.q.q.q.q.q.q.q.q.q.4 } - ) > f ^ - ] }                           ",
"                                        w.' B.x.q.q.q.q.q.q.q.q.q.q.q.q.x.q.. > u > ) D.u > ) /                         ",
"                                        b q.q.q.q.q.q.q.q.q.q.q.q.q.q.q.q.q.q.< 9 9 < ^ 9 u > %                         ",
"                                      4 7 q.q.q.q.q.q.q.q.q.q.q.q.q.q.q.q.q.q.J.] < v 9 u 1 > K.                        ",
"                                      4 5 q.q.q.q.q.q.q.q.q.q.q.q.q.q.q.q.x.7 ' b.+ u > 1 1 > O                         ",
"                                      0 5 q.q.q.q.q.q.q.q.q.q.q.q.q.q.q.x.x.L.L + - 9 ) ) 9 ^                           ",
"                        M.N.O.P.      a.5 q.q.q.q.q.q.q.q.q.q.q.q.q.q.q.q.4 v.v - > ) > ) ] 3                           ",
"                        Q.R.S.T.U.Q.  a.5 q.q.q.q.q.q.q.q.q.q.q.q.q.q.q.i J.@ ) > u > > ) ] v                           ",
"                          V.W.X.Y.Z.`.a., x.q.q.q.q.q.q.q.q.q.q.q.q.q.q.v.K 1 > [.* > [.) ] 6                           ",
"                          Q. +.+=.++@+B./ 4 7 q.q.q.q.q.q.q.q.q.q.q.q.' z.[.> 1 = = ) > f ] #                           ",
"                            #+$+6.:.%+&+B., 4 5 x.q.q.q.q.q.q.q.x.q.*+r > * ) 1 ;.;.] ] ] ] .                           ",
"                              =+-+_.%+5.;+c 2 a., 4 5 5 5 5 5 5 i 7 >+,+S ;.'+#.)+!+~+] 9 u a.                          ",
"                                {+]+_.^+W /+(+O / a.L., L.L., , a._+S.Y.%+0.:+<+S.S.T.:+] @                             ",
"                                `. +!+[+5.}+G.g b (+O t.2 2 |+1+2+X W 7.3+X S.4+5+7.6+7+] $                             ",
"                              B.*+8+9+6+5.3+0+l.d % a b b b b B.a+9+~+c.c.7.^+].0.c.e.b+{+c+                            ",
"                              4 }.*+d+]+3+5. +8 : l.l.d e+d d f+H $+e.)+-+0.0.c.g+9+,+7+=.Y.h+M.                        ",
"                                  % }.i+j+3+.+o.6 # >.: k+h.k+'  +$+l+-+-+l+g+g+-+,+g+{.6.m+%+n+                        ",
"                                    b }.}+j+7.}+k+K } I.8 8 8 i.7+$+g+,+-+-+-+-+-+g+$+$+^.^.o+d+                        ",
"                                      a.g {+b+t $ e @ u 1 { { z.,+e.,+,+,+-+,+,+-+-+,+,+g+:+3.                          ",
"                                          H.p+$ 4 (+% : A.| 1 9 e.g+,+,+,+,+,+,+,+,+g+q+r+s+                            ",
"                                                    0 L.t.K.d G.}+-+,+,+,+,+9+,+-+q+t+g                                 ",
"                                                                r+l+,+,+,+-+g+u+p+l.v+. . g                             ",
"                                                                t.0+u+)+I w+3.}.O (+O 2 a.,                             ",
"                                                                    i 4 i                                               ",
"                                                                                                                        "};
