/* XPM */
static char * coke2_xpm[] = {
"60 57 247 2",
"  	c None",
". 	c #E9E9E8",
"+ 	c #9D9D9C",
"@ 	c #858584",
"# 	c #757474",
"$ 	c #7C7C7B",
"% 	c #A4A29F",
"& 	c #E4E4E4",
"* 	c #949493",
"= 	c #282725",
"- 	c #11110F",
"; 	c #0D0D0D",
"> 	c #070808",
", 	c #0A0604",
"' 	c #131312",
") 	c #6D6D6C",
"! 	c #ECECEC",
"~ 	c #8D8C8B",
"{ 	c #1D1C1B",
"] 	c #23211D",
"^ 	c #252423",
"/ 	c #010102",
"( 	c #2D2C2B",
"_ 	c #DAD9D7",
": 	c #93918D",
"< 	c #585654",
"[ 	c #101010",
"} 	c #BDBDBC",
"| 	c #181716",
"1 	c #31302F",
"2 	c #534F4C",
"3 	c #DDDDDD",
"4 	c #0A0C13",
"5 	c #171818",
"6 	c #ECEDF2",
"7 	c #3B3936",
"8 	c #211F1C",
"9 	c #343433",
"0 	c #FFFFFF",
"a 	c #636363",
"b 	c #444443",
"c 	c #4D4C4B",
"d 	c #F5F6FB",
"e 	c #A8A8A7",
"f 	c #555453",
"g 	c #5B5B5A",
"h 	c #888786",
"i 	c #FEFCF7",
"j 	c #908F8D",
"k 	c #5B5957",
"l 	c #E0E0E0",
"m 	c #8A8987",
"n 	c #D3D2CF",
"o 	c #292927",
"p 	c #353436",
"q 	c #3D3C3B",
"r 	c #9A9998",
"s 	c #F5F5F5",
"t 	c #D9D7D7",
"u 	c #7A7977",
"v 	c #696865",
"w 	c #ABA9A8",
"x 	c #3F3F41",
"y 	c #484746",
"z 	c #030510",
"A 	c #5E583C",
"B 	c #AAA795",
"C 	c #7C7200",
"D 	c #DACA04",
"E 	c #F5EF06",
"F 	c #EDEA07",
"G 	c #DDDA06",
"H 	c #BDB815",
"I 	c #251D12",
"J 	c #C5C4C5",
"K 	c #CDCCCC",
"L 	c #E2E0DF",
"M 	c #FDEA94",
"N 	c #FDF401",
"O 	c #FFFE09",
"P 	c #FFFE04",
"Q 	c #FFF608",
"R 	c #FFFD19",
"S 	c #FFFF9B",
"T 	c #FCF568",
"U 	c #8A7403",
"V 	c #03040E",
"W 	c #D5D5D4",
"X 	c #C9C7C4",
"Y 	c #C6C9C1",
"Z 	c #A3A3A3",
"` 	c #CAA907",
" .	c #F6D702",
"..	c #F9E604",
"+.	c #FFEC01",
"@.	c #FEDC01",
"#.	c #5E4D0D",
"$.	c #CAC9C8",
"%.	c #B26464",
"&.	c #A8595A",
"*.	c #AC625B",
"=.	c #A17A5D",
"-.	c #735E58",
";.	c #613A3A",
">.	c #776766",
",.	c #FCF2C8",
"'.	c #FFFF60",
").	c #FFFC36",
"!.	c #FED302",
"~.	c #FACC04",
"{.	c #D1AA05",
"].	c #9F8306",
"^.	c #715D0B",
"/.	c #873331",
"(.	c #87191B",
"_.	c #7C0508",
":.	c #641912",
"<.	c #52170F",
"[.	c #480000",
"}.	c #614F4C",
"|.	c #DAD0AE",
"1.	c #CBB901",
"2.	c #E2D50C",
"3.	c #D3BD17",
"4.	c #B49606",
"5.	c #A48909",
"6.	c #816809",
"7.	c #53450B",
"8.	c #262116",
"9.	c #916761",
"0.	c #A7746C",
"a.	c #934944",
"b.	c #985C59",
"c.	c #766756",
"d.	c #846A04",
"e.	c #695401",
"f.	c #554403",
"g.	c #08070B",
"h.	c #E3CFB8",
"i.	c #978170",
"j.	c #845C4F",
"k.	c #583D39",
"l.	c #797469",
"m.	c #3D3626",
"n.	c #413E39",
"o.	c #1A1916",
"p.	c #AD8584",
"q.	c #D4B4B7",
"r.	c #550D0C",
"s.	c #330C08",
"t.	c #909092",
"u.	c #625D4F",
"v.	c #B5B5B7",
"w.	c #963838",
"x.	c #680F10",
"y.	c #490A0A",
"z.	c #3D0B09",
"A.	c #2E0C06",
"B.	c #B0B1B7",
"C.	c #670D0C",
"D.	c #430A0A",
"E.	c #240D05",
"F.	c #817E78",
"G.	c #4F1010",
"H.	c #140904",
"I.	c #544036",
"J.	c #B4B4B5",
"K.	c #C1BFC2",
"L.	c #66645C",
"M.	c #2E1008",
"N.	c #402626",
"O.	c #3E1A1A",
"P.	c #101225",
"Q.	c #302E2D",
"R.	c #CCCDD4",
"S.	c #4B4A44",
"T.	c #B5B7C2",
"U.	c #D1D4E2",
"V.	c #F7F5EC",
"W.	c #F2E21A",
"X.	c #B8AE8A",
"Y.	c #9B8D67",
"Z.	c #ADADAD",
"`.	c #C1BFBB",
" +	c #6C6708",
".+	c #BAB9B7",
"++	c #776314",
"@+	c #977D05",
"#+	c #FEED09",
"$+	c #776300",
"%+	c #4C3D03",
"&+	c #635931",
"*+	c #9E914E",
"=+	c #594604",
"-+	c #A58501",
";+	c #C8A105",
">+	c #8E8352",
",+	c #B4AA6E",
"'+	c #5C4B03",
")+	c #3C3103",
"!+	c #857538",
"~+	c #685607",
"{+	c #AC8C08",
"]+	c #957C0A",
"^+	c #E3E1DF",
"/+	c #FAEF3E",
"(+	c #45370A",
"_+	c #59500A",
":+	c #CCC507",
"<+	c #5D4F19",
"[+	c #7A6704",
"}+	c #8F8148",
"|+	c #ACAEB4",
"1+	c #E1D181",
"2+	c #DAB701",
"3+	c #9A7E0A",
"4+	c #897008",
"5+	c #A7A082",
"6+	c #624F03",
"7+	c #C3C1BE",
"8+	c #B9A244",
"9+	c #423304",
"0+	c #473906",
"a+	c #AD9307",
"b+	c #513F04",
"c+	c #4A3800",
"d+	c #F9F2D6",
"e+	c #9D9572",
"f+	c #7F691D",
"g+	c #B0B0AE",
"h+	c #B4B3AD",
"i+	c #8B7927",
"j+	c #4F4006",
"k+	c #755D04",
"l+	c #F7D859",
"m+	c #958856",
"n+	c #C19900",
"o+	c #CDBB6E",
"p+	c #8A7E4F",
"q+	c #98927B",
"r+	c #7F7754",
"s+	c #675918",
"t+	c #837643",
"u+	c #5F531A",
"v+	c #827961",
"w+	c #5F5323",
"x+	c #776C45",
"                                                                                                                        ",
"                                                                                                                        ",
"                                                                                                                        ",
"                                                          . + @ # $ % &                                                 ",
"                                                        * = - ; - > , ' ) !                                             ",
"                                                      ~ ; { ] ^ ^ ] - ; / ( _                                           ",
"                                                    : ; { { ^ < ) = ' [ ' / ( .                                         ",
"                                                  } | ^ 1 = ^ 2 3 * | ; 4 5 / #                                         ",
"                                                6 7 8 2 ) < 9 ] ~ 0 a > [ [ ; { &                                       ",
"                                                * ; ( ) @ ) b { c d e ; [ [ - / *                                       ",
"                                                f ] = g * h b { f i j [ [ [ - / k                                       ",
"                                              l ( 9 7 c + m f = ( n c / [ [ [ > o                                       ",
"                                              e p } # q r $ ( ~ @ c ^ ; [ [ [ > {                                       ",
"                                              $ m s t # % g * 0 0 @ > [ [ [ [ ; | .                                     ",
"                                              h @ 1 c u v c w 9 k } ^ > [ ; [ ; [ l                                     ",
"                                              + 7 o | { b x o ^ [ < b > [ [ [ [ 4 t                                     ",
"                                              l y z ; 7 A | > / / = 9 / ; ; ; ; ; _                                     ",
"                                                B C D E F G H A I 4 > / ; [ [ ; ; _                                     ",
"                            . & l J K L         M N O P E Q R S T U V [ [ [ [ ; - _                                     ",
"                            W X W Y ~ a Z       T E O F `  . ...+.@.#.z - ; [ ; [ $.                                    ",
"                            %.&.*.=.-.;.>.    ,.Q P '.).@.!.!.~.{.].^.[ [ - [ - / Z                                     ",
"                          ! /.(._.:.<.[.}.    |.1.2.3.` 4.5.6.7.8.4 [ [ ; 4 [ - / a                                     ",
"                        K { 9.0.a.b.c.;.>.3 @ p #.d.e.f.8.[ V V / ( b > [ ; [ [ g.8 !                                   ",
"                        % > 0.h.i.j.}.k.I * l.| | m.2 n.8.' ' o.7 K $.; ; | ; ; ' / *                                   ",
"                        h / p.q.a.:.r.s.; 9 g g [ a t.m l.u.< g v.0 . ^ 5 8 = ; 4 > =                                   ",
"                        u / /.w.x.y.z.A./ / a c 8 $ m @ $ $ a B.0 i i c 5 { k a > - / *                                 ",
"                        $ / r.C.D.D.z.E./ > p { x j h F.# ) B.0 i i 0 $ ' { 7 $.~ / ; = l                               ",
"                        @ / G.r.z.D.A.H./ ; [ I.j h h # F.K 0 0 0 0 0 J.b ^ { b X k / / u                               ",
"                        @ / D.D.D.s.E., / > p & X $ $ * ! 0 0 0 0 0 0 i K.L.] | 7 ~ ( > { l                             ",
"                        $ / D.D.z.M.H./ / | X 0 s K 3 0 0 0 0 0 0 0 0 0 _ m f o.( a a | / #                             ",
"                        ) / N.O.E.H./ ' b * 0 0 0 0 0 0 0 0 0 0 0 0 0 0 . k L.= g.= < o > { 3                           ",
"                        $.{ ; ^ c @ ~ $.! ! 0 0 0 0 0 0 0 0 0 0 0 0 0 0 0 t.P.o ' / ' Q.5 / F.                          ",
"                            t .         R.h . 0 0 0 0 0 0 0 0 0 0 0 0 0 0 6 q | ' ; > ( 5 / q                           ",
"                                        + $ l 0 0 0 0 0 0 0 0 0 0 0 0 0 i 0 e ; - ; [ I.[ 4 [ 3                         ",
"                                        ~ m ! 0 0 0 0 0 0 0 0 0 0 0 0 0 0 0 0 S.> > b 1 > [ ; v.                        ",
"                                      & h ~ d 0 0 0 0 0 0 0 0 0 0 0 0 0 0 i 0 h / b k > [ [ [ K.                        ",
"                                      K $ r 0 0 0 0 0 0 0 0 0 0 0 0 0 0 0 i i * ( ) [ ; [ [ ; $.                        ",
"                                      T.u % 0 0 0 0 0 0 0 0 0 0 0 0 0 0 0 0 U.$ ) | ; [ [ > Q.                          ",
"                        V.).W.X.      B.u w 0 0 0 0 0 0 0 0 0 0 0 0 0 0 0 ! @ k | > [ [ [ / f                           ",
"                        V.3.P D Y.6   Z.u J.0 0 0 0 0 0 0 0 0 0 0 0 0 0 6 h c ' ; [ [ [ ' / f                           ",
"                          `.1.P  +P.$.} # .+0 0 0 0 0 0 0 0 0 0 0 0 0 0 @ 7 [ ; [ 4 4 - | / k                           ",
"                          V.++@+#+$+Q.Z.$ J 0 0 0 0 0 0 0 0 0 0 0 0 0 * 8 4 ; [ - - - g.> / u                           ",
"                            X.%+5.~.].&+h t ! ! i i 0 0 0 0 0 0 i 0 v.4 g.- - [ V V / / / / e                           ",
"                              *+=+-+;+-+>+R.t L & 6 s s s s s s 6 d ,+'+8.z z g.7.C )+/ > [ 3                           ",
"                              V.!+~+{+4.]+B X K t _ l & l l ^+& 3 /+P N ;+(+_+:+P P @.<+/ y                             ",
"                                } ~+[+{+-+}+|+} J $.K W n W n U.1+2+3+d.3+2+P E 4.[+4+^.V }                             ",
"                              $.J.5+6+4+-+]+F.% B.v..+7+7+7+7+J 8+6+9+(+0+6.a+~+0+0+b+c+!+d+                            ",
"                              . J.J.e+e.3+-+f+# : Z % Z.g+g+g+h+i+%+j+=+f.(+9+0+f.'+=+k+Q +.l+V.                        ",
"                                V..+J.m+k+3+]+c.g # ~ * * j j : ++%+f.=+f.f.7.f.'+'+f.~+5.4.n+o+                        ",
"                                    7+B.!+k+d.p+* 7 b a # # # # ^.%+=+'+f.=+=+=+=+=+j+%+(+j+9+Y.                        ",
"                                      3 T.!+c+L.T.+ c ; ; | { ] '+j+=+'+'+'+'+'+=+f.=+=+f._+q+                          ",
"                                          3 r+J ! $.v.r f = [ > j+7.=+'+'+'+'+'+'+'+=+s+e+^+                            ",
"                                                    . l W 7+Z.|+t+f.#.'+'+6+'+'+=+s+r+}                                 ",
"                                                                e+b+'+'+'+f.=+u+v+Z B.w e }                             ",
"                                                                W F.<+7.w+x+q+B.K $.K W 3 &                             ",
"                                                                      ! !                                               ",
"                                                                                                                        "};
