/* XPM */
static char * coke1des5_xpm[] = {
"60 57 49 1",
" 	c None",
".	c #CAC9C9",
"+	c #C9C9C9",
"@	c #C9C9CA",
"#	c #C9CACA",
"$	c #D5D4C9",
"%	c #E1E0C9",
"&	c #DEDEC9",
"*	c #E1E1C9",
"=	c #E2E2C9",
"-	c #D6D4C9",
";	c #E0E0C9",
">	c #DDDAC9",
",	c #E2DDC9",
"'	c #E1DEC9",
")	c #E1DFC9",
"!	c #E2E0C9",
"~	c #E2DEC9",
"{	c #E2E1C9",
"]	c #E1DDC9",
"^	c #DDD9C9",
"/	c #DCD9C9",
"(	c #DAD8C9",
"_	c #D9D6C9",
":	c #D6D3C9",
"<	c #D3D1C9",
"[	c #D1CFC9",
"}	c #CACAC9",
"|	c #D4C9C9",
"1	c #D0C9C9",
"2	c #CBC9C9",
"3	c #CFC9C9",
"4	c #CDC9C9",
"5	c #CFCAC9",
"6	c #CDCAC9",
"7	c #DCDBC9",
"8	c #DEDBC9",
"9	c #D7D5C9",
"0	c #D2D0C9",
"a	c #D5D3C9",
"b	c #CFCDC9",
"c	c #DCD8C9",
"d	c #DBD8C9",
"e	c #D0CEC9",
"f	c #DAD7C9",
"g	c #D0CFC9",
"h	c #CFCEC9",
"i	c #D4D2C9",
"j	c #D1D0C9",
"                                                            ",
"                                                            ",
"                                                            ",
"                                                            ",
"                                 .+                         ",
"                                    +                       ",
"                                     +                      ",
"                                      +                     ",
"                                      @                     ",
"                                       +                    ",
"                                       +                    ",
"                                   #   .                    ",
"                                   .   .                    ",
"                                  #                         ",
"                                   .                        ",
"                                   +                        ",
"                         @.   .#+  +                        ",
"                         $ %%&    ++                        ",
"                         * =%*   -@                         ",
"                         * ;>,')!~ @                        ",
"                        {=  ~],]^       +                   ",
"                        >  /(_          +                   ",
"                         :<[  @@+  .    .                   ",
"                                         +                  ",
"                                         #                  ",
"                     +                  . +                 ",
"                     +                   +                  ",
"                    }.                    ++                ",
"             .| |    +                     #                ",
"             +      .                       +               ",
"             +      +                   @   .               ",
"             .    12                     +   +              ",
"              1  3 2                      +  +              ",
"              4 5  .                                        ",
"               5 5 +                    +.  # #             ",
"               5 6 +                    +  #                ",
"               222++                                        ",
"                                          .  .              ",
"                                         .   +              ",
"              %6                        .    +              ",
"              78                             +              ",
"               9 @                         .++              ",
"               [  #                 @   @@++++              ",
"                0  #               0 @@+ ab+.               ",
"                 0                =*c   ==~ +               ",
"                    +            8 :98={da- +               ",
"                  <              0bee f eege                ",
"                   < _           gg [ehe[0[i!!              ",
"                    a99          egjj[[[00[ _(c             ",
"                     i:          g[0 jjjjjgg gh             ",
"                      e         0g000j00jjjj[0              ",
"                               #g[00000 0jj                 ",
"                                 [ 000000                   ",
"                                 [j00[[                     ",
"                                                            ",
"                                                            ",
"                                                            "};
