/* XPM */
static char * daemon3_xpm[] = {
"55 60 243 2",
"  	c None",
". 	c #C7C7D5",
"+ 	c #E7E7ED",
"@ 	c #E6D4D2",
"# 	c #69667B",
"$ 	c #A8AABA",
"% 	c #B69B98",
"& 	c #4B283B",
"* 	c #9494AC",
"= 	c #E9E7E8",
"- 	c #C6A9A9",
"; 	c #B58584",
"> 	c #4F1726",
", 	c #484A6B",
"' 	c #AC979D",
") 	c #C58C8B",
"! 	c #7D2123",
"~ 	c #34346A",
"{ 	c #D9D7D6",
"] 	c #F4ECE9",
"^ 	c #582C38",
"/ 	c #9B9BB2",
"( 	c #D6C5C3",
"_ 	c #96312E",
": 	c #733433",
"< 	c #333365",
"[ 	c #2A2749",
"} 	c #89888D",
"| 	c #B9B7B9",
"1 	c #AB9293",
"2 	c #825858",
"3 	c #51585F",
"4 	c #595A82",
"5 	c #898BA7",
"6 	c #D5D4DC",
"7 	c #6B3639",
"8 	c #322C5C",
"9 	c #DBE1E4",
"0 	c #B87C7C",
"a 	c #942629",
"b 	c #68383A",
"c 	c #333444",
"d 	c #5D3334",
"e 	c #331832",
"f 	c #592929",
"g 	c #652C2C",
"h 	c #482629",
"i 	c #3A334C",
"j 	c #2B2B5C",
"k 	c #322959",
"l 	c #25255B",
"m 	c #2D2C63",
"n 	c #50507B",
"o 	c #322454",
"p 	c #7D839C",
"q 	c #8E4242",
"r 	c #932F2F",
"s 	c #6B3333",
"t 	c #843333",
"u 	c #7B3333",
"v 	c #8C3333",
"w 	c #453555",
"x 	c #573645",
"y 	c #463548",
"z 	c #ADA0B4",
"A 	c #BAA7A8",
"B 	c #34345C",
"C 	c #A25756",
"D 	c #892828",
"E 	c #8C3A3B",
"F 	c #953433",
"G 	c #4D3444",
"H 	c #33334B",
"I 	c #322C44",
"J 	c #C6C5C7",
"K 	c #E6DDDD",
"L 	c #D3B2B2",
"M 	c #A76C67",
"N 	c #543235",
"O 	c #D9D6E2",
"P 	c #BF9495",
"Q 	c #793939",
"R 	c #9B3333",
"S 	c #653333",
"T 	c #5A333B",
"U 	c #6B2627",
"V 	c #3B3433",
"W 	c #2C2463",
"X 	c #541E22",
"Y 	c #6B322E",
"Z 	c #4C4579",
"` 	c #998C8A",
" .	c #C49E98",
"..	c #74292A",
"+.	c #352868",
"@.	c #1E0F57",
"#.	c #BCBCC6",
"$.	c #F9F9F7",
"%.	c #865E64",
"&.	c #C1C1BD",
"*.	c #A97B69",
"=.	c #3A333C",
"-.	c #3B3245",
";.	c #2D3268",
">.	c #7F7E9D",
",.	c #8E929B",
"'.	c #B9B0BD",
").	c #8F7173",
"!.	c #A3A0B4",
"~.	c #F8F8E8",
"{.	c #EDE6BB",
"].	c #A06A5C",
"^.	c #311A5B",
"/.	c #331B66",
"(.	c #1C1A53",
"_.	c #4C5E87",
":.	c #A69DA8",
"<.	c #FFFFDE",
"[.	c #F7FAD1",
"}.	c #99534D",
"|.	c #2F335C",
"1.	c #271B63",
"2.	c #45333B",
"3.	c #3C3E72",
"4.	c #FFFFD4",
"5.	c #B5938A",
"6.	c #33333C",
"7.	c #565878",
"8.	c #C9CBD7",
"9.	c #433335",
"0.	c #343334",
"a.	c #5A322E",
"b.	c #A5A5A8",
"c.	c #4C3334",
"d.	c #DDDDE4",
"e.	c #72332F",
"f.	c #3C3C6D",
"g.	c #776975",
"h.	c #2F333C",
"i.	c #332C65",
"j.	c #E1E0EB",
"k.	c #8EA4B9",
"l.	c #B5B9CB",
"m.	c #C7B8B7",
"n.	c #A13333",
"o.	c #392B39",
"p.	c #4B5579",
"q.	c #576589",
"r.	c #632A33",
"s.	c #4B4859",
"t.	c #2E3348",
"u.	c #362A48",
"v.	c #2F3365",
"w.	c #434373",
"x.	c #6F7A8F",
"y.	c #6B4446",
"z.	c #4B333B",
"A.	c #C0C0C9",
"B.	c #A7ACBC",
"C.	c #919CB4",
"D.	c #CDD1D4",
"E.	c #8595A5",
"F.	c #98A5B6",
"G.	c #ABADC3",
"H.	c #9697B3",
"I.	c #53333D",
"J.	c #333353",
"K.	c #412F47",
"L.	c #14132A",
"M.	c #594548",
"N.	c #686688",
"O.	c #979BA5",
"P.	c #8C9497",
"Q.	c #917C7B",
"R.	c #4C362F",
"S.	c #232356",
"T.	c #9BA4B8",
"U.	c #551B1B",
"V.	c #38272D",
"W.	c #8B8C8F",
"X.	c #3C3259",
"Y.	c #795556",
"Z.	c #29222B",
"`.	c #BEBFCD",
" +	c #848590",
".+	c #707396",
"++	c #252538",
"@+	c #63312E",
"#+	c #8B6665",
"$+	c #787889",
"%+	c #8D8D93",
"&+	c #330764",
"*+	c #353A6B",
"=+	c #CABFC1",
"-+	c #969495",
";+	c #331D47",
">+	c #61615F",
",+	c #3D3353",
"'+	c #33322F",
")+	c #5E6992",
"!+	c #A17272",
"~+	c #DCCDCD",
"{+	c #2B2C2E",
"]+	c #888B98",
"^+	c #9F9E9F",
"/+	c #563E3F",
"(+	c #887988",
"_+	c #694B54",
":+	c #573D57",
"<+	c #6D3941",
"[+	c #C1CDCF",
"}+	c #9BA2AB",
"|+	c #424343",
"1+	c #7F83A3",
"2+	c #979598",
"3+	c #466796",
"4+	c #68576A",
"5+	c #7D7D92",
"6+	c #292956",
"7+	c #1B1A45",
"8+	c #7F8393",
"9+	c #74779A",
"0+	c #4D709B",
"a+	c #385689",
"b+	c #A2A19F",
"c+	c #3D4061",
"d+	c #E1E1DF",
"e+	c #E4E8F1",
"f+	c #CBE4E2",
"g+	c #284F8A",
"h+	c #69749A",
"i+	c #60759F",
"j+	c #2E568C",
"k+	c #565668",
"l+	c #5A445B",
"m+	c #93B3BF",
"n+	c #8E99BB",
"o+	c #456094",
"p+	c #2E467B",
"q+	c #251657",
"r+	c #3E537F",
"s+	c #3F4C7D",
"t+	c #976565",
"                                                                                                              ",
"                                                                                                              ",
"                                            . +                                                               ",
"                                        @ # $                                                                 ",
"                                      % & *                               = -                                 ",
"                                    ; > ,                                   ; '                               ",
"                                  ) ! ~ ,           {                       ] ^ /                             ",
"                                ( _ : < [ } | 1 2 2 ^ 3 4 5 6               ] 7 8 9                           ",
"                                0 a b c d & e f g h i j k l m n 6             7 o p                           ",
"                                q r d s t : 7 t u v : < w x y j l z         A f B ~ +                         ",
"                                C D : v t E 7 r : t F x B s s G H I J K L M : N B m O                         ",
"                                P f Q R R v u t R R t u N S S s T S g D a U T V B W O                         ",
"                                1 X D a R t Q R R R R t u Y S S S s S u u x i k m Z                           ",
"                                ` 7  .M v ..D a _ R F t t S S S S S S T d w +.+.@.$                           ",
"                                1 A #.$.; %.&.*.E a R t t s S s G =.V -.k ;.+.@.>.                            ",
"                                ' ,.l '.).# !.~.{.].r t F s S S =.8 o ^./.~ (.>.                              ",
"                              { -.~ < # G _.j :.<.[.}.D E s S N c |.+.+.1.j 5                                 ",
"                              1 h |.B 2.2.3.j 5 ~.4.5...F s S S 6.< < m 7.8.                                  ",
"                             .D : 9.0.a.i ~ o !.4.4.b...v S s c.6.8 +.k d.                                    ",
"                          K r _ s e.: s G m f.{ ~.~.g.D : S S V h.< i.B j.                                    ",
"                  k.l.    m.a F : R n.: T o.p.#.#.q.r.e.S S S 0.6.k ~ j d.                                    ",
"                  + s.$   | ! e.S s s a.t.y S ^ ^ r.u : S s N 0.u.i.v.w.                                      ",
"                      x.9   y.f b d 9.c.0.9.u F R n.n.n.u g z.c i.~ l /                                       ",
"              A.p.    B.C.  K q h f b S s S u R r r t u s x 6.I +.m f.                                        ",
"              D.E.F.  G.H.      A s.h Y S S s s S T N 2.I.J.I +.i.v..                                         ",
"                  l.F.,.d.          ' h g s d T K.H 9.z.H < |.W v..                                           ",
"        k.q.        p.L.{     @ K     J M.h c.9.N S d V J.< m N.O                                             ",
"          5 O.$ C.7.5 { P.b.0 a g D.      Q.R.N z.-.c |.B ~ S.#.                                              ",
"            9 F.T.d.      3 U.E V.W.      m.h =.=.c.N T G X.S.|                                               ",
"                          Y.N z.Z.&.      % g : : s s s e.x l `.                                              ",
"                        ( D E S =.c N. +} y.e.v : Y S s u : o .+                                              ",
"                        A ! u G 6.H l ++Z.g u s s S S S s 7 j N.                                              ",
"                          m.N V.0.B H 0.c.v n.F @+-.|.-.T G m B =                                             ",
"                            { #+-.S.H c N v _ R t S z.u.V w ~ < d.                                            ",
"                                = $+H 9.t F R v u s I.B i.B ~ S.O.                                            ",
"                                    M.g : e.t s c.=.o W W +.i.S.,.                                            ",
"                                    %+V.z.I.d V 6.o &+&+/.*+*+k =+                                            ",
"                                    -+Z.v.< J.t.;+/./.i.< < I >+                                              ",
"                                    M g ,+|.B J.+.;+o c J.6.Z.N.                                              ",
"                                    E _ e.2.c I h.0.0.'+'+c 1.)+                                              ",
"                                    !+a v S d 9.-.k H 6.0.'+J.B d.                                            ",
"                                    ~+..F : s s s K.t.< J.'+0.++b.                                            ",
"                                      ` f b Y a.T X.^.&+/.H 0.{+s.                                            ",
"                                      ]+++6.-.=.H |.+./.+.J.c J.[ -+                                          ",
"                                      ^+h N I 6.0.J.H c H H B f.j t.b.                                        ",
"                                      | & Y./+'+V b R.=.B i.k ^+s.l j *                                       ",
"                                { 6 ^+(+Y._+7 '+:+_+<+d X.~ l G.  # S.(.w./                                   ",
"                  [+* ,.}+(+# _+/+G ^ x s M.2.|+/+s.M.z.X.< W N.    $ 7.(.(.3.H.                              ",
"            A.1+2+W.-+-+2+3+;.w 4+# g.>+w M.:+z.V 9.z.w i.< i.~ 6       `.5+6+7+j w.5 l.d.                    ",
"            }+8+W.^+,.9+0+a+x.2+^+^+b+b. +c+d Y s T w X.< < ~ l 9+          d+#. +N.S.++(.n H.$ e+            ",
"            f+E.P.W.8+)+g+$+-+P.]+%+p h+i+j+X.y x < v.v.< < ~ v.f.                  ] | b.k+k+l+u.4 6         ",
"                f+m+n+C.q.N.-+P.$+o+j+p+*+*+~ ~ ~ *+~ ~ < < W S..+                              m._+e z       ",
"                          G..+} W.8+3+p+m i.W l q+l l m j *+N.`.                                    (+e G.    ",
"                              [+O.1+r+s+w.*+N.5 5 >.G.d.6 d.                            ( %         - ++>.    ",
"                                                                                      A S Y.    = . :+7+*     ",
"                                                                                = % : U.f 7 Y.4+++L.k+|       ",
"                                                                            K P t+Y.2 2 Y.4+4+, $+m.          ",
"                                                                                                              ",
"                                                                                                              ",
"                                                                                                              "};
