/* XPM */
static char * daemon4_xpm[] = {
"55 60 241 2",
"  	c None",
". 	c #C7C7D5",
"+ 	c #E7E7ED",
"@ 	c #DCCDCD",
"# 	c #73657D",
"$ 	c #A7ACBC",
"% 	c #C58C8B",
"& 	c #4D3444",
"* 	c #9494AC",
"= 	c #EDE9EA",
"- 	c #C6A9A9",
"; 	c #A17A81",
"> 	c #4F1726",
", 	c #484A6B",
"' 	c #B58584",
") 	c #AA9397",
"! 	c #782626",
"~ 	c #34346A",
"{ 	c #D9D7D7",
"] 	c #F4ECE9",
"^ 	c #582C38",
"/ 	c #9B9BB2",
"( 	c #942E2F",
"_ 	c #733433",
": 	c #34345C",
"< 	c #2A264A",
"[ 	c #848590",
"} 	c #BEBEBD",
"| 	c #825858",
"1 	c #4B4859",
"2 	c #595A82",
"3 	c #D5D4DC",
"4 	c #6B3639",
"5 	c #322C5C",
"6 	c #DBE1E4",
"7 	c #B87C7C",
"8 	c #952827",
"9 	c #68383A",
"0 	c #333444",
"a 	c #5D3334",
"b 	c #492A3B",
"c 	c #351C3C",
"d 	c #562527",
"e 	c #5C292A",
"f 	c #482629",
"g 	c #3D3353",
"h 	c #2B2B5B",
"i 	c #2B2954",
"j 	c #25255B",
"k 	c #2D2C63",
"l 	c #565878",
"m 	c #7D839C",
"n 	c #8E4242",
"o 	c #96312E",
"p 	c #6B3333",
"q 	c #843333",
"r 	c #7B3334",
"s 	c #8B383A",
"t 	c #463455",
"u 	c #573645",
"v 	c #463548",
"w 	c #A3A0B4",
"x 	c #BBA6A8",
"y 	c #3C3259",
"z 	c #A25756",
"A 	c #892829",
"B 	c #8C3333",
"C 	c #6A3643",
"D 	c #9B3333",
"E 	c #333353",
"F 	c #6B322E",
"G 	c #322C44",
"H 	c #CABFC1",
"I 	c #E1E1DF",
"J 	c #D3B2B2",
"K 	c #A86A6A",
"L 	c #543235",
"M 	c #333365",
"N 	c #D9D6E2",
"O 	c #C09495",
"P 	c #7A383A",
"Q 	c #953333",
"R 	c #653333",
"S 	c #5A333B",
"T 	c #652C2C",
"U 	c #33333C",
"V 	c #2C2463",
"W 	c #AD9190",
"X 	c #A13332",
"Y 	c #3A334C",
"Z 	c #32255A",
"` 	c #4C4579",
" .	c #A58D89",
"..	c #9C3638",
"+.	c #332C65",
"@.	c #352868",
"#.	c #1E0F57",
"$.	c #ACADC3",
"%.	c #3B3433",
"&.	c #443335",
"*.	c #362A48",
"=.	c #7F7E9D",
"-.	c #3A333C",
";.	c #322454",
">.	c #311A5B",
",.	c #1C1A53",
"'.	c #44333A",
").	c #642B35",
"!.	c #271B63",
"~.	c #898BA7",
"{.	c #2F3464",
"].	c #2D335C",
"^.	c #4B333B",
"/.	c #2E3348",
"(.	c #343334",
"_.	c #5D332E",
":.	c #33334B",
"<.	c #232356",
"[.	c #BB907D",
"}.	c #4C3334",
"|.	c #2F333D",
"1.	c #DDDDE4",
"2.	c #E6DDDD",
"3.	c #72332F",
"4.	c #3C3C6D",
"5.	c #F8F8ED",
"6.	c #A2645F",
"7.	c #8EA4B9",
"8.	c #BABAC7",
"9.	c #C7B8B7",
"0.	c #392B39",
"a.	c #4A5477",
"b.	c #A9A7BA",
"c.	c #B6B4B7",
"d.	c #412F47",
"e.	c #2F3537",
"f.	c #3D3D71",
"g.	c #6F7A8F",
"h.	c #66302F",
"i.	c #393966",
"j.	c #9697B3",
"k.	c #BEBFCD",
"l.	c #E8EEF0",
"m.	c #A4BDC2",
"n.	c #98A5B6",
"o.	c #7D4B4B",
"p.	c #CDD1D4",
"q.	c #7F83A3",
"r.	c #93B3BF",
"s.	c #A6B0C6",
"t.	c #9BA2AB",
"u.	c #8E929B",
"v.	c #59678B",
"w.	c #1B192C",
"x.	c #E6D4D2",
"y.	c #C6C5C7",
"z.	c #594548",
"A.	c #979BA5",
"B.	c #919CB4",
"C.	c #8D8D93",
"D.	c #917C7B",
"E.	c #4C362F",
"F.	c #53333D",
"G.	c #3B3344",
"H.	c #51585F",
"I.	c #551B1B",
"J.	c #38272D",
"K.	c #795556",
"L.	c #2B2C2E",
"M.	c #B69B98",
"N.	c #C1C1BD",
"O.	c #646384",
"P.	c #89888D",
"Q.	c #707396",
"R.	c #252538",
"S.	c #29222B",
"T.	c #696889",
"U.	c #2D3268",
"V.	c #E5E4E4",
"W.	c #8B6665",
"X.	c #787889",
"Y.	c #331B66",
"Z.	c #330764",
"`.	c #343A6D",
" +	c #969495",
".+	c #2C2B45",
"++	c #61615F",
"@+	c #331D47",
"#+	c #A17272",
"$+	c #33322F",
"%+	c #988E94",
"&+	c #424343",
"*+	c #888B98",
"=+	c #979698",
"-+	c #3D4061",
";+	c #A5A5A8",
">+	c #563E3F",
",+	c #9F9E9F",
"'+	c #887988",
")+	c #694B54",
"!+	c #573D57",
"~+	c #66657C",
"{+	c #434373",
"]+	c #C0C0C9",
"^+	c #543C44",
"/+	c #8B8C8F",
"(+	c #4D709B",
"_+	c #68576A",
":+	c #767376",
"<+	c #6B4446",
"[+	c #7D7D92",
"}+	c #1B1A45",
"|+	c #E1E0EB",
"1+	c #7F8393",
"2+	c #948F8D",
"3+	c #74779A",
"4+	c #385689",
"5+	c #332E56",
"6+	c #1F225C",
"7+	c #50507B",
"8+	c #E4E8F1",
"9+	c #CBE4E2",
"0+	c #8595A5",
"a+	c #8C9497",
"b+	c #5E6992",
"c+	c #284F8A",
"d+	c #69749A",
"e+	c #60759F",
"f+	c #565668",
"g+	c #5A445B",
"h+	c #C9CBD7",
"i+	c #8E99BB",
"j+	c #466796",
"k+	c #2E568C",
"l+	c #2E467B",
"m+	c #251657",
"n+	c #32152D",
"o+	c #C1CDCF",
"p+	c #D3C4C4",
"q+	c #0C0D27",
"r+	c #976565",
"                                                                                                              ",
"                                                                                                              ",
"                                            . +                                                               ",
"                                        @ # $                                                                 ",
"                                      % & *                               = -                                 ",
"                                    ; > ,                                   ' )                               ",
"                                  % ! ~ ,           {                       ] ^ /                             ",
"                                @ ( _ : < [ } ) | | ^ 1 2 * 3               ] 4 5 6                           ",
"                                7 8 9 0 a b c d e f g h i j k l 3           = 4 < m                           ",
"                                n o a p q _ p q r s _ : t u v h j w         x e y ~ +                         ",
"                                z A p B q q C ( r r D u E F p t E G H I J K p L M k N                         ",
"                                O d P D D Q r B D D q r L R p F S R T A 8 ! a U : V N                         ",
"                                W > s X D q r Q D D D q r p R R R p R r r u Y Z k `                           ",
"                                 .e ..D Q _ Q D D D D q q R R R R R R S L t +.@.#.$.                          ",
"                                ) A ..D q r D D Q D Q q q p R p & %.&.*.Z M @.#.=.                            ",
"                                ; 8 D X r Q D Q D D D q Q p R R -.h ;.>.@.~ ,.=.                              ",
"                              @ '.t C q p B o X D D D q Q p ).L G : ~ @.!.5 ~.                                ",
"                              W f {.].b ^.M t r ( D Q P Q p p a /.: M V l .                                   ",
"                            - A _ &.(._.:.~ <.w [.8 q r B a p }.|.5 +.Z 1.                                    ",
"                          2.( D p 3.p p ^.{.4.2.5.6.).Q 3.R R %.|.: +.: 1.                                    ",
"                  7.8.    9.8 Q _ D D 3.S 0.a.8.H a.).r R p R (.(.5 ~ +.1.                                    ",
"                  + 1 b.  c.! 3.R p p a /.d.R ^ ^ ).3.3.p R ^ e.*.@.{.f.                                      ",
"                      g.6 ] 4 e p a &.}.-.}.r o D X X X r h.^.|.+.i.j j.                                      ",
"              k.a.l.  m.n.  2.o.f L p h.p R r Q ( ( q r h.u U G @.h f.                                        ",
"              p.q.r.  s.j.      c.1 f F R R p p R u L '.u E G @.k ~ .                                         ",
"                  8.t.u.3           ) f h.p a S d.:.&.}./.+.: k : .                                           ",
"        7.v.        , w.I     x.x.    y.z.f }.&.L R a -.E ~ k v.N                                             ",
"          ~.A.$ B.2 ~.3 C.t.7 8 T p.      D.E.F.^.G.|.: : +.<.H                                               ",
"            6 n.n.1.      H.I.s J.C.      9.f %.-.}.L S & : <.}                                               ",
"                          K.a ^.L.9.      M.T _ p p p p 3.u j 8.                                              ",
"                        N.8 s R -.U O.C.P.C 3.B r p R p r _ ;.Q.                                              ",
"                        - ! r v U E j R.S.h._ _ R R R R p 4 i T.                                              ",
"                          9.L J.(.: :.(.}.B D Q h.d.].d.S & U.: V.                                            ",
"                            { W.:.< E |.a B D D q h.}./.%.g M M 1.                                            ",
"                                = X.:.&.r Q D B r p u : +.: ~ j A.                                            ",
"                                    z.T _ 3.q p }.-.i >.Y.+.@.<.C.                                            ",
"                                    C.J.^.F.L &.(.Z Z.Z.Y.i.`.i y.                                            ",
"                                     +S.`.: E /.>.Y.Y.+.: {..+++                                              ",
"                                    K T E E : E Z @+*./.E 0 S.T.                                              ",
"                                    s D 3.'.0 G U (.e.(.(.0 !.T.                                              ",
"                                    #+8 B p _.&.G.Z /.U (.(.E y V.                                            ",
"                                    { ! B _ R R p d./.: E $+(.R./                                             ",
"                                      %+d p F R S y Y.Z.Y.:.U L.&+                                            ",
"                                      *+R.-.Y -.:.].@.Y.+.E 0 E < =+                                          ",
"                                      =+J.S G (.(.Y /./.:.:.: -+h .+;+                                        ",
"                                      } b K.>+$+-.9 E.-.: +.h ,+1 h h *                                       ",
"                                p.{ ) '+K.)+9 %.!+)+C R y +.V $.  ~+<.,.{+j.                                  ",
"                  ]+* *+t.'+~+)+z.u ^.^+_ ^+'.&+>+1 z.^.y U.k O.    c.l ,.,.f.j.                              ",
"            ]+q.u./+=+=+ +(+U.t _+~+:+++t &+<+& &.&.}.t ~ M +.~ 3       k.[+i }+j {+~.8.|+                    ",
"            t.1+2+,+u.3+(+4+g.=+,+,+) ;+m -+a p p S t 5++.M ~ j Q.          { y.[ T.< R.6+7+j.$ 8+            ",
"            9+0+a+[ [+b+c+T.=+a+C.C.m d+e+c+y t & M ~ U.M M ~ k 4.                  ] c.;+f+f+g+*.2 h+        ",
"                9+r.i+n.v.~+ + +X.j+k+l+`.`.~ ~ `.~ i.M ~ M h j Q.                              9.)+c w       ",
"                          $.Q.P.C.1+j+l++.k k <.m+j j k j i.O.k.                                     .n+$.    ",
"                            l.o+t.m 4+` -+f.O.~.~.=.$.1.3 V.                            p+M.        x n+=.    ",
"                                                                                      x R |     V.. t }+*     ",
"                                                                                = M.4 I.d p K._+G q+f+8.      ",
"                                                                            2.O r+K.| | K._+_+, X.9.          ",
"                                                                                                              ",
"                                                                                                              ",
"                                                                                                              "};
