/* XPM */
static char * daemon2_xpm[] = {
"55 60 246 2",
"  	c None",
". 	c #C7C7D5",
"+ 	c #E7E7ED",
"@ 	c #E5D7D4",
"# 	c #776974",
"$ 	c #A7ACBC",
"% 	c #B69B98",
"& 	c #4B283B",
"* 	c #9494AC",
"= 	c #E9E7E8",
"- 	c #C6A9A9",
"; 	c #B87C7C",
"> 	c #4F1726",
", 	c #484A6B",
"' 	c #B58584",
") 	c #AC979D",
"! 	c #C58C8B",
"~ 	c #762426",
"{ 	c #34346A",
"] 	c #D5D4DC",
"^ 	c #F4ECE9",
"/ 	c #582C38",
"( 	c #9B9BB2",
"_ 	c #D8C8C9",
": 	c #9A2F30",
"< 	c #733433",
"[ 	c #333365",
"} 	c #2A2749",
"| 	c #89888D",
"1 	c #B9B7BA",
"2 	c #AB9294",
"3 	c #835858",
"4 	c #4B4859",
"5 	c #595A82",
"6 	c #6B3639",
"7 	c #322C5C",
"8 	c #DBE1E4",
"9 	c #892828",
"0 	c #68383A",
"a 	c #322C44",
"b 	c #543235",
"c 	c #38272D",
"d 	c #592929",
"e 	c #652C2C",
"f 	c #482629",
"g 	c #3D3353",
"h 	c #2B2B5C",
"i 	c #2B2954",
"j 	c #25255B",
"k 	c #2D2C63",
"l 	c #50507B",
"m 	c #322454",
"n 	c #7E839A",
"o 	c #8D393C",
"p 	c #95312E",
"q 	c #653333",
"r 	c #6B3333",
"s 	c #843334",
"t 	c #783939",
"u 	c #8D3434",
"v 	c #2F3365",
"w 	c #453555",
"x 	c #573645",
"y 	c #493547",
"z 	c #ADA0B4",
"A 	c #BAA7A7",
"B 	c #34345C",
"C 	c #A25656",
"D 	c #8B2F30",
"E 	c #7B3333",
"F 	c #6D3841",
"G 	c #333353",
"H 	c #CABFC1",
"I 	c #E8E7DC",
"J 	c #D3B2B2",
"K 	c #A86A6A",
"L 	c #53333D",
"M 	c #D9D6E2",
"N 	c #BE9495",
"O 	c #682423",
"P 	c #884646",
"Q 	c #922E2D",
"R 	c #7A2E2E",
"S 	c #9C3333",
"T 	c #5A333B",
"U 	c #8D2B2B",
"V 	c #962828",
"W 	c #3B3433",
"X 	c #282862",
"Y 	c #551B1B",
"Z 	c #C2AEB1",
"` 	c #FFFFE9",
" .	c #D1C1AB",
"..	c #835458",
"+.	c #9D665E",
"@.	c #91443E",
"#.	c #953333",
"$.	c #3A334C",
"%.	c #332C65",
"&.	c #454374",
"*.	c #887988",
"=.	c #754D54",
"-.	c #FFFFFF",
";.	c #FFFFD6",
">.	c #7C4748",
",.	c #E6DDDD",
"'.	c #FFFEC7",
").	c #CCBA99",
"!.	c #3C3259",
"~.	c #352868",
"{.	c #1E0F57",
"].	c #ABADC3",
"^.	c #A88D8A",
"/.	c #A9B1B6",
"(.	c #FAF9F7",
"_.	c #FEFECC",
":.	c #F0F3DD",
"<.	c #392B39",
"[.	c #3B3245",
"}.	c #322959",
"|.	c #251657",
"1.	c #7A7B9C",
"2.	c #A7A0AA",
"3.	c #979598",
"4.	c #8B6968",
"5.	c #665E73",
"6.	c #898BA7",
"7.	c #3A333C",
"8.	c #311A5B",
"9.	c #331B66",
"0.	c #1C1A53",
"a.	c #D9D7D6",
"b.	c #69677C",
"c.	c #4C5F88",
"d.	c #FFFFDD",
"e.	c #333444",
"f.	c #2D3268",
"g.	c #45333B",
"h.	c #3C3E72",
"i.	c #703D48",
"j.	c #33333C",
"k.	c #C9CBD7",
"l.	c #433335",
"m.	c #343334",
"n.	c #63312E",
"o.	c #33334B",
"p.	c #232356",
"q.	c #A3A0B4",
"r.	c #5C3334",
"s.	c #4C3334",
"t.	c #72332F",
"u.	c #3C3C6D",
"v.	c #FAF9E8",
"w.	c #2F333C",
"x.	c #8EA4B9",
"y.	c #BABBC7",
"z.	c #C7B8B7",
"A.	c #4B5579",
"B.	c #576589",
"C.	c #DDDDE4",
"D.	c #ABAABB",
"E.	c #412F47",
"F.	c #632A33",
"G.	c #6F7A8F",
"H.	c #6C4547",
"I.	c #A13333",
"J.	c #4B333B",
"K.	c #353A6B",
"L.	c #9697B3",
"M.	c #C4C7CA",
"N.	c #E4E8F1",
"O.	c #A4BDC2",
"P.	c #919CB4",
"Q.	c #3D4061",
"R.	c #CDD1D4",
"S.	c #8794A6",
"T.	c #98A5B6",
"U.	c #8E929B",
"V.	c #A2A19F",
"W.	c #50191E",
"X.	c #14132A",
"Y.	c #594548",
"Z.	c #686688",
"`.	c #8D8D93",
" +	c #9BA2AB",
".+	c #93797C",
"++	c #4C362F",
"@+	c #93B3BF",
"#+	c #51585F",
"$+	c #5A322E",
"%+	c #543C44",
"&+	c #2A262C",
"*+	c #707396",
"=+	c #252538",
"-+	c #2F335C",
";+	c #787889",
">+	c #979BA5",
",+	c #8B8C8F",
"'+	c #330764",
")+	c #969495",
"!+	c #331D47",
"~+	c #33322F",
"{+	c #271B63",
"]+	c #5E6992",
"^+	c #A17272",
"/+	c #2E3348",
"(+	c #A5A5A8",
"_+	c #988E94",
":+	c #6B322E",
"<+	c #888B98",
"[+	c #795556",
"}+	c #563E3F",
"|+	c #9F9E9F",
"1+	c #694B54",
"2+	c #573D57",
"3+	c #C0C0C9",
"4+	c #424343",
"5+	c #565878",
"6+	c #7F83A3",
"7+	c #8C9497",
"8+	c #466796",
"9+	c #1F316A",
"0+	c #68576A",
"a+	c #61615F",
"b+	c #BEBFCD",
"c+	c #1B1A45",
"d+	c #4D709B",
"e+	c #385689",
"f+	c #848590",
"g+	c #CBE4E2",
"h+	c #7D7D92",
"i+	c #284F8A",
"j+	c #69749A",
"k+	c #60759F",
"l+	c #565668",
"m+	c #5A445B",
"n+	c #362A48",
"o+	c #8E99BB",
"p+	c #456094",
"q+	c #2E568C",
"r+	c #2E467B",
"s+	c #331832",
"t+	c #3E537F",
"u+	c #3F4C7D",
"v+	c #976565",
"w+	c #895F60",
"                                                                                                              ",
"                                                                                                              ",
"                                            . +                                                               ",
"                                        @ # $                                                                 ",
"                                      % & *                               = -                                 ",
"                                    ; > ,                                   ' )                               ",
"                                  ! ~ { ,           ]                       ^ / (                             ",
"                                _ : < [ } | 1 2 3 3 / 4 5 * ]                 6 7 8                           ",
"                                ; 9 0 a b & c d e f g h i j k l ]           ^ 6 m n                           ",
"                                o p q r s < 6 s t u r v w x y h j z         A d B { +                         ",
"                                C D < D u u 6 u E E p F G r r y G a H I J K < L B k M                         ",
"                                N O < P Q u R 9 S S s E b r q r T q d U V O T W B X M                         ",
"                                2 Y Z `  ...P +.@.U #.s E q q q q q r E E x $.%.%.&.                          ",
"                                *.=.-.;.I >.,.` '.).u u s q q q q q q T b !.~.~.{.].                          ",
"                                ^.A /.(.N *.-._._.:.).R u r q r y <.W [.}.{ ~.|.1.                            ",
"                                2.3.h 1 4.5.6.I _.'.:...Q r q q 7.7 m 8.9.{ 0.*.                              ",
"                              a.[.{ v b.y c.7 2.d.'.:...Q r q b e.B f.~.8.h 6.                                ",
"                              ^.> B B g.g.h.k 6.` '.@ i.p r q q j.[ ~.k 5 k.                                  ",
"                            - 9 t l.m.n.o.{ p.q.;._./.~ u r.r s.j.}.~.}.M                                     ",
"                          ,.Q : r t.r r L [ u.@ ` v.# 9 E q q W w.[ %.B 8                                     ",
"                  x.y.    z.9 S r S S t.T 7.A.y.H B./ R q q r.W w.}.{ h C.                                    ",
"                  + 4 D.  Z ~ E q r r r.e.E.r.T / F.E < q r b j.o.~.k &.                                      ",
"                      G.8 ^ H.d 6 r.l.s.7.g.E p : I.I.I.E e J.j.%.K.p.L.                                      ",
"              M.A.N.  O.P.  ,.P f d r q r n.E S u u s R r x j.a ~.~.Q.                                        ",
"              R.S.T.  ].P.      A 4 f r q q r r r T b g.L G a ~.%.v .                                         ",
"                  y.T.U.C.          V.W.e r r.r.E.o.l.J.o.%.B X v .                                           ",
"        x.B.        , X.a.    @ ,.    M.Y.f l.l.b r.q 7.G [ k Z.M                                             ",
"          6.* /.P.5 * a.`. +; V e R.      .+++L J.[.e.G B { p.y.                                              ",
"            a.@+T.C.      #+Y o c `.      z.f l.W s.b T x G p.y.                                              ",
"                          =.$+%+&+z.      % O 6 r r r r t.x j y.                                              ",
"                        _ 9 s q 7.e.Z.| | i.t.u E r q r E < m *+                                              ",
"                        - ~ s y j.G j =+&+F.< < q q q q r 0 }.Z.                                              ",
"                          z.b &+m.B o.m.s.u I.#.r.y -+[.r.x f.B =                                             ",
"                            a.4.[.p.G j.b u p S s e & o.W g v [ C.                                            ",
"                                = ;+o.l.s p S u E 6 L B %.7 [ j >+                                            ",
"                                    Y.e < t.s r s.<.} ~.~.~.~.j `.                                            ",
"                                    ,+c J.L b l.j.m '+'+9.{ { i M.                                            ",
"                                    )+&+v [ G e.!+9.9.%.[ [ a #+                                              ",
"                                    K e g -+G B ~.!+a e.G j.&+;+                                              ",
"                                    o p t.g.e.a a m.w.~+~+e.{+]+                                              ",
"                                    ^+V u q b l.[.}.o.w.~+~+G B C.                                            ",
"                                    a.R u < q r r $./+B G ~+W =+(+                                            ",
"                                      _+d r :+n./ !.8.'+~.G m.&+4                                             ",
"                                      <+=+7.[.7.o.B ~.9.%.}.e.o.} )+                                          ",
"                                      3.c / e.m.m.$./+e.o.o.G &.h /+(+                                        ",
"                                      1 & [+}+~+7.0 s.7.B %.h >+4 j h *                                       ",
"                                a.] |+*.[+1+0 W 2+1+0 q w ~.X ].  b.p.0.&.L.                                  ",
"                  3+* U. +*.5.1+}+y b %+0 F g.4+%+4 Y.J.!.f.X Z.    /.5+0.0.h.L.                              ",
"            3+6+7+,+)+)+)+8+9+w 0+b.# a+4 %+%+%+l.l.J.w %.[ %.{ ]       b+;+i c+h &.6+3+8                     ",
"            (+n )+|+U.1.d+e+;+3. +) V.V.n Q./ :+q T w !.[ [ { j *+          ,.M.f+Z.} c+p.l L.].N.            ",
"            g+6+7+f+h+]+i+Z.)+7+7+`.n j+k+i+!.y x [ f.[ [ [ { v u.                  ^ 1 (+l+l+m+n+5 ]         ",
"                g+@+o+T.B.Z.)+3.;+p+q+r+K.K.{ K.K.[ K.[ { %.h p.*+                              z.1+s+z       ",
"                          ].*+`.,+n p+r+%.%.h |.p.|.X k h K.Z.b+                                    ^.s+].    ",
"                            + M. +6+t+u+u+{ Z.6.6.1.].C.] C.                            _ %         A s+1.    ",
"                                                                                      A r...    = . w c+*     ",
"                                                                                = % 6 Y d r [+0+} X.l+y.      ",
"                                                                            ,.N v+[+..w+[+0+0+, ;+z.          ",
"                                                                                                              ",
"                                                                                                              ",
"                                                                                                              "};
