/* XPM */
static char * daemon1des4_xpm[] = {
"55 60 211 2",
"  	c None",
". 	c #C0BBBF",
"+ 	c #D2CAC9",
"@ 	c #B3A8AE",
"# 	c #C8C8CF",
"$ 	c #D2C4C3",
"% 	c #B4A3A7",
"& 	c #B1B2BC",
"* 	c #CFC9CB",
"= 	c #D7C6C5",
"- 	c #C0A8A8",
"; 	c #ACA8BB",
"> 	c #B6A9AD",
", 	c #C8AAAA",
"' 	c #BEACAB",
") 	c #ACACB7",
"! 	c #A9A8B2",
"~ 	c #C4C5C7",
"{ 	c #CFC8C7",
"] 	c #C3B6B7",
"^ 	c #B4B6B8",
"/ 	c #B7B7C3",
"( 	c #C5C5CE",
"_ 	c #BCACAD",
": 	c #ABA9B7",
"< 	c #D3C1C1",
"[ 	c #C6A7A7",
"} 	c #BBADAD",
"| 	c #ABABAE",
"1 	c #B8ACAC",
"2 	c #ADA9AD",
"3 	c #B7A8A8",
"4 	c #BAA9A9",
"5 	c #B2A7A8",
"6 	c #ADABB3",
"7 	c #A9A9B7",
"8 	c #A7A7B7",
"9 	c #A9A9BA",
"0 	c #B4B4C1",
"a 	c #ABA7B5",
"b 	c #C2C3CA",
"c 	c #C6B0B0",
"d 	c #BFABAA",
"e 	c #BAA9AB",
"f 	c #BCABAB",
"g 	c #C5ACAC",
"h 	c #C6ACAC",
"i 	c #B1ACB5",
"j 	c #B5ACB1",
"k 	c #B2ACB1",
"l 	c #A6A6B6",
"m 	c #ACACBC",
"n 	c #CCB6B6",
"o 	c #C3A9A9",
"p 	c #BCABAA",
"q 	c #BFAEB1",
"r 	c #C1B2B3",
"s 	c #C8B6B6",
"t 	c #BAADB1",
"u 	c #ABABB5",
"v 	c #ABA9B0",
"w 	c #CEBBBB",
"x 	c #B5ABAC",
"y 	c #AAABBA",
"z 	c #BAA6A5",
"A 	c #BCA4A4",
"B 	c #CCC2C5",
"C 	c #E8E8E2",
"D 	c #E7E7E6",
"E 	c #CAC5C5",
"F 	c #BAABAB",
"G 	c #B7ABAE",
"H 	c #C9A8A8",
"I 	c #BCA7A7",
"J 	c #ACABAC",
"K 	c #A8A8B9",
"L 	c #C5BBBB",
"M 	c #E5E6E1",
"N 	c #E8E8D9",
"O 	c #E8E8DC",
"P 	c #E1E1E1",
"Q 	c #C1ABAB",
"R 	c #ABA8B7",
"S 	c #ABA9BA",
"T 	c #B3B1C0",
"U 	c #BFB3B5",
"V 	c #BCB0B1",
"W 	c #E1DEDE",
"X 	c #E8E8DE",
"Y 	c #E8E8D7",
"Z 	c #E8E7E1",
"` 	c #A5A1B6",
" .	c #D5C8C9",
"..	c #E8E8E8",
"+.	c #B0ABAC",
"@.	c #ACA9B1",
"#.	c #ABABBA",
"$.	c #C2C2CB",
"%.	c #C6C8CA",
"&.	c #BAB8BE",
"*.	c #C4C8CE",
"=.	c #E1E1DE",
"-.	c #C6A9A9",
";.	c #ABA4B7",
">.	c #AEABB1",
",.	c #BBBBC1",
"'.	c #B3B8C5",
").	c #CECCCF",
"!.	c #C0B5B6",
"~.	c #B5ABAE",
"{.	c #AAABB1",
"].	c #ABA4BA",
"^.	c #A8A4BA",
"/.	c #AAABB7",
"(.	c #CEC6C5",
"_.	c #B1ABAE",
":.	c #AEAFBE",
"<.	c #DDDCDC",
"[.	c #ABACB0",
"}.	c #ADABAE",
"|.	c #B7ABAA",
"1.	c #ABABB2",
"2.	c #CDCCD2",
"3.	c #CED1D2",
"4.	c #B3ABAC",
"5.	c #CBABAB",
"6.	c #AEAEBD",
"7.	c #E1DDDB",
"8.	c #AEACAB",
"9.	c #C6CDD3",
"0.	c #C8ABAB",
"a.	c #CCABAB",
"b.	c #B2B5C0",
"c.	c #D3D4D7",
"d.	c #D5D5D9",
"e.	c #B2B1B7",
"f.	c #BFACAD",
"g.	c #AFAAB1",
"h.	c #B0B0BE",
"i.	c #BDC0C7",
"j.	c #B2ABAE",
"k.	c #ACADBC",
"l.	c #C9C9D1",
"m.	c #C3B4B6",
"n.	c #C7CBD2",
"o.	c #B4A3A5",
"p.	c #A9ABBB",
"q.	c #B6BAC5",
"r.	c #A2A2A9",
"s.	c #B7B1B1",
"t.	c #C5C6C7",
"u.	c #C8C0C1",
"v.	c #B3ACAA",
"w.	c #AAABAE",
"x.	c #C9CDD2",
"y.	c #B5A4A4",
"z.	c #ADA8A9",
"A.	c #A8A6A9",
"B.	c #BBBAC5",
"C.	c #C4C4C6",
"D.	c #A9A8B5",
"E.	c #BDBEC9",
"F.	c #A7A7AD",
"G.	c #BAABAA",
"H.	c #C0C0C5",
"I.	c #C9CACD",
"J.	c #C6C6C8",
"K.	c #AB9EBA",
"L.	c #C9C6C8",
"M.	c #B9B9B8",
"N.	c #AEABB5",
"O.	c #ABA5B1",
"P.	c #ABABAA",
"Q.	c #CCBEBE",
"R.	c #AEABB7",
"S.	c #A9A9AA",
"T.	c #C5C5C9",
"U.	c #C9C8C8",
"V.	c #C9C8C9",
"W.	c #B6AFAF",
"X.	c #C5C0C5",
"Y.	c #BBB2B5",
"Z.	c #B6AEB6",
"`.	c #A4A4B5",
" +	c #B5AEB0",
".+	c #B0B0B0",
"++	c #B6B6C0",
"@+	c #C2C3CD",
"#+	c #B1BBC9",
"$+	c #A5ABBC",
"%+	c #BBB6BC",
"&+	c #C1C1C8",
"*+	c #A4A4B1",
"=+	c #BFC0CA",
"-+	c #B3BDCA",
";+	c #ADB6C5",
">+	c #AEAFB9",
",+	c #C6C8C9",
"'+	c #B8BBC8",
")+	c #A8B4C5",
"!+	c #BBBFCA",
"~+	c #B9BFCB",
"{+	c #B6B6BB",
"]+	c #B7B0B7",
"^+	c #C8D1D5",
"/+	c #C6CAD4",
"(+	c #AAB6C6",
"_+	c #AAB1C1",
":+	c #ABA3AB",
"<+	c #A7A3B6",
"[+	c #C9BBBA",
"                                                                                                              ",
"                                                                                                              ",
"                                                                                                              ",
"                                          .                                                                   ",
"                                      + @ #                                                                   ",
"                                    $ % &                                   $ *                               ",
"                                  = - ; &                                     >                               ",
"                                  , ' ) ! ~   { ] ] > ^ / (                   _ :                             ",
"                                < [ } | 1 @ 2 3 4 5 6 7 7 8 9 0               _ a b                           ",
"                                c , 1 d - e f g d h ' ) i j k 7 l             3 ) m                           ",
"                                n o p q     q - r s [ t u f f k u v       w ' x y 9                           ",
"                                = z q       A B C D E - x F f f G F 3 o H I G J ) K                           ",
"                                * %       L ] M N O P q Q F F F F F F Q Q j 6 R S T                           ",
"                                E U       V W X Y Y Z s o F F f F F F G x i ; S `                             ",
"                                {        .B ..N N Y Z w o f F f j J +.@.R #.; ` $.                            ",
"                                * %.9   L &.*.=.N N M s -.f F F 2 : a ;.; m ` $.                              ",
"                                >.m m ,.k '.7 ).O N M !., ' F ~.{.) ; ].^./.(                                 ",
"                              (.5 ) u _._.:.9 ( Z N <.q , f e 1 [.) m 9 /                                     ",
"                              [ ' +.}.|.1.m l 2.O N 3.- h F f 4.| u S R                                       ",
"                            , 5.f d ' f ~.#.6.7.X Z . [ ' F F 8.| S S #.                                      ",
"                  9.        [ 0.f 5.a.' G 2 b.c.d./ 3 Q F F F J J : m 7                                       ",
"                    e.      - f.F f f |.{.g.F > > e Q p F f x J v ; S h.                                      ",
"                      i.    f.3 f 1 +.+.}.+.Q 0.5.a.a.a.Q e j.| S k.8 l.                                      ",
"                b.            m.5 x f f p F Q 5.h h g Q p j | v ; 9 6.                                        ",
"                *.9.    n.        e.5 f F F f f f G x j.~.u v ; S y                                           ",
"                      %.              o.4 f 1 G g.@.+.j.{.S ) 9 p.                                            ",
"        9.q.        & r.                s.5 4.+.x |.1 }.u #.9 q.                                              ",
"          ( #   n.'.#   t.  < H 4         u.v.~.j >.w.) ) m 8                                                 ",
"              x.          ^ y.g z.t.        5 8.2 j.x G j ) l                                                 ",
"                          !.|.j.A.        + 4 ' ' p f f p j 8                                                 ",
"                          -.g F }.| B.~ C.V d h ' f F f Q ' D.E.                                              ",
"                          - g k [.u 8 F.A.4 ' ' F F F F f _ 7 B.                                              ",
"                            x z.J ) 1.J 4.h a.h G.g./.>.1 k p.)                                               ",
"                              L 1.D.u | |.h , 5.g G.j.@.8.i #.S                                               ",
"                                  H.1.4.Q 0.5.h Q _ ~.) S ) m 8 I.                                            ",
"                                    s.4 ' ' g f 4.}.! ].].S ; 8 J.                                            ",
"                                    J.A.j.x x }.| a K.K.].k.k.D.                                              ",
"                                    L.A.k.#.u [.;.].].9 S #.! M.                                              ",
"                                    w 4 N./.) u R O.@.[.u [.A.B.                                              ",
"                                    g 5.p +.[.v | J w.P.P.[.K B.                                              ",
"                                    Q.H h f |.+.>.R 1.| J J u )                                               ",
"                                      - h ' F f f g.{.: 1.P.8.F.                                              ",
"                                      L.3 F p G.G R.].K.].u J S.e.                                            ",
"                                      T.F.}.6 }.1./.; ].9 u [.6 ! U.                                          ",
"                                      V.z.~.[.J J 6 {.[.[.1.u 6.7 {.                                          ",
"                                        > !.W.P.}.} 4.}.) S 7   e.8 7 #                                       ",
"                                    I.X.U Y.} 8.Z.Y.t G.R.; K     ,.l `.h.l.                                  ",
"                    # %.  X.&.Y.s.~.>  +'  +_..+W.e.s.j.R.m K B.      ++`.`.:.l.                              ",
"              @+V.t.U.V.U.#+$+i %+&.. M.i s. +k 8.+.j.i S #.S #.          &+D.*+8 h.@+                        ",
"              b J.  %.=+-+;+H.V.        b >+1 p f G i R.S #.m K =+              X.E.! *+l 0 l.                ",
"              @+,+~ &+'+)+H.U.,+J.J.b !+~+)+R.k j #.m p.#.#.m 9 6.                        {+{+]+@./           ",
"                  ^+/+x.q.B.U.,+H.#+(+_+k.k.m k.k.#.k.#.m #.7 l E.                                Y.:+        ",
"                            E.J.t.b #+_+S S 9 l <+8 8 9 7 k.B.                                      (.:+      ",
"                                  b ;+T h.k.B.( ( $.                                      +           :+$.    ",
"                                                                                        F !.        Z.*+#     ",
"                                                                                  + f.y.3 _ !.%+! r.{+        ",
"                                                                               .[+r ] L !.%+%+& H.            ",
"                                                                                                              ",
"                                                                                                              ",
"                                                                                                              "};
