/* XPM */
static char * daemon5_xpm[] = {
"55 60 241 2",
"  	c None",
". 	c #C7C7D5",
"+ 	c #E7E7ED",
"@ 	c #E6D4D2",
"# 	c #73657D",
"$ 	c #AAA9BC",
"% 	c #B69B98",
"& 	c #4C2A3A",
"* 	c #9494AC",
"= 	c #E5E4E4",
"- 	c #C6A9A9",
"; 	c #B58584",
"> 	c #4F1726",
", 	c #484A6B",
"' 	c #AA9396",
") 	c #C58C8B",
"! 	c #782626",
"~ 	c #332C65",
"{ 	c #D8D8D8",
"] 	c #F4ECE9",
"^ 	c #582D38",
"/ 	c #9B9BB2",
"( 	c #DCCDCD",
"_ 	c #932D2D",
": 	c #743433",
"< 	c #333365",
"[ 	c #2A264A",
"} 	c #888890",
"| 	c #B6B4B7",
"1 	c #825858",
"2 	c #4B495A",
"3 	c #595A82",
"4 	c #D5D4DC",
"5 	c #6B3639",
"6 	c #322C5C",
"7 	c #DBE1E4",
"8 	c #B87C7C",
"9 	c #892828",
"0 	c #67373A",
"a 	c #333444",
"b 	c #543235",
"c 	c #32152D",
"d 	c #562527",
"e 	c #5C292A",
"f 	c #492628",
"g 	c #3A334C",
"h 	c #2B2954",
"i 	c #2B2B5B",
"j 	c #25255B",
"k 	c #2D2C63",
"l 	c #565878",
"m 	c #7D839C",
"n 	c #8E4242",
"o 	c #96312E",
"p 	c #5C3334",
"q 	c #6B3333",
"r 	c #843333",
"s 	c #783538",
"t 	c #953333",
"u 	c #453555",
"v 	c #573645",
"w 	c #483547",
"x 	c #A3A0B4",
"y 	c #BBA6A8",
"z 	c #3C3259",
"A 	c #34346A",
"B 	c #A25756",
"C 	c #8C3333",
"D 	c #6D3841",
"E 	c #34345C",
"F 	c #653333",
"G 	c #4D3444",
"H 	c #333353",
"I 	c #322C44",
"J 	c #C6C5C7",
"K 	c #E6DDDD",
"L 	c #D3B2B2",
"M 	c #A86A6A",
"N 	c #72332F",
"O 	c #D9D6E2",
"P 	c #C09495",
"Q 	c #662426",
"R 	c #9B3333",
"S 	c #7C3333",
"T 	c #652C2C",
"U 	c #962828",
"V 	c #5B333B",
"W 	c #3B3433",
"X 	c #2C2463",
"Y 	c #9F8C91",
"Z 	c #8C383B",
"` 	c #9C3638",
" .	c #332E56",
"..	c #4C4579",
"+.	c #A58D89",
"@.	c #342A68",
"#.	c #1E0F57",
"$.	c #A13332",
"%.	c #3A333B",
"&.	c #3B3344",
"*.	c #32255A",
"=.	c #35236A",
"-.	c #A17A82",
";.	c #322454",
">.	c #311A5B",
",.	c #331B66",
"'.	c #171750",
").	c #7F7E9D",
"!.	c #CED1D4",
"~.	c #251657",
"{.	c #898BA7",
"].	c #433334",
"^.	c #C9CBD7",
"/.	c #343334",
"(.	c #412F47",
"_.	c #4C3334",
":.	c #33333C",
"<.	c #DDDDE4",
"[.	c #54353D",
"}.	c #8EA4B9",
"|.	c #B8B9C8",
"1.	c #C7B8B7",
"2.	c #4C4556",
"3.	c #33334B",
"4.	c #66302F",
"5.	c #362A48",
"6.	c #434373",
"7.	c #6F7A8F",
"8.	c #4B333B",
"9.	c #2F333D",
"0.	c #343A6D",
"a.	c #9697B3",
"b.	c #BEBFCD",
"c.	c #4C5879",
"d.	c #E8EEF0",
"e.	c #A4BDC2",
"f.	c #9BA2AB",
"g.	c #7D4B4B",
"h.	c #572929",
"i.	c #3D3D6D",
"j.	c #8595A5",
"k.	c #A6B0C6",
"l.	c #6B322E",
"m.	c #2C2B45",
"n.	c #8E929B",
"o.	c #59678B",
"p.	c #1B192C",
"q.	c #594548",
"r.	c #979BA5",
"s.	c #A7ACBC",
"t.	c #919CB4",
"u.	c #8D8D93",
"v.	c #D3C4C4",
"w.	c #917C7B",
"x.	c #232356",
"y.	c #CABFC1",
"z.	c #98A5B6",
"A.	c #51585F",
"B.	c #551B1B",
"C.	c #38272D",
"D.	c #8B8C8F",
"E.	c #C0C0C9",
"F.	c #795556",
"G.	c #2B2C2E",
"H.	c #646384",
"I.	c #8A888B",
"J.	c #6B4446",
"K.	c #707396",
"L.	c #252538",
"M.	c #29222B",
"N.	c #696889",
"O.	c #403349",
"P.	c #2E335E",
"Q.	c #2D3268",
"R.	c #8B6665",
"S.	c #5A322E",
"T.	c #3D3353",
"U.	c #787889",
"V.	c #2F3348",
"W.	c #4C362F",
"X.	c #909097",
"Y.	c #330764",
"Z.	c #2F3364",
"`.	c #331D47",
" +	c #61615F",
".+	c #43333B",
"++	c #33322F",
"@+	c #271B63",
"#+	c #A17272",
"$+	c #424343",
"%+	c #888B98",
"&+	c #979698",
"*+	c #3D4061",
"=+	c #A5A5A8",
"-+	c #BEBEBD",
";+	c #543C44",
">+	c #A2A19F",
",+	c #887988",
"'+	c #694B54",
")+	c #ACADC3",
"!+	c #66657C",
"~+	c #1F1B54",
"{+	c #3F4C7D",
"]+	c #3D3D71",
"^+	c #7F83A3",
"/+	c #969495",
"(+	c #4D709B",
"_+	c #1F316A",
":+	c #68576A",
"<+	c #767376",
"[+	c #565668",
"}+	c #7D7D92",
"|+	c #1B1A45",
"1+	c #E1E0EB",
"2+	c #7F8393",
"3+	c #948F8D",
"4+	c #9F9E9F",
"5+	c #74779A",
"6+	c #385689",
"7+	c #848590",
"8+	c #E1E1DF",
"9+	c #E4E8F1",
"0+	c #CBE4E2",
"a+	c #8C9497",
"b+	c #5E6992",
"c+	c #284F8A",
"d+	c #69749A",
"e+	c #60759F",
"f+	c #2E568C",
"g+	c #5A445B",
"h+	c #93B3BF",
"i+	c #8E99BB",
"j+	c #466796",
"k+	c #2E467B",
"l+	c #351C3C",
"m+	c #393966",
"n+	c #EDE9EA",
"o+	c #C1CDCF",
"p+	c #573D57",
"q+	c #0C0D27",
"r+	c #976565",
"                                                                                                              ",
"                                                                                                              ",
"                                            . +                                                               ",
"                                        @ # $                                                                 ",
"                                      % & *                               = -                                 ",
"                                    ; > ,                                   ; '                               ",
"                                  ) ! ~ ,           {                       ] ^ /                             ",
"                                ( _ : < [ } | ' 1 1 ^ 2 3 * 4               ] 5 6 7                           ",
"                                8 9 0 a b & c d e f g h i j k l 4             5 [ m                           ",
"                                n o p q r s 5 r s t s < u v w i j x         y e z A +                         ",
"                                B 9 : C C r D C s r o v E q F G H I J K L M N b < k O                         ",
"                                P Q s t R t S C R t r S b F F q ^ F T 9 U Q V W < X O                         ",
"                                Y d Z R ` r S t R R o r S F F F F q F S S v g  .~ ..                          ",
"                                +.Q ` R t : t R t R R r r F F F F F F V b u @.@.#.$                           ",
"                                ' 9 ` R r r $.t R R R C C q F q G %.W &.*.A =.#.m                             ",
"                                -.9 R $.S C o R R t o r C q F F %.6 ;.>.,.A '.).                              ",
"                              !.& $.R t F t R R R t R C C q F ^ a E @.=.~.i {.                                ",
"                              +.f r q ].p R R R R R t s t q F p a < ~ k 3 ^.                                  ",
"                            - 9 : ]./.p (.R t o t R C S C F q _.:.H ~ *.<.                                    ",
"                          K _ o q N : q [.S R $.R R S _ : F F W :.~ < < <.                                    ",
"                  }.|.    1.9 R q $.R N V W S C t V F N F F F /.:. .A i <.                                    ",
"                  + 2.$   | ! S F F q p 3.(.F q 4.5 S : F F ^ /.5.@.k 6.                                      ",
"                      7.7   5 e 5 p ]._.%.].S t R $.$.$.S 4.8.9.6 0.j a.                                      ",
"              b.c.d.  e.f.  K g.f h.5 F q F S R C t C S 4.v :.I =.k i.                                        ",
"              !.j.}.  k.a.      | 2 f l.0 F q q F V b 8.[.g m.@.k < .                                         ",
"                  |.f.n.<.          ' f 4.q p [.(.3.]._.h < E k < .                                           ",
"        }.o.        , p.{     @ K     J q.f _.].b p p %.H A k o.O                                             ",
"          {.r.s.t.3 {.{ u.f.8 U T v.      w.f [.[.&.I E E @.x.y.                                              ",
"            7 z.z.<.      A.B.Z C.D.      1.f ].%._.b V 8.E x.E.                                              ",
"                          F.b 8.G.E.      % T 5 q q q q : v x.|.                                              ",
"                        v.9 r F %.:.H.} I.J.N C S q F F r : ;.K.                                              ",
"                        - ! r w a H i L.M.T S q F F F F q 5 h N.                                              ",
"                          1.b C.:.6 g /._.C $.C l.O.P.(.V G Q.E =                                             ",
"                            { R.3.[ H 9.S.C t $.r F _.I W T.< ~ <.                                            ",
"                                d.U.V.W.r C R C S F [.E < E A x.r.                                            ",
"                                    q.T : : r l._.%.;.X ,.@.@.x.X.                                            ",
"                                    D.G.8.[.^ W :.;.,.Y.,.Z.A i J                                             ",
"                                    Y M.Z.Z.H a `.,.,.@.~ Z.V. +                                              ",
"                                    M T T.E E H =.`.;.a H :.M.N.                                              ",
"                                    Z o N .+a a :././.++++a @+N.                                              ",
"                                    #+U C q S.].&.*.a :././.H E =                                             ",
"                                    { ! C : F q q g V.Z.H ++W L./                                             ",
"                                      Y d F l.F V z >.Y.,.3./.G.$+                                            ",
"                                      %+L.%.g %.3.E =.,.@.H 3.H [ &+                                          ",
"                                      &+C.b a :./.g V.a 3.3.E *+< m.=+                                        ",
"                                      -+& 1 ;+++%.0 _.:.E @.i >+2 j i *                                       ",
"                                !.{ ' ,+F.J.0 ++D '+5 F z @.j )+  !+x.~+{+*                                   ",
"                  E.* %+f.,+!+'+q.v [.v 5 q.&.$+q.2.2.8.z A k H.    | l ~.'.]+a.                              ",
"            E.^+n.D./+&+/+(+_+u :+!+<+[+2.q.;+;+].]._.u k < @.< 4       b.}+h |+i 6.{.|.1+                    ",
"            f.2+3+4+n.5+(+6+}+&+4+' >+>+7+E p q q [.u z < < 0.j K.          8+E.7+N.[ L.'.3 a.)+9+            ",
"            0+j.a+} }+b+c+N.&+a+a+a+m d+e+f+z u v < A Z.< A A k i.                  ] | =+[+[+g+5.3 ^.        ",
"                0+h+i+z.3 N./+a+U.j+f+k+0.A A A A 0.A < A ~ i x.K.                              1.'+l+x       ",
"                          )+K.} u.2+j+k+~ k i j ~.j j k j m+H.b.                                    +.c )+    ",
"                            n+o+f.m 6+..i.i.H.{.{.).)+<.4 =                             v.%         y c ).    ",
"                                                                                      y F 1     = ^.p+|+a.    ",
"                                                                                n+% 5 B.d 5 F.:+5.q+[+|.      ",
"                                                                            K P r+F.1 1 F.:+:+, }+1.          ",
"                                                                                                              ",
"                                                                                                              ",
"                                                                                                              "};
