/* XPM */
static char * daemon1des2_xpm[] = {
"55 60 233 2",
"  	c None",
". 	c #958C93",
"+ 	c #B7BBC6",
"@ 	c #C2AFAD",
"# 	c #775E6C",
"$ 	c #AAAABB",
"% 	c #CDB9B9",
"& 	c #C19F9F",
"* 	c #79525D",
"= 	c #75768D",
"- 	c #BBABAF",
"; 	c #CCA4A4",
"> 	c #955D5E",
", 	c #675E8B",
"' 	c #806169",
") 	c #AFAFBF",
"! 	c #A96262",
"~ 	c #936666",
"{ 	c #666683",
"] 	c #5F5D75",
"^ 	c #A1A1A7",
"/ 	c #C4C2C5",
"( 	c #BAA8A8",
"_ 	c #9F7F80",
": 	c #7B8085",
"< 	c #80819D",
"[ 	c #A2A4B7",
"} 	c #8D686A",
"| 	c #656183",
"1 	c #C39999",
"2 	c #A65B5B",
"3 	c #8B696B",
"4 	c #66666C",
"5 	c #836666",
"6 	c #6A606B",
"7 	c #805F5F",
"8 	c #896161",
"9 	c #755D5F",
"0 	c #6B6677",
"a 	c #606083",
"b 	c #5C5C82",
"c 	c #626187",
"d 	c #7A7A98",
"e 	c #655B7D",
"f 	c #9A9EAE",
"g 	c #A67070",
"h 	c #AB6462",
"i 	c #946563",
"j 	c #8A6165",
"k 	c #8D6666",
"l 	c #A16868",
"m 	c #A56666",
"n 	c #72667E",
"o 	c #7E6872",
"p 	c #756774",
"q 	c #5B5B7E",
"r 	c #BBB2C0",
"s 	c #66668C",
"t 	c #B47E7E",
"u 	c #9F6060",
"v 	c #8E6562",
"w 	c #956C73",
"x 	c #C5C5CE",
"y 	c #9A7777",
"z 	c #A97E7F",
"A 	c #8A6972",
"B 	c #66667C",
"C 	c #656172",
"D 	c #D6BFBF",
"E 	c #B78A8B",
"F 	c #7D6667",
"G 	c #636689",
"H 	c #875958",
"I 	c #DCD2D2",
"J 	c #F5F5F5",
"K 	c #D7CDCE",
"L 	c #8D5656",
"M 	c #B39AA1",
"N 	c #F4F4E8",
"O 	c #F1F1EF",
"P 	c #AEA1A1",
"Q 	c #896666",
"R 	c #81666B",
"S 	c #AB5E5E",
"T 	c #8C5D5B",
"U 	c #666666",
"V 	c #5E5E87",
"W 	c #CDC2C2",
"X 	c #F4F4E4",
"Y 	c #A48C8B",
"Z 	c #EDF0E5",
"` 	c #F5F5D1",
" .	c #F5F5D7",
"..	c #E6E4E5",
"+.	c #986666",
"@.	c #655F80",
"#.	c #666189",
"$.	c #777297",
"%.	c #94787D",
"&.	c #E3DAD7",
"*.	c #8D7172",
"=.	c #E3DDDD",
"-.	c #F5F5DD",
";.	c #F5F4CE",
">.	c #574C7F",
",.	c #BAB9C5",
"'.	c #C5B7B7",
").	c #C7ABAB",
"!.	c #716667",
"~.	c #685F75",
"{.	c #666689",
"].	c #9B9AB0",
"^.	c #A6A8AF",
"/.	c #8A8493",
"(.	c #A1AAB6",
"_.	c #E3E3DC",
":.	c #A5605F",
"<.	c #645482",
"[.	c #6B6572",
"}.	c #8C8A99",
"|.	c #7785A1",
"1.	c #B7B2B9",
"2.	c #977E7E",
"3.	c #7C666D",
"4.	c #626675",
"5.	c #66558A",
"6.	c #5D5587",
"7.	c #636683",
"8.	c #B8A5A3",
"9.	c #72666B",
"0.	c #6C6D92",
"a.	c #DAD9D8",
"b.	c #666672",
"c.	c #6B666C",
"d.	c #816562",
"e.	c #666677",
"f.	c #B4B2C0",
"g.	c #B9BEC2",
"h.	c #776666",
"i.	c #AF6666",
"j.	c #6C6C8E",
"k.	c #6B6666",
"l.	c #A6B5C4",
"m.	c #AB6666",
"n.	c #B36666",
"o.	c #777E97",
"p.	c #C7C8D2",
"q.	c #777580",
"r.	c #946969",
"s.	c #706374",
"t.	c #717193",
"u.	c #9098A6",
"v.	c #77666B",
"w.	c #676B8D",
"x.	c #ABACC0",
"y.	c #B5C7CA",
"z.	c #AFB4BA",
"A.	c #9E7A7E",
"B.	c #BABBCB",
"C.	c #A8AFC0",
"D.	c #B4B3B2",
"E.	c #795456",
"F.	c #62658B",
"G.	c #7F89A2",
"H.	c #504F5F",
"I.	c #807275",
"J.	c #A4A4A6",
"K.	c #B6B6B8",
"L.	c #A9989A",
"M.	c #776863",
"N.	c #63666C",
"O.	c #D0C8C9",
"P.	c #ADB6C2",
"Q.	c #B0B4C2",
"R.	c #7E5555",
"S.	c #695D62",
"T.	c #5F5A60",
"U.	c #C9C9C7",
"V.	c #8B8AA1",
"W.	c #A09FA6",
"X.	c #605F7D",
"Y.	c #9193AB",
"Z.	c #5C5C69",
"`.	c #876462",
" +	c #9696A2",
".+	c #ACAFB6",
"++	c #A5A5A9",
"@+	c #664788",
"#+	c #ADA6AA",
"$+	c #868685",
"%+	c #6D667C",
"&+	c #665674",
"*+	c #666563",
"=+	c #B39292",
"-+	c #6C6580",
";+	c #606162",
">+	c #A1A4AD",
",+	c #ABAAAB",
"'+	c #ACABAD",
")+	c #7E6D6E",
"!+	c #A197A1",
"~+	c #8C777D",
"{+	c #7F6D7F",
"]+	c #56547C",
"^+	c #C9C9CF",
"/+	c #7D6C72",
"(+	c #707171",
"_+	c #7E8096",
":+	c #9B9EB4",
"<+	c #738AAB",
"[+	c #58648C",
"}+	c #8B7F8C",
"|+	c #9A9AA8",
"1+	c #555472",
"2+	c #B2B1B2",
"3+	c #9395AE",
"4+	c #7891AF",
"5+	c #697EA2",
"6+	c #6D6F86",
"7+	c #A4AAAC",
"8+	c #848CA8",
"9+	c #5E79A3",
"0+	c #8C93AE",
"a+	c #8594B2",
"b+	c #7E7E8B",
"c+	c #817282",
"d+	c #A9C0C8",
"e+	c #A6ADC5",
"f+	c #627EA4",
"g+	c #627398",
"h+	c #665365",
"i+	c #5C517F",
"j+	c #AB8A8A",
"                                                                                                              ",
"                                                                                                              ",
"                                                                                                              ",
"                                          . +                                                                 ",
"                                      @ # $                                 %                                 ",
"                                    & * =                                   & -                               ",
"                                  ; > , =                                     ' )                             ",
"                                  ! ~ { ] ^ / ( _ _ ' : < [                   } |                             ",
"                                1 2 3 4 5 # 6 7 8 9 0 a a b c d               } e f                           ",
"                                g h 5 i > j k l i m ~ { n o p a q r         % 7 { s                           ",
"                                t u v w ) x w > y z 2 A B k k p B C     D E ~ F G c                           ",
"                                ; H w I J K L M N O P > F Q k k R Q 7 u S T R U { V                           ",
"                                - * W X N Y _ Z `  ...w +.Q Q Q Q Q Q +.+.o 0 @.#.$.                          ",
"                                P %.O  .&.*.=.-.;.;.X z u Q Q k Q Q Q R F n , #.>.,.                          ",
"                                ( '.,.O ).M J ` ` ;.X E u k Q k o U !.~.@.{., >.].                            ",
"                                - ^.c / Y /.(._.` ` Z z :.k Q Q 6 | e <., s >.].                              ",
"                                [.s s }.p |.a 1. .` Z 2.! ~ Q 3.4.{ , 5.6.7.[                                 ",
"                              8.9 { B 9.9.0.c [ X ` a.w ! k j 5 b.{ s c <                                     ",
"                            % 2 ~ !.c.d.e.s q f. .` g.> m Q k h.4 B #.@.                                      ",
"                            ! i.k i ~ k 3.{.j.&.-.X . 2 ~ Q Q k.4 #.#.{.                                      ",
"                  l.x     W 2 m.k i.n.~ R 6 o.x p.< 7 +.Q Q Q U U | s a                                       ",
"                    q.,.  '.> r.Q k k d.4.s.Q ' ' j +.v Q k F U C , #.t.                                      ",
"                      u.    r.7 k 5 !.!.c.!.+.m.i.n.n.n.+.j v.4 #.w.b x.                                      ",
"                o.    y.z.    A.9 F k k v Q +.i.m m l +.v o 4 C , c j.                                        ",
"                (.l.  B.C.      '.q.9 k Q Q k k k R F v.3.B C , #.G                                           ",
"                  x ) ^.            D.E.8 k 5 R s.~.!.v.4.#.{ c F.                                            ",
"        l.G.        = H.                I.9 h.!.F d.5 c.B {.c G.                                              ",
"          [ $ g.C.|.$   J.K.1 S 8         L.M.3.o [.N.{ { s b O.                                              ",
"              P.Q.        : R.l S.J.      W 9 k.6 v.F R o { q W                                               ",
"                          2.d.v.T.U.      @ 8 ~ ~ v k k v o b x                                               ",
"                          :.l Q c.4 V.^ W.*.i m ~ k Q k +.~ X.Y.                                              ",
"                        % > l p b.B b Z.T.8 ~ ~ Q Q Q Q k } a V.                                              ",
"                          W F S.U { e.U h.m n.m `.s.7.[.5 p F.{                                               ",
"                              Y e.X.B 4 d.m ! i.l `.v.~.k.n {.#.                                              ",
"                                   +e.h.+.m.i.m +.} 3.{ #.{ s b .+                                            ",
"                                    I.8 ~ ~ l k h.c.] 5.5.#., b ++                                            ",
"                                    ++T.v.F F c.4 e @+@+5.w.w.X.                                              ",
"                                    #+T.w.{.B b.<.5.5.c #.{.] $+                                              ",
"                                    E 8 %+7.{ B @.&+~.b.B b.T.V.                                              ",
"                                    l i.v !.b.C 4 U N.*+*+b.V V.                                              ",
"                                    =+S m k d.!.[.@.e.4 U U B {                                               ",
"                                      > m ~ Q k k s.4.| e.*+k.Z.K.                                            ",
"                                      #+7 Q v `.R -+5.@+5.B U ;+q.                                            ",
"                                      >+Z.c.0 c.e.7., 5.c B b.0 ] ,+                                          ",
"                                      '+S.3.b.U U 0 4.b.b.e.B j.a 4.K.                                        ",
"                                      / ' 2.)+*+c.3 h.c.{ #.a z.q.b a $                                       ",
"                                    .+!+%.~+3 k.{+~+A `.-+, V B.  }.q ]+t.x.                                  ",
"                  ^+$ ^.z.!+/.~+I.3.' /+~ /+9.(+)+q.I.v.-+s V V.    g._+]+]+0.x.                              ",
"            ^+:+'+J.,+'+,+<+[+n }+/.. $+n I./+p k.!.v.n #.{.#.{.        p.|+X.1+b t.:+^+                      ",
"            K.f ++2+^.3+4+5+ +'+2+1.D.K.f 6+5 v k R n -+#.{.s V 3+            x !+Y.] 1+q d x.+               ",
"              :+7+^ |+8+9+ +,+7+++++f 0+a+9+-+p o {.s F.{.{.s c j.                    / K.b+b+c+~.<           ",
"                  d+e+P.G.V.,+7+ +<+f+g+w.w.s w.w.{.w.{.s {.a q Y.                              W ~+h+r       ",
"                          B.Y.++J.f <+g+#.#.c q i+b b c a w.V.p.                                    8.h+B.    ",
"                                z.f 5+$.t.w.V.[ [ ].B.                                    @         '.h+].    ",
"                                                                                      '.Q 2.        {+1+$     ",
"                                                                                  @ r.R.7 } 2.}+] H.b+x       ",
"                                                                              ).j+y _ Y 2.}+}+=  +W           ",
"                                                                                                              ",
"                                                                                                              ",
"                                                                                                              "};
