/* XPM */
static char * daemon1des3_xpm[] = {
"55 60 230 2",
"  	c None",
". 	c #ABA4A9",
"+ 	c #C3C5CD",
"@ 	c #CABDBB",
"# 	c #95838D",
"$ 	c #B9B9C5",
"% 	c #D2C4C4",
"& 	c #CAB2B1",
"* 	c #977B82",
"= 	c #9394A5",
"- 	c #C5BABD",
"; 	c #D2B5B5",
"> 	c #AB8383",
", 	c #8A83A3",
"' 	c #9B858B",
") 	c #BDBDC8",
"! 	c #B98686",
"~ 	c #A98989",
"{ 	c #89899D",
"] 	c #848394",
"^ 	c #B3B3B7",
"/ 	c #C5B8B8",
"( 	c #B19B9C",
"_ 	c #989B9F",
": 	c #9C9CB0",
"< 	c #B4B5C3",
"[ 	c #A58A8C",
"} 	c #88859D",
"| 	c #CBADAD",
"1 	c #B68181",
"2 	c #A38B8C",
"3 	c #89898D",
"4 	c #9E8989",
"5 	c #8C858C",
"6 	c #9C8484",
"7 	c #A28585",
"8 	c #948284",
"9 	c #8C8995",
"0 	c #85859D",
"a 	c #82829D",
"b 	c #8685A1",
"c 	c #9797AD",
"d 	c #888199",
"e 	c #AEB1BC",
"f 	c #B69090",
"g 	c #BA8786",
"h 	c #AA8887",
"i 	c #A28588",
"j 	c #A58989",
"k 	c #B38A8A",
"l 	c #B68989",
"m 	c #92899A",
"n 	c #9A8A92",
"o 	c #948A93",
"p 	c #81819A",
"q 	c #C6BFC9",
"r 	c #8989A4",
"s 	c #C09A9A",
"t 	c #B18585",
"u 	c #A58886",
"v 	c #AA8D92",
"w 	c #CCCDD3",
"x 	c #AE9595",
"y 	c #B99A9B",
"z 	c #A28B92",
"A 	c #898999",
"B 	c #888591",
"C 	c #D9C8C8",
"D 	c #C3A3A3",
"E 	c #99898A",
"F 	c #8789A2",
"G 	c #A1807F",
"H 	c #DDD6D6",
"I 	c #EEEEEE",
"J 	c #DAD2D3",
"K 	c #A57D7D",
"L 	c #C0AEB3",
"M 	c #EEEEE5",
"N 	c #ECECEA",
"O 	c #BCB3B3",
"P 	c #A28989",
"Q 	c #9C898D",
"R 	c #BA8383",
"S 	c #A48281",
"T 	c #898989",
"U 	c #8383A0",
"V 	c #D2CBCB",
"W 	c #EEEDE2",
"X 	c #B5A4A3",
"Y 	c #E9EBE3",
"Z 	c #EEEED5",
"` 	c #EEEEDA",
" .	c #E3E2E3",
"..	c #AD8989",
"+.	c #88849C",
"@.	c #8985A2",
"#.	c #9592AC",
"$.	c #AA9699",
"%.	c #E2DCD9",
"&.	c #A59192",
"*.	c #E2DEDE",
"=.	c #EEEEDE",
"-.	c #EEEED3",
";.	c #7E779B",
">.	c #C5C4CD",
",.	c #CCC3C3",
"'.	c #CEBABA",
").	c #91898A",
"!.	c #8A8493",
"~.	c #8989A2",
"{.	c #AFAEBE",
"].	c #B6B8BD",
"^.	c #CCCBCC",
"/.	c #A29EA9",
"(.	c #B3B9C2",
"_.	c #E2E2DD",
":.	c #B68584",
"<.	c #887C9D",
"[.	c #8D8892",
"}.	c #A4A3AD",
"|.	c #959FB3",
"1.	c #C3BFC4",
"2.	c #AC9A9A",
"3.	c #99898E",
"4.	c #868993",
"5.	c #897DA2",
"6.	c #837DA1",
"7.	c #87899D",
"8.	c #C3B6B4",
"9.	c #92898D",
"0.	c #8D8EA8",
"a.	c #DCDBDA",
"b.	c #898991",
"c.	c #8C898D",
"d.	c #9C8886",
"e.	c #898995",
"f.	c #C1BFC9",
"g.	c #C4C8CA",
"h.	c #958989",
"i.	c #BD8989",
"j.	c #8D8DA6",
"k.	c #8D8989",
"l.	c #B6C1CC",
"m.	c #BA8989",
"n.	c #C08989",
"o.	c #959AAC",
"p.	c #CECFD6",
"q.	c #95939C",
"r.	c #AA8B8B",
"s.	c #908793",
"t.	c #9191A9",
"u.	c #A7ACB7",
"v.	c #95898D",
"w.	c #8A8CA5",
"x.	c #BABBC9",
"y.	c #C1CED0",
"z.	c #BDC0C5",
"A.	c #B1979A",
"B.	c #C5C6D1",
"C.	c #B8BDC9",
"D.	c #C0C0BF",
"E.	c #977C7E",
"F.	c #8688A3",
"G.	c #9BA2B4",
"H.	c #797984",
"I.	c #9C9293",
"J.	c #B5B5B7",
"K.	c #C2C2C3",
"L.	c #B9ACAE",
"M.	c #958A87",
"N.	c #87898D",
"O.	c #BBC2CA",
"P.	c #BEC1CB",
"Q.	c #9A7D7D",
"R.	c #8B8386",
"S.	c #848085",
"T.	c #A3A2B3",
"U.	c #B2B2B6",
"V.	c #858499",
"W.	c #A7A9BA",
"X.	c #82828B",
"Y.	c #A18886",
"Z.	c #ABABB4",
"`.	c #BBBDC2",
" +	c #B6B6B9",
".+	c #8973A1",
"++	c #BBB6B9",
"@+	c #A0A09F",
"#+	c #8E8999",
"$+	c #897E93",
"%+	c #898887",
"&+	c #C0A8A8",
"*+	c #8D889C",
"=+	c #858586",
"-+	c #B3B5BB",
";+	c #BAB9BA",
">+	c #BBBABB",
",+	c #9A8E8F",
"'+	c #B3ACB3",
")+	c #A49599",
"!+	c #9B8E9B",
"~+	c #7D7C99",
"{+	c #998D91",
"]+	c #909191",
"^+	c #9A9BAB",
"/+	c #AFB1C1",
"(+	c #92A3BA",
"_+	c #7F88A4",
":+	c #A39BA4",
"<+	c #AEAEB8",
"[+	c #7D7C92",
"}+	c #BFBEBF",
"|+	c #A9ABBC",
"1+	c #96A7BD",
"2+	c #8B9AB4",
"3+	c #8E8FA0",
"4+	c #B5B9BB",
"5+	c #9EA4B8",
"6+	c #8397B4",
"7+	c #A4A9BC",
"8+	c #9FAABF",
"9+	c #9A9AA3",
"0+	c #9C919D",
"a+	c #B9C9CF",
"b+	c #B6BCCD",
"c+	c #869AB5",
"d+	c #8692AD",
"e+	c #897B88",
"f+	c #827A9B",
"g+	c #BAA3A2",
"                                                                                                              ",
"                                                                                                              ",
"                                                                                                              ",
"                                          . +                                                                 ",
"                                      @ # $                                 %                                 ",
"                                    & * =                                   & -                               ",
"                                  ; > , =                                     ' )                             ",
"                                  ! ~ { ] ^   / ( ( ' _ : <                   [ }                             ",
"                                | 1 2 3 4 # 5 6 7 8 9 0 0 a b c               [ d e                           ",
"                                f g 4 h > i j k h l ~ { m n o 0 p q         % 6 { r                           ",
"                                s t u v ) w v > x y 1 z A j j o A B     C D ~ E F b                           ",
"                                ; G v H I J K L M N O > E P j j Q P 6 t R S Q T { U                           ",
"                                - * V W M X ( Y Z `  .v ..P P P P P P ....n 9 +.@.#.                          ",
"                                O $.N ` %.&.*.=.-.-.W y t P P j P P P Q E m , @.;.>.                          ",
"                                / ,.>.N '.L I Z Z -.W D t j P j n T ).!.+.~., ;.{.                            ",
"                                - ].b ^.X /.(._.Z Z Y y :.j P P 5 } d <., r ;.{.                              ",
"                                [.r r }.o |.0 1.` Z Y 2.! ~ P 3.4.{ , 5.6.7.<                                 ",
"                              8.8 { A 9.9.0.b < W Z a.v ! j i 4 b.{ r b :                                     ",
"                            % 1 ~ ).c.d.e.r p f.` Z g.> l P j h.3 A @.+.                                      ",
"                            ! i.j h ~ j 3.~.j.%.=.W . 1 ~ P P k.3 @.@.~.                                      ",
"                  l.        1 m.j i.n.~ Q 5 o.w p.: 6 ..P P P T T } r 0                                       ",
"                    q.>.  ,.> r.P j j d.4.s.P ' ' i ..u P j E T B , @.t.                                      ",
"                      u.    r.6 j 4 ).).c.)...m.i.n.n.n...i v.3 @.w.a x.                                      ",
"                o.    y.z.    A.8 E j j u P ..i.l l k ..u n 3 B , b j.                                        ",
"                (.l.  B.C.      ,.q.8 j P P j j j Q E v.3.A B , @.F                                           ",
"                    ) ].            D.E.7 j 4 Q s.!.).v.4.@.{ b F.                                            ",
"        l.G.        = H.                I.8 h.).E d.4 c.A ~.b G.                                              ",
"          < $ g.C.|.$   J.K.| R 7         L.M.3.n [.N.{ { r a                                                 ",
"              O.P.        _ Q.k R.J.        8 k.5 v.E Q n { p                                                 ",
"                          2.d.v.S.        @ 7 ~ ~ u j j u n a                                                 ",
"                          :.k P c.3 T.^ U.&.h l ~ j P j ..~ V.W.                                              ",
"                        % > k o b.A a X.S.7 ~ ~ P P P P j [ 0 T.                                              ",
"                            E R.T { e.T h.l n.l Y.s.7.[.4 o F.{                                               ",
"                              X e.V.A 3 d.l ! i.k Y.v.!.k.m ~.@.                                              ",
"                                  Z.e.h...m.i.l ..[ 3.{ @.{ r a `.                                            ",
"                                    I.7 ~ ~ k j h.c.] 5.5.@., a  +                                            ",
"                                     +S.v.E E c.3 d .+.+5.w.w.V.                                              ",
"                                    ++S.w.~.A b.<.5.5.b @.~.] @+                                              ",
"                                    D 7 #+7.{ A +.$+!.b.A b.S.T.                                              ",
"                                    k i.u ).b.B 3 T N.%+%+b.U T.                                              ",
"                                    &+R l j d.).[.+.e.3 T T A {                                               ",
"                                      > l ~ P j j s.4.} e.%+k.X.K.                                            ",
"                                      ++6 P u Y.Q *+5..+5.A T =+q.                                            ",
"                                      -+X.c.9 c.e.7., 5.b A b.9 ] ;+                                          ",
"                                      >+R.3.b.T T 9 4.b.b.e.A j.0 4.K.                                        ",
"                                        ' 2.,+%+c.2 h.c.{ @.0 z.q.a 0 $                                       ",
"                                    `.'+$.)+2 k.!+)+z Y.*+, U B.  }.p ~+t.x.                                  ",
"                    $ ].z.'+/.)+I.3.' {+~ {+9.]+,+q.I.v.*+r U T.    g.^+~+~+0.x.                              ",
"              /+>+J.;+>+;+(+_+m :+/.. @+m I.{+o k.).v.m @.~.@.~.          <+V.[+a t./+                        ",
"            K.e  +}+].|+1+2+Z.>+}+1.D.K.e 3+4 u j Q m *+@.~.r U |+              '+W.] [+p c x.+               ",
"              /+4+^ <+5+6+Z.;+4+ + +e 7+8+6+*+o n ~.r F.~.~.r b j.                      K.9+9+0+!.:           ",
"                  a+b+O.G.T.;+4+Z.(+c+d+w.w.r w.w.~.w.~.r ~.0 p W.                                )+e+q       ",
"                          B.W. +J.e (+d+@.@.b p f+a a b 0 w.T.                                      8.e+B.    ",
"                                z.e 2+#.t.w.T.< < {.B.                                    @         ,.e+{.    ",
"                                                                                      ,.P 2.        !+[+$     ",
"                                                                                  @ r.Q.6 [ 2.:+] H.9+        ",
"                                                                              '.g+x ( X 2.:+:+= Z.            ",
"                                                                                                              ",
"                                                                                                              ",
"                                                                                                              "};
