/* XPM */
static char * kde1des2_xpm[] = {
"60 51 659 2",
"  	c None",
". 	c #C7C7C7",
"+ 	c #679C70",
"@ 	c #699D72",
"# 	c #C8C9C9",
"$ 	c #B6B7B7",
"% 	c #B9BCBB",
"& 	c #999B9A",
"* 	c #606060",
"= 	c #4E4E4E",
"- 	c #808080",
"; 	c #5A7F60",
"> 	c #689A71",
", 	c #7C7C7C",
"' 	c #595A5A",
") 	c #858787",
"! 	c #C2C3C3",
"~ 	c #838484",
"{ 	c #5C6D5F",
"] 	c #AAB9AD",
"^ 	c #5E8665",
"/ 	c #63956C",
"( 	c #B6C2B8",
"_ 	c #A9B6AB",
": 	c #747675",
"< 	c #868787",
"[ 	c #A9AAAA",
"} 	c #A5B3A8",
"| 	c #96AE9B",
"1 	c #74A87E",
"2 	c #598361",
"3 	c #598561",
"4 	c #5B8A64",
"5 	c #577F5E",
"6 	c #5E8365",
"7 	c #8CAA93",
"8 	c #A6C2AC",
"9 	c #BACABE",
"0 	c #8AA88F",
"a 	c #83A68A",
"b 	c #628E69",
"c 	c #5D9066",
"d 	c #5F9569",
"e 	c #62946B",
"f 	c #7C9381",
"g 	c #7BA182",
"h 	c #66A370",
"i 	c #9ABFA0",
"j 	c #BECBC0",
"k 	c #6E9375",
"l 	c #7B9580",
"m 	c #ABAFAD",
"n 	c #99AD9D",
"o 	c #8AA38F",
"p 	c #609269",
"q 	c #89A08E",
"r 	c #AEAFAF",
"s 	c #ADB6B0",
"t 	c #8AAF91",
"u 	c #99BEA0",
"v 	c #95A199",
"w 	c #96A49B",
"x 	c #AEB9B2",
"y 	c #93AB97",
"z 	c #728A77",
"A 	c #A0A6A2",
"B 	c #BEC0C0",
"C 	c #C9CBCB",
"D 	c #BBBCBC",
"E 	c #62916A",
"F 	c #AAABAB",
"G 	c #C0C2C2",
"H 	c #CACCCC",
"I 	c #AABDAE",
"J 	c #77A880",
"K 	c #C2D5C5",
"L 	c #A9B6AD",
"M 	c #99AB9F",
"N 	c #94A299",
"O 	c #8C9D92",
"P 	c #597061",
"Q 	c #5A7162",
"R 	c #809287",
"S 	c #B9C7BC",
"T 	c #6B9072",
"U 	c #849589",
"V 	c #A6A9A8",
"W 	c #878E8A",
"X 	c #7A7C7C",
"Y 	c #BEBFBF",
"Z 	c #85978A",
"` 	c #A4A6A6",
" .	c #787A79",
"..	c #959D98",
"+.	c #B1C5B5",
"@.	c #69A474",
"#.	c #A2C3A8",
"$.	c #A7B3AB",
"%.	c #657D6D",
"&.	c #5D7866",
"*.	c #90A698",
"=.	c #98A99E",
"-.	c #98A49D",
";.	c #85958A",
">.	c #5E7766",
",.	c #5C7665",
"'.	c #647A6C",
").	c #A8B4AC",
"!.	c #9DB3A0",
"~.	c #588360",
"{.	c #89998D",
"].	c #747575",
"^.	c #5E6962",
"/.	c #515351",
"(.	c #BBBDBD",
"_.	c #959A99",
":.	c #646664",
"<.	c #535E56",
"[.	c #727573",
"}.	c #B6CABA",
"|.	c #75B27F",
"1.	c #76AB7F",
"2.	c #C0D6C5",
"3.	c #A6B1AA",
"4.	c #657C6D",
"5.	c #607E6A",
"6.	c #658470",
"7.	c #95AC9D",
"8.	c #9DAEA3",
"9.	c #9AA89F",
"0.	c #617969",
"a.	c #5B7564",
"b.	c #5B7262",
"c.	c #5C7765",
"d.	c #5A8062",
"e.	c #5B7464",
"f.	c #64796B",
"g.	c #A8B2AB",
"h.	c #9DB4A1",
"i.	c #859488",
"j.	c #969898",
"k.	c #5F6260",
"l.	c #505050",
"m.	c #939595",
"n.	c #7DA485",
"o.	c #8D8E8E",
"p.	c #505451",
"q.	c #6F7070",
"r.	c #BBCFBF",
"s.	c #80BE8B",
"t.	c #68A672",
"u.	c #ADCCB2",
"v.	c #8B9C91",
"w.	c #5C7564",
"x.	c #5B8163",
"y.	c #5F7D69",
"z.	c #5E7967",
"A.	c #64816D",
"B.	c #698672",
"C.	c #A0B2A6",
"D.	c #A4B0A8",
"E.	c #758A7C",
"F.	c #627B6B",
"G.	c #586E60",
"H.	c #5A7362",
"I.	c #5A8462",
"J.	c #5A7262",
"K.	c #93A298",
"L.	c #B2C0B4",
"M.	c #628568",
"N.	c #628C6A",
"O.	c #939F96",
"P.	c #9D9F9F",
"Q.	c #A5A6A6",
"R.	c #709777",
"S.	c #6C9A75",
"T.	c #A1A3A3",
"U.	c #9E9F9F",
"V.	c #ADAFAF",
"W.	c #7FBD8A",
"X.	c #6EAC79",
"Y.	c #647C6B",
"Z.	c #566D5C",
"`.	c #617E6B",
" +	c #70927A",
".+	c #8EB298",
"++	c #A9B9AE",
"@+	c #62796A",
"#+	c #5B7263",
"$+	c #566A5D",
"%+	c #598060",
"&+	c #55695B",
"*+	c #5A7562",
"=+	c #607768",
"-+	c #ECEEED",
";+	c #94AB98",
">+	c #598461",
",+	c #5B8B64",
"'+	c #8E9891",
")+	c #6E9977",
"!+	c #62986B",
"~+	c #6F9E77",
"{+	c #9A9C9C",
"]+	c #97A69B",
"^+	c #78B082",
"/+	c #7AB685",
"(+	c #6CA877",
"_+	c #ADCBB2",
":+	c #55685B",
"<+	c #576B5E",
"[+	c #5B7764",
"}+	c #5A8162",
"|+	c #5D7766",
"1+	c #64836D",
"2+	c #6E8C79",
"3+	c #B4C4B9",
"4+	c #B5BEB8",
"5+	c #647B6B",
"6+	c #5F7969",
"7+	c #5B7363",
"8+	c #586D5F",
"9+	c #597F61",
"0+	c #5A8562",
"a+	c #576C5F",
"b+	c #5A8561",
"c+	c #597060",
"d+	c #56705C",
"e+	c #5A7F62",
"f+	c #5D7565",
"g+	c #ACB6AF",
"h+	c #9CB19F",
"i+	c #5A8762",
"j+	c #598562",
"k+	c #5B8463",
"l+	c #5D8E66",
"m+	c #62956B",
"n+	c #6EA679",
"o+	c #84C28F",
"p+	c #69A674",
"q+	c #A0C4A6",
"r+	c #A6B2AA",
"s+	c #5D7566",
"t+	c #5C8464",
"u+	c #5B8762",
"v+	c #5F7E68",
"w+	c #6C8976",
"x+	c #72917D",
"y+	c #B9C6BD",
"z+	c #B6BFB9",
"A+	c #566C5D",
"B+	c #587D5F",
"C+	c #597E61",
"D+	c #586E5F",
"E+	c #A3AFA7",
"F+	c #9CAF9F",
"G+	c #597E60",
"H+	c #557A5C",
"I+	c #567C5D",
"J+	c #5B8963",
"K+	c #5C8C64",
"L+	c #5D8F66",
"M+	c #5D8E65",
"N+	c #69A274",
"O+	c #75AD7F",
"P+	c #A1BFA7",
"Q+	c #A4B2A9",
"R+	c #5B7463",
"S+	c #5B8464",
"T+	c #5B8862",
"U+	c #5B7964",
"V+	c #5C8964",
"W+	c #5C7864",
"X+	c #587E5F",
"Y+	c #5C7664",
"Z+	c #6B9575",
"`+	c #BFD3C2",
" @	c #C1C8C3",
".@	c #5B7563",
"+@	c #576F5E",
"@@	c #587A5F",
"#@	c #58725F",
"$@	c #A7B4AB",
"%@	c #8BA590",
"&@	c #58815F",
"*@	c #60996B",
"=@	c #61996B",
"-@	c #619A6B",
";@	c #93B99A",
">@	c #A8B3AB",
",@	c #5C8564",
"'@	c #5B7864",
")@	c #5A8662",
"!@	c #5C8A64",
"~@	c #597D61",
"{@	c #5D7966",
"]@	c #64826E",
"^@	c #64846F",
"/@	c #C5CFC8",
"(@	c #C3CBC5",
"_@	c #62796B",
":@	c #738579",
"<@	c #728C79",
"[@	c #74997A",
"}@	c #658E6C",
"|@	c #729879",
"1@	c #5A8461",
"2@	c #58755F",
"3@	c #628C69",
"4@	c #68876F",
"5@	c #5A7062",
"6@	c #57755E",
"7@	c #577F5F",
"8@	c #5C8D65",
"9@	c #5E9267",
"0@	c #649D6E",
"a@	c #639F6D",
"b@	c #67A472",
"c@	c #69A675",
"d@	c #649F6E",
"e@	c #5F8B68",
"f@	c #5C7565",
"g@	c #6A8C72",
"h@	c #759D7C",
"i@	c #64916C",
"j@	c #5B8962",
"k@	c #5B8864",
"l@	c #749C7B",
"m@	c #5B7962",
"n@	c #67936F",
"o@	c #759B7C",
"p@	c #74877B",
"q@	c #678270",
"r@	c #62806C",
"s@	c #C4CCC7",
"t@	c #617768",
"u@	c #7C8F83",
"v@	c #9FA8A2",
"w@	c #B1C5B4",
"x@	c #66906E",
"y@	c #789D7E",
"z@	c #7C9F83",
"A@	c #628D6A",
"B@	c #A2BAA6",
"C@	c #BFC6C2",
"D@	c #6A7D70",
"E@	c #58795F",
"F@	c #598460",
"G@	c #5E9368",
"H@	c #71AD7C",
"I@	c #67A171",
"J@	c #64A06F",
"K@	c #73AF7E",
"L@	c #80BE8A",
"M@	c #6AA875",
"N@	c #64956F",
"O@	c #6C8274",
"P@	c #C0C8C3",
"Q@	c #A3BDA8",
"R@	c #79A080",
"S@	c #7EA385",
"T@	c #699570",
"U@	c #B2C7B6",
"V@	c #7E9385",
"W@	c #7CA285",
"X@	c #C9D5CC",
"Y@	c #86998C",
"Z@	c #94B099",
"`@	c #7D9F83",
" #	c #85A68A",
".#	c #A1B9A5",
"+#	c #BCC3BE",
"@#	c #6B8770",
"##	c #5C8B64",
"$#	c #659B6F",
"%#	c #629C6C",
"&#	c #629D6D",
"*#	c #64A06E",
"=#	c #69A775",
"-#	c #6B9B75",
";#	c #A2BCA6",
">#	c #87A98C",
",#	c #7EA485",
"'#	c #95B39A",
")#	c #8AA092",
"!#	c #8CA293",
"~#	c #B4C7B8",
"{#	c #6A9271",
"]#	c #80A287",
"^#	c #9CAE9F",
"/#	c #5B8A63",
"(#	c #6A9D73",
"_#	c #5F9469",
":#	c #60986B",
"<#	c #6DA176",
"[#	c #75997E",
"}#	c #708477",
"|#	c #C0C5C1",
"1#	c #83A689",
"2#	c #6C9773",
"3#	c #B5C9B9",
"4#	c #B4C7B7",
"5#	c #809585",
"6#	c #607B66",
"7#	c #5D8364",
"8#	c #598662",
"9#	c #5F9669",
"0#	c #679870",
"a#	c #91A996",
"b#	c #98A49B",
"c#	c #9FB1A3",
"d#	c #B4C9B8",
"e#	c #83A188",
"f#	c #7B6F62",
"g#	c #7F8275",
"h#	c #5F8366",
"i#	c #58835F",
"j#	c #64916B",
"k#	c #8BA190",
"l#	c #A4ADA7",
"m#	c #80A187",
"n#	c #82A889",
"o#	c #839F88",
"p#	c #716D56",
"q#	c #8E8681",
"r#	c #829185",
"s#	c #7C9180",
"t#	c #58785E",
"u#	c #577E5E",
"v#	c #5D8360",
"w#	c #9D6F5C",
"x#	c #869A8B",
"y#	c #9BAC9F",
"z#	c #5F976A",
"A#	c #AAC5AF",
"B#	c #B9C6BB",
"C#	c #598360",
"D#	c #8E6B62",
"E#	c #A29393",
"F#	c #AD7777",
"G#	c #9D5C52",
"H#	c #AB685D",
"I#	c #AB5E51",
"J#	c #E44E4E",
"K#	c #C27C7C",
"L#	c #B6A1A1",
"M#	c #B18577",
"N#	c #ABC8B0",
"O#	c #8DA892",
"P#	c #5E9167",
"Q#	c #75775B",
"R#	c #98958F",
"S#	c #B85454",
"T#	c #D04545",
"U#	c #F06161",
"V#	c #EE5858",
"W#	c #E84949",
"X#	c #DD5C5C",
"Y#	c #A49D98",
"Z#	c #80775C",
"`#	c #5E9268",
" $	c #619B6B",
".$	c #7EAC86",
"+$	c #B0C2B4",
"@$	c #6C9073",
"#$	c #AF514C",
"$$	c #C44343",
"%$	c #E95151",
"&$	c #EB5151",
"*$	c #DF4F4F",
"=$	c #A06D64",
"-$	c #5D9167",
";$	c #629B6C",
">$	c #B4CCB8",
",$	c #C9D3CB",
"'$	c #6E8E74",
")$	c #58825F",
"!$	c #AB5048",
"~$	c #CC4545",
"{$	c #ED5A5A",
"]$	c #EF5A5A",
"^$	c #E44848",
"/$	c #C74343",
"($	c #A45149",
"_$	c #639E6D",
":$	c #79AB82",
"<$	c #B9C7BB",
"[$	c #B9524B",
"}$	c #D34646",
"|$	c #EF6060",
"1$	c #C64343",
"2$	c #AF4C47",
"3$	c #6A7B5C",
"4$	c #58805F",
"5$	c #5F9769",
"6$	c #BED4C2",
"7$	c #BAC9BC",
"8$	c #5C8C65",
"9$	c #AB9A53",
"0$	c #D05147",
"a$	c #E84C4C",
"b$	c #D84A4A",
"c$	c #CE4545",
"d$	c #AB4F48",
"e$	c #5B8863",
"f$	c #72A87C",
"g$	c #C8D2CA",
"h$	c #618366",
"i$	c #A6A854",
"j$	c #BBA54F",
"k$	c #D44C47",
"l$	c #D05247",
"m$	c #B6A54F",
"n$	c #98A156",
"o$	c #629E6D",
"p$	c #64A16F",
"q$	c #C7DACB",
"r$	c #C2CEC5",
"s$	c #567B5C",
"t$	c #72A97C",
"u$	c #679B70",
"v$	c #9DA556",
"w$	c #B7AF50",
"x$	c #CCC053",
"y$	c #E0D370",
"z$	c #EF6660",
"A$	c #CDBB52",
"B$	c #A6A451",
"C$	c #597A5A",
"D$	c #5F9368",
"E$	c #68A673",
"F$	c #6BA875",
"G$	c #67A672",
"H$	c #C8DCCC",
"I$	c #C5D0C7",
"J$	c #5B8062",
"K$	c #5B8C64",
"L$	c #A1A655",
"M$	c #B8AF50",
"N$	c #E0D970",
"O$	c #E1DA71",
"P$	c #D8CE58",
"Q$	c #BAB655",
"R$	c #5B805D",
"S$	c #689F72",
"T$	c #72AE7D",
"U$	c #C2D8C6",
"V$	c #BAC9BD",
"W$	c #CEC254",
"X$	c #D0C354",
"Y$	c #B2B357",
"Z$	c #6CA676",
"`$	c #75B280",
" %	c #AABEAD",
".%	c #949E56",
"+%	c #A8A954",
"@%	c #B6AF51",
"#%	c #BCBA56",
"$%	c #A4AF5A",
"%%	c #6DA577",
"&%	c #71AC7B",
"*%	c #69A473",
"=%	c #65A170",
"-%	c #ADC2B1",
";%	c #9CA858",
">%	c #C8BE53",
",%	c #ABB158",
"'%	c #60986A",
")%	c #629B6B",
"!%	c #5C8D64",
"~%	c #6A8A5C",
"{%	c #608961",
"]%	c #7CA884",
"^%	c #B4AF54",
"/%	c #A9AD57",
"(%	c #73A17C",
"_%	c #BFC9C1",
":%	c #84AA8B",
"<%	c #7DA585",
"[%	c #739E7B",
"}%	c #6D9D75",
"|%	c #859B5B",
"1%	c #7C8E5A",
"2%	c #79955D",
"3%	c #B1B6AF",
"4%	c #B8B377",
"5%	c #6D8A74",
"6%	c #7FA783",
"7%	c #82A566",
"8%	c #758A57",
"9%	c #748C61",
"0%	c #7CA083",
"a%	c #79A681",
"b%	c #9AAC9E",
"c%	c #567E5D",
"d%	c #A1B6A6",
"e%	c #879F8C",
"f%	c #948E56",
"g%	c #B0A151",
"h%	c #9A9372",
"i%	c #AFA88F",
"j%	c #A1A5A3",
"k%	c #B2A989",
"l%	c #B2A451",
"m%	c #B9AE61",
"n%	c #BEBC93",
"o%	c #B2B6B6",
"p%	c #A5B9A9",
"q%	c #5D9166",
"r%	c #5F9369",
"s%	c #9FB3A4",
"t%	c #F5F5F5",
"u%	c #55785B",
"v%	c #55775B",
"w%	c #839A87",
"x%	c #759279",
"y%	c #798A5B",
"z%	c #838656",
"A%	c #C2B792",
"B%	c #CABF9B",
"C%	c #CCCCC9",
"D%	c #C4C0A1",
"E%	c #9FB1A2",
"F%	c #849387",
"G%	c #7B9380",
"H%	c #99BC9F",
"I%	c #56785C",
"J%	c #547258",
"K%	c #54755A",
"L%	c #57805E",
"M%	c #93AD98",
"N%	c #567A5C",
"O%	c #547559",
"P%	c #57805F",
"Q%	c #65A070",
"R%	c #C5D2C7",
"S%	c #567D5D",
"T%	c #5C8E65",
"U%	c #98B89E",
"V%	c #5D8D65",
"W%	c #95BE9D",
"X%	c #C5D3C7",
"Y%	c #5F9468",
"Z%	c #6D8672",
"`%	c #85A18A",
" &	c #A1BBA6",
".&	c #93A598",
"+&	c #638C6B",
"@&	c #728977",
"#&	c #799A7E",
"$&	c #99B09D",
"%&	c #9AAC9F",
"&&	c #678C6E",
"*&	c #8BA691",
"=&	c #9CA39F",
"-&	c #98A69C",
";&	c #9B9F9D",
">&	c #A3AFA6",
",&	c #9FAEA2",
"'&	c #BBC0BE",
"                                                                                                                        ",
"                                                                                                                        ",
"                                                                                                                        ",
"                                                                                                                        ",
"                                                      . . + @   .   # $                                                 ",
"                                                % & * = - ; >   , ' ) !                                                 ",
"                                                  ~ , { ] ^ / ( _ : < [                                                 ",
"                                                  } | 1 2 3 4 5 6 7 8 9                                                 ",
"                                                  0 4 a b c d e f g h i                                                 ",
"                                                j k l m n o p q r s t u                                                 ",
"                                v w x           y z A B C D E F G H I J K           L M                                 ",
"                            N O P Q R         S T U V W X Y Z `  ...+.@.#.        $.%.&.*.=.                            ",
"                        -.;.>.,.Q Q '.).      !.~.{.].^./.(._.:.<.[.}.|.1.2.    3.4.,.,.5.6.7.8.                        ",
"                      9.0.a.b.c.d.e.Q f.g.    h.3 i.j.k.l.m.n.o.p.q.r.s.t.u.    v.w.,.x.y.z.A.B.C.                      ",
"                  D.E.F.,.G.a.H.I.J.Q Q K.  L.M.3 N.O.P.Q.R.S.T.U.V.+.W.X.u.  D.Y.P Q Z.b.b.a.`. +.+++                  ",
"                $.@+,.#+$+%+J.&+I.*+d.Q =+$.-+;+>+,+b '+)+!+!+~+{+]+^+/+(+_+$.@+,.d.*+:+<+[+}+G.|+1+2+3+                ",
"            4+5+6+7+8+9+0+*+a+b+I.c+d+e+Q f+g+h+>+i+j+k+2 i+4 l+m+n+o+p+q+r+s+,.t+u+*+a.I.b.v+0+9+P z.w+x+y+            ",
"          z+7+w.7+A+B+i+i+H.&+i+I.*+i+C+D+Q E+F+G+H+I+~.J+K+L+L+M+K+N+O+P+Q+,.R+S+T+U+V+i+0+W+K+4 X+A+Y+`.Z+`+          ",
"       @P w..@+@@@i+i+i+i+#@0+i+I.*+i+i+d.J.Q $@%@&@3 ,+c d *@*@=@=@-@;@>@e.c.,@K+T+'@V+K+)@#@!@K+K+4 ~@H.{@]@^@/@      ",
"    (@b._@:@<@[@}@i+i+i+i+i+|@i+1@2@i+3@[@4@5@6@7@)@J+8@9@0@a@a@b@c@d@e@e.f@g@h@i@j@2@k@K+l@V+m@K+K+K+n@o@<@p@q@r@      ",
"  s@t@u@v@      w@x@i+i+i+y@  z@y@i+A@B@  C@D@E@F@T+,+K+G@H@I@J@K@L@M@N@,.O@P@  Q@i@K+R@S@  R@K+K+K+T@U@      v@V@W@X@  ",
"  Y@9.            Z@i+i+`@         #.#      +#@#~.T+4 ##L+$#%#*@&#*#=#-#e.$.      ;#>#        ,#K+K+'#            -.)#!#",
"                  ~#{#]#                      ^#X+i+/#4 8@(#_#:#*@%#<#[#}#|#                    1#2#3#                  ",
"                    4#                        5#6#7#8#u+4 K+K+9#9#0#a#b#c#                        d#                    ",
"                                            e#5 f#g#h#i#~.##K+l+j#k#l#m#n#                                              ",
"                                          o#>+3 p#q#r#s#t#u#v#w#x#r y#G@z#A#                                            ",
"                                        B#I+)@8@C#D#E#F#G#H#I#J#K#L#M#G@-@N#                                            ",
"                                          O#i+G@P#Q#R#S#T#U#V#W#X#Y#Z#`# $.$                                            ",
"                                          +$0+9@z#K+@$#$$$%$&$W#*$=$0+-$;$;$>$                                          ",
"                                        ,$'$)$8@9@K+,+!$~${$]$^$/$($)$4 =@_$:$                                          ",
"                                        <$I+5 /#_#l+##[$}$U#|$1$2$3$4$T+5$a@a@6$                                        ",
"                                        7$u#)$K+-$8$##9$0$a$b$c$d$i+4$e$d &#*#f$                                        ",
"                                      g$h$4$i+G@_#M+K+i$j$k$}$l$m$n$i+G@:#o$p$*#q$                                      ",
"                                      r$s$F@l+8@t$u$v$w$x$y$z$A$B$C$8@9@D$E$F$G$H$                                      ",
"                                      I$J$4$4$K$c 8$L$M$x$N$O$P$Q$R$i#K+c S$T$M@U$                                      ",
"                                        V$&@j+c z#l+L$M$M$W$P$X$X$Y$0+-$z#Z$`$M@&#                                      ",
"                                         %u+K+-$:#i+.%+%@%W$X$W$#%$%J+c d %%&%*%=%                                      ",
"                                      -%l+_#e$e$D$,+T+K+;%>%W$,%c '%K+)@i+4$T+K+%#                                      ",
"                                      c )%J+5 !%i+~%{%l+]%^%/%c d@K+I+K+,+>+J+l+(%                                      ",
"                                    _%:%<%4$T+[%}%|%1%2%3%4%5%6%7%8%9%0%a%9@L+L+b%                                      ",
"                                    r   <$c%F@d%e%u#f%g%h%i%j%k%l%m%n%o%p%4 q%r%s%                                      ",
"                                      t%<$u%v%w%x%5 y%z%A%B%C%B%B%D%E%F%G%u#j+l+H%                                      ",
"                                        0 F@I%J%K%L%)@s$          M%i+)$N%O%P%q%Q%                                      ",
"                                      R%i+4 &@S%5 3 T%T%U%        3 V%K+&@C#i+c d@W%                                    ",
"                                      X%T+i+&@j+K+)@/#9#-$        i+##J+>+l+/#T+Y%a@                                    ",
"                                        Z%`%%@)$K+ &.&+&3#        @&#&$&u#,+'#%&&&*&                                    ",
"                                        =&    -&]                 ;&    >&,&      '&                                    ",
"                                                                                                                        ",
"                                                                                                                        ",
"                                                                                                                        ",
"                                                                                                                        "};
