/* XPM */
static char * kde1_xpm[] = {
"60 51 774 2",
"  	c None",
". 	c #D4E7D8",
"+ 	c #D3E4D6",
"@ 	c #C7C9C9",
"# 	c #C8C9C9",
"$ 	c #C8CACA",
"% 	c #D6D7D7",
"& 	c #C8C8C8",
"* 	c #BDBDBD",
"= 	c #358042",
"- 	c #378145",
"; 	c #C3C4C4",
"> 	c #BFC0C0",
", 	c #A5A7A7",
"' 	c #E2E3E3",
") 	c #A9AEAD",
"! 	c #7C7F7E",
"~ 	c #2B2B2B",
"{ 	c #111111",
"] 	c #585858",
"^ 	c #22572B",
"/ 	c #367E43",
"( 	c #EBEBEB",
"_ 	c #535353",
": 	c #212222",
"< 	c #606262",
"[ 	c #B7B8B8",
"} 	c #C6C7C7",
"| 	c #5C5E5E",
"1 	c #525353",
"2 	c #253E2A",
"3 	c #94A998",
"4 	c #286132",
"5 	c #2F763C",
"6 	c #A5B7A8",
"7 	c #93A596",
"8 	c #474A49",
"9 	c #616363",
"0 	c #939494",
"a 	c #8DA191",
"b 	c #789A7F",
"c 	c #479255",
"d 	c #215D2C",
"e 	c #215F2C",
"f 	c #246730",
"g 	c #1E5728",
"h 	c #285C32",
"i 	c #699473",
"j 	c #8FB697",
"k 	c #ABC2B0",
"l 	c #67926E",
"m 	c #5C8E66",
"n 	c #2D6D38",
"o 	c #276F34",
"p 	c #297637",
"q 	c #2E753B",
"r 	c #53735A",
"s 	c #51885B",
"t 	c #338A42",
"u 	c #7DB286",
"v 	c #B1C3B4",
"w 	c #3F7348",
"x 	c #517659",
"y 	c #959C98",
"z 	c #7C9982",
"A 	c #678A6E",
"B 	c #2B7238",
"C 	c #65866D",
"D 	c #9A9C9C",
"E 	c #99A59D",
"F 	c #669C71",
"G 	c #7CB186",
"H 	c #76887C",
"I 	c #788C7F",
"J 	c #9AA99F",
"K 	c #739679",
"L 	c #44674B",
"M 	c #868E89",
"N 	c #B1B3B3",
"O 	c #C1C3C3",
"P 	c #ACAEAE",
"Q 	c #2D7139",
"R 	c #949696",
"S 	c #B4B6B6",
"T 	c #C2C4C4",
"U 	c #94AF9A",
"V 	c #4C9259",
"W 	c #B6D2BB",
"X 	c #93A599",
"Y 	c #7C9585",
"Z 	c #75897C",
"` 	c #698272",
" .	c #21412C",
"..	c #22432D",
"+.	c #597262",
"@.	c #AABEAE",
"#.	c #3B6F44",
"$.	c #5E7665",
"%.	c #8F9392",
"&.	c #626D66",
"*.	c #505352",
"=.	c #B1B2B2",
"-.	c #607966",
";.	c #8C8E8E",
">.	c #4D504F",
",.	c #77827B",
"'.	c #9EBAA4",
").	c #388C47",
"!.	c #89B891",
"~.	c #90A196",
"{.	c #32543E",
"].	c #264D34",
"^.	c #6F8E7A",
"/.	c #7A9383",
"(.	c #7B8C81",
"_.	c #5F7667",
":.	c #284B34",
"<.	c #254A32",
"[.	c #31503C",
"}.	c #91A297",
"|.	c #81A186",
"1.	c #205D2B",
"2.	c #657C6B",
"3.	c #474949",
"4.	c #28382D",
"5.	c #151816",
"6.	c #ADAFAF",
"7.	c #767E7C",
"8.	c #303331",
"9.	c #18281D",
"0.	c #444946",
"a.	c #A5C2AB",
"b.	c #489F57",
"c.	c #4A9657",
"d.	c #B4D3BA",
"e.	c #8F9E94",
"f.	c #32523D",
"g.	c #2B5539",
"h.	c #325E41",
"i.	c #779782",
"j.	c #829A8A",
"k.	c #7E9184",
"l.	c #2C4E38",
"m.	c #244831",
"n.	c #23452E",
"o.	c #254B32",
"p.	c #22592D",
"q.	c #244730",
"r.	c #304E3A",
"s.	c #92A096",
"t.	c #81A287",
"u.	c #5F7564",
"v.	c #787A7A",
"w.	c #292D2B",
"x.	c #141414",
"y.	c #747676",
"z.	c #548C5F",
"A.	c #6B6D6D",
"B.	c #141916",
"C.	c #404141",
"D.	c #ACC9B2",
"E.	c #59B168",
"F.	c #368E45",
"G.	c #98C4A0",
"H.	c #688071",
"I.	c #254931",
"J.	c #235A2F",
"K.	c #2A5437",
"L.	c #284F35",
"M.	c #305A3E",
"N.	c #376145",
"O.	c #86A08E",
"P.	c #8C9D92",
"Q.	c #496653",
"R.	c #2E513A",
"S.	c #203F2B",
"T.	c #22462E",
"U.	c #225E2D",
"V.	c #22442E",
"W.	c #74897B",
"X.	c #A0B4A3",
"Y.	c #2D5F36",
"Z.	c #21602C",
"`.	c #2E6A39",
" +	c #738478",
".+	c #828484",
"++	c #8D8E8E",
"@+	c #42794C",
"#+	c #3C7E48",
"$+	c #888A8A",
"%+	c #838484",
"&+	c #999B9B",
"*+	c #9EBBA4",
"=+	c #57AF66",
"-+	c #3F974F",
";+	c #99C5A0",
">+	c #30523B",
",+	c #1C3D25",
"'+	c #23442E",
")+	c #244830",
"!+	c #2C563A",
"~+	c #427250",
"{+	c #6DA07A",
"]+	c #93AA9A",
"^+	c #2D4F39",
"/+	c #23452F",
"(+	c #1D3926",
"_+	c #21592B",
":+	c #22452D",
"<+	c #1B3824",
"[+	c #22482D",
"}+	c #22582D",
"|+	c #2B4B36",
"1+	c #F2F5F3",
"2+	c #75967A",
"3+	c #215E2C",
"4+	c #246830",
"5+	c #2D6C38",
"6+	c #6C7A71",
"7+	c #3F7C4B",
"8+	c #2D7B3B",
"9+	c #40834C",
"0+	c #7D8080",
"a+	c #798F7F",
"b+	c #4D9D5B",
"c+	c #50A55F",
"d+	c #3C924B",
"e+	c #98C39F",
"f+	c #22592E",
"g+	c #1B3623",
"h+	c #1E3B28",
"i+	c #244B31",
"j+	c #225A2D",
"k+	c #274B33",
"l+	c #305C3E",
"m+	c #3F6A4E",
"n+	c #A2B9AA",
"o+	c #A4B1A8",
"p+	c #30513B",
"q+	c #2A4E37",
"r+	c #23462F",
"s+	c #203E2A",
"t+	c #21572C",
"u+	c #22602D",
"v+	c #1E3C29",
"w+	c #22602C",
"x+	c #21412B",
"y+	c #1C4125",
"z+	c #22572D",
"A+	c #274832",
"B+	c #97A69C",
"C+	c #809E85",
"D+	c #22632E",
"E+	c #21602D",
"F+	c #245E2F",
"G+	c #246630",
"H+	c #266C33",
"I+	c #2E773B",
"J+	c #3F8E4E",
"K+	c #5EB66E",
"L+	c #388F47",
"M+	c #86B98F",
"N+	c #8F9F94",
"O+	c #274833",
"P+	c #255E31",
"Q+	c #23632E",
"R+	c #22492D",
"S+	c #295536",
"T+	c #3C654A",
"U+	c #457054",
"V+	c #A9BCAF",
"W+	c #A5B2A9",
"X+	c #1D3C27",
"Y+	c #20542A",
"Z+	c #22622D",
"`+	c #22462D",
" @	c #1B3723",
".@	c #21562C",
"+@	c #203F2A",
"@@	c #8A9C90",
"#@	c #809B85",
"$@	c #21562B",
"%@	c #1B5025",
"&@	c #1D5226",
"*@	c #23652F",
"=@	c #256931",
"-@	c #266E33",
";@	c #266C32",
">@	c #388947",
",@	c #489857",
"'@	c #88B290",
")@	c #8C9F93",
"!@	c #23472F",
"~@	c #245E30",
"{@	c #23642E",
"]@	c #244E31",
"^@	c #256531",
"/@	c #22632D",
"(@	c #254D31",
"_@	c #20552A",
":@	c #254A31",
"<@	c #3A7648",
"[@	c #B2CEB7",
"}@	c #B5BFB8",
"|@	c #23482F",
"1@	c #1E4028",
"2@	c #1F5029",
"3@	c #1F4429",
"4@	c #90A295",
"5@	c #688D6F",
"6@	c #1F5A2A",
"7@	c #2B7C3A",
"8@	c #2C7C3B",
"9@	c #2C7E3B",
"0@	c #73A97D",
"a@	c #91A196",
"b@	c #254C32",
"c@	c #255F31",
"d@	c #244D30",
"e@	c #22612D",
"f@	c #20452A",
"g@	c #256631",
"h@	c #21542C",
"i@	c #274F34",
"j@	c #305B3F",
"k@	c #315E40",
"l@	c #BAC9BF",
"m@	c #B8C3BB",
"n@	c #2E4F3A",
"o@	c #46604E",
"p@	c #456A4E",
"q@	c #477C50",
"r@	c #326D3C",
"s@	c #457B4E",
"t@	c #225E2C",
"u@	c #1F482A",
"v@	c #2E6A38",
"w@	c #366340",
"x@	c #22422D",
"y@	c #1E4928",
"z@	c #1E5729",
"A@	c #256B32",
"B@	c #287235",
"C@	c #30813F",
"D@	c #2F843E",
"E@	c #358B44",
"F@	c #388F48",
"G@	c #30853F",
"H@	c #296836",
"I@	c #254932",
"J@	c #396944",
"K@	c #498253",
"L@	c #30713C",
"M@	c #23652E",
"N@	c #20492A",
"O@	c #246430",
"P@	c #478051",
"Q@	c #234F2E",
"R@	c #357440",
"S@	c #487F52",
"T@	c #476351",
"U@	c #355B42",
"V@	c #2E593C",
"W@	c #C2D4C7",
"X@	c #B9C4BD",
"Y@	c #2C4C36",
"Z@	c #536E5C",
"`@	c #859289",
" #	c #9EBAA3",
".#	c #346F3F",
"+#	c #4D8156",
"@#	c #53855C",
"##	c #2E6B39",
"$#	c #89AB8F",
"%#	c #B2BCB6",
"&#	c #395442",
"*#	c #1F4E2A",
"=#	c #215E2B",
"-#	c #287336",
";#	c #439853",
">#	c #358743",
",#	c #318640",
"'#	c #469C55",
")#	c #58B067",
"!#	c #399148",
"~#	c #317640",
"{#	c #3C5B47",
"]#	c #B4BFB8",
"^#	c #8AAF91",
"/#	c #31713C",
"(#	c #4F8659",
"_#	c #558A5F",
":#	c #377642",
"<#	c #A0BDA5",
"[#	c #567360",
"}#	c #528960",
"|#	c #C1D1C5",
"1#	c #D1DBD4",
"2#	c #617C6A",
"3#	c #7D9184",
"4#	c #759D7C",
"5#	c #54855C",
"6#	c #EBF1EC",
"7#	c #5F8E67",
"8#	c #87AA8D",
"9#	c #AEB8B1",
"0#	c #3A6342",
"a#	c #256831",
"b#	c #327F40",
"c#	c #2D803C",
"d#	c #2E823D",
"e#	c #30863F",
"f#	c #389048",
"g#	c #3A7F49",
"h#	c #89AE8F",
"i#	c #62936A",
"j#	c #568B5F",
"k#	c #77A17E",
"l#	c #678672",
"m#	c #698974",
"n#	c #A3BEA8",
"o#	c #397243",
"p#	c #598962",
"q#	c #E3EBE5",
"r#	c #809A85",
"s#	c #1F5629",
"t#	c #23662F",
"u#	c #398146",
"v#	c #297537",
"w#	c #2B7B3A",
"x#	c #3D884A",
"y#	c #497C55",
"z#	c #425E4B",
"A#	c #B3BBB5",
"B#	c #E4ECE5",
"C#	c #5C8F65",
"D#	c #3C7946",
"E#	c #A4C1A9",
"F#	c #A2BDA7",
"G#	c #DDE7DF",
"H#	c #D3DED5",
"I#	c #597760",
"J#	c #2B5134",
"K#	c #275D30",
"L#	c #21612D",
"M#	c #256A31",
"N#	c #2A7838",
"O#	c #357B42",
"P#	c #709378",
"Q#	c #7A8C7F",
"R#	c #849E8A",
"S#	c #DEE8E0",
"T#	c #A3C0A8",
"U#	c #D3DFD5",
"V#	c #5D8764",
"W#	c #51402E",
"X#	c #575B49",
"Y#	c #2A5D33",
"Z#	c #205C2A",
"`#	c #205C2B",
" $	c #266D33",
".$	c #30713B",
"+$	c #68886F",
"@$	c #8C9890",
"#$	c #588862",
"$$	c #5B9165",
"%$	c #CFE0D2",
"&$	c #D4DDD6",
"*$	c #5D8564",
"=$	c #433E1C",
"-$	c #6D615A",
";$	c #5B7160",
">$	c #527059",
",$	c #204D28",
"'$	c #1E5628",
")$	c #275C2B",
"!$	c #824025",
"~$	c #617E68",
"{$	c #7F9784",
"]$	c #287436",
"^$	c #2A7939",
"/$	c #94BB9B",
"($	c #A9BCAC",
"_$	c #1D5326",
":$	c #215D2B",
"<$	c #6C3B2D",
"[$	c #897373",
"}$	c #994B4B",
"|$	c #822517",
"1$	c #953626",
"2$	c #962816",
"3$	c #E71111",
"4$	c #B75252",
"5$	c #A68888",
"6$	c #9E5F4C",
"7$	c #2C7D3B",
"8$	c #96BF9D",
"9$	c #DEE5DF",
"0$	c #6B9172",
"a$	c #22622E",
"b$	c #287135",
"c$	c #494B23",
"d$	c #7B766E",
"e$	c #A81A1A",
"f$	c #CB0505",
"g$	c #F82C2C",
"h$	c #F51F1F",
"i$	c #ED0A0A",
"j$	c #DD2525",
"k$	c #8C817A",
"l$	c #594B25",
"m$	c #287236",
"n$	c #2C7F3B",
"o$	c #559761",
"p$	c #C6DACA",
"q$	c #9DB7A2",
"r$	c #3C6F46",
"s$	c #9C150F",
"t$	c #B90202",
"u$	c #EE1515",
"v$	c #F11515",
"w$	c #E01212",
"x$	c #863D31",
"y$	c #277135",
"z$	c #2D7F3C",
"A$	c #A2C5A8",
"B$	c #C1CFC3",
"C$	c #3F6C47",
"D$	c #205B2A",
"E$	c #961409",
"F$	c #C40404",
"G$	c #F42222",
"H$	c #F62222",
"I$	c #E70909",
"J$	c #BE0202",
"K$	c #8C160A",
"L$	c #1F5B2A",
"M$	c #2C7C3A",
"N$	c #2F833E",
"O$	c #4E955B",
"P$	c #C6DDCA",
"Q$	c #AABEAD",
"R$	c #24672F",
"S$	c #AA170D",
"T$	c #CE0606",
"U$	c #F72B2B",
"V$	c #BC0202",
"W$	c #9B0F07",
"X$	c #395125",
"Y$	c #1F5929",
"Z$	c #2A7938",
"`$	c #B1D0B6",
" %	c #ABC0AE",
".%	c #256A32",
"+%	c #957E18",
"@%	c #CB1607",
"#%	c #ED0F0F",
"$%	c #D60C0C",
"%%	c #C70404",
"&%	c #961309",
"*%	c #23642F",
"=%	c #2E813D",
"-%	c #459253",
";%	c #C9DFCD",
">%	c #BFCDC2",
",%	c #2C5D34",
"'%	c #8F9219",
")%	c #AC8D13",
"!%	c #D00F07",
"~%	c #CF0606",
"{%	c #CA1707",
"]%	c #A68D13",
"^%	c #7B871C",
"/%	c #2B7A3A",
"(%	c #2E833E",
"_%	c #318840",
":%	c #BED9C3",
"<%	c #B7C7BA",
"[%	c #1C5125",
"}%	c #459352",
"|%	c #357F42",
"1%	c #828D1C",
"2%	c #A79B14",
"3%	c #C4B318",
"4%	c #E1CE41",
"5%	c #F6342B",
"6%	c #C6AC17",
"7%	c #8E8C16",
"8%	c #215022",
"9%	c #297436",
"0%	c #368E46",
"a%	c #3A9249",
"b%	c #358E45",
"c%	c #BFDBC4",
"d%	c #BBCABE",
"e%	c #24582E",
"f%	c #1F5829",
"g%	c #246931",
"h%	c #878F1B",
"i%	c #A89C14",
"j%	c #E1D742",
"k%	c #E3D943",
"l%	c #D6C820",
"m%	c #ABA61B",
"n%	c #245826",
"o%	c #368444",
"p%	c #459A54",
"q%	c #399149",
"r%	c #B7D6BC",
"s%	c #ABC1AF",
"t%	c #1F5A29",
"u%	c #C8B619",
"v%	c #CAB819",
"w%	c #A0A11E",
"x%	c #277035",
"y%	c #3C8E4A",
"z%	c #489F58",
"A%	c #CADECE",
"B%	c #94B199",
"C%	c #75831C",
"D%	c #929319",
"E%	c #A59B15",
"F%	c #C7B619",
"G%	c #AEAB1D",
"H%	c #8C9B22",
"I%	c #2A7738",
"J%	c #3D8D4C",
"K%	c #439751",
"L%	c #378C46",
"M%	c #328841",
"N%	c #CBE1CF",
"O%	c #98B69E",
"P%	c #809120",
"Q%	c #BFB018",
"R%	c #C8B719",
"S%	c #959E20",
"T%	c #2B7A39",
"U%	c #CCE2CF",
"V%	c #C8D9CB",
"W%	c #2D7F3B",
"X%	c #256B31",
"Y%	c #396625",
"Z%	c #2B652C",
"`%	c #53925E",
" &	c #A39C19",
".&	c #93991E",
"+&	c #276F33",
"@&	c #30843F",
"#&	c #1C5326",
"$&	c #468852",
"%&	c #D4E4D7",
"&&	c #B2C0B5",
"*&	c #5E9468",
"=&	c #548D5F",
"-&	c #468351",
";&	c #3D8149",
">&	c #607F23",
",&	c #536C22",
"'&	c #4F7627",
")&	c #9EA59B",
"!&	c #A8A14C",
"~&	c #3E6747",
"{&	c #57905C",
"]&	c #5B8D33",
"^&	c #49671E",
"/&	c #476A2C",
"(&	c #52865D",
"_&	c #4E8E5A",
":&	c #7D9783",
"<&	c #D2D4D4",
"[&	c #E9E9E9",
"}&	c #DADBDB",
"|&	c #1D5527",
"1&	c #88A68F",
"2&	c #628469",
"3&	c #756D1C",
"4&	c #9D8816",
"5&	c #7E7345",
"6&	c #9C926E",
"7&	c #888D8A",
"8&	c #9F9365",
"9&	c #9F8C16",
"0&	c #AA9A2C",
"a&	c #B1AE74",
"b&	c #A0A6A5",
"c&	c #8DAA93",
"d&	c #277034",
"e&	c #297437",
"f&	c #85A18C",
"g&	c #C3C5C5",
"h&	c #FFFFFF",
"i&	c #1B4D23",
"j&	c #1B4B23",
"k&	c #5D7E63",
"l&	c #48724F",
"m&	c #4F6623",
"n&	c #5D611C",
"o&	c #B6A772",
"p&	c #C2B27F",
"q&	c #C5C5C1",
"r&	c #B9B487",
"s&	c #849E89",
"t&	c #5E7362",
"u&	c #517458",
"v&	c #7CAE85",
"w&	c #E8F2EA",
"x&	c #DCE5DE",
"y&	c #66916E",
"z&	c #1C4D25",
"A&	c #194420",
"B&	c #194922",
"C&	c #1E5828",
"D&	c #E2E9E4",
"E&	c #EAEFEB",
"F&	c #74997A",
"G&	c #1C5025",
"H&	c #194821",
"I&	c #1E5829",
"J&	c #328641",
"K&	c #CDE2D0",
"L&	c #BACDBD",
"M&	c #1D5427",
"N&	c #256C32",
"O&	c #7BA883",
"P&	c #D5E0D7",
"Q&	c #266B32",
"R&	c #31843F",
"S&	c #77B181",
"T&	c #EAF3EB",
"U&	c #BACEBD",
"V&	c #24662F",
"W&	c #D5E1D8",
"X&	c #297536",
"Y&	c #2F853E",
"Z&	c #D8E9DB",
"`&	c #C9D0CA",
" *	c #3E6145",
".*	c #5F8766",
"+*	c #88AC8E",
"@*	c #748D7B",
"#*	c #2F6A3A",
"$*	c #A4C1AA",
"%*	c #DEE3E0",
"&*	c #45654C",
"**	c #4E7D56",
"=*	c #7C9D82",
"-*	c #76A17E",
";*	c #7E9785",
">*	c #356A3F",
",*	c #688F70",
"'*	c #E7EDE8",
")*	c #CCCECD",
"!*	c #808A84",
"~*	c #DBE3DD",
"{*	c #DFE6E0",
"]*	c #7B8E80",
"^*	c #94A999",
"/*	c #ECF2ED",
"(*	c #E4E6E5",
"_*	c #C6D4C9",
":*	c #E3E3E3",
"<*	c #7F8582",
"[*	c #D4DED6",
"}*	c #E7ECE8",
"|*	c #8A9B8E",
"1*	c #859A89",
"2*	c #E5EDE6",
"3*	c #E8EAE9",
"4*	c #C9D5CB",
"5*	c #ADB3B0",
"6*	c #E7E9E8",
"7*	c #EAEBEA",
"8*	c #E6E7E7",
"9*	c #ECEDED",
"                                                                                                                        ",
"                                                                                                                        ",
"                                                                                                                        ",
"                                                          . +         @ #                                               ",
"                                                $ % & * * = -   * ; > , '                                               ",
"                                                ) ! ~ { ] ^ / ( _ : < [                                                 ",
"                                                } | 1 2 3 4 5 6 7 8 9 0                                                 ",
"                                                  a b c d e f g h i j k                                                 ",
"                                                  l f m n o p q r s t u                                                 ",
"                                                v w x y z A B C D E F G                                                 ",
"                                H I J           K L M N O P Q R S T U V W           X Y                                 ",
"                            Z `  ...+.        @.#.$.%.&.*.=.-.;.>.,.'.).!.        ~.{.].^./.                            ",
"                        (._.:.<.....[.}.      |.1.2.3.4.5.6.7.8.9.0.a.b.c.d.    e.f.<.<.g.h.i.j.                        ",
"                      k.l.m.n.o.p.q...r.s.    t.e u.v.w.x.y.z.A.B.C.D.E.F.G.    H.I.<.J.K.L.M.N.O.                      ",
"                  P.Q.R.<.S.m.T.U.V.....W.  X.Y.Z.`. +.+++@+#+$+%+&+*+=+-+;+  P.>+ ...,+n.'+)+!+~+{+]+                  ",
"                ~.^+<./+(+_+:+<+U.[+}+..|+~.1+2+3+4+5+6+7+8+8+9+0+a+b+c+d+e+~.^+<.f+[+g+h+i+j+S.k+l+m+n+                ",
"            o+p+q+r+s+t+u+[+v+w+U.x+y+z+..A+B+C+3+D+E+F+d D+G+H+I+J+K+L+M+N+O+<.P+Q+R+m.U.'+S+u+t+ .L.T+U+V+            ",
"          W+r+I.r+X+Y+Z+Z+`+ @Z+U.R+Z+.@+@..@@#@$@%@&@1.*@=@-@-@;@=@>@,@'@)@<.!@~@{@]@^@/@u+(@=@f _@X+:@!+<@[@          ",
"      }@ .I.|@1@2@Z+Z+Z+Z+3@u+Z+U.[+Z+Z+}+:+..4@5@6@e 4+o p 7@7@8@8@9@0@a@q.b@c@=@{@d@^@=@e@f@g@=@=@f h@`+i@j@k@l@      ",
"    m@n.n@o@p@q@r@Z+Z+Z+Z+Z+s@Z+t@u@Z+v@q@w@x@y@z@e@*@A@B@C@D@D@E@F@G@H@q.I@J@K@L@M@N@O@=@P@^@Q@=@=@=@R@S@p@T@U@V@W@    ",
"  X@Y@Z@`@       #.#Z+Z+Z++#  @#+#Z+##$#  %#&#*#=#{@4+=@-#;#>#,#'#)#!#~#<.{#]#  ^#/#=@(#_#  (#=@=@=@:#<#      `@[#}#|#1#",
"  2#3#            4#Z+Z+5#6#    6#7#8#      9#0#1.{@G+a#-@b#c#7@d#e#f#g#q.~.      h#i#6#    6#j#=@=@k#            (.l#m#",
"                  n#o#p#q#                    r#s#Z+t#f A@u#v#w#7@c#x#y#z#A#                  B#C#D#E#                  ",
"                    F#G#                    H#I#J#K#L#Q+f =@M#N#N#O#P#Q#R#                      S#T#                    ",
"                                          U#V#g W#X#Y#Z#`#a#=@ $.$+$@$#$$$%$                                            ",
"                                        &$*$3+Z.=$-$;$>$,$'$)$!$~$D {$]$^$/$                                            ",
"                                        ($_$e@A@:$<$[$}$|$1$2$3$4$5$6$-#7$8$                                            ",
"                                        9$0$a$-#b$c$d$e$f$g$h$i$j$k$l$m$n$o$p$                                          ",
"                                          q$u+B@^$M#r$s$t$u$v$i$w$x$u+y$z$z$A$                                          ",
"                                        B$C$D$A@B@M#4+E$F$G$H$I$J$K$L$f M$N$O$P$                                        ",
"                                        Q$&@g R$v#H+a#S$T$g$U$V$W$X$Y${@Z$D@D@`$                                        ",
"                                         %'$D$=@y$.%a#+%@%#%$%%%&%D+Y$*%p =%e#-%;%                                      ",
"                                      >%,%Y$a$]$v#;@=@'%)%!%~%{%]%^%a$-#/%(%_%e#:%                                      ",
"                                      <%[%=# $A@}%|%1%2%3%4%5%6%7%8%A@B@9%0%a%b%c%                                      ",
"                                      d%e%f%Y$g%o .%h%i%3%j%k%l%m%n%Z#=@o o%p%q%r%                                      ",
"                                        s%t%E+o ^$ $h%i%i%u%l%v%v%w%u+x%^$y%z%q%=%A%                                    ",
"                                        B%Q+=@x%w#Z+C%D%E%u%v%F%G%H%*@o I%J%K%L%M%N%                                    ",
"                                      O%H+v#*%*%9%4+{@M#P%Q%R%S%o T%=@e@Z+Y${@=@c#U%                                    ",
"                                    V%o W%*@g X%Z+Y%Z% $`% &.&+&@&M##&=@4+3+*@ $$&%&                                    ",
"                                    &&*&=&Y${@-&;&>&,&'&)&!&~&{&]&^&/&(&_&B@-@-@:&<&                                    ",
"                                  [&D }&Q$|&=#1&2&'$3&4&5&6&7&8&9&0&a&b&c&f d&e&f&g&                                    ",
"                                    }&h&Q$i&j&k&l&g m&n&o&p&q&p&p&r&s&t&u&'$E+ $v&w&                                    ",
"                                      x&y&=#z&A&B&C&e@[%D&      E&F&Z+D$G&H&I&d&J&K&                                    ",
"                                      L&Z+G+t%M&g Z.N&N&O&      P&e Q&M#6@:$D+o R&S&T&                                  ",
"                                      U&{@Z+6@E+=@e@V&N#x%      W&Z+a#*@3+ $R${@X&Y&Z&                                  ",
"                                      `& *.*5@L$M#+*@*#*$*      %*&***=*'$4+-*;*>*,*'*                                  ",
"                                      )*!*~*{*]*^*/*(*_*        :*<*[*}*|*1*2*3*4*5*                                    ",
"                                        6*    7*                  8*      9*                                            ",
"                                                                                                                        ",
"                                                                                                                        ",
"                                                                                                                        "};
