/* XPM */
static char * kde1des5_xpm[] = {
"60 51 241 2",
"  	c None",
". 	c #DBDBDB",
"+ 	c #CED5CF",
"@ 	c #D9D9D9",
"# 	c #D9DADA",
"$ 	c #D5D5D5",
"% 	c #CDCDCD",
"& 	c #CACACA",
"* 	c #D1D1D1",
"= 	c #CCD1CD",
"- 	c #CCCCCC",
"; 	c #D2D2D2",
"> 	c #CCCFCD",
", 	c #D7D9D8",
"' 	c #CDD2CE",
") 	c #CDD4CF",
"! 	c #D9DBD9",
"~ 	c #D7D9D7",
"{ 	c #D0D0D0",
"] 	c #D7D7D7",
"^ 	c #D6D8D7",
"/ 	c #D4D8D5",
"( 	c #D0D7D1",
"_ 	c #CCD2CD",
": 	c #CCD3CD",
"< 	c #D3D7D4",
"[ 	c #D7DAD7",
"} 	c #D9DCDA",
"| 	c #D3D7D3",
"1 	c #D2D7D3",
"2 	c #CDD3CE",
"3 	c #CCD4CE",
"4 	c #CDD4CE",
"5 	c #D1D4D1",
"6 	c #D1D6D2",
"7 	c #CED6CF",
"8 	c #D5DAD6",
"9 	c #DADCDA",
"0 	c #CFD4D0",
"a 	c #D7D8D8",
"b 	c #D5D8D5",
"c 	c #D3D6D3",
"d 	c #D8D8D8",
"e 	c #D8D9D8",
"f 	c #D3D8D4",
"g 	c #D4D6D5",
"h 	c #D4D7D5",
"i 	c #CFD3D0",
"j 	c #D6D7D6",
"k 	c #DADADA",
"l 	c #DCDCDC",
"m 	c #D7DAD8",
"n 	c #DADDDB",
"o 	c #D5D7D6",
"p 	c #D3D5D4",
"q 	c #D1D4D2",
"r 	c #D9DBDA",
"s 	c #CED4CF",
"t 	c #D2D4D3",
"u 	c #D2D3D3",
"v 	c #D0D1D1",
"w 	c #D2D5D3",
"x 	c #D6D7D7",
"y 	c #D4D5D5",
"z 	c #D8DBD9",
"A 	c #CED6D0",
"B 	c #D6DBD7",
"C 	c #D7D8D7",
"D 	c #CED1CF",
"E 	c #CCD0CE",
"F 	c #D5D7D5",
"G 	c #D5D6D5",
"H 	c #CDD0CE",
"I 	c #CDD0CF",
"J 	c #D5D8D6",
"K 	c #D3D5D3",
"L 	c #CDCECD",
"M 	c #CBCBCB",
"N 	c #CBCDCB",
"O 	c #CFD0D0",
"P 	c #D9DCD9",
"Q 	c #D0D8D1",
"R 	c #CDD1CE",
"S 	c #CED2CF",
"T 	c #CCD0CD",
"U 	c #D5D9D6",
"V 	c #D2D4D2",
"W 	c #D4D4D4",
"X 	c #D3D3D3",
"Y 	c #CFCFCF",
"Z 	c #D1DAD3",
"` 	c #CED7CF",
" .	c #D8DCD8",
"..	c #CDD1CF",
"+.	c #D0D3D1",
"@.	c #D8DAD9",
"#.	c #D4D6D4",
"$.	c #D5D6D6",
"%.	c #CFD5D0",
"&.	c #D6D6D6",
"*.	c #CFD7D0",
"=.	c #CBCFCC",
"-.	c #D3D8D5",
";.	c #CBCECC",
">.	c #E0E1E0",
",.	c #CDD5CE",
"'.	c #D0D8D2",
").	c #D0D9D2",
"!.	c #CCCECD",
"~.	c #CDD2CF",
"{.	c #D9DAD9",
"].	c #CCD3CE",
"^.	c #D2DAD3",
"/.	c #CED7D0",
"(.	c #CFD4D1",
"_.	c #CBD0CC",
":.	c #CBD1CC",
"<.	c #D6DAD7",
"[.	c #CED4D0",
"}.	c #DADBDB",
"|.	c #D3D6D4",
"1.	c #D4D9D5",
"2.	c #DBDCDB",
"3.	c #D0D2D0",
"4.	c #D0D5D0",
"5.	c #CED3CF",
"6.	c #CDD5CF",
"7.	c #CDD6CF",
"8.	c #D0D5D1",
"9.	c #D0D2D1",
"0.	c #D1D3D2",
"a.	c #D6D9D7",
"b.	c #DADBDA",
"c.	c #CFD8D1",
"d.	c #CFD2D0",
"e.	c #D0D6D1",
"f.	c #D6D9D6",
"g.	c #CED5D0",
"h.	c #CFD6D0",
"i.	c #D4D7D4",
"j.	c #D6D8D6",
"k.	c #D2D6D2",
"l.	c #D1CFCD",
"m.	c #D1D2D0",
"n.	c #CFCFCB",
"o.	c #D3D2D1",
"p.	c #D5CFCC",
"q.	c #D7DBD8",
"r.	c #D3CECD",
"s.	c #D6D4D4",
"t.	c #D8D0D0",
"u.	c #D5CCCB",
"v.	c #D7CECC",
"w.	c #D7CDCB",
"x.	c #DFCACA",
"y.	c #DBD1D1",
"z.	c #D9D6D6",
"A.	c #D8D2D0",
"B.	c #D0D0CC",
"C.	c #D5D4D3",
"D.	c #D9CBCB",
"E.	c #DDC9C9",
"F.	c #E1CDCD",
"G.	c #E1CCCC",
"H.	c #E0CACA",
"I.	c #DECCCC",
"J.	c #D6D5D5",
"K.	c #D1D0CC",
"L.	c #D1D7D2",
"M.	c #D8CBCA",
"N.	c #DBC9C9",
"O.	c #E0CBCB",
"P.	c #D6CFCD",
"Q.	c #D7CBCA",
"R.	c #DCC9C9",
"S.	c #D6CBCA",
"T.	c #D0D7D2",
"U.	c #D9CBCA",
"V.	c #D8CAC9",
"W.	c #CED1CC",
"X.	c #DADDDA",
"Y.	c #D7D5CB",
"Z.	c #DDCBC9",
"`.	c #DECACA",
" +	c #CFD7D1",
".+	c #DBDDDC",
"++	c #D7D7CB",
"@+	c #DAD6CB",
"#+	c #DDCAC9",
"$+	c #DCCBC9",
"%+	c #D9D6CB",
"&+	c #D5D6CB",
"*+	c #DBDEDC",
"=+	c #D9D8CB",
"-+	c #DCDACB",
";+	c #DFDDCF",
">+	c #E1CECD",
",+	c #D7D6CB",
"'+	c #CCD0CC",
")+	c #D6D7CB",
"!+	c #DFDECF",
"~+	c #DEDCCC",
"{+	c #D9D9CB",
"]+	c #CCD1CC",
"^+	c #DBDEDB",
"/+	c #DCDBCB",
"(+	c #D8D8CC",
"_+	c #D4D5CB",
":+	c #DAD9CB",
"<+	c #D6D8CC",
"[+	c #D8DAD8",
"}+	c #D5D7CC",
"|+	c #DBDACB",
"1+	c #D7D8CC",
"2+	c #CED3CC",
"3+	c #CDD3CD",
"4+	c #D2D5CC",
"5+	c #D1D3CC",
"6+	c #D0D4CC",
"7+	c #D9D8D0",
"8+	c #D2D6CE",
"9+	c #D0D3CC",
"0+	c #D0D3CD",
"a+	c #D2D6D3",
"b+	c #D4D3CB",
"c+	c #D8D6CB",
"d+	c #D5D4CF",
"e+	c #D8D7D3",
"f+	c #D9D8CD",
"g+	c #DADAD4",
"h+	c #D8D9D9",
"i+	c #D2D5D2",
"j+	c #D0D4D0",
"k+	c #D2D2CB",
"l+	c #DAD9D4",
"m+	c #DCDAD5",
"n+	c #DBDAD6",
"o+	c #DBDDDB",
"p+	c #D5D9D5",
"q+	c #D4DAD5",
"r+	c #CFD2CF",
"                                                                                                                        ",
"                                                                                                                        ",
"                                                                                                                        ",
"                                                                                                                        ",
"                                                      . . + +   .   . @                                                 ",
"                                                # $ % & * = +   * - ; .                                                 ",
"                                                  ; * > , ' ) ! ~ { ; ]                                                 ",
"                                                  ^ / ( _ _ : = ' < [ }                                                 ",
"                                                  | : 1 2 3 4 4 5 6 7 8                                                 ",
"                                                9 0 5 a b c 4 c d e f 8                                                 ",
"                                g g e           h i j k l k 4 ] k l m ( n           , o                                 ",
"                            g p > > q         r s t ] u v k w x { y z A B         C D E h F                             ",
"                        G t H E > > I ~       J _ K { L M k y L N O P Q ( n     C D E E R S h J                         ",
"                      o H T > E = T > H C     U _ V y % M W 6 X M Y 9 Z `  .    p T E = R H ..S ^                       ",
"                  ^ +.R E > T T _ > > > g   @.' _ 2 #.$.x %.%.&.$.d z Z *. .  ^ R > > =.> > T R 0 -.,                   ",
"                C H E > ;.= > ;._ T = > H C >.h _ : 2 p %.,.,.%.$ F '.).*. .C H E = T ;.!.T = > E ~.i !                 ",
"            {.R H T > = _ T > _ _ > =.= > E , J _ _ _ _ _ _ : ].4 *.^./.B C E E _ _ T T _ > R _ = > H i (.r             ",
"          {.T T T =.= _ _ T ;._ _ T _ = > > ^ J = _.:._ : : ].].].: A Q <.^ E T _ _ T : _ _ T : : = =.T R [.n           ",
"      }.> T T > T _ _ _ _ > _ _ _ T _ _ = > > ~ |.= _ : 3 4 ,.,.,.,.,.1.C T E _ : _ T : : _ > : : : : = T E ~.~.2.      ",
"    2.> H 3.i 4.5._ _ _ _ _ %._ _ T _ 2 4.S > T = _ : ].4 6.7.7.7 /.7.2 T E 5.8.) : T _ : 8.: T : : : s 8.i 9.S ..      ",
"  2.H 0.j       z s _ _ _ 8.  6 8._ 2 a.  b.D T _ _ : : 4 c.7 7.Q Z /.) E d.}.  <.) : e.6   e.: : : s z       j q 6     ",
"  w o             / _ _ 6         1 f.      b.S _ _ : : ].+ 6.,.6.7./.g.T C       <.1         6 : : /             G |.|.",
"                  ! s 6                       J = _ : : ].g.4 ,.,.6.h.8.d.b.                    1 %.P                   ",
"                    !                         q R _ _ _ : : : 4 4 + i.G j.                        !                     ",
"                                            k.= l.m.' _ _ : : ].4 |.^ 6 1                                               ",
"                                          k._ _ n.o.V 5 T = _ p.w d o 4 ,.q.                                            ",
"                                        r :._ ]._ r.s.t.u.v.w.x.y.z.A.4 ,.q.                                            ",
"                                          < _ 4 4 B.C.D.E.F.G.H.I.J.K.4 ,.L.                                            ",
"                                          z _ 4 ,.: 0 M.N.O.O.H.x.P._ 3 6.6.P                                           ",
"                                          i _ ].4 : : Q.R.G.G.x.N.S._ : ,.6.T.                                          ",
"                                        r :.= : 4 ].: U.E.F.F.N.V.W.= _ ,.7.7.X.                                        ",
"                                        r = _ : 3 ].: Y.Z.H.`.R.Q._ = _ 4 6.7. +                                        ",
"                                      .+' = _ 4 4 ].: ++@+#+E.$+%+&+_ 4 ,.6.7.7.*+                                      ",
"                                      2.:._ ].]. ++ &+=+-+;+>+-+,+'+].4 4 /./.` *+                                      ",
"                                      2.= = = : 3 ].)+=+-+!+!+~+{+]+_ : 3 7 c./.^+                                      ",
"                                        } = _ 3 ,.].)+=+=+-+~+/+/+(+_ 3 ,.*.Q /.6.                                      ",
"                                        m _ : 3 ,._ _+++=+-+/+-+:+<+: 3 4 h. +A 7                                       ",
"                                      [+].4 _ _ 4 : _ : }+|+/+1+3 ,.: _ _ = _ : 6.                                      ",
"                                      3 ,.: = : _ 2+3+].L.=+1+3 7.: :.: : _ : ].e.                                      ",
"                                    b.1 6 = _ 8.%.4+5+6+e 7+i L.8+9+0+6 ( 4 ].].F                                       ",
"                                    d   r :._ a.a+= b+c+d+e+&.e+c+f+g+h+a.: 3 4 j.                                      ",
"                                        r _._.i+j+= 9+k+l+m+  m+m+n+j.V 5 = _ ].8                                       ",
"                                        | _ _.=._.= _ :.          / _ _ _._.= 3 7                                       ",
"                                      o+_ : = :.= _ ].].p+        _ ].: = _ _ 3 7.q+                                    ",
"                                      o+_ _ = _ : _ : 4 3         _ : : _ ].: _ 4 7.                                    ",
"                                        r+a+|._ : <.g 2 P         i 8.b = : / o 5.<                                     ",
"                                        $.    F ,                 G     ^ j.      k                                     ",
"                                                                                                                        ",
"                                                                                                                        ",
"                                                                                                                        ",
"                                                                                                                        "};
