/* XPM */
static char * kde1des1_xpm[] = {
"60 51 704 2",
"  	c None",
". 	c #C9CBCB",
"+ 	c #C0C0C0",
"@ 	c #458951",
"# 	c #478A54",
"$ 	c #C5C6C6",
"% 	c #C2C3C3",
"& 	c #AAACAC",
"* 	c #AEB2B1",
"= 	c #858887",
"- 	c #3C3C3C",
"; 	c #252525",
"> 	c #656565",
", 	c #34643C",
"' 	c #468752",
") 	c #606060",
"! 	c #333434",
"~ 	c #6C6E6E",
"{ 	c #BABBBB",
"] 	c #C8C9C9",
"^ 	c #686A6A",
"/ 	c #5F6060",
"( 	c #374D3B",
"_ 	c #9BAE9E",
": 	c #396D42",
"< 	c #40804B",
"[ 	c #AABAAD",
"} 	c #9AAA9D",
"| 	c #555857",
"1 	c #6D6F6F",
"2 	c #9A9B9B",
"3 	c #95A798",
"4 	c #82A088",
"5 	c #559962",
"6 	c #33693D",
"7 	c #336B3D",
"8 	c #367241",
"9 	c #306439",
"0 	c #396842",
"a 	c #749B7D",
"b 	c #96BA9E",
"c 	c #B0C4B4",
"d 	c #729979",
"e 	c #689571",
"f 	c #3E7848",
"g 	c #397944",
"h 	c #3A8047",
"i 	c #3F7F4B",
"j 	c #607D67",
"k 	c #5E9067",
"l 	c #439251",
"m 	c #86B68E",
"n 	c #B5C5B8",
"o 	c #4E7D56",
"p 	c #5E8066",
"q 	c #9CA29E",
"r 	c #859F8B",
"s 	c #729279",
"t 	c #3C7C48",
"u 	c #708E78",
"v 	c #A0A2A2",
"w 	c #9FAAA3",
"x 	c #71A27B",
"y 	c #85B58E",
"z 	c #809085",
"A 	c #829488",
"B 	c #A0AEA5",
"C 	c #7D9D83",
"D 	c #537259",
"E 	c #8E9591",
"F 	c #B5B7B7",
"G 	c #C3C5C5",
"H 	c #B1B2B2",
"I 	c #3E7B49",
"J 	c #9B9D9D",
"K 	c #B8BABA",
"L 	c #C4C6C6",
"M 	c #9BB3A0",
"N 	c #5A9966",
"O 	c #BAD3BE",
"P 	c #9AAA9F",
"Q 	c #859C8D",
"R 	c #7F9185",
"S 	c #748B7C",
"T 	c #33503D",
"U 	c #34523E",
"V 	c #667C6E",
"W 	c #AFC1B2",
"X 	c #4B7953",
"Y 	c #6A8070",
"Z 	c #969A99",
"` 	c #6E7871",
" .	c #5E605F",
"..	c #B5B6B6",
"+.	c #6C8371",
"@.	c #949595",
"#.	c #5B5E5D",
"$.	c #818B84",
"%.	c #A4BDA9",
"&.	c #489455",
"*.	c #91BB98",
"=.	c #97A79D",
"-.	c #42614D",
";.	c #385B44",
">.	c #799583",
",.	c #839A8C",
"'.	c #84948A",
").	c #6B8072",
"!.	c #395944",
"~.	c #375842",
"{.	c #425E4B",
"].	c #98A79E",
"^.	c #8AA78E",
"/.	c #32693C",
"(.	c #708576",
"_.	c #555757",
":.	c #39483E",
"<.	c #282B29",
"[.	c #B1B3B3",
"}.	c #808785",
"|.	c #414342",
"1.	c #2B3930",
"2.	c #535755",
"3.	c #AAC4B0",
"4.	c #56A564",
"5.	c #589D64",
"6.	c #B8D4BD",
"7.	c #96A49B",
"8.	c #425F4C",
"9.	c #3C6249",
"0.	c #426A50",
"a.	c #819E8B",
"b.	c #8BA092",
"c.	c #87988C",
"d.	c #3D5C48",
"e.	c #365642",
"f.	c #35543F",
"g.	c #375942",
"h.	c #34663E",
"i.	c #365541",
"j.	c #415C4A",
"k.	c #99A69D",
"l.	c #8AA78F",
"m.	c #6B7F70",
"n.	c #828383",
"o.	c #3A3E3C",
"p.	c #272727",
"q.	c #7E8080",
"r.	c #61946B",
"s.	c #767878",
"t.	c #272C29",
"u.	c #4F5050",
"v.	c #B1CBB6",
"w.	c #66B573",
"x.	c #469554",
"y.	c #9EC6A6",
"z.	c #73897B",
"A.	c #375742",
"B.	c #356740",
"C.	c #3B6147",
"D.	c #395D45",
"E.	c #41674D",
"F.	c #476D54",
"G.	c #8EA695",
"H.	c #94A399",
"I.	c #577160",
"J.	c #3F5E4A",
"K.	c #324E3C",
"L.	c #34553F",
"M.	c #346A3E",
"N.	c #34533F",
"O.	c #7E9184",
"P.	c #A6B8A8",
"Q.	c #3E6B46",
"R.	c #336C3D",
"S.	c #3F7549",
"T.	c #7D8C82",
"U.	c #8B8C8C",
"V.	c #959595",
"W.	c #51835A",
"X.	c #4B8756",
"Y.	c #909292",
"Z.	c #8C8C8C",
"`.	c #9FA1A1",
" +	c #A4BEA9",
".+	c #64B371",
"++	c #4E9E5D",
"@+	c #9FC7A6",
"#+	c #415F4B",
"$+	c #2F4C37",
"%+	c #35533F",
"&+	c #365641",
"*+	c #3D634A",
"=+	c #517C5E",
"-+	c #78A683",
";+	c #9AAFA0",
">+	c #3E5D49",
",+	c #355440",
"'+	c #304938",
")+	c #33663C",
"!+	c #34543E",
"~+	c #2E4836",
"{+	c #34563E",
"]+	c #34653E",
"^+	c #3C5946",
"/+	c #F0F2F1",
"(+	c #7F9D83",
"_+	c #336A3D",
":+	c #367341",
"<+	c #3E7748",
"[+	c #77837B",
"}+	c #4E8559",
"|+	c #3E844B",
"1+	c #4F8C5A",
"2+	c #868989",
"3+	c #839688",
"4+	c #5BA367",
"5+	c #5EAA6B",
"6+	c #4B9959",
"7+	c #9EC5A5",
"8+	c #34663F",
"9+	c #2E4635",
"0+	c #304B39",
"a+	c #365942",
"b+	c #34673E",
"c+	c #395943",
"d+	c #41684D",
"e+	c #4E755C",
"f+	c #A7BCAF",
"g+	c #A9B5AD",
"h+	c #415E4B",
"i+	c #3B5C47",
"j+	c #355540",
"k+	c #324D3B",
"l+	c #33643D",
"m+	c #346C3E",
"n+	c #304B3A",
"o+	c #346C3D",
"p+	c #33503C",
"q+	c #2F5037",
"r+	c #34643E",
"s+	c #395642",
"t+	c #9EABA2",
"u+	c #89A48D",
"v+	c #346F3F",
"w+	c #336C3E",
"x+	c #366A40",
"y+	c #367141",
"z+	c #387743",
"A+	c #3F814B",
"B+	c #4E955C",
"C+	c #6ABA79",
"D+	c #489655",
"E+	c #8EBC96",
"F+	c #96A59B",
"G+	c #395643",
"H+	c #376A42",
"I+	c #356F3F",
"J+	c #34573E",
"K+	c #3A6246",
"L+	c #4B7058",
"M+	c #547A61",
"N+	c #AEBFB3",
"O+	c #AAB6AE",
"P+	c #32613B",
"Q+	c #346E3E",
"R+	c #34553E",
"S+	c #2E4735",
"T+	c #33633D",
"U+	c #324E3B",
"V+	c #92A297",
"W+	c #89A18D",
"X+	c #33633C",
"Y+	c #2E5E37",
"Z+	c #305F38",
"`+	c #357040",
" @	c #377442",
".@	c #387943",
"+@	c #387742",
"@@	c #489155",
"#@	c #569E64",
"$@	c #90B697",
"%@	c #94A59A",
"&@	c #366A41",
"*@	c #35703F",
"=@	c #365C42",
"-@	c #377042",
";@	c #346F3E",
">@	c #375B42",
",@	c #32623B",
"'@	c #4A8056",
")@	c #B6CFBA",
"!@	c #B9C2BB",
"~@	c #355640",
"{@	c #304F39",
"]@	c #315E3A",
"^@	c #31533A",
"/@	c #97A79C",
"(@	c #739579",
"_@	c #31673B",
":@	c #3C854A",
"<@	c #3D854B",
"[@	c #3D874B",
"}@	c #7DAE86",
"|@	c #98A79D",
"1@	c #375A42",
"2@	c #376B42",
"3@	c #365B41",
"4@	c #346D3E",
"5@	c #32543B",
"6@	c #377142",
"7@	c #33613D",
"8@	c #395D44",
"9@	c #41674E",
"0@	c #426A4F",
"a@	c #BDCBC2",
"b@	c #BBC5BE",
"c@	c #3F5D4A",
"d@	c #556C5C",
"e@	c #54755C",
"f@	c #55855E",
"g@	c #42784B",
"h@	c #54845C",
"i@	c #346A3D",
"j@	c #31563B",
"k@	c #3F7548",
"l@	c #466F4F",
"m@	c #34513E",
"n@	c #305739",
"o@	c #30643A",
"p@	c #377642",
"q@	c #397C45",
"r@	c #418A4E",
"s@	c #408C4D",
"t@	c #459353",
"u@	c #489656",
"v@	c #418D4E",
"w@	c #3A7346",
"x@	c #497453",
"y@	c #578B60",
"z@	c #417B4B",
"A@	c #32573B",
"B@	c #367041",
"C@	c #55895E",
"D@	c #355D3F",
"E@	c #457E4F",
"F@	c #56885F",
"G@	c #556F5E",
"H@	c #456751",
"I@	c #3F664B",
"J@	c #C4D5C9",
"K@	c #BCC6C0",
"L@	c #3D5A46",
"M@	c #607968",
"N@	c #8D9991",
"O@	c #A4BDA8",
"P@	c #44794E",
"Q@	c #5B8A63",
"R@	c #608D68",
"S@	c #3F7649",
"T@	c #91B096",
"U@	c #B6BFBA",
"V@	c #496151",
"W@	c #315C3B",
"X@	c #336A3C",
"Y@	c #397D46",
"Z@	c #529E60",
"`@	c #458F52",
" #	c #428E4F",
".#	c #55A262",
"+#	c #65B472",
"@#	c #499856",
"##	c #42804F",
"$#	c #4B6755",
"%#	c #B8C2BB",
"&#	c #92B398",
"*#	c #427B4B",
"=#	c #5D8E66",
"-#	c #62926B",
";#	c #478051",
">#	c #A6C0AA",
",#	c #637D6C",
"'#	c #5F916C",
")#	c #C3D2C7",
"!#	c #6D8575",
"~#	c #86988C",
"{#	c #7FA385",
"]#	c #618D68",
"^#	c #6B9572",
"/#	c #8FAF95",
"(#	c #B2BBB5",
"_#	c #4A6F51",
":#	c #377342",
"<#	c #42884F",
"[#	c #3E894B",
"}#	c #3F8B4C",
"|#	c #418E4E",
"1#	c #489756",
"2#	c #4A8857",
"3#	c #91B296",
"4#	c #6E9A75",
"5#	c #63936B",
"6#	c #81A787",
"7#	c #728E7C",
"8#	c #74917E",
"9#	c #A8C1AD",
"0#	c #497C52",
"a#	c #66916E",
"b#	c #89A08D",
"c#	c #31633A",
"d#	c #357140",
"e#	c #498A55",
"f#	c #3A7F47",
"g#	c #3C844A",
"h#	c #4C9058",
"i#	c #578562",
"j#	c #516A59",
"k#	c #B7BEB9",
"l#	c #689670",
"m#	c #4B8355",
"n#	c #A9C3AE",
"o#	c #A7C0AC",
"p#	c #66816C",
"q#	c #3C5E44",
"r#	c #396941",
"s#	c #336D3E",
"t#	c #377542",
"u#	c #3B8248",
"v#	c #458451",
"w#	c #7A9A82",
"x#	c #839488",
"y#	c #8CA492",
"z#	c #A8C3AD",
"A#	c #698F70",
"B#	c #5E4F3F",
"C#	c #646757",
"D#	c #3B6943",
"E#	c #32683B",
"F#	c #32683C",
"G#	c #387843",
"H#	c #739079",
"I#	c #949E97",
"J#	c #65906E",
"K#	c #679870",
"L#	c #698D70",
"M#	c #524D2F",
"N#	c #786D67",
"O#	c #677B6C",
"P#	c #5F7A66",
"Q#	c #325B39",
"R#	c #306339",
"S#	c #39683C",
"T#	c #8B4F37",
"U#	c #6D8773",
"V#	c #889E8C",
"W#	c #397E46",
"X#	c #3B8349",
"Y#	c #9BBEA1",
"Z#	c #AEBFB1",
"`#	c #306038",
" $	c #33693C",
".$	c #774B3E",
"+$	c #917D7D",
"@$	c #9F5959",
"#$	c #8B372A",
"$$	c #9C4638",
"%$	c #9D3929",
"&$	c #E62525",
"*$	c #BA5F5F",
"=$	c #AB9090",
"-$	c #A46B5A",
";$	c #3D864B",
">$	c #9DC2A3",
",$	c #76987C",
"'$	c #346E3F",
")$	c #397B45",
"!$	c #575935",
"~$	c #848079",
"{$	c #AD2D2D",
"]$	c #CC1A1A",
"^$	c #F53D3D",
"/$	c #F23131",
"($	c #EB1E1E",
"_$	c #DD3737",
":$	c #948A83",
"<$	c #665937",
"[$	c #397C46",
"}$	c #3D884B",
"|$	c #629E6D",
"1$	c #C8DACC",
"2$	c #A3BAA7",
"3$	c #4B7955",
"4$	c #A22823",
"5$	c #BC1717",
"6$	c #EC2828",
"7$	c #EF2828",
"8$	c #DF2626",
"9$	c #8E4C42",
"0$	c #3E884B",
"a$	c #A7C7AD",
"b$	c #C3D0C5",
"c$	c #4E7755",
"d$	c #32673B",
"e$	c #9D271D",
"f$	c #C61919",
"g$	c #F13434",
"h$	c #F33434",
"i$	c #E61D1D",
"j$	c #C11717",
"k$	c #94291E",
"l$	c #3D854A",
"m$	c #5C9C67",
"n$	c #C8DDCC",
"o$	c #AFC1B1",
"p$	c #367240",
"q$	c #AF2A21",
"r$	c #CF1B1B",
"s$	c #F43C3C",
"t$	c #BF1717",
"u$	c #A1231C",
"v$	c #495E37",
"w$	c #31663A",
"x$	c #3B8348",
"y$	c #B5D1BA",
"z$	c #B0C3B2",
"A$	c #9C872B",
"B$	c #CC291C",
"C$	c #EB2323",
"D$	c #D62020",
"E$	c #C91919",
"F$	c #3F8A4C",
"G$	c #549960",
"H$	c #C2CEC4",
"I$	c #3D6944",
"J$	c #96992C",
"K$	c #B19527",
"L$	c #D1231C",
"M$	c #D01B1B",
"N$	c #CC2A1C",
"O$	c #AB9527",
"P$	c #848F2F",
"Q$	c #3C834A",
"R$	c #3F8C4D",
"S$	c #42904F",
"T$	c #C1D9C5",
"U$	c #BAC9BD",
"V$	c #2F5E37",
"W$	c #549A5F",
"X$	c #458851",
"Y$	c #8B952F",
"Z$	c #ACA127",
"`$	c #C6B72B",
" %	c #E0CF50",
".%	c #F3443C",
"+%	c #C8B12A",
"@%	c #959429",
"#%	c #335E34",
"$%	c #3A7E46",
"%%	c #469555",
"&%	c #4A9957",
"*%	c #459554",
"=%	c #C2DBC6",
"-%	c #BECCC1",
";%	c #36653F",
">%	c #31653A",
",%	c #367442",
"'%	c #8F962E",
")%	c #ADA227",
"!%	c #E0D751",
"~%	c #E2D952",
"{%	c #D6CA32",
"]%	c #B0AB2E",
"^%	c #366538",
"/%	c #468C53",
"(%	c #54A061",
"_%	c #499857",
":%	c #BAD6BF",
"<%	c #B0C3B3",
"[%	c #31673A",
"}%	c #CABA2C",
"|%	c #CCBB2C",
"1%	c #A6A730",
"2%	c #397A45",
"3%	c #4B9558",
"4%	c #56A565",
"5%	c #9BB59F",
"6%	c #7F8C2F",
"7%	c #999A2C",
"8%	c #AAA128",
"9%	c #C9BA2C",
"0%	c #B2B030",
"a%	c #94A134",
"b%	c #3B8148",
"c%	c #4C955A",
"d%	c #529E5E",
"e%	c #479455",
"f%	c #429050",
"g%	c #9EBAA4",
"h%	c #899832",
"i%	c #C2B42B",
"j%	c #9CA432",
"k%	c #3C8349",
"l%	c #497137",
"m%	c #3C703D",
"n%	c #60996A",
"o%	c #A8A22C",
"p%	c #9A9F30",
"q%	c #397943",
"r%	c #418C4E",
"s%	c #2F6038",
"t%	c #55905F",
"u%	c #B6C3B9",
"v%	c #6A9B73",
"w%	c #61956B",
"x%	c #558C5E",
"y%	c #4C8A57",
"z%	c #6C8835",
"A%	c #607734",
"B%	c #5D8039",
"C%	c #A4AAA1",
"D%	c #ADA75A",
"E%	c #4D7255",
"F%	c #649768",
"G%	c #679543",
"H%	c #577230",
"I%	c #55753D",
"J%	c #5F8E69",
"K%	c #5C9567",
"L%	c #869E8C",
"M%	c #DADBDB",
"N%	c #306239",
"O%	c #90AB96",
"P%	c #6E8C74",
"Q%	c #7F782F",
"R%	c #A39029",
"S%	c #877D54",
"T%	c #A29979",
"U%	c #909592",
"V%	c #A59A70",
"W%	c #A59429",
"X%	c #AFA03D",
"Y%	c #B5B27E",
"Z%	c #A6ABAA",
"`%	c #95AF9A",
" &	c #397A44",
".&	c #3A7E47",
"+&	c #8DA794",
"@&	c #C5C7C7",
"#&	c #FBFBFB",
"$&	c #2E5B35",
"%&	c #2E5935",
"&&	c #69876F",
"*&	c #567C5D",
"=&	c #5D7135",
"-&	c #696D2F",
";&	c #BAAC7C",
">&	c #C4B688",
",&	c #C7C7C3",
"'&	c #BCB88F",
")&	c #8CA491",
"!&	c #6A7D6E",
"~&	c #5E7E65",
"{&	c #85B28D",
"]&	c #719879",
"^&	c #2F5B37",
"/&	c #2C5332",
"(&	c #2C5734",
"_&	c #306539",
":&	c #7E9F83",
"<&	c #2C5633",
"[&	c #30653A",
"}&	c #428E50",
"|&	c #BDCEC0",
"1&	c #306139",
"2&	c #377742",
"3&	c #84AD8C",
"4&	c #387642",
"5&	c #428C4E",
"6&	c #81B58A",
"7&	c #BDCFC0",
"8&	c #367140",
"9&	c #3A7F46",
"0&	c #408D4D",
"a&	c #4D6D54",
"b&	c #6B8F71",
"c&	c #90B195",
"d&	c #7E9584",
"e&	c #40754A",
"f&	c #A9C3AF",
"g&	c #54705A",
"h&	c #5C8663",
"i&	c #85A38B",
"j&	c #80A787",
"k&	c #879E8D",
"l&	c #45754E",
"m&	c #73967A",
"n&	c #89928C",
"o&	c #849589",
"p&	c #9BAE9F",
"q&	c #C8D5CB",
"r&	c #888D8B",
"s&	c #92A195",
"t&	c #8DA091",
"u&	c #B1B7B4",
"                                                                                                                        ",
"                                                                                                                        ",
"                                                                                                                        ",
"                                                                      .                                                 ",
"                                                      + + @ #   + $ % &                                                 ",
"                                                * = - ; > , '   ) ! ~ {                                                 ",
"                                                ] ^ / ( _ : < [ } | 1 2                                                 ",
"                                                  3 4 5 6 7 8 9 0 a b c                                                 ",
"                                                  d 8 e f g h i j k l m                                                 ",
"                                                n o p q r s t u v w x y                                                 ",
"                                z A B           C D E F G H I J K L M N O           P Q                                 ",
"                            R S T U V         W X Y Z `  ...+.@.#.$.%.&.*.        =.-.;.>.,.                            ",
"                        '.).!.~.U U {.].      ^./.(._.:.<.[.}.|.1.2.3.4.5.6.    7.8.~.~.9.0.a.b.                        ",
"                      c.d.e.f.g.h.i.U j.k.    l.7 m.n.o.p.q.r.s.t.u.v.w.x.y.    z.A.~.B.C.D.E.F.G.                      ",
"                  H.I.J.~.K.e.L.M.N.U U O.  P.Q.R.S.T.U.V.W.X.Y.Z.`. +.+++@+  H.#+T U $+f.%+&+*+=+-+;+                  ",
"                =.>+~.,+'+)+!+~+M.{+]+U ^+=./+(+_+:+<+[+}+|+|+1+2+3+4+5+6+7+=.>+~.8+{+9+0+a+b+K.c+d+e+f+                ",
"            g+h+i+j+k+l+m+{+n+o+M.p+q+r+U s+t+u+_+v+w+x+6 v+y+z+A+B+C+D+E+F+G+~.H+I+J+e.M.%+K+m+l+T D.L+M+N+            ",
"          O+j+A.j+0+P+Q+Q+R+S+Q+M.J+Q+T+U+U V+W+X+Y+Z+/.`+ @.@.@+@ @@@#@$@%@~.j+&@*@=@-@;@m+>@ @8 ,@0+~.*+'@)@          ",
"      !@T A.~@{@]@Q+Q+Q+Q+^@m+Q+M.{+Q+Q+]+!+U /@(@_@7 :+g h :@:@<@<@[@}@|@i.1@2@ @*@3@-@ @4@5@6@ @ @8 7@R+8@9@0@a@      ",
"    b@f.c@d@e@f@g@Q+Q+Q+Q+Q+h@Q+i@j@Q+k@f@l@m@n@o@4@`+p@q@r@s@s@t@u@v@w@i.A.x@y@z@*@A@B@ @C@-@D@ @ @ @E@F@e@G@H@I@J@    ",
"  K@L@M@N@      O@P@Q+Q+Q+Q@  R@Q@Q+S@T@  U@V@W@X@*@:+ @Y@Z@`@ #.#+#@###~.$#%#  &#*# @=#-#  =# @ @ @;#>#      N@,#'#)#  ",
"  !#~#            {#Q+Q+]#        ^#/#      (#_#/.*@y+:#.@<#[#:@}#|#1#2#i.=.      3#4#        5# @ @6#            '.7#8#",
"                  9#0#a#                      b#c#Q+d#8 p@e#f#g#:@[#h#i#j#k#                    l#m#n#                  ",
"                    o#                        p#q#r#s#I+8  @t#u#u#v#w#x#y#                        z#                    ",
"                                            A#9 B#C#D#E#F#:# @G#z@H#I#J#K#                                              ",
"                                          L#_+R.M#N#O#P#Q#R#S#T#U#v V#W#X#Y#                                            ",
"                                        Z#`#4@p@ $.$+$@$#$$$%$&$*$=$-$Y@;$>$                                            ",
"                                          ,$'$Y@)$!$~${$]$^$/$($_$:$<$[$}$|$1$                                          ",
"                                          2$m+q@X#t#3$4$5$6$7$($8$9$m+)$0$0$a$                                          ",
"                                        b$c$d$p@q@t#:+e$f$g$h$i$j$k$_@8 l$s@m$n$                                        ",
"                                        o$Z+9 p$f#z+:#q$r$^$s$t$u$v$w$*@x$s@s@y$                                        ",
"                                        z$R#d$ @)$t#:#A$B$C$D$E$e$v+w$`+h F$|#G$                                        ",
"                                      H$I$w$'$W#f#+@ @J$K$L$M$N$O$P$'$Y@Q$R$S$|#T$                                      ",
"                                      U$V$X@G#p@W$X$Y$Z$`$ %.%+%@%#%p@q@$%%%&%*%=%                                      ",
"                                      -%;%>%w$,%g t#'%)%`$!%~%{%]%^%E# @g /%(%_%:%                                      ",
"                                        <%[%w+g X#G#'%)%)%}%{%|%|%1%m+2%X#3%4%_%F$                                      ",
"                                        5%I+ @2%g#Q+6%7%8%}%|%9%0%a%`+g b%c%d%e%f%                                      ",
"                                      g%z+f#`+`+$%:+*@t#h%i%}%j%g k% @4@Q+w$*@ @[#                                      ",
"                                      g 0$`+9 p@Q+l%m%G#n%o%p%q%r%t#s% @:+_+`+G#t%                                      ",
"                                    u%v%w%w$*@x%y%z%A%B%C%D%E%F%G%H%I%J%K%q@.@.@L%                                      ",
"                                    v M%o$N%X@O%P%R#Q%R%S%T%U%V%W%X%Y%Z%`%8  &.&+&@&                                    ",
"                                      #&o$$&%&&&*&9 =&-&;&>&,&>&>&'&)&!&~&R#w+G#{&                                      ",
"                                        ]&X@^&/&(&_&4@V$          :&Q+d$V$<&[& &}&                                      ",
"                                      |&Q+y+[%1&9 R.2&2&3&        7 4&t#_@ $v+g 5&6&                                    ",
"                                      7&*@Q+_@w+ @4@8&u#2%        Q+:#`+_+G#p$*@9&0&                                    ",
"                                        a&b&(@_@t#c&d&e&f&        g&h&i&R#:+j&k&l&m&                                    ",
"                                        n&    o&p&    q&          r&    s&t&      u&                                    ",
"                                                                                                                        ",
"                                                                                                                        ",
"                                                                                                                        ",
"                                                                                                                        "};
