/* XPM */
static char * kde1des4_xpm[] = {
"60 51 476 2",
"  	c None",
". 	c #ACC2B0",
"+ 	c #ACC2B1",
"@ 	c #C1C2C2",
"# 	c #A9A9A9",
"$ 	c #A1A1A1",
"% 	c #B6B6B6",
"& 	c #A6B6A9",
"* 	c #B5B5B5",
"= 	c #A6A6A6",
"- 	c #B9B9B9",
"; 	c #B7B8B8",
"> 	c #B4B5B5",
", 	c #A7AFA9",
"' 	c #C8CEC9",
") 	c #A8B9AB",
"! 	c #AABFAE",
"~ 	c #C8CDC9",
"{ 	c #B1B2B2",
"] 	c #B9BABA",
"^ 	c #C8C8C8",
"/ 	c #C6CCC7",
"( 	c #C0CAC2",
"_ 	c #B1C8B5",
": 	c #A6B8A9",
"< 	c #A7BBAA",
"[ 	c #A5B6A8",
"} 	c #A8B7AB",
"| 	c #BBC8BE",
"1 	c #C7D2C9",
"2 	c #BBC8BD",
"3 	c #B7C6BA",
"4 	c #A9BDAD",
"5 	c #A8BDAC",
"6 	c #A8BFAC",
"7 	c #B5BEB7",
"8 	c #B4C5B7",
"9 	c #ABC5B0",
"0 	c #C1D1C4",
"a 	c #AFBEB1",
"b 	c #B4BFB7",
"c 	c #C8CBC9",
"d 	c #C1CAC3",
"e 	c #BBC5BD",
"f 	c #A9BEAD",
"g 	c #BAC4BD",
"h 	c #CACBCB",
"i 	c #CACDCB",
"j 	c #BACBBE",
"k 	c #BFC5C1",
"l 	c #C0C6C2",
"m 	c #BEC9C0",
"n 	c #B0BBB2",
"o 	c #C4C6C5",
"p 	c #D1D1D1",
"q 	c #D6D6D6",
"r 	c #CFD0D0",
"s 	c #C8C9C9",
"t 	c #D2D2D2",
"u 	c #C8D0CA",
"v 	c #B3C8B7",
"w 	c #C8CDCA",
"x 	c #C1C8C4",
"y 	c #BBC3BE",
"z 	c #A6AFA9",
"A 	c #A6B0A9",
"B 	c #B7BEB9",
"C 	c #AEBDB0",
"D 	c #B8BFBA",
"E 	c #C7C8C8",
"F 	c #B9BDBA",
"G 	c #B4B5B4",
"H 	c #B9C0BA",
"I 	c #C6C6C6",
"J 	c #B3B4B4",
"K 	c #C0C3C1",
"L 	c #CBD3CD",
"M 	c #ADC6B1",
"N 	c #C5D3C7",
"O 	c #C7CCC9",
"P 	c #ABB5AF",
"Q 	c #A7B3AC",
"R 	c #BDC6C0",
"S 	c #C0C8C3",
"T 	c #C1C6C2",
"U 	c #B8BFBB",
"V 	c #A8B2AC",
"W 	c #A7B2AB",
"X 	c #ABB4AE",
"Y 	c #C2CCC4",
"Z 	c #BAC1BC",
"` 	c #A8ADA9",
" .	c #A2A3A3",
"..	c #D0D0D0",
"+.	c #BFC2C1",
"@.	c #AAABAB",
"#.	c #A3A8A5",
"$.	c #B0B2B1",
"%.	c #CDD6CF",
"&.	c #B1CBB6",
"*.	c #B2C9B6",
"=.	c #C7CBC8",
"-.	c #A9B5AD",
";.	c #ABB8AF",
">.	c #C0C9C3",
",.	c #C3CAC5",
"'.	c #C2C7C3",
").	c #A9B3AD",
"!.	c #A7B1AB",
"~.	c #A6B1AA",
"{.	c #A6B7A9",
"].	c #A7B1AA",
"^.	c #AAB3AD",
"/.	c #C8CCC9",
"(.	c #C0C0C0",
"_.	c #A8A9A9",
":.	c #A2A2A2",
"<.	c #BFBFBF",
"[.	c #B5C6B8",
"}.	c #BCBDBD",
"|.	c #AFAFAF",
"1.	c #CFD8D1",
"2.	c #B7D1BB",
"3.	c #ACC6B1",
"4.	c #C9D6CC",
"5.	c #BBC2BE",
"6.	c #A6B7AA",
"7.	c #A9B5AC",
"8.	c #A8B4AC",
"9.	c #AAB7AF",
"0.	c #ACB9B1",
"a.	c #C4CCC6",
"b.	c #C6CBC8",
"c.	c #B2BAB5",
"d.	c #AAB4AD",
"e.	c #A6B0AA",
"f.	c #A9B8AC",
"g.	c #A6B9A9",
"h.	c #AABCAD",
"i.	c #BEC3C0",
"j.	c #C3C3C3",
"k.	c #B0C0B3",
"l.	c #AEC2B1",
"m.	c #C5C5C5",
"n.	c #CACACA",
"o.	c #CBD4CD",
"p.	c #B6D0BA",
"q.	c #AFC9B4",
"r.	c #AAB4AE",
"s.	c #A4AEA7",
"t.	c #A9B6AD",
"u.	c #B0BEB4",
"v.	c #BDCCC0",
"w.	c #C8CFCA",
"x.	c #A9B4AD",
"y.	c #A5ADA7",
"z.	c #A6B1A9",
"A.	c #A4ADA7",
"B.	c #A9B2AC",
"C.	c #BFC9C0",
"D.	c #A9BCAD",
"E.	c #BCC0BE",
"F.	c #AFC1B2",
"G.	c #A9C1AE",
"H.	c #AFC3B3",
"I.	c #C0C7C2",
"J.	c #B3CBB7",
"K.	c #B4CDB8",
"L.	c #AEC8B2",
"M.	c #C9D6CB",
"N.	c #A4ACA6",
"O.	c #A5AEA8",
"P.	c #A8B2AB",
"Q.	c #AFBCB3",
"R.	c #A9B3AC",
"S.	c #A4AFA7",
"T.	c #A8B1AB",
"U.	c #C9CECB",
"V.	c #C2CBC4",
"W.	c #A6BAAA",
"X.	c #A7B8AA",
"Y.	c #A7BAAA",
"Z.	c #A7BCAB",
"`.	c #AAC0AE",
" +	c #AFC6B3",
".+	c #B8D2BD",
"++	c #ADC7B1",
"@+	c #C4D3C7",
"#+	c #A7B8AB",
"$+	c #A6B2A9",
"%+	c #A8B5AC",
"&+	c #AEBAB2",
"*+	c #B1BDB5",
"=+	c #A6B5A9",
"-+	c #C5CBC7",
";+	c #C2CAC4",
">+	c #A4B4A7",
",+	c #A5B4A7",
"'+	c #A7BBAB",
")+	c #A7BDAB",
"!+	c #ADC5B1",
"~+	c #B1C9B6",
"{+	c #C5D1C7",
"]+	c #A7B3AB",
"^+	c #A7BAAB",
"/+	c #A6BAA9",
"(+	c #ADBFB1",
"_+	c #A5AFA8",
":+	c #A5B4A8",
"<+	c #A5B0A8",
"[+	c #C7CCC8",
"}+	c #BBC6BD",
"|+	c #A5B7A9",
"1+	c #A9C1AD",
"2+	c #A9C2AE",
"3+	c #BECEC1",
"4+	c #A7B3AA",
"5+	c #B1B9B3",
"6+	c #B1BCB3",
"7+	c #B1C1B4",
"8+	c #ABBDAE",
"9+	c #B1C1B3",
"0+	c #A5B1A9",
"a+	c #ACBAAF",
"b+	c #A5B2A8",
"c+	c #A8BEAC",
"d+	c #AAC2AF",
"e+	c #AAC3AF",
"f+	c #ACC5B0",
"g+	c #AAC4AF",
"h+	c #A8BBAC",
"i+	c #ADBBB0",
"j+	c #B2C3B5",
"k+	c #AABEAE",
"l+	c #B1C2B4",
"m+	c #A6B4AA",
"n+	c #ACBFAF",
"o+	c #B1BAB4",
"p+	c #ACB7B0",
"q+	c #AAB7AE",
"r+	c #B5BDB7",
"s+	c #C4C8C5",
"t+	c #ACBDAF",
"u+	c #B3C2B6",
"v+	c #B5C4B7",
"w+	c #C5CFC7",
"x+	c #ADB5B0",
"y+	c #A5B3A9",
"z+	c #B0C9B5",
"A+	c #ACC4B0",
"B+	c #ABC4AF",
"C+	c #B1CBB5",
"D+	c #B6D0BB",
"E+	c #ABBFAF",
"F+	c #AEB7B1",
"G+	c #C5D0C7",
"H+	c #ABBEAE",
"I+	c #B4C4B7",
"J+	c #B5C5B8",
"K+	c #ACBFB0",
"L+	c #B6BEB9",
"M+	c #B4C5B9",
"N+	c #B9C1BC",
"O+	c #C1C7C3",
"P+	c #BFCBC1",
"Q+	c #B8C6BB",
"R+	c #C4CFC6",
"S+	c #ADBAB0",
"T+	c #ABC2AF",
"U+	c #AAC3AE",
"V+	c #ADC2B2",
"W+	c #B9C8BC",
"X+	c #B6C5B8",
"Y+	c #C0CCC2",
"Z+	c #BBC4BE",
"`+	c #BBC5BF",
" @	c #ADBEB0",
".@	c #B7C5B9",
"+@	c #ADC2B1",
"@@	c #AEC5B2",
"#@	c #B2C1B5",
"$@	c #B0B8B2",
"%@	c #B7C7BA",
"&@	c #AEC0B1",
"*@	c #B7C0B9",
"=@	c #A9B4AC",
"-@	c #A8B8AA",
";@	c #A9C0AD",
">@	c #ACC1B0",
",@	c #BDC8C0",
"'@	c #C3CBC5",
")@	c #B8C4BA",
"!@	c #B4AFAA",
"~@	c #B6B7B2",
"{@	c #A9B8AB",
"]@	c #C6C9C7",
"^@	c #B6C5B9",
"/@	c #B0AFA4",
"(@	c #BDB9B7",
"_@	c #B4BDB7",
":@	c #A6B3A8",
"<@	c #A8B7A9",
"[@	c #C3AFA7",
"}@	c #B9C2BB",
"|@	c #C2C9C3",
"1@	c #C8D4CA",
"2@	c #A5B5A7",
"3@	c #BCAEA9",
"4@	c #C5BEBE",
"5@	c #CAB2B2",
"6@	c #C3A7A3",
"7@	c #C8ACA7",
"8@	c #C9A8A3",
"9@	c #E1A1A1",
"0@	c #D3B4B4",
"a@	c #CEC5C5",
"b@	c #CBB8B3",
"c@	c #C9D5CB",
"d@	c #BCC7BE",
"e@	c #A6B9AA",
"f@	c #B2B2A6",
"g@	c #C1BFBD",
"h@	c #CEA4A4",
"i@	c #D99E9E",
"j@	c #E6A9A9",
"k@	c #E5A5A5",
"l@	c #E39F9F",
"m@	c #DEA7A7",
"n@	c #C6C2C0",
"o@	c #B7B2A7",
"p@	c #B5C9B9",
"q@	c #AEBDB1",
"r@	c #CBA2A1",
"s@	c #D39D9D",
"t@	c #E3A2A2",
"u@	c #E4A2A2",
"v@	c #DFA1A1",
"w@	c #C4AEAB",
"x@	c #AFBCB1",
"y@	c #C9A29F",
"z@	c #D69D9D",
"A@	c #E5A6A6",
"B@	c #E19F9F",
"C@	c #D59D9D",
"D@	c #C6A39F",
"E@	c #CFA3A0",
"F@	c #D49D9D",
"G@	c #CAA19E",
"H@	c #ADB4A7",
"I@	c #A5B7A8",
"J@	c #C8C2A3",
"K@	c #D9A39E",
"L@	c #E3A1A1",
"M@	c #DCA0A0",
"N@	c #D79D9D",
"O@	c #AAC2AE",
"P@	c #C7C8A3",
"Q@	c #CFC6A2",
"R@	c #DAA19E",
"S@	c #DA9E9E",
"T@	c #D8A39E",
"U@	c #CEC6A2",
"V@	c #C1C4A4",
"W@	c #ABC5AF",
"X@	c #B1C8B4",
"Y@	c #C3C6A4",
"Z@	c #CECAA2",
"`@	c #D6D1A3",
" #	c #DFD9AF",
".#	c #E5ACA9",
"+#	c #D7CFA3",
"@#	c #C6C6A3",
"##	c #A6B4A6",
"$#	c #ADC8B2",
"%#	c #A7B6AA",
"&#	c #C4C7A4",
"*#	c #CECBA2",
"=#	c #DFDCB0",
"-#	c #E0DDB0",
";#	c #DCD8A6",
">#	c #CFCEA4",
",#	c #A7B6A7",
"'#	c #ACC3B0",
")#	c #B1CAB5",
"!#	c #ADC7B2",
"~#	c #D8D2A3",
"{#	c #D8D3A3",
"]#	c #CCCCA5",
"^#	c #AEC6B2",
"/#	c #C8D1CA",
"(#	c #BFC3A4",
"_#	c #C8C8A3",
":#	c #CDCAA2",
"<#	c #D7D2A3",
"[#	c #D0CFA5",
"}#	c #C6CAA6",
"|#	c #AEC6B3",
"1#	c #B0C9B4",
"2#	c #C9D2CB",
"3#	c #C2C7A6",
"4#	c #D5D0A3",
"5#	c #C8CBA6",
"6#	c #ADBAA7",
"7#	c #A9BAA9",
"8#	c #B5C8B8",
"9#	c #CDCBA3",
"0#	c #C8CAA5",
"a#	c #A8BDAB",
"b#	c #A4B5A7",
"c#	c #B1C5B4",
"d#	c #B8C8BB",
"e#	c #B1C3B4",
"f#	c #AEC2B2",
"g#	c #B9C2A6",
"h#	c #B5BCA6",
"i#	c #B4BFA8",
"j#	c #CBCDCA",
"k#	c #CECCB3",
"l#	c #AFBBB1",
"m#	c #B6C7B7",
"n#	c #B7C6AB",
"o#	c #B2BBA5",
"p#	c #B1BCA9",
"q#	c #B4C4B8",
"r#	c #B3C6B7",
"s#	c #C1C9C3",
"t#	c #A5B5A8",
"u#	c #C5CEC7",
"v#	c #B9C3BB",
"w#	c #BFBDA4",
"x#	c #CBC5A3",
"y#	c #C2BEB1",
"z#	c #CBC8BD",
"A#	c #C5C6C5",
"B#	c #CBC8BA",
"C#	c #CBC6A3",
"D#	c #CFCAA9",
"E#	c #D1D0BF",
"F#	c #CCCECD",
"G#	c #C6CFC8",
"H#	c #A4B3A6",
"I#	c #A4B2A6",
"J#	c #B8C2BA",
"K#	c #B1BEB4",
"L#	c #B4BAA6",
"M#	c #B8B9A4",
"N#	c #D2CEBE",
"O#	c #D6D1C2",
"P#	c #D3D2C4",
"Q#	c #B8BEB9",
"R#	c #B4BFB6",
"S#	c #C1D0C4",
"T#	c #BAC7BD",
"U#	c #A4B3A7",
"V#	c #A3B0A6",
"W#	c #A3B2A6",
"X#	c #BFCAC0",
"Y#	c #A3B1A6",
"Z#	c #C1CEC3",
"`#	c #ABC3AF",
" $	c #C0D1C2",
".$	c #AFB9B1",
"+$	c #C5CFC6",
"@$	c #BFC6C1",
"#$	c #B1BAB3",
"$$	c #B3C1B6",
"%$	c #C1CBC3",
"&$	c #BFCCC2",
"*$	c #C2C9C4",
"=$	c #ACBCAF",
"-$	c #BBC7BD",
";$	c #C2C5C3",
">$	c #C8CECA",
",$	c #C2C4C3",
"'$	c #C5CAC6",
")$	c #C4CAC5",
"                                                                                                                        ",
"                                                                                                                        ",
"                                                                                                                        ",
"                                                                                                                        ",
"                                                          . +                                                           ",
"                                                  @ # $ % & .   * = -                                                   ",
"                                                  ; > , ' ) !   ~ { ] ^                                                 ",
"                                                  / ( _ : : < [ } | 1                                                   ",
"                                                  2 < 3 4 5 6 ! 7 8 9 0                                                 ",
"                                                  a b c d e f g h i j 0                                                 ",
"                                k l             m n o p q r f s t q u v             w x                                 ",
"                            k y z A B           C D E F G p H I J K L M N         O P Q R S                             ",
"                        T U V W A A X O       Y : Z { `  ...+.@.#.$.%.&.*.      =.X W W -.;.>.,.                        ",
"                      '.).!.~.W {.].A ^./.    Y : D (._.:.<.[.}. .|.1.2.3.4.    5.W W 6.7.8.9.0.a.                      ",
"                  b.c.d.W z !.~.: e.A A k     f.g.h.i.j.I k.l.m.j.n.o.p.q.    b.r.z A s.~.e.].t.u.v.w.                  ",
"                O x.W ~.y.{.z.A.: z.& A B.O   C.: < D.E.F.G.G.H.@ I.J.K.L.M.O x.W 6.z.N.O.W {.z P.9.Q.                  ",
"              r.R.~.z & g.z.O.g.: z S.& A T.U.V.: W.g.X.: W.Y.Z.`. +.+++@+=.T.W #+W.$+!.: e.%+g.& z 8.&+*+              ",
"            ~.W ~.O.=+g.g.z.N.g.: $+g.& z A -+;+& >+,+: W.'+)+)+Z.'+!+~+{+b.W ~.X.W.]+^+/+g.]+'+< =+O.W t.(+            ",
"        z W ~._+:+g.g.g.g.<+g.g.: z.g.g.& z.A [+}+|+: < 5 6 1+1+G.G.2+3+O ].]+#+'+W.4+^+'+g.z.^+'+'+< =+z.8.9.;.        ",
"      ~.d.5+6+7+8+g.g.g.g.g.9+g.: 0+g.h.7+a+A b+[ g.W.Z.c+d+e+e+f+++g+h+].W i+j+k+W.$+Y.'+l+^+m+'+'+'+n+l+6+o+p+q+      ",
"    R.r+s+        t+g.g.g.u+  v+u+g.h.w+    x+y+: W.< '+c+z+A+B+C+D+++E+W F+    G+H+'+I+J+  I+'+'+'+K+        s+L+M+    ",
"  N+O+            P+g.g.v+        Q+R+        S+: W.Y.'+)+T+2+1+U+g+++V+].O       G+W+        X+'+'+Y+            T Z+`+",
"                     @.@                      ;+[ g.W.< Z.+@6 1+1+2+@@#@$@                      %@&@                    ",
"                                              *@=@-@g.W.< '+Z.;@;@>@,@l '@                                              ",
"                                            )@[ !@~@{@{.{.'+'+)+k+e ]@^@%@                                              ",
"                                          )@: g./@(@B _@:@[ <@[@}@h |@6 ;@1@                                            ",
"                                          2@g.Z.: 3@4@5@6@7@8@9@0@a@b@c+G.c@                                            ",
"                                          d@e@c+c+f@g@h@i@j@k@l@m@n@o@c+2+p@                                            ",
"                                            g.c+;@Z.q@r@s@t@u@l@v@w@g.c+2+2+                                            ",
"                                          x@{.Z.c+Z.< y@z@A@A@B@C@D@|+< 1+e+v                                           ",
"                                          ,+[ < 6 Z.'+E@i@j@j@F@G@H@I@W.;@e+e+                                          ",
"                                          [ {.'+c+Z.'+J@K@L@M@N@y@W.I@W.6 O@g+_                                         ",
"                                        f.I@e@6 6 Z.'+P@Q@R@S@T@U@V@e@c+;@e+W@g+                                        ",
"                                        >+: )+Z.X@. Y@Z@`@ #.#+#@###Z.c+6 3.$#3.                                        ",
"                                        %#[ I@'+5 Z.&#*#`@=#-#;#>#,#{.'+5 '#)#!#                                        ",
"                                          I@g.5 ;@)+&#*#*#~#;#{#{#]#g.5 ;@^#&.!#O@                                      ",
"                                        /#W.'+5 1+g.(#_#:#~#{#<#[#}#W.5 ;@|#1#3.W@                                      ",
"                                      2#Z.6 W.W.6 < W.Z.3#4#{#5#5 ;@'+g.g.I@W.'+2+                                      ",
"                                      5 2+W.[ Z.g.6#7#)+8#9#0#a#e+Z.b#'+< : W.)+c#                                      ",
"                                      d#[.I@W.e#f#g#h#i#j#k#l#m#n#o#p#q#r#c+)+)+s#                                      ",
"                                          t#: u#v#[ w#x#y#z#A#B#C#D#E#F#G#< 5 6 a.                                      ",
"                                          H#I#J#K#[ L#M#N#O#  O#O#P#'@Q#R#[ g.)+S#                                      ",
"                                        T#: U#V#W#[ g.>+          X#g.{.>+Y#[ 5 B+                                      ",
"                                        g.Y.I@t#[ g.Z.Z.Z#        : Z.Z.|+: W.5 `# $                                    ",
"                                        W.g.|+g.'+g.Y.;@5         g.'+W.: )+< W.6 g+                                    ",
"                                        .$)@}+|+Z.+$@$h.          #$$$%$[ < &$*$=$-$                                    ",
"                                        ;$    T >$                ,$    '$)$                                            ",
"                                                                                                                        ",
"                                                                                                                        ",
"                                                                                                                        ",
"                                                                                                                        "};
