/* XPM */
static char * kde2_xpm[] = {
"60 51 752 2",
"  	c None",
". 	c #D0D1D1",
"+ 	c #D4D6D6",
"@ 	c #D0D3D2",
"# 	c #DDDFDF",
"$ 	c #C9C9C9",
"% 	c #BDBDBD",
"& 	c #B2B3B3",
"* 	c #A7A9A9",
"= 	c #DBDCDC",
"- 	c #A9AEAD",
"; 	c #848787",
"> 	c #2C2D2D",
", 	c #525252",
"' 	c #626262",
") 	c #B4CEB9",
"! 	c #BED8C2",
"~ 	c #EBEBEB",
"{ 	c #585858",
"] 	c #292929",
"^ 	c #414543",
"/ 	c #C8CFCB",
"( 	c #C6C7C7",
"_ 	c #5C5E5E",
": 	c #4A4B4B",
"< 	c #9CB7A1",
"[ 	c #A8BEAC",
"} 	c #31793E",
"| 	c #317B3F",
"1 	c #A6BAAA",
"2 	c #97B09C",
"3 	c #566E5C",
"4 	c #656B68",
"5 	c #9AA59E",
"6 	c #9BA89F",
"7 	c #B4BEB7",
"8 	c #8DA292",
"9 	c #769C7E",
"0 	c #387B44",
"a 	c #215E2B",
"b 	c #23652F",
"c 	c #256A31",
"d 	c #246730",
"e 	c #4C9059",
"f 	c #A6CFAF",
"g 	c #B2CAB7",
"h 	c #B5C0B9",
"i 	c #9EAEA3",
"j 	c #96A39A",
"k 	c #91A196",
"l 	c #84988B",
"m 	c #20402B",
"n 	c #3F5D49",
"o 	c #B8C7BD",
"p 	c #67936F",
"q 	c #467850",
"r 	c #608166",
"s 	c #65866C",
"t 	c #2B7338",
"u 	c #297637",
"v 	c #2D6F39",
"w 	c #608668",
"x 	c #65986F",
"y 	c #4DA35C",
"z 	c #7DB286",
"A 	c #5A7563",
"B 	c #274D34",
"C 	c #89A291",
"D 	c #97AD9E",
"E 	c #9BAEA2",
"F 	c #9BAAA0",
"G 	c #84978A",
"H 	c #264531",
"I 	c #244730",
"J 	c #23452F",
"K 	c #21412C",
"L 	c #264B33",
"M 	c #6B8574",
"N 	c #B1C3B4",
"O 	c #3F7348",
"P 	c #6A7B6E",
"Q 	c #B9BBBB",
"R 	c #74957B",
"S 	c #2B7238",
"T 	c #6C8671",
"U 	c #ACAEAE",
"V 	c #ACB8B0",
"W 	c #699E73",
"X 	c #7CB085",
"Y 	c #ACBAB1",
"Z 	c #3F624B",
"` 	c #2A5238",
" .	c #2C563A",
"..	c #2F5C3E",
"+.	c #386246",
"@.	c #97B09F",
"#.	c #8AA393",
"$.	c #A4B4AA",
"%.	c #A9B4AD",
"&.	c #778B7E",
"*.	c #788C7F",
"=.	c #32513C",
"-.	c #22432D",
";.	c #23462F",
">.	c #3E5D49",
",.	c #ABB7AF",
"'.	c #739679",
").	c #44674B",
"!.	c #868E89",
"~.	c #B1B3B3",
"{.	c #C7C9C9",
"].	c #B2B4B4",
"^.	c #2E733B",
"/.	c #9A9C9C",
"(.	c #BABCBC",
"_.	c #94AF9A",
":.	c #4C9259",
"<.	c #B6D2BB",
"[.	c #40614C",
"}.	c #2A5237",
"|.	c #2C573B",
"1.	c #284F35",
"2.	c #3C684B",
"3.	c #2D553A",
"4.	c #345F43",
"5.	c #315D40",
"6.	c #4B7158",
"7.	c #7F9A88",
"8.	c #AEBDB3",
"9.	c #6A7F72",
"0.	c #3D5946",
"a.	c #22422C",
"b.	c #203E2A",
"c.	c #22562D",
"d.	c #21402B",
"e.	c #23452E",
"f.	c #254931",
"g.	c #768C7E",
"h.	c #AABEAE",
"i.	c #3B6F44",
"j.	c #637868",
"k.	c #919393",
"l.	c #626D66",
"m.	c #505352",
"n.	c #B1B2B2",
"o.	c #617B67",
"p.	c #8C8E8E",
"q.	c #535554",
"r.	c #8F9492",
"s.	c #9FBCA5",
"t.	c #3B914A",
"u.	c #8AB992",
"v.	c #758B7D",
"w.	c #284E35",
"x.	c #2D593C",
"y.	c #22442E",
"z.	c #325C40",
"A.	c #276535",
"B.	c #2A5338",
"C.	c #325D41",
"D.	c #305D3F",
"E.	c #4D745A",
"F.	c #769380",
"G.	c #B8C6BD",
"H.	c #C2CAC5",
"I.	c #5E7465",
"J.	c #405C49",
"K.	c #203F2B",
"L.	c #1D3926",
"M.	c #21532C",
"N.	c #21572C",
"O.	c #224C2D",
"P.	c #22442D",
"Q.	c #21552C",
"R.	c #3B5B46",
"S.	c #A5B3AA",
"T.	c #81A186",
"U.	c #205D2B",
"V.	c #677D6C",
"W.	c #484949",
"X.	c #213528",
"Y.	c #141715",
"Z.	c #ADAFAF",
"`.	c #767E7C",
" +	c #2F3030",
".+	c #161717",
"++	c #4E5050",
"@+	c #A6C2AC",
"#+	c #49A159",
"$+	c #4A9758",
"%+	c #B4D3BA",
"&+	c #3D5F49",
"*+	c #264C34",
"=+	c #276434",
"-+	c #244930",
";+	c #3C734B",
">+	c #266633",
",+	c #266133",
"'+	c #2F5A3E",
")+	c #305C3F",
"!+	c #4E755B",
"~+	c #698874",
"{+	c #C5D0C9",
"]+	c #3E5947",
"^+	c #21502C",
"/+	c #215A2C",
"(+	c #20582B",
"_+	c #22602D",
":+	c #22622D",
"<+	c #22452D",
"[+	c #1F3F29",
"}+	c #225D2D",
"|+	c #1F3E2A",
"1+	c #22492D",
"2+	c #22542D",
"3+	c #81A287",
"4+	c #215F2C",
"5+	c #576D5D",
"6+	c #767777",
"7+	c #272C29",
"8+	c #0F100F",
"9+	c #747676",
"0+	c #548C5F",
"a+	c #6B6C6C",
"b+	c #131313",
"c+	c #404141",
"d+	c #ACC9B2",
"e+	c #59B168",
"f+	c #368E45",
"g+	c #98C4A0",
"h+	c #296637",
"i+	c #265333",
"j+	c #325E41",
"k+	c #2B7439",
"l+	c #20402A",
"m+	c #305C3E",
"n+	c #287336",
"o+	c #266833",
"p+	c #286C36",
"q+	c #265E33",
"r+	c #386346",
"s+	c #52795F",
"t+	c #587762",
"u+	c #D5DCD7",
"v+	c #DCE0DD",
"w+	c #445D4D",
"x+	c #3B5845",
"y+	c #1F3D29",
"z+	c #1B3624",
"A+	c #7B8B80",
"B+	c #729579",
"C+	c #215C2C",
"D+	c #225D2C",
"E+	c #1F3C29",
"F+	c #224B2D",
"G+	c #22582D",
"H+	c #34553F",
"I+	c #A3B1A7",
"J+	c #21602C",
"K+	c #2C6837",
"L+	c #738377",
"M+	c #777979",
"N+	c #7E7F7F",
"O+	c #387242",
"P+	c #3C7E48",
"Q+	c #868989",
"R+	c #787A7A",
"S+	c #999B9B",
"T+	c #9EBBA4",
"U+	c #57AF66",
"V+	c #3F974F",
"W+	c #3C7749",
"X+	c #365942",
"Y+	c #296B37",
"Z+	c #245130",
"`+	c #335F41",
" @	c #276D35",
".@	c #24492F",
"+@	c #287236",
"@@	c #769F7E",
"#@	c #DBE2DD",
"$@	c #738679",
"%@	c #295137",
"&@	c #497056",
"*@	c #DEE6E1",
"=@	c #E6E9E7",
"-@	c #E6EAE8",
";@	c #E6E8E6",
">@	c #6C9673",
",@	c #225E2C",
"'@	c #22612D",
")@	c #22592D",
"!@	c #22552D",
"~@	c #92A498",
"{@	c #809E85",
"]@	c #215E2C",
"^@	c #246830",
"/@	c #2E703A",
"(@	c #32743E",
"_@	c #347640",
":@	c #2A7637",
"<@	c #2D7B3B",
"[@	c #357D43",
"}@	c #398546",
"|@	c #408D4E",
"1@	c #4A9C59",
"2@	c #479F57",
"3@	c #378F46",
"4@	c #2A6838",
"5@	c #297537",
"6@	c #245030",
"7@	c #2D583C",
"8@	c #2A7338",
"9@	c #286E36",
"0@	c #265433",
"a@	c #70A47A",
"b@	c #E7ECE9",
"c@	c #E8EDEA",
"d@	c #63906B",
"e@	c #215B2C",
"f@	c #1F4529",
"g@	c #21542B",
"h@	c #21422D",
"i@	c #2A4C35",
"j@	c #234D2D",
"k@	c #205C2B",
"l@	c #205C2A",
"m@	c #1C5025",
"n@	c #1D5426",
"o@	c #1F5A2A",
"p@	c #205D2C",
"q@	c #277135",
"r@	c #328341",
"s@	c #429851",
"t@	c #388F47",
"u@	c #2C6E3A",
"v@	c #285035",
"w@	c #296937",
"x@	c #286B35",
"y@	c #297437",
"z@	c #689E72",
"A@	c #598961",
"B@	c #2D6A37",
"C@	c #E3EBE5",
"D@	c #266531",
"E@	c #2E6B39",
"F@	c #295933",
"G@	c #284F36",
"H@	c #22532D",
"I@	c #1D5326",
"J@	c #1F5828",
"K@	c #22612C",
"L@	c #266D33",
"M@	c #277134",
"N@	c #287235",
"O@	c #277034",
"P@	c #266C32",
"Q@	c #327A3F",
"R@	c #439452",
"S@	c #296537",
"T@	c #306B3E",
"U@	c #357E42",
"V@	c #2D783A",
"W@	c #337D41",
"X@	c #5F9869",
"Y@	c #3B7344",
"Z@	c #E6EEE8",
"`@	c #367040",
" #	c #286633",
".#	c #789F7F",
"+#	c #A8B3AB",
"@#	c #2E4D39",
"##	c #295337",
"$#	c #24592F",
"%#	c #205B2A",
"&#	c #256830",
"*#	c #276F34",
"=#	c #2B7C3A",
"-#	c #2C7C3B",
";#	c #2C7D3B",
">#	c #2B7B3A",
",#	c #286736",
"'#	c #274E35",
")#	c #365C43",
"!#	c #ACBCB2",
"~#	c #7CAB85",
"{#	c #2F7A3D",
"]#	c #3C8249",
"^#	c #E7F0E9",
"/#	c #DCE6DE",
"(#	c #759D7C",
"_#	c #90A096",
":#	c #1F4C29",
"<#	c #1F5A29",
"[#	c #24662F",
"}#	c #266B32",
"|#	c #287335",
"1#	c #2F7E3D",
"2#	c #2E843D",
"3#	c #30863F",
"4#	c #328941",
"5#	c #378F47",
"6#	c #318740",
"7#	c #2D723C",
"8#	c #285036",
"9#	c #92A599",
"0#	c #79A982",
"a#	c #DEEAE0",
"b#	c #345E3D",
"c#	c #23642E",
"d#	c #256931",
"e#	c #2A7738",
"f#	c #3E894B",
"g#	c #2F843E",
"h#	c #4BA35A",
"i#	c #389048",
"j#	c #337942",
"k#	c #3F644B",
"l#	c #809C86",
"m#	c #205A2B",
"n#	c #246630",
"o#	c #256831",
"p#	c #276F33",
"q#	c #328240",
"r#	c #2F853E",
"s#	c #2D813C",
"t#	c #2E823D",
"u#	c #368C45",
"v#	c #3A8049",
"w#	c #879E8F",
"x#	c #A9B3AC",
"y#	c #3A6743",
"z#	c #398847",
"A#	c #2B7A39",
"B#	c #3A8648",
"C#	c #61906B",
"D#	c #AFBFB4",
"E#	c #D8E1DA",
"F#	c #A7BCAA",
"G#	c #A7BDAB",
"H#	c #6E684F",
"I#	c #2D4F24",
"J#	c #22622E",
"K#	c #297738",
"L#	c #347B41",
"M#	c #709378",
"N#	c #ACB7AF",
"O#	c #CFDDD1",
"P#	c #9CB4A0",
"Q#	c #1E5828",
"R#	c #67210F",
"S#	c #624A38",
"T#	c #295A32",
"U#	c #1F5929",
"V#	c #256B32",
"W#	c #2F703B",
"X#	c #68876E",
"Y#	c #8C9890",
"Z#	c #598862",
"`#	c #5C9366",
" $	c #CFE1D3",
".$	c #D4DDD6",
"+$	c #5D8564",
"@$	c #433E1C",
"#$	c #6D615A",
"$$	c #5A6F5F",
"%$	c #526F58",
"&$	c #70321D",
"*$	c #245427",
"=$	c #89391D",
"-$	c #813F24",
";$	c #5B7862",
">$	c #7F9684",
",$	c #5B8F65",
"'$	c #CDD8CF",
")$	c #A9BCAC",
"!$	c #266C33",
"~$	c #215D2B",
"{$	c #6C3B2D",
"]$	c #897373",
"^$	c #994B4B",
"/$	c #C90D0D",
"($	c #9A3525",
"_$	c #ED0A0A",
":$	c #E61010",
"<$	c #B24D4D",
"[$	c #A68888",
"}$	c #9E5F4C",
"|$	c #63976C",
"1$	c #D2DCD4",
"2$	c #DEE5DF",
"3$	c #6B9172",
"4$	c #287135",
"5$	c #494B23",
"6$	c #7B766E",
"7$	c #A81A1A",
"8$	c #CB0505",
"9$	c #F82C2C",
"0$	c #F51F1F",
"a$	c #DD2525",
"b$	c #8C817A",
"c$	c #594B25",
"d$	c #2C7F3B",
"e$	c #559761",
"f$	c #C6DACA",
"g$	c #9DB7A2",
"h$	c #3C6F46",
"i$	c #9C150F",
"j$	c #F01515",
"k$	c #F11515",
"l$	c #E80909",
"m$	c #BF0C0C",
"n$	c #853C30",
"o$	c #2D7F3C",
"p$	c #A2C5A8",
"q$	c #C2D0C4",
"r$	c #416F48",
"s$	c #1F5829",
"t$	c #961409",
"u$	c #F52222",
"v$	c #F42222",
"w$	c #BF0202",
"x$	c #B00000",
"y$	c #8C160A",
"z$	c #2C7B3A",
"A$	c #2F833E",
"B$	c #4E955B",
"C$	c #C6DDCA",
"D$	c #ABC0AE",
"E$	c #1E5628",
"F$	c #917616",
"G$	c #CA1407",
"H$	c #F62B2B",
"I$	c #9B0F07",
"J$	c #395125",
"K$	c #2A7938",
"L$	c #B1D0B6",
"M$	c #1E5728",
"N$	c #256A32",
"O$	c #8F9219",
"P$	c #CA1908",
"Q$	c #D60C0C",
"R$	c #D40C0C",
"S$	c #AF1002",
"T$	c #907D17",
"U$	c #23632E",
"V$	c #318840",
"W$	c #459253",
"X$	c #C9DFCD",
"Y$	c #BFCDC2",
"Z$	c #2C5D34",
"`$	c #2A7A39",
" %	c #AC8D13",
".%	c #CD0E07",
"+%	c #A98D12",
"@%	c #A59B15",
"#%	c #7B881C",
"$%	c #2C7E3B",
"%%	c #328B42",
"&%	c #BED9C3",
"*%	c #B7C7BA",
"=%	c #1C5125",
"-%	c #21602D",
";%	c #459553",
">%	c #357F42",
",%	c #828D1C",
"'%	c #A79B14",
")%	c #C4B318",
"!%	c #E1CE41",
"~%	c #C8B619",
"{%	c #A9A21A",
"]%	c #215023",
"^%	c #22632E",
"/%	c #2D793B",
"(%	c #3A9249",
"_%	c #3B934A",
":%	c #358E45",
"<%	c #BFDBC4",
"[%	c #BBCABE",
"}%	c #24572D",
"|%	c #878F1B",
"1%	c #A89C14",
"2%	c #D4C721",
"3%	c #E3D943",
"4%	c #D6C820",
"5%	c #CAB819",
"6%	c #9FA01D",
"7%	c #378645",
"8%	c #459A54",
"9%	c #399049",
"0%	c #B7D6BC",
"a%	c #9BB5A0",
"b%	c #276E34",
"c%	c #7C891D",
"d%	c #A59A14",
"e%	c #C6B619",
"f%	c #91981E",
"g%	c #277035",
"h%	c #3F924E",
"i%	c #499D58",
"j%	c #378D46",
"k%	c #CADECE",
"l%	c #B9CBBC",
"m%	c #7D891C",
"n%	c #929318",
"o%	c #C8B719",
"p%	c #ADA71B",
"q%	c #939B1F",
"r%	c #1E5829",
"s%	c #23662F",
"t%	c #2B7B39",
"u%	c #3A8E49",
"v%	c #358B44",
"w%	c #CBE1CF",
"x%	c #9AB99F",
"y%	c #297436",
"z%	c #2A7838",
"A%	c #23642F",
"B%	c #266E33",
"C%	c #B9AD19",
"D%	c #B8AC19",
"E%	c #2A7839",
"F%	c #CCE2D0",
"G%	c #D2DDD4",
"H%	c #427B4C",
"I%	c #3C6E29",
"J%	c #296029",
"K%	c #5C9B68",
"L%	c #A49C1A",
"M%	c #7F891E",
"N%	c #4F885A",
"O%	c #2D803C",
"P%	c #2F803E",
"Q%	c #2C7539",
"R%	c #256C32",
"S%	c #4B8D57",
"T%	c #D6E6D9",
"U%	c #CACBCB",
"V%	c #9EB1A3",
"W%	c #52885C",
"X%	c #4D8B59",
"Y%	c #43874F",
"Z%	c #607E23",
"`%	c #4F601C",
" &	c #476726",
".&	c #C5C897",
"+&	c #B0A951",
"@&	c #527759",
"#&	c #ACB4A9",
"$&	c #55872D",
"%&	c #4D7022",
"&&	c #476A2C",
"*&	c #52865D",
"=&	c #52965E",
"-&	c #7C9581",
";&	c #D2D3D3",
">&	c #B3B5B5",
",&	c #DADBDB",
"'&	c #A9BBAC",
")&	c #1B4F24",
"!&	c #6A8C71",
"~&	c #1C5225",
"{&	c #6D6318",
"]&	c #886814",
"^&	c #9C8815",
"/&	c #A89D74",
"(&	c #9E9470",
"_&	c #968A5C",
":&	c #9F8C16",
"<&	c #948917",
"[&	c #727D38",
"}&	c #9DA2A1",
"|&	c #8DA993",
"1&	c #75907B",
"2&	c #BDBFBE",
"3&	c #CFD8D0",
"4&	c #527458",
"5&	c #194821",
"6&	c #5B7C62",
"7&	c #476F4E",
"8&	c #1D5226",
"9&	c #44581E",
"0&	c #A19467",
"a&	c #C1B07E",
"b&	c #C2B27F",
"c&	c #B2AC80",
"d&	c #6E8873",
"e&	c #5A705F",
"f&	c #517256",
"g&	c #BCD3C0",
"h&	c #D5E1D7",
"i&	c #5F8A66",
"j&	c #1C5126",
"k&	c #184620",
"l&	c #194922",
"m&	c #1C5226",
"n&	c #7A9D80",
"o&	c #E3EBE4",
"p&	c #6C9474",
"q&	c #1D5427",
"r&	c #1A4A22",
"s&	c #76AD80",
"t&	c #E5EFE7",
"u&	c #D8E1D9",
"v&	c #5E8965",
"w&	c #E3EAE4",
"x&	c #C8D8CB",
"y&	c #308740",
"z&	c #B9CCBC",
"A&	c #71A179",
"B&	c #E5ECE7",
"C&	c #628E6A",
"D&	c #6DAB78",
"E&	c #E7F1E9",
"F&	c #BACEBE",
"G&	c #D5E1D8",
"H&	c #2B7A3A",
"I&	c #429751",
"J&	c #DDEDE0",
"K&	c #CAD0CC",
"L&	c #43684A",
"M&	c #D5E0D7",
"N&	c #205A29",
"O&	c #296433",
"P&	c #D7E1D9",
"Q&	c #5D6761",
"R&	c #849688",
"S&	c #CEDDD1",
"T&	c #5B6F61",
"U&	c #ADBBB0",
"V&	c #CEDCD0",
"W&	c #637768",
"X&	c #BCC8BE",
"Y&	c #E0E2E1",
"Z&	c #556459",
"`&	c #738678",
" *	c #94A598",
".*	c #37623F",
"+*	c #82A588",
"@*	c #CDDACF",
"#*	c #748778",
"$*	c #78867C",
"%*	c #E9EBE9",
"&*	c #E5E6E5",
"**	c #9FA4A2",
"=*	c #B1B4B3",
"-*	c #E8E9E9",
";*	c #E5E6E6",
">*	c #ECECEC",
",*	c #B5B8B6",
"'*	c #98A19B",
")*	c #ABADAD",
"                                                                                                                        ",
"                                                                                                                        ",
"                                                                                                                        ",
"                                                                      . +                                               ",
"                                                @ # $ % %       % % & * =                                               ",
"                                                - ; > , ' ) ! ~ { ] ^ /                                                 ",
"                                                ( _ : < [ } | 1 2 3 4 5                                                 ",
"                                  6 7             8 9 0 a b c a d e f g           h i                                   ",
"                            j k l m n o           p q r s t u v w x y z           A B C D E                             ",
"                        F G H I J K L M         N O P * Q R S T U V W X         Y Z `  ...+.@.#.$.                      ",
"                  %.&.*.=.-.-.K -.K ;.>.,.      '.).!.~.{.].^./.(.{._.:.<.    %.[.}.|.1.2.3.4.5.6.7.8.                  ",
"              7 9.0.a.-.-.b.c.d.b.-.e.f.g.    h.i.j.k.l.m.n.o.p.q.r.s.t.u.    v.1.w.x.y.z.A.e.B.C.D.E.F.G.              ",
"          H.I.J.a.-.K.L.M.N.O.P.Q.-.-.I R.S.  T.U.V.W.X.Y.Z.`. +.+++@+#+$+%+S.&+}.*+x.=+-+;+>+,+m w.'+)+!+~+{+          ",
"        / ]+a.-.m ^+/+(+_+:+<+[+}+|+1+2+;.l   3+4+5+6+7+8+9+0+a+b+c+d+e+f+g+l 1.h+i+j+k+l+m+u n+o+p+q+I ` r+s+t+u+      ",
"    v+w+x+y+z+A+B+_+:+:+:+:+[+C+D+E+F+G+;.H+I+T.J+K+L+M+N+O+P+Q+R+S+T+U+V+W+X+` Y+Z+`+k+ @.@u u u u +@@@#@$@d.%@&@*@    ",
"      =@-@=@;@    >@:+:+:+:+,@:+'@)@F+'@!@;.~@{@]@^@/@(@_@:@<@[@}@|@1@2@3@4@1.h+5@6@7@8@u 9@0@u u u a@      =@b@c@      ",
"                    d@:+:+:+:+:+:+e@f@:+g@h@i@j@k@'@l@m@n@o@p@l@q@r@s@t@u@v@B.w@u 6@x@u u u y@u u z@                    ",
"                      A@:+B@    C@:+:+D@E@F@;.G@H@I@J@K@d L@M@N@O@P@Q@R@S@B.T@U@V@u u W@    W@u X@                      ",
"                      >@Y@Z@    Z@`@ #.#  +#@###$#%#'@&#*#u =#-#-#;#>#,#'#)#!#  ~#{#]#^#    ^#]#X@                      ",
"                                  /#(#      _#:#<#'@[#}#|#1#2#3#4#5#6#7#8#9#      0#a#        a#0#                      ",
"                                            +#b#a c#^@d#e#f#3#g#5#h#i#j#k#!#                                            ",
"                                              l#m#c#n#o#p#q#r#=#s#t#u#v#w#                                              ",
"                                              x#y#'@b d o#z#A#>#>#-#B#C#D#                                              ",
"                                          E#F#G#H#I#J+J#d d#c K#K#L#M#N#O#                                              ",
"                                          P#Q#<#R#S#T#U#k@o#d#V#W#X#Y#Z#`# $                                            ",
"                                        .$+$'@:+@$#$$$%$&$*$=$-$;$/.>$n+A#,$'$                                          ",
"                                        )$I@J#!$~${$]$^$/$($_$:$<$[$}$n+;#|$1$                                          ",
"                                        2$3$J#n+4$5$6$7$8$9$0$_$a$b$c$+@d$e$f$                                          ",
"                                          g$_+O@u d#h$i$8$j$k$l$m$n$4+q@o$o$p$                                          ",
"                                        q$r$s$^@M@c ^@t$8$u$v$w$x$y$o@d z$A$B$C$                                        ",
"                                        D$E$Q#[#5@!$o#F$G$9$H$x$I$J$U#c#K$g#g#L$                                        ",
"                                        D$M$U.V#N@N$o#O$P$Q$R$S$T$U$U.c u A$V$W$X$                                      ",
"                                      Y$Z$o@b K$`$L@d#O$ %.%.%+%@%#%b K$$%A$%%V$&%                                      ",
"                                      *%=%]@]@-%;%>%,%'%)%!%!%~%{%]%^%4+/%(%_%:%<%                                      ",
"                                      [%}%M$%#V#4$}#|%1%1%2%3%4%5%6%l@c N@7%8%9%0%                                      ",
"                                        a%o@'@N@>#b%c%d%1%~%4%5%e%f%_+g%d$h%i%j%o$k%                                    ",
"                                      l%%#d L@g%>#P@U#m%n%e%o%p%q%r%s%N@t%!$e#u%v%w%                                    ",
"                                      x%y%z%A%b A#c :+B%c C%D%r%5@E%c ^%o#_+^%L@t#F%                                    ",
"                                    G%H%$%d U#B%u I%J%}#K%L%M%N%O%d#I@P@P%Q%J#R%S%T%                                    ",
"                                    U%V%W%M$b X%Y%Z%`% &.&+&@&#&$&%&&&*&=&z%c d#-&;&                                    ",
"                                    >&,&'&)&U#_.!&~&{&]&^&/&(&_&:&<&[&}&|&c#c n+1&2&                                    ",
"                                        3&4&5&6&7&8&9&0&a&b&b&b&b&c&d&e&f&m@o@V#g&                                      ",
"                                        h&i&j&k&l&m&k@n&          o&p&q&5&r&r%5@s&t&                                    ",
"                                      u&v&[#]@E$M$a J#M$w&        x&b c -%'@d >#y&w%                                    ",
"                                      z&J+o#4+_+^%b O@5@A&      B&C&P@y%*#N@O@5@y&D&E&                                  ",
"                                      F&b [#4+c#b%^@O@$%u       G&J#P@p#^@N@!$d#H&I&J&                                  ",
"                                      K&L&c#U$c#*#:+^%!$o@      M&N&[#d ^%L@'@%#P@O&P&                                  ",
"                                      . Q&R&S&R&T&U&V&W&X&      Y&Z&`&S& *.*+*@*#*$*%*                                  ",
"                                        &*    **=*    -*          ;*>*  ,*'*    >*)*>*                                  ",
"                                                                                                                        ",
"                                                                                                                        "};
