/* XPM */
static char * kde3_xpm[] = {
"60 51 767 2",
"  	c None",
". 	c #D0D1D1",
"+ 	c #D4D6D6",
"@ 	c #D0D3D2",
"# 	c #DDDFDF",
"$ 	c #C9C9C9",
"% 	c #BDBDBD",
"& 	c #B2B3B3",
"* 	c #A7A9A9",
"= 	c #DBDCDC",
"- 	c #A9AEAD",
"; 	c #848787",
"> 	c #2C2D2D",
", 	c #525252",
"' 	c #626262",
") 	c #B4CEB9",
"! 	c #BED8C2",
"~ 	c #EBEBEB",
"{ 	c #585858",
"] 	c #292929",
"^ 	c #414543",
"/ 	c #C8CFCB",
"( 	c #C6C7C7",
"_ 	c #5C5E5E",
": 	c #4A4B4B",
"< 	c #9CB7A1",
"[ 	c #A8BEAC",
"} 	c #31793E",
"| 	c #317B3F",
"1 	c #A6BAAA",
"2 	c #97B09C",
"3 	c #566E5C",
"4 	c #656B68",
"5 	c #9AA59E",
"6 	c #8DA292",
"7 	c #769C7E",
"8 	c #387B44",
"9 	c #215E2B",
"0 	c #23652F",
"a 	c #256A31",
"b 	c #246730",
"c 	c #4C9059",
"d 	c #A6CFAF",
"e 	c #B2CAB7",
"f 	c #67936F",
"g 	c #467850",
"h 	c #608166",
"i 	c #65866C",
"j 	c #2B7338",
"k 	c #297637",
"l 	c #2D6F39",
"m 	c #608668",
"n 	c #65986F",
"o 	c #4DA35C",
"p 	c #7DB286",
"q 	c #B1C3B4",
"r 	c #3F7348",
"s 	c #6A7B6E",
"t 	c #B9BBBB",
"u 	c #74957B",
"v 	c #2B7238",
"w 	c #6C8671",
"x 	c #ACAEAE",
"y 	c #ACB8B0",
"z 	c #699E73",
"A 	c #7CB085",
"B 	c #739679",
"C 	c #44674B",
"D 	c #868E89",
"E 	c #B1B3B3",
"F 	c #C7C9C9",
"G 	c #B2B4B4",
"H 	c #2E733B",
"I 	c #9A9C9C",
"J 	c #BABCBC",
"K 	c #94AF9A",
"L 	c #4C9259",
"M 	c #B6D2BB",
"N 	c #AABEAE",
"O 	c #3B6F44",
"P 	c #637868",
"Q 	c #919393",
"R 	c #626D66",
"S 	c #505352",
"T 	c #B1B2B2",
"U 	c #617B67",
"V 	c #8C8E8E",
"W 	c #535554",
"X 	c #8F9492",
"Y 	c #9FBCA5",
"Z 	c #3B914A",
"` 	c #8AB992",
" .	c #E1E6E3",
"..	c #87998D",
"+.	c #81A186",
"@.	c #205D2B",
"#.	c #677D6C",
"$.	c #484949",
"%.	c #213528",
"&.	c #141715",
"*.	c #ADAFAF",
"=.	c #767E7C",
"-.	c #2F3030",
";.	c #161717",
">.	c #4E5050",
",.	c #A6C2AC",
"'.	c #49A159",
").	c #479054",
"!.	c #B1CCB6",
"~.	c #8EA796",
"{.	c #698974",
"].	c #ECF0EE",
"^.	c #EAEDEB",
"/.	c #496452",
"(.	c #2A4634",
"_.	c #859289",
":.	c #81A287",
"<.	c #215F2C",
"[.	c #576D5D",
"}.	c #767777",
"|.	c #272C29",
"1.	c #0F100F",
"2.	c #747676",
"3.	c #548C5F",
"4.	c #6B6C6C",
"5.	c #131313",
"6.	c #404141",
"7.	c #ACC9B2",
"8.	c #59B168",
"9.	c #328440",
"0.	c #93B89A",
"a.	c #899A8F",
"b.	c #30523B",
"c.	c #2D583C",
"d.	c #4F6B58",
"e.	c #415748",
"f.	c #456450",
"g.	c #23462F",
"h.	c #1E3B28",
"i.	c #284331",
"j.	c #88958C",
"k.	c #21602C",
"l.	c #2C6837",
"m.	c #738377",
"n.	c #777979",
"o.	c #7E7F7F",
"p.	c #387242",
"q.	c #3C7E48",
"r.	c #868989",
"s.	c #787A7A",
"t.	c #999B9B",
"u.	c #9EBBA4",
"v.	c #57AF66",
"w.	c #3A8C49",
"x.	c #8A998F",
"y.	c #2C4B37",
"z.	c #22432D",
"A.	c #21412C",
"B.	c #2B5539",
"C.	c #4B6E57",
"D.	c #435C4C",
"E.	c #244830",
"F.	c #244831",
"G.	c #203F2B",
"H.	c #23452F",
"I.	c #26402F",
"J.	c #8C9990",
"K.	c #809E85",
"L.	c #215E2C",
"M.	c #246830",
"N.	c #2E703A",
"O.	c #32743E",
"P.	c #347640",
"Q.	c #2A7637",
"R.	c #2D7B3B",
"S.	c #357D43",
"T.	c #398546",
"U.	c #408D4E",
"V.	c #4A9C59",
"W.	c #419450",
"X.	c #297337",
"Y.	c #93B699",
"Z.	c #284532",
"`.	c #264C33",
" +	c #2E5A3D",
".+	c #52775E",
"++	c #486451",
"@+	c #254932",
"#+	c #254931",
"$+	c #1E3C28",
"%+	c #1F3D29",
"&+	c #20402B",
"*+	c #1B3624",
"=+	c #223D2B",
"-+	c #939F97",
";+	c #7E9B83",
">+	c #205C2B",
",+	c #22612D",
"'+	c #205C2A",
")+	c #1C5025",
"!+	c #1D5426",
"~+	c #1F5A2A",
"{+	c #205D2C",
"]+	c #277135",
"^+	c #328341",
"/+	c #429851",
"(+	c #348542",
"_+	c #80A987",
":+	c #F9FBF9",
"<+	c #829589",
"[+	c #1F3E2A",
"}+	c #254B32",
"|+	c #376546",
"1+	c #537860",
"2+	c #496553",
"3+	c #1E3D28",
"4+	c #21412B",
"5+	c #1C3824",
"6+	c #203F2A",
"7+	c #1B3724",
"8+	c #88978D",
"9+	c #F9FAFA",
"0+	c #729477",
"a+	c #1D5326",
"b+	c #1F5828",
"c+	c #22612C",
"d+	c #266D33",
"e+	c #277134",
"f+	c #287235",
"g+	c #277034",
"h+	c #266C32",
"i+	c #256B32",
"j+	c #84A78A",
"k+	c #8A9C90",
"l+	c #22442D",
"m+	c #1C3925",
"n+	c #244730",
"o+	c #264B33",
"p+	c #356344",
"q+	c #557A61",
"r+	c #546E5D",
"s+	c #285036",
"t+	c #254A32",
"u+	c #1E3F29",
"v+	c #1F5429",
"w+	c #1E3E27",
"x+	c #1F5329",
"y+	c #1B3F24",
"z+	c #1E4E28",
"A+	c #1C3825",
"B+	c #8D9C91",
"C+	c #698F70",
"D+	c #205B2A",
"E+	c #256830",
"F+	c #276F34",
"G+	c #2B7C3A",
"H+	c #2C7C3B",
"I+	c #2C7D3B",
"J+	c #2B7B3A",
"K+	c #70A279",
"L+	c #90A096",
"M+	c #22452D",
"N+	c #22582D",
"O+	c #1F472A",
"P+	c #225C2D",
"Q+	c #22462D",
"R+	c #22472D",
"S+	c #284E35",
"T+	c #3F6B4E",
"U+	c #5F826B",
"V+	c #E8EBE9",
"W+	c #5C7665",
"X+	c #284F35",
"Y+	c #1F4129",
"Z+	c #1E5628",
"`+	c #1B3D24",
" @	c #1E5728",
".@	c #1E4D28",
"+@	c #1E4927",
"@@	c #1F5A29",
"#@	c #24662F",
"$@	c #266B32",
"%@	c #287335",
"&@	c #2F7E3D",
"*@	c #2E843D",
"=@	c #30863F",
"-@	c #328941",
";@	c #378F47",
">@	c #318740",
",@	c #296936",
"'@	c #22422D",
")@	c #22542D",
"!@	c #22622D",
"~@	c #1F4629",
"{@	c #22602D",
"]@	c #22482D",
"^@	c #294E36",
"/@	c #3D694C",
"(@	c #688973",
"_@	c #E9EEEB",
":@	c #E3E7E5",
"<@	c #647D6D",
"[@	c #1F4229",
"}@	c #1E5428",
"|@	c #20412A",
"1@	c #1F4329",
"2@	c #34673D",
"3@	c #375C40",
"4@	c #1E4B28",
"5@	c #23642E",
"6@	c #256931",
"7@	c #2A7738",
"8@	c #3E894B",
"9@	c #2F843E",
"0@	c #4BA35A",
"a@	c #389048",
"b@	c #30733E",
"c@	c #21522B",
"d@	c #204D2A",
"e@	c #21482C",
"f@	c #225D2D",
"g@	c #21432C",
"h@	c #225E2D",
"i@	c #20442A",
"j@	c #2A4F37",
"k@	c #3B674A",
"l@	c #6F8F79",
"m@	c #E5EBE7",
"n@	c #E0E5E2",
"o@	c #6A8272",
"p@	c #295136",
"q@	c #1D3F26",
"r@	c #1D5227",
"s@	c #1D5127",
"t@	c #1C4625",
"u@	c #35693E",
"v@	c #A4BBA8",
"w@	c #8E9C93",
"x@	c #1E4628",
"y@	c #215B2B",
"z@	c #246630",
"A@	c #256831",
"B@	c #276F33",
"C@	c #328240",
"D@	c #2F853E",
"E@	c #2D813C",
"F@	c #2E823D",
"G@	c #368C45",
"H@	c #377A45",
"I@	c #3F5948",
"J@	c #5F8467",
"K@	c #397243",
"L@	c #1F482A",
"M@	c #21582C",
"N@	c #215D2C",
"O@	c #20462B",
"P@	c #2B5038",
"Q@	c #3A6649",
"R@	c #74937F",
"S@	c #E2E8E4",
"T@	c #DFE4E0",
"U@	c #6E8676",
"V@	c #295036",
"W@	c #24462F",
"X@	c #235B2C",
"Y@	c #5B8562",
"Z@	c #A1B9A5",
"`@	c #FFFFFF",
" #	c #B3BBB5",
".#	c #3D5444",
"+#	c #1F4F29",
"@#	c #398847",
"##	c #2B7A39",
"$#	c #3A8648",
"%#	c #43734E",
"&#	c #405B49",
"*#	c #B4BEB7",
"=#	c #A3BEA8",
"-#	c #5E8D66",
";#	c #6C9673",
">#	c #276531",
",#	c #204A2A",
"'#	c #215C2C",
")#	c #2B5037",
"!#	c #396548",
"~#	c #789682",
"{#	c #E1E7E3",
"]#	c #6E8576",
"^#	c #274C33",
"/#	c #1D4026",
"(#	c #1D5027",
"_#	c #7E9F84",
":#	c #E5ECE6",
"<#	c #608867",
"[#	c #648C6B",
"}#	c #D8E1DA",
"|#	c #A7BCAA",
"1#	c #59775F",
"2#	c #39391D",
"3#	c #2D4F24",
"4#	c #22622E",
"5#	c #297738",
"6#	c #347B41",
"7#	c #709378",
"8#	c #77867C",
"9#	c #809485",
"0#	c #62906A",
"a#	c #E6EDE7",
"b#	c #80A587",
"c#	c #20592B",
"d#	c #1E4428",
"e#	c #366144",
"f#	c #ADBAB1",
"g#	c #21422C",
"h#	c #556A5C",
"i#	c #819A86",
"j#	c #82A288",
"k#	c #376A40",
"l#	c #7C9D82",
"m#	c #E0E8E1",
"n#	c #A9BFAD",
"o#	c #9CB4A0",
"p#	c #1E5828",
"q#	c #67210F",
"r#	c #624A38",
"s#	c #295A32",
"t#	c #1F5929",
"u#	c #2F703B",
"v#	c #68876E",
"w#	c #8C9890",
"x#	c #557E5D",
"y#	c #537C5A",
"z#	c #CCD7CE",
"A#	c #ABC3AF",
"B#	c #E0E9E2",
"C#	c #7EA385",
"D#	c #3B7344",
"E#	c #84A88A",
"F#	c #839E88",
"G#	c #566C5D",
"H#	c #274B33",
"I#	c #2E593D",
"J#	c #B1C2B7",
"K#	c #DDE3DF",
"L#	c #698171",
"M#	c #536E5C",
"N#	c #8F9D93",
"O#	c #CDD3CF",
"P#	c #56815E",
"Q#	c #D4DDD6",
"R#	c #5D8564",
"S#	c #433E1C",
"T#	c #6D615A",
"U#	c #5A6F5F",
"V#	c #526F58",
"W#	c #70321D",
"X#	c #245427",
"Y#	c #89391D",
"Z#	c #813F24",
"`#	c #5B7862",
" $	c #7F9684",
".$	c #246831",
"+$	c #578460",
"@$	c #CDD8CF",
"#$	c #598962",
"$$	c #567360",
"%$	c #6E8A77",
"&$	c #DEE6E1",
"*$	c #667F6F",
"=$	c #4F6958",
"-$	c #C8D0CB",
";$	c #B4C7B7",
">$	c #35683E",
",$	c #8BA991",
"'$	c #A9BCAC",
")$	c #266C33",
"!$	c #215D2B",
"~$	c #6C3B2D",
"{$	c #897373",
"]$	c #994B4B",
"^$	c #C90D0D",
"/$	c #9A3525",
"($	c #ED0A0A",
"_$	c #E61010",
":$	c #B24D4D",
"<$	c #A68888",
"[$	c #9E5F4C",
"}$	c #287336",
"|$	c #63976C",
"1$	c #D2DCD4",
"2$	c #8DAE93",
"3$	c #B5CBB9",
"4$	c #526E5C",
"5$	c #6C8875",
"6$	c #E5E9E6",
"7$	c #607567",
"8$	c #496251",
"9$	c #B8CABB",
"0$	c #DEE5DF",
"a$	c #6B9172",
"b$	c #287135",
"c$	c #494B23",
"d$	c #7B766E",
"e$	c #A81A1A",
"f$	c #CB0505",
"g$	c #F82C2C",
"h$	c #F51F1F",
"i$	c #DD2525",
"j$	c #8C817A",
"k$	c #594B25",
"l$	c #287236",
"m$	c #2C7F3B",
"n$	c #559761",
"o$	c #C6DACA",
"p$	c #B9CDBD",
"q$	c #ACBCB1",
"r$	c #879C8E",
"s$	c #E6EAE8",
"t$	c #B4BDB7",
"u$	c #CBD0CC",
"v$	c #9DB7A2",
"w$	c #3C6F46",
"x$	c #9C150F",
"y$	c #F01515",
"z$	c #F11515",
"A$	c #E80909",
"B$	c #BF0C0C",
"C$	c #853C30",
"D$	c #2D7F3C",
"E$	c #9EB9A3",
"F$	c #C9D2CC",
"G$	c #C2D0C4",
"H$	c #416F48",
"I$	c #1F5829",
"J$	c #961409",
"K$	c #F52222",
"L$	c #F42222",
"M$	c #BF0202",
"N$	c #B00000",
"O$	c #8C160A",
"P$	c #2C7B3A",
"Q$	c #276E33",
"R$	c #488352",
"S$	c #C6DDCA",
"T$	c #ABC0AE",
"U$	c #297537",
"V$	c #917616",
"W$	c #CA1407",
"X$	c #F62B2B",
"Y$	c #9B0F07",
"Z$	c #395125",
"`$	c #2A7938",
" %	c #B1D0B6",
".%	c #256A32",
"+%	c #8F9219",
"@%	c #CA1908",
"#%	c #D60C0C",
"$%	c #D40C0C",
"%%	c #AF1002",
"&%	c #907D17",
"*%	c #23632E",
"=%	c #2D803C",
"-%	c #40844C",
";%	c #C9DFCD",
">%	c #BFCDC2",
",%	c #2C5D34",
"'%	c #2A7A39",
")%	c #AC8D13",
"!%	c #CD0E07",
"~%	c #A98D12",
"{%	c #A59B15",
"]%	c #7B881C",
"^%	c #2C7E3B",
"/%	c #2F833E",
"(%	c #318840",
"_%	c #BED9C3",
":%	c #B7C7BA",
"<%	c #1C5125",
"[%	c #21602D",
"}%	c #459553",
"|%	c #357F42",
"1%	c #828D1C",
"2%	c #A79B14",
"3%	c #C4B318",
"4%	c #E1CE41",
"5%	c #C8B619",
"6%	c #A9A21A",
"7%	c #215023",
"8%	c #22632E",
"9%	c #2D793B",
"0%	c #3A9249",
"a%	c #3B934A",
"b%	c #358E45",
"c%	c #BFDBC4",
"d%	c #BBCABE",
"e%	c #24572D",
"f%	c #878F1B",
"g%	c #A89C14",
"h%	c #D4C721",
"i%	c #E3D943",
"j%	c #D6C820",
"k%	c #CAB819",
"l%	c #9FA01D",
"m%	c #378645",
"n%	c #459A54",
"o%	c #399049",
"p%	c #B7D6BC",
"q%	c #9BB5A0",
"r%	c #276E34",
"s%	c #7C891D",
"t%	c #A59A14",
"u%	c #C6B619",
"v%	c #91981E",
"w%	c #277035",
"x%	c #3F924E",
"y%	c #499D58",
"z%	c #378D46",
"A%	c #CADECE",
"B%	c #B9CBBC",
"C%	c #7D891C",
"D%	c #929318",
"E%	c #C8B719",
"F%	c #ADA71B",
"G%	c #939B1F",
"H%	c #1E5829",
"I%	c #23662F",
"J%	c #2B7B39",
"K%	c #3A8E49",
"L%	c #358B44",
"M%	c #CBE1CF",
"N%	c #9AB99F",
"O%	c #297436",
"P%	c #2A7838",
"Q%	c #23642F",
"R%	c #266E33",
"S%	c #B9AD19",
"T%	c #B8AC19",
"U%	c #2A7839",
"V%	c #CCE2D0",
"W%	c #D2DDD4",
"X%	c #427B4C",
"Y%	c #3C6E29",
"Z%	c #296029",
"`%	c #5C9B68",
" &	c #A49C1A",
".&	c #7F891E",
"+&	c #4F885A",
"@&	c #2F803E",
"#&	c #2C7539",
"$&	c #256C32",
"%&	c #4B8D57",
"&&	c #D6E6D9",
"*&	c #CACBCB",
"=&	c #9EB1A3",
"-&	c #52885C",
";&	c #4D8B59",
">&	c #43874F",
",&	c #607E23",
"'&	c #4F601C",
")&	c #476726",
"!&	c #C5C897",
"~&	c #B0A951",
"{&	c #527759",
"]&	c #ACB4A9",
"^&	c #55872D",
"/&	c #4D7022",
"(&	c #476A2C",
"_&	c #52865D",
":&	c #52965E",
"<&	c #7C9581",
"[&	c #D2D3D3",
"}&	c #B3B5B5",
"|&	c #DADBDB",
"1&	c #A9BBAC",
"2&	c #1B4F24",
"3&	c #6A8C71",
"4&	c #1C5225",
"5&	c #6D6318",
"6&	c #886814",
"7&	c #9C8815",
"8&	c #A89D74",
"9&	c #9E9470",
"0&	c #968A5C",
"a&	c #9F8C16",
"b&	c #948917",
"c&	c #727D38",
"d&	c #9DA2A1",
"e&	c #8DA993",
"f&	c #75907B",
"g&	c #BDBFBE",
"h&	c #CFD8D0",
"i&	c #527458",
"j&	c #194821",
"k&	c #5B7C62",
"l&	c #476F4E",
"m&	c #1D5226",
"n&	c #44581E",
"o&	c #A19467",
"p&	c #C1B07E",
"q&	c #C2B27F",
"r&	c #B2AC80",
"s&	c #6E8873",
"t&	c #5A705F",
"u&	c #517256",
"v&	c #BCD3C0",
"w&	c #D5E1D7",
"x&	c #5F8A66",
"y&	c #1C5126",
"z&	c #184620",
"A&	c #194922",
"B&	c #1C5226",
"C&	c #7A9D80",
"D&	c #E3EBE4",
"E&	c #6C9474",
"F&	c #1D5427",
"G&	c #1A4A22",
"H&	c #76AD80",
"I&	c #E5EFE7",
"J&	c #D8E1D9",
"K&	c #5E8965",
"L&	c #E3EAE4",
"M&	c #C8D8CB",
"N&	c #308740",
"O&	c #B9CCBC",
"P&	c #71A179",
"Q&	c #E5ECE7",
"R&	c #628E6A",
"S&	c #6DAB78",
"T&	c #E7F1E9",
"U&	c #BACEBE",
"V&	c #D5E1D8",
"W&	c #2B7A3A",
"X&	c #429751",
"Y&	c #DDEDE0",
"Z&	c #CAD0CC",
"`&	c #43684A",
" *	c #D5E0D7",
".*	c #205A29",
"+*	c #296433",
"@*	c #D7E1D9",
"#*	c #5D6761",
"$*	c #849688",
"%*	c #CEDDD1",
"&*	c #5B6F61",
"**	c #ADBBB0",
"=*	c #CEDCD0",
"-*	c #637768",
";*	c #BCC8BE",
">*	c #E0E2E1",
",*	c #556459",
"'*	c #738678",
")*	c #94A598",
"!*	c #37623F",
"~*	c #82A588",
"{*	c #CDDACF",
"]*	c #748778",
"^*	c #78867C",
"/*	c #E9EBE9",
"(*	c #E5E6E5",
"_*	c #9FA4A2",
":*	c #B1B4B3",
"<*	c #E8E9E9",
"[*	c #E5E6E6",
"}*	c #ECECEC",
"|*	c #B5B8B6",
"1*	c #98A19B",
"2*	c #ABADAD",
"                                                                                                                        ",
"                                                                                                                        ",
"                                                                                                                        ",
"                                                                      . +                                               ",
"                                                @ # $ % %       % % & * =                                               ",
"                                                - ; > , ' ) ! ~ { ] ^ /                                                 ",
"                                                ( _ : < [ } | 1 2 3 4 5                                                 ",
"                                                  6 7 8 9 0 a 9 b c d e                                                 ",
"                                                  f g h i j k l m n o p                                                 ",
"                                                q r s * t u v w x y z A                                                 ",
"                                                B C D E F G H I J F K L M                                               ",
"                                              N O P Q R S T U V W X Y Z `                                               ",
"                                   ...        +.@.#.$.%.&.*.=.-.;.>.,.'.).!.      ~.{.].                                ",
"                                ^./.(._.      :.<.[.}.|.1.2.3.4.5.6.7.8.9.0.    a.b.c.d.                                ",
"                              e.f.g.h.i.j.    +.k.l.m.n.o.p.q.r.s.t.u.v.w.0.  x.y.z.A.B.C.                              ",
"                            D.E.F.G.H.h.I.J.  K.L.M.N.O.P.Q.R.S.T.U.V.W.X.Y.J.Z.z.E.F.`. +.+                            ",
"                          ++@+#+$+%+&+*+h.=+-+;+>+,+'+)+!+~+{+'+]+^+/+(+_+:+<+z.[+A.z.z.}+|+1+                          ",
"                        2+#+#+3+4+5+6+7+$+h.8+9+0+a+b+c+b d+e+f+g+h+i+v j+k+z.l+[+A.m+n+z.o+p+q+                        ",
"                      r+s+t+u+v+w+x+6+y+z+3+A+B+C+D+,+E+F+k G+H+H+I+J+K+L+z.M+N+O+A.P+Q+z.R+S+T+U+                      ",
"                  V+W+X+@+Y+Z+E.`+x+6+y+ @.@3++@@@,+#@$@%@&@*@=@-@;@>@,@G.'@)@!@O+A.P+~@z.{@]@^@/@(@_@                  ",
"                :@<@S+F.[@}@ @|@ @v+1@y+ @2@3@4@9 5@M.6@7@8@=@9@;@0@a@b@'@6+c@!@d@e@f@!@g@!@h@i@j@k@l@m@                ",
"              n@o@p@#+q@r@ @ @y+ @ @s@t@u@v@w@x@y@5@z@A@B@C@D@G+E@F@G@H@&+I@J@K@!@!@!@!@L@M@!@N@O@P@Q@R@S@              ",
"            T@U@V@W@q@s@ @ @ @X@C+Y@ @u@Z@`@ #.#+#,+0 b A@@###J+J+H+$#%#&#*#  =#K@!@-#;#>#,#!@!@'#O@)#!#~#{#            ",
"          T@]#^#W@/#(# @ @ @ @_#  :#<#[#`@}#|#1#2#3#k.4#b 6@a 5#5#6#7#8#9#      f 0#a#  b#!@!@!@!@c#d#P@e#~#{#          ",
"          f#g.g#h#i#j#k# @ @l#      m#n#`@o#p#@@q#r#s#t#>+A@6@i+u#v#w#x#y#z#    A#B#      C#!@!@D#E#F#G#H#I#J#          ",
"        K#L#M#N#O#    P# @ @            Q#R#,+!@S#T#U#V#W#X#Y#Z#`#I  $d+.$+$@$              !@!@#$    O#N#$$%$&$        ",
"       .*$=$-$        ;$>$,$            '$a+4#)$!$~${$]$^$/$($_$:$<$[$}$I+|$1$              2$K@3$        -$4$5$S@      ",
"    6$7$8$/             9$              0$a$4#}$b$c$d$e$f$g$h$($i$j$k$l$m$n$o$                p$            / q$r$s$    ",
"      t$u$                                v${@g+k 6@w$x$f$y$z$A$B$C$<.]+D$f+E$                                  F$      ",
"                                        G$H$I$M.e+a M.J$f$K$L$M$N$O$~+b P$Q$R$S$                                        ",
"                                        T$Z+p##@U$)$A@V$W$g$X$N$Y$Z$t#5@`$Q$g+ %                                        ",
"                                        T$ @@.i+f+.%A@+%@%#%$%%%&%*%@.a k =%F+-%;%                                      ",
"                                      >%,%~+0 `$'%d+6@+%)%!%!%~%{%]%0 `$^%/%(%=@_%                                      ",
"                                      :%<%L.L.[%}%|%1%2%3%4%4%5%6%7%8%<.9%0%a%b%c%                                      ",
"                                      d%e% @D+i+b$$@f%g%g%h%i%j%k%l%'+a f+m%n%o%p%                                      ",
"                                        q%~+,+f+J+r%s%t%g%5%j%k%u%v%{@w%m$x%y%z%D$A%                                    ",
"                                      B%D+b d+w%J+h+t#C%D%u%E%F%G%H%I%f+J%)$7@K%L%M%                                    ",
"                                      N%O%P%Q%0 ##a !@R%a S%T%H%U$U%a 8%A@{@8%d+F@V%                                    ",
"                                    W%X%^%b t#R%k Y%Z%$@`% &.&+&=%6@a+h+@&#&4#$&%&&&                                    ",
"                                    *&=&-& @0 ;&>&,&'&)&!&~&{&]&^&/&(&_&:&P%a 6@<&[&                                    ",
"                                    }&|&1&2&t#K 3&4&5&6&7&8&9&0&a&b&c&d&e&5@a }$f&g&                                    ",
"                                        h&i&j&k&l&m&n&o&p&q&q&q&q&r&s&t&u&)+~+i+v&                                      ",
"                                        w&x&y&z&A&B&>+C&          D&E&F&j&G&H%U$H&I&                                    ",
"                                      J&K&#@L.Z+ @9 4# @L&        M&0 a [%,+b J+N&M%                                    ",
"                                      O&k.A@<.{@8%0 g+U$P&      Q&R&h+O%F+f+g+U$N&S&T&                                  ",
"                                      U&0 #@<.5@r%M.g+^%k       V&4#h+B@M.f+)$6@W&X&Y&                                  ",
"                                      Z&`&5@*%5@F+!@8%)$~+       *.*#@b 8%d+,+D+h++*@*                                  ",
"                                      . #*$*%*$*&***=*-*;*      >*,*'*%*)*!*~*{*]*^*/*                                  ",
"                                        (*    _*:*    <*          [*}*  |*1*    }*2*}*                                  ",
"                                                                                                                        ",
"                                                                                                                        "};
