/* XPM */
static char *paw_down_left[] = {
"21 14 16 1",
"  c #000000",
". c #100f0e",
"X c #171616",
"o c #211e1d",
"O c #262523",
"+ c #302e28",
"@ c #32302b",
"# c #373736",
"$ c #45413f",
"% c #484644",
"& c #55544f",
"* c #595755",
"= c #63615d",
"- c #6a6765",
"; c #787774",
": c None",
":::::::::::::::::::::",
":::::::::::::%**:::::",
"::::::::::::#;::;::::",
":::::::::::+-:::;::::",
"::O@::::::::::.X%-:::",
"::#=:::::::::.   $-::",
":&;::XO::::::O..  %-:",
":*::  X:::::::::.  #:",
":*:%. X::::*::::O  O:",
":=;;O  oX  +::::  .#:",
"::::-O     X:::.   ::",
":::::-O    ::::*X.:::",
"::::::-OX@:::::::::::",
":::::::::::::::::::::"
};
