/* XPM */
static char *paw_right_left[] = {
"16 15 12 1",
"  c #000000",
". c #1b1a1a",
"X c #242321",
"o c #332e2d",
"O c #353432",
"+ c #403f3a",
"@ c #4a4947",
"# c #5a5854",
"$ c #696664",
"% c #777672",
"& c #908f8d",
"* c None",
"*******#%*******",
"*****+#**%$$$$**",
"******%*@     X*",
"*****X&*       O",
"*****X#*  .*o   ",
"********OX***   ",
"*************  .",
"**************#*",
"*********#******",
"********  .*****",
"***OX***   *****",
"X#*  .*o   *****",
"X&*       O*****",
"*%*@     X******",
"+#**%$$$$*******"
};
