/* XPM */
static char * troll2_xpm[] = {
"48 60 742 2",
"  	c None",
". 	c #FDFDE9",
"+ 	c #F8F8A7",
"@ 	c #FBFBCA",
"# 	c #DFDFAB",
"$ 	c #F6F6E9",
"% 	c #E9E9C7",
"& 	c #EEEE64",
"* 	c #F5F58A",
"= 	c #FDFDE8",
"- 	c #B8B82C",
"; 	c #F1F14F",
"> 	c #FCFCDC",
", 	c #E1E125",
"' 	c #FDFDE3",
") 	c #BBBB4F",
"! 	c #EEEEB9",
"~ 	c #C4C472",
"{ 	c #E1E1B9",
"] 	c #FAFAE5",
"^ 	c #F7F7D3",
"/ 	c #BCBC46",
"( 	c #DEDE3B",
"_ 	c #FCFCD6",
": 	c #DDDE06",
"< 	c #B6C3AA",
"[ 	c #C5CEAA",
"} 	c #B5B54C",
"| 	c #B5C67B",
"1 	c #F8F8D7",
"2 	c #E2E280",
"3 	c #F3F3D3",
"4 	c #EDEDD3",
"5 	c #B0B000",
"6 	c #EAEA42",
"7 	c #B5B528",
"8 	c #D1D200",
"9 	c #728C00",
"0 	c #526E00",
"a 	c #A0A000",
"b 	c #6A9F08",
"c 	c #9FC57C",
"d 	c #F4F4D6",
"e 	c #C8C872",
"f 	c #DADA55",
"g 	c #A68A73",
"h 	c #A4A400",
"i 	c #C5C500",
"j 	c #A5A500",
"k 	c #CACA00",
"l 	c #D1D400",
"m 	c #7E8800",
"n 	c #B2B200",
"o 	c #6FA406",
"p 	c #4C8E0E",
"q 	c #80B055",
"r 	c #B2CB9B",
"s 	c #EEE9E9",
"t 	c #8A6465",
"u 	c #956B6E",
"v 	c #906657",
"w 	c #9B940D",
"x 	c #918A0B",
"y 	c #969600",
"z 	c #9A9A00",
"A 	c #C7C700",
"B 	c #C3C300",
"C 	c #D8D800",
"D 	c #979700",
"E 	c #B9B900",
"F 	c #6A9A00",
"G 	c #589F12",
"H 	c #428B00",
"I 	c #4E8C12",
"J 	c #BED1A7",
"K 	c #987B7D",
"L 	c #6E4243",
"M 	c #814E51",
"N 	c #815255",
"O 	c #8D6363",
"P 	c #875D4F",
"Q 	c #918A0C",
"R 	c #818700",
"S 	c #687F00",
"T 	c #5B7700",
"U 	c #848E00",
"V 	c #C1CA00",
"W 	c #9F9F00",
"X 	c #999900",
"Y 	c #BAC100",
"Z 	c #699700",
"` 	c #558B0A",
" .	c #63A00F",
"..	c #4A8A00",
"+.	c #9EC17D",
"@.	c #A58989",
"#.	c #7B4A4D",
"$.	c #73494C",
"%.	c #82645F",
"&.	c #6A6449",
"*.	c #8F8F8F",
"=.	c #939332",
"-.	c #949400",
";.	c #245001",
">.	c #458804",
",.	c #438602",
"'.	c #367000",
").	c #3D7400",
"!.	c #A4BA00",
"~.	c #8C9A00",
"{.	c #819C00",
"].	c #5D8F00",
"^.	c #8E9300",
"/.	c #8D9300",
"(.	c #628F00",
"_.	c #428700",
":.	c #D1E1C1",
"<.	c #A18587",
"[.	c #764749",
"}.	c #7D5C5E",
"|.	c #515B2E",
"1.	c #597938",
"2.	c #477716",
"3.	c #638046",
"4.	c #838D18",
"5.	c #2C5B01",
"6.	c #3C7607",
"7.	c #428303",
"8.	c #366E00",
"9.	c #397100",
"0.	c #3C7D00",
"a.	c #528900",
"b.	c #829200",
"c.	c #7D7F00",
"d.	c #689108",
"e.	c #448707",
"f.	c #3B7A00",
"g.	c #EFEBEB",
"h.	c #704D4E",
"i.	c #7D6D6E",
"j.	c #5C6F43",
"k.	c #396F09",
"l.	c #3A6E00",
"m.	c #3A6F00",
"n.	c #3A7300",
"o.	c #758900",
"p.	c #556B00",
"q.	c #254A00",
"r.	c #2D5B00",
"s.	c #336800",
"t.	c #316500",
"u.	c #396D00",
"v.	c #407D00",
"w.	c #3E7D00",
"x.	c #4C7E00",
"y.	c #5D8D00",
"z.	c #4E7C00",
"A.	c #458605",
"B.	c #2F5C04",
"C.	c #2D5800",
"D.	c #D1E0C1",
"E.	c #86696C",
"F.	c #817C7C",
"G.	c #838383",
"H.	c #7B8176",
"I.	c #76806E",
"J.	c #748264",
"K.	c #336B00",
"L.	c #336C00",
"M.	c #728600",
"N.	c #3A5C00",
"O.	c #274F00",
"P.	c #254F00",
"Q.	c #2A5800",
"R.	c #2F6000",
"S.	c #448009",
"T.	c #387100",
"U.	c #7AB11D",
"V.	c #5FA10F",
"W.	c #295900",
"X.	c #214200",
"Y.	c #0A1700",
"Z.	c #D0DEC1",
"`.	c #8C8C8C",
" +	c #898989",
".+	c #818181",
"++	c #7D7D7D",
"@+	c #888888",
"#+	c #858585",
"$+	c #8A8A8A",
"%+	c #517231",
"&+	c #295400",
"*+	c #295200",
"=+	c #295A00",
"-+	c #306200",
";+	c #356500",
">+	c #316200",
",+	c #2C5A00",
"'+	c #346D00",
")+	c #0F2100",
"!+	c #1E4000",
"~+	c #97B57D",
"{+	c #D1D2CD",
"]+	c #DFDFDF",
"^+	c #8E8E8E",
"/+	c #767676",
"(+	c #878787",
"_+	c #7F7F7F",
":+	c #848484",
"<+	c #959595",
"[+	c #70865B",
"}+	c #2B530A",
"|+	c #295600",
"1+	c #112600",
"2+	c #0C1A00",
"3+	c #0D1D00",
"4+	c #050D00",
"5+	c #1A3300",
"6+	c #428100",
"7+	c #3B7600",
"8+	c #306A00",
"9+	c #B0BFA4",
"0+	c #B1B0B0",
"a+	c #91A580",
"b+	c #98AF80",
"c+	c #6C8B4F",
"d+	c #57773A",
"e+	c #527335",
"f+	c #757575",
"g+	c #8B8B8B",
"h+	c #979797",
"i+	c #949494",
"j+	c #969696",
"k+	c #A4A4A4",
"l+	c #39581E",
"m+	c #2D5E00",
"n+	c #2C5E00",
"o+	c #1D3E00",
"p+	c #1F4000",
"q+	c #67735C",
"r+	c #457C0D",
"s+	c #3F7B00",
"t+	c #336F00",
"u+	c #1D5A00",
"v+	c #86937E",
"w+	c #E0DFDF",
"x+	c #7A9361",
"y+	c #275000",
"z+	c #2B5900",
"A+	c #356E00",
"B+	c #3E7E00",
"C+	c #498A0C",
"D+	c #668A46",
"E+	c #919191",
"F+	c #B2B1B1",
"G+	c #9D9D9D",
"H+	c #A1A1A1",
"I+	c #A5A5A5",
"J+	c #AAAAAA",
"K+	c #868F7D",
"L+	c #254E00",
"M+	c #295300",
"N+	c #295800",
"O+	c #2D5F00",
"P+	c #326900",
"Q+	c #80A45E",
"R+	c #8EAF6C",
"S+	c #417A09",
"T+	c #367200",
"U+	c #256300",
"V+	c #1E5D00",
"W+	c #487631",
"X+	c #D2D3CF",
"Y+	c #7E9765",
"Z+	c #2D5504",
"`+	c #2C5800",
" @	c #366C00",
".@	c #408000",
"+@	c #438B02",
"@@	c #458C06",
"#@	c #769857",
"$@	c #B0AFAF",
"%@	c #828282",
"&@	c #ADADAD",
"*@	c #A9A9A9",
"=@	c #ACACAC",
"-@	c #224B00",
";@	c #6E9051",
">@	c #91B077",
",@	c #3C730C",
"'@	c #246200",
")@	c #226000",
"!@	c #E7EBE5",
"~@	c #859C72",
"{@	c #407900",
"]@	c #458C02",
"^@	c #569E11",
"/@	c #458F02",
"(@	c #92AC77",
"_@	c #BEBBBB",
":@	c #ABABAB",
"<@	c #A0A0A0",
"[@	c #A4A99C",
"}@	c #285100",
"|@	c #264E00",
"1@	c #2E511E",
"2@	c #A4A3A3",
"3@	c #7D986E",
"4@	c #28640C",
"5@	c #216001",
"6@	c #316D06",
"7@	c #367404",
"8@	c #256400",
"9@	c #879E72",
"0@	c #356800",
"a@	c #3F7700",
"b@	c #438401",
"c@	c #579910",
"d@	c #68AC18",
"e@	c #7BA552",
"f@	c #A0A49B",
"g@	c #A7A7A7",
"h@	c #A2A2A2",
"i@	c #A3A3A3",
"j@	c #9DA19A",
"k@	c #3F5B2A",
"l@	c #204600",
"m@	c #254D00",
"n@	c #1F4400",
"o@	c #274412",
"p@	c #7E8478",
"q@	c #D0CECE",
"r@	c #578441",
"s@	c #1F5D00",
"t@	c #2D6902",
"u@	c #5B9417",
"v@	c #4F8512",
"w@	c #2F6200",
"x@	c #859B72",
"y@	c #316800",
"z@	c #3E7700",
"A@	c #579A0C",
"B@	c #8FCA2B",
"C@	c #5FA410",
"D@	c #6C9645",
"E@	c #AEADAB",
"F@	c #9C9C9C",
"G@	c #A8A8A8",
"H@	c #A0A49A",
"I@	c #5E6F50",
"J@	c #345318",
"K@	c #285000",
"L@	c #324F19",
"M@	c #5E7253",
"N@	c #31601A",
"O@	c #1C5300",
"P@	c #205600",
"Q@	c #265E00",
"R@	c #316400",
"S@	c #7B9461",
"T@	c #2A5B00",
"U@	c #3A7200",
"V@	c #49870C",
"W@	c #498A08",
"X@	c #63A515",
"Y@	c #599F0E",
"Z@	c #428600",
"`@	c #A3A5A1",
" #	c #989898",
".#	c #A6A6A6",
"+#	c #909090",
"@#	c #6C7364",
"##	c #2C510B",
"$#	c #234F00",
"%#	c #245400",
"&#	c #255600",
"*#	c #316300",
"=#	c #CEDBC1",
"-#	c #3C7602",
";#	c #3E7D02",
">#	c #448302",
",#	c #448701",
"'#	c #3D7E00",
")#	c #888B86",
"!#	c #9B9B9B",
"~#	c #62695C",
"{#	c #244D00",
"]#	c #96B07D",
"^#	c #99A88A",
"/#	c #30550C",
"(#	c #295500",
"_#	c #306000",
":#	c #376A00",
"<#	c #386D00",
"[#	c #356A00",
"}#	c #387800",
"|#	c #A0A29E",
"1#	c #9E9E9E",
"2#	c #686868",
"3#	c #6D6D6D",
"4#	c #736E6C",
"5#	c #2E4C0B",
"6#	c #234D00",
"7#	c #214900",
"8#	c #315A0A",
"9#	c #96AE82",
"0#	c #5E7C46",
"a#	c #2E6000",
"b#	c #406D16",
"c#	c #898B88",
"d#	c #7C7C7C",
"e#	c #7A7A7A",
"f#	c #737373",
"g#	c #6E6E6E",
"h#	c #666666",
"i#	c #6C6C6C",
"j#	c #6D464A",
"k#	c #6F5140",
"l#	c #285600",
"m#	c #214500",
"n#	c #214300",
"o#	c #57763E",
"p#	c #2B5C00",
"q#	c #376D00",
"r#	c #4D5941",
"s#	c #616161",
"t#	c #5F5F5F",
"u#	c #5A5A5A",
"v#	c #595959",
"w#	c #676767",
"x#	c #6B6B6B",
"y#	c #776667",
"z#	c #7E5052",
"A#	c #545D20",
"B#	c #316600",
"C#	c #285700",
"D#	c #366409",
"E#	c #ABBA9E",
"F#	c #4B4D36",
"G#	c #525152",
"H#	c #555555",
"I#	c #626262",
"J#	c #585858",
"K#	c #696969",
"L#	c #756365",
"M#	c #7F5155",
"N#	c #4D5522",
"O#	c #387002",
"P#	c #458505",
"Q#	c #478708",
"R#	c #78A723",
"S#	c #569116",
"T#	c #5E7746",
"U#	c #224A00",
"V#	c #376F00",
"W#	c #4D563E",
"X#	c #545454",
"Y#	c #5C5C5C",
"Z#	c #606060",
"`#	c #716364",
" $	c #7F5054",
".$	c #4E5022",
"+$	c #2B5902",
"@$	c #3C7901",
"#$	c #428002",
"$$	c #4E8B09",
"%$	c #4B8213",
"&$	c #798D65",
"*$	c #254C04",
"=$	c #234C00",
"-$	c #316700",
";$	c #377500",
">$	c #505E44",
",$	c #636363",
"'$	c #605052",
")$	c #7C514C",
"!$	c #4D5621",
"~$	c #285300",
"{$	c #437512",
"]$	c #C9D3C1",
"^$	c #305612",
"/$	c #5A684E",
"($	c #535353",
"_$	c #605757",
":$	c #6C5B5C",
"<$	c #835356",
"[$	c #747749",
"}$	c #316900",
"|$	c #6F8C58",
"1$	c #617F46",
"2$	c #214A00",
"3$	c #3E6819",
"4$	c #50564A",
"5$	c #514949",
"6$	c #565050",
"7$	c #614C4D",
"8$	c #6F494B",
"9$	c #8B7678",
"0$	c #83986C",
"a$	c #428200",
"b$	c #346900",
"c$	c #EAF0E5",
"d$	c #648246",
"e$	c #4D633A",
"f$	c #777777",
"g$	c #867D7E",
"h$	c #614143",
"i$	c #714446",
"j$	c #754648",
"k$	c #917D7E",
"l$	c #83986E",
"m$	c #3F7D00",
"n$	c #2B5A00",
"o$	c #2D5D00",
"p$	c #EBF0E5",
"q$	c #2B5700",
"r$	c #50663D",
"s$	c #9A9A9A",
"t$	c #795555",
"u$	c #7F4E50",
"v$	c #7B4D4D",
"w$	c #756162",
"x$	c #888686",
"y$	c #989C95",
"z$	c #66883F",
"A$	c #285200",
"B$	c #386F00",
"C$	c #EBF1E5",
"D$	c #2B5800",
"E$	c #356700",
"F$	c #6D5F38",
"G$	c #8D585A",
"H$	c #8F5E60",
"I$	c #7F575B",
"J$	c #8A797A",
"K$	c #769354",
"L$	c #376E00",
"M$	c #4F7F1F",
"N$	c #EEF3E9",
"O$	c #2A5A00",
"P$	c #456119",
"Q$	c #534B43",
"R$	c #7A7979",
"S$	c #ABAAAA",
"T$	c #84986D",
"U$	c #3C6A10",
"V$	c #2F5C00",
"W$	c #C4D1B9",
"X$	c #204700",
"Y$	c #254B00",
"Z$	c #3B6509",
"`$	c #5D9812",
" %	c #428400",
".%	c #59654B",
"+%	c #939393",
"@%	c #9F9F9F",
"#%	c #ADACAC",
"$%	c #557733",
"%%	c #3B7700",
"&%	c #346700",
"*%	c #C7D6B9",
"=%	c #335912",
"-%	c #224800",
";%	c #234700",
">%	c #458106",
",%	c #56980C",
"'%	c #3D7D00",
")%	c #477718",
"!%	c #80827F",
"~%	c #A3A2A2",
"{%	c #A9A8A8",
"]%	c #B7B6B6",
"^%	c #808E72",
"/%	c #628A38",
"(%	c #417012",
"_%	c #70A23E",
":%	c #385D1A",
"<%	c #2D5C00",
"[%	c #2F6500",
"}%	c #346E00",
"|%	c #3A7400",
"1%	c #407B00",
"2%	c #6D6F6B",
"3%	c #ACABAB",
"4%	c #919090",
"5%	c #3F6815",
"6%	c #477813",
"7%	c #3E7F00",
"8%	c #366D00",
"9%	c #3C7B00",
"0%	c #427F00",
"a%	c #2E6100",
"b%	c #E9EDE5",
"c%	c #234600",
"d%	c #61695B",
"e%	c #989B94",
"f%	c #4F6C32",
"g%	c #2C5D00",
"h%	c #3E8000",
"i%	c #3A7700",
"j%	c #3F7600",
"k%	c #4E8117",
"l%	c #D2DFC4",
"m%	c #597440",
"n%	c #2A5400",
"o%	c #356B00",
"p%	c #463B0A",
"q%	c #626F55",
"r%	c #55703C",
"s%	c #2A5C00",
"t%	c #428300",
"u%	c #2A5903",
"v%	c #769755",
"w%	c #749555",
"x%	c #BFCEB3",
"y%	c #264F00",
"z%	c #387500",
"A%	c #407A00",
"B%	c #780F00",
"C%	c #2A5700",
"D%	c #306400",
"E%	c #2B5F00",
"F%	c #316B00",
"G%	c #810800",
"H%	c #512700",
"I%	c #244700",
"J%	c #274E00",
"K%	c #E2E9DC",
"L%	c #408200",
"M%	c #556000",
"N%	c #A14542",
"O%	c #81936E",
"P%	c #264C00",
"Q%	c #3A7600",
"R%	c #E4EDDC",
"S%	c #2C5F00",
"T%	c #3A7900",
"U%	c #497200",
"V%	c #A14F4F",
"W%	c #869C74",
"X%	c #2E5607",
"Y%	c #2C5B00",
"Z%	c #387400",
"`%	c #56901D",
" &	c #E9F1E2",
".&	c #284F00",
"+&	c #275300",
"@&	c #3F7F00",
"#&	c #4C6F00",
"$&	c #AD4F4F",
"%&	c #89A072",
"&&	c #2C5C00",
"*&	c #547F2C",
"=&	c #D3DDCA",
"-&	c #2E5F00",
";&	c #2E5D00",
">&	c #3C7600",
",&	c #507812",
"'&	c #D6A7A7",
")&	c #90A17F",
"!&	c #96AD7F",
"~&	c #D1DFC1",
"{&	c #386B00",
"]&	c #427D00",
"^&	c #408100",
"/&	c #558723",
"(&	c #224C00",
"_&	c #386C00",
":&	c #5B9223",
"<&	c #D3DBCA",
"[&	c #224400",
"}&	c #224500",
"|&	c #244C00",
"1&	c #2E6400",
"2&	c #3C7500",
"3&	c #3D5F1A",
"4&	c #295700",
"5&	c #8BAC6A",
"6&	c #94A584",
"7&	c #214700",
"8&	c #9C9C81",
"9&	c #481A00",
"0&	c #471700",
"a&	c #591600",
"b&	c #512300",
"c&	c #1C4100",
"d&	c #4C2A00",
"e&	c #681D00",
"f&	c #B86B6A",
"g&	c #E0C1C1",
"h&	c #700000",
"i&	c #5A0000",
"j&	c #670000",
"k&	c #770300",
"l&	c #750A00",
"m&	c #810400",
"n&	c #920000",
"o&	c #970606",
"p&	c #A42B2B",
"q&	c #CC9191",
"r&	c #AE8282",
"s&	c #610A0A",
"t&	c #630000",
"u&	c #720000",
"v&	c #7D0000",
"w&	c #880000",
"x&	c #970000",
"y&	c #C16767",
"z&	c #7F3E3E",
"A&	c #5B0000",
"B&	c #680000",
"C&	c #7A0000",
"D&	c #850000",
"E&	c #DBA7A7",
"F&	c #BB9E9E",
"G&	c #600909",
"H&	c #620000",
"I&	c #6C0000",
"J&	c #770000",
"K&	c #7E0000",
"L&	c #800000",
"M&	c #900000",
"N&	c #930000",
"O&	c #B95454",
"P&	c #F6E9E9",
"Q&	c #C09E9E",
"R&	c #550000",
"S&	c #600000",
"T&	c #690000",
"U&	c #750000",
"V&	c #7B0000",
"W&	c #B13E40",
"X&	c #F4E3E4",
"Y&	c #E2D4D4",
"Z&	c #E4D4D4",
"`&	c #895151",
" *	c #510000",
".*	c #530000",
"+*	c #570000",
"@*	c #650000",
"#*	c #6D0F10",
"$*	c #E6D7D7",
"                                                    .                                           ",
"                                                    + @                                         ",
"                                            # $                                                 ",
"                                            % &       * =                                       ",
"                                              - ;     ; >                                       ",
"                                                , '   ) !     ~ {                               ",
"                                        ] ^     / ( _ ) : < [ } |                               ",
"                                        1 2 3   4 5 6 7 8 9 0 a b c                             ",
"                                          d e f g h i j k l m n o p q r                         ",
"                                      s t u v w x y z A B C D E F G H I J                       ",
"                                  K L M N O P Q R S T U V W X Y Z `  ...+.                      ",
"                                @.#.$.%.&.*.=.-.;.>.,.'.).!.~.{.].^./.(._.:.                    ",
"                              <.[.}.|.1.2.3.4.-.5.6.7.8.9.0.a.b.-.c.d.e.f.:.                    ",
"                            g.h.i.j.k.l.m.n.o.p.q.r.s.t.u.v.w.x.y.z.A.B.C.D.                    ",
"                            E.F.G.H.I.J.K.L.M.N.O.P.Q.R.K.S.T.U.V.W.X.Y.q.Z.                    ",
"                            `. +.+++@+#+ +$+%+&+*+&+W.=+-+;+>+'.,+'+)+!+~+{+                    ",
"                        ]+^+/+(+_+:+ +(+`.<+[+}+*+*+|+=+R.1+2+3+4+5+6+7+8+9+0+                  ",
"                    a+b+c+d+e+(+f+g+h+i+<+j+k+l+*+*+|+=+m+n+o+p+q+r+s+t+u+v+w+                  ",
"                  x+y+z+A+B+C+D+E+k+F+G+H+I+J+K+L+*+M+N+=+O+P+Q+R+S+T+U+V+W+X+                  ",
"                Y+Z+*+`+ @.@+@@@#@J+$@E+%@&@*@=@-@*+*+M+&+=+;@>@,@'@)@V+V+V+!@                  ",
"              ~@y+*+&+n+ @{@]@^@/@(@_@&@=@&@:@<@[@-@}@*+|@1@2@3@4@V+5@6@7@8@                    ",
"              9@}@*+|+n+0@a@b@c@d@e@f@F+g@&@h@i@j@k@l@m@n@o@p@q@r@s@t@u@v@w@                    ",
"              x@y+M+=+n+y@z@A.A@B@C@D@E@F@&@g@G@0+H@I@J@K@l@L@M@N@O@P@Q@R@S@                    ",
"              x@y+*+|+T@w@U@V@W@X@Y@Z@`@ #&@.#:@h@`.+#@###*+O.-@$#%#&#*#s.=#                    ",
"              x@y+*+&+=+T@*#-#;#>#,#'#)#h+J+<@J+G@!#i@g+~#{#*+L+y+&+=+O+]#                      ",
"              ^#/#*+*+(#W.W._#:#<#[#}#|#g@G@.#1#E+++2#3#4#5#6#7#7#7#8#9#                        ",
"                0#}@*+*+*+*+M+T@a#:#b#c#d#e#f#g#h#f+f#i#j#k#l#m#n#n#o#                          ",
"                0#L+*+*+*+*+M+p#*#q#r#s#t#u#v#u#w#x#f#y#z#A#B#C#n#D#E#                          ",
"                0#-@*+*+*+*+M+p#*#q#F#G#H#h#I#J#K#h#L#M#N#O#P#Q#R#S#                            ",
"                T#U#*+*+*+*+M+p#B#V#W#X#Y#Z#s#X#w#`# $.$+$s.@$#$$$%$                            ",
"                &$*$=$*+*+*+M+p#-$;$>$X#J#Z#t#,$'$)$!$~$*+M+W.T@w@{$                            ",
"                ]$^$=$*+*+*+M+p#-$;$/$Y#($H#_$:$<$[$_.R.*+*+(#O+}$|$                            ",
"                1$2$=$*+*+*+M+p#-$3$4$5$6$7$8$[.9$0$a$p#}@*+(#O+b$c$                            ",
"                d$-@y+*+*+*+*+z+-$e$f$g$h$i$j$k$e#l$m$n$=$*+M+o$<#p$                            ",
"                d$}@*+*+*+*+*+q$-$r$s$t$u$v$w$x$<+y$z$-+A$*+*+r.B$C$                            ",
"                d$*+}@*+*+*+*+D$E$F$G$H$I$J$=@H+K#G+K$R@L$*+*+r.M$N$                            ",
"                d$*+{#y+*+*+M+O$[#P$Q$R$G@h@*@&@S$G+T$U$B$V$|@~$W$                              ",
"                1$*+|@X$L+L+Y$Z$`$ %.%s$:++%@%J+#% +I+$%9.%%t.&%*%                              ",
"                ]$=%K@-%m#m#;%>%,%'%)%!%`.~%{%]%@+^%/%(%9.0. % %_%                              ",
"                  :%{#}@~$<%[%}%V#|%1%2%:@3%4%{%5%6%7%8%9.9%0% %a%b%                            ",
"                    c%}@*+*+M+n+[#n.{@d%@%e%f%W.g%9.h%T.L$i%j%k%l%                              ",
"                    m%=$}@*+n%*#o%|%{@p%q%r%*+W.s%}%w.t%u%v%w%x%                                ",
"                    ]$2$y%*+M+a%L.z%A%B%L+y+*+(#C%D%n.w.~@                                      ",
"                    ]$2$y%*+M+E%F%;$.@G%H%I%J%*+*+Q.D%-+K%                                      ",
"                    ]${#}@*+M+E%F%;$L%M%N%O%P%*+O$q$Q.Q%R%                                      ",
"                    *+M+M+*+&+S%T%'#L%U%V%  W%X%*+Y%Z%`% &                                      ",
"                    *+(#z+.&+& @ %m$@&#&$&    %&|@&&*&=&                                        ",
"                    *+(#-&;&-+6+ %6+>&,&'&      )&!&~&                                          ",
"                    M+N+-&{&f.]&^&8.9%/&                                                        ",
"                    (&P.Q.-$l.9.D%s%_&:&                                                        ",
"                  <&*+P%[&[&}&|&=+1&2&:&                                                        ",
"                  3&y+*+{#L+y+4&4&g%1&5&                                                        ",
"                  6&L+y+{#7&7&L+y+&+W.                                                          ",
"                    8&9&9&0&a&b&c&d&e&f&                                                        ",
"                    g&h&i&i&j&k&l&m&n&o&p&q&                                                    ",
"                        r&s&t&u&v&w&n&x&x&y&                                                    ",
"                          z&A&B&C&D&w&n&x&x&E&                                                  ",
"                          F&G&H&I&J&K&L&M&N&O&P&                                                ",
"                            Q&R&S&j&T&U&V&w&W&X&                                                ",
"                              Y&Z&`& *.*+*@*#*$*                                                "};
