/* XPM */
static char * troll3_xpm[] = {
"48 60 829 2",
"  	c None",
". 	c #FCFCDA",
"+ 	c #F4F474",
"@ 	c #E9EEDA",
"# 	c #ABBE65",
"$ 	c #FDFDEA",
"% 	c #F8F8EC",
"& 	c #F9F9B9",
"* 	c #FFFFFF",
"= 	c #EFEFA7",
"- 	c #E5E558",
"; 	c #FDFDE5",
"> 	c #C2D0B6",
", 	c #BACCAA",
"' 	c #AFBB6A",
") 	c #ADB75E",
"! 	c #ECF1E8",
"~ 	c #CACA2C",
"{ 	c #F6F695",
"] 	c #D4DAA7",
"^ 	c #B8C000",
"/ 	c #AFBD58",
"( 	c #386512",
"_ 	c #316500",
": 	c #587C00",
"< 	c #628100",
"[ 	c #80A75C",
"} 	c #A3BE88",
"| 	c #E1E1B9",
"1 	c #C0C00F",
"2 	c #E4E872",
"3 	c #C1C752",
"4 	c #ADB700",
"5 	c #3B6700",
"6 	c #316400",
"7 	c #608100",
"8 	c #6D8D00",
"9 	c #3E8100",
"0 	c #448606",
"a 	c #9FBC7E",
"b 	c #C0B0B1",
"c 	c #8D6569",
"d 	c #956B6E",
"e 	c #7F7F00",
"f 	c #DEDE0F",
"g 	c #C3C315",
"h 	c #D2D200",
"i 	c #CDD400",
"j 	c #9CA400",
"k 	c #989D00",
"l 	c #739200",
"m 	c #316200",
"n 	c #407B00",
"o 	c #4A8D0A",
"p 	c #A3C382",
"q 	c #F0EBEB",
"r 	c #E7DFDF",
"s 	c #764A4B",
"t 	c #824F53",
"u 	c #814E52",
"v 	c #815254",
"w 	c #885E5E",
"x 	c #8E6C3E",
"y 	c #949400",
"z 	c #819000",
"A 	c #C1CA00",
"B 	c #C7E62C",
"C 	c #C8C800",
"D 	c #A2A200",
"E 	c #7B8E00",
"F 	c #3F6E00",
"G 	c #428800",
"H 	c #5D8A00",
"I 	c #ABB758",
"J 	c #CCBEBF",
"K 	c #957474",
"L 	c #764849",
"M 	c #7F4D51",
"N 	c #7E5859",
"O 	c #886668",
"P 	c #705C5E",
"Q 	c #7E7C53",
"R 	c #B1B100",
"S 	c #BFBF00",
"T 	c #D8D800",
"U 	c #D4D400",
"V 	c #79A200",
"W 	c #5F8A00",
"X 	c #759000",
"Y 	c #428900",
"Z 	c #B1CC95",
"` 	c #9D8284",
" .	c #6E4244",
"..	c #7C4B4E",
"+.	c #866869",
"@.	c #5B5F2A",
"#.	c #59673F",
"$.	c #868686",
"%.	c #8E8E8E",
"&.	c #94941A",
"*.	c #828900",
"=.	c #5F7300",
"-.	c #617900",
";.	c #8F9200",
">.	c #BDBD00",
",.	c #BCBC00",
"'.	c #909D00",
").	c #8D9300",
"!.	c #508900",
"~.	c #79A84B",
"{.	c #E8F0E0",
"].	c #EFEBEB",
"^.	c #693E42",
"/.	c #7E5B5D",
"(.	c #837273",
"_.	c #5D773B",
":.	c #3B7302",
"<.	c #42750E",
"[.	c #51772B",
"}.	c #758368",
"|.	c #929218",
"1.	c #888C00",
"2.	c #3C5B00",
"3.	c #2C5E00",
"4.	c #3C7D00",
"5.	c #4F7A00",
"6.	c #6A8800",
"7.	c #C0C000",
"8.	c #B3B300",
"9.	c #8E9300",
"0.	c #428500",
"a.	c #428600",
"b.	c #428400",
"c.	c #D1E1C1",
"d.	c #846366",
"e.	c #715051",
"f.	c #847F7F",
"g.	c #597740",
"h.	c #356D05",
"i.	c #346C00",
"j.	c #3A6C00",
"k.	c #3A7000",
"l.	c #878F04",
"m.	c #325600",
"n.	c #285300",
"o.	c #356E00",
"p.	c #428A00",
"q.	c #3F8100",
"r.	c #3E7600",
"s.	c #7CA814",
"t.	c #AABB18",
"u.	c #798F00",
"v.	c #528D00",
"w.	c #428100",
"x.	c #427D00",
"y.	c #D1E0C1",
"z.	c #E9E9E9",
"A.	c #747474",
"B.	c #848484",
"C.	c #838383",
"D.	c #808080",
"E.	c #8B8B8B",
"F.	c #707F63",
"G.	c #407017",
"H.	c #3B6C08",
"I.	c #758400",
"J.	c #2D5800",
"K.	c #366800",
"L.	c #2B5800",
"M.	c #356B00",
"N.	c #326B00",
"O.	c #3C7500",
"P.	c #438002",
"Q.	c #438901",
"R.	c #7D9200",
"S.	c #9B9B00",
"T.	c #969A00",
"U.	c #E5E6C1",
"V.	c #888888",
"W.	c #818181",
"X.	c #8A8A8A",
"Y.	c #8C8C8C",
"Z.	c #8D8D8D",
"`.	c #60764A",
" +	c #2C5407",
".+	c #295200",
"++	c #264F00",
"@+	c #214A00",
"#+	c #2A5900",
"$+	c #316300",
"%+	c #3D7503",
"&+	c #4A890D",
"*+	c #428306",
"=+	c #688A00",
"-+	c #799100",
";+	c #7B8F03",
">+	c #788B00",
",+	c #5A7200",
"'+	c #D2D9C1",
")+	c #E5EBE0",
"!+	c #99B580",
"~+	c #A1BF80",
"{+	c #6F8851",
"]+	c #81827F",
"^+	c #828282",
"/+	c #949494",
"(+	c #939393",
"_+	c #919191",
":+	c #989898",
"<+	c #345619",
"[+	c #285100",
"}+	c #255000",
"|+	c #285800",
"1+	c #306200",
"2+	c #386F01",
"3+	c #3F7907",
"4+	c #3A7303",
"5+	c #6DA517",
"6+	c #478E04",
"7+	c #356905",
"8+	c #346500",
"9+	c #102200",
"0+	c #C3C5C1",
"a+	c #5F8040",
"b+	c #316700",
"c+	c #407A00",
"d+	c #407C00",
"e+	c #558229",
"f+	c #628146",
"g+	c #9B9B9B",
"h+	c #9F9F9F",
"i+	c #979797",
"j+	c #A4A4A4",
"k+	c #A6A6A6",
"l+	c #ACACAC",
"m+	c #39571E",
"n+	c #295600",
"o+	c #295A00",
"p+	c #2B5D00",
"q+	c #336700",
"r+	c #346600",
"s+	c #376E00",
"t+	c #5C970F",
"u+	c #377002",
"v+	c #2E5A00",
"w+	c #253111",
"x+	c #7B7974",
"y+	c #EBECEA",
"z+	c #DEDCDC",
"A+	c #57763E",
"B+	c #295400",
"C+	c #2D6200",
"D+	c #387500",
"E+	c #408200",
"F+	c #448306",
"G+	c #79975A",
"H+	c #A8A8A8",
"I+	c #A9A9A9",
"J+	c #ABABAB",
"K+	c #ADADAD",
"L+	c #9A9E95",
"M+	c #295300",
"N+	c #295800",
"O+	c #2A5400",
"P+	c #0D1C00",
"Q+	c #1A3500",
"R+	c #152C00",
"S+	c #0C1B00",
"T+	c #173100",
"U+	c #366C04",
"V+	c #41751D",
"W+	c #D2DECC",
"X+	c #A6A5A5",
"Y+	c #CECECE",
"Z+	c #E5EAE0",
"`+	c #3B6116",
" @	c #366C00",
".@	c #3A7900",
"+@	c #418400",
"@@	c #428C00",
"#@	c #799B59",
"$@	c #A1A39E",
"%@	c #A2A2A2",
"&@	c #224B00",
"*@	c #295700",
"=@	c #295900",
"-@	c #2A5A00",
";@	c #1D3B00",
">@	c #0C1C00",
",@	c #2C3723",
"'@	c #397200",
")@	c #2E6A00",
"!@	c #1E5D00",
"~@	c #7D8C76",
"{@	c #C7C4C4",
"]@	c #648246",
"^@	c #356800",
"/@	c #397500",
"(@	c #418100",
"_@	c #469003",
":@	c #8F9D80",
"<@	c #AAAAAA",
"[@	c #A5A5A5",
"}@	c #496630",
"|@	c #275000",
"1@	c #2B5B00",
"2@	c #456E1E",
"3@	c #5F833E",
"4@	c #A8BD93",
"5@	c #316900",
"6@	c #296600",
"7@	c #718F61",
"8@	c #D6D6D3",
"9@	c #2B5C00",
"0@	c #2F6300",
"a@	c #386D00",
"b@	c #3E7B00",
"c@	c #65A813",
"d@	c #5FA410",
"e@	c #4F7927",
"f@	c #A4A5A3",
"g@	c #A4A3A3",
"h@	c #ADACAC",
"i@	c #B6B5B5",
"j@	c #A0A897",
"k@	c #254E00",
"l@	c #214F00",
"m@	c #3C631F",
"n@	c #919C87",
"o@	c #839877",
"p@	c #2F650A",
"q@	c #255F00",
"r@	c #246300",
"s@	c #206000",
"t@	c #2E5F00",
"u@	c #336900",
"v@	c #448308",
"w@	c #468706",
"x@	c #55950A",
"y@	c #529308",
"z@	c #A2A4A0",
"A@	c #A0A0A0",
"B@	c #AEAEAE",
"C@	c #B3B2B2",
"D@	c #B9BAB3",
"E@	c #647E4C",
"F@	c #214500",
"G@	c #214800",
"H@	c #184300",
"I@	c #4E713F",
"J@	c #798F6D",
"K@	c #2D6612",
"L@	c #307206",
"M@	c #387906",
"N@	c #1F5A00",
"O@	c #2A5B00",
"P@	c #2F6200",
"Q@	c #3C7002",
"R@	c #3C7802",
"S@	c #3E7D00",
"T@	c #91938F",
"U@	c #B9B7B7",
"V@	c #BFBDBD",
"W@	c #8C8E8A",
"X@	c #73786D",
"Y@	c #36501E",
"Z@	c #274F00",
"`@	c #183E00",
" #	c #416031",
".#	c #B2B8B0",
"+#	c #58863B",
"@#	c #2A6C01",
"##	c #5C9529",
"$#	c #587A42",
"%#	c #256202",
"&#	c #ABC0A1",
"*#	c #638046",
"=#	c #295500",
"-#	c #2E6000",
";#	c #326900",
">#	c #3A6D00",
",#	c #3E7700",
"'#	c #538C1A",
")#	c #BAB8B8",
"!#	c #999999",
"~#	c #4B6338",
"{#	c #295102",
"]#	c #264E00",
"^#	c #3A5227",
"/#	c #82887D",
"(#	c #3E6A28",
"_#	c #1D5700",
":#	c #1F5900",
"<#	c #1C5100",
"[#	c #3D6A19",
"}#	c #D6E0CC",
"|#	c #94A484",
"1#	c #2E5509",
"2#	c #3C7700",
"3#	c #4F8816",
"4#	c #A1A1A1",
"5#	c #7B7B7B",
"6#	c #777777",
"7#	c #737373",
"8#	c #686868",
"9#	c #2F520E",
"0#	c #244D00",
"a#	c #1E4300",
"b#	c #1B3D00",
"c#	c #1C4000",
"d#	c #497323",
"e#	c #C6D4B9",
"f#	c #395D1A",
"g#	c #2D5F00",
"h#	c #336A00",
"i#	c #3A7700",
"j#	c #3F7E00",
"k#	c #428300",
"l#	c #48810F",
"m#	c #727272",
"n#	c #6F6F6F",
"o#	c #616161",
"p#	c #666666",
"q#	c #6B6B6B",
"r#	c #695A5A",
"s#	c #534D2D",
"t#	c #214600",
"u#	c #214400",
"v#	c #214200",
"w#	c #224A00",
"x#	c #43681F",
"y#	c #C0CFB4",
"z#	c #B3C1A7",
"A#	c #326600",
"B#	c #377100",
"C#	c #3F7900",
"D#	c #428200",
"E#	c #447D0B",
"F#	c #555555",
"G#	c #565656",
"H#	c #535353",
"I#	c #5F5F5F",
"J#	c #6C6C6C",
"K#	c #6E5F5F",
"L#	c #764C4E",
"M#	c #815053",
"N#	c #B5C0AA",
"O#	c #7B8E6A",
"P#	c #8EA27B",
"Q#	c #B5C3AA",
"R#	c #C9D3BF",
"S#	c #3B7800",
"T#	c #418200",
"U#	c #428302",
"V#	c #496F23",
"W#	c #595959",
"X#	c #606060",
"Y#	c #636363",
"Z#	c #6B5F5F",
"`#	c #754A4B",
" $	c #7F4C50",
".$	c #DCCECF",
"+$	c #DAE1D4",
"@$	c #D7DACF",
"#$	c #5A4331",
"$$	c #244C00",
"%$	c #397000",
"&$	c #407F00",
"*$	c #4C791E",
"=$	c #626262",
"-$	c #5E5E5E",
";$	c #595858",
">$	c #786163",
",$	c #845A4E",
"'$	c #587C18",
")$	c #E5EEDC",
"!$	c #C9D3C1",
"~$	c #3C5C16",
"{$	c #614238",
"]$	c #384B13",
"^$	c #2D6000",
"/$	c #376D00",
"($	c #3E7900",
"_$	c #49761B",
":$	c #655A5A",
"<$	c #6A5355",
"[$	c #704E41",
"}$	c #7F982F",
"|$	c #61A213",
"1$	c #B1CD96",
"2$	c #617F46",
"3$	c #2B5102",
"4$	c #574A2D",
"5$	c #605034",
"6$	c #234C00",
"7$	c #2B5A00",
"8$	c #477419",
"9$	c #545454",
"0$	c #615353",
"a$	c #73494B",
"b$	c #714B42",
"c$	c #557119",
"d$	c #51990C",
"e$	c #74B01E",
"f$	c #52930E",
"g$	c #ADBCA1",
"h$	c #3B6017",
"i$	c #394E10",
"j$	c #724B46",
"k$	c #45511E",
"l$	c #2E6100",
"m$	c #387000",
"n$	c #427E00",
"o$	c #4A7015",
"p$	c #604446",
"q$	c #72484A",
"r$	c #744647",
"s$	c #3E5712",
"t$	c #407D06",
"u$	c #4C8F0C",
"v$	c #64A017",
"w$	c #5BA114",
"x$	c #9BC278",
"y$	c #889F72",
"z$	c #2B5302",
"A$	c #4B4C23",
"B$	c #41461D",
"C$	c #2A5800",
"D$	c #3C7C00",
"E$	c #448003",
"F$	c #61622B",
"G$	c #998C8C",
"H$	c #2E6301",
"I$	c #407D08",
"J$	c #458606",
"K$	c #4C8D0C",
"L$	c #498F09",
"M$	c #9DBF7B",
"N$	c #DDCACA",
"O$	c #6C0700",
"P$	c #533500",
"Q$	c #4B4F20",
"R$	c #31490D",
"S$	c #2F6600",
"T$	c #3B7500",
"U$	c #586825",
"V$	c #9A8E8E",
"W$	c #889181",
"X$	c #3E7400",
"Y$	c #428B00",
"Z$	c #7EB051",
"`$	c #F1F6EC",
" %	c #DBD0CA",
".%	c #433700",
"+%	c #2F6100",
"@%	c #3A7100",
"#%	c #678646",
"$%	c #889081",
"%%	c #2C5D00",
"&%	c #3A7400",
"*%	c #408300",
"=%	c #88B55E",
"-%	c #EEF4E8",
";%	c #D2DACA",
">%	c #275300",
",%	c #255100",
"'%	c #306500",
")%	c #2A5300",
"!%	c #708F52",
"~%	c #979B94",
"{%	c #47642B",
"]%	c #3C7B00",
"^%	c #448902",
"/%	c #448903",
"(%	c #CBDEB9",
"_%	c #9B4943",
":%	c #3F2F00",
"<%	c #285500",
"[%	c #244F00",
"}%	c #2B5700",
"|%	c #346A00",
"1%	c #4E831B",
"2%	c #638D37",
"3%	c #A0A799",
"4%	c #6F7D61",
"5%	c #386F02",
"6%	c #468707",
"7%	c #71AC19",
"8%	c #86B549",
"9%	c #590000",
"0%	c #4D1F00",
"a%	c #234D00",
"b%	c #2B5900",
"c%	c #366E00",
"d%	c #418A00",
"e%	c #9BA78F",
"f%	c #72786E",
"g%	c #315611",
"h%	c #3F7C01",
"i%	c #4D8D06",
"j%	c #488303",
"k%	c #EBF2E5",
"l%	c #530000",
"m%	c #4F1700",
"n%	c #2C4900",
"o%	c #224C00",
"p%	c #275500",
"q%	c #2C5B00",
"r%	c #3D7F00",
"s%	c #4D9509",
"t%	c #4A8E07",
"u%	c #DFE4DA",
"v%	c #39591C",
"w%	c #2A5C00",
"x%	c #387301",
"y%	c #8DC227",
"z%	c #5A9617",
"A%	c #5C0000",
"B%	c #690000",
"C%	c #492C00",
"D%	c #224900",
"E%	c #265100",
"F%	c #264B00",
"G%	c #285600",
"H%	c #326A00",
"I%	c #3C7600",
"J%	c #3A7A00",
"K%	c #CCD4C4",
"L%	c #456329",
"M%	c #254D00",
"N%	c #2B5E00",
"O%	c #397205",
"P%	c #4B8E0C",
"Q%	c #CFE0BF",
"R%	c #631400",
"S%	c #354600",
"T%	c #254B00",
"U%	c #2A5500",
"V%	c #346B00",
"W%	c #C6CEBD",
"X%	c #466828",
"Y%	c #2D5D00",
"Z%	c #3D7705",
"`%	c #3E7B01",
" &	c #66923E",
".&	c #7F0000",
"+&	c #3F3800",
"@&	c #346900",
"#&	c #2E5E00",
"$&	c #2A5700",
"%&	c #377400",
"&&	c #6B884F",
"*&	c #2E5C00",
"=&	c #3D7A00",
"-&	c #69973E",
";&	c #5F0000",
">&	c #720000",
",&	c #3D3100",
"'&	c #285000",
")&	c #366B00",
"!&	c #2C5A00",
"~&	c #356C00",
"{&	c #3F7A00",
"]&	c #67834F",
"^&	c #336600",
"/&	c #417B00",
"(&	c #709C3E",
"_&	c #650000",
":&	c #880000",
"<&	c #324800",
"[&	c #366F00",
"}&	c #306100",
"|&	c #397400",
"1&	c #63992C",
"2&	c #66824F",
"3&	c #2D5E00",
"4&	c #3F7312",
"5&	c #5B0000",
"6&	c #680000",
"7&	c #7B0000",
"8&	c #810000",
"9&	c #2C4100",
"0&	c #2A5600",
"a&	c #336500",
"b&	c #638543",
"c&	c #295203",
"d&	c #2C5900",
"e&	c #417E00",
"f&	c #234B00",
"g&	c #779758",
"h&	c #550000",
"i&	c #610000",
"j&	c #6C0000",
"k&	c #4C2000",
"l&	c #386B00",
"m&	c #D7E4CA",
"n&	c #2A4E09",
"o&	c #3D7800",
"p&	c #528B16",
"q&	c #C1D7AB",
"r&	c #69854F",
"s&	c #275200",
"t&	c #E9EEE5",
"u&	c #AC8787",
"v&	c #520000",
"w&	c #670000",
"x&	c #720200",
"y&	c #552100",
"z&	c #224600",
"A&	c #274E00",
"B&	c #89AA6A",
"C&	c #A4B395",
"D&	c #2E6500",
"E&	c #387400",
"F&	c #58961D",
"G&	c #C2D7AD",
"H&	c #92A97B",
"I&	c #A98484",
"J&	c #7A0F0F",
"K&	c #E7D7D4",
"L&	c #8DA17D",
"M&	c #1D4200",
"N&	c #265200",
"O&	c #2F5F00",
"P&	c #346D00",
"Q&	c #B1C69E",
"R&	c #E1E5DC",
"S&	c #244900",
"T&	c #5AA113",
"U&	c #529B0D",
"V&	c #529216",
"W&	c #49850D",
"X&	c #2C5800",
"Y&	c #C6D3B9",
"Z&	c #C7AEAE",
"`&	c #5A1313",
" *	c #7B1212",
".*	c #839D6A",
"+*	c #467A13",
"@*	c #C3D5AE",
"#*	c #E1E7DC",
"$*	c #3E7C02",
"%*	c #55990A",
"&*	c #90C829",
"**	c #4C9405",
"=*	c #553B00",
"-*	c #323800",
";*	c #314700",
">*	c #2E4D00",
",*	c #3B4C00",
"'*	c #BCB19A",
")*	c #EBD5D5",
"!*	c #EDDFDF",
"~*	c #BEA1A1",
"{*	c #885555",
"]*	c #A66161",
"^*	c #B2C89B",
"/*	c #739155",
"(*	c #718D55",
"_*	c #749455",
":*	c #B0BFA1",
"<*	c #47850B",
"[*	c #458903",
"}*	c #6DAE1A",
"|*	c #6BA717",
"1*	c #486600",
"2*	c #580C00",
"3*	c #580B00",
"4*	c #502200",
"5*	c #860000",
"6*	c #870000",
"7*	c #912929",
"8*	c #D7AAAA",
"9*	c #EFDCDC",
"0*	c #437D05",
"a*	c #3E8000",
"b*	c #3F8202",
"c*	c #739F45",
"d*	c #6B3B28",
"e*	c #5A0000",
"f*	c #700000",
"g*	c #820000",
"h*	c #890000",
"i*	c #8F0000",
"j*	c #B24B4B",
"k*	c #F2E0E0",
"l*	c #E1E6DC",
"m*	c #306300",
"n*	c #2F6400",
"o*	c #60873B",
"p*	c #DFE8D6",
"q*	c #D6C4C4",
"r*	c #821717",
"s*	c #5D0000",
"t*	c #790000",
"u*	c #970000",
"v*	c #B14040",
"w*	c #A1B093",
"x*	c #224500",
"y*	c #1D4000",
"z*	c #DBE3D4",
"A*	c #E8ECE3",
"B*	c #EAD3D3",
"C*	c #780000",
"D*	c #900000",
"E*	c #A63E3E",
"F*	c #E3D3D3",
"G*	c #6B1A1A",
"H*	c #5E0000",
"I*	c #6D0000",
"J*	c #710000",
"K*	c #850000",
"L*	c #8E0000",
"M*	c #950000",
"N*	c #A01616",
"O*	c #D5BFBF",
"P*	c #702626",
"Q*	c #6E0000",
"R*	c #A54646",
"S*	c #CEB9B9",
"T*	c #A67F7F",
"U*	c #AC7F7F",
"V*	c #9C6161",
"W*	c #580000",
"X*	c #710D0D",
"Y*	c #C3A3A3",
"Z*	c #F1EAEA",
"`*	c #C4AAAA",
" =	c #CAB3B3",
"                                                                                                ",
"                                                                                                ",
"                                                                                                ",
"                                                                                                ",
"                                                . +                                             ",
"                                                @ # $         %                                 ",
"                                              & * = - ; > , ' ) !                               ",
"                                              ~ { ] ^ / ( _ : < [ }                             ",
"                                              | 1 2 3 4 5 6 7 8 9 0 a                           ",
"                                          b c d e f g h i j k l m n o p                         ",
"                                  q r s t u v w x y z A B C D E F G H I                         ",
"                                J K L M N O P Q y y y R S T D U V W X Y Z                       ",
"                              `  ...+.@.#.$.%.&.y *.=.-.;.S >.,.'.).!.Y ~.{.                    ",
"                            ].^./.(._.:.<.[.}.|.1.2.3.4.5.6.7.8.y 9.0.a.b.c.                    ",
"                            d.e.f.g.h.i.j.k.<.l.m.n.o.p.q.r.s.t.u.v.Y w.x.y.                    ",
"                          z.A.B.C.D.B.E.F.G.H.I.J.K.L.M.N.O.P.Q.R.y S.S.T.U.                    ",
"                          V.W.C.B.V.X.%.Y.Z.`. +.+++@+#+$+%+&+*+=+-+;+>+,+'+                    ",
"                    )+!+~+{+]+^+/+Z.V.(+_+:+/+<+.+[+}+|+1+2+3+4+5+6+7+8+9+0+                    ",
"                    a+b+c+d+e+f+g+h+i+g+j+k+l+m+.+.+n+o+p+q+r+s+t+u+v+w+x+y+z+                  ",
"                  A+B+C+D+E+b.F+G+H+I+J+J+I+K+L+.+.+M+N+o+O+P+Q+R+S+T+U+V+W+X+Y+                ",
"                Z+`+B+3. @.@+@@@Y #@$@%@/+l+K+H+&@.+.+*@=@-@1+;@>@,@'@)@!@~@{@                  ",
"                ]@.+B+3.^@/@(@p._@_@:@<@[@k+K+g+}@|@.+.+.+M+1@2@3@4@5@6@!@7@8@                  ",
"                ]@.+B+9@0@a@b@a.c@d@e@f@g@h@<@i@j@1@k@k@[+l@m@n@o@p@q@!@r@s@                    ",
"                ]@.+B+o+t@u@v@w@x@y@0.z@A@B@J+C@D@E@F@G@|@H@I@J@K@!@!@L@M@N@                    ",
"                ]@.+B+o+O@P@Q@R@S@w.b.T@%.K+U@V@J+W@X@Y@Z@`@ #.#+#@###$#%#&#                    ",
"                *#.+.+=#o+-#;#>#,#w.b.'#)#[@%@J+k+[@!#~#{#]#^#/#(#_#:#<#[#}#                    ",
"                |#1#.+B+=@o+$+a@2#(@b.3#4#:+_+%@5#6#7#8#9#++0#a#b#c#B+d#e#                      ",
"                  f#.+.+B+n+g#h#i#j#k#l#m#n#o#6#p#q#n#r#s#t#t#u#v#w#x#y#                        ",
"                  z#k@.+.+.+-@A#B#C#D#E#F#G#F#H#I#J#K#L#M#N#O#G@P#Q#R#                          ",
"                    @+k@.+.+B+3.M.S#T#U#V#W#o#X#Y#Z#`# $.$    +$                                ",
"                  @$#$$$[+.+M+1@r+%$&$b.*$=$-$=$;$>$,$'$)$                                      ",
"                !$~${$]$++.+.+B+^$/$($b._$W#X#:$<$[$}$|$1$                                      ",
"                2$3$4$5$6$[+.+M+7$A#/@b.8$9$0$a$b$c$d$e$f$                                      ",
"              g$h$.+i$j$k$|@.+.+n+l$m$n$o$p$q$r$s$t$u$v$w$x$                                    ",
"              y$.+.+z$A$B$&@.+.+M+C$5@D$E$F$r$G$o+H$I$J$K$L$M$                                  ",
"          N$O$P$.+.+B+o+Q$R$[+.+M+*@S$T$D#U$V$J+W$p+r+X$(@Y$Z$`$                                ",
"           %.%#+[+.+B+o+t@N+.+.+n+o++%@%C##%h@k+$%N+%%r+&%*%@@=%-%                              ",
"          ;%>%,%|@.+B+o+p+'%)%.+n+o++%^@B#!%I+l+~%{%N+%%r+]%^%/%(%                              ",
"          _%:%<%[%[+M+*@o+9@^$k@M+=#}%3.|%1%2%3%g+4%M+N+%%5%6%7%8%                              ",
"          9%0%M+a%[+.+M+M+M+9@b%k@.+.+O@c%d%p.e%f%g%.+M+=@l$h%i%j%k%                            ",
"          l%m%n%*@o%[+[+.+.+M+p%&@w#o%q%r%s%t%b.u%v%0#.+N+w%-#x%y%z%                            ",
"          A%B%C%[+D%@+0#.+.+|@[+E%F%G%H%I%J%q.b.  K%L%M%.+N+N%O%F+P%Q%                          ",
"          A%B%R%S%T%@+0#.+.+++U%*@|@N+^$V%i#q.b.    W%X%[+M+n+Y%Z%`% &                          ",
"          A%B%.&+&[+&@|@.+.+M+1@@&#&B+$&A#%&q.b.      &&.+*@=#U%*&=&-&                          ",
"          ;&>&.&,&'&6$.+.+.+M+9@)&q%[+.+!&~&{&k#      ]&[+=#=@=#^&/&(&                          ",
"          _&>&.&:&<&.+.+.+.+M+^$[&j#G%.+B+}&|&T#1&    2&|@[+.+<%3&4&                            ",
"          5&6&7&8&9&.+.+.+B+0&a&@%j#b&c&.+d&)&e&1&    2&6$0#++f&M%g&                            ",
"          h&i&j&>&k&T%|@.+=#*@+%l&I%m&n&.+n+_ o&p&q&  r&[+|@@+G@s&t&                            ",
"          u&v&A%w&x&y&z&A&.+.+$&+%B&  C&.+n+D&E&($F&G&&&.+[+0#0#H&                              ",
"            I&h&i&J&K&L&M&N&O&g#P&Q&  R&S&M+-@3.T&U&V&W&X&.+[+d&Y&                              ",
"            Z&`&h& *    .*)%.+!&+*@*  #*A&D%[%$*%*&***=*-*;*>*,*'*)*!*                          ",
"              ~*{*]*    ^*/*(*_*:*    #*B+o+@&<*[*}*|*1*2*3*4*7&5*6*7*8*9*                      ",
"                                      #*M+N+$+0*a*b*c*d*9%e*i&f*g*h*i*i*j*k*                    ",
"                                      l*k@M+}%m*n*o*p*q*r*e*s*j&t*6*i*u*u*v*                    ",
"                                        w*x*y*F@z*A*    B*C*5&i&f*5*h*D*u*u*E*                  ",
"                                                          F*G*H*I*J*C*K*L*M*N*k*                ",
"                                                            O*P*e*i&Q*Q*t*8&i*R*                ",
"                                                              S*T*U*V*W*s*i&X*Y*                ",
"                                                                    Z*`*`*`* =                  ",
"                                                                                                "};
