/* XPM */
static char * troll1des1_xpm[] = {
"48 60 818 2",
"  	c None",
". 	c #FAFAE8",
"+ 	c #F5F5AC",
"@ 	c #F8F8CC",
"# 	c #DFDFB0",
"$ 	c #E8E8C9",
"% 	c #ECEC70",
"& 	c #F2F292",
"* 	c #FAFAE7",
"= 	c #BBBB3D",
"- 	c #EFEF5D",
"; 	c #F9F9DC",
"> 	c #E0E037",
", 	c #FAFAE2",
"' 	c #BEBE5D",
") 	c #ECECBC",
"! 	c #C6C67C",
"~ 	c #E0E0BC",
"{ 	c #F7F7E4",
"] 	c #BFBF55",
"^ 	c #DEDE4B",
"/ 	c #F9F9D6",
"( 	c #DEDE1B",
"_ 	c #BECDAF",
": 	c #CBD5AF",
"< 	c #B9B95A",
"[ 	c #B9C884",
"} 	c #F5F5D7",
"| 	c #E1E189",
"1 	c #B4B415",
"2 	c #E8E851",
"3 	c #B9B939",
"4 	c #D3D315",
"5 	c #84A115",
"6 	c #668615",
"7 	c #A6A615",
"8 	c #75A51D",
"9 	c #9EBC7E",
"0 	c #B8CEA4",
"a 	c #CACA7C",
"b 	c #DADA62",
"c 	c #AB927D",
"d 	c #A9A915",
"e 	c #C7C715",
"f 	c #AAAA15",
"g 	c #CCCC15",
"h 	c #D2D515",
"i 	c #899415",
"j 	c #B6B615",
"k 	c #79A91B",
"l 	c #528C16",
"m 	c #5D9428",
"n 	c #B9D0A1",
"o 	c #927070",
"p 	c #9C7679",
"q 	c #977164",
"r 	c #A19B21",
"s 	c #98921F",
"t 	c #9D9D15",
"u 	c #A0A015",
"v 	c #C9C915",
"w 	c #C5C515",
"x 	c #D8D815",
"y 	c #9E9E15",
"z 	c #BCBC15",
"A 	c #75A015",
"B 	c #518D15",
"C 	c #519315",
"D 	c #5D9A26",
"E 	c #C1D7AC",
"F 	c #9E8486",
"G 	c #795152",
"H 	c #8A5C5E",
"I 	c #8A5F62",
"J 	c #956F6F",
"K 	c #8F695D",
"L 	c #989220",
"M 	c #8A8F15",
"N 	c #738815",
"O 	c #678115",
"P 	c #8C9515",
"Q 	c #C3CC15",
"R 	c #A5A515",
"S 	c #9F9F15",
"T 	c #BDC315",
"U 	c #749E15",
"V 	c #5D8E16",
"W 	c #79A528",
"X 	c #8FBE31",
"Y 	c #518F15",
"Z 	c #D2E0C3",
"` 	c #AA9191",
" .	c #84585B",
"..	c #7D575A",
"+.	c #8B706B",
"@.	c #757057",
"#.	c #969696",
"$.	c #9A9A42",
"%.	c #9B9B15",
"&.	c #365E16",
"*.	c #549019",
"=.	c #528E17",
"-.	c #467A15",
";.	c #4C7E15",
">.	c #A9BD15",
",.	c #94A015",
"'.	c #8AA215",
").	c #699615",
"!.	c #959A15",
"~.	c #6F9617",
"{.	c #529017",
"].	c #A7C58A",
"^.	c #A78D8F",
"/.	c #805557",
"(.	c #86686A",
"_.	c #5E673F",
":.	c #668348",
"<.	c #558129",
"[.	c #6F8955",
"}.	c #8C952B",
"|.	c #3D6716",
"1.	c #4B801C",
"2.	c #518C18",
"3.	c #467915",
"4.	c #497B15",
"5.	c #4B8615",
"6.	c #5F9115",
"7.	c #8B9915",
"8.	c #868815",
"9.	c #73981D",
"0.	c #558E1D",
"a.	c #4C8718",
"b.	c #518E15",
"c.	c #7A5B5C",
"d.	c #867879",
"e.	c #687952",
"f.	c #49791D",
"g.	c #4A7915",
"h.	c #4A7D15",
"i.	c #7F9115",
"j.	c #627615",
"k.	c #375815",
"l.	c #3E6715",
"m.	c #437315",
"n.	c #427015",
"o.	c #497815",
"p.	c #4F8615",
"q.	c #4D8615",
"r.	c #5A8715",
"s.	c #699515",
"t.	c #5C8515",
"u.	c #548E1A",
"v.	c #406819",
"w.	c #416B1A",
"x.	c #529117",
"y.	c #8E7477",
"z.	c #8A8585",
"A.	c #8C8C8C",
"B.	c #848A80",
"C.	c #808979",
"D.	c #7E8B70",
"E.	c #437615",
"F.	c #437715",
"G.	c #7C8E15",
"H.	c #4A6815",
"I.	c #395D15",
"J.	c #375D15",
"K.	c #3B6515",
"L.	c #406C15",
"M.	c #53891D",
"N.	c #487B15",
"O.	c #83B530",
"P.	c #6BA723",
"Q.	c #3A6615",
"R.	c #335115",
"S.	c #1E2A15",
"T.	c #487021",
"U.	c #56991A",
"V.	c #7AA74D",
"W.	c #949494",
"X.	c #919191",
"Y.	c #8A8A8A",
"Z.	c #868686",
"`.	c #909090",
" +	c #8D8D8D",
".+	c #929292",
"++	c #5E7C42",
"@+	c #3A6115",
"#+	c #3A5F15",
"$+	c #3A6715",
"%+	c #416E15",
"&+	c #457015",
"*+	c #426E15",
"=+	c #3D6715",
"-+	c #447815",
";+	c #233315",
">+	c #365815",
",+	c #A5C387",
"'+	c #C1CAB4",
")+	c #BBCAAF",
"!+	c #C6CCBF",
"~+	c #959595",
"{+	c #808080",
"]+	c #8F8F8F",
"^+	c #888888",
"/+	c #9C9C9C",
"(+	c #7A8E67",
"_+	c #3C601E",
":+	c #3A6315",
"<+	c #253815",
"[+	c #202D15",
"}+	c #213015",
"|+	c #1A2115",
"1+	c #2D4315",
"2+	c #518A15",
"3+	c #4C8615",
"4+	c #48811A",
"5+	c #6E9D42",
"6+	c #A8ADA2",
"7+	c #81966D",
"8+	c #52792D",
"9+	c #64814A",
"0+	c #5D7745",
"a+	c #7F7F7F",
"b+	c #939393",
"c+	c #9E9E9E",
"d+	c #9B9B9B",
"e+	c #9D9D9D",
"f+	c #A9A9A9",
"g+	c #496530",
"h+	c #3E6A15",
"i+	c #3D6A15",
"j+	c #304D15",
"k+	c #314F15",
"l+	c #727D68",
"m+	c #548521",
"n+	c #4E8415",
"o+	c #437915",
"p+	c #306715",
"q+	c #8E9A87",
"r+	c #CED3C6",
"s+	c #80AB55",
"t+	c #839A6D",
"u+	c #395E15",
"v+	c #407015",
"w+	c #487C15",
"x+	c #4A8315",
"y+	c #518A1A",
"z+	c #658C3D",
"A+	c #80936A",
"B+	c #B6B5B5",
"C+	c #A3A3A3",
"D+	c #A7A7A7",
"E+	c #AAAAAA",
"F+	c #AFAFAF",
"G+	c #8E9686",
"H+	c #375C15",
"I+	c #3A6015",
"J+	c #3A6515",
"K+	c #3E6B15",
"L+	c #427415",
"M+	c #89A96A",
"N+	c #95B377",
"O+	c #50831D",
"P+	c #467C15",
"Q+	c #376F15",
"R+	c #306915",
"S+	c #568042",
"T+	c #C2C9B9",
"U+	c #80AF55",
"V+	c #4E702D",
"W+	c #467415",
"X+	c #4A8115",
"Y+	c #508C15",
"Z+	c #589521",
"`+	c #92A77F",
" @	c #B4B3B3",
".@	c #989898",
"+@	c #8B8B8B",
"@@	c #B1B1B1",
"#@	c #AEAEAE",
"$@	c #345915",
"%@	c #79975E",
"&@	c #98B481",
"*@	c #4B7D20",
"=@	c #366E15",
"-@	c #346C15",
";@	c #649535",
">@	c #599620",
",@	c #ADC892",
"'@	c #6B8655",
")@	c #3D6515",
"!@	c #417115",
"~@	c #4B8415",
"{@	c #529016",
"]@	c #5C9D1C",
"^@	c #589919",
"/@	c #9EB188",
"(@	c #B0B0B0",
"_@	c #A6A6A6",
":@	c #A9AEA2",
"<@	c #385C15",
"[@	c #3F5E30",
"}@	c #A9A8A8",
"|@	c #869E79",
"1@	c #397020",
"2@	c #336C16",
"3@	c #42781B",
"4@	c #467E19",
"5@	c #377015",
"6@	c #528C17",
"7@	c #62A123",
"8@	c #9EBF7C",
"9@	c #708B55",
"0@	c #3A6215",
"a@	c #3F6B15",
"b@	c #487815",
"c@	c #4C8715",
"d@	c #57941C",
"e@	c #7CB62F",
"f@	c #6DA924",
"g@	c #B2B4B0",
"h@	c #ACACAC",
"i@	c #A8A8A8",
"j@	c #A3A7A0",
"k@	c #4E673B",
"l@	c #325515",
"m@	c #375B15",
"n@	c #315315",
"o@	c #395326",
"p@	c #878C82",
"q@	c #D1CFCF",
"r@	c #648C50",
"s@	c #316915",
"t@	c #3E7417",
"u@	c #679B2A",
"v@	c #5D8D26",
"w@	c #406E15",
"x@	c #4E8416",
"y@	c #57931D",
"z@	c #89B75E",
"A@	c #447415",
"B@	c #518716",
"C@	c #548C1A",
"D@	c #538F18",
"E@	c #55921B",
"F@	c #529116",
"G@	c #B1B1AD",
"H@	c #A2A2A2",
"I@	c #ADADAD",
"J@	c #B5B4B4",
"K@	c #A6A9A0",
"L@	c #6A795E",
"M@	c #44602B",
"N@	c #425D2C",
"O@	c #6A7C60",
"P@	c #426C2D",
"Q@	c #2F6015",
"R@	c #326315",
"S@	c #386A15",
"T@	c #3E6515",
"U@	c #4A7C15",
"V@	c #558F1A",
"W@	c #5A981E",
"X@	c #BAD3A4",
"Y@	c #3C6815",
"Z@	c #417015",
"`@	c #4B7F15",
" #	c #528F17",
".#	c #5E9E22",
"+#	c #559719",
"@#	c #739650",
"##	c #ABABAB",
"$#	c #979797",
"%#	c #777D70",
"&#	c #3D5E1F",
"*#	c #355D15",
"=#	c #366115",
"-#	c #376315",
";#	c #426F15",
">#	c #3F6C15",
",#	c #447215",
"'#	c #4E8716",
")#	c #74A645",
"!#	c #406D15",
"~#	c #4B8115",
"{#	c #518915",
"]#	c #62A122",
"^#	c #5A8E27",
"/#	c #A1A1A1",
"(#	c #6E7468",
"_#	c #365B15",
":#	c #839570",
"<#	c #3C5F19",
"[#	c #4B7E15",
"}#	c #508715",
"|#	c #519015",
"1#	c #67A826",
"2#	c #529416",
"3#	c #6E9644",
"4#	c #A4A4A4",
"5#	c #737373",
"6#	c #787878",
"7#	c #7D7977",
"8#	c #3F5A1F",
"9#	c #355B15",
"0#	c #335715",
"a#	c #396015",
"b#	c #497715",
"c#	c #4A7F15",
"d#	c #4E8315",
"e#	c #50762D",
"f#	c #508A15",
"g#	c #5FA020",
"h#	c #599B1C",
"i#	c #618C38",
"j#	c #838383",
"k#	c #7D7D7D",
"l#	c #797979",
"m#	c #717171",
"n#	c #777777",
"o#	c #785558",
"p#	c #87695F",
"q#	c #7C9962",
"r#	c #768A62",
"s#	c #67824F",
"t#	c #3B6615",
"u#	c #437015",
"v#	c #487915",
"w#	c #4E8215",
"x#	c #A7BF8C",
"y#	c #355A15",
"z#	c #487A15",
"A#	c #4E8515",
"B#	c #67A927",
"C#	c #558C22",
"D#	c #5F6F50",
"E#	c #666666",
"F#	c #676767",
"G#	c #727272",
"H#	c #767676",
"I#	c #817172",
"J#	c #8A6063",
"K#	c #CEBBBD",
"L#	c #708659",
"M#	c #3F6D15",
"N#	c #477A15",
"O#	c #4F8415",
"P#	c #525231",
"Q#	c #385D15",
"R#	c #3C6915",
"S#	c #498015",
"T#	c #508B15",
"U#	c #5D9922",
"V#	c #519215",
"W#	c #658346",
"X#	c #6E6E6E",
"Y#	c #656565",
"Z#	c #747474",
"`#	c #7F6F70",
" $	c #885E62",
".$	c #CCB9BA",
"+$	c #406F15",
"@$	c #477915",
"#$	c #4E8915",
"$$	c #7EAA52",
"%$	c #604B40",
"&$	c #345515",
"*$	c #559119",
"=$	c #60A221",
"-$	c #648645",
";$	c #6D6D6D",
">$	c #616161",
",$	c #7B6F70",
"'$	c #885E61",
")$	c #CBB7B9",
"!$	c #B9C5AC",
"~$	c #486A26",
"{$	c #427115",
"]$	c #549319",
"^$	c #7D5555",
"/$	c #75604C",
"($	c #3B571C",
"_$	c #3F7015",
":$	c #56931D",
"<$	c #477A17",
"[$	c #5C6750",
"}$	c #6F6F6F",
"|$	c #6C5E5F",
"1$	c #855E5A",
"2$	c #B1A996",
"3$	c #ABBA9C",
"4$	c #508315",
"5$	c #518B15",
"6$	c #57951D",
"7$	c #539418",
"8$	c #CBD4C3",
"9$	c #4A6927",
"0$	c #6C5646",
"a$	c #A16B6F",
"b$	c #635E3D",
"c$	c #457215",
"d$	c #59951C",
"e$	c #5F9E20",
"f$	c #677349",
"g$	c #776768",
"h$	c #8C6063",
"i$	c #7E8157",
"j$	c #C6D9B4",
"k$	c #AABA9C",
"l$	c #5E9B20",
"m$	c #57961D",
"n$	c #689C35",
"o$	c #6D8855",
"p$	c #4C5E27",
"q$	c #9D6B6E",
"r$	c #8D6C61",
"s$	c #415621",
"t$	c #538C19",
"u$	c #58981B",
"v$	c #5E7B28",
"w$	c #7B5A51",
"x$	c #938082",
"y$	c #8C9E77",
"z$	c #617E45",
"A$	c #4B8015",
"B$	c #5F9C24",
"C$	c #699F36",
"D$	c #3F5E1A",
"E$	c #716247",
"F$	c #B77D82",
"G$	c #5E7032",
"H$	c #3A6415",
"I$	c #427215",
"J$	c #4B8215",
"K$	c #5A951C",
"L$	c #57951A",
"M$	c #91907B",
"N$	c #8C9E79",
"O$	c #4E8615",
"P$	c #C6D7B4",
"Q$	c #879A75",
"R$	c #467815",
"S$	c #5C9621",
"T$	c #69A236",
"U$	c #40611B",
"V$	c #7A6A4F",
"W$	c #A1766B",
"X$	c #8D6A5E",
"Y$	c #3C6A15",
"Z$	c #457B15",
"`$	c #508B17",
" %	c #538E16",
".%	c #87927D",
"+%	c #9EA29C",
"@%	c #71904E",
"#%	c #C6D6B4",
"$%	c #5D7943",
"%%	c #518A17",
"&%	c #67A729",
"*%	c #99BB77",
"=%	c #675B3E",
"-%	c #395D17",
";%	c #3B6715",
">%	c #447315",
",%	c #4C8015",
"'%	c #508915",
")%	c #899B77",
"!%	c #809A61",
"~%	c #5E7A45",
"{%	c #3E6F15",
"]%	c #56901D",
"^%	c #87B35E",
"/%	c #4E8016",
"(%	c #4C7E1B",
"_%	c #375A15",
":%	c #4A8215",
"<%	c #8D9E7F",
"[%	c #8C9E78",
"}%	c #CFD9C3",
"|%	c #447515",
"1%	c #4F8A16",
"2%	c #78A64B",
"3%	c #3D6915",
"4%	c #467315",
"5%	c #3B6015",
"6%	c #3C6715",
"7%	c #457415",
"8%	c #508615",
"9%	c #558E21",
"0%	c #8BA077",
"a%	c #3D6815",
"b%	c #A3C084",
"c%	c #436626",
"d%	c #437415",
"e%	c #3B6215",
"f%	c #8EC335",
"g%	c #5B9527",
"h%	c #709548",
"i%	c #D0DBC4",
"j%	c #3F6715",
"k%	c #447715",
"l%	c #497F15",
"m%	c #457615",
"n%	c #4B8315",
"o%	c #A3C184",
"p%	c #48692D",
"q%	c #457315",
"r%	c #477615",
"s%	c #477815",
"t%	c #365C15",
"u%	c #3E6815",
"v%	c #4B7C15",
"w%	c #609B1D",
"x%	c #519115",
"y%	c #518C15",
"z%	c #C6D8B4",
"A%	c #3B6315",
"B%	c #447615",
"C%	c #4E8D15",
"D%	c #509115",
"E%	c #5E9C28",
"F%	c #CBDEBA",
"G%	c #4F8315",
"H%	c #365E15",
"I%	c #457715",
"J%	c #528D17",
"K%	c #55921D",
"L%	c #395C15",
"M%	c #488015",
"N%	c #539517",
"O%	c #539516",
"P%	c #667E4F",
"Q%	c #426D15",
"R%	c #3F6F15",
"S%	c #508B16",
"T%	c #57941D",
"U%	c #559519",
"V%	c #749B4D",
"W%	c #4F8515",
"X%	c #5A9B1C",
"Y%	c #55951A",
"Z%	c #CBD3C3",
"`%	c #335615",
" &	c #3E6E15",
".&	c #477C15",
"+&	c #94B375",
"@&	c #57901B",
"#&	c #59991D",
"$&	c #4E8C15",
"%&	c #C6D0BC",
"&&	c #4D8415",
"*&	c #4D8915",
"=&	c #4B8515",
"-&	c #829670",
";&	c #477F15",
">&	c #4F8915",
",&	c #DAE1D4",
"'&	c #457A15",
")&	c #4E8816",
"!&	c #5C9A1E",
"~&	c #55921A",
"{&	c #457515",
"]&	c #7C9D5F",
"^&	c #BDCDAF",
"/&	c #A8B89C",
"(&	c #4F8B15",
"_&	c #659535",
":&	c #3E6C15",
"<&	c #4C7D15",
"[&	c #568E1D",
"}&	c #C4CDBC",
"|&	c #345615",
"1&	c #345A15",
"2&	c #4C6930",
"3&	c #8BA075",
"4&	c #477E15",
"5&	c #385A15",
"6&	c #385B15",
"7&	c #437215",
"8&	c #4C8315",
"9&	c #CCDEBC",
"0&	c #899E75",
"a&	c #4D8715",
"b&	c #3D6B15",
"c&	c #508D15",
"d&	c #55901B",
"e&	c #CEE0BF",
"f&	c #889E75",
"g&	c #335815",
"h&	c #508E15",
"i&	c #639E2D",
"j&	c #C6DBB4",
"k&	c #768E62",
"l&	c #537335",
"m&	c #4B7215",
"n&	c #4C3B15",
"o&	c #335515",
"p&	c #305015",
"q&	c #2E4C15",
"r&	c #375715",
"s&	c #3E6915",
"t&	c #4B7D15",
"u&	c #519415",
"v&	c #67A132",
"w&	c #C9DDB7",
"x&	c #4E6E32",
"y&	c #386115",
"z&	c #304F15",
"A&	c #487715",
"B&	c #537915",
"C&	c #641915",
"D&	c #5E2015",
"E&	c #611E15",
"F&	c #6E1E15",
"G&	c #3E6D15",
"H&	c #529317",
"I&	c #55921C",
"J&	c #609A2A",
"K&	c #D5E2C6",
"L&	c #567F1B",
"M&	c #783030",
"N&	c #671515",
"O&	c #741515",
"P&	c #7E1515",
"Q&	c #548918",
"R&	c #649C1F",
"S&	c #8BBD33",
"T&	c #4F8C15",
"U&	c #CCDCBC",
"V&	c #4C6B2D",
"W&	c #93B175",
"X&	c #DDCCCC",
"Y&	c #803D3D",
"Z&	c #6C1515",
"`&	c #7B1515",
" *	c #5D9521",
".*	c #497A15",
"+*	c #658E40",
"@*	c #9BAA8C",
"#*	c #DFDFDF",
"$*	c #B38C8C",
"%*	c #691515",
"&*	c #543E15",
"**	c #426B15",
"=*	c #486215",
"-*	c #806C41",
";*	c #D0DAC8",
">*	c #A2A28A",
",*	c #562D15",
"'*	c #552A15",
")*	c #662915",
"!*	c #5E3515",
"~*	c #2F5015",
"{*	c #5A3B15",
"]*	c #733015",
"^*	c #BB7675",
"/*	c #E3D6D6",
"(*	c #834B4B",
"_*	c #692015",
":*	c #365515",
"<*	c #335415",
"[*	c #6B3315",
"}*	c #7C2915",
"|*	c #983232",
"1*	c #CCB7B7",
"2*	c #DFC3C3",
"3*	c #7A1515",
"4*	c #721515",
"5*	c #811815",
"6*	c #7F1E15",
"7*	c #8A1915",
"8*	c #991515",
"9*	c #9E1B1B",
"0*	c #A93C3C",
"a*	c #CD9898",
"b*	c #5D1715",
"c*	c #571F15",
"d*	c #651F15",
"e*	c #7D1715",
"f*	c #841515",
"g*	c #811515",
"h*	c #B89595",
"i*	c #B28B8B",
"j*	c #6D1E1E",
"k*	c #6F1515",
"l*	c #7C1515",
"m*	c #861515",
"n*	c #901515",
"o*	c #9E1515",
"p*	c #C37272",
"q*	c #9F7777",
"r*	c #763B3B",
"s*	c #A88484",
"t*	c #884D4D",
"u*	c #731515",
"v*	c #831515",
"w*	c #8D1515",
"x*	c #DBACAC",
"y*	c #BEA4A4",
"z*	c #6C1D1D",
"A*	c #6E1515",
"B*	c #771515",
"C*	c #871515",
"D*	c #891515",
"E*	c #971515",
"F*	c #9A1515",
"G*	c #BC6161",
"H*	c #C3A4A4",
"I*	c #621515",
"J*	c #7F1515",
"K*	c #B54D4F",
"L*	c #915E5E",
"M*	c #5E1515",
"N*	c #601515",
"O*	c #641515",
"P*	c #701515",
"Q*	c #782324",
"                                                    .                                           ",
"                                                    + @                                         ",
"                                            #                                                   ",
"                                            $ %       & *                                       ",
"                                              = -     - ;                                       ",
"                                                > ,   ' )     ! ~                               ",
"                                        {       ] ^ / ' ( _ : < [                               ",
"                                        } |       1 2 3 4 5 6 7 8 9 0                           ",
"                                            a b c d e f g h i j k l m n                         ",
"                                        o p q r s t u v w x y z A B C D E                       ",
"                                  F G H I J K L M N O P Q R S T U V W X Y Z                     ",
"                                `  ...+.@.#.$.%.&.*.=.-.;.>.,.'.).!.!.~.{.].                    ",
"                              ^./.(._.:.<.[.}.%.|.1.2.3.4.5.6.7.%.8.9.0.a.b.                    ",
"                              c.d.e.f.g.g.h.i.j.k.l.m.n.o.p.q.r.s.t.u.v.w.x.                    ",
"                            y.z.A.B.C.D.E.F.G.H.I.J.K.L.E.M.N.O.P.Q.R.S.T.U.V.                  ",
"                            W.X.Y.Z.`. +X..+++@+#+@+Q.$+%+&+*+-.=+-+;+>+,+'+                    ",
"                      )+!+~+{+]+^+A.X.]+W./+(+_+#+#+:+$+L.<+[+}+|+1+2+3+4+5+6+Z                 ",
"                    7+%+8+9+0+]+a+b+c+d+/+e+f+g+#+#+:+$+h+i+j+k+l+m+n+o+p+q+r+s+                ",
"                  t+u+v+w+x+y+z+A+f+B+C+D+E+F+G+H+#+I+J+$+K+L+M+N+O+P+Q+R+S+T+U+                ",
"                  V+@+i+W+X+Y+B Z+`+ @.@+@@@#@@@$@#+#+I+@+$+%@&@*@=@-@R+R+R+;@>@,@              ",
"                '@u+#+)@!@N.~@{@]@^@/@@@@@@@(@_@:@$@u+#+<@[@}@|@1@R+2@3@4@5@6@7@8@              ",
"                9@#+#+0@a@b@c@d@e@f@b.g@h@@@D+i@j@k@l@m@n@o@p@q@r@s@t@u@v@w@x@y@z@              ",
"                9@#+I+J+a@A@B@C@D@E@F@G@H@@@h@I@J@K@L@M@u+l@N@O@P@Q@R@S@n.T@U@V@W@X@            ",
"                9@#+@+$+Y@Z@`@q. #.#+#@#c+@@##(@D+W.$#%#&##+I.$@*#=#-#;#m.>#,#'#x.)#            ",
"                '@u+#+:+$+!#o.~#{#]#U.^#c+F+_@F+I@/#i@b+(#_##+H+u+@+$+K+l.Q.n.~#{#B             ",
"                :#<##+0@Q.$+n.[#}#|#1#2#3#I@##4#.@Z.5#6#7#8#9#0#0#0#a#:+#+J+Y@b#c#d#            ",
"                  e#u+#+0@Q.>#E.`@f#g#h#i#j#k#l#m#a+k#n#o#p#q#r#r#r#s#I.#+:+t#u#v#w#            ",
"                  x#y##+#+J+$+w@z#A#b.B#C#D#E#F#G#H#k#I#J#K#          L#I.#+I+M#N#O#            ",
"                    P#Q##+@+$+R#L+S#T#U#V#W#X#Y#Z#m#`# $.$              [.:++$@$#$Y $$          ",
"                    %$&$Q##+@+$+K+@$O#*$=$-$;$>$G#,$'$)$              !$~$J+{$5.u.]$b.          ",
"                    ^$/$($u+#+@+$+_$z#l :$<$[$}$|$1$2$                3$#+J+n.4$5$6$7$          ",
"                8$9$0$a$b$_##+I+Q.i+c$d#d$e$f$g$h$i$Y j$              k$u+J+L.o.}#l$m$n$        ",
"                o$#+p$q$r$s$H+#+@+J+i+-.t$u$v$w$x$y$5$j$                z$0@$++$A$t$B$C$        ",
"                9@#+D$E$F$G$y##+#+H$$+I$J$K$L$M$j#N$O$P$                Q$I.0@R#R$O#S$T$        ",
"                9@#+#+U$V$W$X$_##+I+Q.Y$Z$`$ %.%/++%@%#%                  $%#+:+>#v#%%&%*%      ",
"                9@#+#+:+$+!#=%-%u+#+H$;%>%,%'%)%Z#C+!%#%                    ~%u+:+{%,%]%^%      ",
"                9@#+I+J+$+!#/%(%_%#+#+;%;#z#:%'%<%C+[%}%                      H+@+Q.|%1%2%      ",
"                o$#+#+0@$+3%4%b#5%I.#+:+6%7%U@8%9%0%E+                        #+T@a%i+X+#$b%    ",
"                8$c%#+I+0@0@3%>%d%#+u+#+e%Z@z#f#f%g%h%i%                      H+j%k%l%m%n%o%    ",
"                  p%_##+#+#+@+i+q%r%s%9#t%u%v%5$w%x%y%z%                      y#A%B%O#C%D%E%F%  ",
"                    0#_##+#+I+Y@I$N#G%#+H%i+I%:%J%K%|#y%                      L%:+_$M%y%C N%O%  ",
"                    P%y#u+#+#+A%Z@N#G%Q%@+Q.R%N.S%T%U%B                       V%:+i+b@W%b.X%Y%  ",
"                    Z%`%Q##+#+@+ &.&G%+&Q#@+a%A@J$@&#&$&                      %&@+J+u#&&*&=&.&  ",
"                      -&Q##+#+@+ &;&>&,&$@Q#@+Y@'&)&!&~&                      %&#+H$Y@{&v+]&^&  ",
"                      /&Q##+#+@+ &;&(&_&u+H+u+I+:&<&[&V@                      }&|&1&&$2&        ",
"                        3&#+I+$+ &4&(&O$#+5&6&#+;%7&8&x%9&                                      ",
"                        0&u+I+J+:&s%a&&&u+Q#H+Q#I+b&w+c&d&e&                                    ",
"                        f&H+#+I+6%n.4.v%u+g&_#&$I+t#L+n%h&i&j&                                  ",
"                      k&l&u+_##+I+6%n%m&n&o&p&q&r&I+s&t&x%u&v&w&                                ",
"                    x&u+u+#+y&z&|&y&A&B&C&D&E&F&u+@+G&M%Y+H&I&J&K&                              ",
"                    #+#+_#u+J+$+$+_$`@L&M&N&O&P&u+0@K+s%Q&R&S&T&U&                              ",
"                  V&u+#+_#H+u+H$H$3%_$W&X&Y&Z&`&$@0@3%>% *n%.*+*                                ",
"                  @*H+u+_#o&o&H+u+@+Q.#*#*$*%*O&&*I+:+a%**=*-*;*                                ",
"                    >*,*,*'*)*!*~*{*]*^*#*/*(*N&_*:*<*&$[*}*|*1*                                ",
"                    2*3*N&N&4*5*6*7*8*9*0*a*    b*c*E&d*e*f*g*h*                                ",
"                        i*j*k*l*m*n*8*o*o*p*          q*r*r*s*                                  ",
"                          t*N&u*v*w*n*8*o*o*x*                                                  ",
"                          y*z*A*B*g*C*D*E*F*G*                                                  ",
"                            H*I*Z&4*O&J*f*n*K*                                                  ",
"                                  L*M*N*O*P*Q*                                                  "};
