/* XPM */
static char * troll1des5_xpm[] = {
"48 60 294 2",
"  	c None",
". 	c #E0E0D2",
"+ 	c #E1E1D6",
"@ 	c #DBDBCD",
"# 	c #E0E0D0",
"$ 	c #DFDFCC",
"% 	c #DBDBD0",
"& 	c #DCDCD4",
"* 	c #DEDECE",
"= 	c #DEDEC9",
"- 	c #DADAD0",
"; 	c #DADCD5",
"> 	c #DFDFD5",
", 	c #DADAC9",
"' 	c #E0E0CF",
") 	c #DADACD",
"! 	c #DDDDC9",
"~ 	c #D5D8C9",
"{ 	c #D1D5C9",
"] 	c #D8D8C9",
"^ 	c #D3D8C9",
"/ 	c #D8DBD4",
"( 	c #DADDD8",
"_ 	c #DEDED1",
": 	c #D9D6D4",
"< 	c #D9D9C9",
"[ 	c #DCDCC9",
"} 	c #DDDEC9",
"| 	c #D5D6C9",
"1 	c #D4D9C9",
"2 	c #CFD5C9",
"3 	c #D0D6CB",
"4 	c #D6D2D3",
"5 	c #D7D3D3",
"6 	c #D7D3D1",
"7 	c #D8D7CA",
"8 	c #D7D6CA",
"9 	c #D7D7C9",
"0 	c #DBDBC9",
"a 	c #CFD6C9",
"b 	c #D0D7CA",
"c 	c #D8D5D5",
"d 	c #D3CFCF",
"e 	c #D5D0D1",
"f 	c #D5D1D1",
"g 	c #D6D2D2",
"h 	c #D6D2D0",
"i 	c #D3D5C9",
"j 	c #D2D4C9",
"k 	c #D6D7C9",
"l 	c #DBDCC9",
"m 	c #D3D7C9",
"n 	c #D0D6C9",
"o 	c #D3D8CB",
"p 	c #D6DBCC",
"q 	c #D9D6D6",
"r 	c #D5D0D0",
"s 	c #D4D0D0",
"t 	c #D5D2D2",
"u 	c #D3D2D0",
"v 	c #D7D7D7",
"w 	c #D7D7CE",
"x 	c #CCD0C9",
"y 	c #CED4C9",
"z 	c #CFD4C9",
"A 	c #D9DBC9",
"B 	c #D6D8C9",
"C 	c #D2D7C9",
"D 	c #D9DCD5",
"E 	c #D8D6D6",
"F 	c #D1D2CD",
"G 	c #D1D5CE",
"H 	c #D0D4CB",
"I 	c #D2D5D0",
"J 	c #D5D6CB",
"K 	c #CDD2C9",
"L 	c #CED3C9",
"M 	c #D1D6C9",
"N 	c #D5D7C9",
"O 	c #D5D5C9",
"P 	c #D0D6CA",
"Q 	c #D5D3D3",
"R 	c #D2D4CF",
"S 	c #CED4CA",
"T 	c #D4D6C9",
"U 	c #D1D3C9",
"V 	c #CDD3C9",
"W 	c #D0D5C9",
"X 	c #D2D6C9",
"Y 	c #D6D3D3",
"Z 	c #D5D5D5",
"` 	c #D5D5D4",
" .	c #D4D5D3",
"..	c #D4D5D2",
"+.	c #CED2C9",
"@.	c #CDD1C9",
"#.	c #CFD5CA",
"$.	c #D5DACB",
"%.	c #D2D8CA",
"&.	c #CCCFC9",
"*.	c #CACBC9",
"=.	c #CED3CA",
"-.	c #D0D7C9",
";.	c #D4D9CF",
">.	c #D6D6D6",
",.	c #D1D4CD",
"'.	c #CACCC9",
").	c #D8DCD5",
"!.	c #D4D4D4",
"~.	c #D4D6D2",
"{.	c #CDD1CA",
"].	c #C9CAC9",
"^.	c #CBCEC9",
"/.	c #D2D7CD",
"(.	c #D9D9D8",
"_.	c #D4D7D2",
":.	c #CFD3CB",
"<.	c #D1D4CE",
"[.	c #D0D3CE",
"}.	c #D9D9D9",
"|.	c #CED1CC",
"1.	c #CBCFC9",
"2.	c #D3D4D2",
"3.	c #CBD1C9",
"4.	c #D6D7D5",
"5.	c #D4D9D0",
"6.	c #D5D7D2",
"7.	c #CED5C9",
"8.	c #D1D5CD",
"9.	c #DADADA",
"0.	c #D8D8D8",
"a.	c #D5D9D2",
"b.	c #D7DAD3",
"c.	c #CCD2C9",
"d.	c #D0D4CD",
"e.	c #CFD2CB",
"f.	c #D6D9D4",
"g.	c #D3D7D1",
"h.	c #D7DAD4",
"i.	c #CFD4CA",
"j.	c #D1D7CC",
"k.	c #D9DCD6",
"l.	c #D7DAD5",
"m.	c #CDD1CC",
"n.	c #D5D8D3",
"o.	c #CDD2CA",
"p.	c #D1D8CA",
"q.	c #D7DBD4",
"r.	c #D4DACB",
"s.	c #D2D9CA",
"t.	c #DADAD9",
"u.	c #CFD2CD",
"v.	c #CCCFCA",
"w.	c #D5D6D4",
"x.	c #DDDDDD",
"y.	c #D1D6CF",
"z.	c #D2D7CB",
"A.	c #D5DAD0",
"B.	c #D8D9D8",
"C.	c #D2D4D0",
"D.	c #CED1CB",
"E.	c #CDD0C9",
"F.	c #CED0CB",
"G.	c #D2D4D1",
"H.	c #CDD2CB",
"I.	c #CCD1C9",
"J.	c #DBDDD8",
"K.	c #D1D7CA",
"L.	c #D3D7CF",
"M.	c #D3D8CE",
"N.	c #D2D3D2",
"O.	c #D5D6D3",
"P.	c #D1D9CA",
"Q.	c #D2D7CE",
"R.	c #D3D3D3",
"S.	c #D4D3D3",
"T.	c #CDD0CA",
"U.	c #D1D5CC",
"V.	c #D3D0D0",
"W.	c #D5D2D1",
"X.	c #D4D7D1",
"Y.	c #D3D5D1",
"Z.	c #D1D4CF",
"`.	c #D8DBD6",
" +	c #D2D9CB",
".+	c #D0D5CA",
"++	c #D1D2CF",
"@+	c #D1D1D1",
"#+	c #CFCFCC",
"$+	c #D2D2D2",
"%+	c #D4D2D3",
"&+	c #D1CFCD",
"*+	c #D4D2D2",
"=+	c #CED2CA",
"-+	c #D3D1CF",
";+	c #D0D2CF",
">+	c #D2D0D1",
",+	c #D5D1D0",
"'+	c #DAD9D7",
")+	c #D9DBD7",
"!+	c #CED2CB",
"~+	c #D2D0CE",
"{+	c #D8D2D2",
"]+	c #D1D1CD",
"^+	c #D1D3CE",
"/+	c #D3D2D2",
"(+	c #D4D4D0",
"_+	c #D9DAD7",
":+	c #D2D7CC",
"<+	c #CFD1CB",
"[+	c #D7D2D2",
"}+	c #D6D2D1",
"|+	c #D4D0CF",
"1+	c #D6D4D4",
"2+	c #D2D8CC",
"3+	c #D3D1CE",
"4+	c #DAD4D4",
"5+	c #D0D3CC",
"6+	c #D6D6D4",
"7+	c #D5D7D3",
"8+	c #D4D2CF",
"9+	c #D8D3D2",
"0+	c #D8D8D7",
"a+	c #D3D6CF",
"b+	c #D0D4CE",
"c+	c #D2D8CB",
"d+	c #D7DBD3",
"e+	c #D2D0CD",
"f+	c #D5DAD1",
"g+	c #D6D7D4",
"h+	c #D6D8D3",
"i+	c #D8DBD5",
"j+	c #CED1CA",
"k+	c #D2D6CE",
"l+	c #D1D7CB",
"m+	c #CFD7C9",
"n+	c #D6DAD3",
"o+	c #DEDFDD",
"p+	c #D1D8CB",
"q+	c #D3D6D1",
"r+	c #CFD3CC",
"s+	c #CFD3C9",
"t+	c #CFCDC9",
"u+	c #D1D8CC",
"v+	c #CFD2CC",
"w+	c #D1C9C9",
"x+	c #D0CAC9",
"y+	c #D1CAC9",
"z+	c #D2CAC9",
"A+	c #D0D4C9",
"B+	c #D3CBCB",
"C+	c #D3C9C9",
"D+	c #D4C9C9",
"E+	c #D5DBCC",
"F+	c #DEDCDC",
"G+	c #D4CDCD",
"H+	c #D2C9C9",
"I+	c #D1D6CD",
"J+	c #D7D9D6",
"K+	c #DFDFDF",
"L+	c #DAD6D6",
"M+	c #CED1C9",
"N+	c #D4D2CD",
"O+	c #D8D8D5",
"P+	c #D0CBC9",
"Q+	c #D1CBC9",
"R+	c #D1CCC9",
"S+	c #D0CDC9",
"T+	c #D3CBC9",
"U+	c #DBD3D3",
"V+	c #DFDEDE",
"W+	c #D5CECE",
"X+	c #D2CCC9",
"Y+	c #D4CBC9",
"Z+	c #D7CCCC",
"`+	c #D4CAC9",
" @	c #D5C9C9",
".@	c #D7C9C9",
"+@	c #D9CDCD",
"@@	c #DDD7D7",
"#@	c #D0C9C9",
"$@	c #DAD5D5",
"%@	c #D2CACA",
"&@	c #D6C9C9",
"*@	c #DCD3D3",
"=@	c #D8D3D3",
"-@	c #D3CDCD",
";@	c #D9D5D5",
">@	c #D5CFCF",
",@	c #DBD8D8",
"'@	c #DBD1D1",
")@	c #DACFCF",
"!@	c #D6D1D1",
"~@	c #D3CACA",
"                                                                                                ",
"                                                                                                ",
"                                                                                                ",
"                                              .       +                                         ",
"                                              @ #     #                                         ",
"                                                $     %       &                                 ",
"                                                % *   % =     - ;                               ",
"                                          >       , ' ) ! ~ { ] ^ / (                           ",
"                                            & _ : < [ < [ } | , 1 2 3 (                         ",
"                                        4 5 6 7 8 9 ] [ [ = 9 0 ^ a a b                         ",
"                                  c d e f g h 8 | i j k [ ] ] l m n o p a                       ",
"                                q r s t u v w 9 x a a y z A B ~ C 9 k C a D                     ",
"                              E s t F G H I J 9 K z 2 L y 2 M N 9 O m P 2 a                     ",
"                              s Q R S L y y T U x K L V L 2 2 W X W a K K a                     ",
"                            Y Z Z `  ...L L T +.x x @.K L #.y $.%.@.&.*.=.-.;.                  ",
"                            >.>.Z Z >.>.>.>.,.@.@.@.@.@.K L K y @.L '.x ).                      ",
"                          v !.>.Z >.>.>.>.v ~.{.@.@.@.@.K '.*.*.].^.2 2 y /.(.                  ",
"                    _.K :.<.[.>.!.>.v v v v }.|.@.@.@.@.K K 1.&.2.#.2 y 3.4.  5.                ",
"                  6.@.K y 7.2 8.~.}.9.0.0.}.}.4.x @.@.@.@.K L a.b.#.y c.c.d.  5.                ",
"                  e.@.K L y 2 a P f.9.v Z 9.}.9.x @.@.@.@.@.g.h.i.c.c.c.c.c.j.b k.              ",
"                I @.@.@.V y 7.a -.-.l.9.9.9.}.0.(.x @.@.x m.}.n.o.c.c.V y c.a p.q.              ",
"                I @.@.@.K L 2 n r.s.a t.}.9.}.}.0.u.x x &.v.w.x.y.c.V z.P K 2 n A.              ",
"                I @.@.@.K L 2 2 a n a t.0.9.}.}.9.B.C.D.E.x F.G.H.3.I.c.K @.y n b J.            ",
"                I @.@.@.K K z 2 a K.-.L.0.9.}.}.}.>.v 2.{.@.x x x I.I.K L K L 2 a M.            ",
"                I @.@.@.@.K L z 2 p.-.3 v }.0.}.}.0.}.>.N.x @.x x @.@.K K @.K z 2 a             ",
"                O.@.@.@.@.@.K y 2 a P.a Q.}.}.0.v Z R.R.S.T.x x x x @.@.@.@.K L y 2             ",
"                  :.x @.@.@.K L z 2 p.-.U.Z !.R.R.!.!.R.V.W.X.Y.Y.Y.Z.x @.@.@.L y z             ",
"                  `.x @.@.@.@.K y 2 a  +.+++@+@+R.R.!.S.f             I x @.@.K y 2             ",
"                    #+x @.@.@.K L y 2 b a G $+@+R.R.%+f                 I @.K y 2 a ;.          ",
"                    &+x x @.@.@.K L 2 n p.G $+@+R.*+e                   =+@.V 2 a a a           ",
"                    s -+E.x @.@.@.K y 2 P y ;+$+>+,+'+                )+@.@.L 2 2 P a           ",
"                  !+~+{+]+x @.@.@.K L 2 n p.^+/+f (+a                 _+@.@.K L 2 b -.:+        ",
"                I @.<+[+}+T.x @.@.@.K y a -.H |+1+n.2                   <.@.@.K y a K.2+        ",
"                I @.@.3+4+5+x @.@.@.@.L z -.n 6+Z n.2                   7+E.@.K L 2 b 2+        ",
"                I @.@.@.8+9+h x @.@.@.K y 2 a w.v 0+a+                    b+@.@.K y 2 c+d+      ",
"                I @.@.@.@.K e+E.@.@.@.K L z 2 7+R.0.X.                      b+@.@.K z P f+      ",
"                I @.@.@.@.K z z x @.@.K K y y 2 g+0.h+                        x @.@.L 2 M.      ",
"                I @.@.@.@.K L L @.x @.@.@.L y 2 P n.                          @.@.K K y 2 i+    ",
"                  j+@.@.@.@.K L L @.E.@.@.K y 2 p 3 k+                        x K L y L 2 i+    ",
"                  !+x @.@.@.@.K L L L x x K y 2 K.a 2                         x @.L 2 a a l+    ",
"                    x x @.@.@.K V y 2 @.x K L y a P a a                       x @.K y 2 a m+m+  ",
"                    Z.x @.@.@.@.V y 2 K @.@.K y 2 n -.a                       L.@.K L 2 a -.-.  ",
"                      x x @.@.@.K y 2 n+x @.K L y n b 2                         @.@.+.2 2 2 y   ",
"                      _.x @.@.@.K y 2 o+x x @.K y 2 b n                         @.@.K L K X.    ",
"                      _+x @.@.@.K y 2 j.@.x x @.K z n n                         x x x e.        ",
"                        n.@.@.@.K y 2 2 @.x x @.@.L 2 a                                         ",
"                        n.@.@.@.K L 2 2 @.x x x @.K y a n                                       ",
"                        7+x @.@.@.+.y y x x x x @.@.V 7.a p+                                    ",
"                      q+r+x x @.@.@.7.s+t+x 1.1.x @.K y a a u+                                  ",
"                    v+@.@.@.I.1.x I.L z w+x+y+z+E.@.K y a a n l+                                ",
"                    @.@.x x @.@.@.K z A+B+w+C+D+@.@.K L 2 K.E+2                                 ",
"                  e.x @.x x x @.@.K K n+F+G+H+D+x @.K L b 2 y I+                                ",
"                  J+x x x x x x x @.@.K+K+L+H+C+t+@.@.K K M+N+                                  ",
"                    O+P+P+P+Q+R+1.S+T+U+K+V+W+H+z+x &.x X+Y+Z+                                  ",
"                      D+w+w+C+D+`+ @.@.@+@@@    #@x+y+y+D+ @D+L+                                ",
"                        $@%@H+D+ @&@.@.@.@*@          =@-@-@;@                                  ",
"                          >@H+C+ @&@&@.@.@.@                                                    ",
"                          ,@%@H+C+D+ @ @.@.@'@                                                  ",
"                            ,@w+H+C+C+D+ @&@)@                                                  ",
"                                  !@w+w+w+C+~@                                                  "};
