/* XPM */
static char * troll_small_xpm[] = {
"48 48 691 2",
"  	c None",
". 	c #FCFCD7",
"+ 	c #FAFABD",
"@ 	c #E5E5BC",
"# 	c #EFEFA0",
"$ 	c #FCFCD8",
"% 	c #C5C53E",
"& 	c #F1F14F",
"* 	c #F2F25B",
"= 	c #FAFAC8",
"- 	c #E0E04B",
"; 	c #F7F7C4",
"> 	c #C2C25D",
", 	c #E2E289",
"' 	c #C3C577",
") 	c #D0D397",
"! 	c #F5F5CE",
"~ 	c #F0F0BE",
"{ 	c #CFCF6B",
"] 	c #DDDD55",
"^ 	c #CFCF62",
"/ 	c #D1D212",
"( 	c #A0B766",
"_ 	c #A4AF4C",
": 	c #9EB343",
"< 	c #F1F1C2",
"[ 	c #E1E1A4",
"} 	c #DADA6A",
"| 	c #BDB079",
"1 	c #BBBB0B",
"2 	c #BBBB14",
"3 	c #C6C703",
"4 	c #9FB000",
"5 	c #8B9700",
"6 	c #82A505",
"7 	c #689B2C",
"8 	c #84AE5B",
"9 	c #DDD2D2",
"0 	c #977372",
"a 	c #A17F6C",
"b 	c #A59A29",
"c 	c #968D19",
"d 	c #9D9D00",
"e 	c #B5B500",
"f 	c #C4C400",
"g 	c #C6C700",
"h 	c #A3A500",
"i 	c #85A501",
"j 	c #478801",
"k 	c #4E9110",
"l 	c #8CB863",
"m 	c #957577",
"n 	c #784F50",
"o 	c #805253",
"p 	c #835E5C",
"q 	c #8B6958",
"r 	c #908417",
"s 	c #6C7D00",
"t 	c #5C7E01",
"u 	c #698300",
"v 	c #9EB000",
"w 	c #9EA200",
"x 	c #A1A800",
"y 	c #7FA100",
"z 	c #5F8C02",
"A 	c #78A313",
"B 	c #619D0D",
"C 	c #A1C380",
"D 	c #99797A",
"E 	c #865F60",
"F 	c #6B5045",
"G 	c #6D6B4A",
"H 	c #69774C",
"I 	c #868D47",
"J 	c #929308",
"K 	c #2D5E02",
"L 	c #428204",
"M 	c #3B7701",
"N 	c #3D7400",
"O 	c #799E00",
"P 	c #7B9500",
"Q 	c #789300",
"R 	c #848C00",
"S 	c #739004",
"T 	c #4C8804",
"U 	c #6A9F38",
"V 	c #D9CFCF",
"W 	c #806263",
"X 	c #716356",
"Y 	c #4C6725",
"Z 	c #457214",
"` 	c #437410",
" .	c #678311",
"..	c #717F02",
"+.	c #2A5501",
"@.	c #366B02",
"#.	c #356C00",
"$.	c #386E00",
"%.	c #407E00",
"&.	c #538400",
"*.	c #6D8D00",
"=.	c #628101",
"-.	c #4B8206",
";.	c #376C05",
">.	c #3F8002",
",.	c #978183",
"'.	c #7F7777",
").	c #7B7E75",
"!.	c #6D7D5E",
"~.	c #607B43",
"{.	c #346C00",
"].	c #597C00",
"^.	c #4A6700",
"/.	c #274F00",
"(.	c #295500",
"_.	c #2E5F00",
":.	c #346A00",
"<.	c #417C05",
"[.	c #538B0B",
"}.	c #65A010",
"|.	c #356602",
"1.	c #224301",
"2.	c #244406",
"3.	c #428306",
"4.	c #6BA037",
"5.	c #888888",
"6.	c #868686",
"7.	c #7F7F7F",
"8.	c #8B8B8B",
"9.	c #6D7F5C",
"0.	c #335B0E",
"a.	c #295200",
"b.	c #295600",
"c.	c #295900",
"d.	c #2F6000",
"e.	c #2D5700",
"f.	c #2C5900",
"g.	c #275200",
"h.	c #2C5B00",
"i.	c #1E3E00",
"j.	c #5A8333",
"k.	c #A2BB88",
"l.	c #D8DBD3",
"m.	c #ACBD9D",
"n.	c #89A271",
"o.	c #7F8E71",
"p.	c #6C7663",
"q.	c #838383",
"r.	c #818181",
"s.	c #8D8D8D",
"t.	c #929292",
"u.	c #8C9384",
"v.	c #426227",
"w.	c #295400",
"x.	c #295800",
"y.	c #2D5D00",
"z.	c #1A3700",
"A.	c #132A00",
"B.	c #243219",
"C.	c #2D5109",
"D.	c #3F7D00",
"E.	c #337101",
"F.	c #5D8939",
"G.	c #ADB8A1",
"H.	c #ADC990",
"I.	c #728D58",
"J.	c #41681B",
"K.	c #366A05",
"L.	c #437613",
"M.	c #4C7A1F",
"N.	c #6E8458",
"O.	c #898F83",
"P.	c #A4A3A3",
"Q.	c #9A9A9A",
"R.	c #9D9D9D",
"S.	c #A4A4A4",
"T.	c #758368",
"U.	c #275000",
"V.	c #295300",
"W.	c #295700",
"X.	c #2A5B00",
"Y.	c #2C5D00",
"Z.	c #3F681A",
"`.	c #728E57",
" +	c #497E15",
".+	c #357200",
"++	c #246200",
"@+	c #4D7739",
"#+	c #B2C1A3",
"$+	c #76A846",
"%+	c #486B24",
"&+	c #2A5700",
"*+	c #316500",
"=+	c #397400",
"-+	c #418202",
";+	c #4B8710",
">+	c #749852",
",+	c #A8ACA3",
"'+	c #939393",
")+	c #959595",
"!+	c #AAAAAA",
"~+	c #A5A7A4",
"{+	c #244D00",
"]+	c #386610",
"^+	c #769957",
"/+	c #628F3B",
"(+	c #2E6A05",
"_+	c #1F5E00",
":+	c #246107",
"<+	c #639437",
"[+	c #6CA338",
"}+	c #607E46",
"|+	c #2F5709",
"1+	c #2A5400",
"2+	c #2D5E00",
"3+	c #366D00",
"4+	c #3C7C00",
"5+	c #4A8F05",
"6+	c #529809",
"7+	c #78A14E",
"8+	c #ABADA9",
"9+	c #ACACAC",
"0+	c #ABABAB",
"a+	c #A2A2A2",
"b+	c #89957D",
"c+	c #274E05",
"d+	c #285000",
"e+	c #264D01",
"f+	c #49623B",
"g+	c #96A08F",
"h+	c #507D3A",
"i+	c #215F03",
"j+	c #2A6704",
"k+	c #3A7608",
"l+	c #2D6902",
"m+	c #428203",
"n+	c #68A32D",
"o+	c #A3C481",
"p+	c #648246",
"q+	c #305809",
"r+	c #2B5B00",
"s+	c #346800",
"t+	c #3F7E01",
"u+	c #4F910A",
"v+	c #5B9D0F",
"w+	c #478C03",
"x+	c #A7ABA2",
"y+	c #A7A7A7",
"z+	c #A8A8A8",
"A+	c #A5A5A5",
"B+	c #989D93",
"C+	c #536A40",
"D+	c #305212",
"E+	c #244A02",
"F+	c #334F1D",
"G+	c #7E8A74",
"H+	c #668755",
"I+	c #245D06",
"J+	c #316A05",
"K+	c #447B0C",
"L+	c #346603",
"M+	c #3D7801",
"N+	c #549316",
"O+	c #A4C783",
"P+	c #306300",
"Q+	c #3E7801",
"R+	c #428202",
"S+	c #488D07",
"T+	c #478E05",
"U+	c #849A6E",
"V+	c #A1A1A1",
"W+	c #A9A9A9",
"X+	c #A4A4A3",
"Y+	c #8A8E86",
"Z+	c #647158",
"`+	c #315411",
" @	c #274E03",
".@	c #325415",
"+@	c #2E5712",
"@@	c #225401",
"#@	c #265900",
"$@	c #2F6400",
"%@	c #376D00",
"&@	c #448503",
"*@	c #6AA236",
"=@	c #C4D9AF",
"-@	c #2E6000",
";@	c #396F00",
">@	c #3E7B00",
",@	c #4C8F08",
"'@	c #4B9407",
")@	c #5D8B30",
"!@	c #9E9E9E",
"~@	c #9B9B9B",
"{@	c #8F908E",
"]@	c #5D6952",
"^@	c #264F00",
"/@	c #285400",
"(@	c #326600",
"_@	c #3E7C00",
":@	c #468606",
"<@	c #B6D09D",
"[@	c #798D65",
"}@	c #365C11",
"|@	c #316400",
"1@	c #3C7600",
"2@	c #418200",
"3@	c #539B0D",
"4@	c #4A8E0B",
"5@	c #77935A",
"6@	c #969696",
"7@	c #747474",
"8@	c #6C6C6C",
"9@	c #6F6663",
"0@	c #3B5217",
"a@	c #315811",
"b@	c #305411",
"c@	c #305511",
"d@	c #2F5909",
"e@	c #3D7700",
"f@	c #B2C998",
"g@	c #61863E",
"h@	c #2C5E00",
"i@	c #346B00",
"j@	c #3E7900",
"k@	c #498D05",
"l@	c #51960E",
"m@	c #597C37",
"n@	c #696C66",
"o@	c #676767",
"p@	c #696969",
"q@	c #727272",
"r@	c #716D6D",
"s@	c #765355",
"t@	c #968475",
"u@	c #6F8A55",
"v@	c #6B8155",
"w@	c #70865B",
"x@	c #799163",
"y@	c #34590F",
"z@	c #2A5800",
"A@	c #336700",
"B@	c #3C7500",
"C@	c #32490D",
"D@	c #285100",
"E@	c #295A00",
"F@	c #2F6300",
"G@	c #387300",
"H@	c #408100",
"I@	c #50950E",
"J@	c #4A7F19",
"K@	c #5B664F",
"L@	c #5A5A5A",
"M@	c #686868",
"N@	c #6D6969",
"O@	c #795F62",
"P@	c #A58688",
"Q@	c #C9D1C1",
"R@	c #7D9466",
"S@	c #335B0C",
"T@	c #366F00",
"U@	c #3F7E00",
"V@	c #85AF5B",
"W@	c #43411F",
"X@	c #254C00",
"Y@	c #285200",
"Z@	c #2B5D00",
"`@	c #336900",
" #	c #498C06",
".#	c #528E1A",
"+#	c #5D6D4F",
"@#	c #575757",
"##	c #696767",
"$#	c #755D5F",
"%#	c #A38386",
"&#	c #7F9767",
"*#	c #305B08",
"=#	c #316700",
"-#	c #3E7E01",
";#	c #448804",
">#	c #4A8C0B",
",#	c #B1B6A1",
"'#	c #714B44",
")#	c #535029",
"!#	c #2A4E04",
"~#	c #2B5F00",
"{#	c #356B00",
"]#	c #438202",
"^#	c #448407",
"/#	c #486927",
"(#	c #61615A",
"_#	c #6B5251",
":#	c #86765C",
"<#	c #A2AD82",
"[#	c #67844A",
"}#	c #326500",
"|#	c #407A00",
"1#	c #468805",
"2#	c #468D05",
"3#	c #BED5A7",
"4#	c #9FB190",
"5#	c #43631F",
"6#	c #675139",
"7#	c #815B4F",
"8#	c #3B4F15",
"9#	c #2A5900",
"0#	c #306100",
"a#	c #4B8E07",
"b#	c #537D1D",
"c#	c #695A49",
"d#	c #846861",
"e#	c #638533",
"f#	c #93BA6E",
"g#	c #789260",
"h#	c #2E5906",
"i#	c #386F00",
"j#	c #458505",
"k#	c #4C900B",
"l#	c #5C9622",
"m#	c #638146",
"n#	c #31580A",
"o#	c #48531D",
"p#	c #8D6259",
"q#	c #5E5F30",
"r#	c #274E02",
"s#	c #356D00",
"t#	c #448403",
"u#	c #4C8709",
"v#	c #75744D",
"w#	c #817F77",
"x#	c #678E40",
"y#	c #93B76E",
"z#	c #8A9E76",
"A#	c #3C6119",
"B#	c #306500",
"C#	c #4C8D0B",
"D#	c #5C9A23",
"E#	c #2F5205",
"F#	c #5C5B2D",
"G#	c #886850",
"H#	c #6A5A3A",
"I#	c #2E6300",
"J#	c #3B7901",
"K#	c #448602",
"L#	c #74895B",
"M#	c #90928F",
"N#	c #7D9267",
"O#	c #9EB881",
"P#	c #D4DBCD",
"Q#	c #708A59",
"R#	c #2C5503",
"S#	c #427F03",
"T#	c #62A223",
"U#	c #92B86C",
"V#	c #2D5F00",
"W#	c #4D561D",
"X#	c #2B5402",
"Y#	c #376C00",
"Z#	c #3E7A00",
"`#	c #698C44",
" $	c #787B76",
".$	c #8E9981",
"+$	c #A9BE91",
"@$	c #65814C",
"#$	c #2B5C00",
"$$	c #376F00",
"%$	c #4F8C13",
"&$	c #85B35B",
"*$	c #3A6F01",
"=$	c #356502",
"-$	c #2A5A00",
";$	c #397200",
">$	c #407D00",
",$	c #749358",
"'$	c #929C87",
")$	c #BCC5B2",
"!$	c #CED8C6",
"~$	c #2F6200",
"{$	c #428006",
"]$	c #82AD58",
"^$	c #3D611B",
"/$	c #306200",
"($	c #346600",
"_$	c #2C5800",
":$	c #366C00",
"<$	c #3F7C00",
"[$	c #6AA420",
"}$	c #6E9449",
"|$	c #B6C3A7",
"1$	c #336A00",
"2$	c #387200",
"3$	c #61942E",
"4$	c #395E1B",
"5$	c #346700",
"6$	c #254F00",
"7$	c #285500",
"8$	c #356900",
"9$	c #58990C",
"0$	c #468807",
"a$	c #97B974",
"b$	c #CDD6C6",
"c$	c #265000",
"d$	c #3E8100",
"e$	c #4C8F10",
"f$	c #98BF74",
"g$	c #2A5009",
"h$	c #3E7700",
"i$	c #2B5600",
"j$	c #275500",
"k$	c #387400",
"l$	c #448603",
"m$	c #468A05",
"n$	c #428600",
"o$	c #C9DCB6",
"p$	c #CBD5C1",
"q$	c #305A08",
"r$	c #357000",
"s$	c #438C01",
"t$	c #458E02",
"u$	c #BED7A7",
"v$	c #698352",
"w$	c #254D00",
"x$	c #2B5A00",
"y$	c #336B00",
"z$	c #4D7822",
"A$	c #418102",
"B$	c #498D07",
"C$	c #448802",
"D$	c #C8DBB6",
"E$	c #6C8F4A",
"F$	c #336600",
"G$	c #428602",
"H$	c #438604",
"I$	c #BDD3A8",
"J$	c #B7C3AC",
"K$	c #3E611E",
"L$	c #326C00",
"M$	c #9CB586",
"N$	c #254E00",
"O$	c #3A7601",
"P$	c #478906",
"Q$	c #478B05",
"R$	c #90A67B",
"S$	c #387000",
"T$	c #447A12",
"U$	c #749C50",
"V$	c #BACDA8",
"W$	c #3E7E00",
"X$	c #639038",
"Y$	c #326700",
"Z$	c #427D04",
"`$	c #478806",
" %	c #C9DCB7",
".%	c #8DA17B",
"+%	c #234C00",
"@%	c #244C00",
"#%	c #4F702F",
"$%	c #C3D2B6",
"%%	c #CFDBC4",
"&%	c #829A6A",
"*%	c #43671F",
"=%	c #2A5C00",
"-%	c #326B00",
";%	c #3D7E00",
">%	c #3B7600",
",%	c #264D00",
"'%	c #408200",
")%	c #9EC17C",
"!%	c #80986A",
"~%	c #41651F",
"{%	c #3A7500",
"]%	c #397100",
"^%	c #3B7A00",
"/%	c #478908",
"(%	c #A2C781",
"_%	c #BAC7B0",
":%	c #617F47",
"<%	c #365C12",
"[%	c #2C5A00",
"}%	c #377000",
"|%	c #3A6300",
"1%	c #2D3F00",
"2%	c #204700",
"3%	c #1E4200",
"4%	c #366E00",
"5%	c #418500",
"6%	c #599A1E",
"7%	c #9BC278",
"8%	c #527235",
"9%	c #31590C",
"0%	c #2A5302",
"a%	c #255100",
"b%	c #214600",
"c%	c #255000",
"d%	c #455D00",
"e%	c #4E1000",
"f%	c #481600",
"g%	c #521400",
"h%	c #2B5900",
"i%	c #346D00",
"j%	c #408300",
"k%	c #458C04",
"l%	c #59971F",
"m%	c #ABCA8D",
"n%	c #A8B797",
"o%	c #285600",
"p%	c #2B5E00",
"q%	c #5C751F",
"r%	c #762B2B",
"s%	c #640404",
"t%	c #710000",
"u%	c #275100",
"v%	c #458004",
"w%	c #5A960D",
"x%	c #5E9913",
"y%	c #A0C082",
"z%	c #5A773E",
"A%	c #92AC72",
"B%	c #B58D8D",
"C%	c #722121",
"D%	c #6B0000",
"E%	c #2F4300",
"F%	c #407706",
"G%	c #406B05",
"H%	c #6A863C",
"I%	c #B4C9A2",
"J%	c #5E6637",
"K%	c #3A2F00",
"L%	c #382B00",
"M%	c #412B00",
"N%	c #353A00",
"O%	c #304000",
"P%	c #4B3600",
"Q%	c #B06761",
"R%	c #976060",
"S%	c #630707",
"T%	c #4A2400",
"U%	c #473D00",
"V%	c #66320A",
"W%	c #A6786A",
"X%	c #B38580",
"Y%	c #5F0500",
"Z%	c #560500",
"`%	c #640500",
" &	c #6B0D00",
".&	c #6E1000",
"+&	c #850700",
"@&	c #9E1C1B",
"#&	c #B75D5D",
"$&	c #D3B3B3",
"%&	c #CBAFAF",
"&&	c #4E0800",
"*&	c #451600",
"=&	c #4C1600",
"-&	c #6A0A00",
";&	c #7A0502",
">&	c #984848",
",&	c #793030",
"'&	c #640202",
")&	c #740000",
"!&	c #820000",
"~&	c #8E0000",
"{&	c #960000",
"]&	c #A41F1F",
"^&	c #C06565",
"/&	c #996C6C",
"(&	c #733535",
"_&	c #793E3E",
":&	c #976464",
"<&	c #630B0B",
"[&	c #7A0000",
"}&	c #830000",
"|&	c #8C0000",
"1&	c #950000",
"2&	c #B64E4E",
"3&	c #E6C2C2",
"4&	c #925858",
"5&	c #5E0000",
"6&	c #690000",
"7&	c #700000",
"8&	c #7B0000",
"9&	c #870000",
"0&	c #A4292A",
"a&	c #E7C4C5",
"b&	c #C7AAAA",
"c&	c #A37171",
"d&	c #611010",
"e&	c #5A0000",
"f&	c #630000",
"g&	c #750E0F",
"h&	c #D2B1B2",
"                                                    .                                           ",
"                                                    +                                           ",
"                                            @ #       $                                         ",
"                                              % &   * =                                         ",
"                                                - ; > ,   ' )                                   ",
"                                          ! ~   { ] ^ / ( _ :                                   ",
"                                          < [ } | 1 2 3 4 5 6 7 8                               ",
"                                        9 0 a b c d e f g h i j k l                             ",
"                                    m n o p q r s t u v w x y z A B C                           ",
"                                  D E F G H I J K L M N O P Q R S T U                           ",
"                                V W X Y Z `  ...+.@.#.$.%.&.*.=.-.;.>.                          ",
"                                ,.'.).!.~.{.].^./.(._.:.<.[.}.|.1.2.3.4.                        ",
"                                5.6.7.6.6.8.9.0.a.b.c.d.e.f.g.h.i.j.k.l.                        ",
"                          m.n.o.p.q.r.s.s.t.u.v.a.w.x.y.z.A.B.C.D.E.F.G.H.                      ",
"                        I.J.K.L.M.N.O.P.Q.R.S.T.U.V.W.X.Y.Z.`. +.+++@+#+$+                      ",
"                        %+&+*+=+-+;+>+,+'+)+!+~+{+a.V.(.]+^+/+(+++_+:+<+[+                      ",
"                      }+|+1+2+3+4+5+6+7+8+9+0+a+b+c+d+e+f+g+h+i+j+k+l+m+n+o+                    ",
"                      p+q+w.r+s+t+u+v+w+x+y+z+A+B+C+D+E+F+G+H+I+J+K+L+M+N+O+                    ",
"                      p+q+(.r+P+Q+R+S+T+U+V+W+W+X+Y+Z+`+ @.@+@@@#@$@d.%@&@*@=@                  ",
"                      }+|+w.c.-@;@>@,@'@)@!@A+z+S.~@{@]@^@U.^@/@X._.r+(@_@:@<@                  ",
"                      [@}@a.b.c.|@1@2@3@4@5@R.6@6.7@8@9@0@a@b@c@d@V.b.Y.$.e@f@                  ",
"                        g@^@V.W.h@i@j@k@l@m@n@o@p@q@r@s@t@u@v@w@x@y@V.z@A@B@f@                  ",
"                          C@D@(.E@F@G@H@I@J@K@L@M@N@O@P@        Q@R@S@2+T@U@V@                  ",
"                          W@X@Y@b.Z@`@j@ #.#+#@###$#%#            &#*#=#-#;#>#                  ",
"                        ,#'#)#!#a.b.~#{#]#^#/#(#_#:#<#            [#b.}#|#1#2#3#                ",
"                      4#5#6#7#8#d+w.9#0#M+a#b#c#d#e#f#            g#h#2+i#j#k#l#                ",
"                      m#n#o#p#q#r#a.(.X.s#t#u#v#w#x#y#            z#A#x.B#M+C#D#                ",
"                      p+q+E#F#G#H#^@V.x.I#J#K#L#M#N#O#            P#Q#R#r+{#S#T#U#              ",
"                      p+q+V.x.V#W#X#D@(.Y.Y#Z#`# $.$+$                @$Y@#$$$%$&$              ",
"                      m#q+w.x.h@*$=$d+a.-$}#;$>$,$'$)$                !$Y@z@~${$]$              ",
"                      4#^$V.(.z@/$($_$D@w.y.:$<$[$}$|$                !$V.d.1$2$3$              ",
"                        4$^@a.V.&+P+5$5$6$7$8$%.9$0$a$                b$c$/$1@d$e$f$            ",
"                          g$^@a.w.V#{.h$i$j$B#k$l$m$n$o$              p$q$Z@r$2@s$t$u$          ",
"                          v$w$D@a.x$y$h$z$/@#$i@A$B$C$D$                E$9#F$<$G$H$I$          ",
"                          J$K$D@a.9#L$>@M$N$(._.O$P$Q$o$                R$(.y.S$T$U$V$          ",
"                            }+D@a.9#L$W$X$^@c$w.Y$Z$`$ %                .%+%@%#%$%%%            ",
"                            &%*%w.=%-%;%>%d+,%D@r+3+'%)%                                        ",
"                            !%~%V.9#|@{%]%^@{+@%(.$@^%/%(%                                      ",
"                          _%:%<%^@w.[%}%|%1%2%3%/.h.4%5%6%7%                                    ",
"                          8%9%0%a%b%c%s+d%e%f%g%d+h%i%j%k%l%m%                                  ",
"                        n%a.^@^@o%c.p%4%q%r%s%t%u%h%A@v%w%x%y%                                  ",
"                        z%U.^@@%w$/@&+h@A%B%C%D%E%&+d.F%G%H%I%                                  ",
"                          J%K%L%M%N%O%P%Q%  R%S%T%X@N$U%V%W%                                    ",
"                          X%Y%Z%`% &.&+&@&#&$&%&&&*&=&-&;&>&                                    ",
"                              ,&'&)&!&~&{&]&^&      /&(&_&                                      ",
"                              :&<&D%[&}&|&1&2&3&                                                ",
"                                4&5&6&7&8&9&0&a&                                                ",
"                                  b&c&d&e&f&g&h&                                                "};
