/* XPM */
static char * walk3_xpm[] = {
"60 60 183 2",
"  	c None",
". 	c #B4B4B4",
"+ 	c #8D8C8C",
"@ 	c #737373",
"# 	c #7C7C7C",
"$ 	c #BDBDBC",
"% 	c #A8A8A8",
"& 	c #3C3C3C",
"* 	c #1B1B1B",
"= 	c #141414",
"- 	c #686867",
"; 	c #282827",
"> 	c #090907",
", 	c #343433",
"' 	c #E4E4E3",
") 	c #242423",
"! 	c #0D0E13",
"~ 	c #2C2C2B",
"{ 	c #DDDDDC",
"] 	c #585858",
"^ 	c #1B1917",
"/ 	c #545454",
"( 	c #444443",
"_ 	c #D4D5D4",
": 	c #1B1B22",
"< 	c #2F2A12",
"[ 	c #31312F",
"} 	c #ACACAC",
"| 	c #020202",
"1 	c #787B83",
"2 	c #171818",
"3 	c #5D6069",
"4 	c #A5A5A4",
"5 	c #03040B",
"6 	c #989898",
"7 	c #B0B0B0",
"8 	c #959493",
"9 	c #0C0C0C",
"0 	c #858584",
"a 	c #CCCCCB",
"b 	c #0E0F21",
"c 	c #3B2E03",
"d 	c #463909",
"e 	c #1F1B0F",
"f 	c #908A82",
"g 	c #515050",
"h 	c #0B0D19",
"i 	c #7A7517",
"j 	c #B9B309",
"k 	c #F8DF01",
"l 	c #DBAF03",
"m 	c #CBA404",
"n 	c #A68200",
"o 	c #978F6E",
"p 	c #645C1F",
"q 	c #D7CF3C",
"r 	c #FEFE0E",
"s 	c #DED507",
"t 	c #FFFD03",
"u 	c #F4D501",
"v 	c #B79200",
"w 	c #695C27",
"x 	c #ECEDF2",
"y 	c #12120F",
"z 	c #050814",
"A 	c #71600E",
"B 	c #F7EF05",
"C 	c #ECE406",
"D 	c #FFF602",
"E 	c #FDDC02",
"F 	c #D4A903",
"G 	c #4A3C01",
"H 	c #949599",
"I 	c #C7AB06",
"J 	c #FDED03",
"K 	c #FEE402",
"L 	c #AE8C04",
"M 	c #EAEAE8",
"N 	c #65540D",
"O 	c #7D6302",
"P 	c #A38A06",
"Q 	c #B7A305",
"R 	c #C4A204",
"S 	c #997B00",
"T 	c #54450C",
"U 	c #726B52",
"V 	c #403509",
"W 	c #2E2200",
"X 	c #5B4805",
"Y 	c #655207",
"Z 	c #453A11",
"` 	c #3C3A30",
" .	c #91918F",
"..	c #484847",
"+.	c #FFFFFF",
"@.	c #9C9C9B",
"#.	c #4C4839",
"$.	c #40403F",
"%.	c #4B4B4C",
"&.	c #EDEDED",
"*.	c #535459",
"=.	c #E1E1E0",
"-.	c #F8F8FC",
";.	c #F5F5F5",
">.	c #646363",
",.	c #C8C8C8",
"'.	c #D4D2CA",
").	c #C5C5C4",
"!.	c #5C5C5B",
"~.	c #B8B8B8",
"{.	c #9EA0AB",
"].	c #6C6C6B",
"^.	c #ABACB3",
"/.	c #A9A498",
"(.	c #D0B747",
"_.	c #DFC027",
":.	c #E2CC75",
"<.	c #A4A39D",
"[.	c #A2A5B3",
"}.	c #AFA589",
"|.	c #E4C218",
"1.	c #FBD402",
"2.	c #EDC403",
"3.	c #CDB330",
"4.	c #81807E",
"5.	c #C9B564",
"6.	c #C9AE42",
"7.	c #A09EA2",
"8.	c #BC9F43",
"9.	c #C5B150",
"0.	c #544D32",
"a.	c #CCB00D",
"b.	c #DBB401",
"c.	c #E9CE03",
"d.	c #B09E5F",
"e.	c #DADCE3",
"f.	c #10100D",
"g.	c #90908F",
"h.	c #645A37",
"i.	c #B89617",
"j.	c #C4C7D0",
"k.	c #747370",
"l.	c #484022",
"m.	c #C09905",
"n.	c #F8CB03",
"o.	c #CDB51A",
"p.	c #37393F",
"q.	c #897213",
"r.	c #AC9543",
"s.	c #6D6C71",
"t.	c #9B937A",
"u.	c #8D6D00",
"v.	c #C29A04",
"w.	c #B48F01",
"x.	c #937604",
"y.	c #95864A",
"z.	c #735E01",
"A.	c #8F8662",
"B.	c #A3A5AB",
"C.	c #A8A9AC",
"D.	c #FFF8D3",
"E.	c #776700",
"F.	c #CBAA04",
"G.	c #ECBF02",
"H.	c #4C431D",
"I.	c #C2C2C0",
"J.	c #BBBCC1",
"K.	c #FDF122",
"L.	c #A1820B",
"M.	c #FEFBE1",
"N.	c #F8E218",
"O.	c #F1D10F",
"P.	c #F8DD08",
"Q.	c #F6F0E3",
"R.	c #EDE2C0",
"S.	c #EAE4CE",
"T.	c #F4DC73",
"U.	c #957A13",
"V.	c #F9F2DB",
"W.	c #F7E9A8",
"X.	c #E8D99B",
"Y.	c #F3E7BD",
"Z.	c #E3D8B4",
"                                                                                                                        ",
"                                                                                                                        ",
"                                                                                                                        ",
"                                                                                                                        ",
"                                                                                                                        ",
"                                                                                                                        ",
"                                                                                                                        ",
"                                                                                                                        ",
"                                                                                                                        ",
"                                        . + @ # $                                                                       ",
"                                    % & * = = = = -                                                                     ",
"                                  + = * ; ; ; ; * > , '                                                                 ",
"                                $ = ; ; * ) ) * * * ! ~ {                                                               ",
"                                ] ^ ; * / ( * * * * * > ,                                                               ",
"                              _ * : < [ } [ = * * * * ) | 1                                                             ",
"                              } = ) 2 3 4 = * 2 * 2 * 2 5 <                                                             ",
"                              6 > ) * / 7 ) ^ ^ * * = 5 > | .                                                           ",
"                              8 > * * ~ @ = = ! * * > > 9 | 0                                                           ",
"                              % 9 * * ) = | * 9 = ^ > > 9 | #                                                           ",
"                              a 9 2 * * > = * * * ) > 5 5 | 0                                                           ",
"                                * > * * > * * * b : ^ c d e f                                                           ",
"                                g | > = > * h ^ i j k l m n o                                                           ",
"                                0 | > 9 9 ! p q r s t u l v w x                                                         ",
"                                $ > 5 y z A t r B C D D E F G H                                                         ",
"                                  = = * = I D t t t D J K L e * M                                                       ",
"                                x ; = * * N O P Q I I R S T * | -                                                       ",
"                                $ 2 * * 2 * U V W c X Y Z ` , | |  .                                                    ",
"                                @ 9 ; ; ! ..+.M @.#.< , $.& & = | > %                                                   ",
"                              _ * : < ) = %.+.+.+.&.6 ( [ & $.~ | | > .                                                 ",
"                              / 9 ` *.) * %.+.+.+.+.+.=.# $., , y | > = _                                               ",
"                            4 ! ~ # %.: ) 0 +.+.+.+.-.+.+.=.6 @ 0 / | | &                                               ",
"                          M ~ * / , = ~ / { +.+.+.+.+.+.+.+.;.' ' _ >.| | +                                             ",
"                          @ y & ) y : [ & M +.+.+.+.+.+.+.+.&.' { _ ,.g | )                                             ",
"                        ,.= & ) 5 = ; ^ + +.+.+.+.+.+.+.+.+.;.M { _ ,.4 ; | a                                           ",
"                        - ; & | 9 ) < , M +.+.+.+.+.+.+.+.+.;.M =.{ ,.. ] | }                                           ",
"                      ' ) ( = | * ; h 8 +.-.+.+.+.+.+.+.+.+.-.&.' _ ,.. # | 6                                           ",
"                      4 * & | > ) * ..;.+.+.+.+.+.+.+.+.+.+.+.&.{ _ ,..  .* +                                           ",
"                      # = ~ | | ) = # +.+.+.+.+.+.+.+.+.+.+.+.&.{ _ ,.. 8 & @ . . M                                     ",
"                      >.= = | > ; = 0 +.-.+.+.+.+.+.+.+.+.+.+.M { _ $ } 8 ] + } 4 4                                     ",
"                      %.= = | > ) =  .+.+.+.+.+.+.+.+.+.+.+.-.=._ '.).7  .>.+ } 4 %                                     ",
"                      %.^ = | 9 ) = 0 +.+.+.+.+.+.+.+.+.+.+.;.{ _ ,.$ } 8 !.0 } 4 7                                     ",
"                      / = = | > * = # +.-.+.+.+.+.+.+.+.+.+.&.{ ,.).~.4 8 ] 0 } % {.7                                   ",
"                      - = = | | * = ].+.+.+.+.+.+.+.+.+.+.+.&._ ).$ } @.0 ( 8 ^./.(._.:.                                ",
"                      + > ) , | * 9 / +.+.+.+.+.+.+.+.+.-.&.{ ,.$ } <.8 - %.[.}.|.1.2.3.                                ",
"                      } 9 ; - | * = ~ ;.+.+.+.+.+.+.-.;.&.M _ $ } <.8 4...1 5.u t J 6.                                  ",
"                      { * * . ~ > * = } +.+.+.-.+.;.&.M { _ ).. 7.8 0 *.%.8.k t k 9.                                    ",
"                        & > ~.} | = = * } +.;.;.&.M { _ a ).. 4 + 4.3 0.a.2.b.c.d.e.                                    ",
"                        0 | 6 +.!.| 9 9 f.6 M { a a ,.).$ . <.g.4.3 h.b.t t i.f j.=.a $ } % M                           ",
"                        ).| + +.+.# | 5 | 9 k.).).$ . 7 % 4 6 4.%.l.m.n.K o.@.} } 4 4 4 @.,.                            ",
"                          ~ ].+.'.U N d 9 | | p.+ @.8 + g.# / * ) q.v v r.7.% % % 4 4 % $ M                             ",
"                          4 s.t.c u.l v.w.x.X W = ! y 9 > | > & H y.z.A.B.C.% 4 @.. {                                   ",
"                          D.o.E.F.1.b.m F G.E 2.w.H.%.$...].% { ' M I.J.} % % 7 ,.                                      ",
"                          K.t J D K 1.2.v.m t t E L.a                     x                                             ",
"                        M.N.k 2.O.1.t J w.O P.J 1.L._                                                                   ",
"                          Q.R.S.  T.K c.U./.V.W.X.S.                                                                    ",
"                                    Y.Z.M                                                                               ",
"                                                                                                                        ",
"                                                                                                                        ",
"                                                                                                                        ",
"                                                                                                                        "};
