/* XPM */
static char * walk1des5_xpm[] = {
"60 60 139 2",
"  	c None",
". 	c #D3D3D3",
"+ 	c #CFCFCE",
"@ 	c #CDCDCC",
"# 	c #D2D2D2",
"$ 	c #D1D1D1",
"% 	c #CBCBCB",
"& 	c #CCCCCC",
"* 	c #CBCBCC",
"= 	c #CACACA",
"- 	c #D1D0CE",
"; 	c #C9C9C9",
"> 	c #D6D6D6",
", 	c #CECECE",
"' 	c #CFCFCF",
") 	c #CACAC9",
"! 	c #D4D4D4",
"~ 	c #CACACB",
"{ 	c #D5D5D5",
"] 	c #CDCDCD",
"^ 	c #D0D0D0",
"/ 	c #DDDDDD",
"( 	c #DADADA",
"_ 	c #D8D8D8",
": 	c #CBCBCD",
"< 	c #C9C9CB",
"[ 	c #C9C9CA",
"} 	c #D0D0CA",
"| 	c #D4D3CA",
"1 	c #D3D1C9",
"2 	c #D0CEC9",
"3 	c #CBCAC9",
"4 	c #CECECA",
"5 	c #D9D8CF",
"6 	c #DFDECC",
"7 	c #E2E1C9",
"8 	c #E1E0C9",
"9 	c #E2E0C9",
"0 	c #DED9C9",
"a 	c #D9D5C9",
"b 	c #D2D0CB",
"c 	c #CECDCB",
"d 	c #DFDEC9",
"e 	c #E2E2CB",
"f 	c #E2E1CA",
"g 	c #E1DDC9",
"h 	c #DBD8C9",
"i 	c #D5D3CA",
"j 	c #CACACC",
"k 	c #D4D2CA",
"l 	c #E0DDC9",
"m 	c #E0DEC9",
"n 	c #E2E1CB",
"o 	c #E0DCC9",
"p 	c #D5D3C9",
"q 	c #CDCDCA",
"r 	c #D4D1C9",
"s 	c #D4D2C9",
"t 	c #D9D7CA",
"u 	c #DDDBC9",
"v 	c #DEDCCA",
"w 	c #CECDC9",
"x 	c #CDCDCE",
"y 	c #DBDAD9",
"z 	c #D5D3CC",
"A 	c #CFCEC9",
"B 	c #D8D5C9",
"C 	c #D0CFCA",
"D 	c #D7D7D7",
"E 	c #E2E2E2",
"F 	c #E0E0DF",
"G 	c #D8D8D5",
"H 	c #D0D0CC",
"I 	c #CFCECC",
"J 	c #E2E1E1",
"K 	c #E0E0E0",
"L 	c #DBDBDB",
"M 	c #E1E1E1",
"N 	c #DEDEDE",
"O 	c #D9D9D9",
"P 	c #D6D6D5",
"Q 	c #DFDFDF",
"R 	c #DCDCDC",
"S 	c #DCDCDB",
"T 	c #DADADB",
"U 	c #E0E0E1",
"V 	c #D6D5D1",
"W 	c #D2D2D0",
"X 	c #D8D7D7",
"Y 	c #CECDCA",
"Z 	c #D1CFC9",
"` 	c #D6D3C9",
" .	c #DCD8C9",
"..	c #DEDACB",
"+.	c #DEDBD0",
"@.	c #CBCBCA",
"#.	c #D3D1CA",
"$.	c #DAD7C9",
"%.	c #DEDAC9",
"&.	c #DFDAC9",
"*.	c #E1DEC9",
"=.	c #DCD8CB",
"-.	c #DEDACA",
";.	c #D7D4C9",
">.	c #D2D0C9",
",.	c #CDCCC9",
"'.	c #D7D5C9",
").	c #DFDBC9",
"!.	c #E1DFC9",
"~.	c #DFDBCA",
"{.	c #DEDACC",
"].	c #DDD9C9",
"^.	c #DAD6CA",
"/.	c #D3D1CB",
"(.	c #DCD9CD",
"_.	c #E2DFCA",
":.	c #DBD7C9",
"<.	c #DBDAD3",
"[.	c #DDDBD4",
"}.	c #E1E0CD",
"|.	c #D9D6CC",
"1.	c #E0DED5",
"2.	c #E2E0D2",
"3.	c #E2E0CE",
"4.	c #E0DDCA",
"5.	c #DEDCD8",
"6.	c #E0DDD3",
"7.	c #E0DBC9",
"8.	c #DEDBC9",
"9.	c #E2E1D8",
"0.	c #E1DFD6",
"a.	c #E1DECF",
"b.	c #DCDAD0",
"c.	c #E1DFCB",
"d.	c #DCD7C9",
"e.	c #E1E0D5",
"f.	c #E2E0D1",
"g.	c #E1E0D3",
"h.	c #DFDCCF",
"                                                                                                                        ",
"                                                                                                                        ",
"                                                                                                                        ",
"                                                                                                                        ",
"                                                                                                                        ",
"                                                                                                                        ",
"                                                                                                                        ",
"                                                                                                                        ",
"                                                                                                                        ",
"                                                  . + @ + #                                                             ",
"                                              $ % % % & * = =                                                           ",
"                                            - % @ @ & & @ & % ;                                                         ",
"                                          > % @ & & & & % % % % %                                                       ",
"                                          , % @ & , & % % % % % ; '                                                     ",
"                                          = @ & @ , @ & % % % % & )                                                     ",
"                                        ! ) @ & @ + % = % % % % ~ ; {                                                   ",
"                                        $ = & & ] ' ' ^ = % % % # , ^                                                   ",
"                                        ^ % % & % ^ / / $ = % $ ( _ ^                                                   ",
"                                        ' % % % = { $ % ! @ % # % + .                                                   ",
"                                        + = % % @ + = ; % : < [ ; ; .                                                   ",
"                                        , ; % = % & ; ) } | 1 2 3 =                                                     ",
"                                        ' % % % < 4 5 6 7 8 9 0 a b                                                     ",
"                                        ^ % % % c d e f 8 d 9 g h i                                                     ",
"                                        & % & j k l m 7 7 7 n n o p                                                     ",
"                                        % & @ % q r s t h u v v h w _                                                   ",
"                                      $ % & @ % x y z w A s B p C ; ^                                                   ",
"                                    D = @ & & = ! E F G H w C I + % ;                                                   ",
"                                    % & % & @ % _ E J E K D , ' ' & ; %                                                 ",
"                                  % % % ^ ' % % L E J E E E L ^ , , ) ; ]                                               ",
"                                * % % . { % ' ( M E E E E E E / . + = ; ; '                                             ",
"                              x % % . ! % ^ ( F E E E E E E E K N O ! % ; ; .                                           ",
"                            - = & ^ # % @ $ @ / E E E E E E E M N / / _ % ; ;                                           ",
"                          ! = @ , + = % ] = P E E E E E E E E M Q / R / ! ; ; +                                         ",
"                          % % @ ] ; % & % ^ M E E E E E E E E M Q N / R ( + ; ;                                         ",
"                        ! ) @ & ) = @ & & / E E E E E E E E E E K N / / L ! = ; P                                       ",
"                        , % @ = ; & @ % > E J E E E E E E E E E K N / R ( P % ; $                                       ",
"                        % & & ; = @ & & S E E E E E E E E E E E K N / / ( D ] ; +                                       ",
"                        = & % ; = @ & @ N E E E E E E E E E E J K N / S ( D + ; ] _ _                                   ",
"                      > ) & % ; % & & ] M E E E E E E E E E E E F / / R ( D ^ ; ,       _                               ",
"                      P = % , % % & % ' M E E E E E E E E E E E Q / / L ( D $ ; @                                       ",
"                      { = % . & = & % ^ E E E E E E E E E E E M Q / R L O D $ ; ,                                       ",
"                      P = = _ x % % % ^ E E E E E E E E E E E M N / S T _ > $ ; +                                       ",
"                      D = %   ^ = % j - M E E E E E E E E E J Q / S T O _ G + ; $                                       ",
"                      _ ; @   ! = % % ] M E E E E E E E E J K N R L ( _ > # , ; !                                       ",
"                        = +     = % % % _ E E E E E E M U F Q / L ( _ D { ' { . _                                       ",
"                        = ^     ' ; % % % / E E E M U F N N / S ( _ D V ^ $                                             ",
"                        % .       % ; % ~ ] / K Q Q N / / / R ( _ > { # $       _                                       ",
"                        ^ P       D % ; = ; & L N / R R L L ( _ > { # ' W { X                                           ",
"                                      $ ; ; ; @ _ S L ( ( ( _ > ! ' * Y Z `  ...+.                                      ",
"                                          - ) ; ~ ' $ . . . $ ' ~ @.#.$.%.&. .%.*.=.                                    ",
"                                          -.$.;.>.,.@.@.; ; ; % '.).&.&.!.!.l  .~...                                    ",
"                                        {.].0 %.%.0 ]. .^./.V (.7 f _.:.m 7 7 o <.                                      ",
"                                        %.].].0 0 ].].0 *.*.{.[.}.7 *.|.1.2.3.4.5.                                      ",
"                                      6.7.&.%.*.*.).0 ^.8.7 *.|.  9.0.                                                  ",
"                                      a.7 _.&.!.7 7 !. .p !._.b.                                                        ",
"                                      c.7 o d.4.9 9 7 %.V                                                               ",
"                                      e.f.1.      g.3.h.                                                                ",
"                                                                                                                        ",
"                                                                                                                        ",
"                                                                                                                        "};
