/* XPM */
static char * walk1des3_xpm[] = {
"60 60 180 2",
"  	c None",
". 	c #C2C2C2",
"+ 	c #A2A2A2",
"@ 	c #8D8D8D",
"# 	c #838383",
"$ 	c #9D9D9D",
"% 	c #999999",
"& 	c #797979",
"* 	c #7A7A7D",
"= 	c #7D7D7D",
"- 	c #818181",
"; 	c #7D7E81",
"> 	c #787775",
", 	c #98958C",
"' 	c #7F7F7F",
") 	c #707070",
"! 	c #C5C5C5",
"~ 	c #B4B4B3",
"{ 	c #898989",
"] 	c #919191",
"^ 	c #757575",
"/ 	c #767572",
"( 	c #A9A9A9",
"_ 	c #747579",
": 	c #AEAEAD",
"< 	c #858585",
"[ 	c #939393",
"} 	c #939392",
"| 	c #979797",
"1 	c #D9D9D7",
"2 	c #D6D6D6",
"3 	c #9C9B9B",
"4 	c #CACAC9",
"5 	c #BCBCBB",
"6 	c #A8A8A7",
"7 	c #7B7B83",
"8 	c #71737A",
"9 	c #737378",
"0 	c #6F6F73",
"a 	c #979474",
"b 	c #A9A575",
"c 	c #A69C72",
"d 	c #948C71",
"e 	c #7A786F",
"f 	c #8B8976",
"g 	c #C3BF90",
"h 	c #E1DC7F",
"i 	c #EEE970",
"j 	c #E9E471",
"k 	c #EEE570",
"l 	c #DAC571",
"m 	c #C2B171",
"n 	c #9D9679",
"o 	c #89867A",
"p 	c #E2DD72",
"q 	c #EEEE79",
"r 	c #EEED75",
"s 	c #EBE770",
"t 	c #EAD870",
"u 	c #CEBD71",
"v 	c #ACA278",
"w 	c #76787E",
"x 	c #A89E76",
"y 	c #E7D570",
"z 	c #E7DE70",
"A 	c #EEED70",
"B 	c #EEED7E",
"C 	c #E7D36F",
"D 	c #AEA273",
"E 	c #878477",
"F 	c #A79A6F",
"G 	c #AA9E71",
"H 	c #C1B674",
"I 	c #D8CB70",
"J 	c #DCD075",
"K 	c #8D866F",
"L 	c #BEBEBD",
"M 	c #87878A",
"N 	c #CCCAC4",
"O 	c #ADA481",
"P 	c #928A70",
"Q 	c #BEAC70",
"R 	c #B0A371",
"S 	c #979076",
"T 	c #B9B9B9",
"U 	c #A7A7A7",
"V 	c #EEEEEE",
"W 	c #E4E4E2",
"X 	c #BEBBAC",
"Y 	c #969283",
"Z 	c #8E8C81",
"` 	c #EEECE9",
" .	c #E5E5E5",
"..	c #8E8F91",
"+.	c #959595",
"@.	c #CDCDCD",
"#.	c #CBCBCB",
"$.	c #A4A4A2",
"%.	c #E9E9E9",
"&.	c #D9D9D9",
"*.	c #A5A5A4",
"=.	c #ABABAB",
"-.	c #DDDDDD",
";.	c #9F9F9F",
">.	c #B1B1B1",
",.	c #E1E1E1",
"'.	c #D1D2D4",
").	c #D2D2D2",
"!.	c #B6B6B5",
"~.	c #D0D0CF",
"{.	c #C0C0BF",
"].	c #A3A3A4",
"^.	c #C7C8CC",
"/.	c #B8B7B6",
"(.	c #E7E7E9",
"_.	c #B4AE9C",
":.	c #C8C8C7",
"<.	c #9B9B9C",
"[.	c #A09D93",
"}.	c #BBBAB8",
"|.	c #888475",
"1.	c #9B926F",
"2.	c #B4A670",
"3.	c #D1BE72",
"4.	c #DAC87D",
"5.	c #DACC96",
"6.	c #75767C",
"7.	c #7C7B75",
"8.	c #A39A74",
"9.	c #C8B671",
"0.	c #DEC870",
"a.	c #E0CA71",
"b.	c #D3C072",
"c.	c #EDDA70",
"d.	c #D3C079",
"e.	c #ECE4C1",
"f.	c #DCC776",
"g.	c #B7A972",
"h.	c #9D9471",
"i.	c #87826F",
"j.	c #BAAE72",
"k.	c #E2CD71",
"l.	c #EDE171",
"m.	c #E1CE78",
"n.	c #DBC880",
"o.	c #D6C271",
"p.	c #C5B474",
"q.	c #A69C7A",
"r.	c #D3C485",
"s.	c #EEDF76",
"t.	c #CDB970",
"u.	c #E5D46F",
"v.	c #CEC5A6",
"w.	c #EBE4C8",
"x.	c #DCCA83",
"y.	c #D8CEAB",
"z.	c #EDE687",
"A.	c #EDDE70",
"B.	c #C5B57F",
"C.	c #E4DDAD",
"D.	c #EEE89D",
"E.	c #EEE58A",
"F.	c #E8D978",
"G.	c #DAD4BE",
"H.	c #E6D9A4",
"I.	c #E5CD6F",
"J.	c #DCCE71",
"K.	c #C0B17F",
"L.	c #EEECBF",
"M.	c #EAE1B4",
"N.	c #E9DD8D",
"O.	c #D3C693",
"P.	c #ECE27B",
"Q.	c #D0BA71",
"R.	c #E6D877",
"S.	c #EDE6B1",
"T.	c #EEE498",
"U.	c #E6DBAE",
"V.	c #EDE4A5",
"W.	c #E0D392",
"                                                                                                                        ",
"                                                                                                                        ",
"                                                                                                                        ",
"                                                                                                                        ",
"                                                                                                                        ",
"                                                                                                                        ",
"                                                                                                                        ",
"                                                                                                                        ",
"                                                                                                                        ",
"                                                . + @ # @ $                                                             ",
"                                              % & * = - ; > > .                                                         ",
"                                            , * # # - - # ' = ) !                                                       ",
"                                          ~ & # - ' - - = = = & *                                                       ",
"                                          { = # - { - = * = = = ) ]                                                     ",
"                                        . ^ # - # { # ' & = = = ' /                                                     ",
"                                        ( / # ' # @ & ^ = = = * _ ) :                                                   ",
"                                        % ^ - - < ] ] [ ^ = = * $ { }                                                   ",
"                                        } & = - = | 1 2 3 > & 3 4 5 [                                                   ",
"                                        ] & = = > : % * 6 # = $ & @ +                                                   ",
"                                        @ > = * # @ ^ ) = 7 8 9 ) ) +                                                   ",
"                                        { 0 = > & ' ) / a b c d e ^                                                     ",
"                                        ] & = = 8 f g h i j k l m n                                                     ",
"                                        } & = * o p q r s p k t u v                                                     ",
"                                        - * ' w x y z A A A B B C D                                                     ",
"                                        & - # = E F G H u I J J u K L                                                   ",
"                                      % & - # = M N O K P G Q R S ) }                                                   ",
"                                    T > # - - > U V W X Y K S Z @ * ) .                                                 ",
"                                    * - = - # = 5 V ` V  .T { ..] - ) &                                                 ",
"                                  = = = +...= & @.V ` V V V #.} { { / ) <                                               ",
"                                ; = = $.: = ] ! %.V V V V V V &.*.@ ^ ) ) ]                                             ",
"                              M * = + =.= +.! W V V V V V V V  .-.. U & 0 ) *.                                          ",
"                            , > ' | ;.* # % # 2 V V V V V V V %.-.&.&.5 & ) ) !                                         ",
"                          =.^ # { @ ^ * < > >.V V V V V V V V %.,.&.'.2 ( ) ) @                                         ",
"                          & = # < ) & - = [ %.V V V V V V V V %.,.-.2 ).4 @ ) )                                         ",
"                        =./ # - / ^ # ' - 2 V V V V V V V V V V  .-.2 2 #.( ^ ) >.                                      ",
"                        { * # ^ ) ' # * !.V ` V V V V V V V V V  .-.2 ).4 >.= ) 3                                       ",
"                        * ' ' ) > # - - ~.V V V V V V V V V V V  .-.2 2 4 T < ) @                                       ",
"                      . ^ - & ) > # - # -.V V V V V V V V V V `  .-.2 ~.! T @ ) < L {..                                 ",
"                      !./ ' * ) & - - < %.V V V V V V V V V V V W &.2 ).! T +.) { . ! . {.                              ",
"                      >.^ = { & * - = ..%.V V V V V V V V V V V ,.&.2 @.! T 3 ) # . . !                                 ",
"                      : ^ & ].' > ' = [ V V V V V V V V V V V %.,.2 '.@.. T % ) { ! .                                   ",
"                      >.^ > L M * = = +.V V V V V V V V V V V %.-.2 ~.^.{.~ % ) @ ! . .                                 ",
"                      /.^ *   [ > = w , %.V V V V V V V V V ` ,.2 ~.^.. L X @ ) 3 4 . .                                 ",
"                      L ) #   ( ^ = & < %.V V V V V V V V `  .-.'.@.! L !.;.{ 0 =.4 . .                                 ",
"                      ! ^ @     ^ = = & 5 V V V V V V %.(.W ,.2 @.! {.T : ] : + L ! .                                   ",
"                        ^ +.    ] ) = * = 2 V V V %.(.W -.-.&.~.! L T _.| 3 ! 4 ! .                                     ",
"                        * ].      * ) = _ < 2  .,.,.-.&.2 2 '.:.5 !.: ;.<.. ! . {.!                                     ",
"                        +.>.      T & ) ^ ) - @.-.2 ).).@.@.:.L ~ : $ ..[.: }.. ^.                                      ",
"                                ! . . <.) 0 ) # {.~.#.4 4 ! {.!.U ..; |.1.2.3.4.5.                                      ",
"                                !         , / ) 6...3 ].].$.<...6.7.8.9.0.a.b.0.c.d.                                    ",
"                                        e.f.9.g.h.i.7.7.) 0 ) & j.k.a.a.l.l.y 3.m.4.                                    ",
"                                        n.o.l 0.0.l o.b.p.q._.r.i r s.t.z A A u.v.                                      ",
"                                      w.0.o.o.l l o.o.l c.c.x.y.z.i A.B.C.D.E.F.G.                                      ",
"                                      H.I.a.0.c.c.k.l p.J.A c.K.  L.M.                                                  ",
"                                      N.i s.a.l.A i l.3.D l.s.O.                                                        ",
"                                      P.i C Q.R.k k A 0._.                                                              ",
"                                      S.T.U.      V.E.W.                                                                ",
"                                                                                                                        ",
"                                                                                                                        ",
"                                                                                                                        "};
