/* XPM */
static char *blue_jump6[] = {
"36 36 65 1",
"  c black",
". c #0c0b2a",
"X c #0b0c35",
"o c #100d29",
"O c #100e36",
"+ c #14142b",
"@ c #1b1a32",
"# c #26273b",
"$ c #0b0c47",
"% c #0b0b57",
"& c #15164a",
"* c #11105b",
"= c #0c0c66",
"- c #0b0c78",
"; c #151473",
": c #333249",
"> c #2f2f75",
", c #3e4066",
"< c #413f55",
"1 c #4b495e",
"2 c #555565",
"3 c #656376",
"4 c #0c0c89",
"5 c #0c0c99",
"6 c #120f8d",
"7 c #120c9b",
"8 c #181987",
"9 c #0b0ba9",
"0 c #0b0bb8",
"q c #0e11b6",
"w c #110bac",
"e c #1716a4",
"r c #1111b6",
"t c #221c8c",
"y c #2d2e8b",
"u c #0c0bc8",
"i c #0b0bd8",
"p c #0f10dc",
"a c #120dc6",
"s c #100ed3",
"d c #1513c9",
"f c #1413d8",
"g c #0b0de4",
"h c #0c11e7",
"j c #100ce7",
"k c #2d2dd5",
"l c #2222e4",
"z c #433e9a",
"x c #524f90",
"c c #5656a8",
"v c #5f648c",
"b c #625fac",
"n c #656887",
"m c #6a6a95",
"M c #7b7c98",
"N c #7979a7",
"B c #7372b0",
"V c #5a57c2",
"C c #4645e8",
"Z c #7c8197",
"A c #817e94",
"S c #8b8cff",
"D c #9d9dff",
"F c #a9aaff",
"G c None",
"GGGGGGGGGGGGGGGGGGGGGGGGGGGGGGGGGGGG",
"GGGGGGGGGGGGGGGGGGGGGGGGGGGGGGGGGGGG",
"GGGGGGGGGGGGGGGGGGGGGGGGGGGGGGGGGGGG",
"GGGGGGGGGGGGGGGGGGGGGGGGGGGGGGGGGGGG",
"GGGGGGGGGGGGGGGGGGGGGGGGGGGGGGGGGGGG",
"GGGGGGGGGGGGGGGGGGGGGGGGGGGGGGGGGGGG",
"GGGGGGGGGGGGGGGGGGGGGGGGGGGGGGGGGGGG",
"GGGGGGGGGGGGGGGGGGGGGGGGGGGGGGGGGGGG",
"GGGGGGGGGGGGGGGGGGGGGGGGGGGGGGGGGGGG",
"GGGGGGGGGGGGGGGGAMMGGGGGGGGGGGGGGGGG",
"GGGGGGGGGGGGGZMNBBBBNMGGGGGGGGGGGGGG",
"GGGGGGGGGGMMNByy;t8;yymMMGGGGGGGGGGG",
"GGGGGGGGGMBVewrrqrqw976txmGGGGGGGGGG",
"GGGGGGGGNbtwdpiiissuuaw7-*vMGGGGGGGG",
"GGGGGGGNceafigggpiuuaaww7-;vGGGGGGGG",
"GGGGGGMceaijjhghiifuu0ww54-$nGGGGGGG",
"GGGGGAB70pgggggiisuuu09975-=&GGGGGGG",
"GGGGGNzrpigipiflfsua0995544=$:GGGGGG",
"GGGGGB6qiiiiskDDkdu09q9e54-=$OGGGGGG",
"GGGGMc7aiipisCFSka00999544=%$X1GGGGG",
"GGGGMye0usipsdddr00999544-=%OX#GGGGG",
"GGGGM8500uuuuua009999554-=%$X.@GGGGG",
"GGGGMy590000000q9955644-==$$XXoGGGGG",
"GGGGM;65999999995564---=%%$XXX@GGGGG",
"GGGGM>-455555554444--==*%$XXX.:GGGGG",
"GGGGMx=-466644------=%%$XXXXO.<GGGGG",
"GGGGGm$=---------==*%$$XXXXX.+2GGGGG",
"GGGGGG,$%========%%$$$XXX.XXo:GGGGGG",
"GGGGGGG&$$%*%%%%$$$XXXX.XXX.@GGGGGGG",
"GGGGGGGnXX$$$$$$OOXXXX...X.o2GGGGGGG",
"GGGGGGGG2.XXOO...XXXXX.....2GGGGGGGG",
"GGGGGGGGGG@o..ooo.XXX..o.@3GGGGGGGGG",
"GGGGGGGGGGG2@.oooo..oooo1GGGGGGGGGGG",
"GGGGGGGGGGGGG21@ooooo:3GGGGGGGGGGGGG",
"GGGGGGGGGGGGGGGGGGGGGGGGGGGGGGGGGGGG",
"GGGGGGGGGGGGGGGGGGGGGGGGGGGGGGGGGGGG"
};
