/* XPM */
static char *blue_destroy4[] = {
"36 36 65 1",
"  c black",
". c #745263",
"X c #987936",
"o c #bd7911",
"O c #b47531",
"+ c #965b6c",
"@ c #927850",
"# c #997b54",
"$ c #8e7c65",
"% c #ab6257",
"& c #a1774d",
"* c #c87512",
"= c #d87d36",
"- c #ce7c44",
"; c #97862f",
": c #b48633",
"> c #baa818",
", c #908452",
"< c #888266",
"1 c #b09149",
"2 c #bca64c",
"3 c #d29209",
"4 c #d48f30",
"5 c #d9bc1a",
"6 c #cba538",
"7 c #eb8903",
"8 c #eb9806",
"9 c #f38c0a",
"0 c #f69609",
"q c #fb9814",
"w c #ed962e",
"e c #eaa908",
"r c #edb00f",
"t c #fba616",
"y c #fcb818",
"u c #faab30",
"i c #fdba26",
"p c #d08f4a",
"a c #e09a6a",
"s c #d0b050",
"d c #f4b44d",
"f c #fac618",
"g c #f5d518",
"h c #fecb26",
"j c #fcc735",
"k c #fed926",
"l c #fed736",
"z c #fbe91b",
"x c #efe52b",
"c c #fde82a",
"v c #fde737",
"b c #fff92a",
"n c #fffb38",
"m c #d9c54e",
"M c #decd65",
"N c #ffc843",
"B c #f3cf51",
"V c #ffd949",
"C c #f2d166",
"Z c #ffe949",
"A c #ffea54",
"S c #fffd45",
"D c #fff857",
"F c #feeb65",
"G c None",
"GGGGGGGGGGGGGGGGGGGGGGGGGGGGGGGGGGGG",
"GGGGGGGGGGGGGGGGGGGGGGGGGGGGGGGGGGGG",
"GGGGGGGGGGGGGGGGGGGGGGGGGGGGGGGGGGGG",
"GGGGGGGGGGGGGG#O3rrh5>;,<GGGGGGGGGGG",
"GGGGGGGGGGGGGG#dBVVvZAFs,,<GGGGGGGGG",
"GGGGGGGGGGGGGG@pwwtrrlZABm;<GGGGGGGG",
"GGGGGGGGGGGG..%pduNilr3fZZm1<GGGGGGG",
"GGGGGGGGGGG.++adVFDDDZltrvDm;<GGGGGG",
"GGGGGGG$$$.+%%aBllDDDZlt8rvZm,GGGGGG",
"GGGGGGG&pOO-pdBZvvvSvfhyt98lA2@GGGGG",
"GGGGGG#4wwuudNlvnnnckgky090elF;$GGGG",
"GGGGG&4uq9ujASvxncnnncnhht0elAs<GGGG",
"GGGG$pwt00ihlnnnnSnnnnnkfi80yvB,GGGG",
"GGGG#dN7qqjlvDSSnSnnbbbbkh0q*vA1,GGG",
"GGG@1NyquqilSxSSSSSnnbbbghtq9yA2XGGG",
"GGG@sAt9qihvcSSnnSSSSnnbcghq0eAM;GGG",
"GGG;sj87qihccvSnnnSSSnnbbkht7rAC;GGG",
"GGG;CVe9ifknnSSnnnnnSnbczbf09eZC;GGG",
"GGG;dVe7thcnxnSnSbbnnnnbgckt9rAB;GGG",
"GGGXsVe7tfnxnbnnnbnnnbbbzgyt78AC;GGG",
"GGG#pVr0tyknnbbnnnbnbbbbzcy09fAM;GGG",
"GGG$@6u9qykkncbSSnnnbbbbccyq7hDs,GGG",
"GGGG$:Nq7thfkcccnnnnbzbbgr899vA1,GGG",
"GGGG$XCq9qtikcknbbbbbbbgyyq00lj,$GGG",
"GGGGG#Ou090ihfkcgcnnbbzkht07jV6@GGGG",
"GGGGG$Ou7q9tyyfgcnSnbgfyt8iyAC;<GGGG",
"GGGGGG&4t7qterkcSSSSnkrri0thB2$GGGGG",
"GGGGGG$:dutjVlSSSvncnkrhy8hAm@GGGGGG",
"GGGGGGG@1dirrllZAZvllvhhrhAm;<GGGGGG",
"GGGGGGGG#1uN3tiiiVNuui8iVCs,<GGGGGGG",
"GGGGGGGGG#Osdww433***4d6:X,$GGGGGGGG",
"GGGGGGGGGG$#,&ppd4d=-&,@$<GGGGGGGGGG",
"GGGGGGGGGGGGG$#Oo4o*O@<GGGGGGGGGGGGG",
"GGGGGGGGGGGGGGGGGGGGGGGGGGGGGGGGGGGG",
"GGGGGGGGGGGGGGGGGGGGGGGGGGGGGGGGGGGG",
"GGGGGGGGGGGGGGGGGGGGGGGGGGGGGGGGGGGG"
};
