/* XPM */
static char *blue_destroy3[] = {
"36 36 65 1",
"  c black",
". c #6b3a3d",
"X c #5e3255",
"o c #7f7d64",
"O c #987a35",
"+ c #b86502",
"@ c #a17f3f",
"# c #8f7b54",
"$ c #8b7d68",
"% c #a26256",
"& c #d16909",
"* c #ed7b02",
"= c #f47b0e",
"- c #f77b08",
"; c #a06e8b",
": c #928630",
"> c #aa8a16",
", c #af913c",
"< c #b6a739",
"1 c #92874e",
"2 c #898165",
"3 c #ad904c",
"4 c #bba649",
"5 c #d0920d",
"6 c #d5902d",
"7 c #cca714",
"8 c #d5ad2e",
"9 c #ea920b",
"0 c #f9850a",
"q c #fd8a15",
"w c #f7950b",
"e c #fd9618",
"r c #f6932e",
"t c #fd9a25",
"y c #f0a80f",
"u c #fca818",
"i c #fdb717",
"p c #fea724",
"a c #fbaf31",
"s c #feb526",
"d c #ccad4c",
"f c #d2ac56",
"g c #f89447",
"h c #f7b64d",
"j c #fda96d",
"k c #dac822",
"l c #f7c816",
"z c #fcc725",
"x c #ffc737",
"c c #f6d826",
"v c #ffd93a",
"b c #ffeb35",
"n c #d3c952",
"m c #d3c865",
"M c #feda45",
"N c #f5d359",
"B c #f4d566",
"V c #ffe94b",
"C c #feec56",
"Z c #fff64a",
"A c #fff754",
"S c #faec69",
"D c #ea9895",
"F c #ffd1ae",
"G c None",
"GGGGGGGGGGGGGGGGGGGGGGGGGGGGGGGGGGGG",
"GGGGGGGGGGGGGGGGGGGGGGGGGGGGGGGGGGGG",
"GGGGGGGGGGGGGGGGGGGGGGGGGGGGGGGGGGGG",
"GGGGGGGGGGGGG$3>7kckk7>:2GGGGGGGGGGG",
"GGGGGGGGGGGGG#3BCVZVACSm12GGGGGGGGGG",
"GGGGGGGGGGGGG%jhassvxMVASn:2GGGGGGGG",
"GGGGGGGGGGGGX%grat99y9yvAAS1$GGGGGGG",
"GGGGGGGGGG;X%jjgrrhBBht9zbAN3oGGGGGG",
"GGGGGGG2$#.;DFjgrrrNhrtwybbAB1GGGGGG",
"GGGGGG$Odh6grgrrq=qqqq-pwicbAf1GGGGG",
"GGGGG$@hxuqq0q0q===q0--*0uibAS:GGGGG",
"GGGG$O6Mye*qq=0qqteq0q00suuibZn1GGGG",
"GGGG#dxziwe-=qtepateeq*0w*uwybC1GGGG",
"GGG21Nvzie*qqqtappeaeeqq0*wuybC3$GGG",
"GGG#4Vbiuw00qqtpppepeet-q00eicAm1GGG",
"GGG:BZbzw0q0qeewaappupeq0qqwicAmOGGG",
"GGG:NZciw00qeeeauesssueq0-*wybAB:GGG",
"GGG:Sbcywq-qttpssxssuptqe0ewylAS:GGG",
"GGG:BZcu*-=ttepxsysxxptqq00ezzAS:GGG",
"GGG:mZliw-qeeeau9puuswep000uuvCB:GGG",
"GGG1mAbiwp-qatpesssuupeeq0*wizAm1GGG",
"GGG#1Cbiuq*0qqqessuuuq0q0*0wibAm1GGG",
"GGGG1<Ciuu*0q0qeuus9et0qqewylbC32GGG",
"GGGG#<Cxi9ww*qqq00eeeqq=**uylbN1GGGG",
"GGGG2Onviuueq-qqqqeee*=qeqeibAn2GGGG",
"GGGG$#dMiweq-&-00p99e0q0ee09VN:2GGGG",
"GGGGG$@8vs0*-qewxxMxu0qq0*9xS41GGGGG",
"GGGGGG#,Ss99epxvMVAZvwq009CVN1GGGGGG",
"GGGGGG2#dSxyuusxMCVCvs9e9MSN,2GGGGGG",
"GGGGGGG$1dCM75parh6aa65yMCf1$GGGGGGG",
"GGGGGGGG$14dSN86++&656BN8,1$GGGGGGGG",
"GGGGGGGGG$$1#,dNBhNNh33##2$GGGGGGGGG",
"GGGGGGGGGGGG$#O>775>>O#2GGGGGGGGGGGG",
"GGGGGGGGGGGGGGGGGGGGGGGGGGGGGGGGGGGG",
"GGGGGGGGGGGGGGGGGGGGGGGGGGGGGGGGGGGG",
"GGGGGGGGGGGGGGGGGGGGGGGGGGGGGGGGGGGG"
};
