/* XPM */
static char *blue[] = {
"36 36 64 1",
"  c black",
". c #100f1f",
"X c #0c0b2a",
"o c #0b0c35",
"O c #100d26",
"+ c #141331",
"@ c #201c37",
"# c #29263c",
"$ c #0c0b48",
"% c #0c0c57",
"& c #111152",
"* c #0c0c67",
"= c #0c0b77",
"- c #100e66",
"; c #171770",
": c #1f2259",
"> c #34344b",
", c #3c3e79",
"< c #4d4c5b",
"1 c #4e5078",
"2 c #59596a",
"3 c #676776",
"4 c #0c0b87",
"5 c #0b0b97",
"6 c #0d108b",
"7 c #100e83",
"8 c #110d9a",
"9 c #14108a",
"0 c #131199",
"q c #0b0ba7",
"w c #0a0bb7",
"e c #100db6",
"r c #1110ae",
"t c #1d218f",
"y c #2e2e84",
"u c #2023a6",
"i c #0c0bc9",
"p c #0b0cd9",
"a c #0d10c7",
"s c #0c10d9",
"d c #100dc9",
"f c #1615d0",
"g c #0a0ce3",
"h c #0e10e7",
"j c #110ee5",
"k c #211fc0",
"l c #2b28d5",
"z c #3c3ce8",
"x c #423d99",
"c c #423fa8",
"v c #5456ad",
"b c #686a95",
"n c #7a7c97",
"m c #6f6fa4",
"M c #6f70b5",
"N c #797aa9",
"B c #5756f8",
"V c #6760d4",
"C c #7d8091",
"Z c #818092",
"A c #918fff",
"S c #c1bfff",
"D c #d4d3ff",
"F c None",
"FFFFFFFFFFFFFFFFFFFFFFFFFFFFFFFFFFFF",
"FFFFFFFFFFFFFFFFFFFFFFFFFFFFFFFFFFFF",
"FFFFFFFFFFFFFFFFFFFFFFFFFFFFFFFFFFFF",
"FFFFFFFFFFFFFFFFFFFFFFFFFFFFFFFFFFFF",
"FFFFFFFFFFFFFFFFFFFFFFFFFFFFFFFFFFFF",
"FFFFFFFFFFFFNVVliiaruvMnFFFFFFFFFFFF",
"FFFFFFFFFFnNx9rwdiiwr7;,bCFFFFFFFFFF",
"FFFFFFFFnNM0edfppiadeq87;bnFFFFFFFFF",
"FFFFFFFFNv0djggspsiideq8=%1nFFFFFFFF",
"FFFFFFFnMrasghgppspdwwrq6=%1FFFFFFFF",
"FFFFFFFNtahghghpsspdwwq55=-&FFFFFFFF",
"FFFFFFncriphpssfaidawqq557*$>FFFFFFF",
"FFFFFFm0dpgpsfBAzdawwqq564*$oFFFFFFF",
"FFFFFnvripgsdlSDBfiwwqq86=*$o2FFFFFF",
"FFFFFNyqipgpdlBBkwwwqqq54=-$o>FFFFFF",
"FFFFFN;rippspddeewwwq854=*%$oXZFFFFF",
"FFFFFm;rispsiiiewwrqq54==-%$oXFFFFFF",
"FFFFFN;8wawwwwwwqrq554==*%&$XOFFFFFF",
"FFFFFN;8rwwwwwwrrq554==*-%$oX.2FFFFF",
"FFFFFb-9qqrrqrq855664==*%$ooX.3FFFFF",
"FFFFFn:75qqqq8854644==*-%$ooXOFFFFFF",
"FFFFFn:=4855466647===*%%$oooX#FFFFFF",
"FFFFFF1-=464747====**%&$oooXX<FFFFFF",
"FFFFFFn$*=======**%%%$oooooXOFFFFFFF",
"FFFFFFF1$%******%%%$$oooooXX>FFFFFFF",
"FFFFFFFF@$$%-%%%&$$oooXooXXOFFFFFFFF",
"FFFFFFFF2o$&$$$$$$oooooXoX+2FFFFFFFF",
"FFFFFFFFF2XooooooooXXooXX.2FFFFFFFFF",
"FFFFFFFFFF3XXXXooooXXXXO@3FFFFFFFFFF",
"FFFFFFFFFFF3>+XXXooXXO.>FFFFFFFFFFFF",
"FFFFFFFFFFFFFF<#@OXO#<FFFFFFFFFFFFFF",
"FFFFFFFFFFFFFFFFFFFFFFFFFFFFFFFFFFFF",
"FFFFFFFFFFFFFFFFFFFFFFFFFFFFFFFFFFFF",
"FFFFFFFFFFFFFFFFFFFFFFFFFFFFFFFFFFFF",
"FFFFFFFFFFFFFFFFFFFFFFFFFFFFFFFFFFFF",
"FFFFFFFFFFFFFFFFFFFFFFFFFFFFFFFFFFFF"
};
