/* XPM */
static char *blue_jump7[] = {
"36 36 64 1",
"  c black",
". c #0b0c29",
"X c #0a0b36",
"o c #0e1028",
"O c #100d2b",
"+ c #100e33",
"@ c #17182d",
"# c #191938",
"$ c #201f31",
"% c #27283a",
"& c #0b0c47",
"* c #0b0c57",
"= c #0d1047",
"- c #181857",
"; c #0c0b67",
": c #0c0b79",
"> c #100d74",
", c #141674",
"< c #313342",
"1 c #393856",
"2 c #474658",
"3 c #555369",
"4 c #676774",
"5 c #0c0b86",
"6 c #0c0c97",
"7 c #0f1088",
"8 c #0d1093",
"9 c #110c89",
"0 c #100c99",
"q c #141498",
"w c #0b0ca8",
"e c #0a0bb8",
"r c #0e10a8",
"t c #0e11b7",
"y c #100daa",
"u c #110db4",
"i c #1310a9",
"p c #1615b7",
"a c #231e82",
"s c #303194",
"d c #3333a1",
"f c #0c0cc6",
"g c #0c0bd9",
"h c #0d10c2",
"j c #100dcd",
"k c #110ed7",
"l c #1212ca",
"z c #1413d8",
"x c #0b0be3",
"c c #0b10e5",
"v c #1715e1",
"b c #3536de",
"n c #3c3ee0",
"m c #535290",
"M c #4d4faf",
"N c #666793",
"B c #7b7c97",
"V c #7778ab",
"C c #5456f8",
"Z c #7074ff",
"A c #7d8091",
"S c #807a94",
"D c #afb1ff",
"F c None",
"FFFFFFFFFFFFFFFFFFFFFFFFFFFFFFFFFFFF",
"FFFFFFFFFFFFFFFFFFFFFFFFFFFFFFFFFFFF",
"FFFFFFFFFFFFFFFFFFFFFFFFFFFFFFFFFFFF",
"FFFFFFFFFFFFFFFFFFFFFFFFFFFFFFFFFFFF",
"FFFFFFFFFFFFFFFFFFFFFFFFFFFFFFFFFFFF",
"FFFFFFFFFFFFFFFFFFFFFFFFFFFFFFFFFFFF",
"FFFFFFFFFFFFFFFFFFFFFFFFFFFFFFFFFFFF",
"FFFFFFFFFFFFFFFFFFFFFFFFFFFFFFFFFFFF",
"FFFFFFFFFFFFFFFFFFFFFFFFFFFFFFFFFFFF",
"FFFFFFFFFFFFFFFFFFFFFFFFFFFFFFFFFFFF",
"FFFFFFFFFFFFFFFFFFFFFFFFFFFFFFFFFFFF",
"FFFFFFFFFFFFFFFFSFFFFFFFFFFFFFFFFFFF",
"FFFFFFFFFFFFFFFBVVVVVBFFFFFFFFFFFFFF",
"FFFFFFFFFBBVVVmmaad,smNVBFFFFFFFFFFF",
"FFFFFFFFAVVMqiiuuuyyrq5>sVBFFFFFFFFF",
"FFFFFFFBVM8thzggggjjeey67,mBFFFFFFFF",
"FFFFFFBVdrlfggxggggfheew65>-BAFFFFFF",
"FFFFFFVsuzgxcxxxgxkfeeer069;-NFFFFFF",
"FFFFBVsukgccxxxgggjlheew605>*1FFFFFF",
"FFFFBMqjxxxxgkvzzjjheewr069;*X3FFFFF",
"FFFFVstjgxxgzCDDbhheeww0085;*&#FFFFF",
"FFFFV8thjxgklnZCptewww6695>*&&.4FFFF",
"FFFFN7tehjjjhepywuyyr685:>;*&X+2FFFF",
"FFFFm5wyteeeeuwyiyw6655:;;*&XX.3FFFF",
"FFFF3>60wwrwwyw008975:>;**&XXXO3FFFF",
"FFFFB*55886886855:::>;**&&XXX..FFFFF",
"FFFFB-;:55::::5::>;;**&&XXXX..#FFFFF",
"FFFFFm**;;;;;;>;;***&&&XXXX..o2FFFFF",
"FFFFFB#&&********&&XXXXXX++..%FFFFFF",
"FFFFFFA.XXX=&&&&XXXXX.+.+...@4FFFFFF",
"FFFFFFFF@o.XXXXX++...+..++o@FFFFFFFF",
"FFFFFFFFF%o..++....+...+..1FFFFFFFFF",
"FFFFFFFFFF4<o..++...+.o.@4FFFFFFFFFF",
"FFFFFFFFFFFFF32$o..+.22FFFFFFFFFFFFF",
"FFFFFFFFFFFFFFFFFFFFFFFFFFFFFFFFFFFF",
"FFFFFFFFFFFFFFFFFFFFFFFFFFFFFFFFFFFF"
};
