/* XPM */
static char *blue_small[] = {
"20 20 63 1",
"  c #0c0c2d",
". c #0b0c35",
"X c #130f30",
"o c #12112f",
"O c #1c1f3b",
"+ c #201f38",
"@ c #232139",
"# c #0b0c48",
"$ c #0b0c5a",
"% c #171745",
"& c #0c0c68",
"* c #0b0c77",
"= c #171768",
"- c #2e2e42",
"; c #2c2e55",
": c #3a3948",
"> c #23227d",
", c #373664",
"< c gray30",
"1 c #4b4955",
"2 c #504f5b",
"3 c #4e507e",
"4 c #515062",
"5 c #666667",
"6 c #6a6a75",
"7 c #706f77",
"8 c #79787a",
"9 c #0c0b85",
"0 c #0c0c98",
"q c #100e98",
"w c #0b0ca7",
"e c #0b0bb4",
"r c #0e10bb",
"t c #100db6",
"y c #1814af",
"u c #1210ba",
"i c #1f22b5",
"p c #2323a4",
"a c #2421b4",
"s c #3534a8",
"d c #0b0cc8",
"f c #0b0dd8",
"g c #120fcc",
"h c #1615d2",
"j c #0b0de4",
"k c #1111e0",
"l c #2825c7",
"z c #2b2ad5",
"x c #302edd",
"c c #2a2be2",
"v c #464589",
"b c #494994",
"n c #505092",
"m c #4f4ab0",
"M c #666781",
"N c #6b6b96",
"B c #7d7c84",
"V c #777498",
"C c #6668a2",
"Z c #807e7f",
"A c #9a98fc",
"S c #cbcbcb",
"D c white",
"DDDDDDDDDDDDDDDDDDDZ",
"DSSSSSSSSSSSSSSSSSZ<",
"DSZZZZZZZZZZZZZZZZ5<",
"DSZZZBVmldrpbBBZZZ5<",
"DSZZBCagffdtq>MBZZ5<",
"DSZ8Cifjffgrw9=6ZZ5<",
"DSZBsgjkchdew0&;ZZ5<",
"DSZNyffxAzrew9&%7Z5<",
"DSZntffhzuew0*$#4Z5<",
"DSZbwdddeew09&$.1Z5<",
"DSZvqeeew009*$# :Z5<",
"DSZ39w00099*&$. 2Z5<",
"DSZM=9999*&$#..o6Z5<",
"DSZB,&&&&$##.. -ZZ5<",
"DSZZ6%####..  +6ZZ5<",
"DSZZZ5O...   @5ZZZ5<",
"DSZZZZ82@X @18ZZZZ5<",
"DSZZZZZZZZZZZZZZZZ5<",
"DZ55555555555555555<",
"Z<<<<<<<<<<<<<<<<<<<"
};
