/* XPM */
static char *brown_jump2[] = {
"36 36 63 1",
"  c black",
". c #1b180a",
"X c #1b1712",
"o c #241b0a",
"O c #231c14",
"+ c #2b230b",
"@ c #2a2515",
"# c #37290b",
"$ c #382912",
"% c #3c330c",
"& c #3b3115",
"* c #282421",
"= c #393631",
"- c #422e0c",
"; c #402f13",
": c #49340a",
"> c #473514",
", c #543b0a",
"< c #543c13",
"1 c #403322",
"2 c #573f23",
"3 c #5b420a",
"4 c #5c4313",
"5 c #574626",
"6 c #554b34",
"7 c #66480b",
"8 c #664a15",
"9 c #6f520c",
"0 c #68511d",
"q c #744e0c",
"w c #734f10",
"e c #76540a",
"r c #755615",
"t c #6d4e20",
"y c #675227",
"u c #695636",
"i c #7f6118",
"p c #6f613c",
"a c #484641",
"s c #534f50",
"d c #59554e",
"f c #5d5c54",
"g c #635e56",
"h c #6b604e",
"j c #6a6153",
"k c #7d6e4f",
"l c #7a6b56",
"z c #6a6963",
"x c #7b6d62",
"c c #815a11",
"v c #836310",
"b c #89692c",
"n c #8f7030",
"m c #85735b",
"M c #847865",
"N c #86806a",
"B c #a98b4f",
"V c #be9e61",
"C c #bda160",
"Z c #c3a569",
"A c #e3c587",
"S c #ffedb0",
"D c None",
"DDDDDDDDDDDDDDDDDDDDDDDDDDDDDDDDDDDD",
"DDDDDDDDDDDDDDDDDDDDDDDDDDDDDDDDDDDD",
"DDDDDDDDDDDDDDDDDDDDDDDDDDDDDDDDDDDD",
"DDDDDDDDDDDDDDDDDDDDDDDDDDDDDDDDDDDD",
"DDDDDDDDDDDDDDDDDDDDDDDDDDDDDDDDDDDD",
"DDDDDDDDDDDDDDDDDNNDDDDDDDDDDDDDDDDD",
"DDDDDDDDDDDDDMhuu5y56hDDDDDDDDDDDDDD",
"DDDDDDDDDDDmpt08r8884<<6DDDDDDDDDDDD",
"DDDDDDDDDDmywqceqq99w8,<5xDDDDDDDDDD",
"DDDDDDDDDk0rreeeqqw77,44>$jDDDDDDDDD",
"DDDDDDDDm0rreei9erq977,,<%&gDDDDDDDD",
"DDDDDDDMyreevr9r99r7773,:>#&DDDDDDDD",
"DDDDDDDp0recerrrrw7r7,3,::%+6DDDDDDD",
"DDDDDDM0rwqeerCAnww7774,,:#+ODDDDDDD",
"DDDDDDl87wwqqnSSBr777,4,,-%#.gDDDDDD",
"DDDDDD687qrqwbVZb7777<<::%#+o=DDDDDD",
"DDDDDD289rewrrrr333,,,<:-%#+o.DDDDDD",
"DDDDDl58799w9777733,4<<--#$o..DDDDDD",
"DDDDDl<4377733737733,::-##+oo.fDDDDD",
"DDDDDM>4333377,83,,,::-%#+oo..zDDDDD",
"DDDDDD>4,,73374,,,,::-%##+o...fDDDDD",
"DDDDDD>><44,,,,,:::--%##++.OXXDDDDDD",
"DDDDDD6><<,,,:,::>>-###++o..X=DDDDDD",
"DDDDDDg&>::::::::--$$$+++...XsDDDDDD",
"DDDDDDD1&#------%##$$+o+....XDDDDDDD",
"DDDDDDD6+##;;;$###++ooo.o..X=DDDDDDD",
"DDDDDDDD@@$#++$+++ooooooo..@DDDDDDDD",
"DDDDDDDDgooo$+o+ooo.......XgDDDDDDDD",
"DDDDDDDDDd.o.oooo........XaDDDDDDDDD",
"DDDDDDDDDDz*...........X*fDDDDDDDDDD",
"DDDDDDDDDDDzaXXX......XaDDDDDDDDDDDD",
"DDDDDDDDDDDDDzs=*XX*=fDDDDDDDDDDDDDD",
"DDDDDDDDDDDDDDDDDDDDDDDDDDDDDDDDDDDD",
"DDDDDDDDDDDDDDDDDDDDDDDDDDDDDDDDDDDD",
"DDDDDDDDDDDDDDDDDDDDDDDDDDDDDDDDDDDD",
"DDDDDDDDDDDDDDDDDDDDDDDDDDDDDDDDDDDD"
};
