/* XPM */
static char *brown_jump7[] = {
"36 36 59 1",
"  c black",
". c #1b180a",
"X c #1c1a11",
"o c #231b09",
"O c #201d13",
"+ c #2b230b",
"@ c #282419",
"# c #37290c",
"$ c #392a11",
"% c #3e3113",
"& c #312f20",
"* c #3c3628",
"= c #3c3b32",
"- c #422e09",
"; c #402a12",
": c #49350b",
"> c #483511",
", c #553d0a",
"< c #533a12",
"1 c #473d24",
"2 c #5c420a",
"3 c #5a4313",
"4 c #47402d",
"5 c #46433c",
"6 c #514221",
"7 c #534834",
"8 c #66480b",
"9 c #654b14",
"0 c #6e510a",
"q c #6b5316",
"w c #724d0b",
"e c #734f11",
"r c #76530a",
"t c #775615",
"y c #644c20",
"u c #675429",
"i c #685838",
"p c #4b4c44",
"a c #54554d",
"s c #5b5956",
"d c #655946",
"f c #605f5d",
"g c #6b604c",
"h c #6d6658",
"j c #766549",
"k c #7a6c5a",
"l c #676765",
"z c #7a7468",
"x c #93793c",
"c c #83725a",
"v c #816f63",
"b c #867c61",
"n c #a18249",
"m c #b29259",
"M c #b39a62",
"N c #c9ab75",
"B c #f6dca3",
"V c #ffe0a9",
"C c None",
"CCCCCCCCCCCCCCCCCCCCCCCCCCCCCCCCCCCC",
"CCCCCCCCCCCCCCCCCCCCCCCCCCCCCCCCCCCC",
"CCCCCCCCCCCCCCCCCCCCCCCCCCCCCCCCCCCC",
"CCCCCCCCCCCCCCCCCCCCCCCCCCCCCCCCCCCC",
"CCCCCCCCCCCCCCCCCCCCCCCCCCCCCCCCCCCC",
"CCCCCCCCCCCCCCCCCCCCCCCCCCCCCCCCCCCC",
"CCCCCCCCCCCCCCCCCCCCCCCCCCCCCCCCCCCC",
"CCCCCCCCCCCCCCCCCCCCCCCCCCCCCCCCCCCC",
"CCCCCCCCCCCCCCCCCCCCCCCCCCCCCCCCCCCC",
"CCCCCCCCCCCCCCCCCCCCCCCCCCCCCCCCCCCC",
"CCCCCCCCCCCCCCCCCCCCCCCCCCCCCCCCCCCC",
"CCCCCCCCCCCCCCCCCCCCCCCCCCCCCCCCCCCC",
"CCCCCCCCCCCCCCCCCCCCCCCCCCCCCCCCCCCC",
"CCCCCCCCCCCCCvkiiiiidgkCCCCCCCCCCCCC",
"CCCCCCCCCCcju9999q993336izCCCCCCCCCC",
"CCCCCCCCCjuqete0e0008933<>gCCCCCCCCC",
"CCCCCCCbiqqetrrtrt8888223>%7CCCCCCCC",
"CCCCCCCuqtrrrrtwwrtw8882,3>%4CCCCCCC",
"CCCCCCiqtrrrttrrwwwe8882,:>%#@CCCCCC",
"CCCCCcyt0rrrrttttwe88823,<>%#+hCCCCC",
"CCCCCu88ewrrtmVBx9882223<<--++&CCCCC",
"CCCCh39wtttwtnNMq9822,2<>>;#++.CCCCC",
"CCCCh388eeee888882222,,>-$$#oo.sCCCC",
"CCCCg<222888888893,,:::%###+o..fCCCC",
"CCCCh>,,32,,,33,<::::-%###oooo.aCCCC",
"CCCCh%::<,,,:<::>>:-%###+ooo...lCCCC",
"CCCCC1%--->-:-->>-%###++oooooX@CCCCC",
"CCCCCd+$$$$##%%$####+ooo......aCCCCC",
"CCCCCz*o+++#++#++ooooo.......@CCCCCC",
"CCCCCCz@Ooo+ooooooo........X@CCCCCCC",
"CCCCCCCC@......o...........@CCCCCCCC",
"CCCCCCCCC5.............XX.=CCCCCCCCC",
"CCCCCCCCCCC=X.........X.OCCCCCCCCCCC",
"CCCCCCCCCCCCCs5@.....=pCCCCCCCCCCCCC",
"CCCCCCCCCCCCCCCCCCCCCCCCCCCCCCCCCCCC",
"CCCCCCCCCCCCCCCCCCCCCCCCCCCCCCCCCCCC"
};
