/* XPM */
static char *brown_jump4[] = {
"36 36 61 1",
"  c black",
". c #1c170a",
"X c #1c1911",
"o c #231b0a",
"O c #211a12",
"+ c #2b210c",
"@ c #2a2215",
"# c #37280c",
"$ c #362913",
"% c #3e300b",
"& c #3d3117",
"* c #282921",
"= c #322e29",
"- c #363229",
"; c #412e0b",
": c #49350b",
"> c #463714",
", c #543c0b",
"< c #533c13",
"1 c #5c420a",
"2 c #5a4415",
"3 c #4e442c",
"4 c #4a443c",
"5 c #594824",
"6 c #67480a",
"7 c #654a13",
"8 c #6e510f",
"9 c #6a5116",
"0 c #724d09",
"q c #724e10",
"w c #74520a",
"e c #785815",
"r c #685523",
"t c #675836",
"y c #785a24",
"u c #7c663d",
"i c #484340",
"p c #5a5549",
"a c #5d5852",
"s c #675a45",
"d c #635b53",
"f c #6e6043",
"g c #67625d",
"h c #77694a",
"j c #756d59",
"k c #676862",
"l c #7a7469",
"z c #815c12",
"x c #84631e",
"c c #876827",
"v c #907331",
"b c #887857",
"n c #9c7d44",
"m c #877a64",
"M c #a6894c",
"N c #ab8d51",
"B c #d6b87a",
"V c #f7d89f",
"C c #fde0a4",
"Z c #fff4bc",
"A c None",
"AAAAAAAAAAAAAAAAAAAAAAAAAAAAAAAAAAAA",
"AAAAAAAAAAAAAAAAAAAAAAAAAAAAAAAAAAAA",
"AAAAAAAAAAAAAAAAAAAAAAAAAAAAAAAAAAAA",
"AAAAAAAAAAAAAAAAAAAAAAAAAAAAAAAAAAAA",
"AAAAAAAAAAAAAAAAAAAAAAAAAAAAAAAAAAAA",
"AAAAAAAAAAAAAAAAAAAAAAAAAAAAAAAAAAAA",
"AAAAAAAAAAAAAAAAAAAAAAAAAAAAAAAAAAAA",
"AAAAAAAAAAAAAAAAmbmmAAAAAAAAAAAAAAAA",
"AAAAAAAAAAAAAjft52225smAAAAAAAAAAAAA",
"AAAAAAAAAAAbur9999672<>3jAAAAAAAAAAA",
"AAAAAAAAAAh99ee88886772<&jAAAAAAAAAA",
"AAAAAAAAAhreeewew006612<>#sAAAAAAAAA",
"AAAAAAAAhr9wwzz0we06772,<>#dAAAAAAAA",
"AAAAAAAm59wwzwwe88wq6,2,<>#@gAAAAAAA",
"AAAAAAAt98wew0xceq6q61,<::%$4AAAAAAA",
"AAAAAAm290ww0eBVn886611,,:;#@AAAAAAA",
"AAAAAAh260wwwvCZM966111,::%+o-AAAAAA",
"AAAAAAt760w0weMNy921,,<::%#+o@AAAAAA",
"AAAAAA5268ww0ew862222,<:;##@.XAAAAAA",
"AAAAAm516qqq666661111<::%##+..AAAAAA",
"AAAAAA<216667666661,,::%##+oXXdAAAAA",
"AAAAAA>211116227,,,,::;###+..OdAAAAA",
"AAAAAl&<1,1112,,,,:::;%##+oo..AAAAAA",
"AAAAAA3><2,,,,,:::::%%%#+oo.XXAAAAAA",
"AAAAAAp&::::::::::;%####+o.XO=AAAAAA",
"AAAAAAd$;:::::>>>%#&#$+o..X.XaAAAAAA",
"AAAAAAA&>%;;;;;%###+++oo.X.O@AAAAAAA",
"AAAAAAAp+$###%####+++o.o..XX4AAAAAAA",
"AAAAAAAA-+$####++oooo.o..X.@AAAAAAAA",
"AAAAAAAAlXo+++oooo......X.OAAAAAAAAA",
"AAAAAAAAAA@..oo........XX@AAAAAAAAAA",
"AAAAAAAAAAA..X..XXXX.O.X=kAAAAAAAAAA",
"AAAAAAAAAAAApXXXX.X.X.XdAAAAAAAAAAAA",
"AAAAAAAAAAAAAAki=O-*4kAAAAAAAAAAAAAA",
"AAAAAAAAAAAAAAAAAAAAAAAAAAAAAAAAAAAA",
"AAAAAAAAAAAAAAAAAAAAAAAAAAAAAAAAAAAA"
};
