/* XPM */
static char *brown_jump3[] = {
"36 36 57 1",
"  c black",
". c #1c180b",
"X c #1c1912",
"o c #231b0b",
"O c #211a12",
"+ c #2c220d",
"@ c #272319",
"# c #37290b",
"$ c #352813",
"% c #3d300c",
"& c #332e28",
"* c #373329",
"= c #3c3933",
"- c #412e09",
"; c #48340b",
": c #483615",
"> c #553c0a",
", c #533c13",
"< c #5c420a",
"1 c #5a4414",
"2 c #49473d",
"3 c #574524",
"4 c #554a39",
"5 c #65470a",
"6 c #674a14",
"7 c #6d5114",
"8 c #714e0b",
"9 c #76530b",
"0 c #755513",
"q c #664e25",
"w c #695425",
"e c #695637",
"r c #765822",
"t c #7e6020",
"y c #77603e",
"u c #58534b",
"i c #615d54",
"p c #6e6458",
"a c #716349",
"s c #7b6e57",
"d c #7c725a",
"f c #696864",
"g c #776e65",
"h c #7b7767",
"j c #805f1c",
"k c #83600e",
"l c #896929",
"z c #88765e",
"x c #997b45",
"c c #857f69",
"v c #a7894d",
"b c #aa8d52",
"n c #d6b878",
"m c #f8d89d",
"M c #ffe5a9",
"N c #fff1ba",
"B c None",
"BBBBBBBBBBBBBBBBBBBBBBBBBBBBBBBBBBBB",
"BBBBBBBBBBBBBBBBBBBBBBBBBBBBBBBBBBBB",
"BBBBBBBBBBBBBBBBBBBBBBBBBBBBBBBBBBBB",
"BBBBBBBBBBBBBBBBBBBBBBBBBBBBBBBBBBBB",
"BBBBBBBBBBBBBBBBBBBBBBBBBBBBBBBBBBBB",
"BBBBBBBBBBBBBBBBBBBBBBBBBBBBBBBBBBBB",
"BBBBBBBBBBBBBBBBhcdBBBBBBBBBBBBBBBBB",
"BBBBBBBBBBBBBzyw6111qedBBBBBBBBBBBBB",
"BBBBBBBBBBBzeq77705511:3gBBBBBBBBBBB",
"BBBBBBBBBBsw07j88755761,:4BBBBBBBBBB",
"BBBBBBBBBs770999888855<1:$4BBBBBBBBB",
"BBBBBBBBsw799k99908555<>,:$uBBBBBBBB",
"BBBBBBBz10999999870855<>;:#$BBBBBBBB",
"BBBBBBBe7790900l08575><>;:%$*BBBBBBB",
"BBBBBBd108900lnmv7755<11;;#+ohBBBBBB",
"BBBBBBa687087lMNx755<>1,;%%+o2BBBBBB",
"BBBBBBe688085tbbr66<<>,;;%#+o&BBBBBB",
"BBBBBB,6589907775<<<>>,;-%++oXBBBBBB",
"BBBBBd3<5898555555<<>,,;-#+o.XfBBBBB",
"BBBBBB,15555655555<>>;;-#$+oo.BBBBBB",
"BBBBBd:1<>55>655<>>>;;-#$++oo.fBBBBB",
"BBBBBB:1>>1>66>>>>>;--%#++o...BBBBBB",
"BBBBBB4:,1,>>>,>;;---%#+$+...@BBBBBB",
"BBBBBB4:;;>>;;;;;;;-#%#+oo...=BBBBBB",
"BBBBBBp#:;-;;;::;-##%++oo....uBBBBBB",
"BBBBBBB$$-;;%-%%###+++o.Ooo.@BBBBBBB",
"BBBBBBBu$###%%##++++oo....XXuBBBBBBB",
"BBBBBBBB*@$###++++oo....o..*BBBBBBBB",
"BBBBBBBBB@o$oooooo.......XXgBBBBBBBB",
"BBBBBBBBBfX.ooo........XX@fBBBBBBBBB",
"BBBBBBBBBBf@..........X.&BBBBBBBBBBB",
"BBBBBBBBBBBBu&........@iBBBBBBBBBBBB",
"BBBBBBBBBBBBBBf==@@*2iBBBBBBBBBBBBBB",
"BBBBBBBBBBBBBBBBBBBBBBBBBBBBBBBBBBBB",
"BBBBBBBBBBBBBBBBBBBBBBBBBBBBBBBBBBBB",
"BBBBBBBBBBBBBBBBBBBBBBBBBBBBBBBBBBBB"
};
