/* XPM */
static char *brown[] = {
"36 36 64 1",
"  c black",
". c #1b180b",
"X c #1c1910",
"o c #231b0c",
"O c #231a11",
"+ c #2b230b",
"@ c #292416",
"# c #392a0b",
"$ c #352913",
"% c #3e3009",
"& c #3f3414",
"* c #342e24",
"= c #37342c",
"- c #3c3932",
"; c #422d0c",
": c #49350a",
"> c #493713",
", c #543d0c",
"< c #5a3f10",
"1 c #473822",
"2 c #49441e",
"3 c #5a420c",
"4 c #594314",
"5 c #494538",
"6 c #574522",
"7 c #654709",
"8 c #684c14",
"9 c #6f500d",
"0 c #6b5116",
"q c #744d0a",
"w c #724d12",
"e c #77540b",
"r c #775515",
"t c #664e24",
"y c #675328",
"u c #645939",
"i c #745d31",
"p c #7d601a",
"a c #6e603d",
"s c #736139",
"d c #4d4a41",
"f c #575449",
"g c #5d5a56",
"h c #705b40",
"j c #696051",
"k c #746a4a",
"l c #756c5a",
"z c #787058",
"x c #6c6864",
"c c #767468",
"v c #805c18",
"b c #82611c",
"n c #846528",
"m c #8f6d33",
"M c #84745a",
"N c #877a65",
"B c #a78650",
"V c #b89963",
"C c #bda066",
"Z c #c1a663",
"A c #e9ca8a",
"S c #ffe4a8",
"D c #fffac4",
"F c None",
"FFFFFFFFFFFFFFFFFFFFFFFFFFFFFFFFFFFF",
"FFFFFFFFFFFFFFFFFFFFFFFFFFFFFFFFFFFF",
"FFFFFFFFFFFFFFFFFFFFFFFFFFFFFFFFFFFF",
"FFFFFFFFFFFFFFFFFFFFFFFFFFFFFFFFFFFF",
"FFFFFFFFFFFFFFFFFFFFFFFFFFFFFFFFFFFF",
"FFFFFFFFFFFFFNkst8446klFFFFFFFFFFFFF",
"FFFFFFFFFFFNhtt008w7442fcFFFFFFFFFFF",
"FFFFFFFFFFMi0rvww99w884>1lFFFFFFFFFF",
"FFFFFFFFFzy0reerqq977334>#jFFFFFFFFF",
"FFFFFFFFNt0eeeeqee977334>>$lFFFFFFFF",
"FFFFFFFNy0reeeeeqqr773,,>;$$FFFFFFFF",
"FFFFFFFa0rere9rbrq70333,:>#+5FFFFFFF",
"FFFFFFF4reeqerZAmr978333,:%+@FFFFFFF",
"FFFFFFz89qeqrnSDBw773<4,:%%+odFFFFFF",
"FFFFFFu89qerwpCVn8733<<::%#+o@FFFFFF",
"FFFFFF607eerrrrr87333,,:;##+..FFFFFF",
"FFFFFz287eew77777333,,>:%#++..FFFFFF",
"FFFFFN<439777777743,:::;##+o..xFFFFF",
"FFFFFF>4337773733,,:::;##$oo..FFFFFF",
"FFFFFF14<,43,733,,::>;%#$+O...FFFFFF",
"FFFFFF1>3<3,<<,::::;%%##+oo...FFFFFF",
"FFFFFF5%,<,:,::>>>:;%##+oo...-FFFFFF",
"FFFFFFj&%:::::>::;;###+o....XfFFFFFF",
"FFFFFFc$#%;;;;>;#%#+$+oo....@FFFFFFF",
"FFFFFFFf$#%#;;####++oO......5FFFFFFF",
"FFFFFFFF*++###+++o+oo..X...@FFFFFFFF",
"FFFFFFFFF@O+++++oOo.......XxFFFFFFFF",
"FFFFFFFFFg..o..X.O..X..oOXgFFFFFFFFF",
"FFFFFFFFFFx*.X...O......XxFFFFFFFFFF",
"FFFFFFFFFFFF-@X.......X-FFFFFFFFFFFF",
"FFFFFFFFFFFFFxg=@XX@-fcFFFFFFFFFFFFF",
"FFFFFFFFFFFFFFFFFFFFFFFFFFFFFFFFFFFF",
"FFFFFFFFFFFFFFFFFFFFFFFFFFFFFFFFFFFF",
"FFFFFFFFFFFFFFFFFFFFFFFFFFFFFFFFFFFF",
"FFFFFFFFFFFFFFFFFFFFFFFFFFFFFFFFFFFF",
"FFFFFFFFFFFFFFFFFFFFFFFFFFFFFFFFFFFF"
};
