/* XPM */
static char *brown_jump6[] = {
"36 36 62 1",
"  c black",
". c #1b170b",
"X c #1b1911",
"o c #231a09",
"O c #211a12",
"+ c #2c210b",
"@ c #292414",
"# c #38290c",
"$ c #362a11",
"% c #3c310a",
"& c #3e3015",
"* c #292422",
"= c #322f28",
"- c #343127",
"; c #412e09",
": c #48340b",
"> c #483714",
", c #553c0b",
"< c #543f14",
"1 c #493d23",
"2 c #413e39",
"3 c #5b420c",
"4 c #5b4314",
"5 c #46433a",
"6 c #574624",
"7 c #5a4b30",
"8 c #66480b",
"9 c #654a14",
"0 c #6e500b",
"q c #6b5218",
"w c #724e09",
"e c #704e11",
"r c #76530a",
"t c #745514",
"y c #624c25",
"u c #685729",
"i c #6c5c3b",
"p c #7f6119",
"a c #6f623f",
"s c #54544a",
"d c #5e5d59",
"f c #6b5c42",
"g c #615e59",
"h c #69614c",
"j c #676459",
"k c #796b4b",
"l c #7b6d55",
"z c #787157",
"x c #6c6864",
"c c #716b62",
"v c #825d0d",
"b c #815912",
"n c #886720",
"m c #8e6f38",
"M c #96783b",
"N c #85795f",
"B c #867c66",
"V c #a1844a",
"C c #e4c58e",
"Z c #f6d89c",
"A c #fcdfa7",
"S c None",
"SSSSSSSSSSSSSSSSSSSSSSSSSSSSSSSSSSSS",
"SSSSSSSSSSSSSSSSSSSSSSSSSSSSSSSSSSSS",
"SSSSSSSSSSSSSSSSSSSSSSSSSSSSSSSSSSSS",
"SSSSSSSSSSSSSSSSSSSSSSSSSSSSSSSSSSSS",
"SSSSSSSSSSSSSSSSSSSSSSSSSSSSSSSSSSSS",
"SSSSSSSSSSSSSSSSSSSSSSSSSSSSSSSSSSSS",
"SSSSSSSSSSSSSSSSSSSSSSSSSSSSSSSSSSSS",
"SSSSSSSSSSSSSSSSSSSSSSSSSSSSSSSSSSSS",
"SSSSSSSSSSSSSSSSSSSSSSSSSSSSSSSSSSSS",
"SSSSSSSSSSSSSSSSSSSSSSSSSSSSSSSSSSSS",
"SSSSSSSSSSSSSSSSSBBSSSSSSSSSSSSSSSSS",
"SSSSSSSSSSSSSBfiy6667flSSSSSSSSSSSSS",
"SSSSSSSSSSBkuqqqqq9994<>hSSSSSSSSSSS",
"SSSSSSSSSziqttwree880894>1hSSSSSSSSS",
"SSSSSSSSlyqtrrrbbr888834<:%hSSSSSSSS",
"SSSSSSSNyqtrvrrrwwte883,,4%$cSSSSSSS",
"SSSSSSBqeertrrrrrw00893,,,:#$cSSSSSS",
"SSSSSSaqwrtrrtpnr08e843,3,:#@5SSSSSS",
"SSSSSN6qewr0tMZZMe888333,:;#@.xSSSSS",
"SSSSSk480r0teVACm9883,3,::&#+o5SSSSS",
"SSSSSi488trttett88333,,:;;&+o.-SSSSS",
"SSSSS64880e8808833333,,;;#+@o.=SSSSS",
"SSSSS643388888883,,,::;%##+o..@SSSSS",
"SSSSS6><,333333,,,:::;%##$+oo.@SSSSS",
"SSSSS7>:,333,,,:::::%##$+ooo.O=SSSSS",
"SSSSSh&>:::::::::::&###+oooo..sSSSSS",
"SSSSSS$#;%;::%;;;%#$+++ooo.OO.SSSSSS",
"SSSSSS5$####%#%###+++ooo...XX2SSSSSS",
"SSSSSSS-++$+$++++oooo....XXX*SSSSSSS",
"SSSSSSSj@oo+++oooooo....XXX*gSSSSSSS",
"SSSSSSSSg...............XXXxSSSSSSSS",
"SSSSSSSSSS@.X.....X.X.XX.=gSSSSSSSSS",
"SSSSSSSSSSSd=XX..XX.XXX@jSSSSSSSSSSS",
"SSSSSSSSSSSSSd5-XXXXX5jSSSSSSSSSSSSS",
"SSSSSSSSSSSSSSSSSSSSSSSSSSSSSSSSSSSS",
"SSSSSSSSSSSSSSSSSSSSSSSSSSSSSSSSSSSS"
};
