/* XPM */
static char *brown_jump5[] = {
"36 36 61 1",
"  c black",
". c #1b170b",
"X c #1b1911",
"o c #231b0b",
"O c #231c12",
"+ c #2b220c",
"@ c #292318",
"# c #37290c",
"$ c #342812",
"% c #3e3016",
"& c #373328",
"* c #3c3a32",
"= c #422e0c",
"- c #49340b",
"; c #483715",
": c #553c0c",
"> c #523b13",
", c #5b420a",
"< c #584214",
"1 c #4d4229",
"2 c #4e473f",
"3 c #574c2e",
"4 c #66480b",
"5 c #664913",
"6 c #6e500a",
"7 c #6d5116",
"8 c #724e0c",
"9 c #724c10",
"0 c #75540a",
"q c #775614",
"w c #614d32",
"e c #695324",
"r c #695731",
"t c #775b29",
"y c #715d38",
"u c #504f4a",
"i c #55534b",
"p c #5e5d58",
"a c #645c47",
"s c #635f57",
"d c #68615b",
"f c #776649",
"g c #796f56",
"h c #7b735a",
"j c #6c6c64",
"k c #726b63",
"l c #7d7566",
"z c #815e1c",
"x c #89642f",
"c c #8c6933",
"v c #916f30",
"b c #86755a",
"n c #877964",
"m c #ad8a48",
"M c #ae8b55",
"N c #c09e5e",
"B c #d0ac78",
"V c #d4b07e",
"C c #ffdaa5",
"Z c #fff7c1",
"A c None",
"AAAAAAAAAAAAAAAAAAAAAAAAAAAAAAAAAAAA",
"AAAAAAAAAAAAAAAAAAAAAAAAAAAAAAAAAAAA",
"AAAAAAAAAAAAAAAAAAAAAAAAAAAAAAAAAAAA",
"AAAAAAAAAAAAAAAAAAAAAAAAAAAAAAAAAAAA",
"AAAAAAAAAAAAAAAAAAAAAAAAAAAAAAAAAAAA",
"AAAAAAAAAAAAAAAAAAAAAAAAAAAAAAAAAAAA",
"AAAAAAAAAAAAAAAAAAAAAAAAAAAAAAAAAAAA",
"AAAAAAAAAAAAAAAAAAAAAAAAAAAAAAAAAAAA",
"AAAAAAAAAAAAAnbfyyrwfgAAAAAAAAAAAAAA",
"AAAAAAAAAAAAfee57755<<3aAAAAAAAAAAAA",
"AAAAAAAAAAnye78z99975<>;1lAAAAAAAAAA",
"AAAAAAAAAbr7q000098955,-;;lAAAAAAAAA",
"AAAAAAAAbe7q00qq0q8444:>>;$dAAAAAAAA",
"AAAAAAAhr700q00006q44,,:>;%&AAAAAAAA",
"AAAAAAAf7qqqq00q86494,,:--#$2AAAAAAA",
"AAAAAAnr70000qmNv9444,,::-%$@AAAAAAA",
"AAAAAAf59008qcCZM744,,,::=%+oiAAAAAA",
"AAAAAAw540089xBVc744,,,:-=#+o*AAAAAA",
"AAAAAA<549q8qqtq74,,,::-=#++oXAAAAAA",
"AAAAAn<,47966444,,:,::--=##oo.AAAAAA",
"AAAAAh<<579444445,<,:--=#++O.OsAAAAA",
"AAAAAg;<,,4,4,,5:::---=##++oOXiAAAAA",
"AAAAAl;<,:,,,,,:::---%%##$o.OXpAAAAA",
"AAAAAA%>:<<:::::----%%##+ooO.XAAAAAA",
"AAAAAA1=>-:--------%###+oo...@AAAAAA",
"AAAAAAa%=---------=%#++ooooo.*AAAAAA",
"AAAAAAl$#%=%=-%=####$+ooo...XAAAAAAA",
"AAAAAAA&$#########+o+oo.....&AAAAAAA",
"AAAAAAAAo+$$++++++oooo.....@AAAAAAAA",
"AAAAAAAAsoo++++oooo......XXpAAAAAAAA",
"AAAAAAAAAk.ooooo........XXpAAAAAAAAA",
"AAAAAAAAAAs@XX.........X@pAAAAAAAAAA",
"AAAAAAAAAAAA*XXXXX..X..*jAAAAAAAAAAA",
"AAAAAAAAAAAAAAu&.XXX&ujAAAAAAAAAAAAA",
"AAAAAAAAAAAAAAAAAAAAAAAAAAAAAAAAAAAA",
"AAAAAAAAAAAAAAAAAAAAAAAAAAAAAAAAAAAA"
};
