/* XPM */
static char *cyan_jump7[] = {
"36 36 63 1",
"  c black",
". c #0b2d2b",
"X c #0b2f30",
"o c #0a302e",
"O c #083435",
"+ c #112e2d",
"@ c #153435",
"# c #253b39",
"$ c #0a3f45",
"% c #08403f",
"& c #0a4747",
"* c #0a5755",
"= c #115251",
"- c #13615e",
"; c #0c6a69",
": c #0a7979",
"> c #106766",
", c #10706d",
"< c #157575",
"1 c #314949",
"2 c #2c5d62",
"3 c #306d69",
"4 c #495a58",
"5 c #536b6b",
"6 c #626c6d",
"7 c #687677",
"8 c #0e7e84",
"9 c #637f83",
"0 c #07827f",
"q c #098787",
"w c #099798",
"e c #128b8b",
"r c #16999a",
"t c #0b9ea1",
"y c #09a8a8",
"u c #08b0af",
"i c #0bb8b7",
"p c #15a6a7",
"a c #16b6b6",
"s c #359292",
"d c #27a39f",
"f c #34b1af",
"g c #11c1be",
"h c #0cc8c7",
"j c #0cd2cd",
"k c #09d8d9",
"l c #16d9d8",
"z c #0edee2",
"x c #0de1df",
"c c #0be3e4",
"v c #16e8ea",
"b c #27cac6",
"n c #23ded8",
"m c #22dee0",
"M c #26e9e8",
"N c #598b8a",
"B c #598e91",
"V c #509494",
"C c #43a5a4",
"Z c #678889",
"A c #48eeef",
"S c #6ffffe",
"D c None",
"DDDDDDDDDDDDDDDDDDDDDDDDDDDDDDDDDDDD",
"DDDDDDDDDDDDDDDDDDDDDDDDDDDDDDDDDDDD",
"DDDDDDDDDDDDDDDDDDDDDDDDDDDDDDDDDDDD",
"DDDDDDDDDDDDDDDDDDDDDDDDDDDDDDDDDDDD",
"DDDDDDDDDDDDDDDDDDDDDDDDDDDDDDDDDDDD",
"DDDDDDDDDDDDDDDDDDDDDDDDDDDDDDDDDDDD",
"DDDDDDDDDDDDDDDDDDDDDDDDDDDDDDDDDDDD",
"DDDDDDDDDDDDDDDDDDDDDDDDDDDDDDDDDDDD",
"DDDDDDDDDDDDDDDDDDDDDDDDDDDDDDDDDDDD",
"DDDDDDDDDDDDDDDDDDDDDDDDDDDDDDDDDDDD",
"DDDDDDDDDDDDDDDDDDDDDDDDDDDDDDDDDDDD",
"DDDDDDDDDDDDDDDDDDDDDDDDDDDDDDDDDDDD",
"DDDDDDDDDDDDDDDZNNBBZDDDDDDDDDDDDDDD",
"DDDDDDDDDDZZBBVCfdssVBNZZDDDDDDDDDDD",
"DDDDDDDDDBVffbbbbbaaaddssNDDDDDDDDDD",
"DDDDDDDDBCfblvkkkjhhgaape85ZDDDDDDDD",
"DDDDDDDVfblllxkvkvjhgiaype<3ZDDDDDDD",
"DDDDDDBfbMcccxvkzkzhhiuuytq,3ZDDDDDD",
"DDDDDBCbMzvcczkkkkjlhiiytwr<-2DDDDDD",
"DDDDZVfnkccczmmMljlhiiuuyre,>=9DDDDD",
"DDDDZdbjkkzklASSAlhiuuyprr:;-&@DDDDD",
"DDDDNdghkvvjnASAbiiuyyprq:,>=$X7DDDD",
"DDDDNriilljlhggiiuyappre:,-*&O+5DDDD",
"DDDDNryuiiiiiiuaaawwwq8:;-=&OO+4DDDD",
"DDDDNepyyyyyyapwwweq8<,;*=&OOO@5DDDD",
"DDDD7<eqepwwwwwqqq::,>*-=&OOOO.6DDDD",
"DDDDD2><e:0qq:::::,;**=&OOOOXo#DDDDD",
"DDDDD5=->;,;;;;;>***=&&OOOXX++4DDDDD",
"DDDDDD1&==***-=&&&&OOOOXXX+++1DDDDDD",
"DDDDDD71O&%&%OOOOOoXXXX@.++.#7DDDDDD",
"DDDDDDD7@.oOOOOOOOX+.+.+..+#5DDDDDDD",
"DDDDDDDD71++o.XXXXo+o+..++17DDDDDDDD",
"DDDDDDDDDD61++o.o+o..+++#7DDDDDDDDDD",
"DDDDDDDDDDDD751@..+++157DDDDDDDDDDDD",
"DDDDDDDDDDDDDDDDDDDDDDDDDDDDDDDDDDDD",
"DDDDDDDDDDDDDDDDDDDDDDDDDDDDDDDDDDDD"
};
