/* XPM */
static char *cyan_jump3[] = {
"36 36 60 1",
"  c black",
". c #0c2c2c",
"X c #082e31",
"o c #09302e",
"O c #0a3434",
"+ c #122d2b",
"@ c #14302f",
"# c #133334",
"$ c #223635",
"% c #103d40",
"& c #2a3c40",
"* c #08433d",
"= c #0b4747",
"- c #0b5857",
"; c #134a4a",
": c #115453",
"> c #13605c",
", c #0a6968",
"< c #0a7777",
"1 c #126b6b",
"2 c #137878",
"3 c #2f4948",
"4 c #337471",
"5 c #455657",
"6 c #546c6c",
"7 c #647574",
"8 c #0b7c81",
"9 c #0a817f",
"0 c #0b8889",
"q c #0a9696",
"w c #118787",
"e c #139798",
"r c #0aa7a8",
"t c #0fafb1",
"y c #0ab6b6",
"u c #16a6a7",
"i c #16b9ba",
"p c #2d9192",
"a c #2aa19f",
"s c #2cb5b5",
"d c #0cc2be",
"f c #31c5b9",
"g c #0ac7c7",
"h c #0bdad8",
"j c #15cdcb",
"k c #14d9d9",
"l c #10e1dd",
"z c #13e6e8",
"x c #2ad1d0",
"c c #2ae9ea",
"v c #4f9294",
"b c #568b8c",
"n c #43a39f",
"m c #45b0b1",
"M c #668a8a",
"N c #638e92",
"B c #50f4f9",
"V c #72ffff",
"C c #88ffff",
"Z c None",
"ZZZZZZZZZZZZZZZZZZZZZZZZZZZZZZZZZZZZ",
"ZZZZZZZZZZZZZZZZZZZZZZZZZZZZZZZZZZZZ",
"ZZZZZZZZZZZZZZZZZZZZZZZZZZZZZZZZZZZZ",
"ZZZZZZZZZZZZZZZZZZZZZZZZZZZZZZZZZZZZ",
"ZZZZZZZZZZZZZZZZZZZZZZZZZZZZZZZZZZZZ",
"ZZZZZZZZZZZZZZZZZZZZZZZZZZZZZZZZZZZZ",
"ZZZZZZZZZZZZZMMMbNbNMMZZZZZZZZZZZZZZ",
"ZZZZZZZZZZZZNnsssssuapbMZZZZZZZZZZZZ",
"ZZZZZZZZZZNvmxxjkxggtup4bMZZZZZZZZZZ",
"ZZZZZZZZZbnxkkckkkggjiue26MZZZZZZZZZ",
"ZZZZZZZZbnxkzzzzhhjggyruw16ZZZZZZZZZ",
"ZZZZZZZNnfxzlzllhzhgytrqe2>6ZZZZZZZZ",
"ZZZZZZZvmjhzzzzhhhkgitru091;MZZZZZZZ",
"ZZZZZZMaxklzzkccxjgjitrqqw,:3ZZZZZZZ",
"ZZZZZZbsxhhhkcBVBjkdyrtuew,:O7ZZZZZZ",
"ZZZZZZvsjhzhhcVCBxdytrue0<<:#5ZZZZZZ",
"ZZZZZMnighzhhxBBxiytrruq<<,=%#ZZZZZZ",
"ZZZZZbpighhzkkjjiytrrqe02,-;O+ZZZZZZ",
"ZZZZZvptdhkkgggyytrtuqe21,-=o#7ZZZZZ",
"ZZZZZvpiyydyyyydyitqq09<,-=OO+6ZZZZZ",
"ZZZZZbputtyyyyiirqqew<<,,-=OO@ZZZZZZ",
"ZZZZZM4aqrrritrqqq0w2<1,-;OOo+7ZZZZZ",
"ZZZZZM4wquqqqqqeq0w<<,,-:=oOO$ZZZZZZ",
"ZZZZZZ420qqqqq00qw22,,-:=OoO#&ZZZZZZ",
"ZZZZZZ612800008w8<,1,-==OOOO@6ZZZZZZ",
"ZZZZZZM:2<<<<<2<1,>-=;OOO#@+$ZZZZZZZ",
"ZZZZZZZ4:1,,11,,-:;==OOXOO.@6ZZZZZZZ",
"ZZZZZZZZ;;:>---:;==OOOoOO.#&ZZZZZZZZ",
"ZZZZZZZZ7#O*===O%OOOoooo.+$6ZZZZZZZZ",
"ZZZZZZZZZ6#OoOoOOOXXOOO+@$6ZZZZZZZZZ",
"ZZZZZZZZZZ73#@.#..OXOX.+$7ZZZZZZZZZZ",
"ZZZZZZZZZZZZ5+++.oOo.+$6ZZZZZZZZZZZZ",
"ZZZZZZZZZZZZZZ7533+336ZZZZZZZZZZZZZZ",
"ZZZZZZZZZZZZZZZZZZZZZZZZZZZZZZZZZZZZ",
"ZZZZZZZZZZZZZZZZZZZZZZZZZZZZZZZZZZZZ",
"ZZZZZZZZZZZZZZZZZZZZZZZZZZZZZZZZZZZZ"
};
