/* XPM */
static char *cyan_jump2[] = {
"36 36 62 1",
"  c black",
". c #0a2e2d",
"X c #092e31",
"o c #0a312c",
"O c #0a3434",
"+ c #122c2b",
"@ c #112e31",
"# c #14302c",
"$ c #163335",
"% c #2a3e3e",
"& c #0e3d40",
"* c #0b413e",
"= c #0b4645",
"- c #0b5858",
"; c #124a49",
": c #10514e",
"> c #125959",
", c #02605f",
"< c #0a6969",
"1 c #0a7677",
"2 c #146766",
"3 c #10706f",
"4 c #137776",
"5 c #324d4d",
"6 c #286f6f",
"7 c #4a5a5c",
"8 c #556e6e",
"9 c #687979",
"0 c #09817e",
"q c #0a8887",
"w c #0a9a98",
"e c #148685",
"r c #139795",
"t c #0ea19d",
"y c #0aa8a7",
"u c #0fb0af",
"i c #0ab7b7",
"p c #15aca9",
"a c #17b8b8",
"s c #30908e",
"d c #34b0af",
"f c #0ec1bd",
"g c #0ac9c8",
"h c #0ad9d8",
"j c #18c8c9",
"k c #13d6d5",
"l c #15dfe1",
"z c #0ce2de",
"x c #09e5e5",
"c c #18eeec",
"v c #26cfce",
"b c #2bdfe0",
"n c #2aeae8",
"m c #548f8f",
"M c #47a7a8",
"N c #678989",
"B c #608d90",
"V c #49e3eb",
"C c #57fcfd",
"Z c #76ffff",
"A c #88ffff",
"S c None",
"SSSSSSSSSSSSSSSSSSSSSSSSSSSSSSSSSSSS",
"SSSSSSSSSSSSSSSSSSSSSSSSSSSSSSSSSSSS",
"SSSSSSSSSSSSSSSSSSSSSSSSSSSSSSSSSSSS",
"SSSSSSSSSSSSSSSSSSSSSSSSSSSSSSSSSSSS",
"SSSSSSSSSSSSSSSSSSSSSSSSSSSSSSSSSSSS",
"SSSSSSSSSSSSSSSNmmmmBSSSSSSSSSSSSSSS",
"SSSSSSSSSSSSNmmMdddssmBNSSSSSSSSSSSS",
"SSSSSSSSSSNmMavvjjjaptssmSSSSSSSSSSS",
"SSSSSSSSSBMdvlchhhgkjate6mSSSSSSSSSS",
"SSSSSSSSBMvkcxxxhkkggiype28SSSSSSSSS",
"SSSSSSSNmdkcxxcxhlggiiuwr4>NSSSSSSSS",
"SSSSSSNmdvzzczxhhhkgguywqe2:NSSSSSSS",
"SSSSSSNdvnzczzlnkkgkiuywqe<:;SSSSSSS",
"SSSSSSmdkkhxkbCZVjkiiupywq<>O8SSSSSS",
"SSSSSSmvghhhknAACjgiuyptr13-&7SSSSSS",
"SSSSSNmakhchhnCCbjiuyytqq3<:O5SSSSSS",
"SSSSSBsaglllkbkkfiuyywtq1<>;O$SSSSSS",
"SSSSSmsffkkkgggiiuyupwrq32>=X@9SSSSS",
"SSSSSmspigifiiiiaauwwqq1<>;OX@8SSSSS",
"SSSSSBepuiuiiiiaywwrqq1<<-=O@+8SSSSS",
"SSSSSmsptyuyyuuywrqq013<>:OO#+9SSSSS",
"SSSSSB6ewppwtywwwqq01<<>:=Ooo+SSSSSS",
"SSSSSN64rwwrrqqqqqe0<,2:=OOOo%SSSSSS",
"SSSSSS921qqeqqqeee13<>:=OOOO@7SSSSSS",
"SSSSSSN2311111433<<->;*OXOOX@9SSSSSS",
"SSSSSSS5>2<<433<->-:=OOXoXX@5SSSSSSS",
"SSSSSSS9;:>2---:::==OXo.X.@%9SSSSSSS",
"SSSSSSSS9O*;=;===&OXooooOX@9SSSSSSSS",
"SSSSSSSSS8$OOOOOXXOXXXo..@7SSSSSSSSS",
"SSSSSSSSSS7$@.XXOXOOOXO$+7SSSSSSSSSS",
"SSSSSSSSSSS95+@@@.o..@$5SSSSSSSSSSSS",
"SSSSSSSSSSSSSS7%$++#579SSSSSSSSSSSSS",
"SSSSSSSSSSSSSSSSSS9SSSSSSSSSSSSSSSSS",
"SSSSSSSSSSSSSSSSSSSSSSSSSSSSSSSSSSSS",
"SSSSSSSSSSSSSSSSSSSSSSSSSSSSSSSSSSSS",
"SSSSSSSSSSSSSSSSSSSSSSSSSSSSSSSSSSSS"
};
