/* XPM */
static char *cyan_jump5[] = {
"36 36 64 1",
"  c black",
". c #0c2d2d",
"X c #0c2d30",
"o c #09312d",
"O c #093534",
"+ c #132b2c",
"@ c #112e31",
"# c #10302c",
"$ c #143535",
"% c #223638",
"& c #0a3d40",
"* c #0d423b",
"= c #0a4647",
"- c #0b5859",
"; c #124e4c",
": c #135757",
"> c #0e5e61",
", c #15615f",
"< c #0b696a",
"1 c #0a7878",
"2 c #116f70",
"3 c #324b4b",
"4 c #36605c",
"5 c #276d6f",
"6 c #495c5c",
"7 c #586f6f",
"8 c #687778",
"9 c #097e83",
"0 c #08827c",
"q c #32827f",
"w c #0b8888",
"e c #0a9796",
"r c #148888",
"t c #109593",
"y c #0a9da2",
"u c #0ba39d",
"i c #08a9a9",
"p c #0daeb2",
"a c #0ab7b6",
"s c #14a8a7",
"d c #15b8b7",
"f c #309292",
"g c #2fb2b2",
"h c #0cbfc1",
"j c #0ec1be",
"k c #0ac7c6",
"l c #09d8d7",
"z c #12cdca",
"x c #13d9d8",
"c c #09dfe2",
"v c #0ae1dc",
"b c #09e4e5",
"n c #17ecec",
"m c #28c9c9",
"M c #26d6d6",
"N c #31ebec",
"B c #4e9596",
"V c #588b8c",
"C c #43adad",
"Z c #66898a",
"A c #51eff0",
"S c #71feff",
"D c #95ffff",
"F c None",
"FFFFFFFFFFFFFFFFFFFFFFFFFFFFFFFFFFFF",
"FFFFFFFFFFFFFFFFFFFFFFFFFFFFFFFFFFFF",
"FFFFFFFFFFFFFFFFFFFFFFFFFFFFFFFFFFFF",
"FFFFFFFFFFFFFFFFFFFFFFFFFFFFFFFFFFFF",
"FFFFFFFFFFFFFFFFFFFFFFFFFFFFFFFFFFFF",
"FFFFFFFFFFFFFFFFFFFFFFFFFFFFFFFFFFFF",
"FFFFFFFFFFFFFFFFFFFFFFFFFFFFFFFFFFFF",
"FFFFFFFFFFFFFFZZZZZZZFFFFFFFFFFFFFFF",
"FFFFFFFFFFFFFVBBgggfBVZFFFFFFFFFFFFF",
"FFFFFFFFFFFZBCgmmzddsffVZFFFFFFFFFFF",
"FFFFFFFFFZBgmMxNxxkxmssrqVFFFFFFFFFF",
"FFFFFFFFZBCMvbbblllkhaier5VFFFFFFFFF",
"FFFFFFFZBgmNbbnnlnzkaaist1:8FFFFFFFF",
"FFFFFFFBCmxbnbbbllxkjaiytr<;FFFFFFFF",
"FFFFFFZCmNcnbbcxxzzzapiywr2:4FFFFFFF",
"FFFFFFVgMxccvnNANzkjaipstr<-OFFFFFFF",
"FFFFFZBgzlllxNSDAMjdpisuw12:O7FFFFFF",
"FFFFFZfdzlvlxNSSAzappist02<;$3FFFFFF",
"FFFFFVfdkxblxMMMzdppieyw1<>;$+8FFFFF",
"FFFFFVfdklxxxkhaaaidiyt11<-*o#8FFFFF",
"FFFFFVfsazzjajaaddpett01<-;*o#8FFFFF",
"FFFFFVrsipaaaipdiuewww1<<-=o##8FFFFF",
"FFFFFVruiiiiiddueewww11<,;OO$+8FFFFF",
"FFFFFV5respyyieetww911<-;=Oo@+FFFFFF",
"FFFFFF51tttttttwwww91<>:=OOo.%FFFFFF",
"FFFFFF721rwwww0rr112<-;=OooO#3FFFFFF",
"FFFFFFZ:<211111<<<>-:;*Oo$oo.8FFFFFF",
"FFFFFFF4:,<<222<>:;;=OOo.o..3FFFFFFF",
"FFFFFFF73;:-----;==&Oooooo.$8FFFFFFF",
"FFFFFFFF7;O;====&OOOooX.o.+7FFFFFFFF",
"FFFFFFFFF6.oOOO$oOooo@@X@#6FFFFFFFFF",
"FFFFFFFFFF7$.@.#.ooo..@@$8FFFFFFFFFF",
"FFFFFFFFFFF83%+@.o.o..+38FFFFFFFFFFF",
"FFFFFFFFFFFFF863%+++368FFFFFFFFFFFFF",
"FFFFFFFFFFFFFFFFFFFFFFFFFFFFFFFFFFFF",
"FFFFFFFFFFFFFFFFFFFFFFFFFFFFFFFFFFFF"
};
