/* XPM */
static char *cyan_destroy3[] = {
"36 36 65 1",
"  c black",
". c #7f7f63",
"X c #788866",
"o c #997b33",
"O c #af7b0e",
"+ c #927c50",
"@ c #8a7d65",
"# c #a37c43",
"$ c #dc6300",
"% c #ec7a02",
"& c #f47d05",
"* c #958731",
"= c #ac8f2b",
"- c #bda636",
"; c #908949",
": c #888259",
"> c #948548",
", c #898365",
"< c #b5954e",
"1 c #b5a959",
"2 c #beac64",
"3 c #ce910e",
"4 c #cf9430",
"5 c #d8a408",
"6 c #d2b030",
"7 c #ec9008",
"8 c #f88809",
"9 c #fc8a13",
"0 c #f9930b",
"q c #fe9717",
"w c #fc9c25",
"e c #edad10",
"r c #fba718",
"t c #fab919",
"y c #e9b030",
"u c #fea925",
"i c #fdb727",
"p c #feb935",
"a c #caac49",
"s c #cbb965",
"d c #edb74d",
"f c #f1c912",
"g c #fbc31a",
"h c #ebcc33",
"j c #ffc629",
"k c #ffca37",
"l c #ffd72b",
"z c #ffd839",
"x c #ffe826",
"c c #ffe837",
"v c #d6c85b",
"b c #dbcd6c",
"n c #f7c950",
"m c #ffdb47",
"M c #fdd857",
"N c #e8d768",
"B c #ffe946",
"V c #fee858",
"C c #fff749",
"Z c #fff656",
"A c #f8ec6c",
"S c #b0cf96",
"D c #fff48e",
"F c #ebf2a4",
"G c None",
"GGGGGGGGGGGGGGGGGGGGGGGGGGGGGGGGGGGG",
"GGGGGGGGGGGGGGGGGGGGGGGGGGGGGGGGGGGG",
"GGGGGGGGGGGGGGGGGGGGGGGGGGGGGGGGGGGG",
"GGGGGGGGGGGGG@#O65zh6-=>@GGGGGGGGGGG",
"GGGGGGGGGGGGG+<nmmBZCVAb1:.GGGGGGGGG",
"GGGGGGGGGGGGG<6niijljBZZAa;:GGGGGGGG",
"GGGGGGGGGGGGXsnykittteecZZN;:GGGGGGG",
"GGGGGGGGGGGXSFDMkkVAAViegBZA*,GGGGGG",
"GGGGGGG@@+,FFDAp77pMMpu0rlCZN;GGGGGG",
"GGGGGG@o4ddddnwu9%wq778u7elCAs:GGGGG",
"GGGGG@+dMrq99989898q88&&7rtcZA;,GGGG",
"GGGGG>4mtq%qw989qqq099&&irrgBZvXGGGG",
"GGGG:-mjtqq&8quqiprqq9880%q7gCN:GGGG",
"GGG@>Vctrq%qqqupiirprrq9&&0rtcZ1,GGG",
"GGG>aCxgr99&qquiiuiprru9998qjfZ1>GGG",
"GGG*NCxgq&q9qqrejkijiiuq9990rfCv*GGG",
"GGG*NCxt7899qurktejtjrqw88%qefBA*GGG",
"GGG*NZlr89&quritjzljeju7q890rtZA*GGG",
"GGG*AZlr8%9irrujjtlzlrrq9&&qjeZA*GGG",
"GGG*NBf7088uirkrettgjeru0&&rrcZA*GGG",
"GGG*vZctqu&0iruritttiiqq08%7elZN>GGG",
"GGG@>Mztr8&9qqqrjlteu088&&97txZs:GGG",
"GGGG:6mjrq%898qrrij7qu9q9qqrgcZ1,GGG",
"GGGG+=Vme899&9q907rqq99&&%0tlCn+GGGG",
"GGGG,odzgq%%q&9q9qrqq8&999r5cZa,GGGG",
"GGGGG+<zli7q%$&98e5e089&qq05BM*@GGGG",
"GGGGGG+6zt70p9w7kZBzr7999%7lZs;GGGGG",
"GGGGGG@=VB37upimjBCCzeq880kVv;GGGGGG",
"GGGGGGG>aVk7rjzjBZzZZprqqmAA*,GGGGGG",
"GGGGGGG@>aMm55iyydynyy5emAb;,GGGGGGG",
"GGGGGGGG@#=nMVyO4O333dnM6*>,GGGGGGGG",
"GGGGGGGGGG@+#1ddMnMMd<2+:@GGGGGGGGGG",
"GGGGGGGGGGGG@+oO3533Oo>@GGGGGGGGGGGG",
"GGGGGGGGGGGGGGGGGGGGGGGGGGGGGGGGGGGG",
"GGGGGGGGGGGGGGGGGGGGGGGGGGGGGGGGGGGG",
"GGGGGGGGGGGGGGGGGGGGGGGGGGGGGGGGGGGG"
};
