/* XPM */
static char *cyan_jump4[] = {
"36 36 63 1",
"  c black",
". c #0b2c2c",
"X c #092e31",
"o c #0a312e",
"O c #093434",
"+ c #122d2c",
"@ c #142e30",
"# c #14302e",
"$ c #153535",
"% c #273a3a",
"& c #0b3d40",
"* c #2b3e42",
"= c #0a423e",
"- c #0b4746",
"; c #0a5a57",
": c #124e4c",
"> c #135756",
", c #0f625e",
"< c #0b6767",
"1 c #0a7675",
"2 c #136969",
"3 c #167373",
"4 c #324c4c",
"5 c #337274",
"6 c #475857",
"7 c #526b6b",
"8 c #667a78",
"9 c #0c7e81",
"0 c #0a827e",
"q c #098886",
"w c #0a9897",
"e c #138888",
"r c #119492",
"t c #0da29e",
"y c #0cacac",
"u c #09b7b8",
"i c #16a7a6",
"p c #15b7b8",
"a c #2e9192",
"s c #32b0ac",
"d c #0abec2",
"f c #24bcc2",
"g c #1dc3bf",
"h c #30c2bf",
"j c #09c7c8",
"k c #0ad8d9",
"l c #13c8c9",
"z c #14d8d6",
"x c #0fdfe3",
"c c #0fe2de",
"v c #11eae9",
"b c #27cbca",
"n c #28d3d4",
"m c #30e9e7",
"M c #4d9391",
"N c #5b8b8d",
"B c #46a29f",
"V c #44a9a7",
"C c #688989",
"Z c #4ef5f6",
"A c #76ffff",
"S c #8fffff",
"D c None",
"DDDDDDDDDDDDDDDDDDDDDDDDDDDDDDDDDDDD",
"DDDDDDDDDDDDDDDDDDDDDDDDDDDDDDDDDDDD",
"DDDDDDDDDDDDDDDDDDDDDDDDDDDDDDDDDDDD",
"DDDDDDDDDDDDDDDDDDDDDDDDDDDDDDDDDDDD",
"DDDDDDDDDDDDDDDDDDDDDDDDDDDDDDDDDDDD",
"DDDDDDDDDDDDDDDDDDDDDDDDDDDDDDDDDDDD",
"DDDDDDDDDDDDDDDDDDDDDDDDDDDDDDDDDDDD",
"DDDDDDDDDDDDDCCNMMMMNCDDDDDDDDDDDDDD",
"DDDDDDDDDDDCNMBVsssBaMNCCDDDDDDDDDDD",
"DDDDDDDDDDCBsbbbblgpyiraNDDDDDDDDDDD",
"DDDDDDDDDNBbnkvkkzljllte37DDDDDDDDDD",
"DDDDDDDDCVbnvvcckkjjdpiie35DDDDDDDDD",
"DDDDDDDCBhzcvvvvkvkjduytr127DDDDDDDD",
"DDDDDDCMsnxvvcckckvjdpywwe2:8DDDDDDD",
"DDDDDDCsbzxvxcmmzzjzuyywqe<>4DDDDDDD",
"DDDDDDNszkxcknAAZlzuuyitre<>$8DDDDDD",
"DDDDDDMfkkkkzmASZbuuyyiwr13:$4DDDDDD",
"DDDDDCBfjkxkkcZZnluyyttq01<:O*DDDDDD",
"DDDDDNapjzzxzzzljuyyywtq1<;-O@DDDDDD",
"DDDDDMaydzzzjjjuuyyyyww11<>-o+8DDDDD",
"DDDDDMaiuuuuuuulpyywwqq1<;:-o@7DDDDD",
"DDDDDNaiyyuuyuppytwwq91<,:=OO#7DDDDD",
"DDDDDN5iwyyypyywwwqq11<<>-Oo.+7DDDDD",
"DDDDDC5eritwwwwwrq01112;:-Oo##DDDDDD",
"DDDDDC53errwrrqqrq03<<;:-OXO+4DDDDDD",
"DDDDDD821q9qq11qq1<2,>--OOoo.7DDDDDD",
"DDDDDDC>321111911<;>::-XOOO$@DDDDDDD",
"DDDDDDD5>2<<32<,;;;--&OXoo..6DDDDDDD",
"DDDDDDDC4:>,;;;>--=OOXOoOO.%DDDDDDDD",
"DDDDDDDD8$=:---&OOOoOXX...#7DDDDDDDD",
"DDDDDDDDD8$.OOooOoo.@.@#++8DDDDDDDDD",
"DDDDDDDDDD8*..OO.O.O.$.+$8DDDDDDDDDD",
"DDDDDDDDDDDD6#+.@.+++@$6DDDDDDDDDDDD",
"DDDDDDDDDDDDDD74%%#+66DDDDDDDDDDDDDD",
"DDDDDDDDDDDDDDDDDDDDDDDDDDDDDDDDDDDD",
"DDDDDDDDDDDDDDDDDDDDDDDDDDDDDDDDDDDD"
};
