/* XPM */
static char *cyan_destroy2[] = {
"36 36 65 1",
"  c black",
". c #763a03",
"X c #903b00",
"o c #974c06",
"O c #937e36",
"+ c #b05206",
"@ c #ab721f",
"# c #8d7c4e",
"$ c #887d65",
"% c #d36d10",
"& c #eb7601",
"* c #f3750d",
"= c #f77a05",
"- c #948932",
"; c #b39111",
": c #a7912c",
"> c #ae9537",
", c #8e8550",
"< c #888267",
"1 c #a99850",
"2 c #b1a851",
"3 c #d58f05",
"4 c #d38d2b",
"5 c #c6a816",
"6 c #cdb530",
"7 c #ec8c09",
"8 c #fb8809",
"9 c #ff8814",
"0 c #f99609",
"q c #ff9815",
"w c #f18020",
"e c #fe9822",
"r c #f9a70b",
"t c #ffa717",
"y c #f3b308",
"u c #fcb815",
"i c #ffa923",
"p c #ffb823",
"a c #ccb552",
"s c #d2b862",
"d c #decc3a",
"f c #eec60b",
"g c #fcc918",
"h c #fad61a",
"j c #fec623",
"k c #ffd924",
"l c #f4d832",
"z c #eef533",
"x c #ffe425",
"c c #feea36",
"v c #fff32c",
"b c #fff837",
"n c #d3c853",
"m c #dac96a",
"M c #f3d051",
"N c #efd569",
"B c #fddc67",
"V c #ffeb49",
"C c #fce854",
"Z c #fffb49",
"A c #fffb58",
"S c #fdeb66",
"D c #f1ea73",
"F c #fefa6a",
"G c None",
"GGGGGGGGGGGGGGGGGGGGGGGGGGGGGGGGGGGG",
"GGGGGGGGGGGGGGGGGGGGGGGGGGGGGGGGGGGG",
"GGGGGGGGGGGGGGGGGGGGGGGGGGGGGGGGGGGG",
"GGGGGGGGGGG$#:6ddclll6-#<GGGGGGGGGGG",
"GGGGGGGGGG$,sBCVZbbbbASD1,GGGGGGGGGG",
"GGGGGGGGGG#MMVVcbvbbbbZAFn-<GGGGGGGG",
"GGGGGGGG<#>N633ughfgghbbZAD,<GGGGGGG",
"GGGGGGG<#aN214377rr000uxbZFD-<GGGGGG",
"GGGGGGG#sM;114w7pur0780yhbZAm,GGGGGG",
"GGGGGG#>Cl344*9iq0uuq07ugvvZF>#GGGGG",
"GGGGG$1Ccjr7q=880tt00tpugxxbAS1$GGGG",
"GGGG$OnVxjjiq=8000q98qq0ruhbzAm$GGGG",
"GGGG,aCchyr08q8qt89==8qqtrgvbZF,GGGG",
"GGG$,Sbkyu0888tqq8998&=q00rhvZF1<GGG",
"GGG,2Abxyu08e8qq===9=88&8qrgkbFs,GGG",
"GGG-DAbkyu0&q989=9=9&8&q00tuhcANOGGG",
"GGG-DAbgkut8989=99=*988qqttgfcANOGGG",
"GGG-DZbckut8999q&&9**e8800rgkfAD-GGG",
"GGG-DZvhjrt7&&99*=9*9988q0tgkxVD-GGG",
"GGG-NZvhggrqqqq99&=9=9=8i0uukbZD-GGG",
"GGG-nAbxgur0iq&9&q=q=&=8ttpghbAn-GGG",
"GGG#1Fcxgr08q88==99988q=8tugkbFm#GGG",
"GGGG#NAchrt00q9888=8q80=ttuyhZF1$GGG",
"GGGG,aAcgguttqq9===988&0tpuhvbM,GGGG",
"GGGG$1FVykyj0&qq8==88t8truyhbZn,GGGG",
"GGGGG,>Zvfutqqqqqq80q80tuggvZF1<GGGG",
"GGGGG$1Cbhgt7t88qeweqqtuukfbA2#GGGGG",
"GGGGGG#>SZxpqtq9w%%%%&0rufcAn,GGGGGG",
"GGGGGGG,mCVj37&%+oX+%7pplcAMO$GGGGGG",
"GGGGGGG$#2SVj3ooo..X+73lCFN1$GGGGGGG",
"GGGGGGGGG#aMSSB@@.o@4MBna-,<GGGGGGGG",
"GGGGGGGGG$#OsNBSBBBDs1##<<$GGGGGGGGG",
"GGGGGGGGGGG$#-;;;5;;-O,GGGGGGGGGGGGG",
"GGGGGGGGGGGGGGGGGGGGGGGGGGGGGGGGGGGG",
"GGGGGGGGGGGGGGGGGGGGGGGGGGGGGGGGGGGG",
"GGGGGGGGGGGGGGGGGGGGGGGGGGGGGGGGGGGG"
};
