/* XPM */
static char *cyan[] = {
"36 36 64 1",
"  c black",
". c #0d2e2e",
"X c #0b2e31",
"o c #093435",
"O c #132d2c",
"+ c #153233",
"@ c #24373a",
"# c #093c40",
"$ c #2c3f43",
"% c #0d433e",
"& c #29423f",
"* c #0a4647",
"= c #0b5757",
"- c #104d4c",
"; c #155759",
": c #0e5f62",
"> c #0f615c",
", c #0b6968",
"< c #0b7878",
"1 c #107070",
"2 c #334e4e",
"3 c #26736f",
"4 c #495c5b",
"5 c #4b5f60",
"6 c #516c6c",
"7 c #687675",
"8 c #0d7e81",
"9 c #677a80",
"0 c #0e837e",
"q c #59827e",
"w c #0b8786",
"e c #0a9897",
"r c #148888",
"t c #149899",
"y c #0d9fa0",
"u c #0aa09f",
"i c #08a9a8",
"p c #0ab7b7",
"a c #13b0b0",
"s c #2e8e90",
"d c #229da2",
"f c #2eb2b2",
"g c #0fbcc2",
"h c #2abdc1",
"j c #10c3bf",
"k c #36c1bc",
"l c #0ad8d9",
"z c #10cbca",
"x c #16d8d8",
"c c #10e2dc",
"v c #0ae5e3",
"b c #18edeb",
"n c #27d4d1",
"m c #35dce4",
"M c #2ae7e8",
"N c #548f92",
"B c #4ba19d",
"V c #44afb4",
"C c #678989",
"Z c #658b91",
"A c #48f7f5",
"S c #62feff",
"D c #84ffff",
"F c None",
"FFFFFFFFFFFFFFFFFFFFFFFFFFFFFFFFFFFF",
"FFFFFFFFFFFFFFFFFFFFFFFFFFFFFFFFFFFF",
"FFFFFFFFFFFFFFFFFFFFFFFFFFFFFFFFFFFF",
"FFFFFFFFFFFFFFFFFFFFFFFFFFFFFFFFFFFF",
"FFFFFFFFFFFFFqCCZZZZCFFFFFFFFFFFFFFF",
"FFFFFFFFFFFCZBfffffddNNCFFFFFFFFFFFF",
"FFFFFFFFFFZBVfnnzzzgadssCFFFFFFFFFFF",
"FFFFFFFFFZBfnxbxxlzxzhtr36CFFFFFFFFF",
"FFFFFFFFZBfnbvvvllzzppia036FFFFFFFFF",
"FFFFFFFZBkncvvbvlblzppiet<;7FFFFFFFF",
"FFFFFFCNVncvbvvlllczppiewr:;FFFFFFFF",
"FFFFFFCfnMcbvlcMxxzxppieer,;2FFFFFFF",
"FFFFFFCfnlvlcMASAzxppiaier,=-7FFFFFF",
"FFFFFFNfzlllxmDDAnzpiiatr<,=%5FFFFFF",
"FFFFFCBfzlbllmSSmjppiiye8<,-o2FFFFFF",
"FFFFFNsazlvvcxnzjppiietw<,=-o+FFFFFF",
"FFFFFNdhgxlxzzjpppiaitt<1,=*oOFFFFFF",
"FFFFFNsfpzjpppppppaeew<<,=-#XO7FFFFF",
"FFFFFNsfippaapipiieew8<1:=*o.O6FFFFF",
"FFFFFNsdiiiiipauyeew8<1,==#X+O6FFFFF",
"FFFFFC3reaaeeeeeerw8<,,>=*oX+O7FFFFF",
"FFFFFC30tteeeewwrrr<,,>=*oo++@FFFFFF",
"FFFFFF618wwwww8rr<,,,>-*ooo+O4FFFFFF",
"FFFFFFF;,<<<<<011,,==-*ooo+.OFFFFFFF",
"FFFFFFF6;:,,11,,===-*ooXX..+2FFFFFFF",
"FFFFFFF9--;>====--*#oXXo.X+O7FFFFFFF",
"FFFFFFFF6o%--****oooXX...O+6FFFFFFFF",
"FFFFFFFFF5.ooooooo...Xo.+O5FFFFFFFFF",
"FFFFFFFFFF7O+X..X......O+6FFFFFFFFFF",
"FFFFFFFFFFF72++....X.OO2FFFFFFFFFFFF",
"FFFFFFFFFFFFF74$@O.+&4FFFFFFFFFFFFFF",
"FFFFFFFFFFFFFFFFFFFFFFFFFFFFFFFFFFFF",
"FFFFFFFFFFFFFFFFFFFFFFFFFFFFFFFFFFFF",
"FFFFFFFFFFFFFFFFFFFFFFFFFFFFFFFFFFFF",
"FFFFFFFFFFFFFFFFFFFFFFFFFFFFFFFFFFFF",
"FFFFFFFFFFFFFFFFFFFFFFFFFFFFFFFFFFFF"
};
