/* XPM */
static char *destroy9[] = {
"36 36 54 1",
"  c black",
". c #797868",
"X c #aa773e",
"o c #b8753d",
"O c #8e6b58",
"+ c #88755a",
"@ c #9a6c4a",
"# c #956a5a",
"$ c #9d774b",
"% c #99775a",
"& c #8c6b69",
"* c #8b7868",
"= c #8e7a76",
"- c #986d62",
"; c #977a68",
": c #957b75",
"> c #a9774a",
", c #a87a58",
"< c #b86d4d",
"1 c #b97a47",
"2 c #b57c54",
"3 c #a37d66",
"4 c #a27b76",
"5 c #b37560",
"6 c #ce762f",
"7 c #cb7a3b",
"8 c #d47a2d",
"9 c #d47a35",
"0 c #c67b45",
"q c #d27740",
"w c #9c825f",
"e c #8e827a",
"r c #9a8367",
"t c #968375",
"y c #a9825a",
"u c #b9834b",
"i c #b98657",
"p c #a68366",
"a c #a08b7a",
"s c #ae9a77",
"d c #b88766",
"f c #b28776",
"g c #c9833e",
"h c #d78337",
"j c #e3873b",
"k c #ca8142",
"l c #c38554",
"z c #d48748",
"x c #db9150",
"c c #c98e62",
"v c #8d8582",
"b c #948886",
"n c #a18c83",
"m c None",
"mmmmmmmmmmmmmmmmmmmmmmmmmmmmmmmmmmmm",
"mmmmmmmmmmmmmmmmmmmmmmmmmmmmmmmmmmmm",
"mmmmmmmmmmmmmmmmmmmmmmmmmmmmmmmmmmmm",
"mmmmmmmmmmmmmmmmmmmmmmmmmmmmmmmmmmmm",
"mmmmmmmmmmmmmmm=;2070>,*mmmmmmmmmmmm",
"mmmmmmmmmmmmmmmm;,1zk02;=mmmmmmmmmmm",
"mmmmmmmmmmmmmmmmm;ygh905;mmmmmmmmmmm",
"mmmmmmmmmmmmmmmmmm%uhhq<5;.mmmmmmmmm",
"mmmmmmmmmmmmmmmmmm*$u7712,%mmmmmmmmm",
"mmmmmmmmmmmmmmmmmmm+>o770ui,3;mmmmmm",
"mmmmmmmmmmmmmmmmmmm=;17897001y;mmmmm",
"mmmmmmm==mmmmmmmmmm=3179jz79ki%mmmmm",
"mmmmmm=;;mmmmmmmbbm%@oxzx1o7qi%mmmmm",
"mmmmmb=f%tmmmmm==*%,u1u1>,>11drmmmmm",
"mmmmmm:p,rmm.en&#,>iui$%r**%,p*mmmmm",
"mmmmem4,drrmm=:3,>uli@3tmmmm*tmmmmmm",
"mmmmm*%,,yrmmm=3,X1id-:mmmmmmemmmmmm",
"mmmmm;rp%wrmmm&%,uu@-:&mbvmmmmmmmmmm",
"mmmmm*t-%*tmb*O,y>d;;;ta+=*tm=mmmmmm",
"mmmmmm::t::=m;pyyy++*n**+33%%;:emmmm",
"mmmmmmmm=:&=:+p@,ys*t*&r%,2>2p;emmmm",
"mmmmmmmme:;;%yyd%;;++;p>il00uypemmmm",
"mmmmmmmmm=%2>uud%**;%d1hh860l,rmmmmm",
"mmmmmmmmmm+1g1l,;m=*3206j8702,;mmmmm",
"mmmmmmmmmm*2ulirmmmmm3,11c>>,%*mmmmm",
"mmmmmmmmmmmp,,;mmmmmv*p,,,$,,;mmmmmm",
"mmmmmmmmmmme=mmmmmmmmm*p,,,,3rmmmmmm",
"mmmmmmmmmmmmmmmmmmmmmmm*,>2$3:mmmmmm",
"mmmmmmmmmmmmmmmmmmmmmm:;,1udt=mmmmmm",
"mmmmmmmmmmmmmmmmmmmmmm=;%223:mmmmmmm",
"mmmmmmmmmmmmmmmmmmmmmmmmm*;*mmmmmmmm",
"mmmmmmmmmmmmmmmmmmmmmmmmmmmmmmmmmmmm",
"mmmmmmmmmmmmmmmmmmmmmmmmmmmmmmmmmmmm",
"mmmmmmmmmmmmmmmmmmmmmmmmmmmmmmmmmmmm",
"mmmmmmmmmmmmmmmmmmmmmmmmmmmmmmmmmmmm",
"mmmmmmmmmmmmmmmmmmmmmmmmmmmmmmmmmmmm"
};
