/* XPM */
static char *destroy8[] = {
"36 36 65 1",
"  c black",
". c #986d38",
"X c #ba7c12",
"o c #b87335",
"O c #96784b",
"+ c #987858",
"@ c #897b66",
"# c #8e7877",
"$ c #987a65",
"% c #937b76",
"& c #a77848",
"* c #a77a56",
"= c #b87747",
"- c #b67c54",
"; c #a47a63",
": c #b17c63",
"> c #c55f00",
", c #d26e0c",
"< c #ca7530",
"1 c #d57928",
"2 c #e67a09",
"3 c #e67817",
"4 c #e97a29",
"5 c #c87b46",
"6 c #8f7a84",
"7 c #b98633",
"8 c #9a8151",
"9 c #928269",
"0 c #b88348",
"q c #b18a4f",
"w c #b58555",
"e c #ac8667",
"r c #d98d0f",
"t c #cb8639",
"y c #d48c2f",
"u c #d9852a",
"i c #dba314",
"p c #d9a830",
"a c #e98519",
"s c #f09212",
"d c #ed8e2b",
"f c #fa9637",
"g c #f3b113",
"h c #fcb728",
"j c #f5b031",
"k c #ca894a",
"l c #d3a848",
"z c #e99443",
"x c #f2b44d",
"c c #f4cf0a",
"v c #fac918",
"b c #fed71b",
"n c #edca24",
"m c #ffc828",
"M c #fecb36",
"N c #ffda25",
"B c #ffd535",
"V c #fde917",
"C c #ffe827",
"Z c #ffe935",
"A c #fff827",
"S c #fff533",
"D c #fbce43",
"F c #ffea42",
"G c None",
"GGGGGGGGGGGGGGGGGGGGGGGGGGGGGGGGGGGG",
"GGGGGGGGGGGGGGGGGGGGGGGGGGGGGGGGGGGG",
"GGGGGGGGGGGGGGGGGGGGGGGGGGGGGGGGGGGG",
"GGGGGGGGGGGGGGG9w<,rrX7OGGGGGGGGGGGG",
"GGGGGGGGGGGGGGG%*txjMjxq89GGGGGGGGGG",
"GGGGGGGGGGGGGGGG%wysmmnDpq$%GGGGGGGG",
"GGGGGGGGGGGGGGGGGO7sgZvNht&*@GGGGGGG",
"GGGGGGGGGGGGGGGGG98ugmNvhd17OGGGGGGG",
"GGGGGGGGGGGGG@@GGGO<jNCbggjpk+%GGGGG",
"GGGGGGGGGG%$$+$$$+w<iCAbcgBMx0$GGGGG",
"GGGGGGG9e$$;*ee-=-0XjAAAAcNNhl&9GGGG",
"GGGGGG90k-*ww-=51uriFSAAAAVANj0@GGGG",
"GGGGG+&yy<o&&=543dimvCVSAAAACmxOGGGG",
"GGGG@wt3f1<*+*51aivbSCbSZcCbcNDO9GGG",
"GGGG$=1a24<+$*o1hmcCAbggigbcbvMq$GGG",
"GGG%+=14ffu*+&7imZZbNhrrrsrvNZMk+@GG",
"GGG@$=uf331=O&kjhBmmrrr>ssmggcBlO@GG",
"GGG@$kdsf310&-54,dsa>rrshBvvCCnxO9GG",
"GGGG@=1asa1z==<43a33dsgmBZNNSVZlO9GG",
"GGGGG*5ud3d41o<,duu>sMZbSSNCbCBlOGGG",
"GGGGG$-td,d2ddxf,11jggZAVCbCvgpq8GGG",
"GGGGG%*<uasshgmjf1dhmvcAVVVCvit*$GGG",
"GGGGG#$=t32smNvytoddhBZSAVbvgyo$GGGG",
"GGGGGG9*kyasgmD7&5tdrrMNSSNi<=+%GGGG",
"GGGGGG9+0tf2jjt+9*otyuymFNhuo-$GGGGG",
"GGGGGGGG+ofafo8@@9$+.ouihsra1-$GGGGG",
"GGGGGGGG$ou3d&@GG%%$*=<uds2fz*@GGGGG",
"GGGGGG6%;<3af*GGG6%:kkt<12fxk$GGGGGG",
"GGGGGG#%$51ay+GGGG#;-00==uzk*GGGGGGG",
"GGGGGGGGG$wk5$GGGGG%$;;$;we$GGGGGGGG",
"GGGGGGGGGG9:*GGGGGGGGGGGGGGGGGGGGGGG",
"GGGGGGGGGGG%GGGGGGGGGGGGGGGGGGGGGGGG",
"GGGGGGGGGGGGGGGGGGGGGGGGGGGGGGGGGGGG",
"GGGGGGGGGGGGGGGGGGGGGGGGGGGGGGGGGGGG",
"GGGGGGGGGGGGGGGGGGGGGGGGGGGGGGGGGGGG",
"GGGGGGGGGGGGGGGGGGGGGGGGGGGGGGGGGGGG"
};
