/* XPM */
static char *green_jump3[] = {
"36 36 64 1",
"  c black",
". c #0b2d0a",
"X c #0a3309",
"o c #0e3010",
"O c #112d0d",
"+ c #122e12",
"@ c #153416",
"# c #1c3620",
"$ c #283d23",
"% c #0a460b",
"& c #0c4510",
"* c #0b570b",
"= c #0e5111",
"- c #104b0c",
"; c #114c12",
": c #12590d",
"> c #145a14",
", c #0a690a",
"< c #0a770a",
"1 c #116a0e",
"2 c #166a17",
"3 c #117512",
"4 c #1e7620",
"5 c #324d30",
"6 c #316d31",
"7 c #475848",
"8 c #536f52",
"9 c #5c7163",
"0 c #677867",
"q c #0a880a",
"w c #0e8710",
"e c #0b970a",
"r c #118e11",
"t c #159c16",
"y c #09a70a",
"u c #09b80a",
"i c #12aa12",
"p c #15b515",
"a c #1db320",
"s c #2c8e2a",
"d c #23bb1d",
"f c #2cb22e",
"g c #0ac709",
"h c #0ad70a",
"j c #0eda12",
"k c #17ca17",
"l c #11db0e",
"z c #16d716",
"x c #0de70e",
"c c #11e40f",
"v c #18e817",
"b c #28ce2a",
"n c #2ee72c",
"m c #4f904c",
"M c #5a955a",
"N c #5e9361",
"B c #49a64c",
"V c #678d68",
"C c #679168",
"Z c #4cf34b",
"A c #62ff5f",
"S c #79ff77",
"D c #93ff91",
"F c None",
"FFFFFFFFFFFFFFFFFFFFFFFFFFFFFFFFFFFF",
"FFFFFFFFFFFFFFFFFFFFFFFFFFFFFFFFFFFF",
"FFFFFFFFFFFFFFFFFFFFFFFFFFFFFFFFFFFF",
"FFFFFFFFFFFFFFFFFFFFFFFFFFFFFFFFFFFF",
"FFFFFFFFFFFFFFFFFFFFFFFFFFFFFFFFFFFF",
"FFFFFFFFFFFFFFFFFFFFFFFFFFFFFFFFFFFF",
"FFFFFFFFFFFFFVCCMNMNCVFFFFFFFFFFFFFF",
"FFFFFFFFFFFFMBfffapassmCFFFFFFFFFFFF",
"FFFFFFFFFFCBfbkzkzggpts6CFFFFFFFFFFF",
"FFFFFFFFFNBfzzvllhlgkptr48FFFFFFFFFF",
"FFFFFFFFCBfzvxxjlhhgguyiw26FFFFFFFFF",
"FFFFFFFVBfzlxvxjhvhgguyet3>6FFFFFFFF",
"FFFFFFFMfkccxcjjjhlguuyeqw1>0FFFFFFF",
"FFFFFFCfbzjvcjnnzhgkuuyeer,=5FFFFFFF",
"FFFFFFMazjhllnASZkkuuyiyeq,:o0FFFFFF",
"FFFFFFmdhhvhlnSDZkguiyitq<1-@7FFFFFF",
"FFFFFCsdghchhnZZbuuiyeiq<<,%@@FFFFFF",
"FFFFFMspgzjvzzkkkuuyyetq<,*;X+FFFFFF",
"FFFFFMsiuzjjggguuuyiitr3,,*&.+0FFFFF",
"FFFFFMsauuuuuuupppieeq<<1**XXO8FFFFF",
"FFFFFMsiyyuuuupiyeeqww<1:*%XX+FFFFFF",
"FFFFFV4tyiyiipyeeeqw<<1**-XXo+0FFFFF",
"FFFFFV6weieeteeeqqq<<11>=&XXo#FFFFFF",
"FFFFFF63qrrqeeeqwww3,1*=%XXoo5FFFFFF",
"FFFFFF823wqqqqqww<,11*%%XXoXO8FFFFFF",
"FFFFFFF>21<<<<3<,,:*=-XXXXX.#FFFFFFF",
"FFFFFFF8;21,121:**=%%XXX...+7FFFFFFF",
"FFFFFFFF5;::**===%%XXX.XX.+$FFFFFFFF",
"FFFFFFFF0@X&%%%&XXXXXXX.XO@0FFFFFFFF",
"FFFFFFFFF9+.XXXXXXX..X.oo@9FFFFFFFFF",
"FFFFFFFFFF05+XXXX.O+..oo#9FFFFFFFFFF",
"FFFFFFFFFFFF7$O.X..OO+@7FFFFFFFFFFFF",
"FFFFFFFFFFFFFF855@$550FFFFFFFFFFFFFF",
"FFFFFFFFFFFFFFFFFFFFFFFFFFFFFFFFFFFF",
"FFFFFFFFFFFFFFFFFFFFFFFFFFFFFFFFFFFF",
"FFFFFFFFFFFFFFFFFFFFFFFFFFFFFFFFFFFF"
};
