/* XPM */
static char *green_small[] = {
"20 20 63 1",
"  c #0b2f0c",
". c #0a340a",
"X c #102e0c",
"o c #10320f",
"O c #153516",
"+ c #20371e",
"@ c #0d490c",
"# c #0c540c",
"$ c #11480e",
"% c #104f10",
"& c #154d16",
"* c #0d660d",
"= c #0b740b",
"- c #126711",
"; c #10760e",
": c #117911",
"> c #294f29",
", c #364a36",
"< c #3e7c3c",
"1 c gray30",
"2 c #525f54",
"3 c #4d754e",
"4 c #566555",
"5 c #567454",
"6 c #666766",
"7 c #6e716c",
"8 c #7c7d7b",
"9 c #0a880b",
"0 c #0b980d",
"q c #0b9910",
"w c #10820f",
"e c #108d13",
"r c #10940f",
"t c #1c8421",
"y c #0bab0c",
"u c #0ea811",
"i c #0cb70c",
"p c #11a612",
"a c #14b912",
"s c #398f3a",
"d c #28b029",
"f c #0bc70a",
"g c #0fcc11",
"h c #0cd80c",
"j c #16c314",
"k c #10d610",
"l c #16dc16",
"z c #1fcb24",
"x c #0fe310",
"c c #10e50e",
"v c #14e613",
"b c #2bcc2b",
"n c #27d525",
"m c #34e834",
"M c #429840",
"N c #599559",
"B c #4ca546",
"V c #668965",
"C c #778376",
"Z c #74fc74",
"A c #807e7f",
"S c #cbcbcb",
"D c white",
"DDDDDDDDDDDDDDDDDDDA",
"DSSSSSSSSSSSSSSSSSA1",
"DSAAAA8CVNNVC8AAAA61",
"DSAAACNdbjadsV8AAA61",
"DSAACBnllhgjpt38AA61",
"DSA8Nzccxhgiyr-58A61",
"DSAVdlcvmlgiyr;&8A61",
"DS8NjhkmZbiype;$4A61",
"DSCMjxllnaiy0=*@,A61",
"DSCsagffiiy09=#.,861",
"DSCspiyiuqr9=-@.>861",
"DS8<ruqq0ew=*%.o,861",
"DS85:999w:=*%..X4A61",
"DSA8>*=;**#@...+8A61",
"DSA84$#%$@.   o48A61",
"DSAAA2o.    XO2AAA61",
"DSAAA86,Oo O,68AAA61",
"DSAAAAA876678AAAAA61",
"DA666666666666666661",
"A1111111111111111111"
};
