/* XPM */
static char *green_jump5[] = {
"36 36 63 1",
"  c black",
". c #0b2d0b",
"X c #0d2b11",
"o c #093409",
"O c #0c3211",
"+ c #112b0e",
"@ c #132d14",
"# c #11320b",
"$ c #163215",
"% c #1e3320",
"& c #0c4709",
"* c #0d570b",
"= c #134814",
"- c #11540f",
"; c #0b670c",
": c #0c6a11",
"> c #0b780d",
", c #0e7310",
"< c #136a12",
"1 c #137914",
"2 c #2a4b2a",
"3 c #2b7329",
"4 c #3f6241",
"5 c #404e3f",
"6 c #42683f",
"7 c #475544",
"8 c #556c54",
"9 c #667666",
"0 c #0b8909",
"q c #099708",
"w c #158714",
"e c #159914",
"r c #1f9527",
"t c #0aa70a",
"y c #0ab80b",
"u c #0cb711",
"i c #14a815",
"p c #15b415",
"a c #2b902c",
"s c #2fb732",
"d c #38a638",
"f c #3e9d41",
"g c #0ac70a",
"h c #0bd909",
"j c #18c819",
"k c #16d717",
"l c #0ce509",
"z c #16ea14",
"x c #24cc25",
"c c #31e933",
"v c #4e904f",
"b c #549956",
"n c #5f8e62",
"m c #41a543",
"M c #618c5d",
"N c #6a8c6b",
"B c #6a906a",
"V c #45d943",
"C c #56f552",
"Z c #71ff72",
"A c #82ff86",
"S c #a3ffa0",
"D c None",
"DDDDDDDDDDDDDDDDDDDDDDDDDDDDDDDDDDDD",
"DDDDDDDDDDDDDDDDDDDDDDDDDDDDDDDDDDDD",
"DDDDDDDDDDDDDDDDDDDDDDDDDDDDDDDDDDDD",
"DDDDDDDDDDDDDDDDDDDDDDDDDDDDDDDDDDDD",
"DDDDDDDDDDDDDDDDDDDDDDDDDDDDDDDDDDDD",
"DDDDDDDDDDDDDDDDDDDDDDDDDDDDDDDDDDDD",
"DDDDDDDDDDDDDDDDDDDDDDDDDDDDDDDDDDDD",
"DDDDDDDDDDDDDDDDBBBBBNDDDDDDDDDDDDDD",
"DDDDDDDDDDDDDBbmdddafvBDDDDDDDDDDDDD",
"DDDDDDDDDDDnbmssxjppiravNDDDDDDDDDDD",
"DDDDDDDDDNbsxxkchhhkjiew3MDDDDDDDDDD",
"DDDDDDDDNbskhhlhhhhggyt0w3MDDDDDDDDD",
"DDDDDDDDbskzllzzhzhgyytqe1-MDDDDDDDD",
"DDDDDDDbdjllzlhlhhkgyyttqw<2NDDDDDDD",
"DDDDDDBdxchzlhzzhhgjuyuqqw<-4DDDDDDD",
"DDDDDDnskhhllkcCchgguuiiew;-oDDDDDDD",
"DDDDDNvpkhhhhcASCjyyttie0><-=2DDDDDD",
"DDDDDBdpghzhhcZZVjuyttie0>;-o2DDDDDD",
"DDDDDbapgkhhkkcxjyyttqe0>,*&o@DDDDDD",
"DDDDDvrpukkhkggyyytttte>,;*=o.8DDDDD",
"DDDDDvriyjhyyyyuppitq00,:*&oo@8DDDDD",
"DDDDDbrityyyuuyitqqq0w,:;-&o.+8DDDDD",
"DDDDDn3etttttuttqq000>;;**&oO@8DDDDD",
"DDDDDB3wqiitqtqq000>>;<**&ooO@9DDDDD",
"DDDDDD31000qqq000w11;;*-&oo$.$DDDDDD",
"DDDDDD8<1000000ww1::;--&oo.O.7DDDDDD",
"DDDDDD92<,>>>>1,:;;*-&ooo##OX9DDDDDD",
"DDDDDDD6=;;;,:,;***&&ooo#..O2DDDDDDD",
"DDDDDDD82=-*****&&&oooOO.O.X9DDDDDDD",
"DDDDDDDD8=o&&&&&&ooooOOOOO$8DDDDDDDD",
"DDDDDDDDD8@oooooooOoooOX@X7DDDDDDDDD",
"DDDDDDDDDD9$.@OOOO.....@%9DDDDDDDDDD",
"DDDDDDDDDDDD7$XX.O.##.@5DDDDDDDDDDDD",
"DDDDDDDDDDDDDD72$@+$279DDDDDDDDDDDDD",
"DDDDDDDDDDDDDDDDDDDDDDDDDDDDDDDDDDDD",
"DDDDDDDDDDDDDDDDDDDDDDDDDDDDDDDDDDDD"
};
