/* XPM */
static char *green_jump7[] = {
"36 36 64 1",
"  c black",
". c #0b2d0b",
"X c #0d2c11",
"o c #0a3309",
"O c #0d3210",
"+ c #102c0f",
"@ c #112c12",
"# c #103a0d",
"$ c #133112",
"% c #1e3520",
"& c #20361f",
"* c #243824",
"= c #0b460a",
"- c #0b5509",
"; c #114c12",
": c #11560d",
"> c #0a670a",
", c #0c6511",
"< c #09790b",
"1 c #0e7511",
"2 c #147014",
"3 c #1e6022",
"4 c #315132",
"5 c #26702a",
"6 c #485949",
"7 c #546d55",
"8 c #6b796a",
"9 c #0b8a0c",
"0 c #09960a",
"q c #158a16",
"w c #119d12",
"e c #1e9021",
"r c #0ba80a",
"t c #0bb809",
"y c #0eb510",
"u c #15a714",
"i c #10b30e",
"p c #17b814",
"a c #20981c",
"s c #349433",
"d c #2eb02c",
"f c #3b9342",
"g c #0ac70a",
"h c #08da08",
"j c #16c715",
"k c #12d30e",
"l c #15d715",
"z c #09e30b",
"x c #0fe711",
"c c #16e517",
"v c #24c623",
"b c #21d821",
"n c #2ce82b",
"m c #41a93e",
"M c #559355",
"N c #5e9460",
"B c #46a943",
"V c #688c68",
"C c #6b8d72",
"Z c #629262",
"A c #51f153",
"S c #73ff74",
"D c #8dff91",
"F c None",
"FFFFFFFFFFFFFFFFFFFFFFFFFFFFFFFFFFFF",
"FFFFFFFFFFFFFFFFFFFFFFFFFFFFFFFFFFFF",
"FFFFFFFFFFFFFFFFFFFFFFFFFFFFFFFFFFFF",
"FFFFFFFFFFFFFFFFFFFFFFFFFFFFFFFFFFFF",
"FFFFFFFFFFFFFFFFFFFFFFFFFFFFFFFFFFFF",
"FFFFFFFFFFFFFFFFFFFFFFFFFFFFFFFFFFFF",
"FFFFFFFFFFFFFFFFFFFFFFFFFFFFFFFFFFFF",
"FFFFFFFFFFFFFFFFFFFFFFFFFFFFFFFFFFFF",
"FFFFFFFFFFFFFFFFFFFFFFFFFFFFFFFFFFFF",
"FFFFFFFFFFFFFFFFFFFFFFFFFFFFFFFFFFFF",
"FFFFFFFFFFFFFFFFFFFFFFFFFFFFFFFFFFFF",
"FFFFFFFFFFFFFFFFFFFFFFFFFFFFFFFFFFFF",
"FFFFFFFFFFFFFFFVZZZVCCFFFFFFFFFFFFFF",
"FFFFFFFFFFFVZNMBsssffMMVFFFFFFFFFFFF",
"FFFFFFFFFZMmddpppvvpuuaesZFFFFFFFFFF",
"FFFFFFFFNBdvlchkhhgggtpwq5MCFFFFFFFF",
"FFFFFFFMBvlllhhchchggttiu925VFFFFFFF",
"FFFFFFZdvlxhxhxhhhcggyyrrw923VFFFFFF",
"FFFFFMmvbzczzxhhhhglgyir0092:4FFFFFF",
"FFFFFBdbhzzzclnckllgtyiuuw91,;6FFFFF",
"FFFFZsjjhhhhlADSnjgttrruw9<>:=;FFFFF",
"FFFFZapjlcchbASAvtyrirrw9<<>-=o7FFFF",
"FFFFNaytllllgipiiiruuww9<<>:=oO6FFFF",
"FFFFMerytttttitpiuw00991>>-=oo+7FFFF",
"FFFF7quwrrrrrir0w099<<>>>-=ooO+7FFFF",
"FFFFC2999w00000999<<1,,::=#oOO@8FFFF",
"FFFFF3,1q999<9<<111>--;;ooooO$%FFFFF",
"FFFFF73,,>1>1>22,:---==oooOOOX6FFFFF",
"FFFFFF;=;:---::====#ooooo.OOX4FFFFFF",
"FFFFFFF$###==####ooooooooo.@%8FFFFFF",
"FFFFFFF8$$O.ooooooooO.$o.o$&FFFFFFFF",
"FFFFFFFFF4@@+OO+OOOo.$++$.4FFFFFFFFF",
"FFFFFFFFFF74@.X+X+oo+@@@&7FFFFFFFFFF",
"FFFFFFFFFFFF876*@@@@@668FFFFFFFFFFFF",
"FFFFFFFFFFFFFFFFFFFFFFFFFFFFFFFFFFFF",
"FFFFFFFFFFFFFFFFFFFFFFFFFFFFFFFFFFFF"
};
