/* XPM */
static char *paw_up_right[] = {
"21 14 13 1",
"  c #000000",
". c #171615",
"X c #262624",
"o c #322e2c",
"O c #393737",
"+ c #484644",
"@ c #51504d",
"# c #5a5853",
"$ c #6b6966",
"% c #706f6c",
"& c #797771",
"* c #8c8b88",
"= c None",
"=====================",
"===========o.O$======",
"== .o=====    +$=====",
"=.   ====      +$====",
"=X   ====.  o   +=%==",
"=. .o===== ===. X====",
"=X  ==========  .=$@=",
"=$X  ..o======X.=*&O=",
"==$X   .========##X==",
"===$o. ==========X===",
"=======*+============",
"====%=%%X============",
"====#=@==============",
"====================="
};
