/* XPM */
static char *pink_small[] = {
"20 20 63 1",
"  c #2c0d2d",
". c #2d112c",
"X c #300a2f",
"o c #360a36",
"O c #30172f",
"+ c #341834",
"@ c #412a3f",
"# c #470c47",
"$ c #4e0e50",
"% c #500d4d",
"& c #550c54",
"* c #5f105f",
"= c #493648",
"- c #532254",
"; c #660c65",
": c #6e0d71",
"> c #6a126e",
", c #6f1171",
"< c #700d6d",
"1 c #770c76",
"2 c #602360",
"3 c #793a79",
"4 c gray30",
"5 c #5e515e",
"6 c #634f61",
"7 c #665566",
"8 c #78577b",
"9 c #676667",
"0 c #736c72",
"q c #7d797c",
"w c #807e7f",
"e c #860c87",
"r c #871588",
"t c #970b98",
"y c #971098",
"u c #8b358b",
"i c #a90ca9",
"p c #a415a3",
"a c #b70bb7",
"s c #ba14ba",
"d c #af38ae",
"f c #b629b8",
"g c #8d4f8d",
"h c #975b95",
"j c #9c57a2",
"k c #857984",
"l c #936392",
"z c #a150a3",
"x c #c10fbf",
"c c #c80cc7",
"v c #cf0cd0",
"b c #c317c6",
"n c #d00cce",
"m c #da0dda",
"M c #d915da",
"N c #dd0de0",
"B c #d129d3",
"V c #e60ee7",
"C c #e215e2",
"Z c #e836e7",
"A c #fb82fb",
"S c #cbcbcb",
"D c white",
"DDDDDDDDDDDDDDDDDDDw",
"DSSSSSSSSSSSSSSSSSw4",
"DSwwwwkkllhlkkwwww94",
"DSwwwkhdfsspugkwww94",
"DSwwkzbMmmnxpr8www94",
"DSwkjbVVVNvsit>8ww94",
"DSwlfmVCZMnait1-qw94",
"DSkhbmmZABsipe<#7w94",
"DSkgcmmMBsaiy1;#=w94",
"DSkusnccaaiye:&o=q94",
"DSkupaiaiite:;#X@q94",
"DSk3rytttte:;$o =q94",
"DSw8,eeee1:*%oo.7w94",
"DSwk2;::;*&#ooX+qw94",
"DSww7#$$%#ooXX.7qw94",
"DSwww6OXXX   O5www94",
"DSwwwq9=+  +=9qwww94",
"DSwwwwwq0000qwwwww94",
"Dw999999999999999994",
"w4444444444444444444"
};
