/* XPM */
static char *red_jump4[] = {
"36 36 61 1",
"  c black",
". c #2b0c0a",
"X c #29100d",
"o c #2b1515",
"O c #350b0a",
"+ c #31100f",
"@ c #341c19",
"# c #312019",
"$ c #372526",
"% c #470c0c",
"& c #560c0c",
"* c #540f10",
"= c #462a2d",
"- c #680b0c",
"; c #681414",
": c #780c0b",
"> c #7b1717",
", c #771e24",
"< c #722c2f",
"1 c #4f413c",
"2 c #5a4849",
"3 c #775250",
"4 c #6e5f62",
"5 c #6c655f",
"6 c #776464",
"7 c #870c0c",
"8 c #8f1216",
"9 c #980b0c",
"0 c #960e11",
"q c #911e20",
"w c #8f272a",
"e c #a70b0a",
"r c #ab0e11",
"t c #a81415",
"y c #b80b09",
"u c #b81413",
"i c #a52f2d",
"p c #965052",
"a c #925b60",
"s c #986b69",
"d c #997776",
"f c #a95653",
"g c #a75f62",
"h c #b3625f",
"j c #a86e70",
"k c #c80d0b",
"l c #c81516",
"z c #d80b0b",
"x c #d70d12",
"c c #d6110e",
"v c #d91515",
"b c #d82624",
"n c #e40a0b",
"m c #e91013",
"M c #dd4841",
"N c #f6504d",
"B c #ff6e64",
"V c #ff958b",
"C c #ffa79f",
"Z c #ffc1b7",
"A c None",
"AAAAAAAAAAAAAAAAAAAAAAAAAAAAAAAAAAAA",
"AAAAAAAAAAAAAAAAAAAAAAAAAAAAAAAAAAAA",
"AAAAAAAAAAAAAAAAAAAAAAAAAAAAAAAAAAAA",
"AAAAAAAAAAAAAAAAAAAAAAAAAAAAAAAAAAAA",
"AAAAAAAAAAAAAAAAAAAAAAAAAAAAAAAAAAAA",
"AAAAAAAAAAAAAAAAAAAAAAAAAAAAAAAAAAAA",
"AAAAAAAAAAAAAAAAdAAAAAAAAAAAAAAAAAAA",
"AAAAAAAAAAAAAAdjjgjjdAAAAAAAAAAAAAAA",
"AAAAAAAAAAAAdppwqqqq><sdAAAAAAAAAAAA",
"AAAAAAAAAAdhitllluuut08<aAAAAAAAAAAA",
"AAAAAAAAAjftlxmnzckklut7,aAAAAAAAAAA",
"AAAAAAAAjftlmmnnnzckyyet7-3AAAAAAAAA",
"AAAAAAAdftlznmmnnmkkyye98:*3AAAAAAAA",
"AAAAAAAgilvnmnnmzzxkyye97:-%6AAAAAAA",
"AAAAAAdiuknmnvvbvkkkkye97:-*=AAAAAAA",
"AAAAAAsilcxnxbBVMllyyert07-*O6AAAAAA",
"AAAAAAptxzzzxbCZMlyyyer97:-*O2AAAAAA",
"AAAAAdwtkzzzzvNNbyyyee977:-*O=AAAAAA",
"AAAAAjqtkvcccxxkkyyee907:-&%O.AAAAAA",
"AAAAAj>rykcckkkyyyere97:--*OO+6AAAAA",
"AAAAAa>tyyyyyyyuyrr9907:-*%O.XAAAAAA",
"AAAAAs;teeyyyyyree907::-&&%O+X6AAAAA",
"AAAAAd;8ererrrre9997::--&%OO.oAAAAAA",
"AAAAAA,79t999999977::--&*%OO.oAAAAAA",
"AAAAAd<:7799777777::--&*%OOO.$AAAAAA",
"AAAAAA3-:77777777:---&*OOO++X2AAAAAA",
"AAAAAAs*--::::::--&&&%O..OO.@AAAAAAA",
"AAAAAAA3*-------&&*%OO...O..1AAAAAAA",
"AAAAAAAA@%*&&&&**%%OO+.....#AAAAAAAA",
"AAAAAAAA6+O%%%%%OOO.O....X@6AAAAAAAA",
"AAAAAAAAA6XO.OO.OO.+.....@4AAAAAAAAA",
"AAAAAAAAAAA@+.O......XXo@4AAAAAAAAAA",
"AAAAAAAAAAAA2@.XX.XXXXo2AAAAAAAAAAAA",
"AAAAAAAAAAAAAAA=$o$@15AAAAAAAAAAAAAA",
"AAAAAAAAAAAAAAAAAAAAAAAAAAAAAAAAAAAA",
"AAAAAAAAAAAAAAAAAAAAAAAAAAAAAAAAAAAA"
};
