/* XPM */
static char *red_jump7[] = {
"36 36 63 1",
"  c black",
". c #2b0c0c",
"X c #290d10",
"o c #28100d",
"O c #2d1112",
"+ c #350a09",
"@ c #330e10",
"# c #37100d",
"$ c #341b1a",
"% c #372424",
"& c #470c0b",
"* c #570b0b",
"= c #57100e",
"- c #511214",
"; c #401c20",
": c #503332",
"> c #690c0c",
", c #6e0e11",
"< c #780b0b",
"1 c #781315",
"2 c #76211e",
"3 c #662028",
"4 c #553f41",
"5 c #594848",
"6 c #6c5554",
"7 c #6c615f",
"8 c #776767",
"9 c #890c0c",
"0 c #891114",
"q c #960b0a",
"w c #990d10",
"e c #991416",
"r c #923432",
"t c #a80b0a",
"y c #aa0e11",
"u c #a8100d",
"i c #af1214",
"p c #b80c0a",
"a c #b2110e",
"s c #b91618",
"d c #a7231f",
"f c #aa2d30",
"g c #8d5453",
"h c #915d61",
"j c #996c6b",
"k c #997575",
"l c #a94c4a",
"z c #af605c",
"x c #a86d6c",
"c c #a37272",
"v c #c50b0c",
"b c #cc1315",
"n c #d80b0b",
"m c #d81616",
"M c #c52320",
"N c #e10d09",
"B c #e5100e",
"V c #e31112",
"C c #e73b39",
"Z c #de4444",
"A c #f75f5c",
"S c #ffa29e",
"D c None",
"DDDDDDDDDDDDDDDDDDDDDDDDDDDDDDDDDDDD",
"DDDDDDDDDDDDDDDDDDDDDDDDDDDDDDDDDDDD",
"DDDDDDDDDDDDDDDDDDDDDDDDDDDDDDDDDDDD",
"DDDDDDDDDDDDDDDDDDDDDDDDDDDDDDDDDDDD",
"DDDDDDDDDDDDDDDDDDDDDDDDDDDDDDDDDDDD",
"DDDDDDDDDDDDDDDDDDDDDDDDDDDDDDDDDDDD",
"DDDDDDDDDDDDDDDDDDDDDDDDDDDDDDDDDDDD",
"DDDDDDDDDDDDDDDDDDDDDDDDDDDDDDDDDDDD",
"DDDDDDDDDDDDDDDDDDDDDDDDDDDDDDDDDDDD",
"DDDDDDDDDDDDDDDDDDDDDDDDDDDDDDDDDDDD",
"DDDDDDDDDDDDDDDDDDDDDDDDDDDDDDDDDDDD",
"DDDDDDDDDDDDDDDDDDDDDDDDDDDDDDDDDDDD",
"DDDDDDDDDDDDDDDkcccjkDDDDDDDDDDDDDDD",
"DDDDDDDDDDDkcxlrrrrrrghkDDDDDDDDDDDD",
"DDDDDDDDDczldissssaiue01rjDDDDDDDDDD",
"DDDDDDDkxldanmnnnnnvppiq02gkDDDDDDDD",
"DDDDDDDxfsbmnBBVnVnvppatw013kDDDDDDD",
"DDDDDDcfsmnnnNnnnnVvvptatw0>38DDDDDD",
"DDDDDcrsmnBnBNBnnnnmppptqw01=:DDDDDD",
"DDDDkldbnNNNnmmmmnnvpptyyq0,=#5DDDDD",
"DDDDkdsvnnnnmASSCnvpatuyw9<,*&$DDDDD",
"DDDDjepvnnnnbZAAMppyutuw9<<>*&.8DDDD",
"DDDDhepvnnnbppsapppyuwq9<>**&+O5DDDD",
"DDDDg9uppppppppaautqq99<>==&++X7DDDD",
"DDDD61wqtutquattqqq99<,>*=&++@X7DDDD",
"DDDDk,999wwqqqq999<<>>>**&+++@XDDDDD",
"DDDDD3>1<<999<<<<<>>**&&#++++.$DDDDD",
"DDDDD6-*,>>>>>>>>**=&&#++++..X5DDDDD",
"DDDDDD;&&=****=&&&&++++++++.X%DDDDDD",
"DDDDDDDX++&&&&++++++..#.#..X$DDDDDDD",
"DDDDDDDD$.+++++@@@.......XO$DDDDDDDD",
"DDDDDDDDD:o.O..........OXo:DDDDDDDDD",
"DDDDDDDDDD7:o........XXo%8DDDDDDDDDD",
"DDDDDDDDDDDDD65%oooXX45DDDDDDDDDDDDD",
"DDDDDDDDDDDDDDDDDDDDDDDDDDDDDDDDDDDD",
"DDDDDDDDDDDDDDDDDDDDDDDDDDDDDDDDDDDD"
};
