/* XPM */
static char *red_jump3[] = {
"36 36 61 1",
"  c black",
". c #2b0c0a",
"X c #2c0d11",
"o c #291013",
"O c #350b0a",
"+ c #30100e",
"@ c #351b1a",
"# c #331c22",
"$ c #35201b",
"% c #382626",
"& c #470c0b",
"* c #570c0b",
"= c #54100d",
"- c #511310",
"; c #5b1d20",
": c #483130",
"> c #680c0c",
", c #681414",
"< c #780c0c",
"1 c #761212",
"2 c #68231e",
"3 c #6b3433",
"4 c #533d41",
"5 c #5a4a4c",
"6 c #6e5455",
"7 c #726465",
"8 c #8b0d0c",
"9 c #860d10",
"0 c #881214",
"q c #980b0b",
"w c #9b1513",
"e c #90292b",
"r c #a90b0a",
"t c #a70d10",
"y c #a91516",
"u c #b80a0a",
"i c #b7110e",
"p c #b81414",
"a c #bd241e",
"s c #ab3232",
"d c #8e5150",
"f c #986a69",
"g c #987575",
"h c #ae5052",
"j c #a96b6c",
"k c #c80a0a",
"l c #c60d10",
"z c #cb1213",
"x c #d70d0c",
"c c #d71314",
"v c #d71720",
"b c #d52321",
"n c #e40c0b",
"m c #e61212",
"M c #e32e2d",
"N c #e9413e",
"B c #f05753",
"V c #937e83",
"C c #ff9591",
"Z c #ffb9b2",
"A c None",
"AAAAAAAAAAAAAAAAAAAAAAAAAAAAAAAAAAAA",
"AAAAAAAAAAAAAAAAAAAAAAAAAAAAAAAAAAAA",
"AAAAAAAAAAAAAAAAAAAAAAAAAAAAAAAAAAAA",
"AAAAAAAAAAAAAAAAAAAAAAAAAAAAAAAAAAAA",
"AAAAAAAAAAAAAAAAAAAAAAAAAAAAAAAAAAAA",
"AAAAAAAAAAAAAAAAAAAAAAAAAAAAAAAAAAAA",
"AAAAAAAAAAAAAgggffffggAAAAAAAAAAAAAA",
"AAAAAAAAAAAAjhssyywweedgAAAAAAAAAAAA",
"AAAAAAAAAAgjeypzxxzutw13fAAAAAAAAAAA",
"AAAAAAAAAjhyvcmcckxkiiq9,6gAAAAAAAAA",
"AAAAAAAAghycmnnxxxxkkurw9,3AAAAAAAAA",
"AAAAAAAghyzxnmnmxmkklurq01=3AAAAAAAA",
"AAAAAAAjezxnnnxxxxckuirt8<,-fAAAAAAA",
"AAAAAAgspxnmxcvMcxkzuurq89>=:AAAAAAA",
"AAAAAAfyzxnnxcBCNzzkurtw89>&OAAAAAAA",
"AAAAAgdyzxnxcMCZNzluurtq8<>=O4AAAAAA",
"AAAAAgeykxnxxbNBaiuurrq8<>*-O@AAAAAA",
"AAAAAfeykcxcxczpiuuurtq8<>*&O.AAAAAA",
"AAAAAf0tuzzzxkkiiurrtq8<>*=&OXAAAAAA",
"AAAAAj1yuuluuluiirtqq89<>*-O.X6AAAAA",
"AAAAAd1wrruiuuuirrq88<<>>*&O+XAAAAAA",
"AAAAAg,8rrtrirtqqq88<<>>*-OO+.AAAAAA",
"AAAAAg29qwqqqqqq888<<>>*=OOO+@AAAAAA",
"AAAAAA318888888889<<>>=&&OOO+:AAAAAA",
"AAAAAA6>1<988999<<>>>=&OOOOOX6AAAAAA",
"AAAAAAA;,>><<<<<>>***&OO..++@AAAAAAA",
"AAAAAAV6&=>,>>>>*=&&&OO...+X5AAAAAAA",
"AAAAAAAA:&******&&OOOO...+X%AAAAAAAA",
"AAAAAAAAA@&&&&&&&OOOOO..++o7AAAAAAAA",
"AAAAAAAAA7.+OOOO....+O...#7AAAAAAAAA",
"AAAAAAAAAAA:oo......++.X@7AAAAAAAAAA",
"AAAAAAAAAAAA5%oX..+XXo#5AAAAAAAAAAAA",
"AAAAAAAAAAAAAA6:%$::47AAAAAAAAAAAAAA",
"AAAAAAAAAAAAAAAAAAAAAAAAAAAAAAAAAAAA",
"AAAAAAAAAAAAAAAAAAAAAAAAAAAAAAAAAAAA",
"AAAAAAAAAAAAAAAAAAAAAAAAAAAAAAAAAAAA"
};
