/* XPM */
static char *red_jump8[] = {
"36 36 63 1",
"  c black",
". c #2b0c0c",
"X c #280e10",
"o c #281313",
"O c #340b0a",
"+ c #331516",
"@ c #3c2827",
"# c #480b0a",
"$ c #4b0f11",
"% c #451112",
"& c #560c0c",
"* c #5b0d11",
"= c #5b1312",
"- c #493434",
"; c #690c0c",
": c #680c10",
"> c #780b0a",
", c #780e11",
"< c #771414",
"1 c #6f3030",
"2 c #7e3d41",
"3 c #51423f",
"4 c #5b4c49",
"5 c #695858",
"6 c #6c615d",
"7 c #756362",
"8 c #860c0b",
"9 c #87100d",
"0 c #871413",
"q c #970d0b",
"w c #991416",
"e c #9c3232",
"r c #a90c0a",
"t c #a90d10",
"y c #a81314",
"u c #b70b09",
"i c #ba100c",
"p c #b81718",
"a c #a82929",
"s c #8d5756",
"d c #83605e",
"f c #986d6a",
"g c #997676",
"h c #aa5856",
"j c #b34f4f",
"k c #a9645f",
"l c #a56f6e",
"z c #c70b0a",
"x c #ca0c10",
"c c #ce120a",
"v c #c81515",
"b c #d90b0b",
"n c #d70d11",
"m c #d51415",
"M c #d12321",
"N c #e20a0c",
"B c #e81212",
"V c #e33839",
"C c #eb4947",
"Z c #ff6866",
"A c #ff9091",
"S c #ffbfbb",
"D c None",
"DDDDDDDDDDDDDDDDDDDDDDDDDDDDDDDDDDDD",
"DDDDDDDDDDDDDDDDDDDDDDDDDDDDDDDDDDDD",
"DDDDDDDDDDDDDDDDDDDDDDDDDDDDDDDDDDDD",
"DDDDDDDDDDDDDDDDDDDDDDDDDDDDDDDDDDDD",
"DDDDDDDDDDDDDDDDDDDDDDDDDDDDDDDDDDDD",
"DDDDDDDDDDDDDDDDDDDDDDDDDDDDDDDDDDDD",
"DDDDDDDDDDDDDDDDDDDDDDDDDDDDDDDDDDDD",
"DDDDDDDDDDDDDDDDDDDDDDDDDDDDDDDDDDDD",
"DDDDDDDDDDDDDDDDDDDDDDDDDDDDDDDDDDDD",
"DDDDDDDDDDDDDDDDDDDDDDDDDDDDDDDDDDDD",
"DDDDDDDDDDDDDDDDDDDDDDDDDDDDDDDDDDDD",
"DDDDDDDDDDDDDDDDDDDDDDDDDDDDDDDDDDDD",
"DDDDDDDDDDDDDDDDDDDDDDDDDDDDDDDDDDDD",
"DDDDDDDDDDDDDggglllfggDDDDDDDDDDDDDD",
"DDDDDDDDDDglhjeaayywaesfgDDDDDDDDDDD",
"DDDDDDDDglheypvimmnvry0<1sgDDDDDDDDD",
"DDDDDDDghapvmbbccbbziutyq<1dDDDDDDDD",
"DDDDDDfhavBNBBBbbBbzzuurtw<=dDDDDDDD",
"DDDDDghymbNBbNbbbnmnziuurq9;=dDDDDDD",
"DDDDDkwmbNBNNmmmnxxmxurirqq,*%7DDDDD",
"DDDDgepxbNbbmMCVMczzuurtqq9,*%-DDDDD",
"DDDDfwixnnnnmZSAVzzirrtqq8,:*%X6DDDD",
"DDDDswzzbmmmmvMviuuurrqq8>;:#%.4DDDD",
"DDDg2quuzxzuzuiurutrqq88>;*&#O+3DDDD",
"DDDg10qrrtruurttqqqq88>>;&##OO.-DDDD",
"DDDDs,9qqqwqtqqq988>>;;;&#OOOO.5DDDD",
"DDDDD=>999>888>>>,,;;&&##OOOO.X6DDDD",
"DDDDD1=;;;;;;;;::*&&##OOOOXXX.@DDDDD",
"DDDDDDO%$&&*&&&##$OOOOOOOOX..+DDDDDD",
"DDDDDD5+O%###O#OO.OO.OOOOX..X5DDDDDD",
"DDDDDDD5+.OOOOOOOXO.OXX....X5DDDDDDD",
"DDDDDDDDD@.....XX..X.....o+7DDDDDDDD",
"DDDDDDDDDD5@X..X.+.....o@5DDDDDDDDDD",
"DDDDDDDDDDDDD5--o.XXX@5DDDDDDDDDDDDD",
"DDDDDDDDDDDDDDDDDDDDDDDDDDDDDDDDDDDD",
"DDDDDDDDDDDDDDDDDDDDDDDDDDDDDDDDDDDD"
};
