/* XPM */
static char *red_jump5[] = {
"36 36 64 1",
"  c black",
". c #2a0b0a",
"X c #2b0d11",
"o c #2a100c",
"O c #2d1414",
"+ c #350b0a",
"@ c #32100d",
"# c #351817",
"$ c #3c2524",
"% c #470c0b",
"& c #4b1518",
"* c #580c0d",
"= c #580d10",
"- c #59100d",
"; c #4d3938",
": c #680c0c",
"> c #6a1314",
", c #770c0b",
"< c #7b0d11",
"1 c #7f1f20",
"2 c #712c2d",
"3 c #5d3f41",
"4 c #574944",
"5 c #6a5556",
"6 c #735e63",
"7 c #77625f",
"8 c #766467",
"9 c #870c0b",
"0 c #8b1315",
"q c #980b0b",
"w c #961215",
"e c #973434",
"r c #a70b0c",
"t c #a60e11",
"y c #ac130f",
"u c #aa1615",
"i c #b70c0b",
"p c #b60b10",
"a c #b81515",
"s c #af1e20",
"d c #a42e2e",
"f c #965352",
"g c #9b5d62",
"h c #966969",
"j c #977574",
"k c #a85050",
"l c #a66869",
"z c #a16e71",
"x c #ca0c0a",
"c c #c91415",
"v c #d90c0a",
"b c #d9110f",
"n c #d71414",
"m c #d32b28",
"M c #e30a0a",
"N c #e90e10",
"B c #e71213",
"V c #e93330",
"C c #f6403c",
"Z c #f25550",
"A c #ff786f",
"S c #ffa69b",
"D c #ffcac0",
"F c None",
"FFFFFFFFFFFFFFFFFFFFFFFFFFFFFFFFFFFF",
"FFFFFFFFFFFFFFFFFFFFFFFFFFFFFFFFFFFF",
"FFFFFFFFFFFFFFFFFFFFFFFFFFFFFFFFFFFF",
"FFFFFFFFFFFFFFFFFFFFFFFFFFFFFFFFFFFF",
"FFFFFFFFFFFFFFFFFFFFFFFFFFFFFFFFFFFF",
"FFFFFFFFFFFFFFFFFFFFFFFFFFFFFFFFFFFF",
"FFFFFFFFFFFFFFFFFFFFFFFFFFFFFFFFFFFF",
"FFFFFFFFFFFFFFjjjjjjFFFFFFFFFFFFFFFF",
"FFFFFFFFFFFFFzlkdddekfzFFFFFFFFFFFFF",
"FFFFFFFFFFjzgeusaayuw01fFFFFFFFFFFFF",
"FFFFFFFFFjldacxnxxccatw02hFFFFFFFFFF",
"FFFFFFFFjgdcbMNMvvxxiirq<2hFFFFFFFFF",
"FFFFFFFFldcBNMNNMMvxiprqw<-hFFFFFFFF",
"FFFFFFFzeavNNNMMMvbxiirq99:&FFFFFFFF",
"FFFFFFzkunNNNBbBbxxcpirq99:&3FFFFFFF",
"FFFFFFgscbvMvnCZVcxipirqq9>%+FFFFFFF",
"FFFFFFfyxvvvbmSDZcxpirtrq,:=+;FFFFFF",
"FFFFFjeyxvbvbmAAmapprrtq9,:*+$FFFFFF",
"FFFFFz1yxvvvbnmmaprtrrt9,:*%+.FFFFFF",
"FFFFFl0uxbbbxxxxipruqqw,,:*%+o5FFFFF",
"FFFFFg0ticxxiippiyrqq99,:=%++o8FFFFF",
"FFFFFl1wriiiiiiirrqq99,:-=%+@.5FFFFF",
"FFFFFz>wrrrrrrrrqq999,,:*=%+@o5FFFFF",
"FFFFFj>9qtrrrrqqq999,,:**%++o.FFFFFF",
"FFFFFF2,9qqqqqq9999,,:=*%++@o#FFFFFF",
"FFFFFF5:<9999999<,,::=*%+++..;FFFFFF",
"FFFFFF7>:,,,,<<,::***%%+++@.O8FFFFFF",
"FFFFFFF2*-::::::**%%%+++...X$FFFFFFF",
"FFFFFFF8&%--****%%%++++@@..XFFFFFFFF",
"FFFFFFFF6#+*%%%+%++@XXX...O5FFFFFFFF",
"FFFFFFFFF5X+++@++++X.XX@.o4FFFFFFFFF",
"FFFFFFFFFF8#@..X@++.X.oo#7FFFFFFFFFF",
"FFFFFFFFFFFF;#o.X@.@.XO4FFFFFFFFFFFF",
"FFFFFFFFFFFFFF;;#o.o;58FFFFFFFFFFFFF",
"FFFFFFFFFFFFFFFFFFFFFFFFFFFFFFFFFFFF",
"FFFFFFFFFFFFFFFFFFFFFFFFFFFFFFFFFFFF"
};
