/* XPM */
static char *yellow_jump5[] = {
"36 36 63 1",
"  c black",
". c #2d2e0a",
"X c #2d2d13",
"o c #302f12",
"O c #343409",
"+ c #333315",
"@ c #383723",
"# c #403e12",
"$ c #47470b",
"% c #56570a",
"& c #565616",
"* c #4e4e2f",
"= c #5e6010",
"- c #605f0f",
"; c #69690a",
": c #676711",
"> c #6f720d",
", c #78780b",
"< c #787815",
"1 c #72732c",
"2 c #565544",
"3 c #6e6d52",
"4 c #737365",
"5 c #7f8032",
"6 c #7f8054",
"7 c #7d8067",
"8 c #817d0f",
"9 c #837f5c",
"0 c #878709",
"q c #8f9013",
"w c #98980a",
"e c #949432",
"r c #9ea00e",
"t c #a29c12",
"y c #a9a909",
"u c #a8a817",
"i c #afb104",
"p c #b7b708",
"a c #b8b815",
"s c #aeaf2e",
"d c #868748",
"f c #848357",
"g c #959349",
"h c #838365",
"j c #b1b247",
"k c #bfc010",
"l c #bec448",
"z c #c0bf0f",
"x c #c7c70a",
"c c #cccc11",
"v c #d9da09",
"b c #d8d715",
"n c #ccce2f",
"m c #dadb27",
"M c #dce109",
"N c #e2e40a",
"B c #e4e517",
"V c #f8fa1c",
"C c #f2f229",
"Z c #c9c948",
"A c #f4f04c",
"S c #fffe72",
"D c None",
"DDDDDDDDDDDDDDDDDDDDDDDDDDDDDDDDDDDD",
"DDDDDDDDDDDDDDDDDDDDDDDDDDDDDDDDDDDD",
"DDDDDDDDDDDDDDDDDDDDDDDDDDDDDDDDDDDD",
"DDDDDDDDDDDDDDDDDDDDDDDDDDDDDDDDDDDD",
"DDDDDDDDDDDDDDDDDDDDDDDDDDDDDDDDDDDD",
"DDDDDDDDDDDDDDDDDDDDDDDDDDDDDDDDDDDD",
"DDDDDDDDDDDDDDDDDDDDDDDDDDDDDDDDDDDD",
"DDDDDDDDDDDDDDDhffffhhDDDDDDDDDDDDDD",
"DDDDDDDDDDDDDdeessseedfDDDDDDDDDDDDD",
"DDDDDDDDDDhfgjZnnccaseedhDDDDDDDDDDD",
"DDDDDDDDDhglnmbCbbcmnuse53DDDDDDDDDD",
"DDDDDDDD9gZmMBBvvvccpaywq1fDDDDDDDDD",
"DDDDDDDhgnbCNNVVvBcxzpytt<=4DDDDDDDD",
"DDDDDDDdjmNMVNNNvvBcaiywqq:*DDDDDDDD",
"DDDDDD9enCvVNBbBbcxbppyw0q<&*DDDDDDD",
"DDDDDDfsmbNvvmAACcxppiaut0;&#DDDDDDD",
"DDDDDhgscvvvbASSAmppiyuuq,>%$3DDDDDD",
"DDDDDfgncxBvbCSSAcaiyyuw0,:%$*DDDDDD",
"DDDDDdsaxBNxBmmmcppyyww0,>%$OXDDDDDD",
"DDDDDdeaxbvbbxxppiyawrt8,;%$OX4DDDDD",
"DDDDhdeupcbppppikaawww,,:%%#.+4DDDDD",
"DDDD46euyyappiiaywwq00,;:%$OoX4DDDDD",
"DDDD7deuyyyyyaawww000,;;-%OOoX4DDDDD",
"DDDDD61qwuuywwwwq00,,;;:%$OO.+DDDDDD",
"DDDDDh1<tqqwww000q0,;;%%$OOO.@DDDDDD",
"DDDDDD3<,000005q0,>>:%%$OOO+.*DDDDDD",
"DDDDDDh&:><,,,0;;;%%&$OO.OO.o4DDDDDD",
"DDDDDDD*&::;;>>:%%%$$OO....o*DDDDDDD",
"DDDDDDD3*$=%%%%%$$$OO.Ooo.o+4DDDDDDD",
"DDDDDDDD3#$$$$$$OOO......oX3DDDDDDDD",
"DDDDDDDDD3oOOOOO.O...O..oo2DDDDDDDDD",
"DDDDDDDDDD4+ooo........o+4DDDDDDDDDD",
"DDDDDDDDDDDD2@oo....o.X2DDDDDDDDDDDD",
"DDDDDDDDDDDDD4**+o..*24DDDDDDDDDDDDD",
"DDDDDDDDDDDDDDDDDDDDDDDDDDDDDDDDDDDD",
"DDDDDDDDDDDDDDDDDDDDDDDDDDDDDDDDDDDD"
};
