/* XPM */
static char *yellow_jump4[] = {
"36 36 60 1",
"  c black",
". c #2c2d09",
"X c #2d2d12",
"o c #2e300a",
"O c #302e05",
"+ c #343409",
"@ c #343515",
"# c #383a24",
"$ c #3e400a",
"% c #403f0d",
"& c #413e2b",
"* c #49490a",
"= c #57570c",
"- c #585813",
"; c #505033",
": c #5e6108",
"> c #68680c",
", c #6b6a18",
"< c #77770b",
"1 c #797a14",
"2 c #737332",
"3 c #5b5b4c",
"4 c #6d6d52",
"5 c #7a7a67",
"6 c #86870a",
"7 c #898815",
"8 c #96960a",
"9 c #959716",
"0 c #8f9030",
"q c #9ea006",
"w c #a09e0d",
"e c #a7a708",
"r c #a9ab16",
"t c #b7b708",
"y c #b6b817",
"u c #afb032",
"i c #8d8c49",
"p c #868356",
"a c #848265",
"s c #a09d40",
"d c #afaf45",
"f c #bdc00b",
"g c #bfc048",
"h c #c0bf0c",
"j c #c6c709",
"k c #c8c717",
"l c #cfd007",
"z c #dbd90b",
"x c #d9d917",
"c c #cacc2d",
"v c #d7d825",
"b c #dce117",
"n c #e3de0d",
"m c #e0df35",
"M c #e7e717",
"N c #efef2a",
"B c #cacb44",
"V c #f9f753",
"C c #ffff73",
"Z c None",
"ZZZZZZZZZZZZZZZZZZZZZZZZZZZZZZZZZZZZ",
"ZZZZZZZZZZZZZZZZZZZZZZZZZZZZZZZZZZZZ",
"ZZZZZZZZZZZZZZZZZZZZZZZZZZZZZZZZZZZZ",
"ZZZZZZZZZZZZZZZZZZZZZZZZZZZZZZZZZZZZ",
"ZZZZZZZZZZZZZZZZZZZZZZZZZZZZZZZZZZZZ",
"ZZZZZZZZZZZZZZZZZZZZZZZZZZZZZZZZZZZZ",
"ZZZZZZZZZZZZZZZZZ5ZaZZZZZZZZZZZZZZZZ",
"ZZZZZZZZZZZZZapiiiiip5ZZZZZZZZZZZZZZ",
"ZZZZZZZZZZZapiddgduusipaZZZZZZZZZZZZ",
"ZZZZZZZZZZa0ucvvvvkyyr004aZZZZZZZZZZ",
"ZZZZZZZZZpsBvzNzzzljkkw904ZZZZZZZZZZ",
"ZZZZZZZZaucvNnnnnzljkter7,25ZZZZZZZZ",
"ZZZZZZZaicbzMNNnzMljttee91,4ZZZZZZZZ",
"ZZZZZZa0BvnnNnnMzlMjftr887>-5ZZZZZZZ",
"ZZZZZZpuvxzNnMNNvxjxtee867>-;ZZZZZZZ",
"ZZZZZZpuxznzxmVCVkxtteyr87>-@5ZZZZZZ",
"ZZZZZZiclzzzxNCCVvttter89<,=%;ZZZZZZ",
"ZZZZZascjlMzlMVVmktteqr7<<>*@&ZZZZZZ",
"ZZZZZpsyjxxMxxxkjttee896<>=*+XZZZZZZ",
"ZZZZZp0ytxxxjttttteyr99<<>=*+XZZZZZZ",
"ZZZZZi0rtttthttkyyr8866<>=*%O@4ZZZZZ",
"ZZZZZi0retttetyyew886<<>>**++X4ZZZZZ",
"ZZZZZp0rqeeeyyee88761<>>-*+OoX4ZZZZZ",
"ZZZZZa278r888888866<<<>--*O++@ZZZZZZ",
"ZZZZZZ21668888669771>>-**+Oo@;ZZZZZZ",
"ZZZZZZ5,166666671<>>>-**++ooX4ZZZZZZ",
"ZZZZZZZ-,><<<11>>>==**$O++@@XZZZZZZZ",
"ZZZZZZZ4-,:>1,>>-==**+OOO.oX;ZZZZZZZ",
"ZZZZZZZZ;*--====***+OOOooXX#ZZZZZZZZ",
"ZZZZZZZZ5@$*****+++oo..X.oX4ZZZZZZZZ",
"ZZZZZZZZZ4@.++OOO...X.XX@X5ZZZZZZZZZ",
"ZZZZZZZZZZ5;XooOOo.o.+oX#ZZZZZZZZZZZ",
"ZZZZZZZZZZZZ3XXooooXoo@3ZZZZZZZZZZZZ",
"ZZZZZZZZZZZZZZ4;###X;35ZZZZZZZZZZZZZ",
"ZZZZZZZZZZZZZZZZZZZZZZZZZZZZZZZZZZZZ",
"ZZZZZZZZZZZZZZZZZZZZZZZZZZZZZZZZZZZZ"
};
