/* XPM */
static char *yellow_small[] = {
"20 20 63 1",
"  c #2e2f0b",
". c #2e300a",
"X c #312e0b",
"o c #343409",
"O c #343517",
"+ c #48470d",
"@ c #494812",
"# c #55550b",
"$ c #4a4b28",
"% c #4c4c39",
"& c #5f610c",
"* c #66670d",
"= c #73730a",
"- c #737613",
"; c #606225",
": c gray30",
"> c #5e5e53",
", c #615f51",
"< c #646454",
"1 c #7e7d41",
"2 c #767558",
"3 c #676766",
"4 c #73726d",
"5 c #7d7b7a",
"6 c #7f800f",
"7 c #807e7e",
"8 c #85860b",
"9 c #888b1a",
"0 c #8e900e",
"q c #96970c",
"w c #969913",
"e c #8f9134",
"r c #93943a",
"t c #a09c0e",
"y c #a9a90b",
"u c #a9aa12",
"i c #b1b10b",
"p c #b8b70b",
"a c #b9bc13",
"s c #b2b42d",
"d c #89865a",
"f c #938e54",
"g c #97974d",
"h c #848369",
"j c #828171",
"k c #a0a04b",
"l c #b5b643",
"z c #bfc31a",
"x c #c1be05",
"c c #cccb0d",
"v c #c8ca15",
"b c #d2ce12",
"n c #dadb0c",
"m c #dddd15",
"M c #cccd29",
"N c #dadc33",
"B c #e0dd23",
"V c #e9e70e",
"C c #e5e516",
"Z c #ecec34",
"A c #fdfc64",
"S c #cbcbcb",
"D c white",
"DDDDDDDDDDDDDDDDDDD7",
"DSSSSSSSSSSSSSSSSS7:",
"DS77777hdffd7777773:",
"DS777jglMvased57773:",
"DS777kNCCncvu927773:",
"DS77gNCVVnbayq-2773:",
"DS7hsCVCZmbpyq-$473:",
"DS7fMnnZANaiu0-@<73:",
"DS7kvmmBNziyq=*+%53:",
"DS7rabcxpayw8=#o$53:",
"DS7euiiiuqq8=&+o$53:",
"DS71wutqq08=*#oX%53:",
"DS72-88886=*#ooX<73:",
"DS75;*==*##@o.oO573:",
"DS75<@##++oXX.O<573:",
"DS777,o....X O>7773:",
"DS77753%OX O%357773:",
"DS77777544345777773:",
"D733333333333333333:",
"7:::::::::::::::::::"
};
