/* XPM */
static char *yellow[] = {
"36 36 63 1",
"  c black",
". c #2d2d09",
"X c #2d2e13",
"o c #2e3009",
"O c #312f06",
"+ c #343409",
"@ c #323316",
"# c #393923",
"$ c #403d0d",
"% c #48470b",
"& c #4a4a14",
"* c #59590b",
"= c #565613",
"- c #4c4c30",
"; c #5e610f",
": c #615f14",
"> c #686909",
", c #676914",
"< c #76770b",
"1 c #73732f",
"2 c #5c5c49",
"3 c #6d6c54",
"4 c #777765",
"5 c #7e8112",
"6 c #7e8068",
"7 c #817e5b",
"8 c #847e62",
"9 c #868709",
"0 c #8a8c12",
"q c #98990a",
"w c #969713",
"e c #929233",
"r c #9da10f",
"t c #9fa239",
"y c #a29e0e",
"u c #a6a807",
"i c #acac11",
"p c #b7b709",
"a c #b7b716",
"s c #b0b12e",
"d c #8e8d48",
"f c #868359",
"g c #858265",
"h c #b5b64f",
"j c #bcc211",
"k c #bfc326",
"l c #c3bc0a",
"z c #c8c908",
"x c #c9ca14",
"c c #d8d908",
"v c #dad915",
"b c #d0d22c",
"n c #dfe10b",
"m c #dfe020",
"M c #e2df16",
"N c #e0df2c",
"B c #e5e40c",
"V c #eded19",
"C c #ecec2c",
"Z c #cdce44",
"A c #fbfa52",
"S c #fefe6b",
"D c None",
"DDDDDDDDDDDDDDDDDDDDDDDDDDDDDDDDDDDD",
"DDDDDDDDDDDDDDDDDDDDDDDDDDDDDDDDDDDD",
"DDDDDDDDDDDDDDDDDDDDDDDDDDDDDDDDDDDD",
"DDDDDDDDDDDDDDDDDDDDDDDDDDDDDDDDDDDD",
"DDDDDDDDDDDDD8gfffffggDDDDDDDDDDDDDD",
"DDDDDDDDDDD6fdtssssseed8DDDDDDDDDDDD",
"DDDDDDDDDDfdhZbbxxxxaseefDDDDDDDDDDD",
"DDDDDDDDDfdbbNCvvvzvxkw013DDDDDDDDDD",
"DDDDDDDD7dZmCBBBccczjpui913DDDDDDDDD",
"DDDDDDDgdZmvBBVBcVzxaauqw<,4DDDDDDDD",
"DDDDDDDdhbvBVBBBccvxaaiq90,-DDDDDDDD",
"DDDDDDftbCnVBMvCvvzvlauq00,=-DDDDDDD",
"DDDDDDfsbcnccCAAAxvlpuayw0,*&4DDDDDD",
"DDDDD8dbxcccvCSSAbpppuiy0<,=$2DDDDDD",
"DDDDDfdbzcVcvCASZjppuuu99<,&+-DDDDDD",
"DDDDDdtazvMMMmmbxppuuqw9<>*&+@DDDDDD",
"DDDDDdtbjvvvzzzpppuaiww<<>*%+XDDDDDD",
"DDDDDdtspxpllpppjaaqw05<>*&++X4DDDDD",
"DDDDDdesipppppuaurqw9<<>;=%++@3DDDDD",
"DDDDDfesuupuiaarqq09<<<>*=+O@X3DDDDD",
"DDDDDf10qiiyyqqw099<<>>*=%+o@@DDDDDD",
"DDDDDD15wwqqw009w09<>>,=%+O+@#DDDDDD",
"DDDDDD3,599990<099>>,:=%+++@X2DDDDDD",
"DDDDDDg=><<<<<5<>>>*=&++O+++@4DDDDDD",
"DDDDDDD1:;>><<>>;**%%++OOO.@-DDDDDDD",
"DDDDDDD4&&=,****&%%++o.++.X@4DDDDDDD",
"DDDDDDDD2@%&%%%%%++O..X+.X#3DDDDDDDD",
"DDDDDDDDD3@OO+++OOO+++X.@@3DDDDDDDDD",
"DDDDDDDDDD4.+.O..+oo.XXX@3DDDDDDDDDD",
"DDDDDDDDDDD4-#XXXo..oXX-4DDDDDDDDDDD",
"DDDDDDDDDDDDD42-#@X@#2DDDDDDDDDDDDDD",
"DDDDDDDDDDDDDDDDDDDDDDDDDDDDDDDDDDDD",
"DDDDDDDDDDDDDDDDDDDDDDDDDDDDDDDDDDDD",
"DDDDDDDDDDDDDDDDDDDDDDDDDDDDDDDDDDDD",
"DDDDDDDDDDDDDDDDDDDDDDDDDDDDDDDDDDDD",
"DDDDDDDDDDDDDDDDDDDDDDDDDDDDDDDDDDDD"
};
