/* XPM */
static char *yellow_jump8[] = {
"36 36 63 1",
"  c black",
". c #2d2e0a",
"X c #2d2d13",
"o c #2d3006",
"O c #302d07",
"+ c #312e13",
"@ c #333308",
"# c #333415",
"$ c #363622",
"% c #3f4006",
"& c #403e0e",
"* c #403e27",
"= c #47460b",
"- c #494813",
"; c #57570c",
": c #555513",
"> c #4c4c2e",
", c #605b0a",
"< c #66670a",
"1 c #676712",
"2 c #706f10",
"3 c #79790a",
"4 c #797714",
"5 c #72742b",
"6 c #5c5c4a",
"7 c #6c6c50",
"8 c #7b7b5b",
"9 c #787964",
"0 c #7f8118",
"q c #7f8267",
"w c #817f59",
"e c #807d6a",
"r c #878808",
"t c #949411",
"y c #929333",
"u c #9fa308",
"i c #9fa028",
"p c #a9a908",
"a c #a7a815",
"s c #afb00a",
"d c #b9b80b",
"f c #b6b617",
"g c #b1b12e",
"h c #8e8e49",
"j c #858458",
"k c #838365",
"l c #b2b544",
"z c #bbc105",
"x c #c6c609",
"c c #cccb13",
"v c #d9d908",
"b c #d7d717",
"n c #cbd037",
"m c #d7d828",
"M c #dee20e",
"N c #e0dd1e",
"B c #e0df2c",
"V c #e6e617",
"C c #eeed2a",
"Z c #c5c645",
"A c #f5f34b",
"S c #ffff6d",
"D c None",
"DDDDDDDDDDDDDDDDDDDDDDDDDDDDDDDDDDDD",
"DDDDDDDDDDDDDDDDDDDDDDDDDDDDDDDDDDDD",
"DDDDDDDDDDDDDDDDDDDDDDDDDDDDDDDDDDDD",
"DDDDDDDDDDDDDDDDDDDDDDDDDDDDDDDDDDDD",
"DDDDDDDDDDDDDDDDDDDDDDDDDDDDDDDDDDDD",
"DDDDDDDDDDDDDDDDDDDDDDDDDDDDDDDDDDDD",
"DDDDDDDDDDDDDDDDDDDDDDDDDDDDDDDDDDDD",
"DDDDDDDDDDDDDDDDDDDDDDDDDDDDDDDDDDDD",
"DDDDDDDDDDDDDDDDDDDDDDDDDDDDDDDDDDDD",
"DDDDDDDDDDDDDDDDDDDDDDDDDDDDDDDDDDDD",
"DDDDDDDDDDDDDDDDDDDDDDDDDDDDDDDDDDDD",
"DDDDDDDDDDDDDDDDDDDDDDDDDDDDDDDDDDDD",
"DDDDDDDDDDDDDDDDDDDDDDDDDDDDDDDDDDDD",
"DDDDDDDDDDDDq8jjjjjjjkkDDDDDDDDDDDDD",
"DDDDDDDDDDkjhyggggggiyyhwDDDDDDDDDDD",
"DDDDDDDDDjhlZnmbbNbbffiyyjkDDDDDDDDD",
"DDDDDDDjhgnmCbbbvvxxxffgty58DDDDDDDD",
"DDDDDDkhZmCMVVCvvVvxxdsspat58eDDDDDD",
"DDDDDjhnbMVCMMvMvvVbxddsutt417DDDDDD",
"DDDDDhlmMMCMVVVCbcxbxdssfat31:9DDDDD",
"DDDDjgnbvvvvbBAAmNxxddssatr0<:#DDDDD",
"DDDDjgcbvVvvVSSSCcddspsarr3<<=@DDDDD",
"DDDkhgdxbVMVmmmmddsfpuatr3<1=@@6DDDD",
"DDDkhisdcbxzzdddsffattt331;:=@#>DDDD",
"DDDk5tpppsssppffutttr432<;-&@.#>DDDD",
"DDDq80tttaaaatttrr332<1<;=&O.+#6DDDD",
"DDDD814rtrrrrr333442<;:==@@@@.XDDDDD",
"DDDDD>:1<222<<22<,;;:-&@oo@@#.>DDDDD",
"DDDDD8%:;;;;;;;===-@@@ooo@@@.#7DDDDD",
"DDDDDD6@@@===%@@@@OOOOO.@@..#6DDDDDD",
"DDDDDDD7+@@OO@@oo.@.@@@.O.X#6DDDDDDD",
"DDDDDDDD9*+X+..o.@.@.....#$7DDDDDDDD",
"DDDDDDDDDD7$XX..+.@@.+XX$6DDDDDDDDDD",
"DDDDDDDDDDDD97>>>@.@@>69DDDDDDDDDDDD",
"DDDDDDDDDDDDDDDDDDDDDDDDDDDDDDDDDDDD",
"DDDDDDDDDDDDDDDDDDDDDDDDDDDDDDDDDDDD"
};
