/* XPM */
static char *yellow_jump3[] = {
"36 36 63 1",
"  c black",
". c #2c2d08",
"X c #2e2e11",
"o c #2f3008",
"O c #343408",
"+ c #333415",
"@ c #383924",
"# c #403f07",
"$ c #48470a",
"% c #4b4d14",
"& c #56570b",
"* c #585813",
"= c #4c4c30",
"- c #5f630a",
"; c #605f0f",
": c #67670b",
"> c #696a13",
", c #6e730b",
"< c #77780b",
"1 c #777914",
"2 c #70702d",
"3 c #575545",
"4 c #6d6d54",
"5 c #767566",
"6 c #7f800b",
"7 c #817e37",
"8 c #817e51",
"9 c #817e68",
"0 c #88890a",
"q c #888812",
"w c #918e0d",
"e c #999808",
"r c #979813",
"t c #939235",
"y c #9fa304",
"u c #a19f0b",
"i c #a19e3f",
"p c #a8a708",
"a c #b6b608",
"s c #b1b116",
"d c #b1b32b",
"f c #8a8949",
"g c #878459",
"h c #848265",
"j c #a7a645",
"k c #bdc12c",
"l c #c0bd52",
"z c #c7c70a",
"x c #cacb15",
"c c #d8d809",
"v c #d8d916",
"b c #ccce34",
"n c #d8da27",
"m c #dee115",
"M c #e0df10",
"N c #e8e90e",
"B c #e4e415",
"V c #e5e726",
"C c #f4f22f",
"Z c #cbca43",
"A c #f8f850",
"S c #ffff65",
"D c None",
"DDDDDDDDDDDDDDDDDDDDDDDDDDDDDDDDDDDD",
"DDDDDDDDDDDDDDDDDDDDDDDDDDDDDDDDDDDD",
"DDDDDDDDDDDDDDDDDDDDDDDDDDDDDDDDDDDD",
"DDDDDDDDDDDDDDDDDDDDDDDDDDDDDDDDDDDD",
"DDDDDDDDDDDDDDDDDDDDDDDDDDDDDDDDDDDD",
"DDDDDDDDDDDDDDDDDDDDDDDDDDDDDDDDDDDD",
"DDDDDDDDDDDDDhgggggggh9DDDDDDDDDDDDD",
"DDDDDDDDDDD9ftjdkddditfgDDDDDDDDDDDD",
"DDDDDDDDDDgflZbvvVzasdt78hDDDDDDDDDD",
"DDDDDDDDDgjbnvCBcczzxxur14hDDDDDDDDD",
"DDDDDDDDgibmCNNMccczzapsq24DDDDDDDDD",
"DDDDDDDgjbvBNCNMcVzzaaper1*4DDDDDDDD",
"DDDDDD9tZvMNNNBcvcBzaapuwq>%9DDDDDDD",
"DDDDDDhinvBCcmVCvczvaapeww:*=DDDDDDD",
"DDDDDDfkVcccBVASAxvzapsuwq:&+5DDDDDD",
"DDDDD9fkxcBcvCSSAnaaapsr0<,&+=DDDDDD",
"DDDDDgjkzcBcxVAAbsaappuw<,-$O+DDDDDD",
"DDDDDfidzvcBvvxxaaapper0<:&%OXDDDDDD",
"DDDD5fidavvvzzzaaapsprr<,:&$O+5DDDDD",
"DDDDDftdaaaaaaaxsssrw06,:&%OoX4DDDDD",
"DDDDDftdpaaaapxspuewq<,:;&$OX+DDDDDD",
"DDDDDg2sypppsseeee0q<1>:&%OOXX5DDDDD",
"DDDDDg2qeseeeeee000<,::*&$oo++DDDDDD",
"DDDDDh210wwwrw00wqq1:>*&$O.o+=DDDDDD",
"DDDDDD4>1<qqq0<qq,:>:&$#OOooX4DDDDDD",
"DDDDDD9*2,,<<<1,::;&$%OOooXX+DDDDDDD",
"DDDDDDD2*>>:1>::&*&$$OO..XX+4DDDDDDD",
"DDDDDDDD%%**&&&&%$$OOo.oo.+@DDDDDDDD",
"DDDDDDDD4+O$$$$$OOOO..oo.X@4DDDDDDDD",
"DDDDDDDDD4XooOO.o...ooooX@4DDDDDDDDD",
"DDDDDDDDDD5@XX.oooo..XXX+4DDDDDDDDDD",
"DDDDDDDDDDDD3XXX.X.XXX@4DDDDDDDDDDDD",
"DDDDDDDDDDDDDD53==+==4DDDDDDDDDDDDDD",
"DDDDDDDDDDDDDDDDDDDDDDDDDDDDDDDDDDDD",
"DDDDDDDDDDDDDDDDDDDDDDDDDDDDDDDDDDDD",
"DDDDDDDDDDDDDDDDDDDDDDDDDDDDDDDDDDDD"
};
